<svg width="31" height="31" viewBox="0 0 31 31" fill="none" xmlns="http://www.w3.org/2000/svg">
<path d="M24.2657 3.5H6.73405C4.94797 3.5 3.5 4.94791 3.5 6.73405V24.2658C3.5 26.052 4.94791 27.4999 6.73405 27.4999H15.3806L15.3953 18.9236H13.1672C12.8777 18.9236 12.6426 18.6895 12.6415 18.3999L12.6308 15.6354C12.6297 15.3443 12.8654 15.1077 13.1566 15.1077H15.3806V12.4365C15.3806 9.33661 17.2739 7.64869 20.0392 7.64869H22.3083C22.5986 7.64869 22.8341 7.88406 22.8341 8.17444V10.5055C22.8341 10.7957 22.5988 11.031 22.3086 11.0312L20.9161 11.0319C19.4122 11.0319 19.121 11.7465 19.121 12.7952V15.1078H22.4255C22.7404 15.1078 22.9847 15.3827 22.9476 15.6954L22.6199 18.4599C22.5885 18.7244 22.3642 18.9237 22.0978 18.9237H19.1357L19.121 27.5H24.2658C26.0519 27.5 27.4998 26.0521 27.4998 24.266V6.73405C27.4998 4.94791 26.0519 3.5 24.2657 3.5Z" fill="white"/>
</svg>
