<svg width="30" height="30" viewBox="0 0 30 30" fill="none" xmlns="http://www.w3.org/2000/svg">
<path d="M23.7658 3H6.23417C4.44809 3 3.00012 4.44791 3.00012 6.23405V23.7658C3.00012 25.552 4.44803 26.9999 6.23417 26.9999H14.8807L14.8954 18.4236H12.6673C12.3778 18.4236 12.1428 18.1895 12.1416 17.8999L12.131 15.1354C12.1298 14.8443 12.3656 14.6077 12.6567 14.6077H14.8808V11.9365C14.8808 8.83661 16.774 7.14869 19.5393 7.14869H21.8084C22.0988 7.14869 22.3342 7.38406 22.3342 7.67444V10.0055C22.3342 10.2957 22.0989 10.531 21.8087 10.5312L20.4162 10.5319C18.9123 10.5319 18.6211 11.2465 18.6211 12.2952V14.6078H21.9256C22.2405 14.6078 22.4848 14.8827 22.4477 15.1954L22.12 17.9599C22.0887 18.2244 21.8643 18.4237 21.598 18.4237H18.6359L18.6211 27H23.766C25.552 27 26.9999 25.5521 26.9999 23.766V6.23405C26.9999 4.44791 25.552 3 23.7658 3Z" fill="#99A29C"/>
</svg>
