<svg width="77" height="66" viewBox="0 0 77 66" fill="none" xmlns="http://www.w3.org/2000/svg">
<path d="M0.5 33.1016C0.5 21.6379 9.79316 12.3447 21.2569 12.3447H61.9291C68.9435 12.3447 75.0096 7.45585 76.5 0.601562V33.1016V65.6016C75.0096 58.7473 68.9435 53.8584 61.9291 53.8584H21.2569C9.79317 53.8584 0.5 44.5653 0.5 33.1016Z" fill="#F5F5F5"/>
<path d="M34.2657 21.5H16.734C14.948 21.5 13.5 22.9479 13.5 24.734V42.2658C13.5 44.052 14.9479 45.4999 16.734 45.4999H25.3806L25.3953 36.9236H23.1672C22.8777 36.9236 22.6426 36.6895 22.6415 36.3999L22.6308 33.6354C22.6297 33.3443 22.8654 33.1077 23.1566 33.1077H25.3806V30.4365C25.3806 27.3366 27.2739 25.6487 30.0392 25.6487H32.3083C32.5986 25.6487 32.8341 25.8841 32.8341 26.1744V28.5055C32.8341 28.7957 32.5988 29.031 32.3086 29.0312L30.9161 29.0319C29.4122 29.0319 29.121 29.7465 29.121 30.7952V33.1078H32.4255C32.7404 33.1078 32.9847 33.3827 32.9476 33.6954L32.6199 36.4599C32.5885 36.7244 32.3642 36.9237 32.0978 36.9237H29.1357L29.121 45.5H34.2658C36.0519 45.5 37.4998 44.0521 37.4998 42.266V24.734C37.4998 22.9479 36.0519 21.5 34.2657 21.5Z" fill="#4267B2"/>
</svg>
