<svg width="30" height="30" viewBox="0 0 30 30" fill="none" xmlns="http://www.w3.org/2000/svg">
<path d="M23.7657 3H6.23405C4.44797 3 3 4.44791 3 6.23405V23.7658C3 25.552 4.44791 26.9999 6.23405 26.9999H14.8806L14.8953 18.4236H12.6672C12.3777 18.4236 12.1426 18.1895 12.1415 17.8999L12.1308 15.1354C12.1297 14.8443 12.3654 14.6077 12.6566 14.6077H14.8806V11.9365C14.8806 8.83661 16.7739 7.14869 19.5392 7.14869H21.8083C22.0986 7.14869 22.3341 7.38406 22.3341 7.67444V10.0055C22.3341 10.2957 22.0988 10.531 21.8086 10.5312L20.4161 10.5319C18.9122 10.5319 18.621 11.2465 18.621 12.2952V14.6078H21.9255C22.2404 14.6078 22.4847 14.8827 22.4476 15.1954L22.1199 17.9599C22.0885 18.2244 21.8642 18.4237 21.5978 18.4237H18.6357L18.621 27H23.7658C25.5519 27 26.9998 25.5521 26.9998 23.766V6.23405C26.9998 4.44791 25.5519 3 23.7657 3Z" fill="#9397B2"/>
</svg>
