<svg width="31" height="31" viewBox="0 0 31 31" fill="none" xmlns="http://www.w3.org/2000/svg">
<path d="M15.5 1.5C7.7685 1.5 1.5 7.86665 1.5 15.7192C1.5 22.3821 6.01733 27.9572 12.1073 29.5C12.042 29.308 12 29.0853 12 28.8092V26.3789C11.4318 26.3789 10.4798 26.3789 10.2407 26.3789C9.28283 26.3789 8.43117 25.9606 8.01817 25.1833C7.55967 24.3195 7.48033 22.9983 6.344 22.1901C6.00683 21.9212 6.2635 21.6143 6.652 21.6557C7.3695 21.8619 7.9645 22.362 8.5245 23.1037C9.08217 23.8467 9.34467 24.0149 10.3865 24.0149C10.8917 24.0149 11.6477 23.9853 12.3593 23.8716C12.742 22.8845 13.4035 21.9757 14.212 21.5467C9.55 21.0597 7.32517 18.7041 7.32517 15.5059C7.32517 14.129 7.90267 12.7972 8.88383 11.675C8.56183 10.5612 8.157 8.28967 9.0075 7.42467C11.1052 7.42467 12.3733 8.80631 12.6778 9.17956C13.7232 8.81579 14.8712 8.60961 16.0775 8.60961C17.2862 8.60961 18.4388 8.81579 19.4865 9.18193C19.7875 8.81105 21.0568 7.42467 23.1592 7.42467C24.0132 8.29086 23.6037 10.5719 23.2782 11.6833C24.2535 12.8031 24.8275 14.1314 24.8275 15.5059C24.8275 18.7017 22.6062 21.0562 17.9512 21.5455C19.2322 22.2245 20.1667 24.1322 20.1667 25.5696V28.8092C20.1667 28.9324 20.1398 29.0213 20.1258 29.1267C25.5812 27.1846 29.5 21.9235 29.5 15.7192C29.5 7.86665 23.2315 1.5 15.5 1.5Z" fill="white"/>
</svg>
