<svg width="30" height="30" viewBox="0 0 30 30" fill="none" xmlns="http://www.w3.org/2000/svg">
<path d="M15 1C7.2685 1 1 7.36665 1 15.2192C1 21.8821 5.51733 27.4572 11.6073 29C11.542 28.808 11.5 28.5853 11.5 28.3092V25.8789C10.9318 25.8789 9.97983 25.8789 9.74067 25.8789C8.78283 25.8789 7.93117 25.4606 7.51817 24.6833C7.05967 23.8195 6.98033 22.4983 5.844 21.6901C5.50683 21.4212 5.7635 21.1143 6.152 21.1557C6.8695 21.3619 7.4645 21.862 8.0245 22.6037C8.58217 23.3467 8.84467 23.5149 9.8865 23.5149C10.3917 23.5149 11.1477 23.4853 11.8593 23.3716C12.242 22.3845 12.9035 21.4757 13.712 21.0467C9.05 20.5597 6.82517 18.2041 6.82517 15.0059C6.82517 13.629 7.40267 12.2972 8.38383 11.175C8.06183 10.0612 7.657 7.78967 8.5075 6.92467C10.6052 6.92467 11.8733 8.30631 12.1778 8.67956C13.2232 8.31579 14.3712 8.10961 15.5775 8.10961C16.7862 8.10961 17.9388 8.31579 18.9865 8.68193C19.2875 8.31105 20.5568 6.92467 22.6592 6.92467C23.5132 7.79086 23.1037 10.0719 22.7782 11.1833C23.7535 12.3031 24.3275 13.6314 24.3275 15.0059C24.3275 18.2017 22.1062 20.5562 17.4512 21.0455C18.7322 21.7245 19.6667 23.6322 19.6667 25.0696V28.3092C19.6667 28.4324 19.6398 28.5213 19.6258 28.6267C25.0812 26.6846 29 21.4235 29 15.2192C29 7.36665 22.7315 1 15 1Z" fill="#9397B2"/>
</svg>
