<svg width="77" height="66" viewBox="0 0 77 66" fill="none" xmlns="http://www.w3.org/2000/svg">
<path d="M0.5 32.6016C0.5 21.1379 9.79316 11.8447 21.2569 11.8447H61.9291C68.9435 11.8447 75.0096 6.95585 76.5 0.101562V32.6016V65.1016C75.0096 58.2473 68.9435 53.3584 61.9291 53.3584H21.2569C9.79317 53.3584 0.5 44.0653 0.5 32.6016Z" fill="white"/>
<path d="M13.5 30.4911V42.0004C13.5 42.5526 13.9477 43.0004 14.5 43.0004H20.2647C20.817 43.0004 21.2647 42.5526 21.2647 42.0004V37.0004C21.2647 34.8562 23.0029 33.118 25.1471 33.118C27.2912 33.118 29.0294 34.8562 29.0294 37.0004V42.0004C29.0294 42.5526 29.4771 43.0004 30.0294 43.0004H36.5C37.0523 43.0004 37.5 42.5526 37.5 42.0004V30.4911C37.5 29.9173 37.2535 29.3711 36.8232 28.9915L26.1616 19.5841C25.7836 19.2506 25.2164 19.2506 24.8384 19.5841L14.1768 28.9915C13.7465 29.3711 13.5 29.9173 13.5 30.4911Z" fill="#6A9586"/>
</svg>
