<svg width="77" height="66" viewBox="0 0 77 66" fill="none" xmlns="http://www.w3.org/2000/svg">
<path d="M0.679688 33.2666C0.679688 21.8029 9.97285 12.5097 21.4365 12.5097H62.1088C69.1232 12.5097 75.1893 7.62089 76.6797 0.766602V33.2666V65.7666C75.1893 58.9123 69.1232 54.0235 62.1088 54.0235H21.4366C9.97286 54.0235 0.679688 44.7303 0.679688 33.2666Z" fill="white"/>
<path d="M13.6797 31.1562V42.6654C13.6797 43.2177 14.1274 43.6654 14.6797 43.6654H20.4444C20.9967 43.6654 21.4444 43.2177 21.4444 42.6654V37.6654C21.4444 35.5212 23.1826 33.783 25.3267 33.783C27.4709 33.783 29.2091 35.5212 29.2091 37.6654V42.6654C29.2091 43.2177 29.6568 43.6654 30.2091 43.6654H36.6797C37.232 43.6654 37.6797 43.2177 37.6797 42.6654V31.1562C37.6797 30.5823 37.4332 30.0362 37.0029 29.6565L26.3413 20.2492C25.9633 19.9156 25.3961 19.9156 25.0181 20.2492L14.3564 29.6565C13.9262 30.0362 13.6797 30.5823 13.6797 31.1562Z" fill="#707FDA"/>
</svg>
