<svg width="30" height="30" viewBox="0 0 30 30" fill="none" xmlns="http://www.w3.org/2000/svg">
<path d="M3 14.4911V26.0004C3 26.5526 3.44771 27.0004 4 27.0004H9.76471C10.317 27.0004 10.7647 26.5526 10.7647 26.0004V21.0004C10.7647 18.8562 12.5029 17.118 14.6471 17.118C16.7912 17.118 18.5294 18.8562 18.5294 21.0004V26.0004C18.5294 26.5526 18.9771 27.0004 19.5294 27.0004H26C26.5523 27.0004 27 26.5526 27 26.0004V14.4911C27 13.9173 26.7535 13.3711 26.3232 12.9915L15.6616 3.58415C15.2836 3.2506 14.7164 3.2506 14.3384 3.58415L3.67676 12.9915C3.24648 13.3711 3 13.9173 3 14.4911Z" fill="#9397B2"/>
</svg>
