<svg width="30" height="30" viewBox="0 0 30 30" fill="none" xmlns="http://www.w3.org/2000/svg">
<path d="M3 14.4906V25.9999C3 26.5522 3.44771 26.9999 4 26.9999H9.76471C10.317 26.9999 10.7647 26.5522 10.7647 25.9999V20.9999C10.7647 18.8557 12.5029 17.1175 14.6471 17.1175C16.7912 17.1175 18.5294 18.8557 18.5294 20.9999V25.9999C18.5294 26.5522 18.9771 26.9999 19.5294 26.9999H26C26.5523 26.9999 27 26.5522 27 25.9999V14.4906C27 13.9168 26.7535 13.3706 26.3232 12.991L15.6616 3.58366C15.2836 3.25011 14.7164 3.25011 14.3384 3.58366L3.67676 12.991C3.24648 13.3706 3 13.9168 3 14.4906Z" fill="#99A29C"/>
</svg>
