<svg width="31" height="31" viewBox="0 0 31 31" fill="none" xmlns="http://www.w3.org/2000/svg">
<path d="M3.5 14.9892V26.4984C3.5 27.0507 3.94771 27.4984 4.5 27.4984H10.2647C10.817 27.4984 11.2647 27.0507 11.2647 26.4984V21.4984C11.2647 19.3542 13.0029 17.6161 15.1471 17.6161C17.2912 17.6161 19.0294 19.3542 19.0294 21.4984V26.4984C19.0294 27.0507 19.4771 27.4984 20.0294 27.4984H26.5C27.0523 27.4984 27.5 27.0507 27.5 26.4984V14.9892C27.5 14.4154 27.2535 13.8692 26.8232 13.4895L16.1616 4.08219C15.7836 3.74864 15.2164 3.74864 14.8384 4.08219L4.17676 13.4895C3.74648 13.8692 3.5 14.4154 3.5 14.9892Z" fill="white"/>
</svg>
