<svg width="30" height="30" viewBox="0 0 30 30" fill="none" xmlns="http://www.w3.org/2000/svg">
<path d="M21.6748 26.9873L8.34851 27C5.41673 27.0027 3.01599 24.6066 3.01266 21.6748L3 8.34851C2.99734 5.41673 5.39341 3.01599 8.32519 3.01266L21.6515 3C24.5833 2.99734 26.984 5.39341 26.9873 8.32519L27 21.6515C27.0033 24.5839 24.6066 26.9847 21.6748 26.9873Z" fill="#9397B2"/>
<path d="M21.6748 26.9873L8.34851 27C5.41673 27.0027 3.01599 24.6066 3.01266 21.6748L3 8.34851C2.99734 5.41673 5.39341 3.01599 8.32519 3.01266L21.6515 3C24.5833 2.99734 26.984 5.39341 26.9873 8.32519L27 21.6515C27.0033 24.5839 24.6066 26.9847 21.6748 26.9873Z" fill="#9397B2"/>
<path d="M14.9999 19.5716C12.4797 19.5716 10.4285 17.521 10.4285 15.0001C10.4285 12.4793 12.4797 10.4287 14.9999 10.4287C17.5201 10.4287 19.5713 12.4793 19.5713 15.0001C19.5713 17.521 17.5201 19.5716 14.9999 19.5716ZM14.9999 11.7348C13.1994 11.7348 11.7346 13.1996 11.7346 15.0001C11.7346 16.8006 13.1994 18.2654 14.9999 18.2654C16.8004 18.2654 18.2652 16.8006 18.2652 15.0001C18.2652 13.1996 16.8004 11.7348 14.9999 11.7348Z" fill="white"/>
<path d="M19.8571 10.9864C20.3305 10.9864 20.7143 10.6017 20.7143 10.127C20.7143 9.65236 20.3305 9.26758 19.8571 9.26758C19.3838 9.26758 19 9.65236 19 10.127C19 10.6017 19.3838 10.9864 19.8571 10.9864Z" fill="white"/>
<path d="M18.9559 23.5716H11.0439C8.49946 23.5716 6.42847 21.5012 6.42847 18.9562V11.0441C6.42847 8.49904 8.49946 6.42871 11.0439 6.42871H18.9559C21.5003 6.42871 23.5713 8.49904 23.5713 11.0441V18.9562C23.5713 21.5012 21.5003 23.5716 18.9559 23.5716ZM11.0439 7.74739C9.22605 7.74739 7.74715 9.22629 7.74715 11.0441V18.9562C7.74715 20.774 9.22605 22.2529 11.0439 22.2529H18.9559C20.7737 22.2529 22.2526 20.774 22.2526 18.9562V11.0441C22.2526 9.22629 20.7737 7.74739 18.9559 7.74739H11.0439Z" fill="white"/>
</svg>
