<svg width="77" height="66" viewBox="0 0 77 66" fill="none" xmlns="http://www.w3.org/2000/svg">
<path d="M0.5 33.1016C0.5 21.6379 9.79316 12.3447 21.2569 12.3447H61.9291C68.9435 12.3447 75.0096 7.45585 76.5 0.601562V33.1016V65.6016C75.0096 58.7473 68.9435 53.8584 61.9291 53.8584H21.2569C9.79317 53.8584 0.5 44.5653 0.5 33.1016Z" fill="#F5F5F5"/>
<path d="M32.1748 45.4873L18.8485 45.5C15.9167 45.5027 13.516 43.1066 13.5127 40.1748L13.5 26.8485C13.4973 23.9167 15.8934 21.516 18.8252 21.5127L32.1515 21.5C35.0833 21.4973 37.484 23.8934 37.4873 26.8252L37.5 40.1515C37.5033 43.0839 35.1066 45.4847 32.1748 45.4873Z" fill="url(#paint0_linear_101_51632)"/>
<path d="M32.1748 45.4873L18.8485 45.5C15.9167 45.5027 13.516 43.1066 13.5127 40.1748L13.5 26.8485C13.4973 23.9167 15.8934 21.516 18.8252 21.5127L32.1515 21.5C35.0833 21.4973 37.484 23.8934 37.4873 26.8252L37.5 40.1515C37.5033 43.0839 35.1066 45.4847 32.1748 45.4873Z" fill="url(#paint1_linear_101_51632)"/>
<path d="M25.4992 38.0706C22.979 38.0706 20.9277 36.02 20.9277 33.4992C20.9277 30.9783 22.979 28.9277 25.4992 28.9277C28.0193 28.9277 30.0706 30.9783 30.0706 33.4992C30.0706 36.02 28.0193 38.0706 25.4992 38.0706ZM25.4992 30.2339C23.6987 30.2339 22.2339 31.6987 22.2339 33.4992C22.2339 35.2997 23.6987 36.7645 25.4992 36.7645C27.2997 36.7645 28.7645 35.2997 28.7645 33.4992C28.7645 31.6987 27.2997 30.2339 25.4992 30.2339Z" fill="white"/>
<path d="M30.3571 29.4864C30.8305 29.4864 31.2143 29.1017 31.2143 28.627C31.2143 28.1524 30.8305 27.7676 30.3571 27.7676C29.8838 27.7676 29.5 28.1524 29.5 28.627C29.5 29.1017 29.8838 29.4864 30.3571 29.4864Z" fill="white"/>
<path d="M29.4552 42.0706H21.5431C18.9987 42.0706 16.9277 40.0003 16.9277 37.4552V29.5431C16.9277 26.9981 18.9987 24.9277 21.5431 24.9277H29.4552C31.9996 24.9277 34.0706 26.9981 34.0706 29.5431V37.4552C34.0706 40.0003 31.9996 42.0706 29.4552 42.0706ZM21.5431 26.2464C19.7253 26.2464 18.2464 27.7253 18.2464 29.5431V37.4552C18.2464 39.273 19.7253 40.7519 21.5431 40.7519H29.4552C31.273 40.7519 32.7519 39.273 32.7519 37.4552V29.5431C32.7519 27.7253 31.273 26.2464 29.4552 26.2464H21.5431Z" fill="white"/>
<defs>
<linearGradient id="paint0_linear_101_51632" x1="25.5" y1="21.5" x2="25.5" y2="45.5" gradientUnits="userSpaceOnUse">
<stop stop-color="#6864DF"/>
<stop offset="1" stop-color="#EA4065"/>
</linearGradient>
<linearGradient id="paint1_linear_101_51632" x1="36.7259" y1="21.5" x2="15.6267" y2="43.3382" gradientUnits="userSpaceOnUse">
<stop stop-color="#5558CA"/>
<stop offset="0.523727" stop-color="#E14471"/>
<stop offset="1" stop-color="#FFBF50"/>
</linearGradient>
</defs>
</svg>
