<svg width="31" height="31" viewBox="0 0 31 31" fill="none" xmlns="http://www.w3.org/2000/svg">
<path d="M22.1748 27.4873L8.84851 27.5C5.91673 27.5027 3.51599 25.1066 3.51266 22.1748L3.5 8.84851C3.49734 5.91673 5.89341 3.51599 8.82519 3.51266L22.1515 3.5C25.0833 3.49734 27.484 5.89341 27.4873 8.82519L27.5 22.1515C27.5033 25.0839 25.1066 27.4847 22.1748 27.4873Z" fill="white"/>
<path d="M22.1748 27.4873L8.84851 27.5C5.91673 27.5027 3.51599 25.1066 3.51266 22.1748L3.5 8.84851C3.49734 5.91673 5.89341 3.51599 8.82519 3.51266L22.1515 3.5C25.0833 3.49734 27.484 5.89341 27.4873 8.82519L27.5 22.1515C27.5033 25.0839 25.1066 27.4847 22.1748 27.4873Z" fill="white"/>
<path d="M15.4992 20.0725C12.979 20.0725 10.9277 18.0219 10.9277 15.5011C10.9277 12.9803 12.979 10.9297 15.4992 10.9297C18.0193 10.9297 20.0706 12.9803 20.0706 15.5011C20.0706 18.0219 18.0193 20.0725 15.4992 20.0725ZM15.4992 12.2358C13.6987 12.2358 12.2339 13.7006 12.2339 15.5011C12.2339 17.3016 13.6987 18.7664 15.4992 18.7664C17.2997 18.7664 18.7645 17.3016 18.7645 15.5011C18.7645 13.7006 17.2997 12.2358 15.4992 12.2358Z" fill="#707FDA"/>
<path d="M20.3571 11.4845C20.8305 11.4845 21.2143 11.0997 21.2143 10.6251C21.2143 10.1504 20.8305 9.76562 20.3571 9.76562C19.8838 9.76562 19.5 10.1504 19.5 10.6251C19.5 11.0997 19.8838 11.4845 20.3571 11.4845Z" fill="#707FDA"/>
<path d="M19.4552 24.0725H11.5431C8.99872 24.0725 6.92773 22.0022 6.92773 19.4572V11.5451C6.92773 9.00002 8.99872 6.92969 11.5431 6.92969H19.4552C21.9996 6.92969 24.0706 9.00002 24.0706 11.5451V19.4572C24.0706 22.0022 21.9996 24.0725 19.4552 24.0725ZM11.5431 8.24837C9.72532 8.24837 8.24642 9.72727 8.24642 11.5451V19.4572C8.24642 21.275 9.72532 22.7539 11.5431 22.7539H19.4552C21.273 22.7539 22.7519 21.275 22.7519 19.4572V11.5451C22.7519 9.72727 21.273 8.24837 19.4552 8.24837H11.5431Z" fill="#707FDA"/>
</svg>
