<svg width="31" height="30" viewBox="0 0 31 30" fill="none" xmlns="http://www.w3.org/2000/svg">
<path d="M22.1748 26.9873L8.84851 27C5.91673 27.0027 3.51599 24.6066 3.51266 21.6748L3.5 8.34851C3.49734 5.41673 5.89341 3.01599 8.82519 3.01266L22.1515 3C25.0833 2.99734 27.484 5.39341 27.4873 8.32519L27.5 21.6515C27.5033 24.5839 25.1066 26.9847 22.1748 26.9873Z" fill="white"/>
<path d="M22.1748 26.9873L8.84851 27C5.91673 27.0027 3.51599 24.6066 3.51266 21.6748L3.5 8.34851C3.49734 5.41673 5.89341 3.01599 8.82519 3.01266L22.1515 3C25.0833 2.99734 27.484 5.39341 27.4873 8.32519L27.5 21.6515C27.5033 24.5839 25.1066 26.9847 22.1748 26.9873Z" fill="white"/>
<path d="M15.5 19.5706C12.9798 19.5706 10.9286 17.52 10.9286 14.9992C10.9286 12.4783 12.9798 10.4277 15.5 10.4277C18.0202 10.4277 20.0714 12.4783 20.0714 14.9992C20.0714 17.52 18.0202 19.5706 15.5 19.5706ZM15.5 11.7339C13.6995 11.7339 12.2347 13.1987 12.2347 14.9992C12.2347 16.7997 13.6995 18.2645 15.5 18.2645C17.3005 18.2645 18.7653 16.7997 18.7653 14.9992C18.7653 13.1987 17.3005 11.7339 15.5 11.7339Z" fill="#6A9586"/>
<path d="M20.3571 10.9864C20.8305 10.9864 21.2143 10.6017 21.2143 10.127C21.2143 9.65236 20.8305 9.26758 20.3571 9.26758C19.8838 9.26758 19.5 9.65236 19.5 10.127C19.5 10.6017 19.8838 10.9864 20.3571 10.9864Z" fill="#6A9586"/>
<path d="M19.456 23.5706H11.5439C8.99955 23.5706 6.92856 21.5003 6.92856 18.9552V11.0431C6.92856 8.49806 8.99955 6.42773 11.5439 6.42773H19.456C22.0004 6.42773 24.0714 8.49806 24.0714 11.0431V18.9552C24.0714 21.5003 22.0004 23.5706 19.456 23.5706ZM11.5439 7.74642C9.72614 7.74642 8.24724 9.22532 8.24724 11.0431V18.9552C8.24724 20.773 9.72614 22.2519 11.5439 22.2519H19.456C21.2738 22.2519 22.7527 20.773 22.7527 18.9552V11.0431C22.7527 9.22532 21.2738 7.74642 19.456 7.74642H11.5439Z" fill="#6A9586"/>
</svg>
