<svg width="77" height="66" viewBox="0 0 77 66" fill="none" xmlns="http://www.w3.org/2000/svg">
<path d="M0.5 32.6016C0.5 21.1379 9.79316 11.8447 21.2569 11.8447H61.9291C68.9435 11.8447 75.0096 6.95585 76.5 0.101562V0.101562V32.6016V65.1016V65.1016C75.0096 58.2473 68.9435 53.3584 61.9291 53.3584H21.2569C9.79317 53.3584 0.5 44.0653 0.5 32.6016V32.6016Z" fill="#F5F5F5"/>
<path d="M35.329 21H15.671C14.472 21 13.5 21.972 13.5 23.171V42.8289C13.5 44.028 14.472 45 15.671 45H35.3289C36.528 45 37.5 44.028 37.5 42.8289V23.171C37.5 21.972 36.528 21 35.329 21ZM20.9266 41.7232C20.9266 42.0721 20.6438 42.355 20.2948 42.355H17.6054C17.2565 42.355 16.9737 42.0721 16.9737 41.7232V30.4494C16.9737 30.1005 17.2565 29.8176 17.6054 29.8176H20.2948C20.6438 29.8176 20.9266 30.1005 20.9266 30.4494V41.7232ZM18.9501 28.7549C17.5391 28.7549 16.3952 27.611 16.3952 26.2C16.3952 24.7889 17.5391 23.645 18.9501 23.645C20.3612 23.645 21.5051 24.7889 21.5051 26.2C21.5051 27.611 20.3612 28.7549 18.9501 28.7549ZM34.9813 41.7741C34.9813 42.0949 34.7212 42.355 34.4004 42.355H31.5145C31.1937 42.355 30.9335 42.0949 30.9335 41.7741V36.486C30.9335 35.6972 31.1649 33.0292 28.872 33.0292C27.0934 33.0292 26.7327 34.8553 26.6602 35.6749V41.7741C26.6602 42.0949 26.4002 42.355 26.0793 42.355H23.2882C22.9674 42.355 22.7073 42.0949 22.7073 41.7741V30.3985C22.7073 30.0777 22.9674 29.8176 23.2882 29.8176H26.0793C26.4001 29.8176 26.6602 30.0777 26.6602 30.3985V31.3821C27.3197 30.3924 28.2998 29.6284 30.3866 29.6284C35.0077 29.6284 34.9813 33.9457 34.9813 36.3178V41.7741Z" fill="#0077B7"/>
</svg>
