<svg width="30" height="30" viewBox="0 0 30 30" fill="none" xmlns="http://www.w3.org/2000/svg">
<path d="M24.829 3H5.17099C3.972 3 3 3.972 3 5.17099V24.8289C3 26.028 3.972 27 5.17099 27H24.8289C26.028 27 27 26.028 27 24.8289V5.17099C27 3.972 26.028 3 24.829 3ZM10.4266 23.7232C10.4266 24.0721 10.1438 24.355 9.79483 24.355H7.10544C6.7565 24.355 6.47365 24.0721 6.47365 23.7232V12.4494C6.47365 12.1005 6.7565 11.8176 7.10544 11.8176H9.79483C10.1438 11.8176 10.4266 12.1005 10.4266 12.4494V23.7232ZM8.45014 10.7549C7.0391 10.7549 5.8952 9.61099 5.8952 8.19996C5.8952 6.78892 7.0391 5.64503 8.45014 5.64503C9.86117 5.64503 11.0051 6.78892 11.0051 8.19996C11.0051 9.61099 9.86124 10.7549 8.45014 10.7549ZM24.4813 23.7741C24.4813 24.0949 24.2212 24.355 23.9004 24.355H21.0145C20.6937 24.355 20.4335 24.0949 20.4335 23.7741V18.486C20.4335 17.6972 20.6649 15.0292 18.372 15.0292C16.5934 15.0292 16.2327 16.8553 16.1602 17.6749V23.7741C16.1602 24.0949 15.9002 24.355 15.5793 24.355H12.7882C12.4674 24.355 12.2073 24.0949 12.2073 23.7741V12.3985C12.2073 12.0777 12.4674 11.8176 12.7882 11.8176H15.5793C15.9001 11.8176 16.1602 12.0777 16.1602 12.3985V13.3821C16.8197 12.3924 17.7998 11.6284 19.8866 11.6284C24.5077 11.6284 24.4813 15.9457 24.4813 18.3178V23.7741Z" fill="#9397B2"/>
</svg>
