<svg width="31" height="31" viewBox="0 0 31 31" fill="none" xmlns="http://www.w3.org/2000/svg">
<path d="M25.329 3.5H5.67099C4.472 3.5 3.5 4.472 3.5 5.67099V25.3289C3.5 26.528 4.472 27.5 5.67099 27.5H25.3289C26.528 27.5 27.5 26.528 27.5 25.3289V5.67099C27.5 4.472 26.528 3.5 25.329 3.5ZM10.9266 24.2232C10.9266 24.5721 10.6438 24.855 10.2948 24.855H7.60544C7.2565 24.855 6.97365 24.5721 6.97365 24.2232V12.9494C6.97365 12.6005 7.2565 12.3176 7.60544 12.3176H10.2948C10.6438 12.3176 10.9266 12.6005 10.9266 12.9494V24.2232ZM8.95014 11.2549C7.5391 11.2549 6.3952 10.111 6.3952 8.69996C6.3952 7.28892 7.5391 6.14503 8.95014 6.14503C10.3612 6.14503 11.5051 7.28892 11.5051 8.69996C11.5051 10.111 10.3612 11.2549 8.95014 11.2549ZM24.9813 24.2741C24.9813 24.5949 24.7212 24.855 24.4004 24.855H21.5145C21.1937 24.855 20.9335 24.5949 20.9335 24.2741V18.986C20.9335 18.1972 21.1649 15.5292 18.872 15.5292C17.0934 15.5292 16.7327 17.3553 16.6602 18.1749V24.2741C16.6602 24.5949 16.4002 24.855 16.0793 24.855H13.2882C12.9674 24.855 12.7073 24.5949 12.7073 24.2741V12.8985C12.7073 12.5777 12.9674 12.3176 13.2882 12.3176H16.0793C16.4001 12.3176 16.6602 12.5777 16.6602 12.8985V13.8821C17.3197 12.8924 18.2998 12.1284 20.3866 12.1284C25.0077 12.1284 24.9813 16.4457 24.9813 18.8178V24.2741Z" fill="white"/>
</svg>
