<svg width="31" height="30" viewBox="0 0 31 30" fill="none" xmlns="http://www.w3.org/2000/svg">
<path d="M24.1619 3.86328H6.83811C5.47077 3.86328 4.36328 4.97077 4.36328 6.33811V23.6619C4.36328 25.0292 5.47077 26.1367 6.83811 26.1367H24.1619C25.5292 26.1367 26.6367 25.0292 26.6367 23.6619V6.33811C26.6367 4.97077 25.5292 3.86328 24.1619 3.86328ZM20.4497 21.1871H10.5503C9.8673 21.1871 9.31293 20.6327 9.31293 19.9497C9.31293 19.2666 9.8673 18.7122 10.5503 18.7122H20.4497C21.1327 18.7122 21.6871 19.2666 21.6871 19.9497C21.6871 20.6327 21.1327 21.1871 20.4497 21.1871ZM20.4497 16.2374H10.5503C9.8673 16.2374 9.31293 15.6831 9.31293 15C9.31293 14.3169 9.8673 13.7626 10.5503 13.7626H20.4497C21.1327 13.7626 21.6871 14.3169 21.6871 15C21.6871 15.6831 21.1327 16.2374 20.4497 16.2374ZM20.4497 11.2878H10.5503C9.8673 11.2878 9.31293 10.7334 9.31293 10.0503C9.31293 9.3673 9.8673 8.81293 10.5503 8.81293H20.4497C21.1327 8.81293 21.6871 9.3673 21.6871 10.0503C21.6871 10.7334 21.1327 11.2878 20.4497 11.2878Z" fill="white"/>
</svg>
