<svg width="20" height="20" viewBox="0 0 20 20" fill="none" xmlns="http://www.w3.org/2000/svg">
<path d="M6.19799 13.1846L3.76099 10.7847H13.4615H13.6615V10.5847V9.41537V9.21537H13.4615H3.76099L6.19799 6.81547L6.3427 6.67297L6.19799 6.53047L5.35839 5.70369L5.20893 5.55651L5.06904 5.7128L1.35098 9.86661L1.23158 10L1.35098 10.1334L5.06904 14.2873L5.20893 14.4436L5.35839 14.2964L6.19799 13.4696L6.3427 13.3271L6.19799 13.1846Z" fill="white" stroke="white" stroke-width="0.4"/>
<path d="M6.53906 0.8H6.33906V1V2.2V2.4H6.53906H17.6138V17.6H6.53906H6.33906V17.8V19V19.2H6.53906H19.0006H19.2006V19V1V0.8H19.0006H6.53906Z" fill="white" stroke="white" stroke-width="0.4"/>
</svg>
