<svg width="31" height="30" viewBox="0 0 31 30" fill="none" xmlns="http://www.w3.org/2000/svg">
<g clip-path="url(#clip0_13816_293251)">
<path d="M16.75 3C16.1613 3 15.6696 3.43209 15.6221 3.99609L15.6026 4.22344C15.5991 4.26301 15.6163 4.29718 15.6172 4.33594C14.6376 4.55462 13.7745 5.04688 13.1099 5.72813C13.075 5.70768 13.0526 5.67491 13.0147 5.65781L12.8023 5.56172C12.2698 5.32052 11.6324 5.5104 11.3374 6C11.0424 6.4896 11.1882 7.11278 11.6719 7.43438L11.8672 7.56563C11.9046 7.59051 11.9477 7.59485 11.9868 7.61484C11.8475 8.05609 11.75 8.5151 11.75 9C11.75 9.48491 11.8475 9.94391 11.9868 10.3852C11.9477 10.4051 11.9046 10.4095 11.8672 10.4344L11.6719 10.5633C11.1882 10.8861 11.0424 11.5104 11.3374 12C11.6324 12.4896 12.2698 12.6795 12.8023 12.4383L13.0147 12.3422C13.0525 12.3251 13.0751 12.2923 13.1099 12.2719C13.774 12.9526 14.6361 13.4451 15.6148 13.6641C15.6138 13.7028 15.5968 13.737 15.6001 13.7766L15.6221 14.0039C15.6709 14.5679 16.1613 15 16.75 15C17.3388 15 17.8305 14.5679 17.878 14.0039L17.8975 13.7766C17.9009 13.737 17.8838 13.7028 17.8829 13.6641C18.8624 13.4454 19.7256 12.9531 20.3902 12.2719C20.4251 12.2924 20.4475 12.325 20.4854 12.3422L20.6978 12.4406C21.2303 12.6818 21.8677 12.4919 22.1627 12.0023C22.4577 11.5127 22.3119 10.8884 21.8282 10.5656L21.6329 10.4344C21.5954 10.4095 21.5524 10.4052 21.5132 10.3852C21.6526 9.94391 21.7501 9.48491 21.7501 9C21.7501 8.5151 21.6526 8.05609 21.5132 7.61484C21.5524 7.59486 21.5954 7.59051 21.6329 7.56563L21.8282 7.43672C22.3119 7.11392 22.4577 6.4896 22.1627 6C21.8677 5.5104 21.2303 5.32052 20.6978 5.56172L20.4854 5.65781C20.4476 5.67494 20.425 5.70769 20.3902 5.72813C19.7261 5.04741 18.8639 4.55488 17.8853 4.33594C17.8863 4.29718 17.9033 4.26301 17.8999 4.22344L17.878 3.99609C17.8292 3.43209 17.3388 3 16.75 3ZM16.75 7.2C17.785 7.2 18.625 8.0064 18.625 9C18.625 9.9936 17.785 10.8 16.75 10.8C15.715 10.8 14.875 9.9936 14.875 9C14.875 8.0064 15.715 7.2 16.75 7.2ZM26.2325 15C25.78 15 25.3275 15.1657 24.9825 15.4969L19.2501 21H14.25C13.905 21 13.625 20.7312 13.625 20.4C13.625 20.0688 13.905 19.8 14.25 19.8H17.375C18.4063 19.8 19.2501 18.99 19.2501 18C19.2501 17.01 18.4063 16.2 17.375 16.2H11.3203C9.99533 16.2 8.72512 16.7063 7.78761 17.6063L3 22.2L8.00002 27L10.5 24.6H19.4649C20.1274 24.6 20.7637 24.3469 21.2325 23.8969L27.4825 17.8969C28.1725 17.2345 28.1725 16.1593 27.4825 15.4969C27.1375 15.1657 26.685 15 26.2325 15Z" fill="white"/>
</g>
<defs>
<clipPath id="clip0_13816_293251">
<rect width="25" height="24" fill="white" transform="translate(3 3)"/>
</clipPath>
</defs>
</svg>
