<svg width="77" height="66" viewBox="0 0 77 66" fill="none" xmlns="http://www.w3.org/2000/svg">
<path d="M0.679688 33.2715C0.679688 21.8078 9.97285 12.5146 21.4365 12.5146H62.1088C69.1232 12.5146 75.1893 7.62577 76.6797 0.771484V33.2715V65.7715C75.1893 58.9172 69.1232 54.0283 62.1088 54.0283H21.4366C9.97286 54.0283 0.679688 44.7352 0.679688 33.2715Z" fill="white"/>
<g clip-path="url(#clip0_13826_299861)">
<path d="M26.9297 21.2715C26.341 21.2715 25.8493 21.7036 25.8018 22.2676L25.7823 22.4949C25.7788 22.5345 25.796 22.5687 25.7969 22.6074C24.8173 22.8261 23.9542 23.3184 23.2896 23.9996C23.2547 23.9792 23.2323 23.9464 23.1944 23.9293L22.982 23.8332C22.4495 23.592 21.8121 23.7819 21.5171 24.2715C21.2221 24.7611 21.3678 25.3843 21.8516 25.7059L22.0469 25.8371C22.0843 25.862 22.1274 25.8663 22.1665 25.8863C22.0272 26.3276 21.9297 26.7866 21.9297 27.2715C21.9297 27.7564 22.0272 28.2154 22.1665 28.6566C22.1274 28.6766 22.0843 28.681 22.0469 28.7059L21.8516 28.8348C21.3678 29.1576 21.2221 29.7819 21.5171 30.2715C21.8121 30.7611 22.4495 30.951 22.982 30.7098L23.1944 30.6137C23.2322 30.5965 23.2548 30.5638 23.2896 30.5434C23.9537 31.2241 24.8158 31.7166 25.7945 31.9355C25.7935 31.9743 25.7765 32.0085 25.7798 32.048L25.8018 32.2754C25.8505 32.8394 26.341 33.2715 26.9297 33.2715C27.5185 33.2715 28.0102 32.8394 28.0577 32.2754L28.0772 32.048C28.0806 32.0085 28.0635 31.9743 28.0625 31.9355C29.0421 31.7169 29.9053 31.2246 30.5699 30.5434C30.6048 30.5639 30.6272 30.5965 30.6651 30.6137L30.8775 30.7121C31.41 30.9533 32.0473 30.7634 32.3423 30.2738C32.6373 29.7842 32.4916 29.1599 32.0079 28.8371L31.8126 28.7059C31.7751 28.681 31.7321 28.6766 31.6929 28.6566C31.8323 28.2154 31.9297 27.7564 31.9297 27.2715C31.9297 26.7866 31.8323 26.3276 31.6929 25.8863C31.7321 25.8663 31.7751 25.862 31.8126 25.8371L32.0079 25.7082C32.4916 25.3854 32.6373 24.7611 32.3423 24.2715C32.0473 23.7819 31.41 23.592 30.8775 23.8332L30.6651 23.9293C30.6273 23.9464 30.6047 23.9792 30.5699 23.9996C29.9058 23.3189 29.0436 22.8264 28.065 22.6074C28.066 22.5687 28.083 22.5345 28.0796 22.4949L28.0577 22.2676C28.0089 21.7036 27.5185 21.2715 26.9297 21.2715ZM26.9297 25.4715C27.9647 25.4715 28.8047 26.2779 28.8047 27.2715C28.8047 28.2651 27.9647 29.0715 26.9297 29.0715C25.8947 29.0715 25.0547 28.2651 25.0547 27.2715C25.0547 26.2779 25.8947 25.4715 26.9297 25.4715ZM36.4122 33.2715C35.9597 33.2715 35.5072 33.4372 35.1622 33.7684L29.4297 39.2715H24.4297C24.0847 39.2715 23.8047 39.0027 23.8047 38.6715C23.8047 38.3403 24.0847 38.0715 24.4297 38.0715H27.5547C28.586 38.0715 29.4297 37.2615 29.4297 36.2715C29.4297 35.2815 28.586 34.4715 27.5547 34.4715H21.5C20.175 34.4715 18.9048 34.9777 17.9673 35.8777L13.1797 40.4715L18.1797 45.2715L20.6797 42.8715H29.6446C30.3071 42.8715 30.9434 42.6184 31.4122 42.1684L37.6622 36.1684C38.3522 35.506 38.3522 34.4308 37.6622 33.7684C37.3172 33.4372 36.8647 33.2715 36.4122 33.2715Z" fill="#7585DC"/>
</g>
<defs>
<clipPath id="clip0_13826_299861">
<rect width="25" height="24" fill="white" transform="translate(13.1797 21.2715)"/>
</clipPath>
</defs>
</svg>
