<svg width="77" height="66" viewBox="0 0 77 66" fill="none" xmlns="http://www.w3.org/2000/svg">
<path d="M0.679688 32.7715C0.679688 21.3078 9.97285 12.0146 21.4365 12.0146H62.1088C69.1232 12.0146 75.1893 7.12577 76.6797 0.271484V32.7715V65.2715C75.1893 58.4172 69.1232 53.5283 62.1088 53.5283H21.4366C9.97286 53.5283 0.679688 44.2352 0.679688 32.7715Z" fill="white"/>
<path d="M27.8001 43.1699H24.0501C23.8001 43.1699 23.5835 43.0866 23.4001 42.9199C23.2168 42.7533 23.1085 42.5449 23.0751 42.2949L22.7751 39.9699C22.5585 39.8866 22.3545 39.7866 22.1631 39.6699C21.9711 39.5533 21.7835 39.4283 21.6001 39.2949L19.4251 40.1949C19.1918 40.2783 18.9585 40.2866 18.7251 40.2199C18.4918 40.1533 18.3085 40.0116 18.1751 39.7949L16.3251 36.5699C16.1918 36.3533 16.1501 36.1199 16.2001 35.8699C16.2501 35.6199 16.3751 35.4199 16.5751 35.2699L18.4501 33.8449C18.4335 33.7283 18.4251 33.6156 18.4251 33.5069V32.8319C18.4251 32.7239 18.4335 32.6116 18.4501 32.4949L16.5751 31.0699C16.3751 30.9199 16.2501 30.7199 16.2001 30.4699C16.1501 30.2199 16.1918 29.9866 16.3251 29.7699L18.1751 26.5449C18.2918 26.3116 18.4708 26.1656 18.7121 26.1069C18.9541 26.0489 19.1918 26.0616 19.4251 26.1449L21.6001 27.0449C21.7835 26.9116 21.9751 26.7866 22.1751 26.6699C22.3751 26.5533 22.5751 26.4533 22.7751 26.3699L23.0751 24.0449C23.1085 23.7949 23.2168 23.5866 23.4001 23.4199C23.5835 23.2533 23.8001 23.1699 24.0501 23.1699H27.8001C28.0501 23.1699 28.2668 23.2533 28.4501 23.4199C28.6335 23.5866 28.7418 23.7949 28.7751 24.0449L29.0751 26.3699C29.2918 26.4533 29.4961 26.5533 29.6881 26.6699C29.8795 26.7866 30.0668 26.9116 30.2501 27.0449L32.4251 26.1449C32.6585 26.0616 32.8918 26.0533 33.1251 26.1199C33.3585 26.1866 33.5418 26.3283 33.6751 26.5449L35.5251 29.7699C35.6585 29.9866 35.7001 30.2199 35.6501 30.4699C35.6001 30.7199 35.4751 30.9199 35.2751 31.0699L33.4001 32.4949C33.4168 32.6116 33.4251 32.7239 33.4251 32.8319V33.5069C33.4251 33.6156 33.4085 33.7283 33.3751 33.8449L35.2501 35.2699C35.4501 35.4199 35.5751 35.6199 35.6251 35.8699C35.6751 36.1199 35.6335 36.3533 35.5001 36.5699L33.6501 39.7699C33.5168 39.9866 33.3295 40.1326 33.0881 40.2079C32.8461 40.2826 32.6085 40.2783 32.3751 40.1949L30.2501 39.2949C30.0668 39.4283 29.8751 39.5533 29.6751 39.6699C29.4751 39.7866 29.2751 39.8866 29.0751 39.9699L28.7751 42.2949C28.7418 42.5449 28.6335 42.7533 28.4501 42.9199C28.2668 43.0866 28.0501 43.1699 27.8001 43.1699ZM25.9751 36.6699C26.9418 36.6699 27.7668 36.3283 28.4501 35.6449C29.1335 34.9616 29.4751 34.1366 29.4751 33.1699C29.4751 32.2033 29.1335 31.3783 28.4501 30.6949C27.7668 30.0116 26.9418 29.6699 25.9751 29.6699C24.9918 29.6699 24.1625 30.0116 23.4871 30.6949C22.8125 31.3783 22.4751 32.2033 22.4751 33.1699C22.4751 34.1366 22.8125 34.9616 23.4871 35.6449C24.1625 36.3283 24.9918 36.6699 25.9751 36.6699Z" fill="#707FDA"/>
</svg>
