<svg width="77" height="66" viewBox="0 0 77 66" fill="none" xmlns="http://www.w3.org/2000/svg">
<path d="M0.500122 32.6016C0.500122 21.1379 9.79329 11.8447 21.257 11.8447H61.9292C68.9437 11.8447 75.0098 6.95585 76.5001 0.101562V32.6016V65.1016C75.0098 58.2473 68.9437 53.3584 61.9292 53.3584H21.257C9.79329 53.3584 0.500122 44.0653 0.500122 32.6016Z" fill="white"/>
<path d="M27.8439 45.1016H23.1564C22.8439 45.1016 22.5731 44.9974 22.3439 44.7891C22.1148 44.5807 21.9793 44.3203 21.9377 44.0078L21.5627 41.1016C21.2918 40.9974 21.0368 40.8724 20.7977 40.7266C20.5577 40.5807 20.3231 40.4245 20.0939 40.2578L17.3752 41.3828C17.0835 41.487 16.7918 41.4974 16.5002 41.4141C16.2085 41.3307 15.9793 41.1536 15.8127 40.8828L13.5002 36.8516C13.3335 36.5807 13.2814 36.2891 13.3439 35.9766C13.4064 35.6641 13.5627 35.4141 13.8127 35.2266L16.1564 33.4453C16.1356 33.2995 16.1252 33.1586 16.1252 33.0228V32.1791C16.1252 32.0441 16.1356 31.9036 16.1564 31.7578L13.8127 29.9766C13.5627 29.7891 13.4064 29.5391 13.3439 29.2266C13.2814 28.9141 13.3335 28.6224 13.5002 28.3516L15.8127 24.3203C15.9585 24.0286 16.1823 23.8461 16.4839 23.7728C16.7864 23.7003 17.0835 23.7161 17.3752 23.8203L20.0939 24.9453C20.3231 24.7786 20.5627 24.6224 20.8127 24.4766C21.0627 24.3307 21.3127 24.2057 21.5627 24.1016L21.9377 21.1953C21.9793 20.8828 22.1148 20.6224 22.3439 20.4141C22.5731 20.2057 22.8439 20.1016 23.1564 20.1016H27.8439C28.1564 20.1016 28.4273 20.2057 28.6564 20.4141C28.8856 20.6224 29.021 20.8828 29.0627 21.1953L29.4377 24.1016C29.7085 24.2057 29.9639 24.3307 30.2039 24.4766C30.4431 24.6224 30.6773 24.7786 30.9064 24.9453L33.6252 23.8203C33.9168 23.7161 34.2085 23.7057 34.5002 23.7891C34.7918 23.8724 35.021 24.0495 35.1877 24.3203L37.5002 28.3516C37.6668 28.6224 37.7189 28.9141 37.6564 29.2266C37.5939 29.5391 37.4377 29.7891 37.1877 29.9766L34.8439 31.7578C34.8648 31.9036 34.8752 32.0441 34.8752 32.1791V33.0228C34.8752 33.1586 34.8543 33.2995 34.8127 33.4453L37.1564 35.2266C37.4064 35.4141 37.5627 35.6641 37.6252 35.9766C37.6877 36.2891 37.6356 36.5807 37.4689 36.8516L35.1564 40.8516C34.9898 41.1224 34.7556 41.3049 34.4539 41.3991C34.1514 41.4924 33.8543 41.487 33.5627 41.3828L30.9064 40.2578C30.6773 40.4245 30.4377 40.5807 30.1877 40.7266C29.9377 40.8724 29.6877 40.9974 29.4377 41.1016L29.0627 44.0078C29.021 44.3203 28.8856 44.5807 28.6564 44.7891C28.4273 44.9974 28.1564 45.1016 27.8439 45.1016ZM25.5627 36.9766C26.771 36.9766 27.8023 36.5495 28.6564 35.6953C29.5106 34.8411 29.9377 33.8099 29.9377 32.6016C29.9377 31.3932 29.5106 30.362 28.6564 29.5078C27.8023 28.6536 26.771 28.2266 25.5627 28.2266C24.3335 28.2266 23.2968 28.6536 22.4527 29.5078C21.6093 30.362 21.1877 31.3932 21.1877 32.6016C21.1877 33.8099 21.6093 34.8411 22.4527 35.6953C23.2968 36.5495 24.3335 36.9766 25.5627 36.9766Z" fill="#6A9586"/>
</svg>
