<svg width="25" height="25" viewBox="0 0 25 25" fill="none" xmlns="http://www.w3.org/2000/svg">
<path d="M20.5 3.44775H4.49998C3.39998 3.44775 2.50998 4.34775 2.50998 5.44775L2.50098 21.0318C2.50098 21.9228 3.57798 22.3698 4.20798 21.7398L6.49998 19.4478H20.5C21.6 19.4478 22.5 18.5478 22.5 17.4478V5.44775C22.5 4.34775 21.6 3.44775 20.5 3.44775ZM9.49998 11.4478C9.49998 11.9998 9.05198 12.4478 8.49998 12.4478C7.94798 12.4478 7.49998 11.9998 7.49998 11.4478C7.49998 10.8958 7.94798 10.4478 8.49998 10.4478C9.05198 10.4478 9.49998 10.8958 9.49998 11.4478ZM13.5 11.4478C13.5 11.9998 13.052 12.4478 12.5 12.4478C11.948 12.4478 11.5 11.9998 11.5 11.4478C11.5 10.8958 11.948 10.4478 12.5 10.4478C13.052 10.4478 13.5 10.8958 13.5 11.4478ZM17.5 11.4478C17.5 11.9998 17.052 12.4478 16.5 12.4478C15.948 12.4478 15.5 11.9998 15.5 11.4478C15.5 10.8958 15.948 10.4478 16.5 10.4478C17.052 10.4478 17.5 10.8958 17.5 11.4478Z" fill="#99A29C"/>
</svg>
