<svg width="25" height="25" viewBox="0 0 25 25" fill="none" xmlns="http://www.w3.org/2000/svg">
<path d="M20.499 3.5H4.499C3.399 3.5 2.509 4.4 2.509 5.5L2.5 21.084C2.5 21.975 3.577 22.422 4.207 21.792L6.499 19.5H20.499C21.599 19.5 22.499 18.6 22.499 17.5V5.5C22.499 4.4 21.599 3.5 20.499 3.5ZM9.499 11.5C9.499 12.052 9.051 12.5 8.499 12.5C7.947 12.5 7.499 12.052 7.499 11.5C7.499 10.948 7.947 10.5 8.499 10.5C9.051 10.5 9.499 10.948 9.499 11.5ZM13.499 11.5C13.499 12.052 13.051 12.5 12.499 12.5C11.947 12.5 11.499 12.052 11.499 11.5C11.499 10.948 11.947 10.5 12.499 10.5C13.051 10.5 13.499 10.948 13.499 11.5ZM17.499 11.5C17.499 12.052 17.051 12.5 16.499 12.5C15.947 12.5 15.499 12.052 15.499 11.5C15.499 10.948 15.947 10.5 16.499 10.5C17.051 10.5 17.499 10.948 17.499 11.5Z" fill="white"/>
</svg>
