<svg width="31" height="31" viewBox="0 0 31 31" fill="none" xmlns="http://www.w3.org/2000/svg">
<path d="M15.6797 9.41504C17.0604 9.41504 18.1797 8.29575 18.1797 6.91504C18.1797 5.53433 17.0604 4.41504 15.6797 4.41504C14.299 4.41504 13.1797 5.53433 13.1797 6.91504C13.1797 8.29575 14.299 9.41504 15.6797 9.41504Z" stroke="white" stroke-width="2" stroke-linecap="round" stroke-linejoin="round"/>
<path d="M6.92969 26.915C8.3104 26.915 9.42969 25.7958 9.42969 24.415C9.42969 23.0343 8.3104 21.915 6.92969 21.915C5.54898 21.915 4.42969 23.0343 4.42969 24.415C4.42969 25.7958 5.54898 26.915 6.92969 26.915Z" stroke="white" stroke-width="2" stroke-linecap="round" stroke-linejoin="round"/>
<path d="M24.4297 26.915C25.8104 26.915 26.9297 25.7958 26.9297 24.415C26.9297 23.0343 25.8104 21.915 24.4297 21.915C23.049 21.915 21.9297 23.0343 21.9297 24.415C21.9297 25.7958 23.049 26.915 24.4297 26.915Z" stroke="white" stroke-width="2" stroke-linecap="round" stroke-linejoin="round"/>
<path d="M15.6797 21.915C17.7508 21.915 19.4297 20.2361 19.4297 18.165C19.4297 16.094 17.7508 14.415 15.6797 14.415C13.6086 14.415 11.9297 16.094 11.9297 18.165C11.9297 20.2361 13.6086 21.915 15.6797 21.915Z" stroke="white" stroke-width="2" stroke-linecap="round" stroke-linejoin="round"/>
<path d="M15.6797 9.41504V14.415M9.05469 22.915L12.5547 20.415M22.3047 22.915L18.8047 20.415" stroke="white" stroke-width="2" stroke-linecap="round" stroke-linejoin="round"/>
</svg>
