<svg width="77" height="66" viewBox="0 0 77 66" fill="none" xmlns="http://www.w3.org/2000/svg">
<path d="M0.5 32.6016C0.5 21.1379 9.79316 11.8447 21.2569 11.8447H61.9291C68.9435 11.8447 75.0096 6.95585 76.5 0.101562V0.101562V32.6016V65.1016V65.1016C75.0096 58.2473 68.9435 53.3584 61.9291 53.3584H21.2569C9.79317 53.3584 0.5 44.0653 0.5 32.6016V32.6016Z" fill="white"/>
<path d="M27.25 24.75C28.6307 24.75 29.75 23.6307 29.75 22.25C29.75 20.8693 28.6307 19.75 27.25 19.75C25.8693 19.75 24.75 20.8693 24.75 22.25C24.75 23.6307 25.8693 24.75 27.25 24.75Z" stroke="#707FDA" stroke-width="2" stroke-linecap="round" stroke-linejoin="round"/>
<path d="M18.5 42.25C19.8807 42.25 21 41.1307 21 39.75C21 38.3693 19.8807 37.25 18.5 37.25C17.1193 37.25 16 38.3693 16 39.75C16 41.1307 17.1193 42.25 18.5 42.25Z" stroke="#707FDA" stroke-width="2" stroke-linecap="round" stroke-linejoin="round"/>
<path d="M36 42.25C37.3807 42.25 38.5 41.1307 38.5 39.75C38.5 38.3693 37.3807 37.25 36 37.25C34.6193 37.25 33.5 38.3693 33.5 39.75C33.5 41.1307 34.6193 42.25 36 42.25Z" stroke="#707FDA" stroke-width="2" stroke-linecap="round" stroke-linejoin="round"/>
<path d="M27.25 37.25C29.3211 37.25 31 35.5711 31 33.5C31 31.4289 29.3211 29.75 27.25 29.75C25.1789 29.75 23.5 31.4289 23.5 33.5C23.5 35.5711 25.1789 37.25 27.25 37.25Z" stroke="#707FDA" stroke-width="2" stroke-linecap="round" stroke-linejoin="round"/>
<path d="M27.25 24.75V29.75M20.625 38.25L24.125 35.75M33.875 38.25L30.375 35.75" stroke="#707FDA" stroke-width="2" stroke-linecap="round" stroke-linejoin="round"/>
</svg>
