<svg width="30" height="30" viewBox="0 0 30 30" fill="none" xmlns="http://www.w3.org/2000/svg">
<path d="M18 6.6001C15.8391 6.6001 13.8 7.67354 12.6 9.4126V21.6001H25.5C27.9609 21.6001 30 19.561 30 17.1001C30 14.6392 27.9609 12.6001 25.5 12.6001C25.2 12.6001 24.9 12.6517 24.6 12.7126C24.3 9.29307 21.4805 6.6001 18 6.6001ZM10.2 9.6001C9.78047 9.6001 9.36094 9.65166 9 9.7126V21.6001H10.2V9.6001ZM10.8 9.6001V21.6001H12V9.9001C11.6391 9.78057 11.2195 9.66104 10.8 9.6001ZM8.4 9.9001C7.98047 10.0806 7.56094 10.261 7.2 10.5001V21.6001H8.4V9.9001ZM6.6 10.9876C6.11953 11.4071 5.7 11.9438 5.4 12.5438V21.6001H6.6V10.9876ZM3.9 13.2001C3.79453 13.2071 3.68906 13.2259 3.6 13.2563V21.5438C3.78047 21.6048 4.01953 21.6001 4.2 21.6001H4.8V13.2563C4.61953 13.1954 4.38047 13.2001 4.2 13.2001C4.11094 13.2001 4.00547 13.1931 3.9 13.2001ZM3 13.3876C2.58047 13.5071 2.16094 13.6876 1.8 13.9876V20.8126C2.16094 21.0517 2.58047 21.2931 3 21.4126V13.3876ZM1.2 14.4563C0.480469 15.2368 0 16.261 0 17.4001C0 18.5392 0.480469 19.5634 1.2 20.3438V14.4563Z" fill="#FF5722"/>
</svg>
