<svg width="30" height="30" viewBox="0 0 30 30" fill="none" xmlns="http://www.w3.org/2000/svg">
<path d="M18 6.59961C15.8391 6.59961 13.8 7.67305 12.6 9.41211V21.5996H25.5C27.9609 21.5996 30 19.5605 30 17.0996C30 14.6387 27.9609 12.5996 25.5 12.5996C25.2 12.5996 24.9 12.6512 24.6 12.7121C24.3 9.29258 21.4805 6.59961 18 6.59961ZM10.2 9.59961C9.78047 9.59961 9.36094 9.65117 9 9.71211V21.5996H10.2V9.59961ZM10.8 9.59961V21.5996H12V9.89961C11.6391 9.78008 11.2195 9.66055 10.8 9.59961ZM8.4 9.89961C7.98047 10.0801 7.56094 10.2605 7.2 10.4996V21.5996H8.4V9.89961ZM6.6 10.9871C6.11953 11.4066 5.7 11.9434 5.4 12.5434V21.5996H6.6V10.9871ZM3.9 13.1996C3.79453 13.2066 3.68906 13.2254 3.6 13.2559V21.5434C3.78047 21.6043 4.01953 21.5996 4.2 21.5996H4.8V13.2559C4.61953 13.1949 4.38047 13.1996 4.2 13.1996C4.11094 13.1996 4.00547 13.1926 3.9 13.1996ZM3 13.3871C2.58047 13.5066 2.16094 13.6871 1.8 13.9871V20.8121C2.16094 21.0512 2.58047 21.2926 3 21.4121V13.3871ZM1.2 14.4559C0.480469 15.2363 0 16.2605 0 17.3996C0 18.5387 0.480469 19.5629 1.2 20.3434V14.4559Z" fill="#9397B2"/>
</svg>
