<svg width="31" height="31" viewBox="0 0 31 31" fill="none" xmlns="http://www.w3.org/2000/svg">
<g clip-path="url(#clip0_3_51163)">
<path d="M18.5 7.10156C16.3391 7.10156 14.3 8.175 13.1 9.91406V22.1016H26C28.4609 22.1016 30.5 20.0625 30.5 17.6016C30.5 15.1406 28.4609 13.1016 26 13.1016C25.7 13.1016 25.4 13.1531 25.1 13.2141C24.8 9.79453 21.9805 7.10156 18.5 7.10156ZM10.7 10.1016C10.2805 10.1016 9.86094 10.1531 9.5 10.2141V22.1016H10.7V10.1016ZM11.3 10.1016V22.1016H12.5V10.4016C12.1391 10.282 11.7195 10.1625 11.3 10.1016ZM8.9 10.4016C8.48047 10.582 8.06094 10.7625 7.7 11.0016V22.1016H8.9V10.4016ZM7.1 11.4891C6.61953 11.9086 6.2 12.4453 5.9 13.0453V22.1016H7.1V11.4891ZM4.4 13.7016C4.29453 13.7086 4.18906 13.7273 4.1 13.7578V22.0453C4.28047 22.1063 4.51953 22.1016 4.7 22.1016H5.3V13.7578C5.11953 13.6969 4.88047 13.7016 4.7 13.7016C4.61094 13.7016 4.50547 13.6945 4.4 13.7016ZM3.5 13.8891C3.08047 14.0086 2.66094 14.1891 2.3 14.4891V21.3141C2.66094 21.5531 3.08047 21.7945 3.5 21.9141V13.8891ZM1.7 14.9578C0.980469 15.7383 0.5 16.7625 0.5 17.9016C0.5 19.0406 0.980469 20.0648 1.7 20.8453V14.9578Z" fill="white"/>
</g>
<defs>
<clipPath id="clip0_3_51163">
<rect width="30" height="30" fill="white" transform="translate(0.5 0.5)"/>
</clipPath>
</defs>
</svg>
