<svg width="77" height="66" viewBox="0 0 77 66" fill="none" xmlns="http://www.w3.org/2000/svg">
<path d="M0.5 32.6016C0.5 21.1379 9.79316 11.8447 21.2569 11.8447H61.9291C68.9435 11.8447 75.0096 6.95585 76.5 0.101562V0.101562V32.6016V65.1016V65.1016C75.0096 58.2473 68.9435 53.3584 61.9291 53.3584H21.2569C9.79317 53.3584 0.5 44.0653 0.5 32.6016V32.6016Z" fill="#F5F5F5"/>
<path opacity="0.5" d="M22.0695 33.4451C20.1586 33.4451 18.6147 34.9889 18.643 36.8811C18.6618 38.0954 19.3302 39.1498 20.3139 39.7381C19.9797 39.2251 19.782 38.6179 19.7726 37.9637C19.7444 36.0715 21.2882 34.5277 23.1991 34.5277C23.5757 34.5277 23.9381 34.5889 24.277 34.6971V30.9081C23.924 30.8564 23.5616 30.8281 23.1991 30.8281C23.1803 30.8281 23.1662 30.8281 23.1474 30.8281V33.6146C22.8085 33.5063 22.4461 33.4451 22.0695 33.4451V33.4451Z" fill="#F00044"/>
<path opacity="0.5" d="M30.3295 22.082H30.3013H29.3223C29.6047 23.4988 30.4001 24.732 31.5109 25.5698C30.7814 24.6049 30.3389 23.3999 30.3295 22.082V22.082Z" fill="#F00044"/>
<path opacity="0.5" d="M36.0908 27.8496C35.7189 27.8496 35.3612 27.812 35.0082 27.7461V30.4619C33.7279 30.4619 32.4853 30.2125 31.3181 29.7135C30.565 29.3935 29.8637 28.984 29.2188 28.4898L29.2376 36.8632C29.2282 38.7459 28.4846 40.511 27.1384 41.843C26.0417 42.9255 24.6532 43.6174 23.147 43.8387C22.794 43.8904 22.4316 43.9187 22.0692 43.9187C20.4595 43.9187 18.925 43.3962 17.6777 42.4313C17.8189 42.6008 17.9696 42.7655 18.1343 42.9255C19.4899 44.2623 21.2879 45.0012 23.2035 45.0012C23.5659 45.0012 23.9284 44.973 24.2814 44.9212C25.7876 44.7 27.1761 44.0081 28.2728 42.9255C29.6189 41.5935 30.3626 39.8285 30.372 37.9457L30.3014 29.5723C30.9415 30.0665 31.6428 30.4807 32.4006 30.7961C33.5726 31.2903 34.8152 31.5445 36.0908 31.5445" fill="#F00044"/>
<path d="M18.1199 32.9138C19.4613 31.5817 21.2452 30.8428 23.1467 30.8287V29.8261C22.7937 29.7743 22.4313 29.7461 22.0689 29.7461C20.1485 29.7461 18.3458 30.4851 16.9902 31.8312C15.6582 33.1538 14.8957 34.9612 14.9004 36.8392C14.9004 38.7314 15.6488 40.5059 16.9996 41.8473C17.2162 42.0591 17.4374 42.2568 17.6727 42.4356C16.609 41.1695 16.03 39.588 16.0253 37.9218C16.03 36.0438 16.7878 34.2364 18.1199 32.9138V32.9138Z" fill="#08FFF9"/>
<path d="M35.0081 27.7448V26.7376H34.9987C33.6902 26.7376 32.4852 26.3046 31.5156 25.5703C32.3581 26.6811 33.5913 27.4719 35.0081 27.7448Z" fill="#08FFF9"/>
<path d="M23.0058 41.2957C23.4529 41.3193 23.8812 41.2581 24.2766 41.131C25.6416 40.6839 26.6253 39.413 26.6253 37.9163L26.63 32.3152V22.0826H29.3223C29.2517 21.7296 29.214 21.3718 29.2093 21H25.5004V31.2279L25.4957 36.829C25.4957 38.3257 24.5119 39.5966 23.147 40.0437C22.7516 40.1755 22.3233 40.2367 21.8761 40.2085C21.3066 40.1755 20.7747 40.0061 20.3135 39.7331C20.8924 40.6274 21.8808 41.2346 23.0058 41.2957V41.2957Z" fill="#08FFF9"/>
<path d="M23.147 43.8369C24.6532 43.6157 26.0417 42.9238 27.1384 41.8412C28.4845 40.5092 29.2282 38.7441 29.2376 36.8614L29.2188 28.488C29.8589 28.9822 30.5602 29.3964 31.318 29.7118C32.49 30.206 33.7326 30.4601 35.0081 30.4601V27.7443C33.5914 27.4713 32.3582 26.6806 31.5157 25.5698C30.4049 24.732 29.6047 23.4988 29.327 22.082H26.63V32.3099L26.6253 37.911C26.6253 39.4078 25.6416 40.6786 24.2766 41.1258C23.8812 41.2576 23.4529 41.3187 23.0058 41.2905C21.8761 41.2293 20.8924 40.6221 20.3135 39.7326C19.3298 39.1489 18.6614 38.0899 18.6426 36.8755C18.6143 34.9834 20.1582 33.4396 22.0691 33.4396C22.4457 33.4396 22.8081 33.5007 23.147 33.609V30.8226C21.2454 30.8367 19.4616 31.5757 18.1201 32.9077C16.7881 34.2303 16.0256 36.0377 16.0303 37.911C16.0303 39.5772 16.6092 41.1587 17.6777 42.4248C18.9297 43.3897 20.4594 43.9122 22.0691 43.9122C22.4316 43.9169 22.794 43.8887 23.147 43.8369V43.8369Z" fill="black"/>
</svg>
