<svg width="31" height="31" viewBox="0 0 31 31" fill="none" xmlns="http://www.w3.org/2000/svg">
<path d="M12.0695 15.9451C10.1586 15.9451 8.61472 17.4889 8.64296 19.3811C8.66179 20.5954 9.33015 21.6498 10.3139 22.2381C9.97969 21.7251 9.78201 21.1179 9.77259 20.4637C9.74435 18.5715 11.2882 17.0277 13.1991 17.0277C13.5757 17.0277 13.9381 17.0889 14.277 17.1971V13.4081C13.924 13.3564 13.5616 13.3281 13.1991 13.3281C13.1803 13.3281 13.1662 13.3281 13.1474 13.3281V16.1146C12.8085 16.0063 12.4461 15.9451 12.0695 15.9451Z" fill="#9397B2" fill-opacity="0.8"/>
<path d="M20.3295 4.58203H20.3013H19.3223C19.6047 5.99878 20.4001 7.23196 21.5109 8.06977C20.7814 7.10488 20.3389 5.89994 20.3295 4.58203Z" fill="#9397B2" fill-opacity="0.8"/>
<path d="M26.0908 10.3496C25.7189 10.3496 25.3612 10.312 25.0082 10.2461V12.9619C23.7279 12.9619 22.4853 12.7125 21.3181 12.2135C20.565 11.8935 19.8637 11.484 19.2188 10.9898L19.2376 19.3632C19.2282 21.2459 18.4846 23.011 17.1384 24.343C16.0417 25.4255 14.6532 26.1174 13.147 26.3387C12.794 26.3904 12.4316 26.4187 12.0692 26.4187C10.4595 26.4187 8.92504 25.8962 7.67773 24.9313C7.81894 25.1008 7.96956 25.2655 8.13429 25.4255C9.48985 26.7623 11.2879 27.5012 13.2035 27.5012C13.5659 27.5012 13.9284 27.473 14.2814 27.4212C15.7876 27.2 17.1761 26.5081 18.2728 25.4255C19.6189 24.0935 20.3626 22.3285 20.372 20.4457L20.3014 12.0723C20.9415 12.5665 21.6428 12.9807 22.4006 13.2961C23.5726 13.7903 24.8152 14.0445 26.0908 14.0445" fill="#9397B2" fill-opacity="0.8"/>
<path d="M8.11987 15.4138C9.46131 14.0817 11.2452 13.3428 13.1467 13.3287V12.3261C12.7937 12.2743 12.4313 12.2461 12.0689 12.2461C10.1485 12.2461 8.34579 12.9851 6.99023 14.3312C5.65821 15.6538 4.89571 17.4612 4.90041 19.3392C4.90041 21.2314 5.64879 23.0058 6.99965 24.3473C7.21616 24.5591 7.43738 24.7568 7.67272 24.9356C6.60898 23.6695 6.03005 22.088 6.02534 20.4218C6.03005 18.5438 6.78784 16.7364 8.11987 15.4138Z" fill="white"/>
<path d="M25.0081 10.2448V9.2376H24.9987C23.6902 9.2376 22.4852 8.80457 21.5156 8.07031C22.3581 9.18111 23.5913 9.97186 25.0081 10.2448Z" fill="white"/>
<path d="M13.0048 23.7957C13.4519 23.8193 13.8803 23.7581 14.2756 23.631C15.6406 23.1839 16.6243 21.913 16.6243 20.4163L16.629 14.8152V4.58257H19.3213C19.2507 4.22955 19.2131 3.87184 19.2083 3.5H15.4994V13.7279L15.4947 19.329C15.4947 20.8257 14.511 22.0966 13.146 22.5437C12.7506 22.6755 12.3223 22.7367 11.8752 22.7085C11.3056 22.6755 10.7738 22.5061 10.3125 22.2331C10.8914 23.1274 11.8799 23.7346 13.0048 23.7957Z" fill="white"/>
<path d="M13.146 26.3369C14.6522 26.1157 16.0407 25.4238 17.1374 24.3412C18.4835 23.0092 19.2272 21.2441 19.2366 19.3614L19.2178 10.988C19.8579 11.4822 20.5592 11.8964 21.317 12.2118C22.489 12.706 23.7316 12.9601 25.0072 12.9601V10.2443C23.5904 9.97132 22.3572 9.18058 21.5147 8.06977C20.4039 7.23196 19.6037 5.99878 19.326 4.58203H16.629V14.8099L16.6243 20.411C16.6243 21.9078 15.6406 23.1786 14.2756 23.6258C13.8803 23.7576 13.452 23.8187 13.0048 23.7905C11.8752 23.7293 10.8914 23.1221 10.3125 22.2326C9.32879 21.6489 8.66042 20.5899 8.6416 19.3755C8.61335 17.4834 10.1572 15.9396 12.0681 15.9396C12.4447 15.9396 12.8071 16.0007 13.146 16.109V13.3226C11.2445 13.3367 9.46058 14.0757 8.11914 15.4077C6.78711 16.7303 6.02461 18.5377 6.02932 20.411C6.02932 22.0772 6.60826 23.6587 7.6767 24.9248C8.92871 25.8897 10.4584 26.4122 12.0681 26.4122C12.4306 26.4169 12.793 26.3887 13.146 26.3369Z" fill="white"/>
</svg>
