<svg width="30" height="30" viewBox="0 0 30 30" fill="none" xmlns="http://www.w3.org/2000/svg">
<path opacity="0.7" d="M11.5685 15.4449C9.65751 15.4449 8.11368 16.9887 8.14192 18.8808C8.16075 20.0952 8.82912 21.1495 9.81284 21.7379C9.47865 21.2248 9.28097 20.6177 9.27156 19.9634C9.24331 18.0713 10.7871 16.5274 12.6981 16.5274C13.0747 16.5274 13.4371 16.5886 13.776 16.6969V12.9079C13.423 12.8561 13.0605 12.8279 12.6981 12.8279C12.6793 12.8279 12.6652 12.8279 12.6463 12.8279V15.6143C12.3074 15.5061 11.945 15.4449 11.5685 15.4449Z" fill="#99A19C"/>
<path opacity="0.7" d="M19.8289 4.08252H19.8007H18.8217C19.1041 5.49927 19.8995 6.73245 21.0103 7.57026C20.2808 6.60537 19.8383 5.40042 19.8289 4.08252Z" fill="#99A19C"/>
<path d="M25.5901 9.84842C25.2183 9.84842 24.8605 9.81077 24.5075 9.74487V12.4607C23.2273 12.4607 21.9847 12.2112 20.8174 11.7123C20.0643 11.3923 19.363 10.9828 18.7182 10.4885L18.737 18.862C18.7276 20.7447 17.9839 22.5097 16.6377 23.8418C15.5411 24.9243 14.1525 25.6162 12.6464 25.8374C12.2934 25.8892 11.9309 25.9175 11.5685 25.9175C9.95879 25.9175 8.42437 25.395 7.17706 24.4301C7.31827 24.5996 7.46888 24.7643 7.63362 24.9243C8.98918 26.2611 10.7872 27 12.7029 27C13.0653 27 13.4277 26.9718 13.7807 26.92C15.2869 26.6988 16.6754 26.0069 17.7721 24.9243C19.1182 23.5923 19.8619 21.8272 19.8713 19.9445L19.8007 11.5711C20.4408 12.0653 21.1422 12.4795 21.9 12.7949C23.0719 13.2891 24.3145 13.5433 25.5901 13.5433" fill="#99A19C" fill-opacity="0.7"/>
<path d="M7.6195 14.913C8.96094 13.581 10.7448 12.842 12.6464 12.8279V11.8254C12.2934 11.7736 11.9309 11.7454 11.5685 11.7454C9.64813 11.7454 7.84543 12.4843 6.48987 13.8305C5.15784 15.1531 4.39534 16.9605 4.40005 18.8385C4.40005 20.7307 5.14843 22.5051 6.49928 23.8466C6.71579 24.0584 6.93701 24.256 7.17235 24.4349C6.10862 23.1688 5.52968 21.5873 5.52497 19.9211C5.52968 18.0431 6.28747 16.2357 7.6195 14.913Z" fill="#99A19C" fill-opacity="0.7"/>
<path opacity="0.7" d="M24.5075 9.74461V8.73735H24.4981C23.1896 8.73735 21.9847 8.30433 21.0151 7.57007C21.8576 8.68087 23.0908 9.47161 24.5075 9.74461Z" fill="#99A19C"/>
<path d="M12.5052 23.2957C12.9523 23.3193 13.3806 23.2581 13.776 23.131C15.141 22.6839 16.1247 21.413 16.1247 19.9163L16.1294 14.3152V4.08257H18.8217C18.7511 3.72955 18.7134 3.37184 18.7087 3H14.9998V13.2279L14.995 18.829C14.995 20.3257 14.0113 21.5966 12.6464 22.0437C12.251 22.1755 11.8227 22.2367 11.3755 22.2085C10.806 22.1755 10.2741 22.0061 9.81287 21.7331C10.3918 22.6274 11.3802 23.2346 12.5052 23.2957Z" fill="#99A19C" fill-opacity="0.7"/>
<path d="M12.6464 25.8374C14.1526 25.6162 15.5411 24.9243 16.6377 23.8417C17.9839 22.5097 18.7276 20.7446 18.737 18.8619L18.7182 10.4885C19.3583 10.9827 20.0596 11.3969 20.8174 11.7123C21.9894 12.2065 23.232 12.4606 24.5075 12.4606V9.74481C23.0908 9.47181 21.8576 8.68107 21.0151 7.57026C19.9043 6.73245 19.1041 5.49927 18.8264 4.08252H16.1294V14.3104L16.1247 19.9115C16.1247 21.4083 15.141 22.6791 13.776 23.1263C13.3806 23.258 12.9523 23.3192 12.5052 23.291C11.3755 23.2298 10.3918 22.6226 9.81288 21.733C8.82916 21.1494 8.16079 20.0904 8.14196 18.876C8.11372 16.9839 9.65755 15.44 11.5685 15.44C11.9451 15.44 12.3075 15.5012 12.6464 15.6095V12.8231C10.7448 12.8372 8.96095 13.5761 7.61951 14.9082C6.28748 16.2308 5.52498 18.0382 5.52968 19.9115C5.52968 21.5777 6.10862 23.1592 7.17707 24.4253C8.42908 25.3902 9.95879 25.9127 11.5685 25.9127C11.9309 25.9174 12.2934 25.8892 12.6464 25.8374Z" fill="#99A29C"/>
</svg>
