<svg width="30" height="30" viewBox="0 0 30 30" fill="none" xmlns="http://www.w3.org/2000/svg">
<path d="M11.5685 15.4451C9.65757 15.4451 8.11374 16.9889 8.14198 18.8811C8.16081 20.0954 8.82918 21.1498 9.8129 21.7381C9.47872 21.2251 9.28103 20.6179 9.27162 19.9637C9.24338 18.0715 10.7872 16.5277 12.6982 16.5277C13.0747 16.5277 13.4371 16.5889 13.776 16.6971V12.9081C13.423 12.8564 13.0606 12.8281 12.6982 12.8281C12.6793 12.8281 12.6652 12.8281 12.6464 12.8281V15.6146C12.3075 15.5063 11.9451 15.4451 11.5685 15.4451Z" fill="#9397B2" fill-opacity="0.8"/>
<path d="M19.8288 4.08301H19.8005H18.8215C19.1039 5.49976 19.8994 6.73294 21.0102 7.57075C20.2806 6.60586 19.8382 5.40091 19.8288 4.08301Z" fill="#9397B2" fill-opacity="0.8"/>
<path d="M25.59 9.84867C25.2182 9.84867 24.8605 9.81101 24.5075 9.74512V12.4609C23.2272 12.4609 21.9846 12.2115 20.8173 11.7126C20.0642 11.3925 19.3629 10.983 18.7181 10.4888L18.7369 18.8622C18.7275 20.7449 17.9838 22.51 16.6377 23.842C15.541 24.9246 14.1525 25.6165 12.6463 25.8377C12.2933 25.8895 11.9309 25.9177 11.5685 25.9177C9.95872 25.9177 8.42431 25.3952 7.177 24.4304C7.31821 24.5998 7.46882 24.7645 7.63356 24.9246C8.98912 26.2613 10.7871 27.0003 12.7028 27.0003C13.0652 27.0003 13.4276 26.972 13.7807 26.9203C15.2868 26.699 16.6753 26.0071 17.772 24.9246C19.1182 23.5925 19.8618 21.8275 19.8713 19.9448L19.8007 11.5714C20.4408 12.0656 21.1421 12.4798 21.8999 12.7951C23.0719 13.2893 24.3145 13.5435 25.59 13.5435" fill="#9397B2" fill-opacity="0.8"/>
<path d="M7.61938 14.9128C8.96082 13.5808 10.7447 12.8418 12.6462 12.8277V11.8251C12.2932 11.7734 11.9308 11.7451 11.5684 11.7451C9.64801 11.7451 7.8453 12.4841 6.48975 13.8302C5.15772 15.1528 4.39522 16.9603 4.39992 18.8383C4.39992 20.7304 5.14831 22.5049 6.49916 23.8463C6.71567 24.0581 6.93689 24.2558 7.17223 24.4347C6.10849 23.1685 5.52956 21.587 5.52485 19.9208C5.52956 18.0428 6.28735 16.2354 7.61938 14.9128Z" fill="#9397B2" fill-opacity="0.7"/>
<path d="M24.5073 9.74485V8.7376H24.4979C23.1894 8.7376 21.9845 8.30457 21.0149 7.57031C21.8574 8.68111 23.0906 9.47186 24.5073 9.74485Z" fill="#9397B2" fill-opacity="0.7"/>
<path d="M12.505 23.2957C12.9522 23.3193 13.3805 23.2581 13.7759 23.131C15.1408 22.6839 16.1246 21.413 16.1246 19.9163L16.1293 14.3152V4.08257H18.8216C18.751 3.72955 18.7133 3.37184 18.7086 3H14.9996V13.2279L14.9949 18.829C14.9949 20.3257 14.0112 21.5966 12.6462 22.0437C12.2509 22.1755 11.8225 22.2367 11.3754 22.2085C10.8059 22.1755 10.274 22.0061 9.81274 21.7331C10.3917 22.6274 11.3801 23.2346 12.505 23.2957Z" fill="#9397B2" fill-opacity="0.7"/>
<path d="M12.6463 25.8379C14.1524 25.6166 15.5409 24.9247 16.6376 23.8422C17.9838 22.5102 18.7274 20.7451 18.7369 18.8624L18.718 10.489C19.3582 10.9832 20.0595 11.3974 20.8173 11.7127C21.9893 12.207 23.2319 12.4611 24.5074 12.4611V9.7453C23.0907 9.4723 21.8575 8.68156 21.015 7.57075C19.9041 6.73294 19.104 5.49976 18.8263 4.08301H16.1293V14.3109L16.1246 19.912C16.1246 21.4088 15.1409 22.6796 13.7759 23.1267C13.3805 23.2585 12.9522 23.3197 12.505 23.2915C11.3754 23.2303 10.3917 22.6231 9.81276 21.7335C8.82903 21.1499 8.16067 20.0909 8.14184 18.8765C8.1136 16.9844 9.65743 15.4405 11.5684 15.4405C11.9449 15.4405 12.3074 15.5017 12.6463 15.61V12.8235C10.7447 12.8377 8.96082 13.5766 7.61938 14.9087C6.28736 16.2313 5.52486 18.0387 5.52956 19.912C5.52956 21.5782 6.1085 23.1597 7.17694 24.4258C8.42895 25.3907 9.95867 25.9132 11.5684 25.9132C11.9308 25.9179 12.2932 25.8896 12.6463 25.8379Z" fill="#9397B2"/>
</svg>
