<svg width="31" height="31" viewBox="0 0 31 31" fill="none" xmlns="http://www.w3.org/2000/svg">
<path d="M27.5 7.8085C26.6075 8.2 25.6565 8.4595 24.665 8.5855C25.685 7.9765 26.4635 7.0195 26.8295 5.866C25.8785 6.433 24.8285 6.8335 23.7095 7.057C22.8065 6.0955 21.5195 5.5 20.1155 5.5C17.3915 5.5 15.1985 7.711 15.1985 10.4215C15.1985 10.8115 15.2315 11.1865 15.3125 11.5435C11.222 11.344 7.6025 9.3835 5.171 6.397C4.7465 7.1335 4.4975 7.9765 4.4975 8.884C4.4975 10.588 5.375 12.0985 6.683 12.973C5.8925 12.958 5.117 12.7285 4.46 12.367C4.46 12.382 4.46 12.4015 4.46 12.421C4.46 14.812 6.1655 16.798 8.402 17.2555C8.0015 17.365 7.565 17.4175 7.112 17.4175C6.797 17.4175 6.479 17.3995 6.1805 17.3335C6.818 19.282 8.627 20.7145 10.778 20.761C9.104 22.0705 6.9785 22.8595 4.6775 22.8595C4.274 22.8595 3.887 22.8415 3.5 22.792C5.6795 24.1975 8.2625 25 11.048 25C20.102 25 25.052 17.5 25.052 10.999C25.052 10.7815 25.0445 10.5715 25.034 10.363C26.0105 9.67 26.831 8.8045 27.5 7.8085Z" fill="white"/>
</svg>
