<svg width="30" height="30" viewBox="0 0 30 30" fill="none" xmlns="http://www.w3.org/2000/svg">
<path d="M27 7.3085C26.1075 7.7 25.1565 7.9595 24.165 8.0855C25.185 7.4765 25.9635 6.5195 26.3295 5.366C25.3785 5.933 24.3285 6.3335 23.2095 6.557C22.3065 5.5955 21.0195 5 19.6155 5C16.8915 5 14.6985 7.211 14.6985 9.9215C14.6985 10.3115 14.7315 10.6865 14.8125 11.0435C10.722 10.844 7.1025 8.8835 4.671 5.897C4.2465 6.6335 3.9975 7.4765 3.9975 8.384C3.9975 10.088 4.875 11.5985 6.183 12.473C5.3925 12.458 4.617 12.2285 3.96 11.867C3.96 11.882 3.96 11.9015 3.96 11.921C3.96 14.312 5.6655 16.298 7.902 16.7555C7.5015 16.865 7.065 16.9175 6.612 16.9175C6.297 16.9175 5.979 16.8995 5.6805 16.8335C6.318 18.782 8.127 20.2145 10.278 20.261C8.604 21.5705 6.4785 22.3595 4.1775 22.3595C3.774 22.3595 3.387 22.3415 3 22.292C5.1795 23.6975 7.7625 24.5 10.548 24.5C19.602 24.5 24.552 17 24.552 10.499C24.552 10.2815 24.5445 10.0715 24.534 9.863C25.5105 9.17 26.331 8.3045 27 7.3085Z" fill="#99A29C"/>
</svg>
