<svg width="77" height="66" viewBox="0 0 77 66" fill="none" xmlns="http://www.w3.org/2000/svg">
<path d="M0.5 33.4766C0.5 22.0129 9.79316 12.7197 21.2569 12.7197H61.9291C68.9435 12.7197 75.0096 7.83085 76.5 0.976562V0.976562V33.4766V65.9766V65.9766C75.0096 59.1223 68.9435 54.2334 61.9291 54.2334H21.2569C9.79317 54.2334 0.5 44.9403 0.5 33.4766V33.4766Z" fill="#F5F5F5"/>
<path d="M37.5 26.1835C36.6075 26.575 35.6565 26.8345 34.665 26.9605C35.685 26.3515 36.4635 25.3945 36.8295 24.241C35.8785 24.808 34.8285 25.2085 33.7095 25.432C32.8065 24.4705 31.5195 23.875 30.1155 23.875C27.3915 23.875 25.1985 26.086 25.1985 28.7965C25.1985 29.1865 25.2315 29.5615 25.3125 29.9185C21.222 29.719 17.6025 27.7585 15.171 24.772C14.7465 25.5085 14.4975 26.3515 14.4975 27.259C14.4975 28.963 15.375 30.4735 16.683 31.348C15.8925 31.333 15.117 31.1035 14.46 30.742C14.46 30.757 14.46 30.7765 14.46 30.796C14.46 33.187 16.1655 35.173 18.402 35.6305C18.0015 35.74 17.565 35.7925 17.112 35.7925C16.797 35.7925 16.479 35.7745 16.1805 35.7085C16.818 37.657 18.627 39.0895 20.778 39.136C19.104 40.4455 16.9785 41.2345 14.6775 41.2345C14.274 41.2345 13.887 41.2165 13.5 41.167C15.6795 42.5725 18.2625 43.375 21.048 43.375C30.102 43.375 35.052 35.875 35.052 29.374C35.052 29.1565 35.0445 28.9465 35.034 28.738C36.0105 28.045 36.831 27.1795 37.5 26.1835Z" fill="#03A9F4"/>
</svg>
