<svg width="77" height="66" viewBox="0 0 77 66" fill="none" xmlns="http://www.w3.org/2000/svg">
<path d="M0.5 32.6016C0.5 21.1379 9.79316 11.8447 21.2569 11.8447H61.9291C68.9435 11.8447 75.0096 6.95585 76.5 0.101562V32.6016V65.1016C75.0096 58.2473 68.9435 53.3584 61.9291 53.3584H21.2569C9.79317 53.3584 0.5 44.0653 0.5 32.6016Z" fill="white"/>
<g clip-path="url(#clip0_13387_316534)">
<path d="M25.5 46.6016L22.5 42.1016H24V39.1016H27V42.1016H28.5L25.5 46.6016ZM36 24.1016V36.1016H15V24.1016H36ZM37.5 22.6016H13.5V37.6016H37.5V22.6016Z" fill="#6A9586"/>
<path d="M25.5 25.6016C26.6935 25.6016 27.8381 26.0757 28.682 26.9196C29.5259 27.7635 30 28.9081 30 30.1016C30 31.295 29.5259 32.4396 28.682 33.2835C27.8381 34.1275 26.6935 34.6016 25.5 34.6016H33V33.1016H34.5V27.1016H33V25.6016H25.5ZM21 30.1016C21 28.9081 21.4741 27.7635 22.318 26.9196C23.1619 26.0757 24.3065 25.6016 25.5 25.6016H18V27.1016H16.5V33.1016H18V34.6016H25.5C24.3065 34.6016 23.1619 34.1275 22.318 33.2835C21.4741 32.4396 21 31.295 21 30.1016Z" fill="#6A9586"/>
</g>
<defs>
<clipPath id="clip0_13387_316534">
<rect width="24" height="24" fill="white" transform="translate(13.5 22.6016)"/>
</clipPath>
</defs>
</svg>
