<svg width="77" height="66" viewBox="0 0 77 66" fill="none" xmlns="http://www.w3.org/2000/svg">
<path d="M0.679688 33.2754C0.679688 21.8117 9.97285 12.5185 21.4365 12.5185H62.1088C69.1232 12.5185 75.1893 7.62968 76.6797 0.775391V33.2754V65.7754C75.1893 58.9211 69.1232 54.0322 62.1088 54.0322H21.4366C9.97286 54.0322 0.679688 44.7391 0.679688 33.2754Z" fill="white"/>
<g clip-path="url(#clip0_13816_287221)">
<path d="M25.6797 48.1738L22.6797 43.6738H24.1797V40.6738H27.1797V43.6738H28.6797L25.6797 48.1738ZM36.1797 25.6738V37.6738H15.1797V25.6738H36.1797ZM37.6797 24.1738H13.6797V39.1738H37.6797V24.1738Z" fill="#707FDA"/>
<path d="M25.6797 27.1738C26.8732 27.1738 28.0178 27.6479 28.8617 28.4918C29.7056 29.3358 30.1797 30.4804 30.1797 31.6738C30.1797 32.8673 29.7056 34.0119 28.8617 34.8558C28.0178 35.6997 26.8732 36.1738 25.6797 36.1738H33.1797V34.6738H34.6797V28.6738H33.1797V27.1738H25.6797ZM21.1797 31.6738C21.1797 30.4804 21.6538 29.3358 22.4977 28.4918C23.3416 27.6479 24.4862 27.1738 25.6797 27.1738H18.1797V28.6738H16.6797V34.6738H18.1797V36.1738H25.6797C24.4862 36.1738 23.3416 35.6997 22.4977 34.8558C21.6538 34.0119 21.1797 32.8673 21.1797 31.6738Z" fill="#707FDA"/>
</g>
<defs>
<clipPath id="clip0_13816_287221">
<rect width="24" height="24" fill="white" transform="translate(13.6797 24.1738)"/>
</clipPath>
</defs>
</svg>
