<svg width="30" height="30" viewBox="0 0 30 30" fill="none" xmlns="http://www.w3.org/2000/svg">
<g clip-path="url(#clip0_209_62506)">
<path d="M15 27L12 22.5H13.5V19.5H16.5V22.5H18L15 27ZM25.5 4.5V16.5H4.5V4.5H25.5ZM27 3H3V18H27V3Z" fill="white"/>
<path d="M15 6C16.1935 6 17.3381 6.47411 18.182 7.31802C19.0259 8.16193 19.5 9.30653 19.5 10.5C19.5 11.6935 19.0259 12.8381 18.182 13.682C17.3381 14.5259 16.1935 15 15 15H22.5V13.5H24V7.5H22.5V6H15ZM10.5 10.5C10.5 9.30653 10.9741 8.16193 11.818 7.31802C12.6619 6.47411 13.8065 6 15 6H7.5V7.5H6V13.5H7.5V15H15C13.8065 15 12.6619 14.5259 11.818 13.682C10.9741 12.8381 10.5 11.6935 10.5 10.5Z" fill="white"/>
</g>
<defs>
<clipPath id="clip0_209_62506">
<rect width="24" height="24" fill="white" transform="translate(3 3)"/>
</clipPath>
</defs>
</svg>
