<svg width="31" height="31" viewBox="0 0 31 31" fill="none" xmlns="http://www.w3.org/2000/svg">
<path d="M26.8301 9.56253C26.6082 8.33796 25.5511 7.44617 24.3244 7.16775C22.4886 6.77841 19.0911 6.5 15.4152 6.5C11.7414 6.5 8.28956 6.77841 6.4516 7.16775C5.22703 7.44617 4.16775 8.2814 3.94589 9.56253C3.72186 10.9546 3.5 12.9035 3.5 15.4092C3.5 17.9149 3.72186 19.8638 4.00027 21.2558C4.22431 22.4804 5.2814 23.3722 6.50598 23.6506C8.45487 24.04 11.7958 24.3184 15.4717 24.3184C19.1476 24.3184 22.4886 24.04 24.4375 23.6506C25.662 23.3722 26.7191 22.537 26.9432 21.2558C27.165 19.8638 27.4434 17.8583 27.5 15.4092C27.3869 12.9035 27.1085 10.9546 26.8301 9.56253ZM12.4092 19.307V11.5114L19.202 15.4092L12.4092 19.307Z" fill="white"/>
</svg>
