<svg width="76" height="66" viewBox="0 0 76 66" fill="none" xmlns="http://www.w3.org/2000/svg">
<path d="M0 32.6016C0 21.1379 9.29316 11.8447 20.7569 11.8447H61.4291C68.4435 11.8447 74.5096 6.95585 76 0.101562V32.6016V65.1016C74.5096 58.2473 68.4435 53.3584 61.4291 53.3584H20.7569C9.29317 53.3584 0 44.0653 0 32.6016Z" fill="#F5F5F5"/>
<path d="M36.3301 27.0625C36.1082 25.838 35.0511 24.9462 33.8244 24.6678C31.9886 24.2784 28.5911 24 24.9152 24C21.2414 24 17.7896 24.2784 15.9516 24.6678C14.727 24.9462 13.6678 25.7814 13.4459 27.0625C13.2219 28.4546 13 30.4035 13 32.9092C13 35.4149 13.2219 37.3638 13.5003 38.7558C13.7243 39.9804 14.7814 40.8722 16.006 41.1506C17.9549 41.54 21.2958 41.8184 24.9717 41.8184C28.6476 41.8184 31.9886 41.54 33.9375 41.1506C35.162 40.8722 36.2191 40.037 36.4432 38.7558C36.665 37.3638 36.9434 35.3583 37 32.9092C36.8869 30.4035 36.6085 28.4546 36.3301 27.0625ZM21.9092 36.807V29.0114L28.702 32.9092L21.9092 36.807Z" fill="#FF4646"/>
</svg>
