<svg width="30" height="30" viewBox="0 0 30 30" fill="none" xmlns="http://www.w3.org/2000/svg">
<path d="M26.3301 9.06253C26.1082 7.83796 25.0511 6.94617 23.8244 6.66775C21.9886 6.27841 18.5911 6 14.9152 6C11.2414 6 7.78956 6.27841 5.9516 6.66775C4.72703 6.94617 3.66775 7.7814 3.44589 9.06253C3.22186 10.4546 3 12.4035 3 14.9092C3 17.4149 3.22186 19.3638 3.50027 20.7558C3.72431 21.9804 4.7814 22.8722 6.00598 23.1506C7.95487 23.54 11.2958 23.8184 14.9717 23.8184C18.6476 23.8184 21.9886 23.54 23.9375 23.1506C25.162 22.8722 26.2191 22.037 26.4432 20.7558C26.665 19.3638 26.9434 17.3583 27 14.9092C26.8869 12.4035 26.6085 10.4546 26.3301 9.06253ZM11.9092 18.807V11.0114L18.702 14.9092L11.9092 18.807Z" fill="#99A29C"/>
</svg>
