<svg width="39" height="39" viewBox="0 0 39 39" fill="none" xmlns="http://www.w3.org/2000/svg">
<rect x="0.679688" y="0.78125" width="37" height="37" rx="18.5" fill="white"/>
<path d="M26.4632 9.30957H11.8945C10.4103 9.30957 9.20703 10.5128 9.20703 11.997V26.5658C9.20703 28.0501 10.4102 29.2533 11.8945 29.2533H19.0797L19.092 22.1265H17.2404C16.9998 22.1265 16.8045 21.9319 16.8036 21.6913L16.7947 19.394C16.7938 19.1521 16.9896 18.9555 17.2316 18.9555H19.0798V16.7357C19.0798 14.1597 20.653 12.7571 22.951 12.7571H24.8366C25.0779 12.7571 25.2735 12.9527 25.2735 13.194V15.1311C25.2735 15.3723 25.078 15.5678 24.8368 15.568L23.6797 15.5685C22.43 15.5685 22.188 16.1623 22.188 17.0338V18.9555H24.934C25.1956 18.9555 25.3986 19.184 25.3678 19.4438L25.0955 21.7411C25.0695 21.9609 24.883 22.1266 24.6617 22.1266H22.2002L22.188 29.2534H26.4633C27.9475 29.2534 29.1507 28.0502 29.1507 26.566V11.997C29.1507 10.5128 27.9474 9.30957 26.4632 9.30957Z" fill="#4267B2"/>
<rect x="0.679688" y="0.78125" width="37" height="37" rx="18.5" stroke="#4267B2"/>
</svg>
