<svg width="31" height="31" viewBox="0 0 31 31" fill="none" xmlns="http://www.w3.org/2000/svg">
<path d="M23.7696 3.41113H6.23795C4.45187 3.41113 3.00391 4.85904 3.00391 6.64518V24.177C3.00391 25.9631 4.45182 27.411 6.23795 27.411H14.8845L14.8992 18.8348H12.6711C12.3816 18.8348 12.1465 18.6006 12.1454 18.3111L12.1347 15.5466C12.1336 15.2554 12.3693 15.0188 12.6605 15.0188H14.8845V12.3476C14.8845 9.24774 16.7778 7.55983 19.5431 7.55983H21.8122C22.1025 7.55983 22.338 7.7952 22.338 8.08558V10.4166C22.338 10.7069 22.1027 10.9422 21.8125 10.9424L20.42 10.943C18.9161 10.943 18.6249 11.6576 18.6249 12.7064V15.0189H21.9294C22.2443 15.0189 22.4886 15.2938 22.4515 15.6065L22.1238 18.371C22.0925 18.6356 21.8681 18.8349 21.6018 18.8349H18.6396L18.6249 27.4111H23.7697C25.5558 27.4111 27.0037 25.9632 27.0037 24.1771V6.64518C27.0037 4.85904 25.5558 3.41113 23.7696 3.41113Z" fill="#4267B2"/>
</svg>
