<svg width="31" height="31" viewBox="0 0 31 31" fill="none" xmlns="http://www.w3.org/2000/svg">
<path d="M28.1958 0H2.80421C1.2555 0 0 1.2555 0 2.80421V28.1957C0 29.7445 1.2555 31 2.80421 31H28.1957C29.7445 31 31 29.7445 31 28.1957V2.80421C31 1.2555 29.7445 0 28.1958 0ZM9.59269 26.7675C9.59269 27.2181 9.22741 27.5835 8.77662 27.5835H5.30281C4.85215 27.5835 4.48686 27.2181 4.48686 26.7675V12.2055C4.48686 11.7548 4.85215 11.3894 5.30281 11.3894H8.77662C9.22741 11.3894 9.59269 11.7548 9.59269 12.2055V26.7675ZM7.03971 10.0167C5.21717 10.0167 3.73963 8.53921 3.73963 6.71667C3.73963 4.894 5.21717 3.41646 7.03971 3.41646C8.86238 3.41646 10.3399 4.894 10.3399 6.71667C10.3399 8.53921 8.86238 10.0167 7.03971 10.0167ZM27.7467 26.8332C27.7467 27.2476 27.4107 27.5835 26.9963 27.5835H23.2687C22.8544 27.5835 22.5183 27.2476 22.5183 26.8332V20.0027C22.5183 18.9839 22.8172 15.5377 19.8555 15.5377C17.5581 15.5377 17.0922 17.8964 16.9986 18.9551V26.8332C16.9986 27.2476 16.6628 27.5835 16.2483 27.5835H12.6431C12.2287 27.5835 11.8928 27.2476 11.8928 26.8332V12.1397C11.8928 11.7254 12.2287 11.3894 12.6431 11.3894H16.2483C16.6626 11.3894 16.9986 11.7254 16.9986 12.1397V13.4102C17.8504 12.1318 19.1164 11.145 21.8119 11.145C27.7808 11.145 27.7467 16.7215 27.7467 19.7855V26.8332Z" fill="#0077B7"/>
</svg>
