<svg width="39" height="39" viewBox="0 0 39 39" fill="none" xmlns="http://www.w3.org/2000/svg">
<rect x="0.679688" y="0.78125" width="37" height="37" rx="18.5" fill="white"/>
<path d="M27.9799 13.6407C27.3254 13.9278 26.628 14.1181 25.9009 14.2105C26.6489 13.7639 27.2198 13.0621 27.4882 12.2162C26.7908 12.632 26.0208 12.9257 25.2002 13.0896C24.538 12.3845 23.5942 11.9478 22.5646 11.9478C20.567 11.9478 18.9588 13.5692 18.9588 15.5569C18.9588 15.8429 18.983 16.1179 19.0424 16.3797C16.0427 16.2334 13.3884 14.7957 11.6053 12.6056C11.294 13.1457 11.1114 13.7639 11.1114 14.4294C11.1114 15.679 11.7549 16.7867 12.7141 17.428C12.1344 17.417 11.5657 17.2487 11.0839 16.9836C11.0839 16.9946 11.0839 17.0089 11.0839 17.0232C11.0839 18.7766 12.3346 20.233 13.9747 20.5685C13.681 20.6488 13.3609 20.6873 13.0287 20.6873C12.7977 20.6873 12.5645 20.6741 12.3456 20.6257C12.8131 22.0546 14.1397 23.1051 15.7171 23.1392C14.4895 24.0995 12.9308 24.6781 11.2434 24.6781C10.9475 24.6781 10.6637 24.6649 10.3799 24.6286C11.9782 25.6593 13.8724 26.2478 15.9151 26.2478C22.5547 26.2478 26.1847 20.7478 26.1847 15.9804C26.1847 15.8209 26.1792 15.6669 26.1715 15.514C26.8876 15.0058 27.4893 14.3711 27.9799 13.6407Z" fill="#1DA1F2"/>
<rect x="0.679688" y="0.78125" width="37" height="37" rx="18.5" stroke="#1DA1F2"/>
</svg>
