<svg width="30" height="31" viewBox="0 0 30 31" fill="none" xmlns="http://www.w3.org/2000/svg">
<path d="M27 7.71963C26.1075 8.11113 25.1565 8.37063 24.165 8.49663C25.185 7.88763 25.9635 6.93063 26.3295 5.77713C25.3785 6.34413 24.3285 6.74463 23.2095 6.96813C22.3065 6.00663 21.0195 5.41113 19.6155 5.41113C16.8915 5.41113 14.6985 7.62213 14.6985 10.3326C14.6985 10.7226 14.7315 11.0976 14.8125 11.4546C10.722 11.2551 7.1025 9.29463 4.671 6.30813C4.2465 7.04463 3.9975 7.88763 3.9975 8.79513C3.9975 10.4991 4.875 12.0096 6.183 12.8841C5.3925 12.8691 4.617 12.6396 3.96 12.2781C3.96 12.2931 3.96 12.3126 3.96 12.3321C3.96 14.7231 5.6655 16.7091 7.902 17.1666C7.5015 17.2761 7.065 17.3286 6.612 17.3286C6.297 17.3286 5.979 17.3106 5.6805 17.2446C6.318 19.1931 8.127 20.6256 10.278 20.6721C8.604 21.9816 6.4785 22.7706 4.1775 22.7706C3.774 22.7706 3.387 22.7526 3 22.7031C5.1795 24.1086 7.7625 24.9111 10.548 24.9111C19.602 24.9111 24.552 17.4111 24.552 10.9101C24.552 10.6926 24.5445 10.4826 24.534 10.2741C25.5105 9.58113 26.331 8.71563 27 7.71963Z" fill="#1DA1F2"/>
</svg>
