<svg width="31" height="31" viewBox="0 0 31 31" fill="none" xmlns="http://www.w3.org/2000/svg">
<path d="M26.334 9.47367C26.1121 8.24909 25.055 7.3573 23.8283 7.07889C21.9925 6.68954 18.595 6.41113 14.9191 6.41113C11.2453 6.41113 7.79347 6.68954 5.95551 7.07889C4.73093 7.3573 3.67166 8.19254 3.4498 9.47367C3.22577 10.8657 3.00391 12.8146 3.00391 15.3203C3.00391 17.826 3.22577 19.7749 3.50418 21.167C3.72821 22.3916 4.78531 23.2833 6.00989 23.5618C7.95877 23.9511 11.2997 24.2295 14.9756 24.2295C18.6515 24.2295 21.9925 23.9511 23.9414 23.5618C25.166 23.2833 26.223 22.4481 26.4471 21.167C26.6689 19.7749 26.9474 17.7695 27.0039 15.3203C26.8908 12.8146 26.6124 10.8657 26.334 9.47367ZM11.9131 19.2181V11.4226L18.7059 15.3203L11.9131 19.2181Z" fill="#FF2B2B"/>
</svg>
