<svg width="27" height="26" viewBox="0 0 27 26" fill="none" xmlns="http://www.w3.org/2000/svg">
<circle cx="13.3535" cy="13" r="13" fill="#F8F9FD"/>
<path d="M19.7875 9.68027C19.6616 8.98497 19.0614 8.47863 18.3648 8.32055C17.3225 8.09949 15.3934 7.94141 13.3063 7.94141C11.2204 7.94141 9.26047 8.09949 8.2169 8.32055C7.5216 8.47863 6.92016 8.95286 6.79419 9.68027C6.66698 10.4707 6.54102 11.5772 6.54102 12.9999C6.54102 14.4226 6.66698 15.5292 6.82506 16.3196C6.95227 17.0149 7.55247 17.5212 8.24777 17.6793C9.35433 17.9004 11.2513 18.0585 13.3384 18.0585C15.4255 18.0585 17.3225 17.9004 18.429 17.6793C19.1243 17.5212 19.7246 17.047 19.8518 16.3196C19.9777 15.5292 20.1358 14.3905 20.1679 12.9999C20.1037 11.5772 19.9456 10.4707 19.7875 9.68027ZM11.5995 15.213V10.7868L15.4564 12.9999L11.5995 15.213Z" fill="#FF5959"/>
</svg>
