<svg width="38" height="39" viewBox="0 0 38 39" fill="none" xmlns="http://www.w3.org/2000/svg">
<circle cx="18.6899" cy="19.6211" r="18.1899" fill="white" stroke="#FFA3A3"/>
<path d="M27.9389 14.8486C27.7578 13.849 26.8949 13.121 25.8935 12.8937C24.3949 12.5759 21.6215 12.3486 18.6209 12.3486C15.622 12.3486 12.8043 12.5759 11.3039 12.8937C10.3043 13.121 9.43962 13.8028 9.25852 14.8486C9.07564 15.9849 8.89453 17.5758 8.89453 19.6212C8.89453 21.6666 9.07564 23.2575 9.3029 24.3938C9.48578 25.3935 10.3487 26.1214 11.3483 26.3487C12.9392 26.6665 15.6664 26.8938 18.6671 26.8938C21.6677 26.8938 24.3949 26.6665 25.9858 26.3487C26.9854 26.1214 27.8483 25.4396 28.0312 24.3938C28.2123 23.2575 28.4396 21.6205 28.4858 19.6212C28.3934 17.5758 28.1662 15.9849 27.9389 14.8486ZM16.1671 22.803V16.4395L21.7121 19.6212L16.1671 22.803Z" fill="#FF5959"/>
</svg>
