<svg width="41" height="40" viewBox="0 0 41 40" fill="none" xmlns="http://www.w3.org/2000/svg">
<rect x="0.245605" width="40" height="40" rx="16" fill="#F6F7FC"/>
<path d="M16.5395 22L14.7725 29.068C14.5855 29.814 15.5085 30.324 16.0415 29.769L28.0355 17.27C28.1374 17.164 28.206 17.0304 28.2326 16.8858C28.2592 16.7411 28.2427 16.5919 28.1852 16.4565C28.1276 16.3212 28.0316 16.2058 27.9089 16.1246C27.7863 16.0434 27.6425 16.0001 27.4955 16H23.0355L24.7075 10.987C24.745 10.8742 24.7552 10.7541 24.7373 10.6367C24.7193 10.5192 24.6737 10.4076 24.6041 10.3112C24.5346 10.2148 24.4431 10.1363 24.3373 10.0822C24.2315 10.0281 24.1143 9.99993 23.9955 10H16.9955C16.8325 10 16.674 10.0531 16.5439 10.1513C16.4138 10.2495 16.3192 10.3873 16.2745 10.544L13.2745 21.044C13.2426 21.1556 13.237 21.2731 13.2583 21.3872C13.2795 21.5013 13.3269 21.6089 13.3968 21.7016C13.4667 21.7943 13.5571 21.8695 13.661 21.9212C13.7649 21.973 13.8794 22 13.9955 22H16.5395ZM21.2845 16.513C21.2469 16.6257 21.2367 16.7457 21.2546 16.8631C21.2725 16.9805 21.3181 17.092 21.3875 17.1884C21.4569 17.2847 21.5482 17.3633 21.6539 17.4174C21.7596 17.4716 21.8767 17.4999 21.9955 17.5H25.7355L16.9115 26.696L18.2275 21.432C18.2551 21.3215 18.2572 21.2061 18.2336 21.0946C18.21 20.9832 18.1613 20.8785 18.0912 20.7887C18.0212 20.6989 17.9315 20.6262 17.8292 20.5762C17.7268 20.5261 17.6144 20.5001 17.5005 20.5H14.9905L17.5605 11.5H22.9545L21.2845 16.513Z" fill="#707FDA"/>
</svg>
