<svg width="33" height="33" viewBox="0 0 33 33" fill="none" xmlns="http://www.w3.org/2000/svg">
<rect x="0.245605" y="0.5" width="32" height="32" rx="16" fill="#F6F7FC"/>
<path d="M21.5789 10.5H10.9123C10.1789 10.5 9.58559 11.1 9.58559 11.8333L9.57959 22.2227C9.57959 22.8167 10.2976 23.1147 10.7176 22.6947L12.2456 21.1667H21.5789C22.3123 21.1667 22.9123 20.5667 22.9123 19.8333V11.8333C22.9123 11.1 22.3123 10.5 21.5789 10.5ZM14.2456 15.8333C14.2456 16.2013 13.9469 16.5 13.5789 16.5C13.2109 16.5 12.9123 16.2013 12.9123 15.8333C12.9123 15.4653 13.2109 15.1667 13.5789 15.1667C13.9469 15.1667 14.2456 15.4653 14.2456 15.8333ZM16.9123 15.8333C16.9123 16.2013 16.6136 16.5 16.2456 16.5C15.8776 16.5 15.5789 16.2013 15.5789 15.8333C15.5789 15.4653 15.8776 15.1667 16.2456 15.1667C16.6136 15.1667 16.9123 15.4653 16.9123 15.8333ZM19.5789 15.8333C19.5789 16.2013 19.2803 16.5 18.9123 16.5C18.5443 16.5 18.2456 16.2013 18.2456 15.8333C18.2456 15.4653 18.5443 15.1667 18.9123 15.1667C19.2803 15.1667 19.5789 15.4653 19.5789 15.8333Z" fill="#6A9586"/>
</svg>
