<svg width="60" height="60" viewBox="0 0 60 60" fill="none" xmlns="http://www.w3.org/2000/svg">
<rect width="60" height="60" rx="30" fill="#4261CC" fill-opacity="0.05"/>
<circle cx="30" cy="30" r="14" stroke="#4261CC" stroke-width="2"/>
<path d="M25.1257 29.7655C24.7609 29.3509 24.129 29.3106 23.7144 29.6754C23.2998 30.0403 23.2594 30.6722 23.6243 31.0868L25.1257 29.7655ZM28.125 34.6875L27.3743 35.3481C27.5695 35.57 27.853 35.6942 28.1485 35.6872C28.4439 35.6803 28.7212 35.543 28.9059 35.3122L28.125 34.6875ZM36.4059 25.9372C36.7509 25.5059 36.681 24.8766 36.2497 24.5316C35.8184 24.1866 35.1891 24.2565 34.8441 24.6878L36.4059 25.9372ZM23.6243 31.0868L27.3743 35.3481L28.8757 34.0269L25.1257 29.7655L23.6243 31.0868ZM28.9059 35.3122L36.4059 25.9372L34.8441 24.6878L27.3441 34.0628L28.9059 35.3122Z" fill="#4261CC"/>
</svg>
