<svg width="101" height="100" viewBox="0 0 101 100" fill="none" xmlns="http://www.w3.org/2000/svg">
<rect x="0.5" width="100" height="100" rx="50" fill="#4261CC" fill-opacity="0.05"/>
<circle cx="50.5" cy="50" r="29" stroke="#4261CC" stroke-width="2"/>
<path d="M40.0007 50.1916C39.6359 49.777 39.004 49.7367 38.5894 50.1016C38.1748 50.4664 38.1344 51.0983 38.4993 51.5129L40.0007 50.1916ZM46.75 59.375L45.9993 60.0356C46.1945 60.2575 46.478 60.3817 46.7735 60.3747C47.0689 60.3678 47.3462 60.2305 47.5309 59.9997L46.75 59.375ZM62.5309 41.2497C62.8759 40.8184 62.806 40.1891 62.3747 39.8441C61.9434 39.4991 61.3141 39.569 60.9691 40.0003L62.5309 41.2497ZM38.4993 51.5129L45.9993 60.0356L47.5007 58.7144L40.0007 50.1916L38.4993 51.5129ZM47.5309 59.9997L62.5309 41.2497L60.9691 40.0003L45.9691 58.7503L47.5309 59.9997Z" fill="#4261CC"/>
</svg>
