<svg width="33" height="35" viewBox="0 0 33 35" fill="none" xmlns="http://www.w3.org/2000/svg">
<rect x="0.245605" y="0.773438" width="32" height="33.4545" rx="16" fill="#F6F7FC"/>
<path d="M8.24561 8.77344V26.228H9.70015V20.4098H24.2456V8.77344H8.24561ZM9.70015 10.228H11.882V12.4098H14.0638V10.228H16.2456V12.4098H18.4274V10.228H20.6092V12.4098H22.7911V14.5916H20.6092V16.7734H22.7911V18.9553H20.6092V16.7734H18.4274V18.9553H16.2456V16.7734H14.0638V18.9553H11.882V16.7734H9.70015V14.5916H11.882V12.4098H9.70015V10.228ZM11.882 14.5916V16.7734H14.0638V14.5916H11.882ZM14.0638 14.5916H16.2456V12.4098H14.0638V14.5916ZM16.2456 14.5916V16.7734H18.4274V14.5916H16.2456ZM18.4274 14.5916H20.6092V12.4098H18.4274V14.5916Z" fill="#6A9586"/>
</svg>
