<svg width="20" height="20" viewBox="0 0 20 20" fill="none" xmlns="http://www.w3.org/2000/svg">
<path fill-rule="evenodd" clip-rule="evenodd" d="M2.5 9.5V2.5H7.5V9.5H2.5ZM1 2C1 1.44772 1.44772 1 2 1H8C8.55228 1 9 1.44772 9 2V10C9 10.5523 8.55228 11 8 11H2C1.44772 11 1 10.5523 1 10V2ZM12.5 10.5H17.5V17.5H12.5V10.5ZM11 10C11 9.44772 11.4477 9 12 9H18C18.5523 9 19 9.44772 19 10V18C19 18.5523 18.5523 19 18 19H12C11.4477 19 11 18.5523 11 18V10ZM2.5 17.5V14.5H7.5V17.5H2.5ZM2 19C1.44772 19 1 18.5523 1 18V14C1 13.4477 1.44772 13 2 13H8C8.55228 13 9 13.4477 9 14V18C9 18.5523 8.55228 19 8 19H2ZM12.5 2.5V5.5H17.5V2.5H12.5ZM11 6C11 6.55228 11.4477 7 12 7H18C18.5523 7 19 6.55228 19 6V2C19 1.44772 18.5523 1 18 1H12C11.4477 1 11 1.44772 11 2V6Z" fill="#4261CC"/>
</svg>
