<svg width="60" height="60" viewBox="0 0 60 60" fill="none" xmlns="http://www.w3.org/2000/svg">
<rect width="60" height="60" rx="30" fill="#4261CC" fill-opacity="0.05"/>
<g clip-path="url(#clip0)">
<path d="M31.4 16C30.7406 16 30.19 16.5041 30.1368 17.1621L30.1149 17.4273C30.111 17.4735 30.1302 17.5134 30.1313 17.5586C29.0342 17.8137 28.0674 18.388 27.3231 19.1828C27.284 19.159 27.2589 19.1207 27.2164 19.1008L26.9786 18.9887C26.3821 18.7073 25.6683 18.9288 25.3379 19.5C25.0075 20.0712 25.1707 20.7982 25.7125 21.1734L25.9313 21.3266C25.9732 21.3556 26.0214 21.3607 26.0653 21.384C25.9092 21.8988 25.8 22.4343 25.8 23C25.8 23.5657 25.9092 24.1012 26.0653 24.616C26.0214 24.6393 25.9732 24.6444 25.9313 24.6734L25.7125 24.8238C25.1707 25.2004 25.0075 25.9288 25.3379 26.5C25.6683 27.0712 26.3821 27.2927 26.9786 27.0113L27.2164 26.8992C27.2588 26.8792 27.2841 26.841 27.3231 26.8172C28.0668 27.6114 29.0325 28.186 30.1286 28.4414C30.1274 28.4866 30.1084 28.5265 30.1122 28.5727L30.1368 28.8379C30.1914 29.4959 30.7406 30 31.4 30C32.0595 30 32.6101 29.4959 32.6633 28.8379L32.6852 28.5727C32.6891 28.5265 32.6699 28.4866 32.6688 28.4414C33.7659 28.1863 34.7327 27.612 35.477 26.8172C35.5161 26.8411 35.5412 26.8792 35.5837 26.8992L35.8215 27.0141C36.4179 27.2955 37.1318 27.0739 37.4622 26.5027C37.7926 25.9315 37.6294 25.2032 37.0876 24.8266L36.8688 24.6734C36.8269 24.6444 36.7787 24.6393 36.7348 24.616C36.8909 24.1012 37.0001 23.5657 37.0001 23C37.0001 22.4343 36.8909 21.8988 36.7348 21.384C36.7787 21.3607 36.8269 21.3556 36.8688 21.3266L37.0876 21.1762C37.6294 20.7996 37.7926 20.0712 37.4622 19.5C37.1318 18.9288 36.4179 18.7073 35.8215 18.9887L35.5837 19.1008C35.5413 19.1208 35.516 19.159 35.477 19.1828C34.7333 18.3886 33.7676 17.814 32.6715 17.5586C32.6727 17.5134 32.6917 17.4735 32.6879 17.4273L32.6633 17.1621C32.6087 16.5041 32.0595 16 31.4 16ZM31.4 20.9C32.5593 20.9 33.5001 21.8408 33.5001 23C33.5001 24.1592 32.5593 25.1 31.4 25.1C30.2408 25.1 29.3 24.1592 29.3 23C29.3 21.8408 30.2408 20.9 31.4 20.9ZM42.0204 30C41.5136 30 41.0068 30.1933 40.6204 30.5797L34.2001 37H28.6C28.2136 37 27.9 36.6864 27.9 36.3C27.9 35.9136 28.2136 35.6 28.6 35.6H32.1001C33.2551 35.6 34.2001 34.655 34.2001 33.5C34.2001 32.345 33.2551 31.4 32.1001 31.4H25.3188C23.8348 31.4 22.4121 31.9906 21.3621 33.0406L16 38.4L21.6 44L24.4 41.2H34.4407C35.1827 41.2 35.8954 40.9047 36.4204 40.3797L43.4204 33.3797C44.1932 32.6069 44.1932 31.3525 43.4204 30.5797C43.034 30.1933 42.5272 30 42.0204 30Z" stroke="#4261CC" stroke-width="2"/>
</g>
<defs>
<clipPath id="clip0">
<rect width="30" height="30" fill="white" transform="translate(15 15)"/>
</clipPath>
</defs>
</svg>
