<svg width="32" height="32" viewBox="0 0 32 32" fill="none" xmlns="http://www.w3.org/2000/svg">
<path d="M16 1.33203C13.0703 1.33203 10.6667 3.73564 10.6667 6.66536C10.6667 7.6396 10.9515 8.54319 11.4141 9.33203H8C7.264 9.33203 6.66667 8.73336 6.66667 7.9987C6.66667 7.26403 7.264 6.66536 8 6.66536C8 5.72936 8.17015 4.83336 8.46615 3.9987H8C5.79467 3.9987 4 5.79336 4 7.9987V25.332C4 26.8027 5.196 27.9987 6.66667 27.9987H25.3333C26.804 27.9987 28 26.8027 28 25.332V11.9987C28 10.9115 27.3439 9.97857 26.4089 9.5638C26.563 9.06519 26.6667 8.54481 26.6667 7.9987C26.6667 5.06892 24.2631 2.66536 21.3333 2.66536C20.791 2.66536 20.268 2.7553 19.7708 2.90755C18.8032 1.93657 17.4682 1.33203 16 1.33203ZM16 3.9987C17.4886 3.9987 18.6667 5.17681 18.6667 6.66536C18.6667 8.15392 17.4886 9.33203 16 9.33203C14.5114 9.33203 13.3333 8.15392 13.3333 6.66536C13.3333 5.17681 14.5114 3.9987 16 3.9987ZM21.3333 5.33203C22.8222 5.33203 24 6.50981 24 7.9987C24 8.48914 23.8649 8.94051 23.638 9.33203H20.5859C21.0485 8.54319 21.3333 7.6396 21.3333 6.66536C21.3333 6.21134 21.2569 5.77723 21.1484 5.35547C21.2116 5.35112 21.2687 5.33203 21.3333 5.33203ZM22.6667 17.332C23.4027 17.332 24 17.9294 24 18.6654C24 19.4014 23.4027 19.9987 22.6667 19.9987C21.9307 19.9987 21.3333 19.4014 21.3333 18.6654C21.3333 17.9294 21.9307 17.332 22.6667 17.332Z" fill="#707FDA"/>
</svg>
