<svg width="33" height="33" viewBox="0 0 33 33" fill="none" xmlns="http://www.w3.org/2000/svg">
<rect x="0.245605" y="0.5" width="32" height="32" rx="16" fill="#F6F7FC"/>
<path d="M10.5789 14.5C11.1122 14.5 11.5789 14.9667 11.5789 15.5V21.5C11.5789 22.0333 11.1122 22.5 10.5789 22.5C10.0455 22.5 9.57886 22.0333 9.57886 21.5V15.5C9.57886 14.9667 10.0455 14.5 10.5789 14.5ZM19.5789 22.5H14.2455C13.5122 22.5 12.9122 21.9 12.9122 21.1667V15.0333C12.9122 14.7 13.0455 14.3667 13.2455 14.1667L15.0455 12.1667L15.4455 10.5C15.5122 10.1 15.9789 9.89999 16.3122 10.0333C16.9122 10.1667 17.5789 10.7 17.5789 11.7667C17.5789 12.9 16.9122 14.5 16.9122 14.5H21.5789C22.3122 14.5 22.9122 15.1 22.9122 15.8333V16.4333C22.9122 16.7 22.8455 16.9667 22.7122 17.2333L20.7122 21.7667C20.5122 22.2333 20.1122 22.5 19.5789 22.5Z" fill="#6A9586"/>
</svg>
