<svg width="41" height="41" viewBox="0 0 41 41" fill="none" xmlns="http://www.w3.org/2000/svg">
<rect x="0.353516" y="0.515625" width="40" height="40" rx="20" fill="white"/>
<path d="M20.3535 20.5156C20.9035 20.5156 21.3745 20.3196 21.7665 19.9276C22.1578 19.5363 22.3535 19.0656 22.3535 18.5156C22.3535 17.9656 22.1578 17.4946 21.7665 17.1026C21.3745 16.7113 20.9035 16.5156 20.3535 16.5156C19.8035 16.5156 19.3328 16.7113 18.9415 17.1026C18.5495 17.4946 18.3535 17.9656 18.3535 18.5156C18.3535 19.0656 18.5495 19.5363 18.9415 19.9276C19.3328 20.3196 19.8035 20.5156 20.3535 20.5156ZM20.3535 30.5156C17.6702 28.2323 15.6662 26.1113 14.3415 24.1526C13.0162 22.1946 12.3535 20.3823 12.3535 18.7156C12.3535 16.2156 13.1578 14.224 14.7665 12.7406C16.3745 11.2573 18.2368 10.5156 20.3535 10.5156C22.4702 10.5156 24.3325 11.2573 25.9405 12.7406C27.5492 14.224 28.3535 16.2156 28.3535 18.7156C28.3535 20.3823 27.6912 22.1946 26.3665 24.1526C25.0412 26.1113 23.0368 28.2323 20.3535 30.5156Z" fill="#707FDA"/>
</svg>
