<svg width="40" height="41" viewBox="0 0 40 41" fill="none" xmlns="http://www.w3.org/2000/svg">
<rect y="0.952393" width="40" height="40" rx="20" fill="white"/>
<path d="M20 20.9524C20.55 20.9524 21.021 20.7564 21.413 20.3644C21.8043 19.9731 22 19.5024 22 18.9524C22 18.4024 21.8043 17.9314 21.413 17.5394C21.021 17.1481 20.55 16.9524 20 16.9524C19.45 16.9524 18.9793 17.1481 18.588 17.5394C18.196 17.9314 18 18.4024 18 18.9524C18 19.5024 18.196 19.9731 18.588 20.3644C18.9793 20.7564 19.45 20.9524 20 20.9524ZM20 30.9524C17.3167 28.6691 15.3127 26.5481 13.988 24.5894C12.6627 22.6314 12 20.8191 12 19.1524C12 16.6524 12.8043 14.6607 14.413 13.1774C16.021 11.6941 17.8833 10.9524 20 10.9524C22.1167 10.9524 23.979 11.6941 25.587 13.1774C27.1957 14.6607 28 16.6524 28 19.1524C28 20.8191 27.3377 22.6314 26.013 24.5894C24.6877 26.5481 22.6833 28.6691 20 30.9524Z" fill="#6A9586"/>
</svg>
