<svg width="43" height="43" viewBox="0 0 43 43" fill="none" xmlns="http://www.w3.org/2000/svg">
<rect x="0.666016" y="0.515625" width="42" height="42" rx="21" fill="white"/>
<path d="M12.666 14.5156V27.5156H30.666V14.5156H12.666ZM17.166 25.6585C17.166 24.9197 16.8816 24.2111 16.3752 23.6887C15.8689 23.1663 15.1821 22.8728 14.466 22.8728V19.1585C15.1821 19.1585 15.8689 18.865 16.3752 18.3426C16.8816 17.8201 17.166 17.1116 17.166 16.3728H26.166C26.166 17.1116 26.4505 17.8201 26.9568 18.3426C27.4632 18.865 28.1499 19.1585 28.866 19.1585V22.8728C28.1499 22.8728 27.4632 23.1663 26.9568 23.6887C26.4505 24.2111 26.166 24.9197 26.166 25.6585H17.166ZM21.666 18.2299C22.656 18.2299 23.466 19.4371 23.466 21.0156C23.466 22.5942 22.656 23.8013 21.666 23.8013C20.676 23.8013 19.866 22.5942 19.866 21.0156C19.866 19.4371 20.676 18.2299 21.666 18.2299Z" fill="#707FDA"/>
</svg>
