<svg width="43" height="43" viewBox="0 0 43 43" fill="none" xmlns="http://www.w3.org/2000/svg">
<rect x="0.55957" y="0.522461" width="42" height="42" rx="21" fill="white"/>
<path d="M12.5596 14.5225V27.5225H30.5596V14.5225H12.5596ZM17.0596 25.6653C17.0596 24.9265 16.7751 24.2179 16.2688 23.6955C15.7624 23.1731 15.0757 22.8796 14.3596 22.8796V19.1653C15.0757 19.1653 15.7624 18.8718 16.2688 18.3494C16.7751 17.827 17.0596 17.1184 17.0596 16.3796H26.0596C26.0596 17.1184 26.344 17.827 26.8504 18.3494C27.3567 18.8718 28.0435 19.1653 28.7596 19.1653V22.8796C28.0435 22.8796 27.3567 23.1731 26.8504 23.6955C26.344 24.2179 26.0596 24.9265 26.0596 25.6653H17.0596ZM21.5596 18.2367C22.5496 18.2367 23.3596 19.4439 23.3596 21.0225C23.3596 22.601 22.5496 23.8082 21.5596 23.8082C20.5696 23.8082 19.7596 22.601 19.7596 21.0225C19.7596 19.4439 20.5696 18.2367 21.5596 18.2367Z" fill="#6A9586"/>
</svg>
