<svg width="60" height="60" viewBox="0 0 60 60" fill="none" xmlns="http://www.w3.org/2000/svg">
<rect width="60" height="60" rx="30" fill="#4261CC" fill-opacity="0.05"/>
<path d="M27.7793 18H28.2243L28.5222 17.6694C28.896 17.2546 29.4191 17 30 17C30.5809 17 31.104 17.2546 31.4778 17.6694L31.7757 18H32.2207H34.998C34.9982 18 34.9983 18 34.9984 18C34.9986 18.0002 34.9987 18.0004 34.9989 18.0006L34.9917 18.0185L34.9847 18.0383L34.2925 20H25.7075L25.0153 18.0383L25.0083 18.0185L25.0011 18.0006C25.0013 18.0004 25.0014 18.0002 25.0016 18C25.0017 18 25.0018 18 25.002 18H27.7793ZM29 25.5H28V26.5V27.3877C27.4634 27.6093 26.9872 27.9302 26.6082 28.354C26.0458 28.983 25.7461 29.7859 25.7461 30.6758C25.7461 31.5379 26.0063 32.3291 26.5991 32.9533C26.7593 33.1219 26.9368 33.271 27.129 33.4023H26.5508H25.5091L25.5516 34.4432C25.5884 35.342 25.9288 36.1379 26.5338 36.7482C26.9397 37.1576 27.4405 37.4601 28 37.6639V38.5V39.5H29H31H32V38.5V37.6586C32.5919 37.4419 33.117 37.1145 33.5331 36.6649C34.1413 36.0076 34.4492 35.1604 34.4492 34.2187C34.4492 33.3529 34.1993 32.556 33.5686 31.93C33.4392 31.8016 33.2987 31.6854 33.1484 31.5801H33.2969H34.3329L34.2962 30.5447C34.2427 29.0333 33.2976 27.9259 32 27.3862V26.5V25.5H31H29ZM29.2742 34.2836L29.2621 34.1823L29.9771 34.335C29.9773 34.3351 29.9776 34.3351 29.9778 34.3352C30.205 34.3841 30.3765 34.433 30.5045 34.48C30.4046 34.5133 30.2627 34.541 30.0742 34.541C29.7057 34.541 29.4779 34.4584 29.3665 34.3877C29.2784 34.3318 29.2754 34.2975 29.2744 34.2855C29.2743 34.2848 29.2742 34.2841 29.2742 34.2836ZM30.5343 30.5766C30.5895 30.616 30.6084 30.6499 30.6158 30.6841L30.1628 30.5882C30.1626 30.5882 30.1624 30.5881 30.1623 30.5881C30.1622 30.5881 30.1622 30.5881 30.1622 30.5881C29.99 30.5515 29.8526 30.5149 29.7438 30.4793C29.8184 30.4641 29.9139 30.4531 30.0332 30.4531C30.2983 30.4531 30.4584 30.5223 30.5343 30.5766ZM25.3843 24H34.6157C34.6173 24.0014 34.6188 24.0028 34.6203 24.0043C34.8011 24.1722 35.0628 24.4225 35.3784 24.7456C36.0106 25.3929 36.8536 26.3264 37.6949 27.4682C39.3968 29.7779 41 32.8159 41 36C41 39.4477 38.4477 41 37 41H30H23C21.5523 41 19 39.4477 19 36C19 32.8159 20.6032 29.7779 22.3051 27.4682C23.1464 26.3264 23.9894 25.3929 24.6216 24.7456C24.9372 24.4225 25.1989 24.1722 25.3797 24.0043C25.3812 24.0028 25.3827 24.0014 25.3843 24Z" stroke="#4261CC" stroke-width="2"/>
</svg>
