<svg width="37" height="37" viewBox="0 0 37 37" fill="none" xmlns="http://www.w3.org/2000/svg">
<rect x="0.245605" y="0.5" width="36" height="36" rx="16" fill="#F6F7FC"/>
<path d="M18.2456 8.5C12.7316 8.5 8.24561 12.986 8.24561 18.5C8.24561 24.014 12.7316 28.5 18.2456 28.5C23.7596 28.5 28.2456 24.014 28.2456 18.5C28.2456 12.986 23.7596 8.5 18.2456 8.5ZM18.2456 26.5C13.8346 26.5 10.2456 22.911 10.2456 18.5C10.2456 14.089 13.8346 10.5 18.2456 10.5C22.6566 10.5 26.2456 14.089 26.2456 18.5C26.2456 22.911 22.6566 26.5 18.2456 26.5Z" fill="#707FDA"/>
<path d="M19.2456 13.5H17.2456V18.914L20.5386 22.207L21.9526 20.793L19.2456 18.086V13.5Z" fill="#707FDA"/>
</svg>
