<svg width="60" height="60" viewBox="0 0 60 60" fill="none" xmlns="http://www.w3.org/2000/svg">
<rect width="60" height="60" rx="30" fill="#4261CC" fill-opacity="0.05"/>
<mask id="path-2-outside-1" maskUnits="userSpaceOnUse" x="15.5" y="15.5" width="29" height="29" fill="black">
<rect fill="white" x="15.5" y="15.5" width="29" height="29"/>
<path fill-rule="evenodd" clip-rule="evenodd" d="M30 42.5C23.1 42.5 17.5 36.9125 17.5 30C17.5 23.1 23.1 17.5 30 17.5C36.9125 17.5 42.5 23.1 42.5 30C42.5 36.9125 36.9125 42.5 30 42.5ZM33.9875 34.6375C34.1375 34.725 34.3 34.775 34.475 34.775C34.7875 34.775 35.1 34.6125 35.275 34.3125C35.5375 33.875 35.4 33.3 34.95 33.025L30.5 30.375V24.6C30.5 24.075 30.075 23.6625 29.5625 23.6625C29.05 23.6625 28.625 24.075 28.625 24.6V30.9125C28.625 31.2375 28.8 31.5375 29.0875 31.7125L33.9875 34.6375Z"/>
</mask>
<path d="M33.9875 34.6375L32.9624 36.3548L32.971 36.36L32.9798 36.3651L33.9875 34.6375ZM35.275 34.3125L33.56 33.2835L33.5537 33.2941L33.5474 33.3048L35.275 34.3125ZM34.95 33.025L35.9929 31.3184L35.9831 31.3125L35.9733 31.3066L34.95 33.025ZM30.5 30.375H28.5V31.5118L29.4767 32.0934L30.5 30.375ZM29.0875 31.7125L28.0476 33.4209L28.055 33.4254L28.0624 33.4298L29.0875 31.7125ZM15.5 30C15.5 38.0184 21.9967 44.5 30 44.5V40.5C24.2033 40.5 19.5 35.8066 19.5 30H15.5ZM30 15.5C21.9954 15.5 15.5 21.9954 15.5 30H19.5C19.5 24.2046 24.2046 19.5 30 19.5V15.5ZM44.5 30C44.5 21.9967 38.0184 15.5 30 15.5V19.5C35.8066 19.5 40.5 24.2033 40.5 30H44.5ZM30 44.5C38.0171 44.5 44.5 38.0171 44.5 30H40.5C40.5 35.8079 35.8079 40.5 30 40.5V44.5ZM34.475 32.775C34.6991 32.775 34.8807 32.8431 34.9952 32.9099L32.9798 36.3651C33.3943 36.6069 33.9009 36.775 34.475 36.775V32.775ZM33.5474 33.3048C33.7455 32.9653 34.1056 32.775 34.475 32.775V36.775C35.4694 36.775 36.4545 36.2597 37.0026 35.3202L33.5474 33.3048ZM33.9071 34.7316C33.428 34.4388 33.2527 33.7957 33.56 33.2835L36.99 35.3415C37.8223 33.9543 37.372 32.1612 35.9929 31.3184L33.9071 34.7316ZM29.4767 32.0934L33.9267 34.7434L35.9733 31.3066L31.5233 28.6566L29.4767 32.0934ZM28.5 24.6V30.375H32.5V24.6H28.5ZM29.5625 25.6625C28.9878 25.6625 28.5 25.1969 28.5 24.6H32.5C32.5 22.9531 31.1622 21.6625 29.5625 21.6625V25.6625ZM30.625 24.6C30.625 25.1969 30.1372 25.6625 29.5625 25.6625V21.6625C27.9628 21.6625 26.625 22.9531 26.625 24.6H30.625ZM30.625 30.9125V24.6H26.625V30.9125H30.625ZM30.1274 30.0041C30.4011 30.1707 30.625 30.4995 30.625 30.9125H26.625C26.625 31.9755 27.1989 32.9043 28.0476 33.4209L30.1274 30.0041ZM35.0126 32.9202L30.1126 29.9952L28.0624 33.4298L32.9624 36.3548L35.0126 32.9202Z" fill="#4261CC" mask="url(#path-2-outside-1)"/>
</svg>
