<svg width="37" height="37" viewBox="0 0 37 37" fill="none" xmlns="http://www.w3.org/2000/svg">
<rect x="0.245544" y="0.5" width="36" height="36" rx="16" fill="#F6F7FC"/>
<path d="M18.2455 8.5C12.7315 8.5 8.24554 12.986 8.24554 18.5C8.24554 24.014 12.7315 28.5 18.2455 28.5C23.7595 28.5 28.2455 24.014 28.2455 18.5C28.2455 12.986 23.7595 8.5 18.2455 8.5ZM18.2455 26.5C13.8345 26.5 10.2455 22.911 10.2455 18.5C10.2455 14.089 13.8345 10.5 18.2455 10.5C22.6565 10.5 26.2455 14.089 26.2455 18.5C26.2455 22.911 22.6565 26.5 18.2455 26.5Z" fill="#6A9586"/>
<path d="M19.2455 13.5H17.2455V18.914L20.5385 22.207L21.9525 20.793L19.2455 18.086V13.5Z" fill="#6A9586"/>
</svg>
