<svg width="25" height="24" viewBox="0 0 25 24" fill="none" xmlns="http://www.w3.org/2000/svg">
<path d="M21.9417 6.75C21.7568 5.65039 20.8759 4.84961 19.8536 4.59961C18.3238 4.25 15.4926 4 12.4293 4C9.36786 4 6.4913 4.25 4.95967 4.59961C3.93919 4.84961 3.05646 5.59961 2.87158 6.75C2.68488 8 2.5 9.75 2.5 12C2.5 14.25 2.68488 16 2.91689 17.25C3.10359 18.3496 3.9845 19.1504 5.00499 19.4004C6.62906 19.75 9.41318 20 12.4764 20C15.5397 20 18.3238 19.75 19.9479 19.4004C20.9684 19.1504 21.8493 18.4004 22.036 17.25C22.2209 16 22.4529 14.1992 22.5 12C22.4057 9.75 22.1737 8 21.9417 6.75ZM9.92432 15.5V8.5L15.585 12L9.92432 15.5Z" fill="#FF5959"/>
</svg>
