<svg width="17" height="16" viewBox="0 0 17 16" fill="none" xmlns="http://www.w3.org/2000/svg">
<g clip-path="url(#clip0_14465_69927)">
<path d="M8.51751 1.33203C8.29885 1.33203 8.094 1.43979 7.96934 1.61979L4.9446 5.9987H1.83392C1.62525 5.9987 1.42934 6.09572 1.30267 6.26172C1.17734 6.42705 1.13472 6.64178 1.18939 6.84245L2.89642 13.0195C3.05575 13.5955 3.58424 13.9987 4.18158 13.9987H10.7675L9.89121 10.5404C9.74721 9.9737 9.86982 9.38511 10.2271 8.92578C10.5825 8.46845 11.1388 8.19661 11.7141 8.19661C12.0348 8.19661 12.3533 8.28014 12.636 8.4388L15.0006 9.76823L15.8079 6.84375C15.8632 6.64308 15.8212 6.42705 15.6959 6.26172C15.5692 6.09572 15.3726 5.9987 15.1646 5.9987H12.0592L9.06829 1.6224C8.94429 1.44106 8.73945 1.3327 8.52012 1.33203H8.51751ZM8.51491 3.17578L10.4433 5.9987H6.56439L8.51491 3.17578ZM11.6646 9.53125C11.3534 9.56091 11.0957 9.86224 11.1842 10.2122L12.3808 14.9362C12.4808 15.3302 13.0109 15.4009 13.2102 15.0469L13.8535 13.9062L15.291 15.7487C15.5143 16.0414 15.9332 16.097 16.2258 15.8737C16.5185 15.6504 16.5742 15.2315 16.3508 14.9388L14.9368 13.1276L16.1321 12.8255C16.5261 12.7262 16.5974 12.1955 16.2428 11.9948L11.9824 9.60026C11.8775 9.54143 11.7684 9.52137 11.6646 9.53125Z" fill="#9397B2"/>
</g>
<defs>
<clipPath id="clip0_14465_69927">
<rect width="16" height="16" fill="white" transform="translate(0.5)"/>
</clipPath>
</defs>
</svg>
