<svg width="33" height="33" viewBox="0 0 33 33" fill="none" xmlns="http://www.w3.org/2000/svg">
<rect x="0.245544" y="0.5" width="32" height="32" rx="16" fill="#F6F7FC"/>
<g clip-path="url(#clip0)">
<path d="M16.5995 19.354C16.5531 19.4006 16.4979 19.4375 16.4372 19.4627C16.3764 19.4879 16.3113 19.5009 16.2455 19.5009C16.1798 19.5009 16.1147 19.4879 16.0539 19.4627C15.9932 19.4375 15.938 19.4006 15.8915 19.354L15.7501 19.4954L15.7499 19.4952L12.2501 15.9954C12.1851 15.9304 12.1335 15.8531 12.0982 15.7681C12.063 15.6831 12.0449 15.592 12.0449 15.5C12.0449 15.408 12.063 15.3169 12.0982 15.2319C12.1335 15.1469 12.1851 15.0696 12.2501 15.0046C12.3152 14.9395 12.3924 14.8879 12.4774 14.8527C12.5624 14.8175 12.6535 14.7994 12.7455 14.7994C12.8376 14.7994 12.9287 14.8175 13.0137 14.8527C13.0987 14.8879 13.1759 14.9395 13.241 15.0046L13.241 15.0046L15.5455 17.31V10.5C15.5455 9.91652 15.7773 9.35695 16.1899 8.94437C16.6025 8.53179 17.1621 8.3 17.7455 8.3H22.2455C22.829 8.3 23.3886 8.53179 23.8012 8.94437C24.2138 9.35695 24.4455 9.91652 24.4455 10.5V22.5C24.4455 23.0835 24.2138 23.6431 23.8012 24.0556C23.3886 24.4682 22.829 24.7 22.2455 24.7H10.2455C9.66207 24.7 9.10249 24.4682 8.68991 24.0556C8.27733 23.6431 8.04554 23.0835 8.04554 22.5V10.5C8.04554 9.91652 8.27733 9.35695 8.68991 8.94437C9.10249 8.53179 9.66207 8.3 10.2455 8.3H12.7455C12.9312 8.3 13.1092 8.37375 13.2405 8.50503C13.3718 8.6363 13.4455 8.81435 13.4455 9C13.4455 9.18565 13.3718 9.3637 13.2405 9.49497C13.1092 9.62625 12.9312 9.7 12.7455 9.7H10.2455C10.0334 9.7 9.82989 9.78429 9.67986 9.93431C9.52983 10.0843 9.44554 10.2878 9.44554 10.5V22.5C9.44554 22.7122 9.52983 22.9157 9.67986 23.0657C9.82989 23.2157 10.0334 23.3 10.2455 23.3H22.2455C22.4577 23.3 22.6612 23.2157 22.8112 23.0657C22.9613 22.9157 23.0455 22.7122 23.0455 22.5V10.5C23.0455 10.2878 22.9613 10.0843 22.8112 9.93431C22.6612 9.78429 22.4577 9.7 22.2455 9.7H17.7455C17.5334 9.7 17.3299 9.78429 17.1799 9.93431C17.0298 10.0843 16.9455 10.2878 16.9455 10.5V17.31L19.2501 15.0046L19.2501 15.0046C19.3815 14.8732 19.5597 14.7994 19.7455 14.7994C19.9314 14.7994 20.1096 14.8732 20.241 15.0046C20.3724 15.136 20.4462 15.3142 20.4462 15.5C20.4462 15.6858 20.3724 15.864 20.241 15.9954L16.7411 19.4952L16.741 19.4954L16.5995 19.354ZM16.5995 19.354L20.0995 15.854C20.1934 15.7601 20.2462 15.6328 20.2462 15.5C20.2462 15.3672 20.1934 15.2399 20.0995 15.146C20.0057 15.0521 19.8783 14.9994 19.7455 14.9994C19.6128 14.9994 19.4854 15.0521 19.3915 15.146L16.5995 19.354Z" fill="#6A9586" stroke="#6A9586" stroke-width="0.4"/>
</g>
<defs>
<clipPath id="clip0">
<rect width="16" height="16" fill="white" transform="translate(8.24554 8.5)"/>
</clipPath>
</defs>
</svg>
