<svg width="33" height="33" viewBox="0 0 33 33" fill="none" xmlns="http://www.w3.org/2000/svg">
<rect x="0.245605" y="0.5" width="32" height="32" rx="16" fill="#F6F7FC"/>
<g clip-path="url(#clip0)">
<path d="M16.5996 19.354C16.5532 19.4006 16.498 19.4375 16.4372 19.4627C16.3765 19.4879 16.3114 19.5009 16.2456 19.5009C16.1798 19.5009 16.1147 19.4879 16.054 19.4627C15.9932 19.4375 15.9381 19.4006 15.8916 19.354L15.7502 19.4954L15.75 19.4952L12.2502 15.9954C12.1851 15.9304 12.1335 15.8531 12.0983 15.7681C12.0631 15.6831 12.045 15.592 12.045 15.5C12.045 15.408 12.0631 15.3169 12.0983 15.2319C12.1335 15.1469 12.1851 15.0696 12.2502 15.0046C12.3152 14.9395 12.3925 14.8879 12.4775 14.8527C12.5625 14.8175 12.6536 14.7994 12.7456 14.7994C12.8376 14.7994 12.9287 14.8175 13.0137 14.8527C13.0987 14.8879 13.176 14.9395 13.241 15.0046L13.2411 15.0046L15.5456 17.31V10.5C15.5456 9.91652 15.7774 9.35695 16.19 8.94437C16.6026 8.53179 17.1621 8.3 17.7456 8.3H22.2456C22.8291 8.3 23.3887 8.53179 23.8012 8.94437C24.2138 9.35695 24.4456 9.91652 24.4456 10.5V22.5C24.4456 23.0835 24.2138 23.6431 23.8012 24.0556C23.3887 24.4682 22.8291 24.7 22.2456 24.7H10.2456C9.66213 24.7 9.10255 24.4682 8.68997 24.0556C8.27739 23.6431 8.04561 23.0835 8.04561 22.5V10.5C8.04561 9.91652 8.27739 9.35695 8.68997 8.94437C9.10255 8.53179 9.66213 8.3 10.2456 8.3H12.7456C12.9313 8.3 13.1093 8.37375 13.2406 8.50503C13.3719 8.6363 13.4456 8.81435 13.4456 9C13.4456 9.18565 13.3719 9.3637 13.2406 9.49497C13.1093 9.62625 12.9313 9.7 12.7456 9.7H10.2456C10.0334 9.7 9.82995 9.78429 9.67992 9.93431C9.52989 10.0843 9.44561 10.2878 9.44561 10.5V22.5C9.44561 22.7122 9.52989 22.9157 9.67992 23.0657C9.82995 23.2157 10.0334 23.3 10.2456 23.3H22.2456C22.4578 23.3 22.6613 23.2157 22.8113 23.0657C22.9613 22.9157 23.0456 22.7122 23.0456 22.5V10.5C23.0456 10.2878 22.9613 10.0843 22.8113 9.93431C22.6613 9.78429 22.4578 9.7 22.2456 9.7H17.7456C17.5334 9.7 17.3299 9.78429 17.1799 9.93431C17.0299 10.0843 16.9456 10.2878 16.9456 10.5V17.31L19.2502 15.0046L19.2502 15.0046C19.3816 14.8732 19.5598 14.7994 19.7456 14.7994C19.9314 14.7994 20.1096 14.8732 20.241 15.0046C20.3724 15.136 20.4462 15.3142 20.4462 15.5C20.4462 15.6858 20.3724 15.864 20.241 15.9954L16.7412 19.4952L16.741 19.4954L16.5996 19.354ZM16.5996 19.354L20.0996 15.854C20.1935 15.7601 20.2462 15.6328 20.2462 15.5C20.2462 15.3672 20.1935 15.2399 20.0996 15.146C20.0057 15.0521 19.8784 14.9994 19.7456 14.9994C19.6128 14.9994 19.4855 15.0521 19.3916 15.146L16.5996 19.354Z" fill="#707FDA" stroke="#707FDA" stroke-width="0.4"/>
</g>
<defs>
<clipPath id="clip0">
<rect width="16" height="16" fill="white" transform="translate(8.24561 8.5)"/>
</clipPath>
</defs>
</svg>
