<svg width="33" height="32" viewBox="0 0 33 32" fill="none" xmlns="http://www.w3.org/2000/svg">
<path d="M17.8327 2.66797C17.2047 2.66797 16.6802 3.14807 16.6296 3.77474L16.6087 4.02734C16.6051 4.07131 16.6233 4.10928 16.6243 4.15234C15.5795 4.39532 14.6588 4.94228 13.9499 5.69922C13.9126 5.6765 13.8888 5.64009 13.8483 5.62109L13.6217 5.51432C13.0537 5.24632 12.3739 5.4573 12.0592 6.0013C11.7446 6.5453 11.9 7.23772 12.416 7.59505L12.6243 7.74089C12.6643 7.76854 12.7102 7.77336 12.752 7.79557C12.6033 8.28585 12.4993 8.79585 12.4993 9.33463C12.4993 9.87342 12.6033 10.3834 12.752 10.8737C12.7102 10.8959 12.6643 10.9007 12.6243 10.9284L12.416 11.0716C11.9 11.4303 11.7446 12.124 12.0592 12.668C12.3739 13.212 13.0537 13.4229 13.6217 13.1549L13.8483 13.0482C13.8886 13.0291 13.9127 12.9928 13.9499 12.9701C14.6582 13.7264 15.5779 14.2737 16.6217 14.5169C16.6207 14.56 16.6025 14.598 16.6061 14.6419L16.6296 14.8945C16.6816 15.5212 17.2047 16.0013 17.8327 16.0013C18.4607 16.0013 18.9851 15.5212 19.0358 14.8945L19.0566 14.6419C19.0603 14.598 19.042 14.56 19.041 14.5169C20.0859 14.274 21.0066 13.727 21.7155 12.9701C21.7527 12.9928 21.7766 13.0291 21.8171 13.0482L22.0436 13.1576C22.6116 13.4256 23.2915 13.2146 23.6061 12.6706C23.9208 12.1266 23.7653 11.4329 23.2493 11.0742L23.041 10.9284C23.0011 10.9007 22.9552 10.8959 22.9134 10.8737C23.062 10.3834 23.166 9.87342 23.166 9.33463C23.166 8.79585 23.062 8.28585 22.9134 7.79557C22.9552 7.77337 23.0011 7.76854 23.041 7.74089L23.2493 7.59766C23.7653 7.23899 23.9208 6.5453 23.6061 6.0013C23.2915 5.4573 22.6116 5.24632 22.0436 5.51432L21.8171 5.62109C21.7767 5.64012 21.7526 5.67652 21.7155 5.69922C21.0072 4.94287 20.0875 4.39561 19.0436 4.15234C19.0447 4.10928 19.0628 4.07131 19.0592 4.02734L19.0358 3.77474C18.9838 3.14807 18.4607 2.66797 17.8327 2.66797ZM17.8327 7.33464C18.9367 7.33464 19.8327 8.23064 19.8327 9.33463C19.8327 10.4386 18.9367 11.3346 17.8327 11.3346C16.7287 11.3346 15.8327 10.4386 15.8327 9.33463C15.8327 8.23064 16.7287 7.33464 17.8327 7.33464ZM27.9473 16.0013C27.4646 16.0013 26.9819 16.1854 26.6139 16.5534L20.4993 22.668H15.166C14.798 22.668 14.4993 22.3693 14.4993 22.0013C14.4993 21.6333 14.798 21.3346 15.166 21.3346H17.8327C19.306 21.3346 20.4993 20.1413 20.4993 18.668V17.3346H12.041C10.6263 17.3346 9.27018 17.8958 8.27018 18.8971L3.16602 24.0013L8.49935 29.3346L11.166 26.668H20.7285C21.4352 26.668 22.1139 26.3867 22.6139 25.8867L29.2806 19.22C30.0166 18.484 30.0166 17.2894 29.2806 16.5534C28.9126 16.1854 28.4299 16.0013 27.9473 16.0013Z" fill="#6A9586"/>
</svg>
