<svg width="33" height="33" viewBox="0 0 33 33" fill="none" xmlns="http://www.w3.org/2000/svg">
<rect x="0.245605" y="0.5" width="32" height="32" rx="16" fill="#F6F7FC"/>
<g clip-path="url(#clip0)">
<path d="M11.7664 10.0996C11.279 10.0996 10.9123 10.6329 10.9123 10.6329C8.12027 10.6329 9.66066 15.0894 8.8404 15.7465C8.8404 15.7465 9.34321 16.3684 10.9123 16.3684V16.9007C10.4787 18.0303 8.24561 17.6127 8.24561 19.6996H12.5248C12.9002 19.4724 14.1123 18.8423 14.1123 18.8423C13.8227 18.533 13.4049 17.9982 13.2529 17.5934C12.9201 17.4264 12.6387 17.2303 12.5123 16.9007V16.3621C12.6136 16.3621 12.9124 16.3387 13.0175 16.3152C12.7796 15.9488 12.5789 15.1137 12.5789 14.6454C12.5789 13.4545 13.0918 12.4749 13.9425 11.8611C13.6859 10.8792 13.1163 10.0996 11.7664 10.0996ZM20.5123 10.0996C19.3267 10.0996 18.5987 10.9152 18.4227 11.984C19.2846 12.4459 19.8456 13.4416 19.8456 14.6954C19.8456 15.0874 19.7542 15.4646 19.655 15.7569C19.6918 15.9014 19.7123 16.0626 19.7123 16.2413C19.7123 17.5586 18.3789 18.8725 18.3789 18.8725C18.6685 18.9989 19.5951 19.4697 19.9737 19.6996H24.2456C24.2456 16.8996 21.972 17.6996 21.5789 16.4996V15.6996C21.756 15.6105 22.1777 14.9973 22.231 14.5184C22.3697 14.5077 22.6456 14.1687 22.6456 13.8652C22.6456 13.5618 22.5491 13.4341 22.4654 13.385C22.4654 13.385 22.6456 12.9844 22.6456 12.4996C22.6456 11.5284 22.3832 10.6329 21.5789 10.6329C21.5789 10.6329 21.348 10.0996 20.5123 10.0996ZM16.2456 12.2329C14.8099 12.2329 13.6456 13.0977 13.6456 14.6454C13.6456 15.2998 14.0123 15.81 14.0123 15.81C14.0123 15.81 13.8456 15.8919 13.8456 16.2413C13.8456 16.9202 14.2821 17.0829 14.2821 17.0829C14.3429 17.6205 15.1789 18.4079 15.1789 18.4079V19.3069C14.7299 20.6541 11.9789 19.7663 11.9789 22.8996H20.5123C20.5123 19.7556 17.7613 20.6541 17.3123 19.3069V18.4079C17.3123 18.4079 18.1483 17.6205 18.2091 17.0829C18.2091 17.0829 18.6456 16.7815 18.6456 16.2413C18.6456 15.8669 18.4789 15.81 18.4789 15.81C18.4789 15.81 18.7789 15.2394 18.7789 14.6954C18.7789 13.6048 18.2317 12.7663 17.3123 12.7663C17.3123 12.7663 16.9219 12.2329 16.2456 12.2329Z" fill="#6A9586"/>
</g>
<defs>
<clipPath id="clip0">
<rect width="16" height="16" fill="white" transform="translate(8.24561 8.5)"/>
</clipPath>
</defs>
</svg>
