<svg width="32" height="32" viewBox="0 0 32 32" fill="none" xmlns="http://www.w3.org/2000/svg">
<path fill-rule="evenodd" clip-rule="evenodd" d="M26.6673 3.31484V28.001C26.6673 28.7373 26.0704 29.3343 25.334 29.3343H6.66732C5.93094 29.3343 5.33398 28.7373 5.33398 28.001V3.31484C5.33398 3.01749 5.64691 2.82409 5.91287 2.95707L10.4884 5.24485C10.601 5.30116 10.7336 5.30116 10.8462 5.24485L15.8218 2.75707C15.9344 2.70077 16.0669 2.70077 16.1795 2.75707L21.1551 5.24485C21.2677 5.30116 21.4003 5.30116 21.5129 5.24485L26.0884 2.95707C26.3544 2.82409 26.6673 3.01749 26.6673 3.31484ZM9.33398 10.6676C9.33398 9.93125 9.93094 9.3343 10.6673 9.3343H21.334C22.0704 9.3343 22.6673 9.93125 22.6673 10.6676C22.6673 11.404 22.0704 12.001 21.334 12.001H10.6673C9.93094 12.001 9.33398 11.404 9.33398 10.6676ZM9.33398 17.3343C9.33398 16.5979 9.93094 16.001 10.6673 16.001H21.334C22.0704 16.001 22.6673 16.5979 22.6673 17.3343C22.6673 18.0707 22.0704 18.6676 21.334 18.6676H10.6673C9.93094 18.6676 9.33398 18.0707 9.33398 17.3343ZM9.33398 24.001C9.33398 23.2646 9.93094 22.6676 10.6673 22.6676H17.334C18.0704 22.6676 18.6673 23.2646 18.6673 24.001C18.6673 24.7373 18.0704 25.3343 17.334 25.3343H10.6673C9.93094 25.3343 9.33398 24.7373 9.33398 24.001Z" fill="#6A9586"/>
</svg>
