<svg width="33" height="33" viewBox="0 0 33 33" fill="none" xmlns="http://www.w3.org/2000/svg">
<rect x="0.245605" y="0.5" width="32" height="32" rx="16" fill="#F6F7FC"/>
<path d="M22.6131 13.1409C22.4856 12.4371 21.8781 11.9246 21.1731 11.7646C20.1181 11.5409 18.1656 11.3809 16.0531 11.3809C13.9418 11.3809 11.9581 11.5409 10.9018 11.7646C10.1981 11.9246 9.58932 12.4046 9.46182 13.1409C9.33307 13.9409 9.20557 15.0609 9.20557 16.5009C9.20557 17.9409 9.33307 19.0609 9.49307 19.8609C9.62182 20.5646 10.2293 21.0771 10.9331 21.2371C12.0531 21.4609 13.9731 21.6209 16.0856 21.6209C18.1981 21.6209 20.1181 21.4609 21.2381 21.2371C21.9418 21.0771 22.5493 20.5971 22.6781 19.8609C22.8056 19.0609 22.9656 17.9084 22.9981 16.5009C22.9331 15.0609 22.7731 13.9409 22.6131 13.1409ZM14.3256 18.7409V14.2609L18.2293 16.5009L14.3256 18.7409Z" fill="#6A9586"/>
</svg>
