<svg width="17" height="16" viewBox="0 0 17 16" fill="none" xmlns="http://www.w3.org/2000/svg">
<path d="M8.50065 3.33203C3.65217 3.33203 1.83398 7.9987 1.83398 7.9987C1.83398 7.9987 3.65217 12.6654 8.50065 12.6654C13.3491 12.6654 15.1673 7.9987 15.1673 7.9987C15.1673 7.9987 13.3491 3.33203 8.50065 3.33203ZM8.50065 5.08203C10.174 5.08203 11.531 6.38811 11.531 7.9987C11.531 9.60928 10.174 10.9154 8.50065 10.9154C6.82732 10.9154 5.47035 9.60928 5.47035 7.9987C5.47035 6.38811 6.82732 5.08203 8.50065 5.08203ZM8.50065 6.2487C8.01844 6.2487 7.55598 6.43307 7.215 6.76126C6.87403 7.08945 6.68247 7.53457 6.68247 7.9987C6.68247 8.46283 6.87403 8.90795 7.215 9.23614C7.55598 9.56432 8.01844 9.7487 8.50065 9.7487C8.98286 9.7487 9.44532 9.56432 9.7863 9.23614C10.1273 8.90795 10.3188 8.46283 10.3188 7.9987C10.3188 7.53457 10.1273 7.08945 9.7863 6.76126C9.44532 6.43307 8.98286 6.2487 8.50065 6.2487Z" fill="#9397B2"/>
</svg>
