<svg width="43" height="43" viewBox="0 0 43 43" fill="none" xmlns="http://www.w3.org/2000/svg">
<rect x="0.55957" y="0.522461" width="42" height="42" rx="21" fill="white"/>
<path d="M21.8555 13.5225C13.8555 13.5225 10.8555 21.0225 10.8555 21.0225C10.8555 21.0225 13.8555 28.5225 21.8555 28.5225C29.8555 28.5225 32.8555 21.0225 32.8555 21.0225C32.8555 21.0225 29.8555 13.5225 21.8555 13.5225ZM21.8555 16.335C24.6165 16.335 26.8555 18.434 26.8555 21.0225C26.8555 23.6109 24.6165 25.71 21.8555 25.71C19.0945 25.71 16.8555 23.6109 16.8555 21.0225C16.8555 18.434 19.0945 16.335 21.8555 16.335ZM21.8555 18.21C21.0598 18.21 20.2968 18.5063 19.7341 19.0337C19.1715 19.5612 18.8555 20.2765 18.8555 21.0225C18.8555 21.7684 19.1715 22.4838 19.7341 23.0112C20.2968 23.5386 21.0598 23.835 21.8555 23.835C22.6511 23.835 23.4142 23.5386 23.9768 23.0112C24.5394 22.4838 24.8555 21.7684 24.8555 21.0225C24.8555 20.2765 24.5394 19.5612 23.9768 19.0337C23.4142 18.5063 22.6511 18.21 21.8555 18.21Z" fill="#6A9586"/>
</svg>
