<svg width="42" height="43" viewBox="0 0 42 43" fill="none" xmlns="http://www.w3.org/2000/svg">
<rect y="0.515625" width="42" height="42" rx="21" fill="white"/>
<path d="M21.2949 13.5156C13.2949 13.5156 10.2949 21.0156 10.2949 21.0156C10.2949 21.0156 13.2949 28.5156 21.2949 28.5156C29.2949 28.5156 32.2949 21.0156 32.2949 21.0156C32.2949 21.0156 29.2949 13.5156 21.2949 13.5156ZM21.2949 16.3281C24.0559 16.3281 26.2949 18.4272 26.2949 21.0156C26.2949 23.6041 24.0559 25.7031 21.2949 25.7031C18.5339 25.7031 16.2949 23.6041 16.2949 21.0156C16.2949 18.4272 18.5339 16.3281 21.2949 16.3281ZM21.2949 18.2031C20.4993 18.2031 19.7362 18.4994 19.1736 19.0269C18.611 19.5543 18.2949 20.2697 18.2949 21.0156C18.2949 21.7615 18.611 22.4769 19.1736 23.0044C19.7362 23.5318 20.4993 23.8281 21.2949 23.8281C22.0906 23.8281 22.8536 23.5318 23.4162 23.0044C23.9789 22.4769 24.2949 21.7615 24.2949 21.0156C24.2949 20.2697 23.9789 19.5543 23.4162 19.0269C22.8536 18.4994 22.0906 18.2031 21.2949 18.2031Z" fill="#707FDA"/>
</svg>
