<svg width="34" height="33" viewBox="0 0 34 33" fill="none" xmlns="http://www.w3.org/2000/svg">
<rect x="0.245605" width="33" height="33" rx="16" fill="#F6F7FC"/>
<path d="M15.4872 10.1331H15.9322L16.23 9.80249C16.3659 9.65173 16.5481 9.56641 16.7456 9.56641C16.943 9.56641 17.1252 9.65173 17.2611 9.80249L17.559 10.1331H18.004H18.9655L18.8713 10.3997H14.6198L14.5257 10.1331H15.4872ZM14.0078 13.825C14.1199 13.7103 14.2194 13.6124 14.3022 13.5331H15.1789V14.5164V14.7462C14.9268 14.8828 14.6965 15.0591 14.5005 15.2782C14.1072 15.718 13.9017 16.2773 13.9017 16.8827C13.9017 17.2708 13.9812 17.651 14.1616 17.9944H13.7493L13.7918 19.0352C13.8169 19.6479 14.0514 20.2028 14.4736 20.6288C14.6807 20.8377 14.9199 21.0028 15.1789 21.1291V21.3164V22.2997H12.7789C12.1978 22.2997 10.9456 21.6141 10.9456 19.8997C10.9456 18.2323 11.7904 16.6026 12.7339 15.3221C13.1961 14.6948 13.66 14.1812 14.0078 13.825ZM18.3122 14.5164V13.5331H19.1889C19.2717 13.6124 19.3712 13.7103 19.4833 13.825C19.8311 14.1812 20.295 14.6948 20.7572 15.3221C21.7007 16.6026 22.5456 18.2323 22.5456 19.8997C22.5456 21.6141 21.2933 22.2997 20.7122 22.2997H18.3122V21.3164V21.1255C18.5919 20.9885 18.8483 20.8058 19.0657 20.5708C19.4915 20.1106 19.7001 19.5222 19.7001 18.8904C19.7001 18.5246 19.6322 18.1611 19.4664 17.8285H19.6498L19.6132 16.7931C19.5796 15.8456 19.0426 15.1425 18.3122 14.7466V14.5164Z" stroke="#6A9586" stroke-width="2"/>
</svg>
