<svg width="24" height="24" viewBox="0 0 24 24" fill="none" xmlns="http://www.w3.org/2000/svg">
<path d="M16 6.99993L16 17.3989C16 19.0689 14.871 20.5889 13.235 20.9239C10.986 21.3849 9 19.6699 9 17.4999V5.11293C9 4.11693 9.678 3.19093 10.661 3.02793C11.913 2.82093 13 3.78593 13 4.99993V15.4999C13 15.7759 12.775 15.9999 12.5 15.9999C12.225 15.9999 12 15.7759 12 15.4999V6.99993C12 6.44793 11.552 5.99993 11 5.99993C10.448 5.99993 10 6.44793 10 6.99993V15.3529C10 16.6609 10.939 17.8549 12.24 17.9869C13.735 18.1389 15 16.9639 15 15.4999V5.17793C15 3.08993 13.477 1.22193 11.399 1.01993C9.014 0.787931 7 2.66293 7 4.99993L7 17.2549C7 20.1259 9.093 22.6939 11.949 22.9729C15.228 23.2939 18 20.7139 18 17.4999V6.99993C18 6.44793 17.552 5.99993 17 5.99993C16.448 5.99993 16 6.44793 16 6.99993Z" fill="#757575"/>
</svg>
