<svg width="62" height="17" viewBox="0 0 62 17" fill="none" xmlns="http://www.w3.org/2000/svg">
<circle cx="8.5" cy="8.5" r="8.5" fill="#4CAF50"/>
<circle cx="4.5" cy="8.5" r="1.5" fill="white"/>
<circle cx="8.5" cy="8.5" r="1.5" fill="white"/>
<circle cx="12.5" cy="8.5" r="1.5" fill="white"/>
<path d="M28.583 10.6826H24.7275L23.9209 13H22.123L25.8828 3.04688H27.4346L31.2012 13H29.3965L28.583 10.6826ZM25.2129 9.28809H28.0977L26.6553 5.15918L25.2129 9.28809ZM35.2139 11.8105C35.6286 11.8105 35.9727 11.6898 36.2461 11.4482C36.5195 11.2067 36.6654 10.9082 36.6836 10.5527H38.249C38.2308 11.013 38.0872 11.4437 37.8184 11.8447C37.5495 12.2412 37.1849 12.5557 36.7246 12.7881C36.2643 13.0205 35.7676 13.1367 35.2344 13.1367C34.1999 13.1367 33.3796 12.8018 32.7734 12.1318C32.1673 11.4619 31.8643 10.5368 31.8643 9.35645V9.18555C31.8643 8.0599 32.165 7.15983 32.7666 6.48535C33.3682 5.80632 34.1885 5.4668 35.2275 5.4668C36.1071 5.4668 36.8226 5.72428 37.374 6.23926C37.93 6.74967 38.2217 7.42188 38.249 8.25586H36.6836C36.6654 7.83203 36.5195 7.4834 36.2461 7.20996C35.9772 6.93652 35.6331 6.7998 35.2139 6.7998C34.6761 6.7998 34.2614 6.99577 33.9697 7.3877C33.6781 7.77507 33.5299 8.36523 33.5254 9.1582V9.4248C33.5254 10.2269 33.6689 10.8262 33.9561 11.2227C34.2477 11.6146 34.667 11.8105 35.2139 11.8105ZM41.585 3.80566V5.60352H42.8906V6.83398H41.585V10.9629C41.585 11.2454 41.6396 11.4505 41.749 11.5781C41.863 11.7012 42.0635 11.7627 42.3506 11.7627C42.542 11.7627 42.7357 11.7399 42.9316 11.6943V12.9795C42.5534 13.0843 42.1888 13.1367 41.8379 13.1367C40.5618 13.1367 39.9238 12.4326 39.9238 11.0244V6.83398H38.707V5.60352H39.9238V3.80566H41.585ZM45.9326 13H44.2715V5.60352H45.9326V13ZM44.1689 3.68262C44.1689 3.42741 44.2487 3.21549 44.4082 3.04688C44.5723 2.87826 44.8047 2.79395 45.1055 2.79395C45.4062 2.79395 45.6387 2.87826 45.8027 3.04688C45.9668 3.21549 46.0488 3.42741 46.0488 3.68262C46.0488 3.93327 45.9668 4.1429 45.8027 4.31152C45.6387 4.47559 45.4062 4.55762 45.1055 4.55762C44.8047 4.55762 44.5723 4.47559 44.4082 4.31152C44.2487 4.1429 44.1689 3.93327 44.1689 3.68262ZM50.3555 10.8945L51.9209 5.60352H53.6367L51.0732 13H49.6309L47.0469 5.60352H48.7695L50.3555 10.8945ZM57.8408 13.1367C56.7881 13.1367 55.9336 12.8063 55.2773 12.1455C54.6257 11.4801 54.2998 10.596 54.2998 9.49316V9.28809C54.2998 8.5498 54.4411 7.89128 54.7236 7.3125C55.0107 6.72917 55.4118 6.27572 55.9268 5.95215C56.4417 5.62858 57.016 5.4668 57.6494 5.4668C58.6566 5.4668 59.4336 5.78809 59.9805 6.43066C60.5319 7.07324 60.8076 7.98242 60.8076 9.1582V9.82812H55.9746C56.0247 10.4388 56.2275 10.9219 56.583 11.2773C56.943 11.6328 57.3942 11.8105 57.9365 11.8105C58.6976 11.8105 59.3174 11.5029 59.7959 10.8877L60.6914 11.7422C60.3952 12.1842 59.9987 12.5283 59.502 12.7744C59.0098 13.016 58.4561 13.1367 57.8408 13.1367ZM57.6426 6.7998C57.1868 6.7998 56.8177 6.95931 56.5352 7.27832C56.2572 7.59733 56.0794 8.04167 56.002 8.61133H59.167V8.48828C59.1305 7.93229 58.9824 7.51302 58.7227 7.23047C58.4629 6.94336 58.1029 6.7998 57.6426 6.7998Z" fill="#4CAF50"/>
</svg>
