<svg width="26" height="26" viewBox="0 0 26 26" fill="none" xmlns="http://www.w3.org/2000/svg">
<path d="M7.29676 7.03443C7.08575 7.04057 6.88541 7.1286 6.73817 7.27987L1.3215 12.6965C1.16918 12.8489 1.08362 13.0555 1.08362 13.271C1.08362 13.4864 1.16918 13.6931 1.3215 13.8455L6.73817 19.2621C6.81303 19.3401 6.90271 19.4024 7.00194 19.4452C7.10117 19.4881 7.20796 19.5108 7.31605 19.5119C7.42414 19.513 7.53137 19.4925 7.63145 19.4516C7.73153 19.4108 7.82245 19.3504 7.89889 19.2739C7.97533 19.1975 8.03575 19.1066 8.07661 19.0065C8.11747 18.9064 8.13795 18.7992 8.13685 18.6911C8.13575 18.583 8.11309 18.4762 8.07021 18.377C8.02732 18.2777 7.96507 18.1881 7.88709 18.1132L3.85739 14.0835H24.1043C24.212 14.085 24.3189 14.0651 24.4188 14.025C24.5187 13.9848 24.6096 13.9252 24.6863 13.8496C24.763 13.774 24.8239 13.6839 24.8654 13.5846C24.907 13.4853 24.9284 13.3787 24.9284 13.271C24.9284 13.1633 24.907 13.0567 24.8654 12.9574C24.8239 12.858 24.763 12.768 24.6863 12.6924C24.6096 12.6168 24.5187 12.5572 24.4188 12.517C24.3189 12.4769 24.212 12.457 24.1043 12.4585H3.85739L7.88709 8.42879C8.00431 8.31463 8.08433 8.16775 8.11669 8.00736C8.14904 7.84697 8.13223 7.68054 8.06844 7.52987C8.00464 7.3792 7.89685 7.25129 7.75917 7.16289C7.62148 7.07449 7.46031 7.02971 7.29676 7.03443Z" fill="#8E8E93"/>
</svg>
