<svg width="135" height="17" viewBox="0 0 135 17" fill="none" xmlns="http://www.w3.org/2000/svg">
<circle cx="8.5" cy="8.5" r="8.5" fill="#707FDA"/>
<circle cx="4.5" cy="8.5" r="1.5" fill="white"/>
<circle cx="8.5" cy="8.5" r="1.5" fill="white"/>
<circle cx="12.5" cy="8.5" r="1.5" fill="white"/>
<path d="M28.583 10.6826H24.7275L23.9209 13H22.123L25.8828 3.04688H27.4346L31.2012 13H29.3965L28.583 10.6826ZM25.2129 9.28809H28.0977L26.6553 5.15918L25.2129 9.28809ZM38.4404 10.71L39.6162 5.60352H41.2363L39.2197 13H37.8525L36.2666 7.9209L34.708 13H33.3408L31.3174 5.60352H32.9375L34.1338 10.6553L35.6514 5.60352H36.9023L38.4404 10.71ZM46.7666 13C46.6937 12.8587 46.6299 12.6286 46.5752 12.3096C46.0465 12.861 45.3994 13.1367 44.6338 13.1367C43.891 13.1367 43.2848 12.9248 42.8154 12.501C42.346 12.0771 42.1113 11.5531 42.1113 10.9287C42.1113 10.1403 42.403 9.53646 42.9863 9.11719C43.5742 8.69336 44.4128 8.48145 45.502 8.48145H46.5205V7.99609C46.5205 7.61328 46.4134 7.30794 46.1992 7.08008C45.985 6.84766 45.6592 6.73145 45.2217 6.73145C44.8434 6.73145 44.5335 6.82715 44.292 7.01855C44.0505 7.2054 43.9297 7.44466 43.9297 7.73633H42.2686C42.2686 7.33073 42.403 6.95247 42.6719 6.60156C42.9408 6.24609 43.3053 5.9681 43.7656 5.76758C44.2305 5.56706 44.7477 5.4668 45.3174 5.4668C46.1833 5.4668 46.8737 5.68555 47.3887 6.12305C47.9036 6.55599 48.168 7.16667 48.1816 7.95508V11.291C48.1816 11.9564 48.2751 12.4873 48.4619 12.8838V13H46.7666ZM44.9414 11.8037C45.2695 11.8037 45.5771 11.724 45.8643 11.5645C46.1559 11.4049 46.3747 11.1908 46.5205 10.9219V9.52734H45.625C45.0098 9.52734 44.5472 9.63444 44.2373 9.84863C43.9274 10.0628 43.7725 10.3659 43.7725 10.7578C43.7725 11.0768 43.8773 11.332 44.0869 11.5234C44.3011 11.7103 44.5859 11.8037 44.9414 11.8037ZM51.6885 13H50.0273V5.60352H51.6885V13ZM49.9248 3.68262C49.9248 3.42741 50.0046 3.21549 50.1641 3.04688C50.3281 2.87826 50.5605 2.79395 50.8613 2.79395C51.1621 2.79395 51.3945 2.87826 51.5586 3.04688C51.7227 3.21549 51.8047 3.42741 51.8047 3.68262C51.8047 3.93327 51.7227 4.1429 51.5586 4.31152C51.3945 4.47559 51.1621 4.55762 50.8613 4.55762C50.5605 4.55762 50.3281 4.47559 50.1641 4.31152C50.0046 4.1429 49.9248 3.93327 49.9248 3.68262ZM55.585 3.80566V5.60352H56.8906V6.83398H55.585V10.9629C55.585 11.2454 55.6396 11.4505 55.749 11.5781C55.863 11.7012 56.0635 11.7627 56.3506 11.7627C56.542 11.7627 56.7357 11.7399 56.9316 11.6943V12.9795C56.5534 13.0843 56.1888 13.1367 55.8379 13.1367C54.5618 13.1367 53.9238 12.4326 53.9238 11.0244V6.83398H52.707V5.60352H53.9238V3.80566H55.585ZM59.9326 13H58.2715V5.60352H59.9326V13ZM58.1689 3.68262C58.1689 3.42741 58.2487 3.21549 58.4082 3.04688C58.5723 2.87826 58.8047 2.79395 59.1055 2.79395C59.4062 2.79395 59.6387 2.87826 59.8027 3.04688C59.9668 3.21549 60.0488 3.42741 60.0488 3.68262C60.0488 3.93327 59.9668 4.1429 59.8027 4.31152C59.6387 4.47559 59.4062 4.55762 59.1055 4.55762C58.8047 4.55762 58.5723 4.47559 58.4082 4.31152C58.2487 4.1429 58.1689 3.93327 58.1689 3.68262ZM63.2891 5.60352L63.3369 6.45801C63.8838 5.7972 64.6016 5.4668 65.4902 5.4668C67.0306 5.4668 67.8145 6.34863 67.8418 8.1123V13H66.1807V8.20801C66.1807 7.73861 66.0781 7.39225 65.873 7.16895C65.6725 6.94108 65.3421 6.82715 64.8818 6.82715C64.2119 6.82715 63.7129 7.13021 63.3848 7.73633V13H61.7236V5.60352H63.2891ZM69.25 9.24707C69.25 8.09863 69.5189 7.18262 70.0566 6.49902C70.599 5.81087 71.3167 5.4668 72.21 5.4668C73.0531 5.4668 73.7161 5.76074 74.1992 6.34863L74.2744 5.60352H75.7715V12.7744C75.7715 13.7451 75.4684 14.5107 74.8623 15.0713C74.2607 15.6318 73.4473 15.9121 72.4219 15.9121C71.8796 15.9121 71.3486 15.7982 70.8291 15.5703C70.3141 15.347 69.9222 15.0531 69.6533 14.6885L70.4395 13.6904C70.9499 14.2965 71.5788 14.5996 72.3262 14.5996C72.8776 14.5996 73.3128 14.4492 73.6318 14.1484C73.9508 13.8522 74.1104 13.4147 74.1104 12.8359V12.3369C73.6318 12.8701 72.9938 13.1367 72.1963 13.1367C71.3304 13.1367 70.6217 12.7926 70.0703 12.1045C69.5234 11.4163 69.25 10.4639 69.25 9.24707ZM70.9043 9.39062C70.9043 10.1335 71.0547 10.7191 71.3555 11.1475C71.6608 11.5713 72.0824 11.7832 72.6201 11.7832C73.29 11.7832 73.7868 11.4961 74.1104 10.9219V7.66797C73.7959 7.10742 73.3037 6.82715 72.6338 6.82715C72.0869 6.82715 71.6608 7.04362 71.3555 7.47656C71.0547 7.90951 70.9043 8.54753 70.9043 9.39062ZM87.4473 9.37695C87.4473 10.5208 87.1875 11.4346 86.668 12.1182C86.1484 12.7972 85.4512 13.1367 84.5762 13.1367C83.765 13.1367 83.1156 12.8701 82.6279 12.3369V15.8438H80.9668V5.60352H82.498L82.5664 6.35547C83.054 5.76302 83.7171 5.4668 84.5557 5.4668C85.458 5.4668 86.1644 5.80404 86.6748 6.47852C87.1898 7.14844 87.4473 8.0804 87.4473 9.27441V9.37695ZM85.793 9.2334C85.793 8.49512 85.6449 7.90951 85.3486 7.47656C85.057 7.04362 84.6377 6.82715 84.0908 6.82715C83.4118 6.82715 82.9242 7.10742 82.6279 7.66797V10.9492C82.9287 11.5234 83.4209 11.8105 84.1045 11.8105C84.6331 11.8105 85.0456 11.5986 85.3418 11.1748C85.6426 10.7464 85.793 10.0993 85.793 9.2334ZM93.2783 13C93.2054 12.8587 93.1416 12.6286 93.0869 12.3096C92.5583 12.861 91.9111 13.1367 91.1455 13.1367C90.4027 13.1367 89.7965 12.9248 89.3271 12.501C88.8577 12.0771 88.623 11.5531 88.623 10.9287C88.623 10.1403 88.9147 9.53646 89.498 9.11719C90.0859 8.69336 90.9245 8.48145 92.0137 8.48145H93.0322V7.99609C93.0322 7.61328 92.9251 7.30794 92.7109 7.08008C92.4967 6.84766 92.1709 6.73145 91.7334 6.73145C91.3551 6.73145 91.0452 6.82715 90.8037 7.01855C90.5622 7.2054 90.4414 7.44466 90.4414 7.73633H88.7803C88.7803 7.33073 88.9147 6.95247 89.1836 6.60156C89.4525 6.24609 89.8171 5.9681 90.2773 5.76758C90.7422 5.56706 91.2594 5.4668 91.8291 5.4668C92.695 5.4668 93.3854 5.68555 93.9004 6.12305C94.4154 6.55599 94.6797 7.16667 94.6934 7.95508V11.291C94.6934 11.9564 94.7868 12.4873 94.9736 12.8838V13H93.2783ZM91.4531 11.8037C91.7812 11.8037 92.0889 11.724 92.376 11.5645C92.6676 11.4049 92.8864 11.1908 93.0322 10.9219V9.52734H92.1367C91.5215 9.52734 91.0589 9.63444 90.749 9.84863C90.4391 10.0628 90.2842 10.3659 90.2842 10.7578C90.2842 11.0768 90.389 11.332 90.5986 11.5234C90.8128 11.7103 91.0977 11.8037 91.4531 11.8037ZM98.9111 10.6211L100.415 5.60352H102.186L99.2461 14.1211C98.7949 15.3652 98.0293 15.9873 96.9492 15.9873C96.7077 15.9873 96.4411 15.9463 96.1494 15.8643V14.5791L96.4639 14.5996C96.8831 14.5996 97.1976 14.5221 97.4072 14.3672C97.6214 14.2168 97.79 13.9616 97.9131 13.6016L98.1523 12.9658L95.5547 5.60352H97.3457L98.9111 10.6211ZM104.708 5.60352L104.756 6.37598C105.275 5.76986 105.986 5.4668 106.889 5.4668C107.878 5.4668 108.554 5.84505 108.919 6.60156C109.457 5.84505 110.213 5.4668 111.188 5.4668C112.004 5.4668 112.61 5.69238 113.007 6.14355C113.408 6.59473 113.613 7.26009 113.622 8.13965V13H111.961V8.1875C111.961 7.7181 111.858 7.37402 111.653 7.15527C111.448 6.93652 111.109 6.82715 110.635 6.82715C110.257 6.82715 109.947 6.92969 109.705 7.13477C109.468 7.33529 109.302 7.59961 109.206 7.92773L109.213 13H107.552V8.13281C107.529 7.26237 107.085 6.82715 106.219 6.82715C105.553 6.82715 105.082 7.09831 104.804 7.64062V13H103.143V5.60352H104.708ZM118.585 13.1367C117.532 13.1367 116.678 12.8063 116.021 12.1455C115.37 11.4801 115.044 10.596 115.044 9.49316V9.28809C115.044 8.5498 115.185 7.89128 115.468 7.3125C115.755 6.72917 116.156 6.27572 116.671 5.95215C117.186 5.62858 117.76 5.4668 118.394 5.4668C119.401 5.4668 120.178 5.78809 120.725 6.43066C121.276 7.07324 121.552 7.98242 121.552 9.1582V9.82812H116.719C116.769 10.4388 116.972 10.9219 117.327 11.2773C117.687 11.6328 118.138 11.8105 118.681 11.8105C119.442 11.8105 120.062 11.5029 120.54 10.8877L121.436 11.7422C121.139 12.1842 120.743 12.5283 120.246 12.7744C119.754 13.016 119.2 13.1367 118.585 13.1367ZM118.387 6.7998C117.931 6.7998 117.562 6.95931 117.279 7.27832C117.001 7.59733 116.824 8.04167 116.746 8.61133H119.911V8.48828C119.875 7.93229 119.727 7.51302 119.467 7.23047C119.207 6.94336 118.847 6.7998 118.387 6.7998ZM124.389 5.60352L124.437 6.45801C124.983 5.7972 125.701 5.4668 126.59 5.4668C128.13 5.4668 128.914 6.34863 128.941 8.1123V13H127.28V8.20801C127.28 7.73861 127.178 7.39225 126.973 7.16895C126.772 6.94108 126.442 6.82715 125.981 6.82715C125.312 6.82715 124.812 7.13021 124.484 7.73633V13H122.823V5.60352H124.389ZM132.722 3.80566V5.60352H134.027V6.83398H132.722V10.9629C132.722 11.2454 132.776 11.4505 132.886 11.5781C133 11.7012 133.2 11.7627 133.487 11.7627C133.679 11.7627 133.872 11.7399 134.068 11.6943V12.9795C133.69 13.0843 133.326 13.1367 132.975 13.1367C131.699 13.1367 131.061 12.4326 131.061 11.0244V6.83398H129.844V5.60352H131.061V3.80566H132.722Z" fill="#707FDA"/>
</svg>
