<svg width="30" height="30" viewBox="0 0 30 30" fill="none" xmlns="http://www.w3.org/2000/svg">
<path d="M21.6748 26.9873L8.34851 27C5.41673 27.0027 3.01599 24.6066 3.01266 21.6748L3 8.34851C2.99734 5.41673 5.39341 3.01599 8.32519 3.01266L21.6515 3C24.5833 2.99734 26.984 5.39341 26.9873 8.32519L27 21.6515C27.0033 24.5839 24.6066 26.9847 21.6748 26.9873Z" fill="white"/>
<path d="M21.6748 26.9873L8.34851 27C5.41673 27.0027 3.01599 24.6066 3.01266 21.6748L3 8.34851C2.99734 5.41673 5.39341 3.01599 8.32519 3.01266L21.6515 3C24.5833 2.99734 26.984 5.39341 26.9873 8.32519L27 21.6515C27.0033 24.5839 24.6066 26.9847 21.6748 26.9873Z" fill="white"/>
<path d="M14.9992 19.5706C12.479 19.5706 10.4277 17.52 10.4277 14.9992C10.4277 12.4783 12.479 10.4277 14.9992 10.4277C17.5193 10.4277 19.5706 12.4783 19.5706 14.9992C19.5706 17.52 17.5193 19.5706 14.9992 19.5706ZM14.9992 11.7339C13.1987 11.7339 11.7339 13.1987 11.7339 14.9992C11.7339 16.7997 13.1987 18.2645 14.9992 18.2645C16.7997 18.2645 18.2645 16.7997 18.2645 14.9992C18.2645 13.1987 16.7997 11.7339 14.9992 11.7339Z" fill="#707FDA"/>
<path d="M19.8571 10.9864C20.3305 10.9864 20.7143 10.6017 20.7143 10.127C20.7143 9.65236 20.3305 9.26758 19.8571 9.26758C19.3838 9.26758 19 9.65236 19 10.127C19 10.6017 19.3838 10.9864 19.8571 10.9864Z" fill="#707FDA"/>
<path d="M18.9552 23.5706H11.0431C8.49872 23.5706 6.42773 21.5003 6.42773 18.9552V11.0431C6.42773 8.49806 8.49872 6.42773 11.0431 6.42773H18.9552C21.4996 6.42773 23.5706 8.49806 23.5706 11.0431V18.9552C23.5706 21.5003 21.4996 23.5706 18.9552 23.5706ZM11.0431 7.74642C9.22532 7.74642 7.74642 9.22532 7.74642 11.0431V18.9552C7.74642 20.773 9.22532 22.2519 11.0431 22.2519H18.9552C20.773 22.2519 22.2519 20.773 22.2519 18.9552V11.0431C22.2519 9.22532 20.773 7.74642 18.9552 7.74642H11.0431Z" fill="#707FDA"/>
</svg>
