<svg width="31" height="31" viewBox="0 0 31 31" fill="none" xmlns="http://www.w3.org/2000/svg">
<path d="M27.4492 7.67959C26.5567 8.07109 25.6057 8.33059 24.6142 8.45659C25.6342 7.84759 26.4127 6.89059 26.7787 5.73709C25.8277 6.30409 24.7777 6.70459 23.6587 6.92809C22.7557 5.96659 21.4687 5.37109 20.0647 5.37109C17.3407 5.37109 15.1477 7.58209 15.1477 10.2926C15.1477 10.6826 15.1807 11.0576 15.2617 11.4146C11.1712 11.2151 7.55172 9.25459 5.12022 6.26809C4.69572 7.00459 4.44672 7.84759 4.44672 8.75509C4.44672 10.4591 5.32422 11.9696 6.63222 12.8441C5.84172 12.8291 5.06622 12.5996 4.40922 12.2381C4.40922 12.2531 4.40922 12.2726 4.40922 12.2921C4.40922 14.6831 6.11472 16.6691 8.35122 17.1266C7.95072 17.2361 7.51422 17.2886 7.06122 17.2886C6.74622 17.2886 6.42822 17.2706 6.12972 17.2046C6.76722 19.1531 8.57622 20.5856 10.7272 20.6321C9.05322 21.9416 6.92772 22.7306 4.62672 22.7306C4.22322 22.7306 3.83622 22.7126 3.44922 22.6631C5.62872 24.0686 8.21172 24.8711 10.9972 24.8711C20.0512 24.8711 25.0012 17.3711 25.0012 10.8701C25.0012 10.6526 24.9937 10.4426 24.9832 10.2341C25.9597 9.54109 26.7802 8.67559 27.4492 7.67959Z" fill="white"/>
</svg>
