<svg width="31" height="31" viewBox="0 0 31 31" fill="none" xmlns="http://www.w3.org/2000/svg">
<path d="M12.0187 15.8162C10.1078 15.8162 8.56394 17.36 8.59218 19.2522C8.61101 20.4665 9.27937 21.5209 10.2631 22.1092C9.92891 21.5962 9.73123 20.989 9.72181 20.3347C9.69357 18.4426 11.2374 16.8988 13.1484 16.8988C13.5249 16.8988 13.8873 16.96 14.2262 17.0682V13.2792C13.8732 13.2275 13.5108 13.1992 13.1484 13.1992C13.1295 13.1992 13.1154 13.1992 13.0966 13.1992V15.9857C12.7577 15.8774 12.3953 15.8162 12.0187 15.8162Z" fill="#9397B2" fill-opacity="0.8"/>
<path d="M20.2787 4.4541H20.2505H19.2715C19.5539 5.87085 20.3493 7.10403 21.4601 7.94184C20.7306 6.97695 20.2882 5.77201 20.2787 4.4541Z" fill="#9397B2" fill-opacity="0.8"/>
<path d="M26.04 10.2198C25.6681 10.2198 25.3104 10.1821 24.9574 10.1162V12.832C23.6772 12.832 22.4346 12.5826 21.2673 12.0837C20.5142 11.7636 19.8129 11.3541 19.168 10.8599L19.1869 19.2333C19.1775 21.116 18.4338 22.8811 17.0876 24.2131C15.9909 25.2957 14.6024 25.9876 13.0963 26.2088C12.7433 26.2606 12.3808 26.2888 12.0184 26.2888C10.4087 26.2888 8.87426 25.7663 7.62695 24.8014C7.76816 24.9709 7.91877 25.1356 8.08351 25.2957C9.43907 26.6324 11.2371 27.3714 13.1527 27.3714C13.5152 27.3714 13.8776 27.3431 14.2306 27.2913C15.7368 27.0701 17.1253 26.3782 18.222 25.2957C19.5681 23.9636 20.3118 22.1986 20.3212 20.3159L20.2506 11.9425C20.8907 12.4367 21.592 12.8509 22.3498 13.1662C23.5218 13.6604 24.7644 13.9146 26.04 13.9146" fill="#9397B2" fill-opacity="0.8"/>
<path d="M8.06909 15.2839C9.41052 13.9519 11.1944 13.2129 13.096 13.1988V12.1962C12.7429 12.1445 12.3805 12.1162 12.0181 12.1162C10.0977 12.1162 8.29501 12.8552 6.93945 14.2013C5.60743 15.5239 4.84492 17.3314 4.84963 19.2094C4.84963 21.1015 5.59801 22.876 6.94887 24.2174C7.16538 24.4292 7.3866 24.6269 7.62194 24.8058C6.5582 23.5396 5.97926 21.9581 5.97456 20.2919C5.97926 18.4139 6.73706 16.6065 8.06909 15.2839Z" fill="white"/>
<path d="M24.9573 10.1159V9.10869H24.9479C23.6394 9.10869 22.4344 8.67567 21.4648 7.94141C22.3074 9.05221 23.5405 9.84295 24.9573 10.1159Z" fill="white"/>
<path d="M12.955 23.6668C13.4021 23.6904 13.8304 23.6292 14.2258 23.5021C15.5908 23.055 16.5745 21.7841 16.5745 20.2874L16.5792 14.6863V4.45366H19.2715C19.2009 4.10065 19.1632 3.74293 19.1585 3.37109H15.4496V13.599L15.4449 19.2001C15.4449 20.6968 14.4612 21.9677 13.0962 22.4148C12.7008 22.5466 12.2725 22.6078 11.8254 22.5796C11.2558 22.5466 10.724 22.3772 10.2627 22.1042C10.8416 22.9985 11.8301 23.6056 12.955 23.6668Z" fill="white"/>
<path d="M13.0962 26.209C14.6024 25.9877 15.9909 25.2958 17.0876 24.2133C18.4337 22.8812 19.1774 21.1162 19.1868 19.2335L19.168 10.8601C19.8081 11.3543 20.5094 11.7685 21.2672 12.0838C22.4392 12.578 23.6818 12.8322 24.9574 12.8322V10.1164C23.5406 9.84339 22.3074 9.05265 21.4649 7.94184C20.3541 7.10403 19.5539 5.87085 19.2762 4.4541H16.5792V14.682L16.5745 20.2831C16.5745 21.7799 15.5908 23.0507 14.2258 23.4978C13.8305 23.6296 13.4021 23.6908 12.955 23.6626C11.8254 23.6014 10.8416 22.9942 10.2627 22.1046C9.27898 21.521 8.61062 20.4619 8.59179 19.2476C8.56355 17.3555 10.1074 15.8116 12.0183 15.8116C12.3949 15.8116 12.7573 15.8728 13.0962 15.9811V13.1946C11.1947 13.2088 9.41077 13.9477 8.06934 15.2798C6.73731 16.6024 5.97481 18.4098 5.97951 20.2831C5.97951 21.9493 6.55845 23.5308 7.6269 24.7969C8.87891 25.7618 10.4086 26.2843 12.0183 26.2843C12.3808 26.289 12.7432 26.2607 13.0962 26.209Z" fill="white"/>
</svg>
