<svg width="31" height="31" viewBox="0 0 31 31" fill="none" xmlns="http://www.w3.org/2000/svg">
<path d="M25.2782 3.37109H5.62021C4.42122 3.37109 3.44922 4.34309 3.44922 5.54209V25.2C3.44922 26.3991 4.42122 27.3711 5.62021 27.3711H25.2782C26.4772 27.3711 27.4492 26.3991 27.4492 25.2V5.54209C27.4492 4.34309 26.4772 3.37109 25.2782 3.37109ZM10.8758 24.0943C10.8758 24.4432 10.593 24.7261 10.244 24.7261H7.55466C7.20572 24.7261 6.92287 24.4432 6.92287 24.0943V12.8205C6.92287 12.4716 7.20572 12.1887 7.55466 12.1887H10.244C10.593 12.1887 10.8758 12.4716 10.8758 12.8205V24.0943ZM8.89935 11.126C7.48832 11.126 6.34442 9.98209 6.34442 8.57105C6.34442 7.16001 7.48832 6.01612 8.89935 6.01612C10.3104 6.01612 11.4543 7.16001 11.4543 8.57105C11.4543 9.98209 10.3105 11.126 8.89935 11.126ZM24.9305 24.1452C24.9305 24.466 24.6704 24.7261 24.3496 24.7261H21.4637C21.1429 24.7261 20.8828 24.466 20.8828 24.1452V18.8571C20.8828 18.0683 21.1142 15.4003 18.8212 15.4003C17.0426 15.4003 16.6819 17.2264 16.6094 18.046V24.1452C16.6094 24.466 16.3494 24.7261 16.0285 24.7261H13.2374C12.9166 24.7261 12.6565 24.466 12.6565 24.1452V12.7696C12.6565 12.4488 12.9166 12.1887 13.2374 12.1887H16.0285C16.3493 12.1887 16.6094 12.4488 16.6094 12.7696V13.7532C17.2689 12.7634 18.2491 11.9995 20.3359 11.9995C24.9569 11.9995 24.9305 16.3168 24.9305 18.6889V24.1452Z" fill="white"/>
</svg>
