<svg width="16" height="17" viewBox="0 0 16 17" fill="none" xmlns="http://www.w3.org/2000/svg">
<path d="M7.95803 0.701172C3.56293 0.701172 0 4.2641 0 8.6592C0 13.0543 3.56293 16.6172 7.95803 16.6172C12.3531 16.6172 15.9161 13.0543 15.9161 8.6592C15.9109 4.26622 12.351 0.706288 7.95803 0.701172Z" fill="#6B80F0" fill-opacity="0.15"/>
<path d="M12.5514 6.13854L8.01205 12.2987C7.90379 12.4424 7.74236 12.5365 7.56403 12.5599C7.3857 12.5834 7.20543 12.5342 7.06372 12.4234L3.82215 9.83173C3.5361 9.60282 3.48978 9.18536 3.71869 8.89931C3.94761 8.61327 4.36506 8.56695 4.65111 8.79586L7.35419 10.9585L11.4837 5.35401C11.6192 5.15081 11.8553 5.03847 12.0984 5.06158C12.3415 5.08469 12.5522 5.23953 12.6469 5.46461C12.7416 5.68969 12.7049 5.9486 12.5514 6.13854Z" fill="#707FDA"/>
</svg>
