<svg width="16" height="17" viewBox="0 0 16 17" fill="none" xmlns="http://www.w3.org/2000/svg">
<path d="M7.95803 0.427673C3.56293 0.427673 0 3.9906 0 8.3857C0 12.7808 3.56293 16.3437 7.95803 16.3437C12.3531 16.3437 15.9161 12.7808 15.9161 8.3857C15.9109 3.99272 12.351 0.43279 7.95803 0.427673Z" fill="#E9F3EB"/>
<path d="M12.5514 5.86538L8.01205 12.0256C7.90379 12.1692 7.74236 12.2633 7.56403 12.2867C7.3857 12.3102 7.20543 12.261 7.06372 12.1502L3.82215 9.55857C3.5361 9.32966 3.48978 8.9122 3.71869 8.62615C3.94761 8.3401 4.36506 8.29379 4.65111 8.5227L7.35419 10.6853L11.4837 5.08085C11.6192 4.87765 11.8553 4.7653 12.0984 4.78842C12.3415 4.81153 12.5522 4.96637 12.6469 5.19145C12.7416 5.41653 12.7049 5.67544 12.5514 5.86538Z" fill="#6A9586"/>
</svg>
