<svg width="16" height="16" viewBox="0 0 16 16" fill="none" xmlns="http://www.w3.org/2000/svg">
<g clip-path="url(#clip0)">
<path d="M8.01825 1.33301C7.79958 1.33301 7.59474 1.44077 7.47007 1.62077L4.44533 5.99967H1.33465C1.12599 5.99967 0.930069 6.0967 0.803403 6.2627C0.678069 6.42803 0.635455 6.64276 0.690121 6.84342L2.39715 13.0205C2.55649 13.5965 3.08498 13.9997 3.68231 13.9997H10.2682L9.39194 10.5413C9.24794 9.97468 9.37055 9.38609 9.72788 8.92676C10.0832 8.46942 10.6395 8.19759 11.2149 8.19759C11.5355 8.19759 11.8541 8.28111 12.1367 8.43978L14.5013 9.76921L15.3086 6.84473C15.3639 6.64406 15.322 6.42803 15.1966 6.2627C15.07 6.0967 14.8734 5.99967 14.6654 5.99967H11.5599L8.56903 1.62337C8.44503 1.44204 8.24018 1.33367 8.02085 1.33301H8.01825ZM8.01564 3.17676L9.94403 5.99967H6.06512L8.01564 3.17676ZM11.1654 9.53223C10.8541 9.56188 10.5964 9.86322 10.6849 10.2132L11.8815 14.9372C11.9815 15.3312 12.5116 15.4019 12.711 15.0479L13.3542 13.9072L14.7917 15.7497C15.015 16.0423 15.4339 16.098 15.7266 15.8747C16.0192 15.6513 16.0749 15.2324 15.8516 14.9398L14.4375 13.1286L15.6328 12.8265C16.0268 12.7272 16.0982 12.1964 15.7435 11.9958L11.4831 9.60124C11.3783 9.5424 11.2691 9.52234 11.1654 9.53223Z" fill="#99A29C"/>
</g>
<defs>
<clipPath id="clip0">
<rect width="16" height="16" fill="white"/>
</clipPath>
</defs>
</svg>
