<svg width="30" height="16" viewBox="0 0 30 16" fill="none" xmlns="http://www.w3.org/2000/svg">
<path d="M18 0.599976C15.8391 0.599976 13.8 1.67341 12.6 3.41248V15.6H25.5C27.9609 15.6 30 13.5609 30 11.1C30 8.63904 27.9609 6.59998 25.5 6.59998C25.2 6.59998 24.9 6.65154 24.6 6.71248C24.3 3.29294 21.4805 0.599976 18 0.599976ZM10.2 3.59998C9.78047 3.59998 9.36094 3.65154 9 3.71248V15.6H10.2V3.59998ZM10.8 3.59998V15.6H12V3.89998C11.6391 3.78044 11.2195 3.66091 10.8 3.59998ZM8.4 3.89998C7.98047 4.08044 7.56094 4.26091 7.2 4.49998V15.6H8.4V3.89998ZM6.6 4.98748C6.11953 5.40701 5.7 5.94373 5.4 6.54373V15.6H6.6V4.98748ZM3.9 7.19998C3.79453 7.20701 3.68906 7.22576 3.6 7.25623V15.5437C3.78047 15.6047 4.01953 15.6 4.2 15.6H4.8V7.25623C4.61953 7.19529 4.38047 7.19998 4.2 7.19998C4.11094 7.19998 4.00547 7.19294 3.9 7.19998ZM3 7.38748C2.58047 7.50701 2.16094 7.68748 1.8 7.98748V14.8125C2.16094 15.0515 2.58047 15.2929 3 15.4125V7.38748ZM1.2 8.45623C0.480469 9.23669 0 10.2609 0 11.4C0 12.539 0.480469 13.5633 1.2 14.3437V8.45623Z" fill="#9397B2"/>
</svg>
