<svg width="33" height="33" viewBox="0 0 33 33" fill="none" xmlns="http://www.w3.org/2000/svg">
<rect x="0.835938" y="0.5" width="32" height="32" rx="16" fill="white"/>
<path d="M22.1693 10.5H11.5026C10.7693 10.5 10.1759 11.1 10.1759 11.8333L10.1699 22.2227C10.1699 22.8167 10.8879 23.1147 11.3079 22.6947L12.8359 21.1667H22.1693C22.9026 21.1667 23.5026 20.5667 23.5026 19.8333V11.8333C23.5026 11.1 22.9026 10.5 22.1693 10.5ZM14.8359 15.8333C14.8359 16.2013 14.5373 16.5 14.1693 16.5C13.8013 16.5 13.5026 16.2013 13.5026 15.8333C13.5026 15.4653 13.8013 15.1667 14.1693 15.1667C14.5373 15.1667 14.8359 15.4653 14.8359 15.8333ZM17.5026 15.8333C17.5026 16.2013 17.2039 16.5 16.8359 16.5C16.4679 16.5 16.1693 16.2013 16.1693 15.8333C16.1693 15.4653 16.4679 15.1667 16.8359 15.1667C17.2039 15.1667 17.5026 15.4653 17.5026 15.8333ZM20.1693 15.8333C20.1693 16.2013 19.8706 16.5 19.5026 16.5C19.1346 16.5 18.8359 16.2013 18.8359 15.8333C18.8359 15.4653 19.1346 15.1667 19.5026 15.1667C19.8706 15.1667 20.1693 15.4653 20.1693 15.8333Z" fill="#707FDA"/>
</svg>
