<svg width="16" height="16" viewBox="0 0 16 16" fill="none" xmlns="http://www.w3.org/2000/svg">
<path d="M13.3333 2H2.66665C1.93332 2 1.33998 2.6 1.33998 3.33333L1.33398 13.7227C1.33398 14.3167 2.05198 14.6147 2.47198 14.1947L3.99998 12.6667H13.3333C14.0667 12.6667 14.6667 12.0667 14.6667 11.3333V3.33333C14.6667 2.6 14.0667 2 13.3333 2ZM5.99998 7.33333C5.99998 7.70133 5.70132 8 5.33332 8C4.96532 8 4.66665 7.70133 4.66665 7.33333C4.66665 6.96533 4.96532 6.66667 5.33332 6.66667C5.70132 6.66667 5.99998 6.96533 5.99998 7.33333ZM8.66665 7.33333C8.66665 7.70133 8.36799 8 7.99999 8C7.63199 8 7.33332 7.70133 7.33332 7.33333C7.33332 6.96533 7.63199 6.66667 7.99999 6.66667C8.36799 6.66667 8.66665 6.96533 8.66665 7.33333ZM11.3333 7.33333C11.3333 7.70133 11.0347 8 10.6667 8C10.2987 8 9.99999 7.70133 9.99999 7.33333C9.99999 6.96533 10.2987 6.66667 10.6667 6.66667C11.0347 6.66667 11.3333 6.96533 11.3333 7.33333Z" fill="#C7CBE0"/>
</svg>
