<svg width="61" height="60" viewBox="0 0 61 60" fill="none" xmlns="http://www.w3.org/2000/svg">
<rect x="0.019043" width="60" height="60" rx="30" fill="#F0F9F6"/>
<path d="M40.0193 18.75H20.0193C18.6443 18.75 17.5318 19.875 17.5318 21.25L17.5205 40.73C17.5205 41.8438 18.8668 42.4025 19.6543 41.615L22.5193 38.75H40.0193C41.3943 38.75 42.5193 37.625 42.5193 36.25V21.25C42.5193 19.875 41.3943 18.75 40.0193 18.75ZM26.2693 28.75C26.2693 29.44 25.7093 30 25.0193 30C24.3293 30 23.7693 29.44 23.7693 28.75C23.7693 28.06 24.3293 27.5 25.0193 27.5C25.7093 27.5 26.2693 28.06 26.2693 28.75ZM31.2693 28.75C31.2693 29.44 30.7093 30 30.0193 30C29.3293 30 28.7693 29.44 28.7693 28.75C28.7693 28.06 29.3293 27.5 30.0193 27.5C30.7093 27.5 31.2693 28.06 31.2693 28.75ZM36.2693 28.75C36.2693 29.44 35.7093 30 35.0193 30C34.3293 30 33.7693 29.44 33.7693 28.75C33.7693 28.06 34.3293 27.5 35.0193 27.5C35.7093 27.5 36.2693 28.06 36.2693 28.75Z" fill="#6A9586"/>
</svg>
