<svg width="14" height="14" viewBox="0 0 14 14" fill="none" xmlns="http://www.w3.org/2000/svg">
<path d="M5.00001 0.333313H1.66668C0.931343 0.333313 0.333344 0.931313 0.333344 1.66665V6.33331C0.333344 7.06865 0.931343 7.66665 1.66668 7.66665H5.00001C5.73534 7.66665 6.33334 7.06865 6.33334 6.33331V1.66665C6.33334 0.931313 5.73534 0.333313 5.00001 0.333313ZM12.3333 0.333313H9.00001C8.26468 0.333313 7.66668 0.931313 7.66668 1.66665V3.66665C7.66668 4.40198 8.26468 4.99998 9.00001 4.99998H12.3333C13.0687 4.99998 13.6667 4.40198 13.6667 3.66665V1.66665C13.6667 0.931313 13.0687 0.333313 12.3333 0.333313ZM5.00001 8.99998H1.66668C0.931343 8.99998 0.333344 9.59798 0.333344 10.3333V12.3333C0.333344 13.0686 0.931343 13.6666 1.66668 13.6666H5.00001C5.73534 13.6666 6.33334 13.0686 6.33334 12.3333V10.3333C6.33334 9.59798 5.73534 8.99998 5.00001 8.99998ZM12.3333 6.33331H9.00001C8.26468 6.33331 7.66668 6.93131 7.66668 7.66665V12.3333C7.66668 13.0686 8.26468 13.6666 9.00001 13.6666H12.3333C13.0687 13.6666 13.6667 13.0686 13.6667 12.3333V7.66665C13.6667 6.93131 13.0687 6.33331 12.3333 6.33331Z" fill="#C7CBE0"/>
</svg>
