<svg width="16" height="16" viewBox="0 0 16 16" fill="none" xmlns="http://www.w3.org/2000/svg">
<path d="M4 0.667969V2.0013H3.33333C2.6 2.0013 2 2.6013 2 3.33464V12.668C2 13.4013 2.6 14.0013 3.33333 14.0013H12.6667C13.4 14.0013 14 13.4013 14 12.668V3.33464C14 2.6013 13.4 2.0013 12.6667 2.0013H12V0.667969H10.6667V2.0013H5.33333V0.667969H4ZM3.33333 5.33464H12.6667V12.668H3.33333V5.33464ZM6.66667 7.33463L4.66667 9.33463L6.66667 11.3346V10.0013H9.33333V11.3346L11.3333 9.33463L9.33333 7.33463V8.66797H6.66667V7.33463Z" fill="#707FDA"/>
</svg>
