<svg width="77" height="17" viewBox="0 0 77 17" fill="none" xmlns="http://www.w3.org/2000/svg">
<circle cx="8.5" cy="8.5" r="8.5" fill="#99A29C"/>
<circle cx="4.5" cy="8.5" r="1.5" fill="white"/>
<circle cx="8.5" cy="8.5" r="1.5" fill="white"/>
<circle cx="12.5" cy="8.5" r="1.5" fill="white"/>
<path d="M23.0117 13V3.04688H25.9512C26.8307 3.04688 27.61 3.24284 28.2891 3.63477C28.9727 4.02669 29.5013 4.58268 29.875 5.30273C30.2487 6.02279 30.4355 6.84766 30.4355 7.77734V8.27637C30.4355 9.21973 30.2464 10.0492 29.8682 10.7646C29.4945 11.4801 28.959 12.0316 28.2617 12.4189C27.569 12.8063 26.7738 13 25.876 13H23.0117ZM24.7412 4.44141V11.6191H25.8691C26.776 11.6191 27.471 11.3366 27.9541 10.7715C28.4417 10.2018 28.6901 9.38607 28.6992 8.32422V7.77051C28.6992 6.69043 28.4645 5.86556 27.9951 5.2959C27.5257 4.72624 26.8444 4.44141 25.9512 4.44141H24.7412ZM33.7646 13H32.1035V5.60352H33.7646V13ZM32.001 3.68262C32.001 3.42741 32.0807 3.21549 32.2402 3.04688C32.4043 2.87826 32.6367 2.79395 32.9375 2.79395C33.2383 2.79395 33.4707 2.87826 33.6348 3.04688C33.7988 3.21549 33.8809 3.42741 33.8809 3.68262C33.8809 3.93327 33.7988 4.1429 33.6348 4.31152C33.4707 4.47559 33.2383 4.55762 32.9375 4.55762C32.6367 4.55762 32.4043 4.47559 32.2402 4.31152C32.0807 4.1429 32.001 3.93327 32.001 3.68262ZM39.7256 10.9902C39.7256 10.694 39.6025 10.4684 39.3564 10.3135C39.1149 10.1585 38.7116 10.0218 38.1465 9.90332C37.5814 9.78483 37.1097 9.63444 36.7314 9.45215C35.902 9.05111 35.4873 8.47005 35.4873 7.70898C35.4873 7.07096 35.7562 6.53776 36.2939 6.10938C36.8317 5.68099 37.5153 5.4668 38.3447 5.4668C39.2288 5.4668 39.9421 5.68555 40.4844 6.12305C41.0312 6.56055 41.3047 7.12793 41.3047 7.8252H39.6436C39.6436 7.50618 39.5251 7.24186 39.2881 7.03223C39.0511 6.81803 38.7367 6.71094 38.3447 6.71094C37.9801 6.71094 37.6816 6.79525 37.4492 6.96387C37.2214 7.13249 37.1074 7.35807 37.1074 7.64062C37.1074 7.89583 37.2145 8.09408 37.4287 8.23535C37.6429 8.37663 38.0758 8.52018 38.7275 8.66602C39.3792 8.80729 39.8896 8.97819 40.2588 9.17871C40.6325 9.37467 40.9082 9.61165 41.0859 9.88965C41.2682 10.1676 41.3594 10.5049 41.3594 10.9014C41.3594 11.5667 41.0837 12.1068 40.5322 12.5215C39.9808 12.9316 39.2585 13.1367 38.3652 13.1367C37.7591 13.1367 37.2191 13.0273 36.7451 12.8086C36.2712 12.5898 35.902 12.2891 35.6377 11.9062C35.3734 11.5234 35.2412 11.111 35.2412 10.6689H36.8545C36.8773 11.0609 37.0254 11.3639 37.2988 11.5781C37.5723 11.7878 37.9346 11.8926 38.3857 11.8926C38.8232 11.8926 39.1559 11.8105 39.3838 11.6465C39.6117 11.4779 39.7256 11.2591 39.7256 10.9902ZM47.2314 13C47.1585 12.8587 47.0947 12.6286 47.04 12.3096C46.5114 12.861 45.8643 13.1367 45.0986 13.1367C44.3558 13.1367 43.7497 12.9248 43.2803 12.501C42.8109 12.0771 42.5762 11.5531 42.5762 10.9287C42.5762 10.1403 42.8678 9.53646 43.4512 9.11719C44.0391 8.69336 44.8776 8.48145 45.9668 8.48145H46.9854V7.99609C46.9854 7.61328 46.8783 7.30794 46.6641 7.08008C46.4499 6.84766 46.124 6.73145 45.6865 6.73145C45.3083 6.73145 44.9984 6.82715 44.7568 7.01855C44.5153 7.2054 44.3945 7.44466 44.3945 7.73633H42.7334C42.7334 7.33073 42.8678 6.95247 43.1367 6.60156C43.4056 6.24609 43.7702 5.9681 44.2305 5.76758C44.6953 5.56706 45.2126 5.4668 45.7822 5.4668C46.6481 5.4668 47.3385 5.68555 47.8535 6.12305C48.3685 6.55599 48.6328 7.16667 48.6465 7.95508V11.291C48.6465 11.9564 48.7399 12.4873 48.9268 12.8838V13H47.2314ZM45.4062 11.8037C45.7344 11.8037 46.042 11.724 46.3291 11.5645C46.6208 11.4049 46.8395 11.1908 46.9854 10.9219V9.52734H46.0898C45.4746 9.52734 45.012 9.63444 44.7021 9.84863C44.3923 10.0628 44.2373 10.3659 44.2373 10.7578C44.2373 11.0768 44.3421 11.332 44.5518 11.5234C44.766 11.7103 45.0508 11.8037 45.4062 11.8037ZM56.877 9.37695C56.877 10.5254 56.6195 11.4391 56.1045 12.1182C55.5941 12.7972 54.89 13.1367 53.9922 13.1367C53.1263 13.1367 52.4518 12.8245 51.9688 12.2002L51.8867 13H50.3828V2.5H52.0439V6.31445C52.5225 5.74935 53.1673 5.4668 53.9785 5.4668C54.8809 5.4668 55.5895 5.80176 56.1045 6.47168C56.6195 7.1416 56.877 8.07812 56.877 9.28125V9.37695ZM55.2158 9.2334C55.2158 8.43132 55.0745 7.82975 54.792 7.42871C54.5094 7.02767 54.0993 6.82715 53.5615 6.82715C52.8415 6.82715 52.3356 7.1416 52.0439 7.77051V10.8193C52.3402 11.4619 52.8506 11.7832 53.5752 11.7832C54.0947 11.7832 54.4958 11.5895 54.7783 11.2021C55.0609 10.8148 55.2067 10.2292 55.2158 9.44531V9.2334ZM60.042 13H58.3809V2.5H60.042V13ZM65.1143 13.1367C64.0615 13.1367 63.207 12.8063 62.5508 12.1455C61.8991 11.4801 61.5732 10.596 61.5732 9.49316V9.28809C61.5732 8.5498 61.7145 7.89128 61.9971 7.3125C62.2842 6.72917 62.6852 6.27572 63.2002 5.95215C63.7152 5.62858 64.2894 5.4668 64.9229 5.4668C65.93 5.4668 66.707 5.78809 67.2539 6.43066C67.8053 7.07324 68.0811 7.98242 68.0811 9.1582V9.82812H63.248C63.2982 10.4388 63.501 10.9219 63.8564 11.2773C64.2165 11.6328 64.6676 11.8105 65.21 11.8105C65.971 11.8105 66.5908 11.5029 67.0693 10.8877L67.9648 11.7422C67.6686 12.1842 67.2721 12.5283 66.7754 12.7744C66.2832 13.016 65.7295 13.1367 65.1143 13.1367ZM64.916 6.7998C64.4603 6.7998 64.0911 6.95931 63.8086 7.27832C63.5306 7.59733 63.3529 8.04167 63.2754 8.61133H66.4404V8.48828C66.404 7.93229 66.2559 7.51302 65.9961 7.23047C65.7363 6.94336 65.3763 6.7998 64.916 6.7998ZM69.0654 9.24707C69.0654 8.10775 69.3298 7.19401 69.8584 6.50586C70.387 5.81315 71.0957 5.4668 71.9844 5.4668C72.7682 5.4668 73.4017 5.74023 73.8848 6.28711V2.5H75.5459V13H74.042L73.96 12.2344C73.4632 12.8359 72.8001 13.1367 71.9707 13.1367C71.1048 13.1367 70.403 12.7881 69.8652 12.0908C69.332 11.3936 69.0654 10.4456 69.0654 9.24707ZM70.7266 9.39062C70.7266 10.1426 70.8701 10.7305 71.1572 11.1543C71.4489 11.5736 71.8613 11.7832 72.3945 11.7832C73.0736 11.7832 73.5703 11.4801 73.8848 10.874V7.71582C73.5794 7.12337 73.0872 6.82715 72.4082 6.82715C71.8704 6.82715 71.4557 7.04134 71.1641 7.46973C70.8724 7.89355 70.7266 8.53385 70.7266 9.39062Z" fill="#99A29C"/>
</svg>
