<svg width="120" height="120" viewBox="0 0 120 120" fill="none" xmlns="http://www.w3.org/2000/svg">
<rect width="120" height="120" rx="60" fill="#F6F7FC"/>
<circle cx="60" cy="60" r="36" fill="#707FDA"/>
<path d="M49.2026 58.6445C47.8891 57.1519 45.6143 57.0067 44.1217 58.3202C42.6292 59.6336 42.484 61.9084 43.7974 63.401L49.2026 58.6445ZM55.5 71.25L52.7974 73.6283C53.5004 74.4271 54.5207 74.874 55.5844 74.849C56.6482 74.8241 57.6464 74.3298 58.3111 73.4989L55.5 71.25ZM76.3111 50.9989C77.5532 49.4464 77.3014 47.1809 75.7489 45.9389C74.1964 44.6968 71.9309 44.9486 70.6889 46.5011L76.3111 50.9989ZM43.7974 63.401L52.7974 73.6283L58.2026 68.8717L49.2026 58.6445L43.7974 63.401ZM58.3111 73.4989L76.3111 50.9989L70.6889 46.5011L52.6889 69.0011L58.3111 73.4989Z" fill="white"/>
</svg>
