<svg width="24" height="24" viewBox="0 0 24 24" fill="none" xmlns="http://www.w3.org/2000/svg">
<path d="M12 6C5.45455 6 3 12 3 12C3 12 5.45455 18 12 18C18.5455 18 21 12 21 12C21 12 18.5455 6 12 6ZM12 8.25C14.259 8.25 16.0909 9.92925 16.0909 12C16.0909 14.0708 14.259 15.75 12 15.75C9.741 15.75 7.90909 14.0708 7.90909 12C7.90909 9.92925 9.741 8.25 12 8.25ZM12 9.75C11.349 9.75 10.7247 9.98705 10.2644 10.409C9.80406 10.831 9.54545 11.4033 9.54545 12C9.54545 12.5967 9.80406 13.169 10.2644 13.591C10.7247 14.0129 11.349 14.25 12 14.25C12.651 14.25 13.2753 14.0129 13.7356 13.591C14.1959 13.169 14.4545 12.5967 14.4545 12C14.4545 11.4033 14.1959 10.831 13.7356 10.409C13.2753 9.98705 12.651 9.75 12 9.75Z" fill="#99A29C"/>
</svg>
