<svg width="16" height="16" viewBox="0 0 16 16" fill="none" xmlns="http://www.w3.org/2000/svg">
<path d="M7.99992 3.33398C3.15143 3.33398 1.33325 8.00065 1.33325 8.00065C1.33325 8.00065 3.15143 12.6673 7.99992 12.6673C12.8484 12.6673 14.6666 8.00065 14.6666 8.00065C14.6666 8.00065 12.8484 3.33398 7.99992 3.33398ZM7.99992 5.08398C9.67325 5.08398 11.0302 6.39007 11.0302 8.00065C11.0302 9.61123 9.67325 10.9173 7.99992 10.9173C6.32659 10.9173 4.96962 9.61123 4.96962 8.00065C4.96962 6.39007 6.32659 5.08398 7.99992 5.08398ZM7.99992 6.25065C7.51771 6.25065 7.05524 6.43503 6.71427 6.76321C6.37329 7.0914 6.18174 7.53652 6.18174 8.00065C6.18174 8.46478 6.37329 8.9099 6.71427 9.23809C7.05524 9.56628 7.51771 9.75065 7.99992 9.75065C8.48213 9.75065 8.94459 9.56628 9.28557 9.23809C9.62654 8.9099 9.8181 8.46478 9.8181 8.00065C9.8181 7.53652 9.62654 7.0914 9.28557 6.76321C8.94459 6.43503 8.48213 6.25065 7.99992 6.25065Z" fill="#9397B2"/>
</svg>
