<svg width="16" height="16" viewBox="0 0 16 16" fill="none" xmlns="http://www.w3.org/2000/svg">
<path d="M7.99992 3.33301C3.15143 3.33301 1.33325 7.99967 1.33325 7.99967C1.33325 7.99967 3.15143 12.6663 7.99992 12.6663C12.8484 12.6663 14.6666 7.99967 14.6666 7.99967C14.6666 7.99967 12.8484 3.33301 7.99992 3.33301ZM7.99992 5.08301C9.67325 5.08301 11.0302 6.38909 11.0302 7.99967C11.0302 9.61026 9.67325 10.9163 7.99992 10.9163C6.32659 10.9163 4.96962 9.61026 4.96962 7.99967C4.96962 6.38909 6.32659 5.08301 7.99992 5.08301ZM7.99992 6.24967C7.51771 6.24967 7.05524 6.43405 6.71427 6.76224C6.37329 7.09043 6.18174 7.53555 6.18174 7.99967C6.18174 8.4638 6.37329 8.90892 6.71427 9.23711C7.05524 9.5653 7.51771 9.74967 7.99992 9.74967C8.48213 9.74967 8.94459 9.5653 9.28557 9.23711C9.62654 8.90892 9.8181 8.4638 9.8181 7.99967C9.8181 7.53555 9.62654 7.09043 9.28557 6.76224C8.94459 6.43405 8.48213 6.24967 7.99992 6.24967Z" fill="#99A29C"/>
</svg>
