<svg width="31" height="31" viewBox="0 0 31 31" fill="none" xmlns="http://www.w3.org/2000/svg">
<path d="M24.2657 3.97144H6.73405C4.94797 3.97144 3.5 5.41934 3.5 7.20548V24.7373C3.5 26.5234 4.94791 27.9713 6.73405 27.9713H15.3806L15.3953 19.3951H13.1672C12.8777 19.3951 12.6426 19.1609 12.6415 18.8714L12.6308 16.1069C12.6297 15.8157 12.8654 15.5791 13.1566 15.5791H15.3806V12.9079C15.3806 9.80805 17.2739 8.12013 20.0392 8.12013H22.3083C22.5986 8.12013 22.8341 8.3555 22.8341 8.64588V10.9769C22.8341 11.2672 22.5988 11.5025 22.3086 11.5027L20.9161 11.5033C19.4122 11.5033 19.121 12.2179 19.121 13.2667V15.5792H22.4255C22.7404 15.5792 22.9847 15.8541 22.9476 16.1668L22.6199 18.9313C22.5885 19.1959 22.3642 19.3952 22.0978 19.3952H19.1357L19.121 27.9714H24.2658C26.0519 27.9714 27.4998 26.5235 27.4998 24.7374V7.20548C27.4998 5.41934 26.0519 3.97144 24.2657 3.97144Z" fill="#333333"/>
</svg>
