<svg width="30" height="31" viewBox="0 0 30 31" fill="none" xmlns="http://www.w3.org/2000/svg">
<path d="M23.7658 3.97656H6.23417C4.44809 3.97656 3.00012 5.42447 3.00012 7.21061V24.7424C3.00012 26.5285 4.44803 27.9764 6.23417 27.9764H14.8807L14.8954 19.4002H12.6673C12.3778 19.4002 12.1428 19.166 12.1416 18.8765L12.131 16.112C12.1298 15.8209 12.3656 15.5843 12.6567 15.5843H14.8808V12.9131C14.8808 9.81317 16.774 8.12526 19.5393 8.12526H21.8084C22.0988 8.12526 22.3342 8.36062 22.3342 8.65101V10.982C22.3342 11.2723 22.0989 11.5076 21.8087 11.5078L20.4162 11.5084C18.9123 11.5084 18.6211 12.223 18.6211 13.2718V15.5843H21.9256C22.2405 15.5843 22.4848 15.8593 22.4477 16.172L22.12 18.9364C22.0887 19.201 21.8643 19.4003 21.598 19.4003H18.6359L18.6211 27.9766H23.766C25.552 27.9766 26.9999 26.5287 26.9999 24.7426V7.21061C26.9999 5.42447 25.552 3.97656 23.7658 3.97656Z" fill="#212121"/>
</svg>
