<svg width="16" height="16" viewBox="0 0 16 16" fill="none" xmlns="http://www.w3.org/2000/svg">
<path d="M2.66683 2.13281C2.0775 2.13281 1.60016 2.61015 1.60016 3.19948V4.79948V5.86615H11.7335H14.4002V4.26615C14.4002 3.67681 13.9228 3.19948 13.3335 3.19948H6.50641L6.17725 2.65052C5.98471 2.32945 5.6376 2.13281 5.26266 2.13281H2.66683ZM1.33454 6.93281C0.796406 6.93281 0.411048 7.4541 0.568914 7.96823L2.15225 13.113C2.29038 13.5605 2.70377 13.8661 3.17204 13.8661H8.00016H12.8283C13.2966 13.8661 13.7099 13.5605 13.8481 13.113L15.4314 7.96823C15.5893 7.4541 15.2039 6.93281 14.6658 6.93281H8.00016H1.33454Z" fill="#6A9586"/>
</svg>
