<svg width="17" height="16" viewBox="0 0 17 16" fill="none" xmlns="http://www.w3.org/2000/svg">
<path d="M3.16683 2.13281C2.5775 2.13281 2.10016 2.61015 2.10016 3.19948V4.79948V5.86615H12.2335H14.9002V4.26615C14.9002 3.67681 14.4228 3.19948 13.8335 3.19948H7.00641L6.67725 2.65052C6.48471 2.32945 6.1376 2.13281 5.76266 2.13281H3.16683ZM1.83454 6.93281C1.29641 6.93281 0.911048 7.4541 1.06891 7.96823L2.65225 13.113C2.79038 13.5605 3.20377 13.8661 3.67204 13.8661H8.50016H13.3283C13.7966 13.8661 14.2099 13.5605 14.3481 13.113L15.9314 7.96823C16.0893 7.4541 15.7039 6.93281 15.1658 6.93281H8.50016H1.83454Z" fill="#707FDA"/>
</svg>
