<svg width="30" height="31" viewBox="0 0 30 31" fill="none" xmlns="http://www.w3.org/2000/svg">
<path d="M15 1.97656C7.2685 1.97656 1 8.34322 1 16.1958C1 22.8587 5.51733 28.4338 11.6073 29.9766C11.542 29.7846 11.5 29.5618 11.5 29.2857V26.8554C10.9318 26.8554 9.97983 26.8554 9.74067 26.8554C8.78283 26.8554 7.93117 26.4372 7.51817 25.6598C7.05967 24.796 6.98033 23.4748 5.844 22.6667C5.50683 22.3977 5.7635 22.0908 6.152 22.1323C6.8695 22.3385 7.4645 22.8385 8.0245 23.5803C8.58217 24.3232 8.84467 24.4915 9.8865 24.4915C10.3917 24.4915 11.1477 24.4619 11.8593 24.3481C12.242 23.3611 12.9035 22.4522 13.712 22.0233C9.05 21.5363 6.82517 19.1806 6.82517 15.9825C6.82517 14.6056 7.40267 13.2737 8.38383 12.1516C8.06183 11.0378 7.657 8.76624 8.5075 7.90124C10.6052 7.90124 11.8733 9.28287 12.1778 9.65612C13.2232 9.29235 14.3712 9.08617 15.5775 9.08617C16.7862 9.08617 17.9388 9.29235 18.9865 9.65849C19.2875 9.28761 20.5568 7.90124 22.6592 7.90124C23.5132 8.76742 23.1037 11.0484 22.7782 12.1599C23.7535 13.2797 24.3275 14.608 24.3275 15.9825C24.3275 19.1783 22.1062 21.5327 17.4512 22.0221C18.7322 22.7011 19.6667 24.6088 19.6667 26.0461V29.2857C19.6667 29.409 19.6398 29.4979 19.6258 29.6033C25.0812 27.6612 29 22.4001 29 16.1958C29 8.34322 22.7315 1.97656 15 1.97656Z" fill="#212121"/>
</svg>
