<svg width="16" height="16" viewBox="0 0 16 16" fill="none" xmlns="http://www.w3.org/2000/svg">
<path d="M8.00065 1.33203C5.82803 1.33203 3.89978 2.38362 2.68164 3.9987H2.66732V4.01693C1.83395 5.12983 1.33398 6.50562 1.33398 7.9987C1.33398 11.6727 4.32665 14.6654 8.00065 14.6654C11.6747 14.6654 14.6673 11.6727 14.6673 7.9987C14.6673 4.3247 11.6747 1.33203 8.00065 1.33203ZM10.0007 3.05469C11.9574 3.8436 13.334 5.7538 13.334 7.9987C13.334 9.39058 12.801 10.6509 11.9329 11.599C11.7624 11.0592 11.2637 10.6654 10.6673 10.6654H10.0007V8.66536C10.0007 8.29736 9.70198 7.9987 9.33398 7.9987H6.00065V6.66536H6.66732C7.03532 6.66536 7.33398 6.3667 7.33398 5.9987V4.66536H8.66732C9.40398 4.66536 10.0007 4.0687 10.0007 3.33203V3.05469ZM2.80534 6.80339L4.00065 7.9987L6.00065 9.9987V10.6654C6.00065 11.402 6.59732 11.9987 7.33398 11.9987V13.2865C4.69783 12.9595 2.66732 10.7258 2.66732 7.9987C2.66732 7.58682 2.71767 7.18805 2.80534 6.80339Z" fill="#707FDA"/>
</svg>
