<svg width="24" height="24" viewBox="0 0 24 24" fill="none" xmlns="http://www.w3.org/2000/svg">
<g clip-path="url(#clip0)">
<path d="M23.4404 12.2247C23.4404 11.2414 23.3606 10.5239 23.1879 9.77979H11.96V14.2178H18.5505C18.4177 15.3207 17.7002 16.9816 16.1056 18.0977L16.0833 18.2463L19.6334 20.9965L19.8793 21.021C22.1382 18.9349 23.4404 15.8654 23.4404 12.2247" fill="#4285F4"/>
<path d="M11.9601 23.9174C15.189 23.9174 17.8996 22.8544 19.8795 21.0207L16.1058 18.0974C15.096 18.8016 13.7406 19.2933 11.9601 19.2933C8.7977 19.2933 6.11362 17.2072 5.15682 14.3237L5.01657 14.3356L1.32513 17.1925L1.27686 17.3267C3.2434 21.2332 7.28285 23.9174 11.9601 23.9174Z" fill="#34A853"/>
<path d="M5.15649 14.3238C4.90403 13.5797 4.75792 12.7824 4.75792 11.9586C4.75792 11.1347 4.90403 10.3375 5.14321 9.59342L5.13652 9.43494L1.39884 6.53223L1.27655 6.59039C0.466045 8.21149 0.000976562 10.0319 0.000976562 11.9586C0.000976562 13.8853 0.466045 15.7056 1.27655 17.3267L5.15649 14.3238" fill="#FBBC05"/>
<path d="M11.9601 4.62403C14.2056 4.62403 15.7204 5.59401 16.5841 6.40461L19.9591 3.10928C17.8863 1.1826 15.1889 0 11.9601 0C7.28281 0 3.24339 2.68406 1.27686 6.59056L5.14351 9.59359C6.11359 6.7102 8.79765 4.62403 11.9601 4.62403" fill="#EB4335"/>
</g>
<defs>
<clipPath id="clip0">
<rect width="23.4528" height="24" fill="white"/>
</clipPath>
</defs>
</svg>
