<svg width="14" height="14" viewBox="0 0 14 14" fill="none" xmlns="http://www.w3.org/2000/svg">
<path d="M13.6613 3.16409C13.4441 2.64276 13.1309 2.17033 12.7392 1.77326C12.3472 1.375 11.8851 1.05851 11.3779 0.841001C10.852 0.614559 10.288 0.498653 9.71847 0.500012C8.91954 0.500012 8.14005 0.726778 7.46266 1.15511C7.3006 1.25758 7.14665 1.37012 7.0008 1.49274C6.85495 1.37012 6.701 1.25758 6.53894 1.15511C5.86155 0.726778 5.08206 0.500012 4.28313 0.500012C3.70783 0.500012 3.15036 0.614235 2.62368 0.841001C2.11483 1.05937 1.65621 1.37348 1.26241 1.77326C0.870233 2.16989 0.556949 2.64242 0.340317 3.16409C0.115059 3.70665 0 4.2828 0 4.87575C0 5.43511 0.110198 6.01798 0.328973 6.61093C0.512096 7.10646 0.774626 7.62046 1.11008 8.1395C1.64162 8.9609 2.37249 9.81757 3.28 10.686C4.78388 12.1255 6.27317 13.12 6.33637 13.1603L6.72045 13.4156C6.8906 13.5281 7.10938 13.5281 7.27954 13.4156L7.66361 13.1603C7.72681 13.1183 9.21448 12.1255 10.72 10.686C11.6275 9.81757 12.3584 8.9609 12.8899 8.1395C13.2254 7.62046 13.4895 7.10646 13.671 6.61093C13.8898 6.01798 14 5.43511 14 4.87575C14.0016 4.2828 13.8865 3.70665 13.6613 3.16409Z" fill="#C7CBE0"/>
</svg>
