<svg width="30" height="30" viewBox="0 0 30 30" fill="none" xmlns="http://www.w3.org/2000/svg">
<path d="M3 14.4908V26C3 26.5523 3.44771 27 4 27H9.76471C10.317 27 10.7647 26.5523 10.7647 26V21C10.7647 18.8558 12.5029 17.1176 14.6471 17.1176C16.7912 17.1176 18.5294 18.8558 18.5294 21V26C18.5294 26.5523 18.9771 27 19.5294 27H26C26.5523 27 27 26.5523 27 26V14.4908C27 13.9169 26.7535 13.3708 26.3232 12.9911L15.6616 3.58378C15.2836 3.25023 14.7164 3.25023 14.3384 3.58378L3.67676 12.9911C3.24648 13.3708 3 13.9169 3 14.4908Z" fill="#6A9586"/>
</svg>
