<svg width="24" height="24" viewBox="0 0 24 24" fill="none" xmlns="http://www.w3.org/2000/svg">
<path d="M8 11.9993C7.99954 11.7656 8.08092 11.5392 8.23 11.3593L13.23 5.3593C13.3997 5.15508 13.6436 5.02666 13.9081 5.00228C14.1725 4.9779 14.4358 5.05956 14.64 5.2293C14.8442 5.39904 14.9726 5.64295 14.997 5.90738C15.0214 6.1718 14.9397 6.43508 14.77 6.6393L10.29 11.9993L14.61 17.3593C14.6931 17.4616 14.7551 17.5793 14.7925 17.7056C14.83 17.832 14.8421 17.9645 14.8281 18.0955C14.8142 18.2265 14.7745 18.3535 14.7113 18.4691C14.6481 18.5848 14.5627 18.6868 14.46 18.7693C14.3572 18.8609 14.2366 18.9302 14.1057 18.973C13.9748 19.0158 13.8365 19.0311 13.6994 19.018C13.5624 19.0048 13.4295 18.9635 13.3091 18.8967C13.1888 18.8298 13.0835 18.7387 13 18.6293L8.17 12.6293C8.04448 12.4442 7.98463 12.2224 8 11.9993Z" fill="#707FDA"/>
</svg>
