<svg width="24" height="24" viewBox="0 0 24 24" fill="none" xmlns="http://www.w3.org/2000/svg">
<path d="M16 12.0007C16.0005 12.2344 15.9191 12.4608 15.77 12.6407L10.77 18.6407C10.6003 18.8449 10.3564 18.9733 10.0919 18.9977C9.8275 19.0221 9.56422 18.9404 9.36 18.7707C9.15578 18.601 9.02736 18.3571 9.00298 18.0926C8.9786 17.8282 9.06026 17.5649 9.23 17.3607L13.71 12.0007L9.39 6.6407C9.30693 6.53841 9.2449 6.42072 9.20747 6.29438C9.17004 6.16804 9.15795 6.03555 9.17188 5.90452C9.18582 5.77349 9.22552 5.64651 9.28869 5.53087C9.35187 5.41523 9.43727 5.31322 9.54 5.2307C9.64282 5.13912 9.76345 5.06976 9.89432 5.02697C10.0252 4.98418 10.1635 4.96887 10.3006 4.98202C10.4376 4.99516 10.5705 5.03647 10.6909 5.10335C10.8112 5.17023 10.9165 5.26125 11 5.3707L15.83 11.3707C15.9555 11.5558 16.0154 11.7776 16 12.0007Z" fill="#707FDA"/>
</svg>
