<svg width="24" height="25" viewBox="0 0 24 25" fill="none" xmlns="http://www.w3.org/2000/svg">
<path d="M11 17.25H13V11.25H11V17.25ZM12 9.25C12.2833 9.25 12.521 9.154 12.713 8.962C12.9043 8.77067 13 8.53333 13 8.25C13 7.96667 12.9043 7.729 12.713 7.537C12.521 7.34567 12.2833 7.25 12 7.25C11.7167 7.25 11.4793 7.34567 11.288 7.537C11.096 7.729 11 7.96667 11 8.25C11 8.53333 11.096 8.77067 11.288 8.962C11.4793 9.154 11.7167 9.25 12 9.25ZM12 22.25C10.6167 22.25 9.31667 21.9873 8.1 21.462C6.88333 20.9373 5.825 20.225 4.925 19.325C4.025 18.425 3.31267 17.3667 2.788 16.15C2.26267 14.9333 2 13.6333 2 12.25C2 10.8667 2.26267 9.56667 2.788 8.35C3.31267 7.13333 4.025 6.075 4.925 5.175C5.825 4.275 6.88333 3.56233 8.1 3.037C9.31667 2.51233 10.6167 2.25 12 2.25C13.3833 2.25 14.6833 2.51233 15.9 3.037C17.1167 3.56233 18.175 4.275 19.075 5.175C19.975 6.075 20.6873 7.13333 21.212 8.35C21.7373 9.56667 22 10.8667 22 12.25C22 13.6333 21.7373 14.9333 21.212 16.15C20.6873 17.3667 19.975 18.425 19.075 19.325C18.175 20.225 17.1167 20.9373 15.9 21.462C14.6833 21.9873 13.3833 22.25 12 22.25Z" fill="#6A9586"/>
</svg>
