<svg width="24" height="25" viewBox="0 0 24 25" fill="none" xmlns="http://www.w3.org/2000/svg">
<path d="M11 17.5078H13V11.5078H11V17.5078ZM12 9.50781C12.2833 9.50781 12.521 9.41181 12.713 9.21981C12.9043 9.02848 13 8.79115 13 8.50781C13 8.22448 12.9043 7.98681 12.713 7.79481C12.521 7.60348 12.2833 7.50781 12 7.50781C11.7167 7.50781 11.4793 7.60348 11.288 7.79481C11.096 7.98681 11 8.22448 11 8.50781C11 8.79115 11.096 9.02848 11.288 9.21981C11.4793 9.41181 11.7167 9.50781 12 9.50781ZM12 22.5078C10.6167 22.5078 9.31667 22.2451 8.1 21.7198C6.88333 21.1951 5.825 20.4828 4.925 19.5828C4.025 18.6828 3.31267 17.6245 2.788 16.4078C2.26267 15.1911 2 13.8911 2 12.5078C2 11.1245 2.26267 9.82448 2.788 8.60781C3.31267 7.39115 4.025 6.33281 4.925 5.43281C5.825 4.53281 6.88333 3.82015 8.1 3.29481C9.31667 2.77015 10.6167 2.50781 12 2.50781C13.3833 2.50781 14.6833 2.77015 15.9 3.29481C17.1167 3.82015 18.175 4.53281 19.075 5.43281C19.975 6.33281 20.6873 7.39115 21.212 8.60781C21.7373 9.82448 22 11.1245 22 12.5078C22 13.8911 21.7373 15.1911 21.212 16.4078C20.6873 17.6245 19.975 18.6828 19.075 19.5828C18.175 20.4828 17.1167 21.1951 15.9 21.7198C14.6833 22.2451 13.3833 22.5078 12 22.5078Z" fill="#9397B2"/>
</svg>
