<svg width="31" height="31" viewBox="0 0 31 31" fill="none" xmlns="http://www.w3.org/2000/svg">
<path d="M22.1748 27.9588L8.84851 27.9714C5.91673 27.9741 3.51599 25.578 3.51266 22.6462L3.5 9.31995C3.49734 6.38816 5.89341 3.98743 8.82519 3.9841L22.1515 3.97144C25.0833 3.96877 27.484 6.36484 27.4873 9.29663L27.5 22.6229C27.5033 25.5554 25.1066 27.9561 22.1748 27.9588Z" fill="#333333"/>
<path d="M22.1748 27.9588L8.84851 27.9714C5.91673 27.9741 3.51599 25.578 3.51266 22.6462L3.5 9.31995C3.49734 6.38816 5.89341 3.98743 8.82519 3.9841L22.1515 3.97144C25.0833 3.96877 27.484 6.36484 27.4873 9.29663L27.5 22.6229C27.5033 25.5554 25.1066 27.9561 22.1748 27.9588Z" fill="#333333"/>
<path d="M15.4992 20.5429C12.979 20.5429 10.9277 18.4923 10.9277 15.9714C10.9277 13.4506 12.979 11.4 15.4992 11.4C18.0193 11.4 20.0706 13.4506 20.0706 15.9714C20.0706 18.4923 18.0193 20.5429 15.4992 20.5429ZM15.4992 12.7061C13.6987 12.7061 12.2339 14.1709 12.2339 15.9714C12.2339 17.7719 13.6987 19.2367 15.4992 19.2367C17.2997 19.2367 18.7645 17.7719 18.7645 15.9714C18.7645 14.1709 17.2997 12.7061 15.4992 12.7061Z" fill="white"/>
<path d="M20.3571 11.9577C20.8305 11.9577 21.2143 11.5729 21.2143 11.0983C21.2143 10.6236 20.8305 10.2388 20.3571 10.2388C19.8838 10.2388 19.5 10.6236 19.5 11.0983C19.5 11.5729 19.8838 11.9577 20.3571 11.9577Z" fill="white"/>
<path d="M19.4552 24.5429H11.5431C8.99872 24.5429 6.92773 22.4725 6.92773 19.9275V12.0154C6.92773 9.47034 8.99872 7.40001 11.5431 7.40001H19.4552C21.9996 7.40001 24.0706 9.47034 24.0706 12.0154V19.9275C24.0706 22.4725 21.9996 24.5429 19.4552 24.5429ZM11.5431 8.71869C9.72532 8.71869 8.24642 10.1976 8.24642 12.0154V19.9275C8.24642 21.7453 9.72532 23.2242 11.5431 23.2242H19.4552C21.273 23.2242 22.7519 21.7453 22.7519 19.9275V12.0154C22.7519 10.1976 21.273 8.71869 19.4552 8.71869H11.5431Z" fill="white"/>
</svg>
