<svg width="30" height="31" viewBox="0 0 30 31" fill="none" xmlns="http://www.w3.org/2000/svg">
<path d="M21.6748 27.9639L8.34851 27.9766C5.41673 27.9792 3.01599 25.5832 3.01266 22.6514L3 9.32507C2.99734 6.39329 5.39341 3.99256 8.32519 3.98922L21.6515 3.97656C24.5833 3.9739 26.984 6.36997 26.9873 9.30175L27 22.6281C27.0033 25.5605 24.6066 27.9612 21.6748 27.9639Z" fill="white"/>
<path d="M21.6748 27.9639L8.34851 27.9766C5.41673 27.9792 3.01599 25.5832 3.01266 22.6514L3 9.32507C2.99734 6.39329 5.39341 3.99256 8.32519 3.98922L21.6515 3.97656C24.5833 3.9739 26.984 6.36997 26.9873 9.30175L27 22.6281C27.0033 25.5605 24.6066 27.9612 21.6748 27.9639Z" fill="#212121"/>
<path d="M15 20.5481C12.4799 20.5481 10.4286 18.4975 10.4286 15.9767C10.4286 13.4559 12.4799 11.4053 15 11.4053C17.5202 11.4053 19.5714 13.4559 19.5714 15.9767C19.5714 18.4975 17.5202 20.5481 15 20.5481ZM15 12.7114C13.1995 12.7114 11.7347 14.1762 11.7347 15.9767C11.7347 17.7772 13.1995 19.242 15 19.242C16.8005 19.242 18.2653 17.7772 18.2653 15.9767C18.2653 14.1762 16.8005 12.7114 15 12.7114Z" fill="white"/>
<path d="M19.8571 11.963C20.3305 11.963 20.7143 11.5782 20.7143 11.1036C20.7143 10.6289 20.3305 10.2441 19.8571 10.2441C19.3838 10.2441 19 10.6289 19 11.1036C19 11.5782 19.3838 11.963 19.8571 11.963Z" fill="white"/>
<path d="M18.9561 24.5481H11.044C8.49958 24.5481 6.42859 22.4778 6.42859 19.9327V12.0207C6.42859 9.4756 8.49958 7.40527 11.044 7.40527H18.9561C21.5005 7.40527 23.5714 9.4756 23.5714 12.0207V19.9327C23.5714 22.4778 21.5005 24.5481 18.9561 24.5481ZM11.044 8.72395C9.22617 8.72395 7.74727 10.2029 7.74727 12.0207V19.9327C7.74727 21.7505 9.22617 23.2294 11.044 23.2294H18.9561C20.7739 23.2294 22.2528 21.7505 22.2528 19.9327V12.0207C22.2528 10.2029 20.7739 8.72395 18.9561 8.72395H11.044Z" fill="white"/>
</svg>
