<svg width="16" height="16" viewBox="0 0 16 16" fill="none" xmlns="http://www.w3.org/2000/svg">
<path d="M7.99967 1.33398C5.82705 1.33398 3.8988 2.38558 2.68066 4.00065H2.66634V4.01888C1.83298 5.13178 1.33301 6.50757 1.33301 8.00065C1.33301 11.6747 4.32567 14.6673 7.99967 14.6673C11.6737 14.6673 14.6663 11.6747 14.6663 8.00065C14.6663 4.32665 11.6737 1.33398 7.99967 1.33398ZM9.99967 3.05664C11.9564 3.84556 13.333 5.75575 13.333 8.00065C13.333 9.39254 12.8001 10.6529 11.932 11.6009C11.7614 11.0611 11.2627 10.6673 10.6663 10.6673H9.99967V8.66732C9.99967 8.29932 9.70101 8.00065 9.33301 8.00065H5.99967V6.66732H6.66634C7.03434 6.66732 7.33301 6.36865 7.33301 6.00065V4.66732H8.66634C9.40301 4.66732 9.99967 4.07065 9.99967 3.33398V3.05664ZM2.80436 6.80534L3.99967 8.00065L5.99967 10.0007V10.6673C5.99967 11.404 6.59634 12.0007 7.33301 12.0007V13.2884C4.69686 12.9614 2.66634 10.7278 2.66634 8.00065C2.66634 7.58878 2.71669 7.19001 2.80436 6.80534Z" fill="#6A9586"/>
</svg>
