<svg width="33" height="33" viewBox="0 0 33 33" fill="none" xmlns="http://www.w3.org/2000/svg">
<rect x="0.0351562" y="0.5" width="32" height="32" rx="16" fill="white"/>
<path d="M10.3691 14.5C10.9025 14.5 11.3691 14.9667 11.3691 15.5V21.5C11.3691 22.0333 10.9025 22.5 10.3691 22.5C9.83581 22.5 9.36914 22.0333 9.36914 21.5V15.5C9.36914 14.9667 9.83581 14.5 10.3691 14.5ZM19.3691 22.5H14.0358C13.3025 22.5 12.7025 21.9 12.7025 21.1667V15.0333C12.7025 14.7 12.8358 14.3667 13.0358 14.1667L14.8358 12.1667L15.2358 10.5C15.3025 10.1 15.7691 9.89999 16.1025 10.0333C16.7025 10.1667 17.3691 10.7 17.3691 11.7667C17.3691 12.9 16.7025 14.5 16.7025 14.5H21.3691C22.1025 14.5 22.7025 15.1 22.7025 15.8333V16.4333C22.7025 16.7 22.6358 16.9667 22.5025 17.2333L20.5025 21.7667C20.3025 22.2333 19.9025 22.5 19.3691 22.5Z" fill="#707FDA"/>
</svg>
