<svg width="61" height="60" viewBox="0 0 61 60" fill="none" xmlns="http://www.w3.org/2000/svg">
<rect x="0.509521" width="60" height="60" rx="30" fill="#F0F9F6"/>
<path d="M19.8845 26.25C20.8845 26.25 21.7595 27.125 21.7595 28.125V39.375C21.7595 40.375 20.8845 41.25 19.8845 41.25C18.8845 41.25 18.0095 40.375 18.0095 39.375V28.125C18.0095 27.125 18.8845 26.25 19.8845 26.25ZM36.7595 41.25H26.7595C25.3845 41.25 24.2595 40.125 24.2595 38.75V27.25C24.2595 26.625 24.5095 26 24.8845 25.625L28.2595 21.875L29.0095 18.75C29.1345 18 30.0095 17.625 30.6345 17.875C31.7595 18.125 33.0095 19.125 33.0095 21.125C33.0095 23.25 31.7595 26.25 31.7595 26.25H40.5095C41.8845 26.25 43.0095 27.375 43.0095 28.75V29.875C43.0095 30.375 42.8845 30.875 42.6345 31.375L38.8845 39.875C38.5095 40.75 37.7595 41.25 36.7595 41.25Z" fill="#6A9586"/>
</svg>
