<svg width="16" height="16" viewBox="0 0 16 16" fill="none" xmlns="http://www.w3.org/2000/svg">
<path d="M2.33325 5.99999C2.86659 5.99999 3.33325 6.46666 3.33325 6.99999V13C3.33325 13.5333 2.86659 14 2.33325 14C1.79992 14 1.33325 13.5333 1.33325 13V6.99999C1.33325 6.46666 1.79992 5.99999 2.33325 5.99999ZM11.3333 14H5.99992C5.26659 14 4.66659 13.4 4.66659 12.6667V6.53332C4.66659 6.19999 4.79992 5.86666 4.99992 5.66666L6.79992 3.66666L7.19992 1.99999C7.26659 1.59999 7.73325 1.39999 8.06659 1.53332C8.66659 1.66666 9.33325 2.19999 9.33325 3.26666C9.33325 4.39999 8.66659 5.99999 8.66659 5.99999H13.3333C14.0666 5.99999 14.6666 6.59999 14.6666 7.33332V7.93332C14.6666 8.19999 14.5999 8.46666 14.4666 8.73332L12.4666 13.2667C12.2666 13.7333 11.8666 14 11.3333 14Z" fill="#9397B2"/>
</svg>
