<svg width="30" height="31" viewBox="0 0 30 31" fill="none" xmlns="http://www.w3.org/2000/svg">
<path d="M24.829 3.97656H5.17099C3.972 3.97656 3 4.94856 3 6.14756V25.8055C3 27.0046 3.972 27.9766 5.17099 27.9766H24.8289C26.028 27.9766 27 27.0046 27 25.8055V6.14756C27 4.94856 26.028 3.97656 24.829 3.97656ZM10.4266 24.6997C10.4266 25.0487 10.1438 25.3315 9.79483 25.3315H7.10544C6.7565 25.3315 6.47365 25.0487 6.47365 24.6997V13.426C6.47365 13.077 6.7565 12.7942 7.10544 12.7942H9.79483C10.1438 12.7942 10.4266 13.077 10.4266 13.426V24.6997ZM8.45014 11.7315C7.0391 11.7315 5.8952 10.5876 5.8952 9.17652C5.8952 7.76548 7.0391 6.62159 8.45014 6.62159C9.86117 6.62159 11.0051 7.76548 11.0051 9.17652C11.0051 10.5876 9.86124 11.7315 8.45014 11.7315ZM24.4813 24.7506C24.4813 25.0714 24.2212 25.3315 23.9004 25.3315H21.0145C20.6937 25.3315 20.4335 25.0714 20.4335 24.7506V19.4626C20.4335 18.6737 20.6649 16.0058 18.372 16.0058C16.5934 16.0058 16.2327 17.8319 16.1602 18.6514V24.7506C16.1602 25.0714 15.9002 25.3315 15.5793 25.3315H12.7882C12.4674 25.3315 12.2073 25.0714 12.2073 24.7506V13.3751C12.2073 13.0543 12.4674 12.7942 12.7882 12.7942H15.5793C15.9001 12.7942 16.1602 13.0543 16.1602 13.3751V14.3586C16.8197 13.3689 17.7998 12.605 19.8866 12.605C24.5077 12.605 24.4813 16.9222 24.4813 19.2943V24.7506Z" fill="#212121"/>
</svg>
