<svg width="16" height="16" viewBox="0 0 16 16" fill="none" xmlns="http://www.w3.org/2000/svg">
<path d="M7.99967 1.33333C5.42234 1.33333 3.33301 3.42266 3.33301 6C3.33301 8.644 6.26901 12.5467 7.48367 14.0473C7.75034 14.3767 8.24901 14.3767 8.51567 14.0473C9.73034 12.5467 12.6663 8.644 12.6663 6C12.6663 3.42266 10.577 1.33333 7.99967 1.33333ZM7.99967 7.66666C7.07901 7.66666 6.33301 6.92066 6.33301 6C6.33301 5.07933 7.07901 4.33333 7.99967 4.33333C8.92034 4.33333 9.66634 5.07933 9.66634 6C9.66634 6.92066 8.92034 7.66666 7.99967 7.66666Z" fill="#9397B2"/>
</svg>
