<svg width="10" height="14" viewBox="0 0 10 14" fill="none" xmlns="http://www.w3.org/2000/svg">
<path d="M5.00016 0.333313C2.42283 0.333313 0.333496 2.42265 0.333496 4.99998C0.333496 7.64398 3.2695 11.5466 4.48416 13.0473C4.75083 13.3766 5.2495 13.3766 5.51616 13.0473C6.73083 11.5466 9.66683 7.64398 9.66683 4.99998C9.66683 2.42265 7.5775 0.333313 5.00016 0.333313ZM5.00016 6.66665C4.0795 6.66665 3.3335 5.92065 3.3335 4.99998C3.3335 4.07931 4.0795 3.33331 5.00016 3.33331C5.92083 3.33331 6.66683 4.07931 6.66683 4.99998C6.66683 5.92065 5.92083 6.66665 5.00016 6.66665Z" fill="#99A29C"/>
</svg>
