<svg width="120" height="120" viewBox="0 0 120 120" fill="none" xmlns="http://www.w3.org/2000/svg">
<rect width="120" height="120" rx="60" fill="#F57070" fill-opacity="0.1"/>
<circle cx="60" cy="60" r="36" fill="#F57070"/>
<path d="M52.5453 47.4584C51.1391 46.0528 48.8597 46.0533 47.4542 47.4595C46.0486 48.8658 46.0491 51.1451 47.4553 52.5507L52.5453 47.4584ZM67.8345 72.9208C69.2407 74.3263 71.5201 74.3258 72.9257 72.9196C74.3312 71.5134 74.3307 69.234 72.9245 67.8285L67.8345 72.9208ZM47.4553 52.5507L67.8345 72.9208L72.9245 67.8285L52.5453 47.4584L47.4553 52.5507Z" fill="white"/>
<path d="M72.9205 52.5453C74.3261 51.1391 74.3256 48.8597 72.9194 47.4542C71.5132 46.0486 69.2338 46.0491 67.8282 47.4553L72.9205 52.5453ZM47.4581 67.8345C46.0526 69.2407 46.0531 71.5201 47.4593 72.9257C48.8655 74.3312 51.1449 74.3307 52.5504 72.9245L47.4581 67.8345ZM67.8282 47.4553L47.4581 67.8345L52.5504 72.9245L72.9205 52.5453L67.8282 47.4553Z" fill="white"/>
</svg>
