<svg width="112" height="87" viewBox="0 0 112 87" fill="none" xmlns="http://www.w3.org/2000/svg">
<g clip-path="url(#clip0)">
<path d="M112 66.1293V3.45745e-06C74.6667 -1.47668e-05 37.3333 4.71746e-05 0 2.44274e-06V66.1293H112Z" fill="#F0F9F6"/>
<path d="M27.4179 38.3018V42.6698L24.6806 38.1562C24.5641 37.9523 24.3894 37.865 24.1564 37.865H22.6131C22.3364 37.865 22.1763 38.0251 22.1763 38.3018V47.6202C22.1763 47.8968 22.3364 48.057 22.6131 48.057H24.6515C24.9281 48.057 25.0883 47.8968 25.0883 47.6202V43.2522L27.8255 47.7658C27.942 47.9696 28.1168 48.057 28.3497 48.057H29.8931C30.1697 48.057 30.3299 47.8968 30.3299 47.6202V38.3018C30.3299 38.0251 30.1697 37.865 29.8931 37.865H27.8547C27.578 37.865 27.4179 38.0251 27.4179 38.3018Z" fill="#C7CBE0"/>
<path d="M36.8259 48.2899C39.8398 48.2899 42.2277 45.9749 42.2277 42.961C42.2277 39.9471 39.8398 37.632 36.8259 37.632C33.812 37.632 31.4241 39.9471 31.4241 42.961C31.4241 45.9749 33.812 48.2899 36.8259 48.2899ZM36.8259 45.4362C35.3845 45.4362 34.3361 44.3733 34.3361 42.961C34.3361 41.5487 35.3845 40.4858 36.8259 40.4858C38.2673 40.4858 39.3157 41.5487 39.3157 42.961C39.3157 44.3733 38.2673 45.4362 36.8259 45.4362Z" fill="#C7CBE0"/>
<path d="M46.2344 38.3018V47.6202C46.2344 47.8968 46.3946 48.057 46.6712 48.057H48.7096C48.9862 48.057 49.1464 47.8968 49.1464 47.6202V38.3018C49.1464 38.0251 48.9862 37.865 48.7096 37.865H46.6712C46.3946 37.865 46.2344 38.0251 46.2344 38.3018Z" fill="#C7CBE0"/>
<path d="M61.2283 37.865H58.4037C58.1562 37.865 57.9815 37.9669 57.8941 38.2144L56.1323 43.1939L54.3706 38.2144C54.2832 37.9669 54.1085 37.865 53.861 37.865H51.0363C50.7597 37.865 50.5996 38.0251 50.5996 38.3018V47.6202C50.5996 47.8968 50.7597 48.057 51.0363 48.057H53.0748C53.3514 48.057 53.5115 47.8968 53.5115 47.6202V42.3931L54.9239 46.4117C55.0112 46.6592 55.1714 46.7611 55.4189 46.7611H56.8458C57.0933 46.7611 57.2535 46.6592 57.3408 46.4117L58.7531 42.3931V47.6202C58.7531 47.8968 58.9133 48.057 59.1899 48.057H61.2283C61.505 48.057 61.6651 47.8968 61.6651 47.6202V38.3018C61.6651 38.0251 61.505 37.865 61.2283 37.865Z" fill="#C7CBE0"/>
<path d="M71.9933 47.5619L68.9503 38.229C68.8775 37.9815 68.7027 37.865 68.4552 37.865H65.9509C65.7034 37.865 65.5287 37.9815 65.4559 38.229L62.4128 47.5619C62.3109 47.8531 62.4565 48.057 62.7768 48.057H64.9899C65.2375 48.057 65.4122 47.9405 65.485 47.6784L65.7325 46.7466H68.6591L68.9066 47.6784C68.9794 47.9405 69.1541 48.057 69.4016 48.057H71.6147C71.9351 48.057 72.0807 47.8531 71.9787 47.5619H71.9933ZM66.3586 44.417L67.1885 41.2866L68.033 44.417H66.3586Z" fill="#C7CBE0"/>
<path d="M81.8504 42.4077H77.7736C77.497 42.4077 77.3368 42.5679 77.3368 42.8445V44.3005C77.3368 44.5771 77.497 44.7373 77.7736 44.7373H79.0986C78.7346 45.2906 78.1231 45.5818 77.1912 45.5818C75.7498 45.5818 74.7743 44.5189 74.7743 42.961C74.7743 41.5487 75.7498 40.4858 77.2203 40.4858C77.992 40.4858 78.589 40.7624 78.9821 41.1847C79.1423 41.3594 79.2879 41.4467 79.5208 41.4467H81.7339C82.0397 41.4467 82.1999 41.2575 82.0979 40.9517C81.4427 39.0589 79.5208 37.632 77.1912 37.632C74.1045 37.632 71.8623 39.9471 71.8623 42.961C71.8623 45.9749 73.9589 48.2899 76.9 48.2899C78.1813 48.2899 79.1423 47.9259 79.812 47.2562V47.6202C79.812 47.8968 79.9722 48.057 80.2488 48.057H81.8504C82.1271 48.057 82.2872 47.8968 82.2872 47.6202V42.8445C82.2872 42.5679 82.1271 42.4077 81.8504 42.4077Z" fill="#C7CBE0"/>
<path d="M89.5709 45.3779H86.5133V44.1549H89.1341C89.4107 44.1549 89.5709 43.9947 89.5709 43.7181V42.1165C89.5709 41.8399 89.4107 41.6797 89.1341 41.6797H86.5133V40.544H89.4981C89.7747 40.544 89.9349 40.3839 89.9349 40.1072V38.3018C89.9349 38.0251 89.7747 37.865 89.4981 37.865H84.0381C83.7614 37.865 83.6013 38.0251 83.6013 38.3018V47.6202C83.6013 47.8968 83.7614 48.057 84.0381 48.057H89.5709C89.8475 48.057 90.0077 47.8968 90.0077 47.6202V45.8147C90.0077 45.5381 89.8475 45.3779 89.5709 45.3779Z" fill="#C7CBE0"/>
<path d="M112 61.8725V86.016C75.1147 86.016 0 86.016 0 86.016C0 86.016 2.23236e-05 64.5615 2.23236e-05 62.2645L112 61.8725Z" fill="#E1E3F1"/>
<path d="M0 78.2444V73.6715L30.632 74.291L60.368 76.1008L30.912 70.336L0 69.0986V59.9528L112 67.152V74.9104L98.8534 75.1273L112 76.1008V78.3832L87.3085 79.1773L0 78.2444Z" fill="#C7CBE0"/>
<path d="M0 62.3279V61.3578L7.49728 60.957L19.8867 59.6421L21.5421 57.4514L40.1453 54.5663L58.0205 59.4024L65.016 61.078H90.9194L99.8323 58.7461L112 59.1318V62.1329L40.1453 62.3279H0Z" fill="#E1E3F1"/>
<path d="M112 59.132V60.3877L110.676 60.5405L102.03 59.7364L99.8325 58.7463L112 59.132Z" fill="#C7CBE0"/>
<path d="M18.5387 53.0925C19.0024 52.1898 19.0718 51.0004 18.859 49.9476C18.7851 49.5824 18.6709 49.2128 18.4469 48.9776C18.2229 48.7424 17.8645 48.6976 17.6651 48.9664C17.468 49.2308 17.4949 49.6586 17.5106 50.0304C17.5262 50.3754 17.5195 50.7204 17.4926 51.0653C17.4478 51.632 17.2731 52.2884 16.8542 52.4205C16.8498 52.4228 16.8453 52.4228 16.8408 52.4228C16.7982 49.69 16.6011 46.9796 16.0254 44.314C15.909 43.7719 15.6066 43.1021 15.0869 43.176C14.6478 43.2388 14.4552 43.792 14.3925 44.2557C14.1842 45.7946 14.4014 47.3536 14.556 48.897C14.7419 50.7764 14.827 52.6624 14.8494 54.5508C14.7218 54.5396 14.5941 54.5418 14.4664 54.5552C14.332 54.5709 14.1931 54.5956 14.061 54.5642C13.6779 54.4724 13.557 53.9908 13.5458 53.5965C13.5256 52.9514 13.5928 52.304 13.7451 51.6791C13.8414 51.2871 14.0632 50.6823 13.6578 50.3732C13.5323 50.2768 13.3598 50.2567 13.203 50.2813C12.0248 50.4583 12.3518 52.6288 12.3922 53.4487C12.4235 54.0669 12.5086 54.7053 12.8379 55.2272C13.2568 55.8925 14.0744 56.289 14.8539 56.1927C14.8293 59.3959 14.6456 62.6058 14.4597 65.8045C15.2392 65.8023 16.0165 65.8426 16.7915 65.921C16.6482 63.0224 16.7422 60.1015 16.8072 57.185C16.9842 57.1671 17.1589 57.0976 17.3134 57.0036C17.5352 56.8669 17.7211 56.6788 17.9048 56.4928C18.1534 56.242 18.4178 55.9508 18.4178 55.5968C18.4178 55.5184 18.4021 55.44 18.3618 55.3751C18.261 55.2183 18.037 55.1981 17.8555 55.2362C17.4344 55.3213 17.1029 55.608 16.8341 55.9552C16.843 55.4087 16.852 54.8644 16.8542 54.32C17.5061 54.3178 18.1646 53.825 18.5387 53.0925Z" fill="#C7CBE0"/>
<path d="M91.6113 58.3251C91.3783 57.8681 91.3425 57.27 91.45 56.7369C91.4881 56.5532 91.5441 56.3651 91.6583 56.2463C91.7726 56.1276 91.9518 56.1052 92.0526 56.2419C92.1534 56.3763 92.1377 56.5913 92.1309 56.7795C92.1242 56.9542 92.1265 57.1289 92.1399 57.3014C92.1623 57.5881 92.2519 57.9196 92.4625 57.9868C92.4647 57.9868 92.467 57.9868 92.4692 57.9891C92.4916 56.6092 92.5901 55.2406 92.8813 53.8966C92.9396 53.6233 93.0919 53.2851 93.3562 53.3231C93.578 53.3545 93.6743 53.6345 93.7079 53.8675C93.8132 54.6447 93.7034 55.431 93.625 56.2105C93.5309 57.1603 93.4884 58.1123 93.4772 59.0643C93.5421 59.0575 93.6071 59.0598 93.6698 59.0665C93.737 59.0732 93.8087 59.0867 93.8737 59.071C94.0663 59.0262 94.1268 58.782 94.1335 58.5827C94.1447 58.2579 94.1111 57.9308 94.0327 57.615C93.9834 57.4179 93.8714 57.1132 94.0775 56.9564C94.1402 56.9071 94.2276 56.8982 94.3082 56.9094C94.9041 56.999 94.7383 58.0943 94.7181 58.5087C94.7025 58.8201 94.6599 59.1427 94.4941 59.407C94.2836 59.743 93.8714 59.9423 93.4772 59.8953C93.4884 61.5126 93.5825 63.1321 93.6765 64.7471C93.2845 64.7471 92.8903 64.7651 92.5006 64.8054C92.5722 63.3427 92.5252 61.8665 92.4916 60.3948C92.402 60.3859 92.3146 60.3523 92.2362 60.303C92.1242 60.2335 92.0302 60.1395 91.9383 60.0454C91.8129 59.9177 91.6785 59.7721 91.6807 59.5929C91.6807 59.5526 91.6874 59.5123 91.7098 59.4809C91.7614 59.4025 91.8734 59.3913 91.9652 59.4115C92.178 59.454 92.3437 59.5996 92.4804 59.7743C92.4759 59.4988 92.4714 59.2233 92.4692 58.9478C92.131 58.9433 91.7994 58.6947 91.6113 58.3251Z" fill="#C7CBE0"/>
<path d="M72.036 58.6185C71.8949 58.3453 71.8747 57.9846 71.9397 57.6665C71.9621 57.5568 71.9957 57.4448 72.0651 57.3731C72.1323 57.3014 72.2421 57.288 72.3026 57.3709C72.3631 57.4515 72.3541 57.5792 72.3496 57.6934C72.3451 57.7987 72.3474 57.9017 72.3563 58.007C72.3698 58.1795 72.4235 58.3766 72.549 58.4169C72.5512 58.4169 72.5512 58.4169 72.5535 58.4169C72.5669 57.5904 72.6251 56.7683 72.7999 55.9619C72.8357 55.7984 72.9275 55.5945 73.0843 55.6169C73.2165 55.6349 73.2747 55.8029 73.2949 55.944C73.3576 56.4099 73.2927 56.8825 73.2456 57.3507C73.1896 57.9197 73.1627 58.4909 73.156 59.0643C73.1941 59.0598 73.2344 59.0621 73.2725 59.0665C73.3128 59.071 73.3554 59.0777 73.3957 59.0688C73.5122 59.0419 73.548 58.8941 73.5525 58.7753C73.5592 58.5805 73.5391 58.3833 73.492 58.1952C73.4629 58.0765 73.3957 57.8928 73.5189 57.7987C73.557 57.7696 73.6085 57.7629 73.6578 57.7696C74.0139 57.8233 73.9154 58.4797 73.9042 58.7283C73.8952 58.9142 73.8683 59.1091 73.7698 59.2681C73.6421 59.4697 73.3957 59.5885 73.1583 59.5616C73.165 60.5315 73.221 61.5037 73.277 62.4736C73.0418 62.4736 72.8043 62.4848 72.5714 62.5094C72.6139 61.6313 72.5871 60.7465 72.5669 59.864C72.5131 59.8573 72.4594 59.8371 72.4146 59.8102C72.3474 59.7677 72.2914 59.7117 72.2354 59.6557C72.1592 59.5795 72.0808 59.4921 72.0808 59.3846C72.0808 59.36 72.0853 59.3376 72.0987 59.3174C72.1301 59.2704 72.1973 59.2637 72.2511 59.2749C72.3787 59.3017 72.4795 59.3869 72.5602 59.4921C72.5579 59.3264 72.5557 59.1606 72.5535 58.9971C72.3474 58.9904 72.148 58.8403 72.036 58.6185Z" fill="#C7CBE0"/>
<path d="M9.93393 46.5964C10.2921 46.5356 10.5013 47.1097 10.5844 47.574C11.6579 53.6042 10.9234 59.9016 11.2002 66.08C10.6676 66.008 10.1331 65.972 9.59772 65.9703C9.7978 61.1474 9.99789 56.2979 9.59316 51.4939C9.4817 50.171 9.32455 48.8344 9.46159 47.5184C9.5027 47.1208 9.63335 46.6478 9.93393 46.5964Z" fill="#C7CBE0"/>
<path d="M89.2037 57.1218C89.3874 57.0973 89.4932 57.3212 89.5345 57.5024C90.069 59.8573 89.6755 62.3212 89.8001 64.736C89.5274 64.7092 89.2534 64.6965 88.9789 64.6969C89.0946 62.8107 89.2098 60.9144 89.0154 59.0367C88.962 58.52 88.8847 57.9978 88.9587 57.4828C88.9812 57.328 89.0491 57.1427 89.2037 57.1218Z" fill="#C7CBE0"/>
</g>
<defs>
<clipPath id="clip0">
<path d="M0 5.99999C0 2.68628 2.68629 0 6 0H106C109.314 0 112 2.68629 112 6V80.016C112 83.3297 109.314 86.016 106 86.016H6C2.68629 86.016 0 83.3297 0 80.016V5.99999Z" fill="white"/>
</clipPath>
</defs>
</svg>
