<svg width="16" height="16" viewBox="0 0 16 16" fill="none" xmlns="http://www.w3.org/2000/svg">
<path d="M13 10H10V9H13V10Z" fill="#FF540A"/>
<path d="M15 14H12V13H15V14Z" fill="#FF540A"/>
<path d="M14 12H11V11H14V12Z" fill="#FF540A"/>
<path d="M8.50149 10C8.49797 9.57811 8.38544 9.16429 8.17483 8.79871C7.96423 8.43312 7.66269 8.12819 7.29949 7.9135L11 1.5L10.135 1L6.34649 7.563C5.88154 7.45913 5.39797 7.4735 4.94 7.60478C4.48204 7.73606 4.0643 7.98008 3.72499 8.3145C1.85299 10.12 1.99799 14.341 2.00499 14.52C2.01016 14.6491 2.06511 14.7712 2.15833 14.8607C2.25154 14.9502 2.37578 15.0001 2.50499 15H10.0005C10.1054 15 10.2077 14.967 10.2928 14.9056C10.378 14.8443 10.4416 14.7577 10.4748 14.6581C10.508 14.5586 10.509 14.4511 10.4777 14.3509C10.4465 14.2507 10.3844 14.163 10.3005 14.1C8.53049 12.772 8.50149 10.027 8.50149 10ZM5.96499 8.4985C6.36518 8.5029 6.74826 8.66142 7.03454 8.94108C7.32082 9.22075 7.48825 9.60003 7.50199 10C7.50199 10.019 7.50299 10.104 7.51049 10.2345L4.56049 8.9225C4.75481 8.76226 4.97905 8.64226 5.22017 8.56947C5.46128 8.49668 5.71447 8.47256 5.96499 8.4985V8.4985ZM7.72499 14C7.32534 13.5931 7.07059 13.066 6.99999 12.5H5.99999C6.0358 13.0321 6.20202 13.5473 6.48399 14H5.37249C5.16687 13.3511 5.04176 12.6794 4.99999 12H3.99999C4.03224 12.6774 4.14383 13.3486 4.33249 14H2.99999C3.01549 13.082 3.14499 11.054 3.90149 9.7235L7.66799 11.3985C7.84896 12.3382 8.23477 13.2264 8.79799 14H7.72499Z" fill="#FF540A"/>
</svg>
