<svg width="16" height="16" viewBox="0 0 16 16" fill="none" xmlns="http://www.w3.org/2000/svg">
<path d="M13 10H10V9H13V10Z" fill="#6A9586"/>
<path d="M15 14H12V13H15V14Z" fill="#6A9586"/>
<path d="M14 12H11V11H14V12Z" fill="#6A9586"/>
<path d="M8.50148 10C8.49795 9.57811 8.38543 9.16429 8.17482 8.79871C7.96421 8.43312 7.66268 8.12819 7.29948 7.9135L11 1.5L10.135 1L6.34648 7.563C5.88153 7.45913 5.39795 7.4735 4.93999 7.60478C4.48202 7.73606 4.06428 7.98008 3.72498 8.3145C1.85298 10.12 1.99798 14.341 2.00498 14.52C2.01015 14.6491 2.0651 14.7712 2.15831 14.8607C2.25153 14.9502 2.37576 15.0001 2.50498 15H10.0005C10.1054 15 10.2077 14.967 10.2928 14.9056C10.378 14.8443 10.4416 14.7577 10.4748 14.6581C10.508 14.5586 10.509 14.4511 10.4777 14.3509C10.4464 14.2507 10.3844 14.163 10.3005 14.1C8.53048 12.772 8.50148 10.027 8.50148 10ZM5.96498 8.4985C6.36516 8.5029 6.74825 8.66142 7.03453 8.94108C7.3208 9.22075 7.48823 9.60003 7.50198 10C7.50198 10.019 7.50298 10.104 7.51048 10.2345L4.56048 8.9225C4.7548 8.76226 4.97904 8.64226 5.22015 8.56947C5.46127 8.49668 5.71445 8.47256 5.96498 8.4985ZM7.72498 14C7.32532 13.5931 7.07057 13.066 6.99998 12.5H5.99998C6.03579 13.0321 6.20201 13.5473 6.48398 14H5.37248C5.16685 13.3511 5.04175 12.6794 4.99998 12H3.99998C4.03222 12.6774 4.14382 13.3486 4.33248 14H2.99998C3.01548 13.082 3.14498 11.054 3.90148 9.7235L7.66798 11.3985C7.84894 12.3382 8.23476 13.2264 8.79798 14H7.72498Z" fill="#6A9586"/>
</svg>
