<svg width="17" height="17" viewBox="0 0 17 17" fill="none" xmlns="http://www.w3.org/2000/svg">
<circle cx="8.5" cy="8.5" r="8.5" fill="#707FDA"/>
<path d="M5.70711 8.29289C5.31658 7.90237 4.68342 7.90237 4.29289 8.29289C3.90237 8.68342 3.90237 9.31658 4.29289 9.70711L5.70711 8.29289ZM7.5 11.5L6.79289 12.2071C6.98627 12.4005 7.2504 12.5062 7.52379 12.4997C7.79718 12.4932 8.05598 12.375 8.23994 12.1727L7.5 11.5ZM13.2399 6.67267C13.6114 6.26402 13.5813 5.63157 13.1727 5.26006C12.764 4.88855 12.1316 4.91867 11.7601 5.32733L13.2399 6.67267ZM4.29289 9.70711L6.79289 12.2071L8.20711 10.7929L5.70711 8.29289L4.29289 9.70711ZM8.23994 12.1727L13.2399 6.67267L11.7601 5.32733L6.76006 10.8273L8.23994 12.1727Z" fill="white"/>
</svg>
