<svg width="12" height="12" viewBox="0 0 12 12" fill="none" xmlns="http://www.w3.org/2000/svg">
<path d="M10.6667 0H1.33333C0.596667 0 0 0.596667 0 1.33333V10.6667C0 11.4033 0.596667 12 1.33333 12H10.6667C11.4033 12 12 11.4033 12 10.6667V1.33333C12 0.596667 11.4033 0 10.6667 0ZM8.66667 9.33333H3.33333C2.96533 9.33333 2.66667 9.03467 2.66667 8.66667C2.66667 8.29867 2.96533 8 3.33333 8H8.66667C9.03467 8 9.33333 8.29867 9.33333 8.66667C9.33333 9.03467 9.03467 9.33333 8.66667 9.33333ZM8.66667 6.66667H3.33333C2.96533 6.66667 2.66667 6.368 2.66667 6C2.66667 5.632 2.96533 5.33333 3.33333 5.33333H8.66667C9.03467 5.33333 9.33333 5.632 9.33333 6C9.33333 6.368 9.03467 6.66667 8.66667 6.66667ZM8.66667 4H3.33333C2.96533 4 2.66667 3.70133 2.66667 3.33333C2.66667 2.96533 2.96533 2.66667 3.33333 2.66667H8.66667C9.03467 2.66667 9.33333 2.96533 9.33333 3.33333C9.33333 3.70133 9.03467 4 8.66667 4Z" fill="#C7CBE0"/>
</svg>
