<svg width="24" height="23" viewBox="0 0 24 23" fill="none" xmlns="http://www.w3.org/2000/svg">
<path d="M1.47449 2.37962C1.70849 4.18162 2.50949 8.02162 2.87249 9.64262C2.96749 10.1016 3.07349 10.4956 3.17049 10.6556C3.67149 11.5206 4.07749 10.3686 4.07749 10.3686C5.64449 5.68562 3.17049 2.66662 2.38049 1.85662C2.24149 1.70662 1.99649 1.52462 1.77249 1.46062C1.45249 1.36562 1.39849 1.54662 1.39849 1.69662C1.40849 1.84462 1.46349 2.26162 1.47349 2.37862L1.47449 2.37962ZM23.3095 0.916621C23.6195 1.14062 24.6955 2.27162 23.3095 2.44262C21.3255 2.67662 17.5495 2.81562 11.2875 8.05262C8.92049 10.0376 3.60749 15.3806 0.760494 22.0266C0.743732 22.0677 0.712475 22.1012 0.672657 22.1207C0.632838 22.1402 0.587232 22.1445 0.544494 22.1326C0.289494 22.0586 -0.169506 21.7806 0.0644939 20.7146C0.384494 19.2746 3.26549 11.7766 10.8815 5.16262C13.3665 3.00762 19.2975 -2.06938 23.3075 0.917621L23.3095 0.916621Z" fill="#FF5C00"/>
</svg>
