<svg width="21" height="24" viewBox="0 0 21 24" fill="none" xmlns="http://www.w3.org/2000/svg">
<path d="M17.317 1.80968C16.2057 0.543038 14.1969 0 11.627 0H4.16853C3.91427 9.4148e-06 3.66835 0.0907222 3.47498 0.255829C3.28162 0.420937 3.15349 0.649608 3.11364 0.900731L0.00805904 20.5971C-0.0536698 20.9855 0.247079 21.3372 0.64074 21.3372H5.24536L6.40178 14.0022L6.36589 14.2319C6.44828 13.7135 6.8917 13.331 7.4168 13.331H9.6049C13.9034 13.331 17.2692 11.5851 18.2524 6.5344C18.2816 6.38503 18.3069 6.23964 18.3288 6.0976C18.2047 6.03188 18.2047 6.03188 18.3288 6.0976C18.6215 4.23082 18.3268 2.96011 17.317 1.80968Z" fill="#27346A"/>
<path d="M8.16368 5.42512C8.28957 5.36518 8.42725 5.33412 8.56667 5.3342H14.414C15.1064 5.3342 15.7523 5.37926 16.3424 5.47425C16.5076 5.50058 16.6719 5.53202 16.8351 5.56852C17.0664 5.61956 17.295 5.68203 17.5201 5.7557C17.8103 5.8526 18.0805 5.96545 18.3288 6.0976C18.6215 4.2301 18.3268 2.96011 17.317 1.80968C16.2051 0.543038 14.1969 0 11.627 0H4.1679C3.64272 0 3.19595 0.382336 3.11364 0.900731L0.00805947 20.5964C-0.0536694 20.9854 0.247079 21.3366 0.640102 21.3366H5.24536L7.64457 6.12216C7.66816 5.97261 7.72773 5.83104 7.81816 5.70962C7.90859 5.5882 8.02716 5.49056 8.16368 5.42512Z" fill="#27346A"/>
<path d="M18.2525 6.53446C17.2693 11.5844 13.9036 13.3311 9.605 13.3311H7.41626C6.89116 13.3311 6.44766 13.7135 6.36607 14.232L4.92741 23.3521C4.87365 23.692 5.13652 24.0001 5.48041 24.0001H9.36199C9.58434 24 9.79937 23.9206 9.96842 23.7762C10.1375 23.6317 10.2494 23.4317 10.2842 23.2121L10.322 23.0143L11.0536 18.3778L11.1007 18.1215C11.1354 17.9019 11.2474 17.7019 11.4164 17.5575C11.5854 17.4131 11.8005 17.3337 12.0228 17.3336H12.6037C16.3638 17.3336 19.3081 15.806 20.1684 11.388C20.5276 9.54171 20.3418 8.00024 19.3917 6.91752C19.1036 6.58957 18.7457 6.31873 18.3289 6.09766C18.3063 6.24041 18.2818 6.38509 18.2525 6.53446Z" fill="#2790C3"/>
<path d="M17.3 5.68721C17.1467 5.64245 16.9919 5.60281 16.836 5.56838C16.6727 5.53248 16.5084 5.50126 16.3433 5.47475C15.7525 5.37913 15.1072 5.33399 14.4141 5.33399H8.56748C8.42795 5.33367 8.29017 5.365 8.16449 5.42562C8.02782 5.49087 7.90911 5.58844 7.81864 5.7099C7.72817 5.83135 7.66868 5.97303 7.6453 6.12266L6.40259 14.0021L6.3667 14.2318C6.44845 13.7133 6.89187 13.3309 7.41705 13.3309H9.60579C13.9043 13.3309 17.2701 11.5849 18.2532 6.53427C18.2825 6.38489 18.3071 6.24014 18.3297 6.09746C18.0807 5.96603 17.8112 5.85246 17.521 5.7562C17.4477 5.73192 17.3741 5.70892 17.3 5.68721" fill="#1F264F"/>
</svg>
