<svg width="74" height="17" viewBox="0 0 74 17" fill="none" xmlns="http://www.w3.org/2000/svg">
<circle cx="8.5" cy="8.5" r="8.5" fill="#F5A200"/>
<circle cx="4.5" cy="8.5" r="1.5" fill="white"/>
<circle cx="8.5" cy="8.5" r="1.5" fill="white"/>
<circle cx="12.5" cy="8.5" r="1.5" fill="white"/>
<path d="M24.7412 9.30176V13H23.0117V3.04688H26.8193C27.9313 3.04688 28.8132 3.33626 29.4648 3.91504C30.1211 4.49382 30.4492 5.25944 30.4492 6.21191C30.4492 7.18717 30.1279 7.94596 29.4854 8.48828C28.8473 9.0306 27.9518 9.30176 26.7988 9.30176H24.7412ZM24.7412 7.91406H26.8193C27.4346 7.91406 27.904 7.77051 28.2275 7.4834C28.5511 7.19173 28.7129 6.77246 28.7129 6.22559C28.7129 5.68783 28.5488 5.25944 28.2207 4.94043C27.8926 4.61686 27.4414 4.45052 26.8672 4.44141H24.7412V7.91406ZM34.9678 13.1367C33.915 13.1367 33.0605 12.8063 32.4043 12.1455C31.7526 11.4801 31.4268 10.596 31.4268 9.49316V9.28809C31.4268 8.5498 31.568 7.89128 31.8506 7.3125C32.1377 6.72917 32.5387 6.27572 33.0537 5.95215C33.5687 5.62858 34.1429 5.4668 34.7764 5.4668C35.7835 5.4668 36.5605 5.78809 37.1074 6.43066C37.6589 7.07324 37.9346 7.98242 37.9346 9.1582V9.82812H33.1016C33.1517 10.4388 33.3545 10.9219 33.71 11.2773C34.07 11.6328 34.5212 11.8105 35.0635 11.8105C35.8245 11.8105 36.4443 11.5029 36.9229 10.8877L37.8184 11.7422C37.5221 12.1842 37.1257 12.5283 36.6289 12.7744C36.1367 13.016 35.583 13.1367 34.9678 13.1367ZM34.7695 6.7998C34.3138 6.7998 33.9447 6.95931 33.6621 7.27832C33.3841 7.59733 33.2064 8.04167 33.1289 8.61133H36.2939V8.48828C36.2575 7.93229 36.1094 7.51302 35.8496 7.23047C35.5898 6.94336 35.2298 6.7998 34.7695 6.7998ZM40.7715 5.60352L40.8193 6.45801C41.3662 5.7972 42.084 5.4668 42.9727 5.4668C44.513 5.4668 45.2969 6.34863 45.3242 8.1123V13H43.6631V8.20801C43.6631 7.73861 43.5605 7.39225 43.3555 7.16895C43.1549 6.94108 42.8245 6.82715 42.3643 6.82715C41.6943 6.82715 41.1953 7.13021 40.8672 7.73633V13H39.2061V5.60352H40.7715ZM46.7119 9.24707C46.7119 8.10775 46.9762 7.19401 47.5049 6.50586C48.0335 5.81315 48.7422 5.4668 49.6309 5.4668C50.4147 5.4668 51.0482 5.74023 51.5312 6.28711V2.5H53.1924V13H51.6885L51.6064 12.2344C51.1097 12.8359 50.4466 13.1367 49.6172 13.1367C48.7513 13.1367 48.0495 12.7881 47.5117 12.0908C46.9785 11.3936 46.7119 10.4456 46.7119 9.24707ZM48.373 9.39062C48.373 10.1426 48.5166 10.7305 48.8037 11.1543C49.0954 11.5736 49.5078 11.7832 50.041 11.7832C50.7201 11.7832 51.2168 11.4801 51.5312 10.874V7.71582C51.2259 7.12337 50.7337 6.82715 50.0547 6.82715C49.5169 6.82715 49.1022 7.04134 48.8105 7.46973C48.5189 7.89355 48.373 8.53385 48.373 9.39062ZM56.6924 13H55.0312V5.60352H56.6924V13ZM54.9287 3.68262C54.9287 3.42741 55.0085 3.21549 55.168 3.04688C55.332 2.87826 55.5645 2.79395 55.8652 2.79395C56.166 2.79395 56.3984 2.87826 56.5625 3.04688C56.7266 3.21549 56.8086 3.42741 56.8086 3.68262C56.8086 3.93327 56.7266 4.1429 56.5625 4.31152C56.3984 4.47559 56.166 4.55762 55.8652 4.55762C55.5645 4.55762 55.332 4.47559 55.168 4.31152C55.0085 4.1429 54.9287 3.93327 54.9287 3.68262ZM60.0488 5.60352L60.0967 6.45801C60.6436 5.7972 61.3613 5.4668 62.25 5.4668C63.7904 5.4668 64.5742 6.34863 64.6016 8.1123V13H62.9404V8.20801C62.9404 7.73861 62.8379 7.39225 62.6328 7.16895C62.4323 6.94108 62.1019 6.82715 61.6416 6.82715C60.9717 6.82715 60.4727 7.13021 60.1445 7.73633V13H58.4834V5.60352H60.0488ZM66.0098 9.24707C66.0098 8.09863 66.2786 7.18262 66.8164 6.49902C67.3587 5.81087 68.0765 5.4668 68.9697 5.4668C69.8128 5.4668 70.4759 5.76074 70.959 6.34863L71.0342 5.60352H72.5312V12.7744C72.5312 13.7451 72.2282 14.5107 71.6221 15.0713C71.0205 15.6318 70.207 15.9121 69.1816 15.9121C68.6393 15.9121 68.1084 15.7982 67.5889 15.5703C67.0739 15.347 66.682 15.0531 66.4131 14.6885L67.1992 13.6904C67.7096 14.2965 68.3385 14.5996 69.0859 14.5996C69.6374 14.5996 70.0726 14.4492 70.3916 14.1484C70.7106 13.8522 70.8701 13.4147 70.8701 12.8359V12.3369C70.3916 12.8701 69.7536 13.1367 68.9561 13.1367C68.0902 13.1367 67.3815 12.7926 66.8301 12.1045C66.2832 11.4163 66.0098 10.4639 66.0098 9.24707ZM67.6641 9.39062C67.6641 10.1335 67.8145 10.7191 68.1152 11.1475C68.4206 11.5713 68.8421 11.7832 69.3799 11.7832C70.0498 11.7832 70.5465 11.4961 70.8701 10.9219V7.66797C70.5557 7.10742 70.0635 6.82715 69.3936 6.82715C68.8467 6.82715 68.4206 7.04362 68.1152 7.47656C67.8145 7.90951 67.6641 8.54753 67.6641 9.39062Z" fill="#F5A200"/>
</svg>
