<svg width="16" height="16" viewBox="0 0 16 16" fill="none" xmlns="http://www.w3.org/2000/svg">
<path d="M4.66659 1.3335C4.29859 1.3335 3.99992 1.63216 3.99992 2.00016V3.3335C3.99992 3.7015 4.29859 4.00016 4.66659 4.00016H11.3333C11.7013 4.00016 11.9999 3.7015 11.9999 3.3335V2.00016C11.9999 1.63216 11.7013 1.3335 11.3333 1.3335H4.66659ZM3.33325 5.3335C2.23325 5.3335 1.33325 6.2335 1.33325 7.3335V10.0002C1.33325 10.7368 1.92992 11.3335 2.66659 11.3335H3.99992V12.6668C3.99992 13.4035 4.59659 14.0002 5.33325 14.0002H10.6666C11.4033 14.0002 11.9999 13.4035 11.9999 12.6668V11.3335H13.3333C14.0699 11.3335 14.6666 10.7368 14.6666 10.0002V7.3335C14.6666 6.2335 13.7666 5.3335 12.6666 5.3335H3.33325ZM12.6666 6.66683C13.0666 6.66683 13.3333 6.9335 13.3333 7.3335C13.3333 7.7335 13.0666 8.00016 12.6666 8.00016C12.2666 8.00016 11.9999 7.7335 11.9999 7.3335C11.9999 6.9335 12.2666 6.66683 12.6666 6.66683ZM5.66659 9.3335H10.3333C10.5173 9.3335 10.6666 9.48283 10.6666 9.66683V12.3335C10.6666 12.5175 10.5173 12.6668 10.3333 12.6668H5.66659C5.48259 12.6668 5.33325 12.5175 5.33325 12.3335V9.66683C5.33325 9.48283 5.48259 9.3335 5.66659 9.3335Z" fill="#757575"/>
</svg>
