<svg width="16" height="16" viewBox="0 0 16 16" fill="none" xmlns="http://www.w3.org/2000/svg">
<g clip-path="url(#clip0)">
<path d="M8.01751 1.33333C7.79885 1.33333 7.594 1.44109 7.46934 1.62109L4.4446 6H1.33392C1.12525 6 0.929337 6.09702 0.80267 6.26302C0.677337 6.42835 0.634722 6.64308 0.689389 6.84375L2.39642 13.0208C2.55575 13.5968 3.08424 14 3.68158 14H10.2675L9.39121 10.5417C9.24721 9.975 9.36982 9.38641 9.72715 8.92708C10.0825 8.46975 10.6388 8.19791 11.2141 8.19791C11.5348 8.19791 11.8533 8.28143 12.136 8.4401L14.5006 9.76953L15.3079 6.84505C15.3632 6.64438 15.3212 6.42835 15.1959 6.26302C15.0692 6.09702 14.8726 6 14.6646 6H11.5592L8.56829 1.62369C8.44429 1.44236 8.23945 1.33399 8.02012 1.33333H8.01751ZM8.01491 3.17708L9.94329 6H6.06439L8.01491 3.17708ZM11.1646 9.53255C10.8534 9.5622 10.5957 9.86354 10.6842 10.2135L11.8808 14.9375C11.9808 15.3315 12.5109 15.4022 12.7102 15.0482L13.3535 13.9075L14.791 15.75C15.0143 16.0427 15.4332 16.0983 15.7258 15.875C16.0185 15.6517 16.0742 15.2328 15.8508 14.9401L14.4368 13.1289L15.6321 12.8268C16.0261 12.7275 16.0974 12.1968 15.7428 11.9961L11.4824 9.60156C11.3775 9.54272 11.2684 9.52266 11.1646 9.53255Z" fill="#9397B2"/>
</g>
<defs>
<clipPath id="clip0">
<rect width="16" height="16" fill="white"/>
</clipPath>
</defs>
</svg>
