<svg width="16" height="16" viewBox="0 0 16 16" fill="none" xmlns="http://www.w3.org/2000/svg">
<path d="M8.00021 1.14282C11.7871 1.14282 14.8574 4.21311 14.8574 7.99996C14.8574 11.7868 11.7871 14.8571 8.00021 14.8571C4.21335 14.8571 1.14307 11.7868 1.14307 7.99996C1.14307 4.21311 4.21335 1.14282 8.00021 1.14282ZM8.00021 10.5714C7.81077 10.5714 7.62909 10.6466 7.49513 10.7806C7.36118 10.9146 7.28592 11.0962 7.28592 11.2857C7.28592 11.4751 7.36118 11.6568 7.49513 11.7908C7.62909 11.9247 7.81077 12 8.00021 12C8.18965 12 8.37133 11.9247 8.50529 11.7908C8.63924 11.6568 8.71449 11.4751 8.71449 11.2857C8.71449 11.0962 8.63924 10.9146 8.50529 10.7806C8.37133 10.6466 8.18965 10.5714 8.00021 10.5714V10.5714ZM8.00021 3.85711C6.87849 3.85711 5.85735 4.84282 5.85735 5.99996C5.85735 6.11363 5.9025 6.22264 5.98288 6.30301C6.06325 6.38338 6.17226 6.42854 6.28592 6.42854C6.39959 6.42854 6.5086 6.38338 6.58897 6.30301C6.66934 6.22264 6.71449 6.11363 6.71449 5.99996C6.71449 5.32339 7.34535 4.71425 8.00021 4.71425C8.65507 4.71425 9.28592 5.32339 9.28592 5.99996C9.28592 6.50282 9.14821 6.79139 8.75335 7.18568L8.66478 7.27254L8.33907 7.57425C7.79907 8.09025 7.57164 8.48625 7.57164 9.14282C7.57164 9.25649 7.61679 9.3655 7.69716 9.44587C7.77754 9.52624 7.88654 9.57139 8.00021 9.57139C8.11387 9.57139 8.22288 9.52624 8.30325 9.44587C8.38363 9.3655 8.42878 9.25649 8.42878 9.14282C8.42878 8.77254 8.55049 8.55539 8.93678 8.18854L9.03049 8.10111L9.14707 7.99425L9.25964 7.88911C9.87678 7.29939 10.1431 6.81825 10.1431 5.99996C10.1431 4.84282 9.12192 3.85711 8.00021 3.85711V3.85711Z" fill="black"/>
</svg>
