<svg width="77" height="17" viewBox="0 0 77 17" fill="none" xmlns="http://www.w3.org/2000/svg">
<circle cx="8.5" cy="8.5" r="8.5" fill="#F57070"/>
<circle cx="4.5" cy="8.5" r="1.5" fill="white"/>
<circle cx="8.5" cy="8.5" r="1.5" fill="white"/>
<circle cx="12.5" cy="8.5" r="1.5" fill="white"/>
<path d="M26.6689 9.16504H24.7412V13H23.0117V3.04688H26.5117C27.6602 3.04688 28.5465 3.30436 29.1709 3.81934C29.7952 4.33431 30.1074 5.07943 30.1074 6.05469C30.1074 6.72005 29.9456 7.27832 29.6221 7.72949C29.3031 8.17611 28.8564 8.52018 28.2822 8.76172L30.5176 12.9111V13H28.665L26.6689 9.16504ZM24.7412 7.77734H26.5186C27.1019 7.77734 27.5576 7.63151 27.8857 7.33984C28.2139 7.04362 28.3779 6.6403 28.3779 6.12988C28.3779 5.59668 28.2253 5.18424 27.9199 4.89258C27.6191 4.60091 27.168 4.45052 26.5664 4.44141H24.7412V7.77734ZM34.8447 13.1367C33.792 13.1367 32.9375 12.8063 32.2812 12.1455C31.6296 11.4801 31.3037 10.596 31.3037 9.49316V9.28809C31.3037 8.5498 31.445 7.89128 31.7275 7.3125C32.0146 6.72917 32.4157 6.27572 32.9307 5.95215C33.4456 5.62858 34.0199 5.4668 34.6533 5.4668C35.6605 5.4668 36.4375 5.78809 36.9844 6.43066C37.5358 7.07324 37.8115 7.98242 37.8115 9.1582V9.82812H32.9785C33.0286 10.4388 33.2314 10.9219 33.5869 11.2773C33.9469 11.6328 34.3981 11.8105 34.9404 11.8105C35.7015 11.8105 36.3213 11.5029 36.7998 10.8877L37.6953 11.7422C37.3991 12.1842 37.0026 12.5283 36.5059 12.7744C36.0137 13.016 35.46 13.1367 34.8447 13.1367ZM34.6465 6.7998C34.1908 6.7998 33.8216 6.95931 33.5391 7.27832C33.2611 7.59733 33.0833 8.04167 33.0059 8.61133H36.1709V8.48828C36.1344 7.93229 35.9863 7.51302 35.7266 7.23047C35.4668 6.94336 35.1068 6.7998 34.6465 6.7998ZM40.8398 5.60352V13.6562C40.8398 14.4128 40.6507 14.9893 40.2725 15.3857C39.8988 15.7868 39.3496 15.9873 38.625 15.9873C38.3197 15.9873 38.0257 15.9486 37.7432 15.8711V14.5586C37.9163 14.5996 38.1123 14.6201 38.3311 14.6201C38.8825 14.6201 39.165 14.3193 39.1787 13.7178V5.60352H40.8398ZM39.0352 3.68262C39.0352 3.42741 39.1149 3.21549 39.2744 3.04688C39.4385 2.87826 39.6709 2.79395 39.9717 2.79395C40.2725 2.79395 40.5049 2.87826 40.6689 3.04688C40.833 3.21549 40.915 3.42741 40.915 3.68262C40.915 3.93327 40.833 4.1429 40.6689 4.31152C40.5049 4.47559 40.2725 4.55762 39.9717 4.55762C39.6709 4.55762 39.4385 4.47559 39.2744 4.31152C39.1149 4.1429 39.0352 3.93327 39.0352 3.68262ZM45.8779 13.1367C44.8252 13.1367 43.9707 12.8063 43.3145 12.1455C42.6628 11.4801 42.3369 10.596 42.3369 9.49316V9.28809C42.3369 8.5498 42.4782 7.89128 42.7607 7.3125C43.0479 6.72917 43.4489 6.27572 43.9639 5.95215C44.4788 5.62858 45.0531 5.4668 45.6865 5.4668C46.6937 5.4668 47.4707 5.78809 48.0176 6.43066C48.569 7.07324 48.8447 7.98242 48.8447 9.1582V9.82812H44.0117C44.0618 10.4388 44.2646 10.9219 44.6201 11.2773C44.9801 11.6328 45.4313 11.8105 45.9736 11.8105C46.7347 11.8105 47.3545 11.5029 47.833 10.8877L48.7285 11.7422C48.4323 12.1842 48.0358 12.5283 47.5391 12.7744C47.0469 13.016 46.4932 13.1367 45.8779 13.1367ZM45.6797 6.7998C45.224 6.7998 44.8548 6.95931 44.5723 7.27832C44.2943 7.59733 44.1165 8.04167 44.0391 8.61133H47.2041V8.48828C47.1676 7.93229 47.0195 7.51302 46.7598 7.23047C46.5 6.94336 46.14 6.7998 45.6797 6.7998ZM53.1787 11.8105C53.5934 11.8105 53.9375 11.6898 54.2109 11.4482C54.4844 11.2067 54.6302 10.9082 54.6484 10.5527H56.2139C56.1956 11.013 56.0521 11.4437 55.7832 11.8447C55.5143 12.2412 55.1497 12.5557 54.6895 12.7881C54.2292 13.0205 53.7324 13.1367 53.1992 13.1367C52.1647 13.1367 51.3444 12.8018 50.7383 12.1318C50.1322 11.4619 49.8291 10.5368 49.8291 9.35645V9.18555C49.8291 8.0599 50.1299 7.15983 50.7314 6.48535C51.333 5.80632 52.1533 5.4668 53.1924 5.4668C54.0719 5.4668 54.7874 5.72428 55.3389 6.23926C55.8949 6.74967 56.1865 7.42188 56.2139 8.25586H54.6484C54.6302 7.83203 54.4844 7.4834 54.2109 7.20996C53.9421 6.93652 53.598 6.7998 53.1787 6.7998C52.641 6.7998 52.2262 6.99577 51.9346 7.3877C51.6429 7.77507 51.4948 8.36523 51.4902 9.1582V9.4248C51.4902 10.2269 51.6338 10.8262 51.9209 11.2227C52.2126 11.6146 52.6318 11.8105 53.1787 11.8105ZM59.5498 3.80566V5.60352H60.8555V6.83398H59.5498V10.9629C59.5498 11.2454 59.6045 11.4505 59.7139 11.5781C59.8278 11.7012 60.0283 11.7627 60.3154 11.7627C60.5068 11.7627 60.7005 11.7399 60.8965 11.6943V12.9795C60.5182 13.0843 60.1536 13.1367 59.8027 13.1367C58.5267 13.1367 57.8887 12.4326 57.8887 11.0244V6.83398H56.6719V5.60352H57.8887V3.80566H59.5498ZM65.3877 13.1367C64.335 13.1367 63.4805 12.8063 62.8242 12.1455C62.1725 11.4801 61.8467 10.596 61.8467 9.49316V9.28809C61.8467 8.5498 61.988 7.89128 62.2705 7.3125C62.5576 6.72917 62.9587 6.27572 63.4736 5.95215C63.9886 5.62858 64.5628 5.4668 65.1963 5.4668C66.2035 5.4668 66.9805 5.78809 67.5273 6.43066C68.0788 7.07324 68.3545 7.98242 68.3545 9.1582V9.82812H63.5215C63.5716 10.4388 63.7744 10.9219 64.1299 11.2773C64.4899 11.6328 64.9411 11.8105 65.4834 11.8105C66.2445 11.8105 66.8643 11.5029 67.3428 10.8877L68.2383 11.7422C67.9421 12.1842 67.5456 12.5283 67.0488 12.7744C66.5566 13.016 66.0029 13.1367 65.3877 13.1367ZM65.1895 6.7998C64.7337 6.7998 64.3646 6.95931 64.082 7.27832C63.804 7.59733 63.6263 8.04167 63.5488 8.61133H66.7139V8.48828C66.6774 7.93229 66.5293 7.51302 66.2695 7.23047C66.0098 6.94336 65.6497 6.7998 65.1895 6.7998ZM69.3389 9.24707C69.3389 8.10775 69.6032 7.19401 70.1318 6.50586C70.6605 5.81315 71.3691 5.4668 72.2578 5.4668C73.0417 5.4668 73.6751 5.74023 74.1582 6.28711V2.5H75.8193V13H74.3154L74.2334 12.2344C73.7367 12.8359 73.0736 13.1367 72.2441 13.1367C71.3783 13.1367 70.6764 12.7881 70.1387 12.0908C69.6055 11.3936 69.3389 10.4456 69.3389 9.24707ZM71 9.39062C71 10.1426 71.1436 10.7305 71.4307 11.1543C71.7223 11.5736 72.1348 11.7832 72.668 11.7832C73.347 11.7832 73.8438 11.4801 74.1582 10.874V7.71582C73.8529 7.12337 73.3607 6.82715 72.6816 6.82715C72.1439 6.82715 71.7292 7.04134 71.4375 7.46973C71.1458 7.89355 71 8.53385 71 9.39062Z" fill="#F57070"/>
</svg>
