<svg width="20" height="20" viewBox="0 0 20 20" fill="none" xmlns="http://www.w3.org/2000/svg">
<circle cx="10.001" cy="10" r="10" fill="#707FDA"/>
<path d="M13.7668 7.20476C13.9113 7.34137 13.9956 7.52978 14.0013 7.72855C14.0069 7.92733 13.9333 8.1202 13.7968 8.26476L9.5468 12.7648C9.47792 12.8376 9.39515 12.8958 9.30337 12.9361C9.2116 12.9764 9.11268 12.9978 9.01247 12.9992C8.91225 13.0006 8.81278 12.9819 8.71991 12.9442C8.62705 12.9065 8.54268 12.8506 8.4718 12.7798L6.2218 10.5298C6.08932 10.3876 6.0172 10.1995 6.02062 10.0052C6.02405 9.81094 6.10276 9.62556 6.24018 9.48814C6.37759 9.35073 6.56298 9.27202 6.75728 9.26859C6.95158 9.26516 7.13962 9.33728 7.2818 9.46976L8.9868 11.1738L12.7068 7.23476C12.8434 7.09026 13.0318 7.00593 13.2306 7.0003C13.4294 6.99467 13.6222 7.06822 13.7668 7.20476Z" fill="white"/>
</svg>
