<svg width="21" height="20" viewBox="0 0 21 20" fill="none" xmlns="http://www.w3.org/2000/svg">
<circle opacity="0.2" cx="10.0518" cy="10" r="10" fill="#707FDA"/>
<path d="M11.1464 10.0424L14.8676 6.32399C14.9931 6.17763 15.0586 5.98935 15.0512 5.79679C15.0437 5.60423 14.9639 5.42157 14.8275 5.2853C14.6911 5.14904 14.5083 5.06922 14.3156 5.06178C14.1229 5.05434 13.9345 5.11984 13.788 5.24518L10.0667 8.92537L6.32247 5.18398C6.17599 5.05863 5.98757 4.99313 5.79486 5.00057C5.60215 5.00801 5.41935 5.08783 5.28298 5.2241C5.14662 5.36036 5.06673 5.54302 5.05929 5.73558C5.05184 5.92814 5.11739 6.11642 5.24283 6.26278L8.97943 10.0424L5.3194 13.6538C5.23925 13.7223 5.17415 13.8067 5.12819 13.9017C5.08223 13.9966 5.0564 14.1 5.05233 14.2054C5.04826 14.3107 5.06602 14.4158 5.10452 14.514C5.14301 14.6122 5.2014 14.7013 5.27603 14.7759C5.35065 14.8505 5.43989 14.9088 5.53814 14.9473C5.6364 14.9857 5.74156 15.0035 5.84701 14.9994C5.95246 14.9954 6.05593 14.9696 6.15093 14.9236C6.24592 14.8777 6.33039 14.8127 6.39903 14.7326L10.0514 11.083L13.6808 14.7096C13.8273 14.835 14.0157 14.9005 14.2084 14.893C14.4011 14.8856 14.5839 14.8057 14.7203 14.6695C14.8567 14.5332 14.9365 14.3506 14.944 14.158C14.9514 13.9654 14.8859 13.7772 14.7604 13.6308L11.1464 10.0424Z" fill="#707FDA"/>
</svg>
