<svg width="43" height="42" viewBox="0 0 43 42" fill="none" xmlns="http://www.w3.org/2000/svg">
<rect x="0.0517578" width="42" height="42" rx="21" fill="#F6F7FC"/>
<path d="M27.274 13H14.8295C13.8473 13 13.0518 13.7956 13.0518 14.7778V27.2222C13.0518 28.2044 13.8473 29 14.8295 29H27.274C28.2562 29 29.0518 28.2044 29.0518 27.2222V14.7778C29.0518 13.7956 28.2562 13 27.274 13ZM24.6073 25.4444H17.4962C17.0055 25.4444 16.6073 25.0462 16.6073 24.5556C16.6073 24.0649 17.0055 23.6667 17.4962 23.6667H24.6073C25.098 23.6667 25.4962 24.0649 25.4962 24.5556C25.4962 25.0462 25.098 25.4444 24.6073 25.4444ZM24.6073 21.8889H17.4962C17.0055 21.8889 16.6073 21.4907 16.6073 21C16.6073 20.5093 17.0055 20.1111 17.4962 20.1111H24.6073C25.098 20.1111 25.4962 20.5093 25.4962 21C25.4962 21.4907 25.098 21.8889 24.6073 21.8889ZM24.6073 18.3333H17.4962C17.0055 18.3333 16.6073 17.9351 16.6073 17.4444C16.6073 16.9538 17.0055 16.5556 17.4962 16.5556H24.6073C25.098 16.5556 25.4962 16.9538 25.4962 17.4444C25.4962 17.9351 25.098 18.3333 24.6073 18.3333Z" fill="#707FDA"/>
</svg>
