<svg width="43" height="42" viewBox="0 0 43 42" fill="none" xmlns="http://www.w3.org/2000/svg">
<rect x="0.0517578" width="42" height="42" rx="21" fill="#F6F7FC"/>
<path d="M12.0518 14V27H30.0518V14H12.0518ZM16.5518 25.1429C16.5518 24.404 16.2673 23.6955 15.7609 23.1731C15.2546 22.6506 14.5678 22.3571 13.8518 22.3571V18.6429C14.5678 18.6429 15.2546 18.3494 15.7609 17.8269C16.2673 17.3045 16.5518 16.596 16.5518 15.8571H25.5518C25.5518 16.596 25.8362 17.3045 26.3426 17.8269C26.8489 18.3494 27.5357 18.6429 28.2518 18.6429V22.3571C27.5357 22.3571 26.8489 22.6506 26.3426 23.1731C25.8362 23.6955 25.5518 24.404 25.5518 25.1429H16.5518ZM21.0518 17.7143C22.0418 17.7143 22.8518 18.9214 22.8518 20.5C22.8518 22.0786 22.0418 23.2857 21.0518 23.2857C20.0618 23.2857 19.2518 22.0786 19.2518 20.5C19.2518 18.9214 20.0618 17.7143 21.0518 17.7143Z" fill="#707FDA"/>
</svg>
