<svg width="43" height="42" viewBox="0 0 43 42" fill="none" xmlns="http://www.w3.org/2000/svg">
<rect x="0.0517578" width="42" height="42" rx="21" fill="#F6F7FC"/>
<path d="M21.3474 13C13.3474 13 10.3474 20.5 10.3474 20.5C10.3474 20.5 13.3474 28 21.3474 28C29.3474 28 32.3474 20.5 32.3474 20.5C32.3474 20.5 29.3474 13 21.3474 13ZM21.3474 15.8125C24.1084 15.8125 26.3474 17.9116 26.3474 20.5C26.3474 23.0884 24.1084 25.1875 21.3474 25.1875C18.5864 25.1875 16.3474 23.0884 16.3474 20.5C16.3474 17.9116 18.5864 15.8125 21.3474 15.8125ZM21.3474 17.6875C20.5518 17.6875 19.7887 17.9838 19.2261 18.5113C18.6635 19.0387 18.3474 19.7541 18.3474 20.5C18.3474 21.2459 18.6635 21.9613 19.2261 22.4887C19.7887 23.0162 20.5518 23.3125 21.3474 23.3125C22.1431 23.3125 22.9061 23.0162 23.4687 22.4887C24.0313 21.9613 24.3474 21.2459 24.3474 20.5C24.3474 19.7541 24.0313 19.0387 23.4687 18.5113C22.9061 17.9838 22.1431 17.6875 21.3474 17.6875Z" fill="#707FDA"/>
</svg>
