<svg width="17" height="16" viewBox="0 0 17 16" fill="none" xmlns="http://www.w3.org/2000/svg">
<path d="M14.4192 4.64086C14.2917 3.93711 13.6842 3.42461 12.9792 3.26461C11.9242 3.04086 9.97172 2.88086 7.85922 2.88086C5.74797 2.88086 3.76422 3.04086 2.70797 3.26461C2.00422 3.42461 1.39547 3.90461 1.26797 4.64086C1.13922 5.44086 1.01172 6.56086 1.01172 8.00086C1.01172 9.44086 1.13922 10.5609 1.29922 11.3609C1.42797 12.0646 2.03547 12.5771 2.73922 12.7371C3.85922 12.9609 5.77922 13.1209 7.89172 13.1209C10.0042 13.1209 11.9242 12.9609 13.0442 12.7371C13.748 12.5771 14.3555 12.0971 14.4842 11.3609C14.6117 10.5609 14.7717 9.40836 14.8042 8.00086C14.7392 6.56086 14.5792 5.44086 14.4192 4.64086ZM6.13172 10.2409V5.76086L10.0355 8.00086L6.13172 10.2409Z" fill="#9397B2"/>
</svg>
