<svg width="13" height="13" viewBox="0 0 13 13" fill="none" xmlns="http://www.w3.org/2000/svg">
<circle cx="6.5" cy="6.5" r="6.5" fill="#707FDA"/>
<path d="M4.55287 6.67502C4.27297 6.36969 3.79855 6.34906 3.49321 6.62895C3.18787 6.90885 3.16724 7.38327 3.44713 7.68861L4.55287 6.67502ZM5.66667 9L5.1138 9.50679C5.26003 9.66631 5.46803 9.7549 5.68437 9.74979C5.90071 9.74468 6.1043 9.64638 6.24283 9.48014L5.66667 9ZM9.57617 5.48014C9.84134 5.16193 9.79835 4.68901 9.48014 4.42383C9.16193 4.15866 8.68901 4.20165 8.42383 4.51986L9.57617 5.48014ZM3.44713 7.68861L5.1138 9.50679L6.21953 8.49321L4.55287 6.67502L3.44713 7.68861ZM6.24283 9.48014L9.57617 5.48014L8.42383 4.51986L5.0905 8.51986L6.24283 9.48014Z" fill="white"/>
</svg>
