<svg width="30" height="31" viewBox="0 0 30 31" fill="none" xmlns="http://www.w3.org/2000/svg">
<path d="M18 7.57617C15.8391 7.57617 13.8 8.64961 12.6 10.3887V22.5762H25.5C27.9609 22.5762 30 20.5371 30 18.0762C30 15.6152 27.9609 13.5762 25.5 13.5762C25.2 13.5762 24.9 13.6277 24.6 13.6887C24.3 10.2691 21.4805 7.57617 18 7.57617ZM10.2 10.5762C9.78047 10.5762 9.36094 10.6277 9 10.6887V22.5762H10.2V10.5762ZM10.8 10.5762V22.5762H12V10.8762C11.6391 10.7566 11.2195 10.6371 10.8 10.5762ZM8.4 10.8762C7.98047 11.0566 7.56094 11.2371 7.2 11.4762V22.5762H8.4V10.8762ZM6.6 11.9637C6.11953 12.3832 5.7 12.9199 5.4 13.5199V22.5762H6.6V11.9637ZM3.9 14.1762C3.79453 14.1832 3.68906 14.202 3.6 14.2324V22.5199C3.78047 22.5809 4.01953 22.5762 4.2 22.5762H4.8V14.2324C4.61953 14.1715 4.38047 14.1762 4.2 14.1762C4.11094 14.1762 4.00547 14.1691 3.9 14.1762ZM3 14.3637C2.58047 14.4832 2.16094 14.6637 1.8 14.9637V21.7887C2.16094 22.0277 2.58047 22.2691 3 22.3887V14.3637ZM1.2 15.4324C0.480469 16.2129 0 17.2371 0 18.3762C0 19.5152 0.480469 20.5395 1.2 21.3199V15.4324Z" fill="#212121"/>
</svg>
