<svg width="30" height="30" viewBox="0 0 30 30" fill="none" xmlns="http://www.w3.org/2000/svg">
<path d="M18 6.59998C15.8391 6.59998 13.8 7.67341 12.6 9.41248V21.6H25.5C27.9609 21.6 30 19.5609 30 17.1C30 14.639 27.9609 12.6 25.5 12.6C25.2 12.6 24.9 12.6515 24.6 12.7125C24.3 9.29294 21.4805 6.59998 18 6.59998ZM10.2 9.59998C9.78047 9.59998 9.36094 9.65154 9 9.71248V21.6H10.2V9.59998ZM10.8 9.59998V21.6H12V9.89998C11.6391 9.78044 11.2195 9.66091 10.8 9.59998ZM8.4 9.89998C7.98047 10.0804 7.56094 10.2609 7.2 10.5V21.6H8.4V9.89998ZM6.6 10.9875C6.11953 11.407 5.7 11.9437 5.4 12.5437V21.6H6.6V10.9875ZM3.9 13.2C3.79453 13.207 3.68906 13.2258 3.6 13.2562V21.5437C3.78047 21.6047 4.01953 21.6 4.2 21.6H4.8V13.2562C4.61953 13.1953 4.38047 13.2 4.2 13.2C4.11094 13.2 4.00547 13.1929 3.9 13.2ZM3 13.3875C2.58047 13.507 2.16094 13.6875 1.8 13.9875V20.8125C2.16094 21.0515 2.58047 21.2929 3 21.4125V13.3875ZM1.2 14.4562C0.480469 15.2367 0 16.2609 0 17.4C0 18.539 0.480469 19.5633 1.2 20.3437V14.4562Z" fill="#99A29C"/>
</svg>
