<svg width="33" height="33" viewBox="0 0 33 33" fill="none" xmlns="http://www.w3.org/2000/svg">
<rect x="0.435547" y="0.5" width="32" height="32" rx="16" fill="white"/>
<g clip-path="url(#clip0_1_121657)">
<path d="M11.9564 10.1001C11.4689 10.1001 11.1022 10.6334 11.1022 10.6334C8.31021 10.6334 9.85061 15.0899 9.03034 15.747C9.03034 15.747 9.53315 16.3688 11.1022 16.3688V16.9011C10.6686 18.0307 8.43555 17.6132 8.43555 19.7001H12.7147C13.0902 19.4729 14.3022 18.8428 14.3022 18.8428C14.0126 18.5335 13.5948 17.9986 13.4428 17.5938C13.11 17.4269 12.8286 17.2307 12.7022 16.9011V16.3626C12.8035 16.3626 13.1024 16.3392 13.2074 16.3157C12.9696 15.9493 12.7689 15.1142 12.7689 14.6459C12.7689 13.455 13.2818 12.4754 14.1324 11.8616C13.8759 10.8797 13.3062 10.1001 11.9564 10.1001ZM20.7022 10.1001C19.5166 10.1001 18.7886 10.9157 18.6126 11.9845C19.4745 12.4463 20.0355 13.4421 20.0355 14.6959C20.0355 15.0879 19.9441 15.4651 19.8449 15.7574C19.8817 15.9019 19.9022 16.0631 19.9022 16.2418C19.9022 17.5591 18.5689 18.873 18.5689 18.873C18.8585 18.9994 19.785 19.4702 20.1637 19.7001H24.4355C24.4355 16.9001 22.1619 17.7001 21.7689 16.5001V15.7001C21.9459 15.611 22.3676 14.9978 22.421 14.5188C22.5596 14.5082 22.8355 14.1692 22.8355 13.8657C22.8355 13.5623 22.7391 13.4346 22.6553 13.3855C22.6553 13.3855 22.8355 12.9849 22.8355 12.5001C22.8355 11.5289 22.5731 10.6334 21.7689 10.6334C21.7689 10.6334 21.5379 10.1001 20.7022 10.1001ZM16.4355 12.2334C14.9998 12.2334 13.8355 13.0982 13.8355 14.6459C13.8355 15.3003 14.2022 15.8105 14.2022 15.8105C14.2022 15.8105 14.0355 15.8924 14.0355 16.2418C14.0355 16.9207 14.472 17.0834 14.472 17.0834C14.5328 17.621 15.3689 18.4084 15.3689 18.4084V19.3074C14.9198 20.6546 12.1689 19.7668 12.1689 22.9001H20.7022C20.7022 19.7561 17.9513 20.6546 17.5022 19.3074V18.4084C17.5022 18.4084 18.3383 17.621 18.3991 17.0834C18.3991 17.0834 18.8355 16.782 18.8355 16.2418C18.8355 15.8674 18.6689 15.8105 18.6689 15.8105C18.6689 15.8105 18.9689 15.2399 18.9689 14.6959C18.9689 13.6053 18.4217 12.7668 17.5022 12.7668C17.5022 12.7668 17.1118 12.2334 16.4355 12.2334Z" fill="#707FDA"/>
</g>
<defs>
<clipPath id="clip0_1_121657">
<rect width="16" height="16" fill="white" transform="translate(8.43555 8.5)"/>
</clipPath>
</defs>
</svg>
