<svg width="17" height="16" viewBox="0 0 17 16" fill="none" xmlns="http://www.w3.org/2000/svg">
<path d="M9.07831 3.07666C4.15524 3.07666 2.30908 7.69204 2.30908 7.69204C2.30908 7.69204 4.15524 12.3074 9.07831 12.3074C14.0014 12.3074 15.8475 7.69204 15.8475 7.69204C15.8475 7.69204 14.0014 3.07666 9.07831 3.07666ZM9.07831 4.80743C10.7774 4.80743 12.1552 6.09916 12.1552 7.69204C12.1552 9.28493 10.7774 10.5767 9.07831 10.5767C7.37924 10.5767 6.00139 9.28493 6.00139 7.69204C6.00139 6.09916 7.37924 4.80743 9.07831 4.80743ZM9.07831 5.96128C8.58868 5.96128 8.11911 6.14362 7.77288 6.46821C7.42666 6.79279 7.23216 7.23302 7.23216 7.69204C7.23216 8.15107 7.42666 8.5913 7.77288 8.91588C8.11911 9.24047 8.58868 9.42281 9.07831 9.42281C9.56794 9.42281 10.0375 9.24047 10.3837 8.91588C10.73 8.5913 10.9245 8.15107 10.9245 7.69204C10.9245 7.23302 10.73 6.79279 10.3837 6.46821C10.0375 6.14362 9.56794 5.96128 9.07831 5.96128Z" fill="#9397B2"/>
</svg>
