<svg width="17" height="16" viewBox="0 0 17 16" fill="none" xmlns="http://www.w3.org/2000/svg">
<path d="M9.14221 1.74609C5.41777 1.74609 2.3877 4.77617 2.3877 8.50061C2.3877 12.2251 5.41777 15.2551 9.14221 15.2551C12.8667 15.2551 15.8967 12.2251 15.8967 8.50061C15.8967 4.77617 12.8667 1.74609 9.14221 1.74609ZM9.14221 13.9042C6.16279 13.9042 3.7386 11.48 3.7386 8.50061C3.7386 5.52119 6.16279 3.097 9.14221 3.097C12.1216 3.097 14.5458 5.52119 14.5458 8.50061C14.5458 11.48 12.1216 13.9042 9.14221 13.9042Z" fill="#9397B2"/>
<path d="M9.8177 5.12329H8.4668V8.78019L10.6911 11.0044L11.6461 10.0494L9.8177 8.22091V5.12329Z" fill="#9397B2"/>
</svg>
