<svg width="24" height="24" viewBox="0 0 24 24" fill="none" xmlns="http://www.w3.org/2000/svg">
<path d="M20.7846 2.39218C20.7548 2.39312 20.725 2.39573 20.6955 2.39999H16.0002C15.8942 2.39849 15.7889 2.41808 15.6906 2.45761C15.5922 2.49714 15.5026 2.55583 15.4272 2.63026C15.3517 2.7047 15.2917 2.7934 15.2508 2.8912C15.2099 2.98901 15.1888 3.09397 15.1888 3.19999C15.1888 3.30601 15.2099 3.41097 15.2508 3.50878C15.2917 3.60659 15.3517 3.69528 15.4272 3.76972C15.5026 3.84416 15.5922 3.90284 15.6906 3.94237C15.7889 3.98191 15.8942 4.00149 16.0002 3.99999H18.8689L10.6346 12.2344C10.5578 12.3081 10.4965 12.3964 10.4543 12.4941C10.412 12.5918 10.3897 12.6969 10.3886 12.8034C10.3876 12.9098 10.4077 13.0154 10.448 13.1139C10.4882 13.2125 10.5477 13.302 10.6229 13.3772C10.6982 13.4525 10.7877 13.512 10.8863 13.5522C10.9848 13.5925 11.0904 13.6126 11.1968 13.6115C11.3033 13.6105 11.4084 13.5882 11.5061 13.5459C11.6038 13.5037 11.6921 13.4424 11.7658 13.3656L20.0002 5.13124V7.99999C19.9987 8.106 20.0183 8.21125 20.0578 8.30963C20.0973 8.408 20.156 8.49754 20.2305 8.57303C20.3049 8.64853 20.3936 8.70848 20.4914 8.7494C20.5892 8.79031 20.6942 8.81139 20.8002 8.81139C20.9062 8.81139 21.0112 8.79031 21.109 8.7494C21.2068 8.70848 21.2955 8.64853 21.3699 8.57303C21.4444 8.49754 21.503 8.408 21.5426 8.30963C21.5821 8.21125 21.6017 8.106 21.6002 7.99999V3.30155C21.6161 3.18637 21.6068 3.06911 21.5728 2.95791C21.5387 2.84672 21.4809 2.74428 21.4033 2.65772C21.3256 2.57116 21.2301 2.50256 21.1232 2.4567C21.0164 2.41084 20.9008 2.38882 20.7846 2.39218ZM4.8002 5.59999C3.92575 5.59999 3.2002 6.32554 3.2002 7.19999V19.2C3.2002 20.0744 3.92575 20.8 4.8002 20.8H16.8002C17.6746 20.8 18.4002 20.0744 18.4002 19.2V11.2V9.13749L16.8002 10.7375V12.8V19.2H4.8002V7.19999H11.2002H12.8002H13.2627L14.8627 5.59999H12.8002H11.2002H4.8002Z" fill="#9397B2"/>
</svg>
