<svg width="30" height="31" viewBox="0 0 30 31" fill="none" xmlns="http://www.w3.org/2000/svg">
<path d="M11.5684 16.4217C9.65745 16.4217 8.11362 17.9655 8.14186 19.8576C8.16069 21.072 8.82905 22.1263 9.81278 22.7147C9.47859 22.2016 9.28091 21.5945 9.27149 20.9402C9.24325 19.0481 10.7871 17.5042 12.698 17.5042C13.0746 17.5042 13.437 17.5654 13.7759 17.6737V13.8847C13.4229 13.8329 13.0605 13.8047 12.698 13.8047C12.6792 13.8047 12.6651 13.8047 12.6463 13.8047V16.5911C12.3074 16.4829 11.945 16.4217 11.5684 16.4217Z" fill="#7A7A7A"/>
<path d="M19.8289 5.05957H19.8007H18.8217C19.1041 6.47632 19.8995 7.7095 21.0103 8.54731C20.2808 7.58242 19.8383 6.37748 19.8289 5.05957Z" fill="#7A7A7A"/>
<path d="M25.59 10.8252C25.2182 10.8252 24.8605 10.7876 24.5075 10.7217V13.4375C23.2272 13.4375 21.9846 13.188 20.8173 12.6891C20.0642 12.3691 19.3629 11.9596 18.7181 11.4654L18.7369 19.8388C18.7275 21.7215 17.9838 23.4865 16.6377 24.8186C15.541 25.9011 14.1525 26.593 12.6463 26.8142C12.2933 26.866 11.9309 26.8943 11.5685 26.8943C9.95872 26.8943 8.42431 26.3718 7.177 25.4069C7.31821 25.5764 7.46882 25.7411 7.63356 25.9011C8.98912 27.2379 10.7871 27.9768 12.7028 27.9768C13.0652 27.9768 13.4276 27.9486 13.7807 27.8968C15.2868 27.6756 16.6753 26.9837 17.772 25.9011C19.1182 24.5691 19.8618 22.804 19.8713 20.9213L19.8007 12.5479C20.4408 13.0421 21.1421 13.4563 21.8999 13.7717C23.0719 14.2659 24.3145 14.5201 25.59 14.5201" fill="#7A7A7A"/>
<path d="M7.6195 15.8894C8.96094 14.5573 10.7448 13.8184 12.6464 13.8042V12.8017C12.2934 12.7499 11.9309 12.7217 11.5685 12.7217C9.64813 12.7217 7.84543 13.4606 6.48987 14.8068C5.15784 16.1294 4.39534 17.9368 4.40005 19.8148C4.40005 21.707 5.14843 23.4814 6.49928 24.8229C6.71579 25.0347 6.93701 25.2324 7.17235 25.4112C6.10862 24.1451 5.52968 22.5636 5.52497 20.8974C5.52968 19.0194 6.28747 17.212 7.6195 15.8894Z" fill="#212121"/>
<path d="M24.5075 10.7214V9.71416H24.4981C23.1896 9.71416 21.9846 9.28113 21.015 8.54688C21.8575 9.65768 23.0907 10.4484 24.5075 10.7214Z" fill="white"/>
<path d="M12.5052 24.2723C12.9523 24.2958 13.3806 24.2347 13.776 24.1076C15.141 23.6604 16.1247 22.3896 16.1247 20.8928L16.1294 15.2917V5.05913H18.8217C18.7511 4.70612 18.7134 4.3484 18.7087 3.97656H14.9998V14.2045L14.995 19.8055C14.995 21.3023 14.0113 22.5732 12.6464 23.0203C12.251 23.1521 11.8227 23.2133 11.3755 23.185C10.806 23.1521 10.2741 22.9826 9.81287 22.7096C10.3918 23.6039 11.3802 24.2111 12.5052 24.2723Z" fill="#212121"/>
<path d="M12.6464 26.8144C14.1526 26.5932 15.5411 25.9013 16.6377 24.8187C17.9839 23.4867 18.7276 21.7217 18.737 19.8389L18.7182 11.4655C19.3583 11.9597 20.0596 12.3739 20.8174 12.6893C21.9894 13.1835 23.232 13.4377 24.5075 13.4377V10.7219C23.0908 10.4489 21.8576 9.65812 21.0151 8.54731C19.9043 7.7095 19.1041 6.47632 18.8264 5.05957H16.1294V15.2875L16.1247 20.8886C16.1247 22.3853 15.141 23.6562 13.776 24.1033C13.3806 24.2351 12.9523 24.2963 12.5052 24.268C11.3755 24.2069 10.3918 23.5997 9.81288 22.7101C8.82916 22.1264 8.16079 21.0674 8.14196 19.8531C8.11372 17.9609 9.65755 16.4171 11.5685 16.4171C11.9451 16.4171 12.3075 16.4783 12.6464 16.5865V13.8001C10.7448 13.8142 8.96095 14.5532 7.61951 15.8852C6.28748 17.2078 5.52498 19.0152 5.52968 20.8886C5.52968 22.5548 6.10862 24.1363 7.17707 25.4024C8.42908 26.3673 9.95879 26.8897 11.5685 26.8897C11.9309 26.8944 12.2934 26.8662 12.6464 26.8144Z" fill="#212121"/>
</svg>
