<svg width="30" height="30" viewBox="0 0 30 30" fill="none" xmlns="http://www.w3.org/2000/svg">
<path d="M11.5685 15.4449C9.65757 15.4449 8.11374 16.9888 8.14198 18.8809C8.16081 20.0953 8.82918 21.1496 9.8129 21.7379C9.47872 21.2249 9.28103 20.6177 9.27162 19.9635C9.24338 18.0713 10.7872 16.5275 12.6982 16.5275C13.0747 16.5275 13.4371 16.5887 13.776 16.6969V12.908C13.423 12.8562 13.0606 12.8279 12.6982 12.8279C12.6793 12.8279 12.6652 12.8279 12.6464 12.8279V15.6144C12.3075 15.5061 11.9451 15.4449 11.5685 15.4449Z" fill="#9397B2" fill-opacity="0.8"/>
<path d="M19.8288 4.08264H19.8005H18.8215C19.1039 5.49939 19.8994 6.73257 21.0102 7.57038C20.2806 6.60549 19.8382 5.40055 19.8288 4.08264Z" fill="#9397B2" fill-opacity="0.8"/>
<path d="M25.59 9.84854C25.2182 9.84854 24.8605 9.81089 24.5075 9.745V12.4608C23.2272 12.4608 21.9846 12.2114 20.8173 11.7124C20.0642 11.3924 19.3629 10.9829 18.7181 10.4887L18.7369 18.8621C18.7275 20.7448 17.9838 22.5099 16.6377 23.8419C15.541 24.9244 14.1525 25.6163 12.6463 25.8376C12.2933 25.8893 11.9309 25.9176 11.5685 25.9176C9.95872 25.9176 8.42431 25.3951 7.177 24.4302C7.31821 24.5997 7.46882 24.7644 7.63356 24.9244C8.98912 26.2612 10.7871 27.0001 12.7028 27.0001C13.0652 27.0001 13.4276 26.9719 13.7807 26.9201C15.2868 26.6989 16.6753 26.007 17.772 24.9244C19.1182 23.5924 19.8618 21.8274 19.8713 19.9446L19.8007 11.5712C20.4408 12.0655 21.1421 12.4796 21.8999 12.795C23.0719 13.2892 24.3145 13.5434 25.59 13.5434" fill="#9397B2" fill-opacity="0.8"/>
<path d="M7.61938 14.913C8.96082 13.581 10.7447 12.842 12.6462 12.8279V11.8254C12.2932 11.7736 11.9308 11.7454 11.5684 11.7454C9.64801 11.7454 7.8453 12.4843 6.48975 13.8305C5.15772 15.1531 4.39522 16.9605 4.39992 18.8385C4.39992 20.7307 5.14831 22.5051 6.49916 23.8466C6.71567 24.0584 6.93689 24.256 7.17223 24.4349C6.10849 23.1688 5.52956 21.5873 5.52485 19.9211C5.52956 18.0431 6.28735 16.2357 7.61938 14.913Z" fill="#9397B2" fill-opacity="0.7"/>
<path d="M24.5073 9.74454V8.73729H24.4979C23.1894 8.73729 21.9845 8.30427 21.0149 7.57001C21.8574 8.68081 23.0906 9.47155 24.5073 9.74454Z" fill="#9397B2" fill-opacity="0.7"/>
<path d="M12.505 23.2957C12.9522 23.3193 13.3805 23.2581 13.7759 23.131C15.1408 22.6839 16.1246 21.413 16.1246 19.9163L16.1293 14.3152V4.08257H18.8216C18.751 3.72955 18.7133 3.37184 18.7086 3H14.9996V13.2279L14.9949 18.829C14.9949 20.3257 14.0112 21.5966 12.6462 22.0437C12.2509 22.1755 11.8225 22.2367 11.3754 22.2085C10.8059 22.1755 10.274 22.0061 9.81274 21.7331C10.3917 22.6274 11.3801 23.2346 12.505 23.2957Z" fill="#9397B2" fill-opacity="0.7"/>
<path d="M12.6463 25.8374C14.1524 25.6162 15.5409 24.9243 16.6376 23.8417C17.9838 22.5097 18.7274 20.7447 18.7369 18.8619L18.718 10.4885C19.3582 10.9828 20.0595 11.397 20.8173 11.7123C21.9893 12.2065 23.2319 12.4607 24.5074 12.4607V9.74487C23.0907 9.47187 21.8575 8.68113 21.015 7.57032C19.9041 6.73251 19.104 5.49933 18.8263 4.08258H16.1293V14.3105L16.1246 19.9116C16.1246 21.4083 15.1409 22.6792 13.7759 23.1263C13.3805 23.2581 12.9522 23.3193 12.505 23.2911C11.3754 23.2299 10.3917 22.6227 9.81276 21.7331C8.82903 21.1495 8.16067 20.0904 8.14184 18.8761C8.1136 16.9839 9.65743 15.4401 11.5684 15.4401C11.9449 15.4401 12.3074 15.5013 12.6463 15.6095V12.8231C10.7447 12.8372 8.96082 13.5762 7.61938 14.9082C6.28736 16.2308 5.52486 18.0383 5.52956 19.9116C5.52956 21.5778 6.1085 23.1593 7.17694 24.4254C8.42895 25.3903 9.95867 25.9127 11.5684 25.9127C11.9308 25.9175 12.2932 25.8892 12.6463 25.8374Z" fill="#99A29C"/>
</svg>
