<svg width="30" height="31" viewBox="0 0 30 31" fill="none" xmlns="http://www.w3.org/2000/svg">
<path d="M27 8.28506C26.1075 8.67656 25.1565 8.93606 24.165 9.06206C25.185 8.45306 25.9635 7.49606 26.3295 6.34256C25.3785 6.90956 24.3285 7.31006 23.2095 7.53356C22.3065 6.57206 21.0195 5.97656 19.6155 5.97656C16.8915 5.97656 14.6985 8.18756 14.6985 10.8981C14.6985 11.2881 14.7315 11.6631 14.8125 12.0201C10.722 11.8206 7.1025 9.86006 4.671 6.87356C4.2465 7.61006 3.9975 8.45306 3.9975 9.36056C3.9975 11.0646 4.875 12.5751 6.183 13.4496C5.3925 13.4346 4.617 13.2051 3.96 12.8436C3.96 12.8586 3.96 12.8781 3.96 12.8976C3.96 15.2886 5.6655 17.2746 7.902 17.7321C7.5015 17.8416 7.065 17.8941 6.612 17.8941C6.297 17.8941 5.979 17.8761 5.6805 17.8101C6.318 19.7586 8.127 21.1911 10.278 21.2376C8.604 22.5471 6.4785 23.3361 4.1775 23.3361C3.774 23.3361 3.387 23.3181 3 23.2686C5.1795 24.6741 7.7625 25.4766 10.548 25.4766C19.602 25.4766 24.552 17.9766 24.552 11.4756C24.552 11.2581 24.5445 11.0481 24.534 10.8396C25.5105 10.1466 26.331 9.28106 27 8.28506Z" fill="#212121"/>
</svg>
