<svg width="31" height="31" viewBox="0 0 31 31" fill="none" xmlns="http://www.w3.org/2000/svg">
<path d="M27.5 8.27994C26.6075 8.67144 25.6565 8.93094 24.665 9.05694C25.685 8.44794 26.4635 7.49094 26.8295 6.33744C25.8785 6.90444 24.8285 7.30494 23.7095 7.52844C22.8065 6.56694 21.5195 5.97144 20.1155 5.97144C17.3915 5.97144 15.1985 8.18244 15.1985 10.8929C15.1985 11.2829 15.2315 11.6579 15.3125 12.0149C11.222 11.8154 7.6025 9.85494 5.171 6.86844C4.7465 7.60494 4.4975 8.44794 4.4975 9.35544C4.4975 11.0594 5.375 12.5699 6.683 13.4444C5.8925 13.4294 5.117 13.1999 4.46 12.8384C4.46 12.8534 4.46 12.8729 4.46 12.8924C4.46 15.2834 6.1655 17.2694 8.402 17.7269C8.0015 17.8364 7.565 17.8889 7.112 17.8889C6.797 17.8889 6.479 17.8709 6.1805 17.8049C6.818 19.7534 8.627 21.1859 10.778 21.2324C9.104 22.5419 6.9785 23.3309 4.6775 23.3309C4.274 23.3309 3.887 23.3129 3.5 23.2634C5.6795 24.6689 8.2625 25.4714 11.048 25.4714C20.102 25.4714 25.052 17.9714 25.052 11.4704C25.052 11.2529 25.0445 11.0429 25.034 10.8344C26.0105 10.1414 26.831 9.27594 27.5 8.27994Z" fill="#333333"/>
</svg>
