<svg width="20" height="21" viewBox="0 0 20 21" fill="none" xmlns="http://www.w3.org/2000/svg">
<path d="M10.3061 17.0934L7.73976 19.6652C6.88337 20.5234 5.74488 20.9961 4.53291 20.9961C3.32094 20.9961 2.18241 20.5234 1.32607 19.6652C-0.442024 17.8925 -0.442024 15.0088 1.32607 13.237L5.1743 9.37974C6.94146 7.6079 9.81993 7.60701 11.5889 9.37974C11.9436 9.73428 11.9436 10.3097 11.5889 10.6652C11.2351 11.0206 10.6609 11.0206 10.3062 10.6652C9.2448 9.60154 7.51846 9.60337 6.45707 10.6652L2.60884 14.5224C1.54745 15.5861 1.54745 17.3161 2.60884 18.3797C3.63668 19.4097 5.42923 19.4097 6.45707 18.3797L9.02346 15.8079C9.37815 15.4533 9.9524 15.4533 10.3062 15.8079C10.6609 16.1634 10.6609 16.7388 10.3061 17.0934ZM18.6739 8.75608L14.1471 13.2924C13.2908 14.1506 12.1523 14.6233 10.9403 14.6233C9.72834 14.6233 8.59074 14.1506 7.73346 13.2924C7.37967 12.937 7.37967 12.3615 7.73346 12.0061C8.08815 11.6515 8.66239 11.6515 9.01619 12.0061C10.044 13.0361 11.8375 13.0361 12.8644 12.0061L17.3912 7.4706C18.4526 6.40696 18.4526 4.67698 17.3912 3.61334C16.3634 2.58333 14.5708 2.58333 13.543 3.61334L10.464 6.69789C10.1102 7.05333 9.536 7.05333 9.18131 6.69789C8.82751 6.34334 8.82751 5.76789 9.18131 5.41245L12.2602 2.3279C13.1166 1.46881 14.2551 0.996094 15.4671 0.996094C16.6791 0.996094 17.8176 1.46881 18.6739 2.3279C20.442 4.09969 20.442 6.98336 18.6739 8.75608Z" fill="#707FDA"/>
</svg>
