<svg width="24" height="24" viewBox="0 0 24 24" fill="none" xmlns="http://www.w3.org/2000/svg">
<path d="M17.3398 21.5903L6.67881 21.6004C4.33338 21.6025 2.4128 19.6857 2.41013 17.3402L2.4 6.6792C2.39787 4.33377 4.31473 2.41319 6.66015 2.41052L17.3212 2.40039C19.6666 2.39826 21.5872 4.31512 21.5899 6.66054L21.6 17.3216C21.6027 19.6675 19.6853 21.5881 17.3398 21.5903Z" fill="#707FDA"/>
<path d="M17.3398 21.5903L6.67881 21.6004C4.33338 21.6025 2.4128 19.6857 2.41013 17.3402L2.4 6.6792C2.39787 4.33377 4.31473 2.41319 6.66015 2.41052L17.3212 2.40039C19.6666 2.39826 21.5872 4.31512 21.5899 6.66054L21.6 17.3216C21.6027 19.6675 19.6853 21.5881 17.3398 21.5903Z" fill="#707FDA"/>
<path d="M12 15.658C9.98387 15.658 8.34285 14.0175 8.34285 12.0009C8.34285 9.98424 9.98387 8.34375 12 8.34375C14.0161 8.34375 15.6571 9.98424 15.6571 12.0009C15.6571 14.0175 14.0161 15.658 12 15.658ZM12 9.38865C10.5596 9.38865 9.38775 10.5605 9.38775 12.0009C9.38775 13.4413 10.5596 14.6131 12 14.6131C13.4404 14.6131 14.6122 13.4413 14.6122 12.0009C14.6122 10.5605 13.4404 9.38865 12 9.38865Z" fill="white"/>
<path d="M15.8857 8.78915C16.2644 8.78915 16.5714 8.48133 16.5714 8.10161C16.5714 7.72189 16.2644 7.41406 15.8857 7.41406C15.507 7.41406 15.2 7.72189 15.2 8.10161C15.2 8.48133 15.507 8.78915 15.8857 8.78915Z" fill="white"/>
<path d="M15.1648 18.8569H8.83516C6.79965 18.8569 5.14286 17.2006 5.14286 15.1646V8.83489C5.14286 6.79884 6.79965 5.14258 8.83516 5.14258H15.1648C17.2004 5.14258 18.8571 6.79884 18.8571 8.83489V15.1646C18.8571 17.2006 17.2004 18.8569 15.1648 18.8569ZM8.83516 6.19752C7.38092 6.19752 6.1978 7.38064 6.1978 8.83489V15.1646C6.1978 16.6188 7.38092 17.8019 8.83516 17.8019H15.1648C16.6191 17.8019 17.8022 16.6188 17.8022 15.1646V8.83489C17.8022 7.38064 16.6191 6.19752 15.1648 6.19752H8.83516Z" fill="white"/>
</svg>
