<svg width="24" height="24" viewBox="0 0 24 24" fill="none" xmlns="http://www.w3.org/2000/svg">
<path d="M19.8632 2.40039H4.1368C3.1776 2.40039 2.4 3.17799 2.4 4.13719V19.8635C2.4 20.8228 3.1776 21.6004 4.1368 21.6004H19.8632C20.8224 21.6004 21.6 20.8228 21.6 19.8635V4.13719C21.6 3.17799 20.8224 2.40039 19.8632 2.40039ZM8.3413 18.9789C8.3413 19.2581 8.11502 19.4844 7.83586 19.4844H5.68436C5.4052 19.4844 5.17893 19.2581 5.17893 18.9789V9.95991C5.17893 9.68076 5.4052 9.45448 5.68436 9.45448H7.83586C8.11502 9.45448 8.3413 9.68076 8.3413 9.95991V18.9789ZM6.76011 8.6043C5.63128 8.6043 4.71616 7.68919 4.71616 6.56036C4.71616 5.43153 5.63128 4.51641 6.76011 4.51641C7.88894 4.51641 8.80406 5.43153 8.80406 6.56036C8.80406 7.68919 7.88899 8.6043 6.76011 8.6043ZM19.585 19.0196C19.585 19.2763 19.3769 19.4844 19.1203 19.4844H16.8116C16.5549 19.4844 16.3468 19.2763 16.3468 19.0196V14.7892C16.3468 14.1581 16.532 12.0238 14.6976 12.0238C13.2747 12.0238 12.9861 13.4847 12.9282 14.1403V19.0196C12.9282 19.2763 12.7202 19.4844 12.4635 19.4844H10.2305C9.9739 19.4844 9.76581 19.2763 9.76581 19.0196V9.9192C9.76581 9.66256 9.9739 9.45448 10.2305 9.45448H12.4635C12.7201 9.45448 12.9282 9.66256 12.9282 9.9192V10.706C13.4558 9.91428 14.2399 9.30314 15.9093 9.30314C19.6062 9.30314 19.585 12.7569 19.585 14.6546V19.0196Z" fill="#707FDA"/>
</svg>
