<svg width="18" height="18" viewBox="0 0 18 18" fill="none" xmlns="http://www.w3.org/2000/svg">
<path d="M7.07774 10.9223L10.9223 7.07774M7.07774 3.23321L7.71849 2.59246C8.73812 1.57282 10.121 1 11.563 1C13.005 1 14.3879 1.57282 15.4075 2.59246C16.4272 3.61209 17 4.99501 17 6.43698C17 7.87896 16.4272 9.26188 15.4075 10.2815L14.7668 10.9223M10.9223 14.7668L10.2815 15.4075C9.26188 16.4272 7.87896 17 6.43698 17C4.99501 17 3.61209 16.4272 2.59245 15.4075C1.57282 14.3879 1 13.005 1 11.563C1 10.121 1.57282 8.73812 2.59245 7.71849L3.23321 7.07774" stroke="#757575" stroke-width="2" stroke-linecap="round" stroke-linejoin="round"/>
</svg>
