<svg width="33" height="33" viewBox="0 0 33 33" fill="none" xmlns="http://www.w3.org/2000/svg">
<rect x="0.634766" y="0.5" width="32" height="32" rx="16" fill="white"/>
<path d="M23.0032 13.1399C22.8757 12.4361 22.2682 11.9236 21.5632 11.7636C20.5082 11.5399 18.5557 11.3799 16.4432 11.3799C14.332 11.3799 12.3482 11.5399 11.292 11.7636C10.5882 11.9236 9.97945 12.4036 9.85195 13.1399C9.7232 13.9399 9.5957 15.0599 9.5957 16.4999C9.5957 17.9399 9.7232 19.0599 9.8832 19.8599C10.012 20.5636 10.6195 21.0761 11.3232 21.2361C12.4432 21.4599 14.3632 21.6199 16.4757 21.6199C18.5882 21.6199 20.5082 21.4599 21.6282 21.2361C22.332 21.0761 22.9395 20.5961 23.0682 19.8599C23.1957 19.0599 23.3557 17.9074 23.3882 16.4999C23.3232 15.0599 23.1632 13.9399 23.0032 13.1399ZM14.7157 18.7399V14.2599L18.6195 16.4999L14.7157 18.7399Z" fill="#707FDA"/>
</svg>
