<svg width="33" height="33" viewBox="0 0 33 33" fill="none" xmlns="http://www.w3.org/2000/svg">
<rect x="0.236328" y="0.5" width="32" height="32" rx="16" fill="white"/>
<path d="M16.237 11.8335C11.3885 11.8335 9.57031 16.5002 9.57031 16.5002C9.57031 16.5002 11.3885 21.1668 16.237 21.1668C21.0855 21.1668 22.9036 16.5002 22.9036 16.5002C22.9036 16.5002 21.0855 11.8335 16.237 11.8335ZM16.237 13.5835C17.9103 13.5835 19.2673 14.8896 19.2673 16.5002C19.2673 18.1107 17.9103 19.4168 16.237 19.4168C14.5636 19.4168 13.2067 18.1107 13.2067 16.5002C13.2067 14.8896 14.5636 13.5835 16.237 13.5835ZM16.237 14.7502C15.7548 14.7502 15.2923 14.9345 14.9513 15.2627C14.6104 15.5909 14.4188 16.036 14.4188 16.5002C14.4188 16.9643 14.6104 17.4094 14.9513 17.7376C15.2923 18.0658 15.7548 18.2502 16.237 18.2502C16.7192 18.2502 17.1817 18.0658 17.5226 17.7376C17.8636 17.4094 18.0552 16.9643 18.0552 16.5002C18.0552 16.036 17.8636 15.5909 17.5226 15.2627C17.1817 14.9345 16.7192 14.7502 16.237 14.7502Z" fill="#707FDA"/>
</svg>
