<svg width="16" height="16" viewBox="0 0 16 16" fill="none" xmlns="http://www.w3.org/2000/svg">
<path d="M7.99967 3.33333C3.15119 3.33333 1.33301 8 1.33301 8C1.33301 8 3.15119 12.6667 7.99967 12.6667C12.8482 12.6667 14.6663 8 14.6663 8C14.6663 8 12.8482 3.33333 7.99967 3.33333ZM7.99967 5.08333C9.67301 5.08333 11.03 6.38941 11.03 8C11.03 9.61058 9.67301 10.9167 7.99967 10.9167C6.32634 10.9167 4.96937 9.61058 4.96937 8C4.96937 6.38941 6.32634 5.08333 7.99967 5.08333ZM7.99967 6.25C7.51746 6.25 7.055 6.43437 6.71403 6.76256C6.37305 7.09075 6.18149 7.53587 6.18149 8C6.18149 8.46412 6.37305 8.90924 6.71403 9.23743C7.055 9.56562 7.51746 9.75 7.99967 9.75C8.48189 9.75 8.94435 9.56562 9.28532 9.23743C9.6263 8.90924 9.81786 8.46412 9.81786 8C9.81786 7.53587 9.6263 7.09075 9.28532 6.76256C8.94435 6.43437 8.48189 6.25 7.99967 6.25Z" fill="#9397B2"/>
</svg>
