<svg width="60" height="60" viewBox="0 0 60 60" fill="none" xmlns="http://www.w3.org/2000/svg">
<rect width="60" height="60" rx="30" fill="#F0F9F6"/>
<path d="M30 21.25C20.9091 21.25 17.5 30 17.5 30C17.5 30 20.9091 38.75 30 38.75C39.0909 38.75 42.5 30 42.5 30C42.5 30 39.0909 21.25 30 21.25ZM30 24.5312C33.1375 24.5312 35.6818 26.9802 35.6818 30C35.6818 33.0198 33.1375 35.4688 30 35.4688C26.8625 35.4688 24.3182 33.0198 24.3182 30C24.3182 26.9802 26.8625 24.5312 30 24.5312ZM30 26.7188C29.0959 26.7188 28.2287 27.0645 27.5894 27.6798C26.9501 28.2952 26.5909 29.1298 26.5909 30C26.5909 30.8702 26.9501 31.7048 27.5894 32.3202C28.2287 32.9355 29.0959 33.2812 30 33.2812C30.9041 33.2812 31.7713 32.9355 32.4106 32.3202C33.0499 31.7048 33.4091 30.8702 33.4091 30C33.4091 29.1298 33.0499 28.2952 32.4106 27.6798C31.7713 27.0645 30.9041 26.7188 30 26.7188Z" fill="#6A9586"/>
</svg>
