<svg width="19" height="19" viewBox="0 0 19 19" fill="none" xmlns="http://www.w3.org/2000/svg">
<path d="M11.41 8.99928L18.7 1.70928C18.8638 1.51798 18.9494 1.27191 18.9397 1.02023C18.93 0.768555 18.8256 0.529816 18.6475 0.351722C18.4694 0.173627 18.2307 0.0692943 17.979 0.0595732C17.7274 0.049852 17.4813 0.135459 17.29 0.299285L9.99997 7.58928L2.70997 0.289285C2.51867 0.125458 2.2726 0.0398528 2.02092 0.0495739C1.76924 0.0592951 1.53051 0.163627 1.35241 0.341722C1.17432 0.519816 1.06998 0.758555 1.06026 1.01023C1.05054 1.26191 1.13615 1.50798 1.29997 1.69928L8.58997 8.99928L1.28997 16.2893C1.18529 16.3789 1.10027 16.4893 1.04025 16.6133C0.980225 16.7374 0.946494 16.8725 0.941175 17.0102C0.935855 17.1479 0.959061 17.2853 1.00934 17.4136C1.05961 17.5419 1.13587 17.6585 1.23332 17.7559C1.33078 17.8534 1.44733 17.9296 1.57565 17.9799C1.70398 18.0302 1.84131 18.0534 1.97903 18.0481C2.11675 18.0428 2.25188 18.009 2.37594 17.949C2.50001 17.889 2.61033 17.804 2.69997 17.6993L9.99997 10.4093L17.29 17.6993C17.4813 17.8631 17.7274 17.9487 17.979 17.939C18.2307 17.9293 18.4694 17.8249 18.6475 17.6468C18.8256 17.4688 18.93 17.23 18.9397 16.9783C18.9494 16.7267 18.8638 16.4806 18.7 16.2893L11.41 8.99928Z" fill="#6A9586"/>
</svg>
