<svg width="16" height="16" viewBox="0 0 16 16" fill="none" xmlns="http://www.w3.org/2000/svg">
<path d="M2.33337 5.99999C2.86671 5.99999 3.33337 6.46666 3.33337 6.99999V13C3.33337 13.5333 2.86671 14 2.33337 14C1.80004 14 1.33337 13.5333 1.33337 13V6.99999C1.33337 6.46666 1.80004 5.99999 2.33337 5.99999ZM11.3334 14H6.00004C5.26671 14 4.66671 13.4 4.66671 12.6667V6.53332C4.66671 6.19999 4.80004 5.86666 5.00004 5.66666L6.80004 3.66666L7.20004 1.99999C7.26671 1.59999 7.73337 1.39999 8.06671 1.53332C8.66671 1.66666 9.33337 2.19999 9.33337 3.26666C9.33337 4.39999 8.66671 5.99999 8.66671 5.99999H13.3334C14.0667 5.99999 14.6667 6.59999 14.6667 7.33332V7.93332C14.6667 8.19999 14.6 8.46666 14.4667 8.73332L12.4667 13.2667C12.2667 13.7333 11.8667 14 11.3334 14Z" fill="#C7CBE0"/>
</svg>
