<svg width="16" height="16" viewBox="0 0 16 16" fill="none" xmlns="http://www.w3.org/2000/svg">
<path d="M8.00004 3.33325C3.15156 3.33325 1.33337 7.99992 1.33337 7.99992C1.33337 7.99992 3.15156 12.6666 8.00004 12.6666C12.8485 12.6666 14.6667 7.99992 14.6667 7.99992C14.6667 7.99992 12.8485 3.33325 8.00004 3.33325ZM8.00004 5.08325C9.67337 5.08325 11.0303 6.38934 11.0303 7.99992C11.0303 9.6105 9.67337 10.9166 8.00004 10.9166C6.32671 10.9166 4.96974 9.6105 4.96974 7.99992C4.96974 6.38934 6.32671 5.08325 8.00004 5.08325ZM8.00004 6.24992C7.51783 6.24992 7.05537 6.43429 6.71439 6.76248C6.37342 7.09067 6.18186 7.53579 6.18186 7.99992C6.18186 8.46405 6.37342 8.90917 6.71439 9.23736C7.05537 9.56554 7.51783 9.74992 8.00004 9.74992C8.48225 9.74992 8.94471 9.56554 9.28569 9.23736C9.62667 8.90917 9.81822 8.46405 9.81822 7.99992C9.81822 7.53579 9.62667 7.09067 9.28569 6.76248C8.94471 6.43429 8.48225 6.24992 8.00004 6.24992Z" fill="#C7CBE0"/>
</svg>
