<svg width="30" height="31" viewBox="0 0 30 31" fill="none" xmlns="http://www.w3.org/2000/svg">
<path d="M26.3301 10.0391C26.1082 8.81452 25.0511 7.92273 23.8244 7.64432C21.9886 7.25497 18.5911 6.97656 14.9152 6.97656C11.2414 6.97656 7.78956 7.25497 5.9516 7.64432C4.72703 7.92273 3.66775 8.75797 3.44589 10.0391C3.22186 11.4312 3 13.38 3 15.8858C3 18.3915 3.22186 20.3403 3.50027 21.7324C3.72431 22.957 4.7814 23.8488 6.00598 24.1272C7.95487 24.5165 11.2958 24.7949 14.9717 24.7949C18.6476 24.7949 21.9886 24.5165 23.9375 24.1272C25.162 23.8488 26.2191 23.0135 26.4432 21.7324C26.665 20.3403 26.9434 18.3349 27 15.8858C26.8869 13.38 26.6085 11.4312 26.3301 10.0391ZM11.9092 19.7835V11.988L18.702 15.8858L11.9092 19.7835Z" fill="#212121"/>
</svg>
