<svg width="30" height="30" viewBox="0 0 30 30" fill="none" xmlns="http://www.w3.org/2000/svg">
<path d="M26.3301 9.06266C26.1082 7.83808 25.0511 6.94629 23.8244 6.66788C21.9886 6.27853 18.5911 6.00012 14.9152 6.00012C11.2414 6.00012 7.78956 6.27853 5.9516 6.66788C4.72703 6.94629 3.66775 7.78153 3.44589 9.06266C3.22186 10.4547 3 12.4036 3 14.9093C3 17.415 3.22186 19.3639 3.50027 20.756C3.72431 21.9805 4.7814 22.8723 6.00598 23.1507C7.95487 23.5401 11.2958 23.8185 14.9717 23.8185C18.6476 23.8185 21.9886 23.5401 23.9375 23.1507C25.162 22.8723 26.2191 22.0371 26.4432 20.756C26.665 19.3639 26.9434 17.3585 27 14.9093C26.8869 12.4036 26.6085 10.4547 26.3301 9.06266ZM11.9092 18.8071V11.0115L18.702 14.9093L11.9092 18.8071Z" fill="#99A29C"/>
</svg>
