<svg width="577" height="384" viewBox="0 0 577 384" fill="none" xmlns="http://www.w3.org/2000/svg">
<g clip-path="url(#clip0_13563_230774)">
<path d="M291.899 108.426C286.761 99.9289 280.673 90.8563 271.139 88.0817C260.097 84.8686 248.755 91.2516 239.135 97.5504C210.363 116.388 182.655 136.803 156.139 158.701L156.168 159.031C176.812 157.607 197.456 156.183 218.1 154.76C233.016 153.731 248.444 152.561 261.625 145.505C266.627 142.827 271.502 139.251 277.17 139.001C284.212 138.692 290.352 143.61 295.177 148.748C323.72 179.142 331.979 225.621 364.001 252.325C343.809 202.528 319.699 154.411 291.899 108.426Z" fill="#F2F2F2"/>
<path d="M467.346 366.221C464.189 362.236 462.9 361.302 459.786 357.28C434.435 324.492 410.608 290.597 388.303 255.595C373.153 231.822 358.754 207.593 345.106 182.908C338.609 171.172 332.289 159.344 326.148 147.424C321.383 138.182 316.724 128.884 312.171 119.531C310.869 116.86 309.604 114.176 308.345 111.486C305.379 105.161 302.468 98.8046 299.342 92.5651C295.78 85.4537 291.445 77.9983 284.904 73.2205C281.928 70.9569 278.368 69.5873 274.642 69.2717C269.318 68.9278 264.405 71.1264 259.787 73.5276C225.998 91.1465 194.365 113.236 165.753 138.372C137.068 163.564 111.429 192.025 89.3571 223.175C88.6818 224.14 87.085 223.218 87.7666 222.248C90.4504 218.453 93.1873 214.699 95.9774 210.985C130.671 164.844 173.21 125.165 221.65 93.7627C229.8 88.4813 238.103 83.4476 246.559 78.6615C250.821 76.2481 255.101 73.8653 259.455 71.6299C263.723 69.4375 268.255 67.4662 273.131 67.3925C289.725 67.1346 298.316 85.9265 304.218 98.5712C306.073 102.551 307.95 106.518 309.849 110.473C317.028 125.488 324.484 140.366 332.216 155.107C336.987 164.208 341.863 173.256 346.844 182.251C362.344 210.26 378.819 237.703 396.268 264.579C419.383 300.179 442.314 331.628 468.648 364.919C469.372 365.841 468.077 367.155 467.346 366.221Z" fill="#E4E4E4"/>
<path d="M164.113 129.093C163.149 128.018 162.191 126.944 161.22 125.869C153.569 117.406 145.358 109.042 134.85 104.191C129.84 101.804 124.371 100.537 118.822 100.475C113.086 100.494 107.479 101.998 102.179 104.105C99.6738 105.106 97.2233 106.242 94.81 107.452C92.0525 108.839 89.3442 110.32 86.6484 111.812C81.588 114.612 76.5932 117.535 71.664 120.581C61.8565 126.643 52.3561 133.167 43.1628 140.153C38.3971 143.777 33.7298 147.519 29.1608 151.379C24.9111 154.966 20.7475 158.648 16.6697 162.427C15.7977 163.232 14.4957 161.93 15.3677 161.125C16.4424 160.124 17.5294 159.129 18.6165 158.147C21.687 155.371 24.8068 152.648 27.9757 149.979C33.7543 145.103 39.6826 140.415 45.7605 135.916C55.2118 128.915 64.9885 122.389 75.0906 116.338C80.1387 113.316 85.2564 110.422 90.4435 107.654C92.0096 106.819 93.5941 106.002 95.1969 105.228C98.8337 103.394 102.612 101.856 106.497 100.629C111.999 98.8489 117.82 98.277 123.563 98.9522C129.108 99.7588 134.451 101.607 139.309 104.399C149.626 110.166 157.628 119.083 165.415 127.785C166.201 128.669 164.905 129.977 164.113 129.093Z" fill="#E4E4E4"/>
<path d="M375.506 216.787L400.228 207.745L412.503 203.255C416.501 201.793 420.489 200.129 424.622 199.082C428.213 198.056 432.026 198.104 435.59 199.221C438.769 200.398 441.678 202.201 444.145 204.525C446.666 206.846 449.012 209.351 451.163 212.019C453.835 215.23 456.468 218.476 459.113 221.71C470.028 235.059 480.872 248.466 491.645 261.932C502.417 275.396 513.118 288.919 523.746 302.498C534.401 316.11 544.982 329.78 555.49 343.506C556.777 345.188 558.063 346.87 559.348 348.553C560.058 349.483 561.659 348.566 560.939 347.623C550.354 333.759 539.694 319.951 528.961 306.201C518.202 292.417 507.368 278.692 496.46 265.025C485.553 251.358 474.571 237.751 463.516 224.203C460.762 220.828 458.003 217.456 455.24 214.088C452.909 211.248 450.604 208.376 448.047 205.732C443.354 200.878 437.491 196.589 430.473 196.473C426.347 196.404 422.353 197.714 418.519 199.101C414.386 200.596 410.263 202.119 406.135 203.629L381.24 212.734L375.016 215.011C373.912 215.415 374.389 217.196 375.506 216.787L375.506 216.787Z" fill="#E4E4E4"/>
<path d="M131.597 114.839C119.034 108.382 102.944 109.646 91.3997 117.713C113.421 121.512 135.2 126.596 156.628 132.937C147.73 127.723 140.77 119.553 131.597 114.839Z" fill="#F2F2F2"/>
<path d="M91.2758 117.691L88.8572 119.657C89.6753 118.969 90.5258 118.324 91.3994 117.714C91.3582 117.707 91.3171 117.699 91.2758 117.691Z" fill="#F2F2F2"/>
<path d="M443.215 216.878C440.781 213.915 438.15 210.814 434.51 209.61L431.112 209.744C456.982 255.457 491.921 295.401 533.785 327.124C503.595 290.375 473.405 253.627 443.215 216.878Z" fill="#F2F2F2"/>
<path d="M231.885 192.44C233.457 198.154 237.001 203.127 241.887 206.48C243.776 207.766 246.012 209 246.658 211.193C246.998 212.59 246.788 214.065 246.073 215.312C245.358 216.544 244.489 217.679 243.486 218.69L243.394 219.033C238.706 216.254 234.246 212.74 231.656 207.945C229.067 203.15 228.705 196.866 231.885 192.44" fill="#F2F2F2"/>
<path d="M387.971 328.429C389.544 334.143 393.087 339.116 397.973 342.469C399.863 343.756 402.098 344.99 402.744 347.182C403.084 348.579 402.875 350.054 402.159 351.302C401.444 352.533 400.575 353.668 399.572 354.679L399.481 355.022C394.792 352.244 390.332 348.729 387.742 343.934C385.153 339.139 384.791 332.855 387.971 328.429" fill="#F2F2F2"/>
<path d="M76.4685 319.051C78.0412 324.765 81.5843 329.738 86.4709 333.091C88.3601 334.377 90.5953 335.611 91.2416 337.803C91.5816 339.201 91.3721 340.676 90.6564 341.923C89.9419 343.155 89.0726 344.29 88.0697 345.3L87.9782 345.643C83.2899 342.865 78.8298 339.351 76.24 334.556C73.6503 329.761 73.2888 323.476 76.4686 319.051" fill="#F2F2F2"/>
<path d="M434.93 69.2187C453.799 69.2187 469.095 53.9226 469.095 35.0539C469.095 16.1853 453.799 0.88916 434.93 0.88916C416.062 0.88916 400.766 16.1853 400.766 35.0539C400.766 53.9226 416.062 69.2187 434.93 69.2187Z" fill="#707FDA"/>
<path d="M496.585 8.84112C480.027 6.60303 461.124 15.5526 456.832 31.7004C455.751 28.8293 453.784 26.3764 451.218 24.696C448.651 23.0155 445.616 22.1947 442.552 22.3519C439.488 22.5091 436.553 23.6363 434.172 25.5707C431.79 27.505 430.086 30.1463 429.304 33.113L431.199 34.4707C466.682 42.1439 503.412 41.9778 538.824 33.9841C527.307 21.8797 513.143 11.0792 496.585 8.84112Z" fill="#F0F0F0"/>
<path d="M425.576 54.3941C409.018 52.156 390.115 61.1056 385.823 77.2534C384.742 74.3823 382.775 71.9294 380.208 70.249C377.642 68.5685 374.607 67.7476 371.543 67.9049C368.479 68.0621 365.544 69.1893 363.163 71.1236C360.781 73.058 359.077 75.6993 358.295 78.666L360.19 80.0237C395.673 87.6968 432.403 87.5308 467.815 79.5371C456.298 67.4327 442.133 56.6321 425.576 54.3941Z" fill="#F0F0F0"/>
<path d="M570.09 63.0079C570.021 63.008 569.953 62.9974 569.888 62.9765C392.763 6.96086 236.651 14.2859 136.88 30.2947C123.302 32.4726 109.688 34.9879 96.4153 37.7716C93.0269 38.4814 89.5115 39.2422 85.9671 40.0344C81.7341 40.9771 77.5574 41.948 73.5524 42.9188C71.8227 43.3283 70.1268 43.7411 68.4647 44.1572C65.947 44.7787 63.3924 45.4263 60.6539 46.1381C57.5939 46.927 54.4848 47.7546 51.4111 48.5979C51.3999 48.6018 51.3884 48.6051 51.3768 48.6077L51.3771 48.6083C47.9053 49.5562 44.4517 50.5317 41.1121 51.5058C39.3045 52.0278 37.5591 52.5427 35.8873 53.051C35.7006 53.1027 35.5351 53.1524 35.3673 53.2034L35.0081 53.3127C34.8001 53.3761 34.5946 53.4383 34.3892 53.4971L34.3761 53.5011L34.3765 53.5017L33.8328 53.6706C33.1845 53.8668 32.5519 54.0585 31.9298 54.2495C15.4872 59.3182 6.44814 62.9242 6.35885 62.9595C6.27719 62.9922 6.18989 63.0085 6.10192 63.0075C6.01395 63.0065 5.92705 62.9882 5.84616 62.9536C5.76528 62.919 5.69199 62.8688 5.6305 62.8059C5.56901 62.743 5.52052 62.6686 5.48778 62.5869C5.45505 62.5053 5.43873 62.418 5.43974 62.33C5.44075 62.242 5.45908 62.1551 5.49367 62.0742C5.52827 61.9934 5.57845 61.9201 5.64137 61.8586C5.70428 61.7971 5.77869 61.7486 5.86035 61.7159C5.9503 61.6805 15.0335 58.0563 31.536 52.9686C32.1604 52.7769 32.7946 52.5852 33.4449 52.3883L33.9499 52.2313C33.9673 52.2248 33.9846 52.2196 34.0023 52.2143C34.2067 52.1561 34.4108 52.0939 34.6182 52.0311L34.978 51.9219C35.1572 51.8676 35.3339 51.8139 35.5148 51.7642C37.1751 51.2592 38.9264 50.743 40.7385 50.219C44.0795 49.2443 47.5363 48.2689 51.0107 47.3196C51.0215 47.3157 51.0327 47.3131 51.0434 47.3098V47.3091C54.128 46.4633 57.2485 45.6324 60.3183 44.8408C63.0611 44.1284 65.6206 43.4795 68.1425 42.8567C69.8117 42.4413 71.5109 42.0276 73.24 41.6157C77.2496 40.6435 81.4348 39.6714 85.6753 38.7267C89.2253 37.9338 92.7465 37.171 96.1405 36.4606C109.433 33.6724 123.069 31.1531 136.667 28.972C236.582 12.9402 392.917 5.60338 570.292 61.6995C570.444 61.7476 570.574 61.8487 570.659 61.9846C570.743 62.1204 570.776 62.282 570.752 62.4401C570.728 62.5981 570.648 62.7423 570.526 62.8464C570.405 62.9506 570.25 63.0078 570.09 63.0079Z" fill="#CCCCCC"/>
<path d="M176.176 282.139C175.944 281.461 175.553 280.848 175.037 280.35C174.846 280.174 174.64 280.014 174.42 279.875C172.672 278.709 170.059 278.448 168.398 279.875C168.231 280.02 168.076 280.179 167.936 280.35C167.44 280.96 166.931 281.556 166.408 282.139C165.551 283.117 164.673 284.062 163.756 284.979C163.494 285.234 163.233 285.495 162.965 285.75C162.811 285.904 162.657 286.051 162.503 286.199C161.913 286.761 161.311 287.304 160.701 287.84C160.379 288.128 160.058 288.409 159.73 288.684C159.241 289.093 158.752 289.501 158.256 289.897C158.209 289.93 158.162 289.963 158.115 290.004C158.102 290.01 158.095 290.024 158.082 290.031C158.075 290.031 158.068 290.03 158.062 290.044C158.043 290.051 158.027 290.063 158.015 290.077C157.867 290.178 157.767 290.245 157.693 290.305C157.72 290.292 157.747 290.272 157.773 290.258C157.653 290.352 157.526 290.446 157.405 290.54C156.233 291.404 155.034 292.234 153.808 293.012C150.775 294.953 147.589 296.644 144.282 298.069C144.061 298.156 143.833 298.25 143.605 298.337C134.946 301.885 125.554 303.269 116.24 302.37C115.289 302.296 114.337 302.196 113.386 302.069C112.287 301.908 111.196 301.714 110.11 301.492C105.979 300.668 101.936 299.448 98.0387 297.848C93.1633 295.616 88.5263 292.895 84.1986 289.729C83.5287 289.253 82.8521 288.778 82.1755 288.316C82.9459 286.426 83.7029 284.537 84.4398 282.635C84.8082 281.717 85.1633 280.799 85.5116 279.875C88.2515 272.754 90.8239 265.566 93.2891 258.351C95.7812 251.042 98.1325 243.691 100.343 236.298C100.571 235.548 100.792 234.797 101.006 234.047C102.165 230.142 103.277 226.227 104.342 222.304C104.443 221.922 104.55 221.547 104.644 221.165C104.952 220.04 105.253 218.914 105.548 217.789C106.218 215.25 104.704 212.215 102.038 211.606C100.754 211.276 99.393 211.458 98.2408 212.113C97.0887 212.768 96.2357 213.845 95.8615 215.116C95.5735 216.201 95.2854 217.28 94.9907 218.365C93.5772 223.61 92.09 228.838 90.5292 234.047C90.3014 234.797 90.0736 235.548 89.8459 236.298C86.4026 247.646 82.6221 258.88 78.5045 270.001C78.0088 271.347 77.5063 272.689 76.9972 274.027C76.7494 274.683 76.5015 275.34 76.2469 275.996C75.7579 277.289 75.2555 278.582 74.7531 279.875C74.465 280.632 74.1702 281.389 73.8755 282.139C73.6812 282.615 73.4937 283.09 73.3061 283.559C71.3961 282.873 69.4172 282.397 67.4043 282.139L67.0827 282.099C65.5222 281.911 63.9439 281.925 62.3868 282.139C60.0562 282.411 57.8139 283.192 55.8182 284.426C53.8226 285.66 52.1223 287.317 50.8377 289.28C47.6423 294.311 47.6825 301.506 52.1641 305.78C56.7797 310.181 63.7668 310.148 69.1996 307.394C72.0787 305.837 74.5063 303.561 76.2469 300.789C76.9138 299.784 77.5265 298.744 78.0825 297.674C78.2232 297.768 78.3638 297.862 78.5045 297.962C79.0404 298.337 79.5763 298.719 80.1056 299.094C83.1891 301.328 86.4386 303.324 89.8258 305.063C97.1089 308.684 104.949 311.055 113.018 312.077C113.199 312.097 113.373 312.124 113.554 312.144C114.445 312.258 115.342 312.345 116.24 312.418C129.117 313.389 142.009 310.754 153.473 304.808C154.444 304.306 155.407 303.779 156.36 303.227C157.84 302.37 159.287 301.459 160.701 300.494C161.471 299.972 162.222 299.443 162.965 298.887C166.215 296.493 169.243 293.814 172.016 290.881C173.067 289.776 174.074 288.635 175.037 287.458C175.947 286.495 176.471 285.232 176.511 283.908C176.505 283.303 176.392 282.704 176.176 282.139ZM65.2472 298.096C65.3879 297.996 65.5286 297.888 65.6626 297.781C65.6224 297.882 65.4281 297.996 65.2472 298.096H65.2472ZM67.3976 295.932C67.2435 296.106 67.1028 296.281 66.9488 296.455C66.48 296.979 65.9765 297.472 65.4415 297.929C65.3678 297.996 65.2874 298.063 65.207 298.123C65.2062 298.123 65.2053 298.123 65.2044 298.123C65.2036 298.124 65.2029 298.124 65.2023 298.125C65.2016 298.125 65.2011 298.126 65.2008 298.127C65.2005 298.128 65.2003 298.129 65.2003 298.13C65.1036 298.173 65.0096 298.222 64.9189 298.277C64.6309 298.451 64.3361 298.612 64.0347 298.759C63.4445 298.977 62.8373 299.145 62.2193 299.262C61.7444 299.296 61.2678 299.301 60.7924 299.275H60.779C60.4509 299.202 60.1267 299.113 59.8077 299.007C59.6469 298.927 59.4928 298.833 59.3387 298.739C59.2784 298.686 59.2248 298.632 59.1913 298.598C59.1259 298.539 59.0654 298.474 59.0105 298.404C59.0105 298.403 59.0104 298.402 59.01 298.402C59.0097 298.401 59.0092 298.4 59.0086 298.399C59.008 298.399 59.0072 298.398 59.0064 298.398C59.0056 298.398 59.0047 298.397 59.0038 298.398C58.9301 298.264 58.8497 298.13 58.7761 297.996C58.7722 297.992 58.7698 297.987 58.7694 297.982C58.7158 297.815 58.6689 297.641 58.6287 297.466C58.6141 297.161 58.6164 296.854 58.6354 296.549C58.7253 296.121 58.8462 295.7 58.9971 295.289C59.1327 294.998 59.2872 294.716 59.4593 294.445C59.4727 294.418 59.5397 294.311 59.6134 294.191C59.6201 294.184 59.6201 294.184 59.6201 294.177C59.7206 294.063 59.8211 293.943 59.9283 293.836C60.1092 293.635 60.3034 293.46 60.4977 293.279C60.8755 293.032 61.2669 292.806 61.67 292.603C62.3095 292.376 62.9658 292.199 63.6328 292.074C64.6164 291.996 65.605 292.004 66.5871 292.1C67.5172 292.262 68.435 292.488 69.3336 292.777C68.789 293.834 68.1688 294.851 67.478 295.818C67.4512 295.859 67.4244 295.899 67.3976 295.932ZM59.9483 293.728C59.8893 293.823 59.8196 293.911 59.7407 293.99C59.7938 293.891 59.8641 293.802 59.9483 293.728Z" fill="#3F3D56"/>
<path d="M156.038 213.722C155.978 215.826 155.918 217.929 155.858 220.033C155.73 224.702 155.599 229.374 155.462 234.047C155.322 239.306 155.174 244.562 155.02 249.817C154.946 252.53 154.871 255.243 154.792 257.956C154.585 265.264 154.379 272.571 154.176 279.875C154.156 280.632 154.129 281.382 154.109 282.139C154.009 285.763 153.908 289.387 153.808 293.012C153.694 296.944 153.582 300.876 153.473 304.808C153.392 307.756 153.31 310.706 153.225 313.658C152.622 335.048 152.019 356.438 151.416 377.827C151.391 379.152 150.853 380.415 149.916 381.352C148.98 382.289 147.716 382.826 146.392 382.852C145.063 382.841 143.791 382.308 142.851 381.368C141.911 380.428 141.378 379.157 141.368 377.827C141.703 365.796 142.042 353.765 142.386 341.733C142.687 330.854 142.993 319.975 143.304 309.096C143.404 305.512 143.505 301.926 143.605 298.337C143.759 292.938 143.911 287.539 144.061 282.139C144.081 281.382 144.108 280.632 144.128 279.875C144.141 279.212 144.161 278.555 144.181 277.892C144.476 267.408 144.771 256.922 145.066 246.434C145.186 242.307 145.302 238.178 145.414 234.047C145.548 229.338 145.682 224.631 145.816 219.926C145.876 217.856 145.93 215.792 145.99 213.722C146.015 212.398 146.553 211.135 147.49 210.198C148.426 209.261 149.69 208.724 151.014 208.698C152.343 208.709 153.615 209.242 154.555 210.182C155.495 211.122 156.028 212.393 156.038 213.722Z" fill="#3F3D56"/>
<path d="M431.653 215.117C426.385 235.066 420.088 254.729 412.788 274.028C410.774 279.351 408.713 284.664 406.51 289.913L407.017 288.713C406.034 291.213 404.778 293.596 403.272 295.821C403.17 295.965 403.066 296.107 402.96 296.248C403.48 295.582 403.579 295.451 403.256 295.853C403.086 296.055 402.918 296.257 402.742 296.453C402.273 296.978 401.77 297.471 401.235 297.929C401.101 298.044 400.964 298.157 400.826 298.267L401.454 297.778C401.381 297.95 400.869 298.179 400.71 298.276C400.194 298.587 399.655 298.86 399.099 299.092L400.299 298.586C399.387 298.953 398.436 299.214 397.465 299.363L398.8 299.184C397.846 299.316 396.878 299.326 395.921 299.215L397.257 299.394C396.474 299.286 395.707 299.08 394.976 298.78L396.176 299.286C395.786 299.116 395.41 298.916 395.051 298.686C394.87 298.568 394.311 298.144 395.041 298.703C395.801 299.283 395.139 298.752 394.983 298.598C394.852 298.47 394.735 298.33 394.608 298.2C394.017 297.594 395.275 299.242 394.874 298.534C394.659 298.178 394.462 297.812 394.285 297.437L394.792 298.637C394.561 298.066 394.397 297.47 394.304 296.861L394.483 298.197C394.388 297.44 394.387 296.673 394.481 295.916L394.302 297.251C394.425 296.406 394.648 295.578 394.968 294.786L394.462 295.986C394.685 295.454 394.949 294.939 395.251 294.447C395.39 294.192 395.554 293.952 395.739 293.729C395.772 293.74 394.889 294.742 395.358 294.236C395.48 294.104 395.595 293.964 395.719 293.833C395.917 293.623 396.13 293.43 396.339 293.231C397.038 292.565 395.359 293.878 396.167 293.351C396.752 292.966 397.368 292.631 398.009 292.347L396.808 292.853C397.881 292.413 399.006 292.111 400.155 291.956L398.819 292.135C400.258 291.97 401.712 291.987 403.147 292.186L401.811 292.007C403.628 292.282 405.404 292.782 407.098 293.494L405.898 292.988C409.508 294.538 412.706 296.839 415.898 299.096C418.981 301.328 422.23 303.323 425.616 305.062C432.899 308.684 440.74 311.055 448.809 312.078C460.382 313.496 472.125 311.985 482.962 307.683C493.799 303.381 503.382 296.427 510.832 287.458C511.741 286.494 512.264 285.23 512.304 283.906C512.294 282.575 511.766 281.301 510.832 280.353C508.989 278.661 505.507 278.183 503.727 280.353C502.04 282.413 500.226 284.365 498.296 286.199C497.395 287.054 496.47 287.882 495.521 288.684C494.979 289.143 494.43 289.592 493.873 290.032C493.609 290.24 492.788 290.794 494.049 289.9C493.76 290.105 493.483 290.329 493.198 290.539C488.979 293.649 484.407 296.25 479.577 298.286L480.777 297.78C475.595 299.954 470.152 301.445 464.585 302.216L465.921 302.037C460.194 302.79 454.393 302.781 448.668 302.011L450.004 302.191C444.281 301.405 438.684 299.88 433.352 297.655L434.553 298.162C429.408 295.886 424.526 293.057 419.991 289.727C417.632 287.98 415.143 286.413 412.547 285.042C409.522 283.497 406.248 282.502 402.875 282.102C396.552 281.358 390.109 283.821 386.633 289.283C383.433 294.311 383.475 301.505 387.955 305.78C392.569 310.183 399.556 310.145 404.994 307.391C410.231 304.739 413.376 299.228 415.588 294.032C420.566 282.339 424.974 270.376 429.08 258.352C433.142 246.455 436.827 234.439 440.132 222.302C440.542 220.799 440.945 219.294 441.343 217.788C442.013 215.25 440.498 212.214 437.834 211.607C436.549 211.277 435.187 211.458 434.034 212.113C432.881 212.768 432.027 213.845 431.653 215.117L431.653 215.117Z" fill="#3F3D56"/>
<path d="M481.784 213.722L479.975 277.894L478.176 341.731L477.159 377.827C477.17 379.156 477.703 380.428 478.643 381.368C479.583 382.307 480.854 382.84 482.183 382.852C483.508 382.826 484.771 382.289 485.708 381.352C486.644 380.415 487.182 379.152 487.207 377.827L489.016 313.656L490.815 249.818L491.832 213.722C491.821 212.393 491.288 211.122 490.348 210.182C489.408 209.242 488.137 208.709 486.808 208.698C485.483 208.723 484.22 209.261 483.283 210.198C482.347 211.134 481.809 212.397 481.784 213.722Z" fill="#3F3D56"/>
<path opacity="0.2" d="M307.88 359.911H309.44V288.874H345.834V287.318H309.44V257.344H337.546C337.134 256.82 336.71 256.302 336.274 255.792H309.44V235.994C308.924 235.774 308.404 235.562 307.88 235.362V255.792H277.298V230.426C276.773 230.45 276.257 230.486 275.737 230.53V255.792H251.34V236.866C250.816 237.098 250.3 237.342 249.788 237.598V255.792H229.278V257.344H249.788V287.318H229.278V288.874H249.788V359.911H251.34V288.874C254.544 288.873 257.717 289.504 260.677 290.73C263.637 291.956 266.327 293.753 268.593 296.018C270.859 298.284 272.656 300.974 273.882 303.934C275.107 306.895 275.738 310.068 275.737 313.272V359.911H277.298V288.874H307.88V359.911ZM251.34 287.318V257.344H275.737V287.318H251.34ZM277.298 287.318V257.344H277.91C281.846 257.344 285.743 258.119 289.379 259.626C293.016 261.132 296.319 263.34 299.102 266.124C301.885 268.907 304.093 272.211 305.599 275.848C307.105 279.484 307.88 283.382 307.88 287.318H277.298Z" fill="black"/>
<path d="M298.352 338.611C296.387 347.373 291.683 355.28 284.92 361.187C284.424 361.616 283.929 362.031 283.413 362.439C282.16 362.553 280.916 362.67 279.682 362.788C278.657 362.882 277.645 362.982 276.64 363.076L276.459 363.096L276.332 361.997L275.823 357.549C273.848 354.325 272.624 350.697 272.241 346.935C271.858 343.174 272.327 339.374 273.612 335.818C275.381 331.048 278.583 326.834 281.731 322.654C286.079 316.88 290.306 311.172 290.46 304.132C292.599 306.869 294.378 309.87 295.752 313.061C294.456 313.672 293.29 314.53 292.322 315.587C292.048 315.888 291.773 316.31 291.961 316.672C292.122 316.98 292.523 317.054 292.872 317.094C293.709 317.181 294.553 317.268 295.391 317.355C296.061 317.429 296.73 317.496 297.4 317.57C298.211 320.23 298.76 322.962 299.042 325.729C299.493 330.033 299.26 334.38 298.352 338.611Z" fill="#3F3D56"/>
<path d="M320.592 321.053C316.639 323.927 314.328 328.061 312.533 332.616C310.693 333.205 309.038 334.262 307.73 335.684C307.455 335.985 307.18 336.407 307.368 336.769C307.529 337.077 307.931 337.151 308.279 337.191C309.116 337.278 309.96 337.365 310.798 337.453C309.003 342.838 307.355 348.412 304.179 352.961C302.068 355.964 299.315 358.46 296.12 360.269C295.249 360.766 294.35 361.211 293.427 361.602C290.024 361.864 286.686 362.143 283.412 362.44C282.16 362.554 280.916 362.67 279.681 362.788C278.656 362.882 277.645 362.982 276.64 363.076C276.633 362.708 276.633 362.339 276.64 361.971C276.852 352.156 280.462 342.719 286.856 335.269C287.157 334.92 287.465 334.579 287.78 334.237C291.019 330.777 294.828 327.9 299.041 325.729C305.68 322.278 313.12 320.663 320.592 321.053Z" fill="#707FDA"/>
<path d="M280.84 359.351L280.07 361.629L279.682 362.788C278.657 362.882 277.645 362.982 276.64 363.076L276.459 363.096C275.347 363.21 274.242 363.324 273.137 363.438C272.849 363.103 272.56 362.761 272.279 362.413C265.287 353.946 261.93 343.055 262.943 332.12C263.956 321.186 269.256 311.097 277.685 304.058C276.801 308.687 277.833 313.122 279.527 317.523C279.347 317.597 279.172 317.67 279.005 317.751C277.708 318.361 276.543 319.219 275.575 320.276C275.3 320.578 275.026 321 275.213 321.362C275.374 321.67 275.776 321.743 276.124 321.784C276.962 321.871 277.806 321.958 278.643 322.045C279.313 322.118 279.983 322.185 280.653 322.259C280.968 322.293 281.283 322.326 281.597 322.36C281.644 322.46 281.685 322.554 281.731 322.654C283.641 326.794 285.697 330.954 286.856 335.269C287.147 336.351 287.375 337.449 287.539 338.558C288.055 342.304 287.721 346.119 286.561 349.719C285.402 353.318 283.446 356.611 280.84 359.351Z" fill="#707FDA"/>
<path d="M348.271 262.19C342.504 250.941 333.57 241.476 323.062 234.521C312.52 227.575 300.423 223.345 287.85 222.208C286.202 222.059 284.55 221.971 282.894 221.945C280.937 221.916 251.498 230.407 241.636 237.341C231.78 244.19 223.672 253.26 217.967 263.82C212.272 274.437 209.47 286.366 209.844 298.409C210.332 310.524 213.709 322.347 219.693 332.892C225.596 343.404 233.977 352.314 244.107 358.848C254.382 365.404 264.703 382.787 276.835 383.401C289.058 384.019 302.997 367.622 314.145 362.643C325.293 357.623 334.93 349.768 342.097 339.863C349.061 330.156 353.566 318.904 355.226 307.073C356.95 294.959 356.146 282.466 352.01 270.888C350.948 267.913 349.7 265.008 348.271 262.19C347.079 259.842 343.585 258.977 341.397 260.388C340.27 261.082 339.454 262.183 339.119 263.464C338.783 264.744 338.953 266.104 339.595 267.262C340.295 268.641 340.946 270.043 341.548 271.467L341.041 270.267C343.319 275.743 344.868 281.495 345.648 287.375L345.468 286.039C346.298 292.418 346.283 298.879 345.424 305.254L345.604 303.918C344.735 310.292 343.034 316.525 340.543 322.457L341.049 321.257C339.768 324.283 338.274 327.215 336.58 330.031C335.721 331.454 334.81 332.843 333.846 334.199C333.423 334.794 332.987 335.379 332.548 335.962C331.974 336.722 333.329 334.968 332.737 335.714C332.636 335.841 332.535 335.969 332.434 336.096C332.13 336.476 331.821 336.853 331.508 337.226C329.42 339.718 327.14 342.044 324.691 344.182C324.081 344.715 323.461 345.235 322.83 345.744C322.516 345.997 322.206 346.261 321.878 346.497C321.891 346.488 322.937 345.694 322.318 346.155C322.123 346.3 321.93 346.447 321.735 346.591C320.435 347.554 319.101 348.468 317.733 349.333C314.582 351.318 311.276 353.046 307.848 354.5L309.048 353.993C303.134 356.483 296.919 358.184 290.561 359.052L291.897 358.873C285.543 359.731 279.102 359.743 272.745 358.906L274.081 359.086C268.303 358.31 262.651 356.782 257.27 354.541L258.47 355.047C255.353 353.731 252.347 352.165 249.482 350.364C248.065 349.471 246.684 348.523 245.34 347.519C245.148 347.376 244.958 347.231 244.767 347.086C244.154 346.624 245.208 347.428 245.216 347.433C244.86 347.178 244.516 346.904 244.188 346.613C243.539 346.084 242.9 345.544 242.271 344.991C239.755 342.775 237.406 340.377 235.242 337.816C234.7 337.176 234.17 336.526 233.651 335.867C233.427 335.581 233.017 335.002 233.922 336.221C233.803 336.061 233.68 335.903 233.559 335.744C233.271 335.361 232.986 334.975 232.705 334.586C231.721 333.225 230.786 331.83 229.899 330.402C227.896 327.169 226.148 323.785 224.67 320.281L225.177 321.481C222.759 315.729 221.106 309.685 220.26 303.503L220.439 304.839C219.675 299.141 219.664 293.367 220.407 287.666L220.227 289.001C220.988 283.48 222.474 278.084 224.645 272.951L224.138 274.151C225.505 270.938 227.116 267.835 228.958 264.869C229.881 263.385 230.858 261.937 231.891 260.525C232.126 260.204 232.363 259.885 232.603 259.568C232.82 259.282 233.417 258.568 232.398 259.829C232.498 259.705 232.594 259.578 232.693 259.453C233.259 258.735 233.84 258.028 234.434 257.333C236.683 254.7 239.12 252.232 241.725 249.95C242.383 249.373 243.052 248.809 243.731 248.256C244.039 248.005 244.35 247.756 244.663 247.51C244.788 247.412 244.914 247.316 245.039 247.217C243.701 248.281 244.667 247.506 244.971 247.279C246.37 246.23 247.807 245.234 249.282 244.29C252.559 242.194 256.007 240.377 259.589 238.859L258.389 239.365C263.588 237.182 286.619 232.03 290.808 232.593L289.472 232.413C295.629 233.273 301.647 234.935 307.372 237.359L306.172 236.852C309.073 238.084 311.892 239.5 314.613 241.092C315.972 241.889 317.304 242.729 318.61 243.613C319.228 244.031 319.84 244.458 320.444 244.895C320.747 245.114 321.047 245.335 321.346 245.558C321.512 245.682 321.677 245.807 321.843 245.932C322.539 246.454 320.884 245.176 321.614 245.753C324.056 247.672 326.376 249.742 328.559 251.952C329.631 253.044 330.667 254.17 331.665 255.332C332.177 255.927 332.679 256.532 333.17 257.145C333.414 257.45 334.245 258.553 333.227 257.202C333.476 257.532 333.728 257.86 333.973 258.193C336.09 261.058 337.97 264.091 339.595 267.262C340.796 269.605 344.275 270.479 346.469 269.064C347.596 268.371 348.413 267.269 348.749 265.989C349.084 264.708 348.913 263.348 348.271 262.19Z" fill="#3F3D56"/>
<path d="M289.729 344.182C289.21 344.206 288.697 344.069 288.258 343.792C287.82 343.514 287.477 343.108 287.277 342.629C287.076 342.15 287.028 341.621 287.139 341.114C287.249 340.607 287.513 340.145 287.894 339.793C287.958 339.539 288.004 339.357 288.067 339.103C288.045 339.048 288.022 338.993 287.999 338.938C285.667 333.379 270.792 348.874 270.149 354.099C269.866 356.408 269.985 358.749 270.502 361.017C265.684 350.506 263.182 339.083 263.166 327.52C263.165 324.619 263.326 321.72 263.649 318.836C263.915 316.472 264.285 314.125 264.758 311.795C267.341 299.152 272.886 287.302 280.937 277.217C285.542 277.474 289.578 276.773 289.967 267.849C290.037 266.261 291.214 264.887 291.474 263.323C291.034 263.381 290.587 263.417 290.148 263.445C290.011 263.453 289.867 263.46 289.73 263.467L289.678 263.469C289.195 263.491 288.716 263.373 288.298 263.128C287.881 262.884 287.543 262.524 287.325 262.092C287.108 261.66 287.02 261.175 287.071 260.694C287.123 260.213 287.313 259.758 287.618 259.382C287.807 259.149 287.997 258.915 288.187 258.682C288.476 258.321 288.771 257.968 289.059 257.608C289.093 257.574 289.124 257.538 289.153 257.5C289.485 257.089 289.816 256.685 290.148 256.275C289.543 255.335 288.729 254.549 287.769 253.976C284.447 252.03 279.864 253.378 277.464 256.383C275.057 259.388 274.603 263.604 275.439 267.359C276.261 270.553 277.621 273.585 279.46 276.324C279.28 276.554 279.093 276.778 278.912 277.008C275.619 281.243 272.748 285.791 270.342 290.586C271.023 285.268 262.697 266.062 259.478 261.994C255.61 257.108 247.68 259.241 246.999 265.435C246.992 265.495 246.986 265.555 246.979 265.615C247.458 265.884 247.926 266.171 248.384 266.474C248.959 266.858 249.405 267.407 249.663 268.05C249.921 268.692 249.979 269.397 249.829 270.072C249.679 270.748 249.329 271.363 248.824 271.836C248.319 272.309 247.683 272.619 246.999 272.724L246.929 272.735C240.528 281.875 261.049 305.663 266.185 300.322C263.768 307.174 262.251 314.31 261.674 321.553C261.347 325.826 261.366 330.118 261.732 334.388L261.71 334.237C260.569 324.937 240.989 311.11 235.272 312.262C231.978 312.925 228.734 312.775 229.234 316.097C229.242 316.15 229.25 316.203 229.258 316.256C230.146 316.618 231.01 317.034 231.845 317.503C232.324 317.773 232.792 318.059 233.25 318.362C233.825 318.746 234.271 319.296 234.529 319.938C234.787 320.58 234.845 321.285 234.695 321.961C234.545 322.636 234.195 323.251 233.69 323.724C233.185 324.197 232.549 324.507 231.865 324.612L231.795 324.623C231.744 324.63 231.701 324.638 231.651 324.645C228.737 334.671 250.346 350.851 263.483 345.703H263.49C264.792 351.36 266.678 356.867 269.119 362.134H289.225C289.297 361.911 289.362 361.68 289.427 361.457C287.566 361.574 285.697 361.462 283.863 361.125C285.355 359.295 286.847 357.45 288.339 355.619C288.372 355.585 288.403 355.549 288.432 355.511C289.189 354.574 289.953 353.645 290.71 352.708L290.71 352.707C290.75 349.835 290.421 346.97 289.73 344.182L289.729 344.182ZM266.704 298.888L266.715 298.874L266.704 298.902V298.888ZM262.251 339.036L262.078 338.647C262.085 338.366 262.085 338.085 262.078 337.797C262.078 337.718 262.063 337.638 262.063 337.559C262.128 338.056 262.186 338.554 262.258 339.051L262.251 339.036Z" fill="#3F3D56"/>
<path d="M63.8076 302.343C67.8773 302.343 71.1765 299.044 71.1765 294.975C71.1765 290.905 67.8773 287.606 63.8076 287.606C59.7379 287.606 56.4387 290.905 56.4387 294.975C56.4387 299.044 59.7379 302.343 63.8076 302.343Z" fill="#3F3D56"/>
<path d="M152.234 382.731C156.303 382.731 159.602 379.432 159.602 375.362C159.602 371.292 156.303 367.993 152.234 367.993C148.164 367.993 144.865 371.292 144.865 375.362C144.865 379.432 148.164 382.731 152.234 382.731Z" fill="#3F3D56"/>
<path d="M487.853 382.731C491.922 382.731 495.221 379.432 495.221 375.362C495.221 371.292 491.922 367.993 487.853 367.993C483.783 367.993 480.484 371.292 480.484 375.362C480.484 379.432 483.783 382.731 487.853 382.731Z" fill="#3F3D56"/>
<path d="M505.94 288.945C510.009 288.945 513.309 285.646 513.309 281.576C513.309 277.506 510.009 274.207 505.94 274.207C501.87 274.207 498.571 277.506 498.571 281.576C498.571 285.646 501.87 288.945 505.94 288.945Z" fill="#3F3D56"/>
<path d="M484.503 220.616C488.572 220.616 491.872 217.317 491.872 213.247C491.872 209.177 488.572 205.878 484.503 205.878C480.433 205.878 477.134 209.177 477.134 213.247C477.134 217.317 480.433 220.616 484.503 220.616Z" fill="#3F3D56"/>
<path d="M177.02 281.577C177.015 283.459 176.287 285.267 174.987 286.628C173.686 287.988 171.912 288.797 170.032 288.886C168.152 288.975 166.309 288.338 164.886 287.106C163.462 285.874 162.567 284.143 162.385 282.269C162.203 280.396 162.748 278.524 163.907 277.041C165.067 275.558 166.752 274.578 168.614 274.303C170.476 274.028 172.373 274.48 173.911 275.564C175.45 276.649 176.512 278.283 176.879 280.13C176.974 280.606 177.021 281.091 177.02 281.577Z" fill="#3F3D56"/>
<path d="M324.398 242.052C328.468 242.052 331.767 238.753 331.767 234.683C331.767 230.614 328.468 227.314 324.398 227.314C320.328 227.314 317.029 230.614 317.029 234.683C317.029 238.753 320.328 242.052 324.398 242.052Z" fill="#3F3D56"/>
<path d="M251.378 234.684C251.374 236.566 250.646 238.375 249.345 239.735C248.044 241.096 246.27 241.904 244.39 241.993C242.51 242.082 240.667 241.445 239.244 240.213C237.821 238.981 236.925 237.25 236.743 235.376C236.561 233.503 237.106 231.631 238.265 230.148C239.425 228.666 241.11 227.685 242.972 227.41C244.834 227.136 246.731 227.587 248.269 228.672C249.808 229.756 250.87 231.391 251.237 233.237C251.332 233.713 251.379 234.198 251.378 234.684Z" fill="#3F3D56"/>
<path d="M156.253 213.247C156.249 215.129 155.521 216.938 154.22 218.298C152.919 219.659 151.145 220.467 149.265 220.556C147.385 220.645 145.543 220.008 144.119 218.776C142.696 217.545 141.8 215.813 141.618 213.94C141.436 212.066 141.981 210.194 143.141 208.712C144.3 207.229 145.985 206.249 147.847 205.974C149.71 205.699 151.606 206.15 153.144 207.235C154.683 208.319 155.746 209.954 156.112 211.8C156.207 212.277 156.254 212.761 156.253 213.247Z" fill="#3F3D56"/>
<path d="M401.436 305.023C405.505 305.023 408.804 301.724 408.804 297.654C408.804 293.584 405.505 290.285 401.436 290.285C397.366 290.285 394.067 293.584 394.067 297.654C394.067 301.724 397.366 305.023 401.436 305.023Z" fill="#3F3D56"/>
<path d="M285.544 238.033C291.463 238.033 296.262 233.234 296.262 227.315C296.262 221.395 291.463 216.596 285.544 216.596C279.624 216.596 274.825 221.395 274.825 227.315C274.825 233.234 279.624 238.033 285.544 238.033Z" fill="#3F3D56"/>
<path d="M575.403 383.294L0.797874 383.5C0.693127 383.5 0.589403 383.479 0.49263 383.439C0.395856 383.399 0.307931 383.341 0.233864 383.266C0.159797 383.192 0.101036 383.105 0.0609516 383.008C0.0208667 382.911 0.000244141 382.807 0.000244141 382.702C0.000244141 382.598 0.0208667 382.494 0.0609516 382.397C0.101036 382.3 0.159797 382.213 0.233864 382.138C0.307931 382.064 0.395856 382.006 0.49263 381.966C0.589403 381.925 0.693127 381.905 0.797874 381.905L575.403 381.699C575.614 381.7 575.816 381.784 575.965 381.933C576.114 382.083 576.198 382.285 576.198 382.497C576.198 382.708 576.114 382.91 575.965 383.06C575.816 383.209 575.614 383.294 575.403 383.294Z" fill="#CACACA"/>
</g>
<defs>
<clipPath id="clip0_13563_230774">
<rect width="576.2" height="382.611" fill="white" transform="translate(0 0.88916)"/>
</clipPath>
</defs>
</svg>
