<svg width="47" height="47" viewBox="0 0 47 47" fill="none" xmlns="http://www.w3.org/2000/svg">
<path fill-rule="evenodd" clip-rule="evenodd" d="M23.3773 2.92159C17.9524 2.92159 12.7497 5.07661 8.91373 8.91259C5.07776 12.7486 2.92273 17.9513 2.92273 23.3761C2.92273 28.801 5.07776 34.0037 8.91373 37.8397C12.7497 41.6757 17.9524 43.8307 23.3773 43.8307C28.8022 43.8307 34.0049 41.6757 37.8408 37.8397C41.6768 34.0037 43.8318 28.801 43.8318 23.3761C43.8318 17.9513 41.6768 12.7486 37.8408 8.91259C34.0049 5.07662 28.8022 2.92159 23.3773 2.92159ZM23.3773 46.7528C17.1774 46.7528 11.2315 44.2899 6.84751 39.9059C2.46354 35.5219 0.000654835 29.576 0.000655106 23.3761C0.000655377 17.1763 2.46354 11.2303 6.84751 6.84637C11.2315 2.4624 17.1774 -0.000489574 23.3773 -0.000489303C29.5771 -0.000489032 35.5231 2.4624 39.9071 6.84637C44.291 11.2303 46.7539 17.1763 46.7539 23.3761C46.7539 29.576 44.291 35.5219 39.907 39.9059C35.5231 44.2899 29.5771 46.7528 23.3773 46.7528ZM33.6046 24.8372C33.992 24.8372 34.3637 24.6832 34.6377 24.4092C34.9117 24.1352 35.0656 23.7636 35.0656 23.3761C35.0656 22.9886 34.9117 22.617 34.6377 22.343C34.3637 22.069 33.992 21.9151 33.6046 21.9151L16.677 21.9151L22.9507 15.6443C23.225 15.37 23.3791 14.9979 23.3791 14.6099C23.3791 14.2219 23.225 13.8498 22.9507 13.5755C22.6763 13.3011 22.3042 13.147 21.9162 13.147C21.5283 13.147 21.1562 13.3011 20.8818 13.5755L12.1156 22.3417C11.9795 22.4774 11.8716 22.6387 11.7979 22.8162C11.7243 22.9937 11.6864 23.184 11.6864 23.3761C11.6864 23.5683 11.7243 23.7586 11.7979 23.9361C11.8716 24.1136 11.9795 24.2748 12.1156 24.4106L20.8818 33.1768C21.1562 33.4511 21.5283 33.6053 21.9162 33.6053C22.3042 33.6053 22.6763 33.4511 22.9507 33.1768C23.225 32.9024 23.3791 32.5304 23.3791 32.1424C23.3791 31.7544 23.225 31.3823 22.9507 31.108L16.677 24.8372L33.6046 24.8372Z" fill="#707FDA"/>
</svg>
