<svg width="47" height="47" viewBox="0 0 47 47" fill="none" xmlns="http://www.w3.org/2000/svg">
<path fill-rule="evenodd" clip-rule="evenodd" d="M23.3773 2.92165C17.9524 2.92165 12.7497 5.07668 8.91373 8.91265C5.07776 12.7486 2.92273 17.9513 2.92273 23.3762C2.92273 28.8011 5.07776 34.0038 8.91373 37.8397C12.7497 41.6757 17.9524 43.8307 23.3773 43.8307C28.8022 43.8307 34.0049 41.6757 37.8408 37.8397C41.6768 34.0038 43.8318 28.8011 43.8318 23.3762C43.8318 17.9513 41.6768 12.7486 37.8408 8.91265C34.0049 5.07668 28.8022 2.92165 23.3773 2.92165ZM23.3773 46.7528C17.1774 46.7528 11.2315 44.2899 6.84751 39.906C2.46354 35.522 0.000654835 29.5761 0.000655106 23.3762C0.000655377 17.1763 2.46354 11.2304 6.84751 6.84643C11.2315 2.46246 17.1774 -0.000428539 23.3773 -0.000428268C29.5771 -0.000427997 35.5231 2.46246 39.9071 6.84643C44.291 11.2304 46.7539 17.1763 46.7539 23.3762C46.7539 29.5761 44.291 35.522 39.907 39.906C35.5231 44.2899 29.5771 46.7528 23.3773 46.7528ZM33.6046 24.8372C33.992 24.8372 34.3637 24.6833 34.6377 24.4093C34.9117 24.1353 35.0656 23.7637 35.0656 23.3762C35.0656 22.9887 34.9117 22.6171 34.6377 22.3431C34.3637 22.0691 33.992 21.9152 33.6046 21.9152L16.677 21.9152L22.9507 15.6444C23.225 15.37 23.3791 14.9979 23.3791 14.61C23.3791 14.222 23.225 13.8499 22.9507 13.5755C22.6763 13.3012 22.3042 13.1471 21.9162 13.1471C21.5283 13.1471 21.1562 13.3012 20.8818 13.5755L12.1156 22.3418C11.9795 22.4775 11.8716 22.6387 11.7979 22.8162C11.7243 22.9937 11.6864 23.184 11.6864 23.3762C11.6864 23.5684 11.7243 23.7587 11.7979 23.9362C11.8716 24.1137 11.9795 24.2749 12.1156 24.4106L20.8818 33.1768C21.1562 33.4512 21.5283 33.6053 21.9162 33.6053C22.3042 33.6053 22.6763 33.4512 22.9507 33.1768C23.225 32.9025 23.3791 32.5304 23.3791 32.1424C23.3791 31.7545 23.225 31.3824 22.9507 31.108L16.677 24.8372L33.6046 24.8372Z" fill="#6A9586"/>
</svg>
