<svg width="163" height="18" viewBox="0 0 163 18" fill="none" xmlns="http://www.w3.org/2000/svg">
<path d="M7.84928 13.8259V17.6692H6.14115C2.99601 17.6692 1.42344 16.1034 1.42344 12.9718V9.96224H0V6.20028H1.42344V3.43473H5.9378V6.20028H7.80861V9.96224H5.9378V13.0532C5.9378 13.3243 5.9988 13.5209 6.12081 13.6429C6.25638 13.7649 6.47329 13.8259 6.77153 13.8259H7.84928Z" fill="white"/>
<path d="M20.6714 11.8331C20.6714 12.1177 20.6375 12.416 20.5697 12.7278H13.3508C13.3915 13.2972 13.5203 13.6903 13.7372 13.9072C13.9541 14.1106 14.2388 14.2122 14.5913 14.2122C15.0793 14.2122 15.4318 13.9886 15.6487 13.5412H20.4274C20.2647 14.3546 19.919 15.0866 19.3903 15.7374C18.8752 16.3745 18.2177 16.8829 17.4178 17.2625C16.6315 17.6285 15.7639 17.8115 14.8149 17.8115C13.6762 17.8115 12.6594 17.5743 11.7647 17.0998C10.8835 16.6253 10.1921 15.9475 9.69055 15.0663C9.20251 14.1716 8.95849 13.1277 8.95849 11.9347C8.95849 10.7417 9.20251 9.70467 9.69055 8.82349C10.1921 7.92875 10.8835 7.24414 11.7647 6.76966C12.6594 6.29518 13.6762 6.05793 14.8149 6.05793C15.9537 6.05793 16.9637 6.29518 17.8449 6.76966C18.7396 7.23058 19.431 7.89486 19.919 8.76248C20.4206 9.6301 20.6714 10.6536 20.6714 11.8331ZM16.096 10.8773C16.096 10.4435 15.974 10.1249 15.73 9.92157C15.486 9.70467 15.181 9.59621 14.8149 9.59621C13.988 9.59621 13.5135 10.0232 13.3915 10.8773H16.096Z" fill="white"/>
<path d="M27.3456 6.05793C28.8368 6.05793 30.0908 6.47819 31.1075 7.3187C32.1378 8.15921 32.7885 9.32508 33.0597 10.8163H28.281C28.1047 10.2198 27.759 9.92157 27.2439 9.92157C26.8778 9.92157 26.5864 10.091 26.3695 10.4299C26.1661 10.7689 26.0645 11.2705 26.0645 11.9347C26.0645 12.599 26.1661 13.1006 26.3695 13.4395C26.5864 13.7784 26.8778 13.9479 27.2439 13.9479C27.759 13.9479 28.1047 13.6496 28.281 13.0532H33.0597C32.7885 14.5444 32.1378 15.7102 31.1075 16.5508C30.0908 17.3913 28.8368 17.8115 27.3456 17.8115C26.2068 17.8115 25.19 17.5743 24.2953 17.0998C23.4141 16.6253 22.7227 15.9475 22.2211 15.0663C21.7331 14.1716 21.4891 13.1277 21.4891 11.9347C21.4891 10.7417 21.7331 9.70467 22.2211 8.82349C22.7227 7.92875 23.4141 7.24414 24.2953 6.76966C25.19 6.29518 26.2068 6.05793 27.3456 6.05793Z" fill="white"/>
<path d="M42.523 6.11894C43.838 6.11894 44.8616 6.55953 45.5936 7.44071C46.3392 8.32189 46.712 9.51487 46.712 11.0197V17.6692H42.218V11.589C42.218 11.0468 42.0689 10.6197 41.7706 10.3079C41.486 9.98258 41.0996 9.8199 40.6116 9.8199C40.11 9.8199 39.7168 9.98258 39.4321 10.3079C39.1474 10.6197 39.0051 11.0468 39.0051 11.589V17.6692H34.4907V2.62133H39.0051V7.94908C39.3576 7.40682 39.8253 6.96623 40.4082 6.62731C41.0047 6.2884 41.7096 6.11894 42.523 6.11894Z" fill="white"/>
<path d="M55.2784 5.38688C55.0344 5.35977 54.865 5.34621 54.7701 5.34621C54.4311 5.34621 54.1736 5.414 53.9973 5.54956C53.8211 5.67157 53.6991 5.88848 53.6313 6.20028H55.2784V9.96224H53.5906V17.6692H49.0763V9.96224H47.8562V6.20028H49.0763C49.1034 4.70905 49.5711 3.55674 50.4794 2.74334C51.4012 1.91639 52.6891 1.50291 54.343 1.50291C54.5328 1.50291 54.8446 1.51647 55.2784 1.54358V5.38688Z" fill="white"/>
<path d="M61.0081 2.62133V17.6692H56.4938V2.62133H61.0081Z" fill="white"/>
<path d="M75.187 6.20028V17.6692H70.6726V15.9204C70.3201 16.4626 69.8457 16.9032 69.2492 17.2421C68.6662 17.5811 67.9681 17.7505 67.1547 17.7505C65.8397 17.7505 64.8094 17.3099 64.0638 16.4287C63.3317 15.5476 62.9657 14.3546 62.9657 12.8498V6.20028H67.4597V12.2804C67.4597 12.8227 67.602 13.2565 67.8867 13.5819C68.185 13.8937 68.5781 14.0496 69.0661 14.0496C69.5677 14.0496 69.9609 13.8937 70.2456 13.5819C70.5303 13.2565 70.6726 12.8227 70.6726 12.2804V6.20028H75.187Z" fill="white"/>
<path d="M88.3287 11.8331C88.3287 12.1177 88.2948 12.416 88.2271 12.7278H81.0082C81.0488 13.2972 81.1776 13.6903 81.3945 13.9072C81.6114 14.1106 81.8961 14.2122 82.2486 14.2122C82.7366 14.2122 83.0891 13.9886 83.306 13.5412H88.0847C87.922 14.3546 87.5763 15.0866 87.0476 15.7374C86.5325 16.3745 85.875 16.8829 85.0751 17.2625C84.2889 17.6285 83.4212 17.8115 82.4723 17.8115C81.3335 17.8115 80.3168 17.5743 79.422 17.0998C78.5408 16.6253 77.8495 15.9475 77.3479 15.0663C76.8598 14.1716 76.6158 13.1277 76.6158 11.9347C76.6158 10.7417 76.8598 9.70467 77.3479 8.82349C77.8495 7.92875 78.5408 7.24414 79.422 6.76966C80.3168 6.29518 81.3335 6.05793 82.4723 6.05793C83.611 6.05793 84.621 6.29518 85.5022 6.76966C86.3969 7.23058 87.0883 7.89486 87.5763 8.76248C88.0779 9.6301 88.3287 10.6536 88.3287 11.8331ZM83.7534 10.8773C83.7534 10.4435 83.6314 10.1249 83.3873 9.92157C83.1433 9.70467 82.8383 9.59621 82.4723 9.59621C81.6453 9.59621 81.1708 10.0232 81.0488 10.8773H83.7534Z" fill="white"/>
<path d="M97.7888 6.11894C99.1037 6.11894 100.127 6.55953 100.859 7.44071C101.605 8.32189 101.978 9.51487 101.978 11.0197V17.6692H97.4837V11.589C97.4837 11.0468 97.3346 10.6197 97.0364 10.3079C96.7517 9.98258 96.3653 9.8199 95.8773 9.8199C95.3757 9.8199 94.9825 9.98258 94.6979 10.3079C94.4132 10.6197 94.2708 11.0468 94.2708 11.589V17.6692H89.7565V6.20028H94.2708V7.94908C94.6233 7.40682 95.091 6.96623 95.6739 6.62731C96.2704 6.2884 96.9754 6.11894 97.7888 6.11894Z" fill="white"/>
<path d="M109.182 6.05793C110.673 6.05793 111.927 6.47819 112.944 7.3187C113.974 8.15921 114.625 9.32508 114.896 10.8163H110.117C109.941 10.2198 109.595 9.92157 109.08 9.92157C108.714 9.92157 108.423 10.091 108.206 10.4299C108.002 10.7689 107.901 11.2705 107.901 11.9347C107.901 12.599 108.002 13.1006 108.206 13.4395C108.423 13.7784 108.714 13.9479 109.08 13.9479C109.595 13.9479 109.941 13.6496 110.117 13.0532H114.896C114.625 14.5444 113.974 15.7102 112.944 16.5508C111.927 17.3913 110.673 17.8115 109.182 17.8115C108.043 17.8115 107.026 17.5743 106.131 17.0998C105.25 16.6253 104.559 15.9475 104.057 15.0663C103.569 14.1716 103.325 13.1277 103.325 11.9347C103.325 10.7417 103.569 9.70467 104.057 8.82349C104.559 7.92875 105.25 7.24414 106.131 6.76966C107.026 6.29518 108.043 6.05793 109.182 6.05793Z" fill="white"/>
<path d="M127.43 11.8331C127.43 12.1177 127.396 12.416 127.328 12.7278H120.109C120.15 13.2972 120.279 13.6903 120.496 13.9072C120.712 14.1106 120.997 14.2122 121.35 14.2122C121.838 14.2122 122.19 13.9886 122.407 13.5412H127.186C127.023 14.3546 126.677 15.0866 126.149 15.7374C125.634 16.3745 124.976 16.8829 124.176 17.2625C123.39 17.6285 122.522 17.8115 121.573 17.8115C120.435 17.8115 119.418 17.5743 118.523 17.0998C117.642 16.6253 116.951 15.9475 116.449 15.0663C115.961 14.1716 115.717 13.1277 115.717 11.9347C115.717 10.7417 115.961 9.70467 116.449 8.82349C116.951 7.92875 117.642 7.24414 118.523 6.76966C119.418 6.29518 120.435 6.05793 121.573 6.05793C122.712 6.05793 123.722 6.29518 124.603 6.76966C125.498 7.23058 126.189 7.89486 126.677 8.76248C127.179 9.6301 127.43 10.6536 127.43 11.8331ZM122.854 10.8773C122.854 10.4435 122.732 10.1249 122.488 9.92157C122.244 9.70467 121.939 9.59621 121.573 9.59621C120.746 9.59621 120.272 10.0232 120.15 10.8773H122.854Z" fill="white"/>
<path d="M133.372 8.31511C133.833 7.65084 134.395 7.12213 135.06 6.72899C135.724 6.32229 136.415 6.11894 137.134 6.11894V10.9383H135.853C134.999 10.9383 134.368 11.0874 133.962 11.3857C133.568 11.6839 133.372 12.2126 133.372 12.9718V17.6692H128.858V6.20028H133.372V8.31511Z" fill="white"/>
<path d="M142.376 13.3582V17.6692H137.902V13.3582H142.376Z" fill="white"/>
<path d="M143.664 3.0687C143.664 2.41798 143.901 1.8825 144.376 1.46224C144.85 1.02843 145.481 0.811523 146.267 0.811523C147.04 0.811523 147.663 1.02843 148.138 1.46224C148.612 1.8825 148.85 2.41798 148.85 3.0687C148.85 3.70586 148.612 4.23457 148.138 4.65482C147.663 5.07508 147.04 5.28521 146.267 5.28521C145.481 5.28521 144.85 5.07508 144.376 4.65482C143.901 4.23457 143.664 3.70586 143.664 3.0687ZM148.504 6.20028V17.6692H143.99V6.20028H148.504Z" fill="white"/>
<path d="M155.993 6.05793C157.145 6.05793 158.182 6.29518 159.104 6.76966C160.026 7.24414 160.744 7.92875 161.259 8.82349C161.788 9.70467 162.052 10.7417 162.052 11.9347C162.052 13.1277 161.788 14.1716 161.259 15.0663C160.744 15.9475 160.026 16.6253 159.104 17.0998C158.182 17.5743 157.145 17.8115 155.993 17.8115C154.84 17.8115 153.803 17.5743 152.881 17.0998C151.959 16.6253 151.234 15.9475 150.705 15.0663C150.19 14.1716 149.933 13.1277 149.933 11.9347C149.933 10.7417 150.19 9.70467 150.705 8.82349C151.234 7.92875 151.959 7.24414 152.881 6.76966C153.803 6.29518 154.84 6.05793 155.993 6.05793ZM155.993 9.96224C155.572 9.96224 155.22 10.1317 154.935 10.4706C154.65 10.796 154.508 11.284 154.508 11.9347C154.508 12.5854 154.644 13.0803 154.915 13.4192C155.2 13.7445 155.559 13.9072 155.993 13.9072C156.413 13.9072 156.765 13.7445 157.05 13.4192C157.335 13.0803 157.477 12.5854 157.477 11.9347C157.477 11.284 157.335 10.796 157.05 10.4706C156.765 10.1317 156.413 9.96224 155.993 9.96224Z" fill="white"/>
</svg>
