<svg width="212" height="23" viewBox="0 0 212 23" fill="none" xmlns="http://www.w3.org/2000/svg">
<path d="M10.2449 17.7694V22.7856H8.01546C3.91041 22.7856 1.85789 20.742 1.85789 16.6546V12.7265H0V7.81639H1.85789V4.20678H7.75004V7.81639H10.1918V12.7265H7.75004V16.7608C7.75004 17.1147 7.82967 17.3712 7.98891 17.5305C8.16586 17.6897 8.44896 17.7694 8.83823 17.7694H10.2449Z" fill="#333333"/>
<path d="M26.9804 15.1683C26.9804 15.5399 26.9362 15.9292 26.8477 16.3361H17.4256C17.4787 17.0793 17.6467 17.5924 17.9299 17.8755C18.213 18.1409 18.5845 18.2736 19.0446 18.2736C19.6816 18.2736 20.1416 17.9817 20.4247 17.3978H26.6619C26.4496 18.4594 25.9984 19.4149 25.3083 20.2642C24.6359 21.0959 23.7778 21.7594 22.7338 22.2548C21.7076 22.7326 20.5751 22.9714 19.3365 22.9714C17.8502 22.9714 16.5232 22.6618 15.3554 22.0425C14.2052 21.4232 13.3028 20.5385 12.6481 19.3884C12.0112 18.2206 11.6927 16.8581 11.6927 15.301C11.6927 13.7439 12.0112 12.3903 12.6481 11.2402C13.3028 10.0724 14.2052 9.17884 15.3554 8.55954C16.5232 7.94025 17.8502 7.6306 19.3365 7.6306C20.8228 7.6306 22.1411 7.94025 23.2912 8.55954C24.459 9.16115 25.3614 10.0282 25.9984 11.1606C26.6531 12.293 26.9804 13.6289 26.9804 15.1683ZM21.0086 13.9209C21.0086 13.3547 20.8494 12.9388 20.5309 12.6734C20.2124 12.3903 19.8143 12.2488 19.3365 12.2488C18.2572 12.2488 17.6379 12.8061 17.4786 13.9209H21.0086Z" fill="#333333"/>
<path d="M35.6915 7.6306C37.6379 7.6306 39.2746 8.17912 40.6017 9.27616C41.9464 10.3732 42.7957 11.8949 43.1496 13.8412H36.9124C36.6824 13.0627 36.2312 12.6734 35.5588 12.6734C35.0811 12.6734 34.7007 12.8946 34.4176 13.337C34.1521 13.7793 34.0194 14.434 34.0194 15.301C34.0194 16.168 34.1521 16.8227 34.4176 17.2651C34.7007 17.7074 35.0811 17.9286 35.5588 17.9286C36.2312 17.9286 36.6824 17.5393 36.9124 16.7608H43.1496C42.7957 18.7071 41.9464 20.2288 40.6017 21.3259C39.2746 22.4229 37.6379 22.9714 35.6915 22.9714C34.2052 22.9714 32.8782 22.6618 31.7104 22.0425C30.5602 21.4232 29.6578 20.5385 29.0031 19.3884C28.3662 18.2206 28.0477 16.8581 28.0477 15.301C28.0477 13.7439 28.3662 12.3903 29.0031 11.2402C29.6578 10.0724 30.5602 9.17884 31.7104 8.55954C32.8782 7.94025 34.2052 7.6306 35.6915 7.6306Z" fill="#333333"/>
<path d="M55.5013 7.71022C57.2176 7.71022 58.5535 8.28528 59.509 9.4354C60.4822 10.5855 60.9688 12.1426 60.9688 14.1067V22.7856H55.1031V14.8498C55.1031 14.1421 54.9085 13.5847 54.5192 13.1777C54.1477 12.7531 53.6434 12.5407 53.0064 12.5407C52.3517 12.5407 51.8386 12.7531 51.467 13.1777C51.0954 13.5847 50.9096 14.1421 50.9096 14.8498V22.7856H45.0175V3.14513H50.9096V10.0989C51.3697 9.39117 51.9801 8.81611 52.741 8.37375C53.5195 7.9314 54.4396 7.71022 55.5013 7.71022Z" fill="#333333"/>
<path d="M72.1497 6.75474C71.8312 6.71935 71.61 6.70166 71.4861 6.70166C71.0438 6.70166 70.7076 6.79013 70.4776 6.96707C70.2475 7.12632 70.0883 7.40942 69.9998 7.81639H72.1497V12.7265H69.9467V22.7856H64.0546V12.7265H62.4621V7.81639H64.0546C64.09 5.87003 64.7004 4.36603 65.8859 3.30438C67.0891 2.22503 68.7701 1.68536 70.9288 1.68536C71.1765 1.68536 71.5835 1.70306 72.1497 1.73844V6.75474Z" fill="#333333"/>
<path d="M79.6281 3.14513V22.7856H73.7359V3.14513H79.6281Z" fill="#333333"/>
<path d="M98.1344 7.81639V22.7856H92.2422V20.5031C91.7822 21.2109 91.1629 21.7859 90.3843 22.2283C89.6235 22.6706 88.7122 22.8918 87.6506 22.8918C85.9342 22.8918 84.5895 22.3168 83.6163 21.1666C82.6608 20.0165 82.1831 18.4594 82.1831 16.4954V7.81639H88.0487V15.7522C88.0487 16.46 88.2345 17.0262 88.6061 17.4509C88.9953 17.8578 89.5085 18.0613 90.1455 18.0613C90.8001 18.0613 91.3133 17.8578 91.6848 17.4509C92.0564 17.0262 92.2422 16.46 92.2422 15.7522V7.81639H98.1344Z" fill="#333333"/>
<path d="M115.287 15.1683C115.287 15.5399 115.243 15.9292 115.154 16.3361H105.732C105.785 17.0793 105.953 17.5924 106.236 17.8755C106.52 18.1409 106.891 18.2736 107.351 18.2736C107.988 18.2736 108.448 17.9817 108.731 17.3978H114.969C114.756 18.4594 114.305 19.4149 113.615 20.2642C112.943 21.0959 112.084 21.7594 111.04 22.2548C110.014 22.7326 108.882 22.9714 107.643 22.9714C106.157 22.9714 104.83 22.6618 103.662 22.0425C102.512 21.4232 101.609 20.5385 100.955 19.3884C100.318 18.2206 99.9993 16.8581 99.9993 15.301C99.9993 13.7439 100.318 12.3903 100.955 11.2402C101.609 10.0724 102.512 9.17884 103.662 8.55954C104.83 7.94025 106.157 7.6306 107.643 7.6306C109.129 7.6306 110.448 7.94025 111.598 8.55954C112.766 9.16115 113.668 10.0282 114.305 11.1606C114.96 12.293 115.287 13.6289 115.287 15.1683ZM109.315 13.9209C109.315 13.3547 109.156 12.9388 108.838 12.6734C108.519 12.3903 108.121 12.2488 107.643 12.2488C106.564 12.2488 105.945 12.8061 105.785 13.9209H109.315Z" fill="#333333"/>
<path d="M127.634 7.71022C129.351 7.71022 130.687 8.28528 131.642 9.4354C132.615 10.5855 133.102 12.1426 133.102 14.1067V22.7856H127.236V14.8498C127.236 14.1421 127.042 13.5847 126.652 13.1777C126.281 12.7531 125.776 12.5407 125.139 12.5407C124.485 12.5407 123.972 12.7531 123.6 13.1777C123.228 13.5847 123.043 14.1421 123.043 14.8498V22.7856H117.151V7.81639H123.043V10.0989C123.503 9.39117 124.113 8.81611 124.874 8.37375C125.653 7.9314 126.573 7.71022 127.634 7.71022Z" fill="#333333"/>
<path d="M142.504 7.6306C144.451 7.6306 146.088 8.17912 147.415 9.27616C148.759 10.3732 149.609 11.8949 149.963 13.8412H143.725C143.495 13.0627 143.044 12.6734 142.372 12.6734C141.894 12.6734 141.514 12.8946 141.23 13.337C140.965 13.7793 140.832 14.434 140.832 15.301C140.832 16.168 140.965 16.8227 141.23 17.2651C141.514 17.7074 141.894 17.9286 142.372 17.9286C143.044 17.9286 143.495 17.5393 143.725 16.7608H149.963C149.609 18.7071 148.759 20.2288 147.415 21.3259C146.088 22.4229 144.451 22.9714 142.504 22.9714C141.018 22.9714 139.691 22.6618 138.523 22.0425C137.373 21.4232 136.471 20.5385 135.816 19.3884C135.179 18.2206 134.861 16.8581 134.861 15.301C134.861 13.7439 135.179 12.3903 135.816 11.2402C136.471 10.0724 137.373 9.17884 138.523 8.55954C139.691 7.94025 141.018 7.6306 142.504 7.6306Z" fill="#333333"/>
<path d="M166.322 15.1683C166.322 15.5399 166.278 15.9292 166.189 16.3361H156.767C156.82 17.0793 156.988 17.5924 157.271 17.8755C157.554 18.1409 157.926 18.2736 158.386 18.2736C159.023 18.2736 159.483 17.9817 159.766 17.3978H166.003C165.791 18.4594 165.34 19.4149 164.65 20.2642C163.977 21.0959 163.119 21.7594 162.075 22.2548C161.049 22.7326 159.917 22.9714 158.678 22.9714C157.192 22.9714 155.865 22.6618 154.697 22.0425C153.547 21.4232 152.644 20.5385 151.99 19.3884C151.353 18.2206 151.034 16.8581 151.034 15.301C151.034 13.7439 151.353 12.3903 151.99 11.2402C152.644 10.0724 153.547 9.17884 154.697 8.55954C155.865 7.94025 157.192 7.6306 158.678 7.6306C160.164 7.6306 161.483 7.94025 162.633 8.55954C163.801 9.16115 164.703 10.0282 165.34 11.1606C165.995 12.293 166.322 13.6289 166.322 15.1683ZM160.35 13.9209C160.35 13.3547 160.191 12.9388 159.872 12.6734C159.554 12.3903 159.156 12.2488 158.678 12.2488C157.599 12.2488 156.979 12.8061 156.82 13.9209H160.35Z" fill="#333333"/>
<path d="M174.078 10.5767C174.679 9.70966 175.413 9.01959 176.28 8.50646C177.147 7.97564 178.05 7.71022 178.988 7.71022V14.0005H177.316C176.201 14.0005 175.378 14.1951 174.847 14.5844C174.334 14.9737 174.078 15.6637 174.078 16.6546V22.7856H168.185V7.81639H174.078V10.5767Z" fill="#333333"/>
<path d="M185.83 17.1589V22.7856H179.991V17.1589H185.83Z" fill="#333333"/>
<path d="M187.511 3.72904C187.511 2.87972 187.821 2.1808 188.44 1.63228C189.059 1.06607 189.882 0.782959 190.908 0.782959C191.917 0.782959 192.731 1.06607 193.35 1.63228C193.97 2.1808 194.279 2.87972 194.279 3.72904C194.279 4.56066 193.97 5.25073 193.35 5.79925C192.731 6.34777 191.917 6.62203 190.908 6.62203C189.882 6.62203 189.059 6.34777 188.44 5.79925C187.821 5.25073 187.511 4.56066 187.511 3.72904ZM193.828 7.81639V22.7856H187.936V7.81639H193.828Z" fill="#333333"/>
<path d="M203.602 7.6306C205.106 7.6306 206.46 7.94025 207.663 8.55954C208.866 9.17884 209.804 10.0724 210.476 11.2402C211.166 12.3903 211.512 13.7439 211.512 15.301C211.512 16.8581 211.166 18.2206 210.476 19.3884C209.804 20.5385 208.866 21.4232 207.663 22.0425C206.46 22.6618 205.106 22.9714 203.602 22.9714C202.098 22.9714 200.745 22.6618 199.541 22.0425C198.338 21.4232 197.392 20.5385 196.702 19.3884C196.029 18.2206 195.693 16.8581 195.693 15.301C195.693 13.7439 196.029 12.3903 196.702 11.2402C197.392 10.0724 198.338 9.17884 199.541 8.55954C200.745 7.94025 202.098 7.6306 203.602 7.6306ZM203.602 12.7265C203.054 12.7265 202.594 12.9477 202.222 13.39C201.85 13.8147 201.665 14.4517 201.665 15.301C201.665 16.1503 201.842 16.7962 202.196 17.2385C202.567 17.6632 203.036 17.8755 203.602 17.8755C204.151 17.8755 204.611 17.6632 204.982 17.2385C205.354 16.7962 205.54 16.1503 205.54 15.301C205.54 14.4517 205.354 13.8147 204.982 13.39C204.611 12.9477 204.151 12.7265 203.602 12.7265Z" fill="#333333"/>
</svg>
