<svg width="16" height="16" viewBox="0 0 16 16" fill="none" xmlns="http://www.w3.org/2000/svg">
<path d="M8.00016 1.33331C5.42283 1.33331 3.3335 3.42265 3.3335 5.99998C3.3335 8.64398 6.2695 12.5466 7.48416 14.0473C7.75083 14.3766 8.2495 14.3766 8.51616 14.0473C9.73083 12.5466 12.6668 8.64398 12.6668 5.99998C12.6668 3.42265 10.5775 1.33331 8.00016 1.33331ZM8.00016 7.66665C7.0795 7.66665 6.3335 6.92065 6.3335 5.99998C6.3335 5.07931 7.0795 4.33331 8.00016 4.33331C8.92083 4.33331 9.66683 5.07931 9.66683 5.99998C9.66683 6.92065 8.92083 7.66665 8.00016 7.66665Z" fill="#99A29C"/>
</svg>
