<svg width="349" height="196" viewBox="0 0 349 196" fill="none" xmlns="http://www.w3.org/2000/svg">
<path d="M85.8794 185.111C85.926 185.111 85.9734 185.105 86.0205 185.093C86.3127 185.015 86.4864 184.717 86.4087 184.426L69.3862 120.687C69.3085 120.396 69.0088 120.223 68.7167 120.3C68.4244 120.378 68.2507 120.676 68.3285 120.967L85.3509 184.706C85.416 184.95 85.6375 185.111 85.8794 185.111Z" fill="#222723"/>
<path d="M32.7257 185.111C32.9916 185.111 33.2249 184.918 33.2661 184.648L43.0161 120.909C43.0617 120.611 42.8563 120.333 42.5575 120.288C42.2588 120.243 41.9795 120.447 41.9341 120.745L32.1841 184.484C32.1385 184.781 32.3439 185.059 32.6427 185.105C32.6705 185.109 32.6982 185.111 32.7257 185.111Z" fill="#222723"/>
<path d="M71.5697 120.827C71.5697 120.827 62.762 79.4903 62.561 78.3837C61.9315 74.919 60.6127 71.6073 57.0845 70.9093C56.6446 70.8223 56.1974 70.7785 55.749 70.7785H52.0892H39.4001H35.7403C35.2919 70.7785 34.8447 70.8223 34.4049 70.9093C30.6909 71.644 28.278 75.2382 28.6733 78.9143L37.124 121.157" fill="white"/>
<path d="M37.1233 121.702C37.1589 121.702 37.1948 121.698 37.2309 121.691C37.5274 121.632 37.7199 121.345 37.6608 121.05L29.215 78.8323C28.8521 75.3465 31.1746 72.1041 34.5115 71.4441C34.9152 71.3641 35.3286 71.3236 35.7402 71.3236H55.7488C56.1602 71.3236 56.5738 71.3641 56.9778 71.4439C59.6429 71.971 61.2458 74.207 62.0223 78.4805C62.2226 79.5826 70.6745 119.252 71.0343 120.94C71.097 121.235 71.3877 121.423 71.6832 121.36C71.979 121.298 72.1678 121.008 72.105 120.714C72.0171 120.301 63.2968 79.3725 63.0994 78.2864C62.5539 75.2838 61.3478 71.1968 57.1909 70.3745C56.7171 70.2809 56.2318 70.2333 55.7488 70.2333H35.7402C35.2573 70.2333 34.772 70.2808 34.2982 70.3745C30.4033 71.145 27.6935 74.9215 28.1291 78.9722C28.131 78.9884 28.1333 79.0045 28.1366 79.0207L36.5873 121.263C36.6389 121.522 36.8675 121.702 37.1233 121.702Z" fill="#222723"/>
<path d="M91.9392 120.282L36.552 120.277V121.003C36.552 122.416 37.7021 123.562 39.1208 123.562H94.6118L91.9392 120.282Z" fill="#222723"/>
<path d="M267.175 185.384C267.128 185.384 267.081 185.378 267.034 185.365C266.743 185.288 266.57 184.99 266.648 184.7L283.6 121.112C283.678 120.822 283.976 120.649 284.267 120.726C284.558 120.803 284.731 121.101 284.654 121.391L267.701 184.979C267.636 185.223 267.416 185.384 267.175 185.384Z" fill="#222723"/>
<path d="M320.111 185.383C319.846 185.383 319.614 185.19 319.572 184.921L309.862 121.333C309.817 121.036 310.022 120.759 310.319 120.714C310.617 120.669 310.895 120.873 310.94 121.17L320.65 184.757C320.696 185.054 320.491 185.332 320.193 185.377C320.166 185.381 320.138 185.383 320.111 185.383Z" fill="#222723"/>
<path d="M281.426 121.252C281.426 121.252 290.197 80.0127 290.398 78.9087C291.024 75.4523 292.338 72.1484 295.852 71.4521C296.29 71.3653 296.735 71.3216 297.182 71.3216H300.826H313.464H317.108C317.555 71.3216 318 71.3653 318.438 71.4521C322.137 72.185 324.54 75.7708 324.146 79.4381L315.73 121.58" fill="white"/>
<path d="M315.731 122.124C315.696 122.124 315.66 122.121 315.624 122.114C315.329 122.055 315.137 121.769 315.196 121.474L323.607 79.3563C323.968 75.8788 321.655 72.6441 318.332 71.9856C317.93 71.9059 317.518 71.8655 317.109 71.8655H297.182C296.772 71.8655 296.36 71.9059 295.958 71.9855C293.304 72.5114 291.707 74.742 290.934 79.0054C290.735 80.1048 282.317 119.68 281.959 121.364C281.897 121.658 281.607 121.846 281.313 121.784C281.018 121.721 280.83 121.432 280.893 121.139C280.98 120.727 289.665 79.8953 289.861 78.8118C290.405 75.8163 291.606 71.7389 295.746 70.9186C296.218 70.8253 296.701 70.7778 297.182 70.7778H317.109C317.589 70.7778 318.073 70.8251 318.545 70.9186C322.424 71.6873 325.122 75.4548 324.688 79.4959C324.687 79.512 324.684 79.5282 324.681 79.5443L316.265 121.687C316.213 121.945 315.986 122.124 315.731 122.124Z" fill="#222723"/>
<path d="M261.14 120.708L316.3 120.702V121.428C316.3 122.837 315.155 123.98 313.742 123.98H258.478L261.14 120.708Z" fill="#222723"/>
<path d="M264.395 117.075L260.897 120.739L294.11 120.907C302.048 120.16 308.46 114.768 310.986 107.62L271.297 95.2066L265.643 89.0206L252.875 89.5664L249.409 97.026L252.145 115.766L258.712 122.68" fill="white"/>
<path d="M258.712 123.226C258.637 123.226 258.564 123.211 258.495 123.181C258.427 123.152 258.365 123.109 258.314 123.055L251.748 116.141C251.671 116.06 251.62 115.956 251.604 115.845L248.868 97.1046C248.852 96.9997 248.868 96.8926 248.913 96.7964L252.378 89.3368C252.421 89.2459 252.487 89.1684 252.571 89.1126C252.654 89.0569 252.751 89.0252 252.852 89.0209L265.619 88.4751C265.699 88.4719 265.779 88.4862 265.853 88.5168C265.927 88.5475 265.993 88.5939 266.047 88.6527L271.602 94.7296L311.15 107.099C311.22 107.121 311.285 107.157 311.341 107.204C311.397 107.252 311.442 107.31 311.475 107.375C311.508 107.441 311.527 107.512 311.532 107.585C311.537 107.659 311.526 107.732 311.502 107.801C308.834 115.352 302.027 120.71 294.161 121.451C294.143 121.452 294.125 121.453 294.107 121.453L260.894 121.285C260.787 121.285 260.683 121.253 260.594 121.194C260.505 121.135 260.435 121.051 260.393 120.953C260.352 120.855 260.339 120.747 260.358 120.642C260.378 120.537 260.427 120.44 260.501 120.363L263.999 116.699C264.1 116.596 264.237 116.537 264.381 116.535C264.524 116.532 264.663 116.586 264.768 116.685C264.872 116.784 264.933 116.92 264.937 117.063C264.942 117.207 264.889 117.346 264.791 117.451L262.167 120.2L294.085 120.361C301.331 119.668 307.625 114.831 310.274 107.969L271.133 95.7273C271.041 95.6984 270.958 95.6456 270.893 95.5743L265.411 89.5768L253.231 90.0973L249.974 97.1081L252.662 115.516L259.109 122.304C259.183 122.381 259.232 122.479 259.251 122.584C259.27 122.689 259.257 122.797 259.215 122.895C259.173 122.993 259.102 123.077 259.013 123.135C258.924 123.194 258.819 123.225 258.712 123.225L258.712 123.226Z" fill="#222723"/>
<path d="M254.792 73.7291L253.035 79.2143L248.497 79.1957L247.403 76.8305L254.792 73.7291Z" fill="white"/>
<path d="M262.082 74.407L270.282 61.0645C271.302 59.0503 272.847 57.3472 274.755 56.1341C276.662 54.921 278.862 54.2427 281.123 54.1703L283.639 54.089C283.639 54.089 283.148 61.5887 290.911 61.8761C298.403 62.153 297.718 53.6342 297.718 53.6342L300.275 53.5515C303.118 53.4599 305.908 54.3301 308.192 56.0207C310.477 57.7114 312.12 60.123 312.857 62.8635C313.506 64.4853 313.804 66.2257 313.731 67.9705L314.373 100.924C314.282 103.589 313.158 106.115 311.236 107.969C309.314 109.822 306.746 110.859 304.073 110.86H304.054C302.58 110.859 301.122 110.544 299.781 109.934L269.726 96.5854C269.726 96.5854 280.743 100.444 283.487 88.1398C284.25 74.5322 271.613 77.0286 271.613 77.0286L262.082 74.407Z" fill="#6A9586"/>
<path d="M268.567 76.4817C268.536 76.4816 268.505 76.4789 268.474 76.4737C268.331 76.4493 268.204 76.3693 268.12 76.2511C268.036 76.133 268.002 75.9865 268.027 75.8438L268.959 70.3914C268.985 70.25 269.066 70.1245 269.184 70.0421C269.302 69.9597 269.448 69.927 269.59 69.9512C269.732 69.9754 269.859 70.0545 269.943 70.1713C270.026 70.2881 270.061 70.4332 270.038 70.5751L269.105 76.0276C269.083 76.1544 269.017 76.2695 268.919 76.3526C268.82 76.4356 268.696 76.4814 268.567 76.4817Z" fill="#222723"/>
<path d="M299.476 27.2393V20.2163C299.477 18.5375 298.809 16.9274 297.619 15.74C296.429 14.5526 294.815 13.8852 293.132 13.8847H276.461C275.189 13.8847 273.97 14.3887 273.07 15.2857C272.171 16.1827 271.666 17.3994 271.666 18.668C271.666 19.2961 271.79 19.9181 272.031 20.4985C272.272 21.0788 272.625 21.6061 273.07 22.0503C273.516 22.4945 274.044 22.8468 274.626 23.0872C275.208 23.3275 275.831 23.4512 276.461 23.4512L289.959 23.7678C290.557 23.7821 291.125 24.0327 291.539 24.4645C291.952 24.8964 292.177 25.4742 292.164 26.0712L292.045 31.6623C292.03 32.3368 292.24 32.9972 292.642 33.5397L299.476 27.2393Z" fill="white"/>
<path d="M292.642 34.0855C292.625 34.0855 292.608 34.0855 292.59 34.083C292.514 34.0759 292.44 34.0528 292.373 34.0151C292.306 33.9775 292.248 33.9262 292.202 33.8647C291.726 33.2259 291.479 32.4469 291.498 31.6515L291.617 26.0604C291.626 25.608 291.456 25.1703 291.142 24.843C290.829 24.5157 290.399 24.3254 289.945 24.3138L276.448 23.9972C275.746 23.9964 275.052 23.8577 274.404 23.5891C273.756 23.3204 273.167 22.9272 272.672 22.4317C272.176 21.9362 271.784 21.3483 271.516 20.7014C271.248 20.0545 271.111 19.3613 271.112 18.6615C271.113 17.9617 271.252 17.2688 271.521 16.6226C271.79 15.9764 272.185 15.3894 272.681 14.8951C273.178 14.4009 273.767 14.009 274.416 13.742C275.064 13.475 275.759 13.338 276.461 13.3389H293.13C294.036 13.3389 294.932 13.5168 295.769 13.8624C296.605 14.2081 297.365 14.7147 298.005 15.3533C298.645 15.992 299.153 16.7502 299.499 17.5845C299.845 18.4189 300.023 19.3132 300.023 20.2163V27.2392C300.023 27.3144 300.007 27.3888 299.977 27.4577C299.947 27.5266 299.903 27.5885 299.847 27.6395L293.013 33.94C292.912 34.0334 292.78 34.0854 292.642 34.0855ZM276.461 14.4305C275.334 14.4305 274.254 14.877 273.457 15.6716C272.66 16.4663 272.213 17.5441 272.213 18.668C272.213 19.7918 272.66 20.8696 273.457 21.6643C274.254 22.4589 275.334 22.9054 276.461 22.9054L289.971 23.2221C290.714 23.241 291.42 23.5526 291.933 24.0887C292.446 24.6248 292.726 25.3419 292.711 26.0832L292.592 31.6739C292.584 32.016 292.647 32.3561 292.776 32.6729L298.929 27.0005V20.2163C298.929 18.6823 298.319 17.2109 297.232 16.1259C296.145 15.0408 294.67 14.431 293.132 14.4305H276.461Z" fill="#222723"/>
<path d="M233.883 165.479C233.21 168.974 230.508 172.113 225.101 173.797C219.746 175.467 217.205 179.586 217.661 184.559H245.141L255.604 170.334L258.976 177.976L268.534 173.637L260.046 154.987" fill="white"/>
<path d="M245.141 185.105H217.661C217.524 185.105 217.393 185.054 217.292 184.962C217.191 184.87 217.128 184.744 217.116 184.609C216.619 179.195 219.543 174.959 224.938 173.276C229.73 171.784 232.637 169.052 233.346 165.376C233.359 165.305 233.386 165.238 233.426 165.177C233.465 165.117 233.516 165.065 233.576 165.024C233.635 164.983 233.702 164.955 233.773 164.94C233.844 164.925 233.917 164.925 233.988 164.939C234.059 164.952 234.126 164.98 234.187 165.019C234.247 165.059 234.299 165.111 234.339 165.17C234.379 165.23 234.407 165.297 234.421 165.368C234.435 165.439 234.435 165.512 234.421 165.582C233.643 169.619 230.391 172.722 225.265 174.318C220.493 175.806 217.93 179.325 218.171 184.013H244.864L255.162 170.012C255.219 169.935 255.295 169.874 255.383 169.835C255.471 169.797 255.568 169.782 255.663 169.792C255.759 169.803 255.85 169.838 255.927 169.895C256.005 169.951 256.066 170.027 256.104 170.115L259.254 177.251L267.809 173.366L259.547 155.214C259.487 155.082 259.482 154.932 259.533 154.796C259.584 154.661 259.687 154.551 259.819 154.491C259.951 154.431 260.102 154.426 260.238 154.477C260.374 154.528 260.484 154.631 260.544 154.763L269.032 173.412C269.092 173.543 269.097 173.693 269.046 173.829C268.995 173.964 268.892 174.074 268.76 174.134L259.202 178.473C259.137 178.503 259.065 178.52 258.993 178.522C258.92 178.524 258.848 178.512 258.781 178.487C258.713 178.461 258.651 178.422 258.599 178.372C258.546 178.322 258.504 178.263 258.475 178.196L255.483 171.42L245.581 184.882C245.531 184.951 245.464 185.007 245.388 185.046C245.311 185.085 245.227 185.105 245.141 185.105Z" fill="#222723"/>
<path d="M254.093 128.796L265.192 152.925L232.164 166.168L228.798 159.068L212.2 124.499L205.876 111.345C202.026 102.768 208.792 92.6318 218.024 90.1153C218.885 89.8806 219.763 89.7126 220.65 89.6128C220.818 89.5946 220.986 89.5864 221.154 89.588L252.836 89.7882" fill="white"/>
<path d="M232.164 166.714C232.06 166.714 231.958 166.685 231.871 166.63C231.783 166.574 231.713 166.495 231.669 166.402L228.304 159.302L211.706 124.735L205.383 111.582C203.731 107.903 203.86 103.698 205.741 99.7299C208.033 94.8911 212.684 91.0055 217.879 89.5895C218.767 89.3476 219.673 89.1744 220.588 89.0711C220.777 89.0503 220.966 89.0409 221.156 89.0429L252.839 89.2431C252.984 89.2435 253.123 89.3015 253.225 89.4042C253.327 89.5069 253.385 89.6459 253.384 89.7906C253.384 89.9354 253.326 90.074 253.223 90.1761C253.12 90.2781 252.98 90.3352 252.835 90.3347H252.832L221.149 90.1346C221.003 90.1328 220.857 90.1399 220.711 90.1559C219.852 90.2527 219.002 90.4155 218.168 90.6426C213.273 91.9769 208.891 95.6378 206.731 100.196C204.989 103.872 204.863 107.752 206.376 111.123L212.694 124.263L229.292 158.832L232.438 165.47L264.456 152.632L253.597 129.023C253.566 128.958 253.548 128.887 253.545 128.815C253.542 128.743 253.553 128.671 253.578 128.603C253.603 128.535 253.641 128.473 253.69 128.42C253.739 128.367 253.798 128.324 253.864 128.294C253.93 128.264 254.001 128.247 254.073 128.245C254.145 128.242 254.217 128.254 254.285 128.28C254.353 128.305 254.415 128.344 254.467 128.393C254.52 128.443 254.562 128.502 254.592 128.568L265.69 152.697C265.721 152.764 265.738 152.837 265.74 152.911C265.742 152.985 265.729 153.058 265.701 153.127C265.674 153.196 265.633 153.258 265.58 153.31C265.528 153.363 265.466 153.404 265.397 153.431L232.368 166.675C232.303 166.701 232.234 166.714 232.164 166.714Z" fill="#222723"/>
<path d="M191.301 154.515C189.115 155.623 186.58 156.149 183.831 156.174C177.538 156.232 172.3 155.863 172.3 155.863C169.944 155.406 167.502 155.798 165.409 156.969C163.316 158.14 161.707 160.013 160.869 162.257L186.04 174.066L203.12 172.858L199.461 180.376L208.964 184.837L213.967 174.261" fill="white"/>
<path d="M208.964 185.383C208.883 185.383 208.804 185.365 208.731 185.331L199.228 180.87C199.163 180.839 199.104 180.796 199.055 180.742C199.007 180.689 198.969 180.626 198.945 180.558C198.921 180.49 198.911 180.417 198.915 180.345C198.919 180.273 198.937 180.203 198.969 180.138L202.214 173.47L186.079 174.611C185.985 174.618 185.892 174.6 185.807 174.56L160.636 162.75C160.512 162.692 160.414 162.589 160.362 162.463C160.311 162.336 160.308 162.194 160.356 162.066C161.232 159.703 162.921 157.727 165.121 156.492C167.322 155.256 169.892 154.841 172.371 155.321C172.822 155.352 177.884 155.683 183.825 155.628C186.578 155.603 189.009 155.064 191.052 154.027C191.116 153.995 191.186 153.975 191.258 153.969C191.33 153.963 191.402 153.972 191.471 153.994C191.539 154.016 191.603 154.051 191.657 154.098C191.712 154.145 191.757 154.202 191.79 154.266C191.822 154.33 191.842 154.399 191.848 154.471C191.853 154.543 191.844 154.615 191.822 154.683C191.8 154.751 191.764 154.814 191.717 154.869C191.67 154.923 191.613 154.968 191.548 155C189.353 156.114 186.758 156.692 183.836 156.719C177.593 156.777 172.313 156.41 172.261 156.407C172.239 156.405 172.217 156.403 172.195 156.398C170.051 155.976 167.826 156.3 165.892 157.316C163.959 158.332 162.433 159.979 161.569 161.982L186.144 173.512L203.081 172.314C203.177 172.307 203.273 172.326 203.359 172.368C203.445 172.41 203.519 172.473 203.573 172.553C203.627 172.632 203.659 172.724 203.666 172.819C203.673 172.915 203.654 173.01 203.612 173.096L200.195 180.117L208.703 184.111L213.473 174.028C213.536 173.899 213.647 173.8 213.783 173.752C213.919 173.704 214.068 173.712 214.199 173.773C214.329 173.834 214.43 173.944 214.479 174.079C214.529 174.214 214.523 174.363 214.463 174.494L209.459 185.07C209.415 185.164 209.345 185.243 209.257 185.299C209.169 185.354 209.068 185.383 208.964 185.383Z" fill="#222723"/>
<path d="M294.272 85.3806C294.193 85.3807 294.116 85.3638 294.044 85.331L278.292 78.1242C278.226 78.0949 278.166 78.0527 278.117 78.0002C278.067 77.9477 278.028 77.8859 278.003 77.8184C277.977 77.7509 277.965 77.679 277.968 77.6069C277.97 77.5348 277.987 77.4639 278.017 77.3983C278.048 77.3327 278.09 77.2737 278.144 77.2248C278.197 77.1758 278.259 77.1378 278.327 77.1131C278.395 77.0883 278.467 77.0772 278.539 77.0804C278.612 77.0837 278.683 77.1012 278.748 77.1319L293.826 84.0303L295.188 73.6581C295.207 73.5146 295.283 73.3844 295.398 73.2962C295.455 73.2525 295.52 73.2204 295.589 73.2018C295.659 73.1833 295.731 73.1785 295.802 73.1878C295.873 73.1971 295.942 73.2203 296.004 73.2562C296.067 73.292 296.121 73.3397 296.165 73.3965C296.209 73.4534 296.241 73.5183 296.26 73.5875C296.278 73.6567 296.283 73.7289 296.274 73.8L294.814 84.9058C294.797 85.0371 294.733 85.1577 294.633 85.2451C294.533 85.3325 294.405 85.3806 294.272 85.3806H294.272Z" fill="#222723"/>
<path d="M271.613 77.0286C272.897 76.6027 274.262 76.48 275.602 76.67C280.755 77.4007 284.285 82.5358 283.487 88.1398C282.688 93.7438 277.863 97.6941 272.71 96.964C269.177 96.4629 266.407 93.8921 265.272 90.5192" fill="white"/>
<path d="M273.935 97.5963C273.499 97.5962 273.064 97.5654 272.633 97.5042C269.014 96.9911 265.995 94.3812 264.753 90.6928C264.73 90.6249 264.721 90.5531 264.726 90.4816C264.731 90.4101 264.75 90.3402 264.782 90.2761C264.814 90.2119 264.858 90.1546 264.913 90.1075C264.967 90.0604 265.03 90.0245 265.098 90.0016C265.166 89.9788 265.238 89.9696 265.31 89.9745C265.381 89.9795 265.451 89.9984 265.516 90.0303C265.58 90.0622 265.637 90.1065 265.685 90.1605C265.732 90.2146 265.768 90.2774 265.791 90.3453C266.9 93.6398 269.581 95.9688 272.787 96.4233C277.634 97.1112 282.19 93.3601 282.945 88.0632C283.7 82.7663 280.371 77.8978 275.525 77.2106C274.27 77.0313 272.989 77.1464 271.786 77.547C271.648 77.5924 271.498 77.5813 271.368 77.5162C271.239 77.4511 271.14 77.3373 271.095 77.1997C271.049 77.0622 271.06 76.9123 271.125 76.7829C271.191 76.6535 271.305 76.5553 271.443 76.5099C272.806 76.0562 274.257 75.9259 275.68 76.1293C281.123 76.9011 284.869 82.3233 284.029 88.2162C283.256 93.6365 278.87 97.5963 273.935 97.5963Z" fill="#222723"/>
<path d="M235.682 69.0645C229.982 68.8531 223.174 69.5754 223.282 71.8944C223.376 74.0213 227.167 73.3357 234.192 73.8616C227.893 74.4723 223.314 75.3777 223.67 77.5626C224.03 79.7312 230.388 79.0824 235.242 78.5633C232.332 80.3003 228.288 82.5056 228.836 84.1336C229.623 86.4652 233.151 84.728 235.585 83.8111C241.016 81.7753 241.958 84.2692 245.135 86.119C247.246 87.3562 256.213 87.3274 258.556 84.8352" fill="white"/>
<path d="M250.329 87.4748C247.953 87.4748 245.803 87.1428 244.858 86.5891C244.184 86.1835 243.533 85.7386 242.911 85.2568C241.045 83.8615 239.696 82.8531 235.779 84.3216C235.502 84.426 235.21 84.5416 234.909 84.6604C233.007 85.4114 230.851 86.2626 229.442 85.6105C229.174 85.4844 228.935 85.3032 228.741 85.0786C228.547 84.8541 228.403 84.5913 228.318 84.3074C227.767 82.6699 230.134 80.9939 232.843 79.3544C227.433 79.8577 223.493 79.8407 223.131 77.6516C223.085 77.3877 223.096 77.1171 223.164 76.8579C223.231 76.5987 223.353 76.3567 223.521 76.1482C224.185 75.2889 225.625 74.647 228.175 74.1334C224.817 74.0148 222.818 73.7953 222.736 71.9182C222.728 71.663 222.775 71.4091 222.874 71.1733C222.972 70.9375 223.119 70.7252 223.306 70.5504C225.068 68.777 231.085 68.348 235.703 68.519C235.775 68.5217 235.845 68.5384 235.911 68.5683C235.976 68.5982 236.035 68.6407 236.084 68.6932C236.133 68.7458 236.171 68.8075 236.196 68.8747C236.221 68.942 236.232 69.0135 236.23 69.0851C236.227 69.1568 236.21 69.2273 236.18 69.2925C236.15 69.3577 236.108 69.4164 236.055 69.4652C236.002 69.514 235.94 69.5519 235.873 69.5769C235.806 69.6019 235.734 69.6133 235.662 69.6107C230.051 69.4025 225.29 70.1052 224.083 71.3195C224.002 71.3864 223.938 71.4705 223.894 71.5658C223.849 71.661 223.827 71.7648 223.829 71.8697C223.873 72.864 225.591 72.9613 229.161 73.0741C230.628 73.1203 232.291 73.1726 234.234 73.3179C234.37 73.3281 234.498 73.389 234.592 73.4887C234.686 73.5884 234.739 73.7196 234.74 73.8563C234.742 73.9931 234.692 74.1254 234.6 74.2271C234.509 74.3288 234.382 74.3925 234.246 74.4056C230.535 74.7653 225.476 75.4063 224.388 76.8152C224.312 76.9058 224.257 77.0118 224.226 77.1259C224.196 77.2401 224.19 77.3595 224.211 77.4758C224.314 78.1001 225.615 78.4834 227.782 78.5258C230.051 78.5702 233.017 78.2529 235.184 78.0209C235.308 78.0077 235.433 78.037 235.538 78.1042C235.643 78.1714 235.721 78.2723 235.761 78.3903C235.801 78.5083 235.799 78.6362 235.755 78.7529C235.712 78.8696 235.63 78.9681 235.523 79.032C235.272 79.1823 235.011 79.336 234.746 79.4927C232.596 80.7637 228.996 82.8912 229.356 83.9604C229.394 84.1033 229.463 84.2363 229.557 84.3502C229.652 84.4642 229.77 84.5565 229.903 84.6209C230.885 85.0758 232.893 84.283 234.506 83.646C234.812 83.5251 235.11 83.4073 235.393 83.3004C239.873 81.6212 241.585 82.9014 243.568 84.3836C244.157 84.8409 244.773 85.2629 245.412 85.6476C247.318 86.7644 256.007 86.7502 258.158 84.4619C258.258 84.3612 258.394 84.3035 258.536 84.301C258.679 84.2985 258.816 84.3513 258.92 84.4484C259.024 84.5454 259.086 84.679 259.093 84.8208C259.099 84.9626 259.051 85.1014 258.956 85.2078C257.44 86.8211 253.662 87.4747 250.329 87.4748Z" fill="#222723"/>
<path d="M247.517 78.525C243.668 79.4059 243.359 74.7669 240.584 72.9029C236.741 70.3057 234.516 68.3067 234.6 67.2145C234.816 64.709 240.976 68.8575 247.029 70.7025C247.029 70.7025 254.233 73.5255 254.792 73.7288" fill="white"/>
<path d="M246.609 79.1805C244.53 79.1805 243.471 77.5172 242.521 76.0263C241.884 75.0256 241.225 73.9913 240.279 73.356C234.634 69.5408 233.988 68.0489 234.055 67.1732C234.06 66.956 234.12 66.7437 234.229 66.5554C234.338 66.3672 234.492 66.209 234.677 66.0952C235.709 65.4846 237.551 66.2418 240.987 67.7478C242.893 68.5833 245.055 69.5299 247.189 70.1809C247.202 70.1851 247.216 70.1896 247.229 70.1949C247.301 70.2231 254.432 73.0177 254.979 73.2164C255.113 73.2672 255.223 73.3689 255.283 73.4995C255.343 73.63 255.349 73.7789 255.299 73.9138C255.25 74.0487 255.149 74.1589 255.019 74.2203C254.889 74.2817 254.74 74.2895 254.604 74.242C254.054 74.0419 247.348 71.4143 246.848 71.2187C244.658 70.5493 242.474 69.5921 240.546 68.7474C238.336 67.7789 235.831 66.681 235.236 67.034C235.215 67.046 235.161 67.078 235.144 67.2616C235.122 67.5493 235.47 68.7887 240.89 72.4513C242.024 73.2131 242.746 74.3457 243.444 75.4408C244.635 77.311 245.463 78.4347 247.393 77.9929C247.535 77.9606 247.683 77.9856 247.806 78.0624C247.929 78.1393 248.017 78.2618 248.049 78.4029C248.081 78.544 248.056 78.6921 247.979 78.8148C247.902 78.9375 247.779 79.0246 247.638 79.0569C247.301 79.1367 246.956 79.1781 246.609 79.1805Z" fill="#222723"/>
<path d="M264.548 116.858L228.666 158.874L214.938 175.113L188.917 152.281L237.218 96.6337C240.154 93.3037 244.262 91.227 248.691 90.8334L253.199 90.5934" fill="white"/>
<path d="M214.938 175.658C214.805 175.658 214.676 175.61 214.576 175.523L188.555 152.691C188.447 152.596 188.38 152.462 188.371 152.318C188.361 152.174 188.408 152.032 188.503 151.923L236.804 96.2764C239.829 92.8338 244.07 90.6893 248.642 90.2905L248.661 90.2891L253.169 90.0491C253.242 90.0443 253.314 90.054 253.383 90.0774C253.451 90.1008 253.514 90.1375 253.569 90.1855C253.623 90.2335 253.667 90.2917 253.698 90.3567C253.73 90.4218 253.748 90.4925 253.752 90.5646C253.756 90.6368 253.745 90.709 253.721 90.777C253.697 90.8451 253.659 90.9076 253.61 90.9611C253.561 91.0145 253.503 91.0578 253.437 91.0883C253.371 91.1189 253.3 91.1361 253.228 91.1391L248.731 91.378C244.443 91.7543 240.467 93.7661 237.629 96.9942L189.686 152.229L214.88 174.334L228.248 158.522L264.132 116.504C264.226 116.393 264.36 116.325 264.505 116.313C264.649 116.302 264.793 116.348 264.903 116.442C265.014 116.536 265.082 116.67 265.094 116.814C265.106 116.958 265.059 117.101 264.965 117.212L229.082 159.228L215.356 175.465C215.309 175.52 215.251 175.566 215.187 175.599C215.122 175.632 215.051 175.652 214.978 175.657C214.965 175.658 214.95 175.658 214.938 175.658Z" fill="#222723"/>
<path d="M280.727 86.9691C280.424 92.7384 273.373 96.914 268.66 92.864C268.596 92.812 268.535 92.7568 268.477 92.6984C266.447 90.839 264.089 89.3034 260.176 90.2749C257.418 90.9609 253.393 92.4128 252.835 89.7892C252.448 87.9697 257.085 86.0812 260.452 84.5656C255.138 84.5147 248.18 84.4401 248.061 82.0439C247.943 79.6477 251.494 78.9509 258.381 79.0746C250.85 77.6191 248.193 78.1649 248.35 75.8597C248.614 72.0389 264.218 74.1021 269.408 76.2527C269.408 76.2527 270.657 76.7348 275.244 78.2395C279.923 79.7751 280.884 83.947 280.727 86.9691Z" fill="white"/>
<path d="M272.919 95.0309C271.218 95.0258 269.576 94.4025 268.302 93.2775C268.223 93.2115 268.155 93.1502 268.096 93.0907C265.918 91.098 263.758 89.9478 260.308 90.8046C259.981 90.8857 259.637 90.9778 259.282 91.0726C257.154 91.6413 254.742 92.2859 253.327 91.4208C253.058 91.2541 252.828 91.0327 252.65 90.7711C252.473 90.5095 252.353 90.2135 252.299 89.9025C251.908 88.066 254.779 86.5327 257.978 85.0752C251.975 84.946 247.632 84.4577 247.514 82.0708C247.49 81.7349 247.538 81.3977 247.655 81.0818C247.772 80.7659 247.956 80.4786 248.193 80.2392C248.962 79.4483 250.386 78.9488 252.698 78.7018C249.341 78.2164 247.66 77.9136 247.803 75.8227C247.834 75.363 248.05 74.7058 248.9 74.1816C252.485 71.9694 265.154 73.899 269.616 75.7485C269.616 75.7485 270.907 76.2428 275.414 77.7209C281.041 79.5676 281.385 84.8234 281.273 86.9972C281.108 90.1328 278.976 93.101 275.967 94.3841C275.005 94.8032 273.969 95.0233 272.919 95.0309ZM262.491 89.4271C265.264 89.4271 267.184 90.7734 268.847 92.2965C268.855 92.3038 268.863 92.3112 268.87 92.3189C268.915 92.3632 268.961 92.4053 269.01 92.4448C270.85 94.0258 273.227 94.3644 275.538 93.3798C278.172 92.2577 280.037 89.67 280.181 86.941C280.281 85.0175 279.983 80.3695 275.074 78.7582C270.525 77.2662 269.262 76.7817 269.21 76.7619C264.541 74.8271 252.452 73.2741 249.477 75.1101C248.927 75.4497 248.904 75.7867 248.896 75.8975C248.824 76.9551 249.474 77.1347 253.158 77.6651C254.569 77.8683 256.325 78.1214 258.486 78.5384C258.62 78.5643 258.74 78.6396 258.822 78.7493C258.903 78.8591 258.94 78.9953 258.926 79.1312C258.91 79.2664 258.845 79.391 258.743 79.4812C258.641 79.5714 258.509 79.6209 258.372 79.62C254.974 79.5591 250.305 79.6355 248.98 80.9986C248.847 81.1308 248.745 81.2905 248.681 81.4664C248.617 81.6423 248.592 81.8301 248.608 82.0166C248.629 82.4376 249.147 83.2088 252.382 83.643C254.783 83.965 257.929 83.9952 260.457 84.0194C260.582 84.0208 260.702 84.0646 260.799 84.1435C260.895 84.2224 260.961 84.3317 260.987 84.4534C261.012 84.575 260.995 84.7017 260.939 84.8125C260.882 84.9232 260.79 85.0115 260.676 85.0626C260.401 85.1865 260.117 85.313 259.829 85.4416C257.314 86.5617 253.106 88.4362 253.37 89.6756C253.394 89.8413 253.454 89.9998 253.545 90.1403C253.636 90.2808 253.757 90.4 253.899 90.4898C254.912 91.1097 257.178 90.5042 258.999 90.0167C259.359 89.9203 259.71 89.8268 260.042 89.7438C260.843 89.5388 261.665 89.4325 262.491 89.4271Z" fill="#222723"/>
<path d="M292.669 33.5199C292.67 32.2794 293.054 31.0694 293.769 30.0542C294.483 29.0389 295.494 28.2676 296.663 27.845C297.832 27.4223 299.104 27.3688 300.304 27.6917C301.505 28.0146 302.577 28.6983 303.375 29.6499C304.172 30.6015 304.657 31.7749 304.763 33.0109C304.869 34.2468 304.592 35.4854 303.968 36.5584C303.344 37.6314 302.404 38.4869 301.276 39.0088C300.148 39.5306 298.886 39.6934 297.661 39.4752L297.723 54.8817C297.726 56.718 297.004 58.4817 295.713 59.7905C294.422 61.0994 292.665 61.8481 290.825 61.8744C288.984 61.9007 287.207 61.2026 285.878 59.9312C284.55 58.6598 283.777 56.9175 283.728 55.0818L283.593 50.1994C281.244 49.565 279.17 48.1769 277.691 46.2493C276.212 44.3218 275.411 41.9622 275.41 39.5349C275.42 37.7481 275.888 35.9934 276.769 34.438L277.444 29.7282L277.443 29.7193C277.121 27.6036 277.426 25.4404 278.318 23.4947L290.321 23.5167C290.648 23.5173 290.971 23.5826 291.273 23.7088C291.574 23.8351 291.847 24.0198 292.076 24.2521C292.305 24.4845 292.486 24.76 292.607 25.0625C292.729 25.3651 292.789 25.6887 292.784 26.0146L292.669 33.5199Z" fill="white"/>
<path d="M290.725 62.4237C288.76 62.4206 286.872 61.6538 285.464 60.2859C284.055 58.918 283.236 57.0566 283.181 55.0966L283.057 50.613C280.685 49.8797 278.611 48.4091 277.137 46.416C275.662 44.4229 274.866 42.0118 274.863 39.5349C274.873 37.6909 275.347 35.879 276.241 34.2651L276.891 29.7291C276.572 27.5311 276.894 25.2878 277.82 23.2678C277.864 23.1727 277.934 23.092 278.022 23.0355C278.11 22.9789 278.213 22.9489 278.318 22.9489H278.319L290.321 22.9709C290.721 22.9716 291.116 23.0515 291.484 23.2058C291.852 23.3601 292.185 23.5857 292.465 23.8697C292.745 24.1536 292.966 24.4902 293.114 24.8598C293.262 25.2294 293.336 25.6248 293.33 26.0229L293.273 29.8046C293.915 28.8656 294.789 28.108 295.811 27.6055C296.834 27.1029 297.969 26.8724 299.106 26.9364C300.244 27.0003 301.346 27.3565 302.305 27.9704C303.264 28.5842 304.048 29.435 304.58 30.44C305.112 31.445 305.375 32.5702 305.343 33.7065C305.311 34.8427 304.985 35.9514 304.397 36.9249C303.808 37.8984 302.978 38.7037 301.986 39.2627C300.994 39.8217 299.873 40.1154 298.734 40.1153C298.559 40.1153 298.385 40.1085 298.211 40.0949L298.27 54.8795C298.285 56.847 297.522 58.7411 296.148 60.1524C294.774 61.5636 292.897 62.3786 290.925 62.4212C290.859 62.423 290.792 62.4237 290.725 62.4237ZM278.675 24.0412C277.936 25.8087 277.697 27.7447 277.984 29.6383C277.992 29.6937 277.993 29.75 277.986 29.8055L277.311 34.5151C277.302 34.5788 277.281 34.6405 277.251 34.697C276.368 36.3261 275.958 37.8628 275.958 39.5347C275.96 41.8416 276.722 44.0837 278.128 45.9157C279.534 47.7477 281.504 49.0678 283.736 49.6727C283.849 49.7033 283.95 49.7696 284.023 49.8619C284.096 49.9541 284.137 50.0673 284.14 50.1847L284.275 55.0673C284.321 56.7593 285.033 58.3651 286.257 59.537C287.482 60.7088 289.12 61.3523 290.817 61.3281C292.513 61.3038 294.132 60.6138 295.322 59.4075C296.513 58.2011 297.179 56.5756 297.176 54.883L297.114 39.4777C297.114 39.3978 297.131 39.3187 297.165 39.2461C297.199 39.1736 297.248 39.1093 297.309 39.0578C297.371 39.0064 297.443 38.969 297.52 38.9483C297.598 38.9277 297.679 38.9242 297.758 38.9383C298.666 39.0998 299.6 39.0322 300.475 38.7417C301.35 38.4512 302.138 37.9469 302.768 37.2748C303.749 36.2325 304.285 34.8504 304.262 33.4211C304.239 31.9918 303.66 30.6273 302.647 29.6165C301.633 28.6057 300.265 28.0279 298.832 28.0052C297.399 27.9826 296.014 28.517 294.969 29.4953C294.437 29.9919 294.009 30.5881 293.708 31.25C293.408 31.9118 293.241 32.6263 293.218 33.3525L293.215 33.5291C293.214 33.6739 293.156 33.8123 293.052 33.9139C292.949 34.0155 292.809 34.0719 292.664 34.0708C292.519 34.0697 292.38 34.0111 292.278 33.908C292.177 33.8048 292.12 33.6655 292.121 33.5208C292.121 33.4565 292.122 33.3923 292.124 33.3283L292.235 26.0073C292.239 25.7538 292.192 25.502 292.097 25.2666C292.003 25.0312 291.863 24.8169 291.684 24.6361C291.506 24.4552 291.294 24.3115 291.06 24.2132C290.825 24.1149 290.574 24.064 290.319 24.0634L278.675 24.0412Z" fill="#222723"/>
<path d="M286.495 51.1333C285.383 51.1329 284.277 50.9743 283.21 50.6625C283.14 50.643 283.075 50.61 283.018 50.5653C282.961 50.5205 282.914 50.465 282.879 50.4018C282.843 50.3387 282.821 50.2693 282.813 50.1975C282.805 50.1257 282.811 50.0531 282.832 49.9838C282.852 49.9145 282.886 49.8499 282.931 49.7937C282.977 49.7375 283.033 49.691 283.097 49.6566C283.16 49.6223 283.23 49.6009 283.302 49.5937C283.374 49.5865 283.447 49.5936 283.516 49.6147C285.03 50.0592 286.624 50.1584 288.181 49.9051C289.738 49.6518 291.218 49.0523 292.512 48.1511C292.571 48.1102 292.637 48.0813 292.707 48.066C292.777 48.0507 292.85 48.0493 292.921 48.062C292.991 48.0747 293.059 48.1011 293.12 48.1398C293.18 48.1785 293.232 48.2287 293.273 48.2876C293.314 48.3464 293.343 48.4128 293.359 48.4828C293.374 48.5528 293.375 48.6252 293.363 48.6957C293.35 48.7663 293.323 48.8337 293.285 48.894C293.246 48.9543 293.195 49.0065 293.136 49.0474C291.189 50.4039 288.871 51.132 286.495 51.1333Z" fill="#222723"/>
<path d="M280.663 35.5776C280.583 35.5776 280.504 35.56 280.431 35.5261C280.359 35.4922 280.295 35.4428 280.243 35.3814C280.192 35.32 280.155 35.2481 280.134 35.1708C280.114 35.0934 280.111 35.0126 280.125 34.9339L281.03 29.9833C281.059 29.8445 281.142 29.7227 281.26 29.6437C281.379 29.5647 281.523 29.5348 281.663 29.5603C281.803 29.5857 281.928 29.6646 282.01 29.7801C282.093 29.8956 282.127 30.0387 282.106 30.179L281.326 34.447L283.769 34.3068C283.841 34.3022 283.913 34.3118 283.981 34.3352C284.05 34.3585 284.113 34.3951 284.167 34.4428C284.221 34.4905 284.265 34.5484 284.296 34.6132C284.328 34.678 284.346 34.7483 284.35 34.8202C284.354 34.892 284.344 34.964 284.32 35.0319C284.296 35.0999 284.259 35.1624 284.211 35.216C284.163 35.2696 284.105 35.3131 284.039 35.3441C283.974 35.3751 283.904 35.3929 283.832 35.3966L280.694 35.5767C280.684 35.5773 280.674 35.5776 280.663 35.5776Z" fill="#222723"/>
<path d="M281.019 30.0812C281.019 32.4464 279.363 34.3514 277.318 34.3514C275.274 34.3514 273.614 32.4391 273.614 30.0812H281.019Z" fill="white"/>
<path d="M277.318 34.8972C274.974 34.8972 273.067 32.7368 273.067 30.0812C273.067 29.9364 273.124 29.7976 273.227 29.6952C273.329 29.5928 273.469 29.5353 273.614 29.5353H281.019C281.164 29.5353 281.303 29.5928 281.406 29.6952C281.509 29.7976 281.566 29.9364 281.566 30.0812C281.566 32.7368 279.661 34.8972 277.318 34.8972ZM274.194 30.627C274.418 32.4228 275.734 33.8055 277.317 33.8055C278.901 33.8055 280.213 32.4228 280.437 30.627H274.194Z" fill="#222723"/>
<path d="M290.759 30.0812C290.759 32.4464 289.103 34.3514 287.06 34.3514C285.017 34.3514 283.359 32.4391 283.359 30.0812H290.759Z" fill="white"/>
<path d="M287.06 34.8972C284.718 34.8972 282.812 32.7368 282.812 30.0812C282.812 29.9364 282.87 29.7976 282.972 29.6952C283.075 29.5928 283.214 29.5353 283.359 29.5353H290.759C290.904 29.5353 291.043 29.5928 291.146 29.6952C291.249 29.7976 291.306 29.9364 291.306 30.0812C291.306 32.7368 289.402 34.8972 287.06 34.8972ZM283.94 30.627C284.164 32.4228 285.478 33.8055 287.06 33.8055C288.642 33.8055 289.954 32.4228 290.178 30.627H283.94Z" fill="#222723"/>
<path d="M293.625 30.627H280.663C280.518 30.627 280.379 30.5695 280.276 30.4671C280.174 30.3648 280.116 30.2259 280.116 30.0812C280.116 29.9364 280.174 29.7976 280.276 29.6952C280.379 29.5928 280.518 29.5353 280.663 29.5353H293.625C293.77 29.5353 293.909 29.5928 294.012 29.6952C294.114 29.7976 294.172 29.9364 294.172 30.0812C294.172 30.2259 294.114 30.3648 294.012 30.4671C293.909 30.5695 293.77 30.627 293.625 30.627Z" fill="#222723"/>
<path d="M282.732 43.1146C281.16 43.1146 279.512 41.9167 279.22 39.1574C279.212 39.0858 279.219 39.0135 279.24 38.9445C279.26 38.8755 279.294 38.8113 279.34 38.7555C279.385 38.6997 279.441 38.6534 279.505 38.6194C279.569 38.5853 279.638 38.5641 279.71 38.557L285.809 37.9511C285.884 37.9436 285.96 37.9515 286.031 37.9744C286.103 37.9973 286.169 38.0347 286.225 38.0842C286.282 38.1337 286.328 38.1943 286.359 38.2622C286.391 38.3301 286.409 38.4038 286.411 38.4788C286.495 41.3596 284.728 42.9882 282.94 43.1081C282.871 43.1123 282.802 43.1146 282.732 43.1146ZM280.39 39.5864C280.765 41.4666 281.924 42.0823 282.866 42.0186C284.014 41.9417 285.147 40.9213 285.301 39.0986L280.39 39.5864Z" fill="#222723"/>
<path d="M299.618 35.3977C299.555 35.3977 299.492 35.3867 299.433 35.3651L295.546 33.966C295.441 33.9284 295.351 33.8599 295.286 33.7696C295.221 33.6793 295.186 33.5715 295.184 33.4606C295.182 33.3497 295.215 33.2409 295.277 33.1488C295.338 33.0566 295.427 32.9854 295.53 32.9447L300.816 30.8635C300.883 30.8356 300.956 30.8214 301.028 30.8217C301.101 30.8219 301.173 30.8366 301.24 30.8649C301.307 30.8932 301.367 30.9345 301.418 30.9864C301.469 31.0383 301.509 31.0998 301.536 31.1673C301.562 31.2348 301.575 31.3069 301.574 31.3794C301.572 31.4519 301.556 31.5234 301.526 31.5896C301.497 31.6559 301.454 31.7156 301.401 31.7653C301.348 31.8149 301.286 31.8536 301.218 31.8789L297.279 33.4296L299.803 34.3382C299.925 34.3817 300.027 34.4665 300.091 34.5777C300.156 34.6888 300.18 34.8192 300.157 34.9458C300.135 35.0725 300.069 35.1872 299.97 35.2699C299.871 35.3525 299.747 35.3978 299.618 35.3977H299.618Z" fill="#222723"/>
<path d="M49.7219 55.6332L67.1477 54.1884L73.8886 55.7823C75.7778 56.4793 78.3956 59.1226 78.987 61.0404L82.2644 78.0834L103.442 77.3516L106.481 89.6871L81.7182 90.231L66.0591 94.5825" fill="white"/>
<path d="M121.866 83.913C125.528 85.5168 129.339 87.6408 131.343 89.5619L131.973 90.775L106.481 90.2311L104.33 79.7349" fill="white"/>
<path d="M131.973 91.3053C131.969 91.3053 131.965 91.3053 131.961 91.3052L106.47 90.7612C106.221 90.7559 106.01 90.5799 105.96 90.3373L103.809 79.841C103.75 79.5542 103.936 79.2741 104.224 79.2156C104.512 79.1573 104.793 79.3422 104.852 79.6292L106.918 89.7105L131.088 90.2261L130.911 89.8844C129.132 88.2087 125.681 86.1634 121.652 84.3986C121.382 84.2807 121.26 83.9679 121.379 83.6998C121.497 83.4317 121.811 83.31 122.08 83.428C126.267 85.2615 129.867 87.4117 131.712 89.1801C131.754 89.2203 131.789 89.2671 131.816 89.3185L132.446 90.5317C132.532 90.6978 132.524 90.8969 132.425 91.0556C132.327 91.2111 132.156 91.3053 131.973 91.3053Z" fill="#222723"/>
<path d="M121.776 184.512H143.152C143.607 179.557 141.019 174.818 135.673 173.153C130.002 171.39 127.312 168.026 126.82 164.332L106.117 154.596L93.5536 161.123L99.9265 181.067L106.664 184.512H121.776Z" fill="white"/>
<path d="M143.152 185.043H106.664C106.579 185.043 106.496 185.022 106.42 184.984L99.6834 181.539C99.5574 181.475 99.4622 181.363 99.4191 181.228L93.0462 161.284C92.9678 161.039 93.078 160.773 93.3073 160.654L105.871 154.126C106.019 154.05 106.194 154.046 106.345 154.117L127.048 163.852C127.211 163.929 127.324 164.083 127.348 164.262C127.863 168.129 130.876 171.107 135.832 172.647C141.115 174.292 144.196 178.968 143.683 184.561C143.657 184.834 143.428 185.043 143.152 185.043ZM106.792 183.982H142.657C142.909 179.123 140.146 175.101 135.514 173.659C130.261 172.026 127.013 168.848 126.335 164.69L106.129 155.188L94.1966 161.387L100.367 180.697L106.792 183.982Z" fill="#222723"/>
<path d="M109.665 80.491C108.085 80.1754 105.961 79.9517 104.33 79.735L109.665 80.491Z" fill="white"/>
<path d="M109.666 81.0212C109.631 81.0212 109.596 81.0178 109.561 81.0108C108.401 80.7791 106.904 80.5928 105.583 80.4287C105.122 80.3712 104.675 80.3156 104.26 80.2604C103.968 80.2217 103.763 79.9551 103.802 79.6649C103.841 79.3747 104.108 79.1704 104.4 79.2095C104.813 79.2643 105.257 79.3194 105.715 79.3765C107.054 79.543 108.571 79.7317 109.77 79.9711C110.058 80.0288 110.245 80.3081 110.187 80.5951C110.137 80.8471 109.915 81.0212 109.666 81.0212Z" fill="#222723"/>
<path d="M108.366 87.5186C111.503 88.1749 111.492 86.1061 115.09 85.5314C120.071 84.7337 123.181 83.7655 123.589 82.6559C124.529 80.1013 116.464 81.4339 109.665 80.4911" fill="white"/>
<path d="M109.474 88.1748C109.115 88.1748 108.714 88.1331 108.257 88.0373C107.969 87.977 107.784 87.696 107.845 87.4094C107.905 87.1228 108.187 86.9392 108.476 86.9996C110.011 87.3207 110.627 86.9388 111.56 86.3604C112.337 85.879 113.303 85.2798 115.005 85.0078C122.057 83.8786 122.976 82.7824 123.089 82.4735C123.167 82.2636 123.119 82.1954 123.099 82.1662C122.663 81.5334 119.689 81.4853 117.066 81.4429C114.734 81.4053 112.091 81.3625 109.592 81.016C109.301 80.9755 109.098 80.7078 109.138 80.4178C109.178 80.1278 109.448 79.9257 109.739 79.9658C112.173 80.3033 114.781 80.3455 117.083 80.3826C121.122 80.448 123.263 80.5302 123.977 81.5659C124.15 81.8162 124.309 82.2397 124.089 82.8379C123.789 83.6538 122.539 84.8753 115.174 86.0545C113.683 86.2927 112.854 86.8068 112.123 87.2603C111.37 87.7277 110.648 88.1748 109.474 88.1748Z" fill="#222723"/>
<path d="M106.42 90.2608C106.174 90.2608 105.952 90.0888 105.9 89.8386L103.399 77.8844L82.3475 78.8834C82.0852 78.8972 81.8523 78.7155 81.8003 78.4589L78.6299 62.8514C77.7363 58.451 73.2327 55.0303 67.9212 54.7175C67.3729 54.6842 66.8181 54.6901 66.2717 54.7348L63.7181 54.9555C63.4251 54.9806 63.167 54.7648 63.1417 54.4732C63.1163 54.1817 63.3332 53.9245 63.626 53.8993L66.1821 53.6784C66.7814 53.6296 67.3869 53.6231 67.9846 53.6593C70.7148 53.8199 73.3764 54.7627 75.4785 56.3137C77.7177 57.966 79.1681 60.154 79.6732 62.6412L82.7532 77.8026L103.802 76.8038C104.062 76.7923 104.295 76.9701 104.349 77.2253L106.942 89.6225C107.002 89.9091 106.817 90.1899 106.529 90.2496C106.493 90.2572 106.457 90.2608 106.42 90.2608Z" fill="#222723"/>
<path d="M68.7092 156.835L69.0924 184.581L79.5767 184.447L79.371 176.126L94.9921 184.581H122.18C122.531 179.666 119.153 174.835 114.42 173.401C111.666 172.567 109.507 171.583 103.814 168.937C100.266 167.289 97.5345 164.898 96.0803 161.707" fill="white"/>
<path d="M122.18 185.111H94.992C94.9033 185.111 94.8158 185.089 94.7377 185.047L79.9259 177.03L80.1088 184.434C80.1124 184.575 80.0588 184.712 79.9601 184.815C79.8614 184.916 79.7259 184.975 79.5835 184.977L69.0992 185.111C68.805 185.115 68.564 184.881 68.5601 184.588L68.1769 156.842C68.1729 156.55 68.408 156.309 68.7019 156.305C68.9958 156.298 69.2375 156.535 69.2416 156.828L69.6174 184.044L79.0311 183.923L78.8385 176.139C78.8339 175.95 78.9308 175.773 79.093 175.674C79.2552 175.575 79.4579 175.57 79.6251 175.66L95.1273 184.051H121.671C121.759 179.54 118.649 175.236 114.265 173.908C111.501 173.071 109.363 172.101 103.588 169.418C99.7338 167.627 97.0446 165.106 95.5952 161.926C95.4737 161.659 95.5922 161.345 95.86 161.224C96.1275 161.103 96.4434 161.221 96.5647 161.488C97.9061 164.431 100.421 166.776 104.038 168.457C109.763 171.116 111.879 172.078 114.574 172.894C119.581 174.41 123.079 179.451 122.711 184.618C122.691 184.896 122.459 185.111 122.18 185.111Z" fill="#222723"/>
<path d="M75.6059 102.028C77.7659 101.152 79.0032 97.7226 80.3777 96.9993C83.2294 96.2384 86.3708 98.2552 88.6892 98.5564C91.0077 98.8575 92.2854 99.3784 92.5404 97.3911C92.7955 95.4037 85.814 91.8623 85.814 91.8623L91.2061 92.0687C98.3406 92.8527 98.1822 89.6672 98.1822 89.6672H110.922C120.429 90.5985 127.378 99.0278 126.443 108.495C126.284 110.493 125.643 111.916 125.643 111.916L101.323 162.554L65.1303 156.208L73.6882 137.643L76.982 130.493L81.0678 120.836L55.9224 120.802C50.5742 120.794 46.0024 117.498 44.1344 112.836C44.1346 112.836 73.4459 102.904 75.6059 102.028Z" fill="#6A9586"/>
<path d="M49.722 55.6332C47.0774 55.862 45.1643 56.0278 45.0812 56.0357C40.9008 56.4346 35.2085 60.2237 34.1838 69.9387L30.2745 102.56C29.9024 108.206 34.1975 113.084 39.8679 113.455C41.219 113.543 42.5743 113.365 43.856 112.931L74.8116 102.342" fill="white"/>
<path d="M40.5497 114.008C40.3114 114.008 40.0725 114 39.8329 113.984C36.9485 113.795 34.3105 112.5 32.4048 110.336C30.4992 108.171 29.5538 105.398 29.7432 102.525C29.7439 102.516 29.7448 102.506 29.7458 102.497L33.6551 69.876C34.1249 65.4215 35.6484 61.7037 38.06 59.132C39.9964 57.0669 42.5372 55.7459 45.0306 55.5081C45.1297 55.4987 47.6115 55.2838 49.676 55.1052C49.9699 55.0799 50.2271 55.2957 50.2526 55.5874C50.278 55.8792 50.0613 56.1361 49.7683 56.1616C45.8346 56.5019 45.1751 56.5595 45.132 56.5636C42.8939 56.7771 40.5998 57.9772 38.8384 59.8556C36.5862 62.2577 35.1597 65.7636 34.7133 69.9944L30.8048 102.609C30.638 105.193 31.4903 107.688 33.2054 109.636C34.9236 111.588 37.3021 112.756 39.9027 112.926C41.1904 113.01 42.4628 112.843 43.6844 112.429L74.6385 101.841C74.9166 101.746 75.2196 101.893 75.315 102.17C75.4105 102.447 75.2625 102.749 74.9844 102.844L44.0288 113.432C42.8999 113.815 41.7327 114.007 40.5497 114.008Z" fill="#222723"/>
<path d="M106.889 89.7306H139.545C149.017 90.9671 155.689 99.6157 154.448 109.048C153.513 113.833 149.165 121.38 149.165 121.38L135.627 149.563L132.985 155.062L127.739 165.982L101 157.345L106.889 89.7306Z" fill="#6A9586"/>
<path d="M136.687 100.598C136.6 100.598 136.511 100.586 136.423 100.56C136.116 100.47 135.879 100.234 135.789 99.9282L134.799 96.6685C134.678 96.2702 134.367 95.9606 133.967 95.8406L130.697 94.852C130.462 94.7833 130.263 94.624 130.143 94.4055C130.023 94.1869 129.996 93.9347 130.067 93.6958C130.157 93.3899 130.394 93.1536 130.702 93.0638L133.966 92.0788C134.366 91.9578 134.678 91.6473 134.799 91.2482L135.136 90.1455C135.204 89.9223 135.411 89.7697 135.646 89.7697H137.195C137.213 89.7697 137.231 89.7705 137.248 89.7723C137.434 89.7909 137.62 89.8131 137.816 89.8372C138.025 89.863 138.199 90.0088 138.26 90.2093L138.577 91.2482C138.698 91.6473 139.01 91.9578 139.411 92.079L142.688 93.0651C142.932 93.141 143.128 93.3038 143.244 93.5249C143.36 93.7459 143.383 93.999 143.308 94.2372C143.216 94.5314 142.984 94.7612 142.688 94.8517C142.687 94.8518 142.687 94.852 142.686 94.8524L139.409 95.8406C139.007 95.9607 138.696 96.2703 138.575 96.6688L137.584 99.9322C137.466 100.335 137.092 100.598 136.687 100.598ZM136.565 99.6272C136.565 99.6279 136.565 99.6285 136.564 99.6292L136.565 99.6272ZM136.809 99.6237L136.809 99.6253C136.809 99.6248 136.809 99.6242 136.809 99.6237ZM131.407 93.9587L134.275 94.8257C135.016 95.0478 135.594 95.6221 135.819 96.3615L136.688 99.224L137.556 96.3617C137.781 95.6221 138.359 95.0478 139.102 94.8253L141.977 93.9585L139.103 93.0937C138.361 92.8693 137.783 92.2946 137.558 91.5563L137.342 90.8487C137.284 90.8421 137.226 90.836 137.169 90.8301H136.041L135.819 91.5566C135.593 92.2948 135.016 92.8693 134.275 93.0935L131.407 93.9587ZM142.532 94.3447H142.534H142.532ZM131.008 94.0792L131.006 94.0798C131.007 94.0796 131.007 94.0794 131.008 94.0792ZM131.002 93.8361L131.004 93.8368C131.003 93.8364 131.002 93.8362 131.002 93.8361Z" fill="#222723"/>
<path d="M77.8703 82.8815C77.5824 82.8815 77.3455 82.6528 77.3382 82.3646L77.1288 73.9808C77.1216 73.6882 77.3539 73.445 77.6478 73.4376C77.9411 73.4295 78.1858 73.6617 78.1933 73.9543L78.4027 82.3381C78.41 82.6307 78.1777 82.8739 77.8838 82.8813C77.8793 82.8813 77.8747 82.8815 77.8703 82.8815Z" fill="#222723"/>
<path d="M56.613 66.8121C50.5844 66.8125 45.4916 62.3265 44.8306 56.2636C44.7988 55.9725 45.01 55.711 45.3024 55.6793C45.5947 55.6477 45.8574 55.858 45.8892 56.1492C46.5195 61.9294 51.5759 66.1351 57.4001 65.7241C63.3455 65.3042 67.8395 60.1462 67.4178 54.226C67.3971 53.9339 67.6178 53.6805 67.9112 53.6597C68.2033 53.6392 68.459 53.8588 68.48 54.1509C68.9432 60.6544 64.0064 66.3205 57.4753 66.7815C57.1862 66.802 56.8982 66.8119 56.613 66.8121Z" fill="#222723"/>
<path d="M116.012 143.002C115.919 143.002 115.825 142.988 115.733 142.96C115.437 142.868 115.206 142.638 115.115 142.344L114.123 139.077C114.001 138.679 113.689 138.369 113.289 138.248C113.008 138.163 112.849 137.867 112.934 137.587C113.02 137.307 113.317 137.149 113.598 137.234C114.339 137.458 114.916 138.031 115.142 138.769L116.011 141.632L116.88 138.77C117.106 138.031 117.683 137.457 118.424 137.234L121.291 136.368L118.424 135.502C117.687 135.281 117.109 134.712 116.881 133.978L116 131.077C115.915 130.797 116.074 130.501 116.356 130.416C116.638 130.332 116.935 130.49 117.02 130.77L117.899 133.668C118.021 134.06 118.333 134.367 118.731 134.486L122.001 135.475C122.244 135.55 122.44 135.712 122.557 135.933C122.673 136.154 122.697 136.407 122.623 136.645C122.531 136.94 122.3 137.17 122.004 137.261L118.733 138.249C118.332 138.369 118.02 138.679 117.899 139.078L116.908 142.34C116.833 142.582 116.67 142.778 116.448 142.894C116.312 142.966 116.163 143.002 116.012 143.002ZM121.689 136.489H121.691H121.689Z" fill="#222723"/>
<path d="M99.6386 127.712C99.5476 127.712 99.456 127.699 99.3664 127.672C99.0656 127.581 98.8317 127.348 98.7408 127.049L97.7486 123.786C97.6276 123.387 97.3167 123.078 96.9168 122.957L93.6393 121.969C93.1481 121.825 92.8633 121.306 93.009 120.813C93.0993 120.507 93.3364 120.27 93.6436 120.181L96.9172 119.195C97.3163 119.075 97.6274 118.765 97.749 118.367L98.7412 115.104C98.8136 114.865 98.9749 114.669 99.1953 114.551C99.4159 114.434 99.6692 114.409 99.9088 114.481C100.21 114.571 100.443 114.804 100.534 115.103L101.527 118.367C101.648 118.765 101.959 119.075 102.359 119.195L105.635 120.181C106.127 120.325 106.412 120.845 106.266 121.338C106.176 121.644 105.939 121.88 105.632 121.97L102.358 122.957C101.959 123.077 101.648 123.387 101.526 123.785L100.534 127.049C100.462 127.287 100.3 127.483 100.08 127.601C99.9418 127.675 99.7909 127.712 99.6386 127.712ZM94.3501 121.075L97.2253 121.942C97.9665 122.166 98.5433 122.74 98.7676 123.478L99.6374 126.338L100.507 123.478C100.732 122.74 101.308 122.166 102.05 121.942L104.925 121.076L102.05 120.21C101.309 119.986 100.732 119.412 100.507 118.675L99.6374 115.814L98.7676 118.675C98.5424 119.412 97.966 119.986 97.2258 120.21L94.3501 121.075ZM105.329 121.197C105.33 121.197 105.331 121.198 105.331 121.198L105.329 121.197ZM93.9492 121.196L93.9476 121.197C93.948 121.197 93.9487 121.196 93.9492 121.196ZM105.327 120.954C105.327 120.954 105.326 120.955 105.325 120.955L105.327 120.954ZM93.9435 120.953L93.9457 120.954C93.9449 120.953 93.9442 120.953 93.9435 120.953Z" fill="#222723"/>
<path d="M76.0912 143.342C76.0018 143.342 75.9108 143.329 75.8208 143.302C75.52 143.212 75.2863 142.979 75.1952 142.679L74.203 139.416C74.0681 138.973 73.8188 138.693 73.4615 138.585C73.1801 138.501 73.021 138.205 73.1062 137.924C73.1914 137.644 73.489 137.486 73.77 137.571C74.4688 137.781 74.9846 138.328 75.222 139.109L76.0918 141.969L76.9616 139.109C77.186 138.371 77.7626 137.796 78.5041 137.573L81.3791 136.706L78.5043 135.841C77.7632 135.617 77.1868 135.043 76.9617 134.306L76.1408 131.518C76.0581 131.237 76.2197 130.942 76.5017 130.86C76.7839 130.778 77.0797 130.939 77.1624 131.22L77.982 134.002C78.1021 134.395 78.4132 134.705 78.8131 134.826L82.0898 135.812C82.3259 135.881 82.5241 136.04 82.6441 136.259C82.764 136.478 82.7912 136.73 82.7206 136.969C82.6302 137.275 82.393 137.511 82.0858 137.601L78.8125 138.588C78.4127 138.708 78.1018 139.018 77.9806 139.416L76.9882 142.679C76.8659 143.082 76.4932 143.342 76.0912 143.342ZM81.7837 136.828C81.7844 136.828 81.785 136.828 81.7855 136.829L81.7837 136.828ZM81.7814 136.585C81.7809 136.585 81.7802 136.585 81.7796 136.585L81.7814 136.585Z" fill="#222723"/>
<path d="M131.804 157.836C131.631 157.836 131.462 157.752 131.359 157.598C131.199 157.357 130.958 157.178 130.68 157.094L127.403 156.105C126.911 155.962 126.627 155.442 126.772 154.949C126.862 154.643 127.1 154.407 127.407 154.317L130.681 153.332C131.08 153.211 131.391 152.901 131.512 152.503L132.505 149.24C132.577 149.002 132.738 148.806 132.959 148.688C133.179 148.57 133.433 148.545 133.672 148.617C133.973 148.708 134.207 148.941 134.298 149.24L135.035 151.666C135.12 151.946 134.961 152.242 134.68 152.327C134.398 152.412 134.101 152.254 134.016 151.973L133.401 149.951L132.531 152.811C132.306 153.549 131.73 154.123 130.989 154.347L128.114 155.212L130.989 156.079C131.504 156.234 131.951 156.566 132.248 157.013C132.41 157.258 132.342 157.586 132.097 157.748C132.007 157.807 131.905 157.836 131.804 157.836ZM127.713 155.333L127.711 155.333C127.712 155.333 127.712 155.333 127.713 155.333ZM127.707 155.09L127.709 155.09C127.709 155.09 127.708 155.09 127.707 155.09Z" fill="#222723"/>
<path d="M146.77 126.738C146.544 126.738 146.334 126.593 146.262 126.367L145.656 124.455C145.533 124.051 145.222 123.741 144.822 123.621L141.545 122.632C141.309 122.563 141.111 122.404 140.991 122.186C140.871 121.967 140.844 121.715 140.915 121.476C141.005 121.17 141.242 120.934 141.549 120.844L144.823 119.859C145.222 119.738 145.533 119.428 145.654 119.03L146.647 115.767C146.796 115.275 147.32 114.996 147.814 115.144C148.115 115.235 148.349 115.468 148.44 115.767L149.432 119.031C149.542 119.39 149.721 119.631 149.98 119.767C150.24 119.903 150.34 120.224 150.203 120.483C150.066 120.742 149.744 120.841 149.484 120.705C148.967 120.434 148.607 119.974 148.413 119.338L147.543 116.478L146.673 119.338C146.448 120.075 145.872 120.649 145.131 120.873L142.256 121.739L145.131 122.605C145.872 122.829 146.449 123.403 146.673 124.141L147.278 126.048C147.366 126.327 147.21 126.625 146.93 126.713C146.877 126.73 146.823 126.738 146.77 126.738ZM141.855 121.86L141.853 121.86C141.854 121.86 141.854 121.86 141.855 121.86ZM141.849 121.616L141.851 121.617C141.851 121.617 141.85 121.617 141.849 121.616Z" fill="#222723"/>
<path d="M103.2 155.212C103.111 155.212 103.02 155.2 102.93 155.173C102.629 155.082 102.395 154.849 102.304 154.55L101.312 151.286C101.191 150.888 100.88 150.578 100.48 150.458L97.2026 149.47C96.7113 149.326 96.4265 148.806 96.5722 148.313C96.6625 148.007 96.8996 147.771 97.2068 147.681L100.48 146.696C100.88 146.575 101.191 146.265 101.312 145.867L102.304 142.604C102.377 142.366 102.538 142.17 102.759 142.052C102.979 141.934 103.233 141.909 103.472 141.982C103.773 142.072 104.006 142.305 104.097 142.604L105.09 145.868C105.211 146.265 105.522 146.575 105.922 146.696L108.479 147.466C108.761 147.55 108.92 147.846 108.835 148.127C108.75 148.407 108.452 148.565 108.171 148.481L105.613 147.711C104.872 147.487 104.296 146.913 104.071 146.176L103.201 143.315L102.331 146.175C102.106 146.913 101.529 147.487 100.789 147.711L97.9135 148.576L100.789 149.443C101.53 149.667 102.107 150.241 102.331 150.979L103.201 153.84L104.071 150.979C104.295 150.241 104.872 149.667 105.613 149.443L107.494 148.876C107.775 148.791 108.072 148.95 108.158 149.23C108.243 149.51 108.084 149.806 107.802 149.891L105.922 150.458C105.522 150.579 105.211 150.888 105.09 151.287L104.097 154.55C103.975 154.952 103.602 155.212 103.2 155.212ZM97.5126 148.697L97.511 148.697C97.5115 148.697 97.5121 148.697 97.5126 148.697ZM97.5071 148.454L97.5091 148.454C97.5083 148.454 97.5076 148.454 97.5071 148.454Z" fill="#222723"/>
<path d="M121.154 117.754C121.066 117.754 120.977 117.741 120.889 117.716C120.582 117.626 120.345 117.39 120.254 117.084L119.265 113.834C119.143 113.435 118.832 113.124 118.431 113.003L115.154 112.017C114.663 111.873 114.378 111.354 114.523 110.861C114.614 110.555 114.851 110.319 115.158 110.229L118.432 109.244C118.832 109.123 119.143 108.812 119.265 108.413L120.255 105.15C120.331 104.908 120.494 104.713 120.716 104.597C120.937 104.48 121.191 104.457 121.431 104.531C121.727 104.622 121.958 104.852 122.049 105.147L123.041 108.414C123.162 108.812 123.474 109.123 123.875 109.244L126.284 109.971C126.549 110.051 126.708 110.32 126.65 110.59C126.585 110.89 126.51 111.193 126.428 111.491C126.419 111.521 126.408 111.551 126.395 111.579L126.123 112.145C126.059 112.279 125.941 112.38 125.797 112.424L123.875 113.004C123.474 113.125 123.162 113.435 123.041 113.834L122.05 117.089C121.981 117.323 121.821 117.521 121.602 117.64C121.462 117.715 121.309 117.754 121.154 117.754ZM121.031 116.783C121.03 116.784 121.03 116.784 121.03 116.785L121.031 116.783ZM121.274 116.779L121.275 116.78C121.274 116.78 121.274 116.779 121.274 116.779ZM115.865 111.123L118.74 111.988C119.482 112.213 120.059 112.787 120.284 113.526L121.153 116.381L122.022 113.526C122.247 112.787 122.824 112.213 123.566 111.989L125.264 111.476L125.413 111.164C125.443 111.057 125.471 110.949 125.498 110.841L123.566 110.258C122.824 110.034 122.247 109.459 122.022 108.721L121.153 105.858L120.284 108.72C120.059 109.459 119.482 110.034 118.74 110.258L115.865 111.123ZM115.464 111.244L115.462 111.245C115.463 111.244 115.463 111.244 115.464 111.244ZM115.458 111.001L115.46 111.001C115.46 111.001 115.459 111.001 115.458 111.001Z" fill="#222723"/>
<path d="M90.8492 95.5239C90.6206 95.5239 90.4092 95.3762 90.3397 95.147C90.2546 94.8667 90.4138 94.5709 90.6953 94.4861L92.152 94.0478C92.5518 93.9271 92.8636 93.617 92.9857 93.2185L93.3813 91.9154C93.4665 91.6351 93.7637 91.4766 94.045 91.5612C94.3265 91.6459 94.4857 91.9419 94.4007 92.2222L94.0047 93.5265C93.7785 94.2652 93.2015 94.839 92.4606 95.0625L91.0036 95.501C90.9519 95.5165 90.9001 95.5239 90.8492 95.5239Z" fill="#222723"/>
<path d="M94.8746 102.558C94.7858 102.558 94.6967 102.546 94.6092 102.52C94.302 102.43 94.0648 102.194 93.9746 101.888L92.9854 98.6378C92.8823 98.2997 92.6385 98.0205 92.3165 97.8719C92.0498 97.7487 91.9339 97.4335 92.0576 97.1679C92.1813 96.9023 92.4977 96.7869 92.7646 96.91C93.3613 97.1857 93.8131 97.7031 94.0043 98.33L94.8733 101.185L95.744 98.33C95.9676 97.5916 96.5444 97.0173 97.2869 96.7943L100.154 95.9277L97.2862 95.0625C96.5449 94.8391 95.9683 94.2648 95.7438 93.5266L95.2843 92.0159C95.1991 91.7356 95.3582 91.4398 95.6396 91.3548C95.9211 91.27 96.2182 91.4283 96.3035 91.7086L96.763 93.2195C96.884 93.6176 97.195 93.9272 97.595 94.0479L100.863 95.0344C101.354 95.178 101.639 95.6974 101.494 96.1908C101.403 96.4967 101.166 96.733 100.859 96.8227L97.5953 97.8095C97.1944 97.9299 96.8839 98.2393 96.7632 98.6374L95.7704 101.893C95.7014 102.127 95.5415 102.325 95.322 102.444C95.1825 102.52 95.0293 102.558 94.8746 102.558ZM94.7509 101.587C94.7507 101.588 94.7505 101.589 94.7502 101.589L94.7509 101.587ZM94.9943 101.583L94.9949 101.585C94.9949 101.584 94.9947 101.584 94.9943 101.583ZM100.557 96.0494C100.558 96.0496 100.558 96.0498 100.559 96.0501L100.557 96.0494ZM100.554 95.8066C100.554 95.8068 100.553 95.807 100.553 95.8072L100.554 95.8066Z" fill="#222723"/>
<path d="M71.8112 120.641C71.7201 120.641 71.6286 120.628 71.5389 120.6C71.2381 120.51 71.0044 120.277 70.9134 119.978L69.9211 116.724C69.7999 116.324 69.4888 116.014 69.0886 115.893L65.8205 114.907C65.3293 114.763 65.0447 114.244 65.1902 113.75C65.2803 113.445 65.5176 113.208 65.8248 113.118L69.0888 112.133C69.4886 112.012 69.7997 111.702 69.9208 111.303L70.9132 108.04C70.9856 107.801 71.1469 107.605 71.3673 107.487C71.5879 107.37 71.8412 107.345 72.0807 107.417C72.3815 107.507 72.6153 107.74 72.7061 108.039L73.6985 111.303C73.8199 111.701 74.1312 112.012 74.5314 112.133L77.7989 113.12C78.29 113.263 78.5748 113.782 78.4293 114.276C78.339 114.582 78.1017 114.818 77.7947 114.908L74.5307 115.893C74.1314 116.014 73.8199 116.325 73.6985 116.723L72.7061 119.978C72.6339 120.216 72.4726 120.412 72.252 120.53C72.1143 120.604 71.9634 120.641 71.8112 120.641ZM66.5311 114.013L69.398 114.879C70.1398 115.103 70.7164 115.678 70.9403 116.417L71.8099 119.269L72.6797 116.416C72.9044 115.678 73.4804 115.104 74.221 114.879L77.0887 114.013L74.2219 113.148C73.4806 112.923 72.9044 112.348 72.6797 111.611L71.8099 108.75L70.9402 111.61C70.7162 112.349 70.1398 112.924 69.3981 113.148L66.5311 114.013ZM77.4926 114.135C77.4933 114.136 77.4941 114.136 77.4946 114.136L77.4926 114.135ZM66.1315 114.134L66.1297 114.135C66.1302 114.134 66.1308 114.134 66.1315 114.134ZM77.4903 113.892C77.4898 113.892 77.4891 113.893 77.4886 113.893L77.4903 113.892ZM66.1253 113.891L66.1274 113.891C66.1267 113.891 66.126 113.891 66.1253 113.891ZM71.6873 108.347C71.6873 108.347 71.6875 108.347 71.6875 108.347L71.6873 108.347C71.6873 108.347 71.6873 108.347 71.6873 108.347Z" fill="#222723"/>
<path d="M65.0574 92.5517C65.0155 100.285 70.7985 103.612 74.8115 102.342C77.4012 101.523 78.9643 99.1188 79.7208 97.1984" fill="white"/>
<path d="M73.0605 103.137C71.5146 103.137 69.9157 102.605 68.5354 101.594C67.0253 100.488 64.4964 97.8414 64.5251 92.5489C64.5267 92.2561 64.7681 92.0201 65.0604 92.0216C65.3545 92.0231 65.5916 92.2617 65.59 92.5545C65.5639 97.3773 67.8195 99.7529 69.1665 100.74C70.8569 101.978 72.907 102.389 74.6504 101.837C77.4044 100.966 78.7671 98.1676 79.2252 97.0048C79.3326 96.7323 79.6415 96.598 79.9152 96.7049C80.1888 96.8118 80.3237 97.1195 80.2164 97.392C79.7026 98.6961 78.163 101.839 74.9727 102.848C74.3585 103.042 73.7141 103.137 73.0605 103.137Z" fill="#222723"/>
<path d="M65.0648 92.0368C64.7954 97.788 71.3848 102.625 76.4685 99.0734C76.5377 99.0245 76.6052 98.9773 76.6707 98.9283C78.872 97.2838 81.3684 95.9947 85.1575 97.3437C87.8286 98.2955 91.6834 100.132 92.499 97.5849C93.0636 95.819 88.6462 93.4892 85.4507 91.6543C90.7311 92.1294 97.6502 92.7422 98.0144 90.3852C98.3786 88.0281 93.3823 87.1126 86.5287 86.5487C94.1523 85.8542 98.2692 86.5359 98.3402 84.2243C98.4568 80.4168 82.7596 80.9155 77.3844 82.5381C77.3844 82.5381 76.0953 82.8917 71.3903 83.9306C66.5761 84.9838 65.2087 89.0179 65.0648 92.0368Z" fill="white"/>
<path d="M72.7092 100.822C71.4917 100.822 70.2543 100.499 69.0673 99.8487C66.2089 98.2833 64.3866 95.1341 64.5329 92.0122C64.5329 92.012 64.5329 92.012 64.5329 92.0119C64.636 89.8474 65.4995 84.6767 71.2759 83.4129C75.8993 82.392 77.2302 82.0306 77.2431 82.027C81.8442 80.6379 94.6128 79.9741 97.9517 82.5199C98.7377 83.1192 98.8861 83.7864 98.8722 84.2406C98.8245 85.792 97.3171 86.1601 96.8218 86.2811C95.7893 86.5333 94.3209 86.6174 92.477 86.706C95.6118 87.2327 97.3444 87.9281 98.1161 88.9024C98.4859 89.3693 98.6286 89.8953 98.5406 90.466C98.1782 92.8115 93.7949 92.8564 87.7996 92.3863C90.8491 94.1535 93.5762 95.9634 93.0064 97.746C92.7966 98.4012 92.4042 98.8711 91.8404 99.1427C90.3543 99.8588 88.0252 98.9828 85.9701 98.21C85.6274 98.0812 85.2943 97.9559 84.9781 97.8431C81.6241 96.6491 79.3591 97.583 76.9902 99.3527C76.9297 99.3979 76.8681 99.4414 76.805 99.4861L76.7769 99.5059C75.5229 100.382 74.1296 100.822 72.7092 100.822ZM65.5966 92.0619C65.469 94.7888 67.0699 97.5447 69.5806 98.9195C71.7828 100.125 74.182 100.023 76.1627 98.6394L76.1888 98.621C76.2442 98.582 76.2985 98.5436 76.3513 98.5042C78.6389 96.7954 81.3109 95.4114 85.3367 96.8445C85.6587 96.9592 85.9976 97.0866 86.3464 97.2177C88.109 97.8804 90.3023 98.705 91.3767 98.1879C91.6756 98.0441 91.8709 97.8013 91.9918 97.4238C92.3799 96.2096 88.3764 93.9312 85.9843 92.5699C85.7119 92.415 85.4443 92.2626 85.1847 92.1135C84.9681 91.9891 84.8675 91.7316 84.9429 91.4943C85.0184 91.2569 85.2496 91.1037 85.4984 91.1263C88.0101 91.3524 91.1364 91.6333 93.558 91.5519C96.8267 91.4418 97.4234 90.7231 97.488 90.3044C97.5306 90.0286 97.4646 89.7916 97.28 89.5587C96.0697 88.0306 90.5392 87.4105 86.4848 87.0769C86.2095 87.0543 85.9975 86.8258 85.9962 86.5508C85.995 86.2758 86.2051 86.0456 86.4802 86.0205C88.5904 85.8282 90.3971 85.7427 91.9911 85.667C95.9996 85.4771 97.7732 85.3451 97.8081 84.2077C97.8115 84.096 97.822 83.7557 97.3047 83.3612C94.4355 81.1739 82.3869 81.5815 77.539 83.0451C77.4728 83.0635 76.1702 83.4178 71.5056 84.4479C66.447 85.5548 65.6882 90.1415 65.5966 92.0619Z" fill="#222723"/>
<path d="M52.5301 77.8547L51.8201 88.5865L70.3385 84.225" fill="white"/>
<path d="M51.82 89.1166C51.6954 89.1166 51.5733 89.0729 51.476 88.9911C51.347 88.8824 51.2776 88.7193 51.2886 88.5514L51.9987 77.8196C52.018 77.5275 52.2721 77.3057 52.565 77.3255C52.8583 77.3448 53.0805 77.5971 53.0612 77.8894L52.3985 87.9052L70.2159 83.7089C70.5022 83.6414 70.789 83.8177 70.8566 84.1028C70.9242 84.3876 70.7473 84.6734 70.461 84.7407L51.9424 89.1021C51.9019 89.112 51.8609 89.1166 51.82 89.1166Z" fill="#222723"/>
<path d="M101.562 162.585C101.485 162.585 101.406 162.569 101.332 162.533C101.067 162.407 100.955 162.09 101.082 161.826L125.163 111.687C125.163 111.686 125.763 110.326 125.913 108.453C126.35 104.028 125.038 99.7662 122.222 96.4418C119.421 93.1356 115.41 91.0731 110.93 90.6344C110.637 90.6057 110.424 90.3463 110.452 90.0549C110.481 89.7635 110.742 89.5509 111.034 89.5792C115.792 90.0452 120.054 92.2395 123.036 95.7581C126.039 99.303 127.438 103.845 126.973 108.547C126.81 110.603 126.157 112.071 126.129 112.133L102.042 162.284C101.951 162.474 101.76 162.585 101.562 162.585Z" fill="#222723"/>
<path d="M48.1946 41.4682L49.841 56.7357C50.2552 60.4883 53.5974 63.2285 57.3755 62.913C61.2208 62.5882 64.0752 59.2234 63.7539 55.3941L63.3438 50.5378C66.1911 49.4163 68.5607 47.1317 69.6819 44.0383C71.1948 39.8641 70.0429 35.1933 66.7601 32.1918C67.0025 31.3441 67.1425 30.4708 67.1771 29.59C67.4187 23.5147 62.6684 18.3945 56.5672 18.154L48.7619 22.784" fill="white"/>
<path d="M56.7691 63.4685C52.9509 63.4685 49.737 60.6465 49.3118 56.7937L47.6652 41.5247C47.6338 41.2337 47.8453 40.9723 48.1378 40.941C48.4306 40.9096 48.6926 41.1204 48.724 41.4116L50.3703 56.6792C50.7558 60.1718 53.8134 62.6784 57.331 62.3847C60.8759 62.0851 63.5195 58.9689 63.2233 55.4381L62.8132 50.5821C62.7935 50.3491 62.9296 50.1308 63.1479 50.0448C65.9583 48.938 68.1573 46.6831 69.1811 43.8584C70.6253 39.8737 69.5337 35.4476 66.4 32.5824C66.2516 32.4468 66.1929 32.2395 66.2481 32.0467C66.4786 31.2406 66.6122 30.4072 66.6451 29.5693C66.7563 26.7723 65.767 24.0996 63.8595 22.0437C61.9874 20.026 59.4509 18.8391 56.7021 18.691L49.0344 23.2394C48.7818 23.3892 48.4549 23.3067 48.3044 23.0552C48.1539 22.8036 48.2368 22.4783 48.4894 22.3284L56.2946 17.6986C56.3832 17.6461 56.4854 17.6196 56.5881 17.6244C59.681 17.7463 62.5413 19.0602 64.6416 21.3243C66.742 23.5884 67.8315 26.5312 67.709 29.6111C67.6771 30.4247 67.5589 31.2349 67.3569 32.0239C70.6255 35.1826 71.7361 39.9322 70.1827 44.2182C69.1003 47.2049 66.8252 49.6129 63.9069 50.8787L64.2846 55.3496C64.6296 59.4625 61.5505 63.0922 57.4206 63.4412C57.2018 63.4595 56.9842 63.4685 56.7691 63.4685Z" fill="#222723"/>
<path d="M59.2899 51.8402C57.9571 51.8402 56.6238 51.6122 55.3489 51.1554C55.0722 51.0562 54.9286 50.7525 55.0282 50.477C55.1277 50.2015 55.4326 50.0585 55.7095 50.1576C58.1218 51.0221 60.7648 50.9847 63.1516 50.0523C63.4253 49.9454 63.7342 50.0797 63.8416 50.3522C63.949 50.6247 63.8141 50.9324 63.5404 51.0393C62.1746 51.5728 60.7327 51.8402 59.2899 51.8402Z" fill="#222723"/>
<path d="M65.9369 14.7462C64.5595 14.7457 63.2739 15.4343 62.5156 16.5793C61.4428 14.5921 58.9554 13.8472 56.96 14.9155C56.2881 15.2751 55.7301 15.8143 55.3489 16.4724C54.2211 14.9206 52.0434 14.573 50.485 15.696C49.8068 16.1848 49.328 16.9007 49.1363 17.7124C47.5444 16.9172 45.6066 17.5576 44.808 19.1427C44.4678 19.818 44.3777 20.5911 44.5534 21.3259C42.858 21.8818 41.9362 23.7011 42.4945 25.3893C42.6621 25.8959 42.9535 26.3531 43.3425 26.7198C41.7128 27.4498 40.9861 29.3571 41.719 30.9799C41.8038 31.1676 41.9045 31.3434 42.0191 31.5065C43.8092 29.9597 45.9474 29.4055 47.6651 29.7766C49.3737 30.1458 51.9225 31.5054 52.53 35.0421H53.0392L52.1845 27.5974C52.0216 26.3713 52.8826 25.2442 54.1127 25.0735L65.613 23.4816C68.7811 22.6186 70.0557 21.0938 70.0557 18.8382C70.0598 16.5823 68.2264 14.7501 65.9608 14.746C65.9526 14.7462 65.9447 14.7462 65.9369 14.7462Z" fill="#6A9586"/>
<path d="M61.4372 35.8949C61.1561 35.8949 60.9211 35.6756 60.906 35.3927C60.8906 35.1002 61.116 34.8507 61.4095 34.8353L63.865 34.7059L62.6136 30.549C62.5292 30.2686 62.6891 29.9731 62.9707 29.889C63.2522 29.8051 63.5491 29.9641 63.6335 30.2445L65.0792 35.0473C65.126 35.2032 65.0985 35.3718 65.0045 35.5047C64.9104 35.6378 64.7605 35.7203 64.5972 35.7289L61.4654 35.894C61.4562 35.8947 61.4466 35.8949 61.4372 35.8949Z" fill="#222723"/>
<path d="M52.4958 35.0457C52.1841 32.1154 49.7518 29.7805 46.7076 29.664C43.3664 29.5362 40.5538 32.1296 40.4254 35.4566C40.2971 38.7836 42.9015 41.5844 46.2427 41.7122C47.5329 41.7615 48.8051 41.3988 49.8737 40.6771" fill="white"/>
<path d="M46.481 42.2469C46.3949 42.2469 46.3086 42.2453 46.2222 42.242C42.593 42.1031 39.7539 39.0501 39.8934 35.4363C39.961 33.6857 40.709 32.0661 41.9999 30.8758C43.2908 29.6856 44.9688 29.0671 46.728 29.1342C49.9762 29.2585 52.6833 31.776 53.0251 34.9899C53.056 35.2811 52.8441 35.5421 52.5518 35.5729C52.259 35.6038 51.9972 35.3926 51.9663 35.1016C51.6799 32.4079 49.4104 30.2979 46.6872 30.1936C45.2149 30.1378 43.8056 30.6557 42.7234 31.6537C41.6412 32.6516 41.0141 34.0093 40.9575 35.4769C40.8405 38.5065 43.2207 41.0659 46.2632 41.1824C47.448 41.228 48.5935 40.9012 49.5749 40.2384C49.8184 40.074 50.1494 40.1373 50.3145 40.3796C50.4795 40.6218 50.4161 40.9516 50.1727 41.1159C49.0734 41.8583 47.8022 42.2469 46.481 42.2469Z" fill="#222723"/>
<path d="M63.537 42.0964C62.0919 42.0964 60.4817 41.3012 59.92 39.3979C59.8372 39.117 59.9987 38.8224 60.2808 38.7399C60.5632 38.6575 60.8588 38.8181 60.9417 39.0991C61.3964 40.6401 62.8087 41.1694 63.9289 41.0087C64.8785 40.8726 65.9873 40.1725 65.9873 38.6467C65.9873 38.3539 66.2257 38.1166 66.5197 38.1166C66.8138 38.1166 67.0521 38.3539 67.0521 38.6467C67.0521 40.7094 65.5596 41.8464 64.0806 42.0582C63.9037 42.0833 63.7216 42.0964 63.537 42.0964Z" fill="#222723"/>
<path d="M45.7444 37.6338C45.5478 37.6338 45.3588 37.5249 45.2662 37.3372C45.1364 37.0745 45.2452 36.7567 45.5091 36.6277L47.9447 35.436L43.831 34.3244C43.5472 34.2477 43.3797 33.9565 43.4565 33.6739C43.5334 33.3913 43.826 33.2244 44.1098 33.301L49.585 34.7805C49.7989 34.8383 49.9543 35.0217 49.9756 35.2414C49.9968 35.4609 49.8793 35.6706 49.6805 35.7678L45.9789 37.5792C45.9035 37.6163 45.8234 37.6338 45.7444 37.6338Z" fill="#222723"/>
<path d="M51.2406 143.273C50.9376 143.273 50.692 143.029 50.692 142.727C50.692 140.732 49.0612 139.109 47.0567 139.109H43.1946C41.1882 139.109 39.5574 140.732 39.5574 142.727C39.5574 143.029 39.3118 143.273 39.0088 143.273C38.7058 143.273 38.4602 143.029 38.4602 142.727C38.4602 140.13 40.5833 138.017 43.1927 138.017H47.0567C49.6661 138.017 51.7892 140.13 51.7892 142.727C51.7892 143.029 51.5436 143.273 51.2406 143.273Z" fill="#222723"/>
<path d="M53.4841 142.873H36.7685C32.6749 142.871 29.1741 145.802 28.4756 149.817L24.1234 174.754C23.3256 179.31 26.3889 183.647 30.9657 184.441C31.4448 184.524 31.9301 184.565 32.4163 184.565H57.8344C62.4801 184.568 66.2489 180.822 66.2522 176.198C66.2526 175.714 66.2107 175.231 66.1273 174.754L61.777 149.817C61.0784 145.802 57.5777 142.871 53.4841 142.873Z" fill="white"/>
<path d="M57.8407 185.111C57.8383 185.111 57.8365 185.111 57.8339 185.111H32.4163C31.8963 185.11 31.3802 185.067 30.8715 184.979C28.5137 184.569 26.457 183.271 25.0804 181.322C23.7038 179.373 23.172 177.007 23.5831 174.66L27.9353 149.724C28.6812 145.437 32.394 142.327 36.7639 142.327C36.7658 142.327 36.767 142.327 36.7689 142.327H53.4841H53.4839C53.4856 142.327 53.4872 142.327 53.4889 142.327C57.8593 142.327 61.5718 145.437 62.3177 149.724L66.6681 174.661C66.7568 175.167 66.8016 175.685 66.8012 176.199C66.7974 181.114 62.7782 185.111 57.8407 185.111ZM32.4158 184.019H57.8343C57.8361 184.019 57.8383 184.019 57.8401 184.019C62.1738 184.019 65.7005 180.512 65.7037 176.198C65.704 175.747 65.6647 175.293 65.5868 174.848L61.2365 149.91C60.5818 146.148 57.3237 143.419 53.4885 143.419C53.4869 143.419 53.4865 143.419 53.4839 143.419H36.7683C36.7669 143.419 36.7654 143.419 36.7641 143.419C32.9285 143.419 29.6706 146.148 29.016 149.91L24.6638 174.847C24.303 176.907 24.7697 178.984 25.9777 180.694C27.1857 182.404 28.9906 183.544 31.0597 183.903C31.5042 183.98 31.9586 184.019 32.4099 184.019C32.4121 184.019 32.414 184.019 32.4158 184.019Z" fill="#222723"/>
<path d="M40.9618 180.397C39.3601 180.397 37.9901 179.312 37.6298 177.758L36.5475 173.101C36.3419 172.214 36.4957 171.301 36.9803 170.53C37.4649 169.758 38.2221 169.221 39.1127 169.016C39.3638 168.959 39.622 168.929 39.8796 168.929H50.3709C51.285 168.93 52.1441 169.285 52.79 169.928C53.4359 170.572 53.7914 171.427 53.7908 172.337C53.7908 172.593 53.7612 172.85 53.7032 173.1L52.6207 177.759C52.2599 179.311 50.8899 180.396 49.2885 180.397C49.2885 180.397 49.2885 180.397 49.2884 180.397H40.9625C40.962 180.397 40.9618 180.397 40.9618 180.397ZM39.8796 170.022C39.7048 170.022 39.5294 170.042 39.359 170.081C38.7539 170.22 38.2395 170.585 37.9105 171.109C37.5814 171.633 37.477 172.253 37.6165 172.855L38.6989 177.512C38.9435 178.568 39.8741 179.305 40.962 179.305H49.288H49.2878C50.3755 179.304 51.3063 178.567 51.5513 177.512L52.6339 172.855C52.6732 172.685 52.6931 172.511 52.6933 172.336C52.6936 171.718 52.4523 171.137 52.0134 170.7C51.5745 170.263 50.9912 170.022 50.3704 170.022H39.8796Z" fill="#222723"/>
<path d="M52.101 152.436H38.1484C37.8454 152.436 37.5999 152.192 37.5999 151.89C37.5999 151.589 37.8454 151.344 38.1484 151.344H52.101C52.404 151.344 52.6496 151.589 52.6496 151.89C52.6496 152.192 52.404 152.436 52.101 152.436Z" fill="#222723"/>
<path d="M45.1246 165.769C42.5585 165.769 40.4707 163.691 40.4707 161.137C40.4707 158.583 42.5585 156.505 45.1246 156.505C47.6907 156.505 49.7785 158.583 49.7785 161.137C49.7785 163.691 47.6909 165.769 45.1246 165.769ZM45.1246 157.597C43.1634 157.597 41.5679 159.185 41.5679 161.137C41.5679 163.089 43.1634 164.677 45.1246 164.677C47.0858 164.677 48.6813 163.089 48.6813 161.137C48.6813 159.185 47.0858 157.597 45.1246 157.597Z" fill="#222723"/>
<path d="M253.874 86.9447H244.796L240.98 61.7461C240.673 59.7215 238.939 58.2257 236.898 58.2269H201.499C199.22 58.2264 197.372 60.0803 197.372 62.3676C197.372 62.5768 197.387 62.7857 197.419 62.9925L201.49 89.862H245.238H250.598" fill="white"/>
<path d="M250.598 90.3778H201.49C201.236 90.3778 201.02 90.1916 200.982 89.9396L196.911 63.0701C196.876 62.8385 196.858 62.6021 196.858 62.3676C196.858 59.8 198.94 57.7111 201.498 57.7111C201.498 57.7111 201.498 57.7111 201.499 57.7111H236.898C236.899 57.7111 236.9 57.7111 236.901 57.7111C239.212 57.7111 241.141 59.375 241.488 61.6686L245.238 86.4288H253.874C254.158 86.4288 254.388 86.6597 254.388 86.9445C254.388 87.2294 254.158 87.4603 253.874 87.4603H244.796C244.542 87.4603 244.326 87.2741 244.288 87.0221L240.472 61.8235C240.202 60.0381 238.7 58.7426 236.901 58.7426C236.9 58.7426 236.9 58.7426 236.899 58.7426H201.499C201.499 58.7426 201.498 58.7426 201.498 58.7426C199.506 58.7426 197.886 60.3687 197.886 62.3678C197.886 62.5503 197.899 62.7345 197.927 62.915L201.932 89.3463H250.598C250.882 89.3463 251.112 89.5771 251.112 89.862C251.112 90.1469 250.882 90.3778 250.598 90.3778Z" fill="#222723"/>
<path d="M221.035 78.7273C222.124 77.6661 221.972 75.7341 220.694 74.4119C219.416 73.0897 217.497 72.878 216.407 73.9391C215.317 75.0003 215.47 76.9323 216.747 78.2545C218.025 79.5767 219.945 79.7884 221.035 78.7273Z" fill="#B1CDBA"/>
<path d="M131.498 74.2146C131.199 74.2146 130.957 73.9724 130.957 73.6734C130.957 73.3745 131.199 73.1322 131.498 73.1322C140.461 73.1322 144.962 66.7273 149.315 60.5332C153.571 54.4776 157.971 48.2159 166.458 48.2159C174.793 48.2159 179.217 45.3227 183.901 42.2595C189.401 38.6622 195.636 34.5851 209.176 34.5851C209.475 34.5851 209.718 34.8274 209.718 35.1263C209.718 35.4252 209.475 35.6675 209.176 35.6675C195.958 35.6675 190.13 39.4791 184.493 43.1653C179.671 46.3192 175.115 49.2982 166.458 49.2982C158.534 49.2982 154.486 55.0578 150.201 61.1554C145.689 67.5757 141.023 74.2146 131.498 74.2146Z" fill="#222723"/>
<path d="M167.772 58.9224C159.155 58.9224 153.128 52.6269 147.299 46.5387C142.224 41.2385 137.431 36.2321 131.498 36.2321C131.199 36.2321 130.957 35.9898 130.957 35.6909C130.957 35.392 131.199 35.1497 131.498 35.1497C137.893 35.1497 142.842 40.3183 148.081 45.7904C153.753 51.7145 159.618 57.84 167.772 57.84C174.821 57.84 179.024 54.7821 183.89 51.2413C189.69 47.0209 196.265 42.2375 209.176 42.2375C209.475 42.2375 209.717 42.4798 209.717 42.7787C209.717 43.0776 209.475 43.3199 209.176 43.3199C196.617 43.3199 190.194 47.9932 184.527 52.1164C179.717 55.6165 175.173 58.9224 167.772 58.9224Z" fill="#222723"/>
<path d="M131.498 89.8333C131.199 89.8333 130.957 89.5911 130.957 89.2922V20.9579C130.957 20.659 131.199 20.4167 131.498 20.4167C131.797 20.4167 132.04 20.659 132.04 20.9579V89.2922C132.04 89.5911 131.797 89.8333 131.498 89.8333Z" fill="#222723"/>
<path d="M133.368 82.7366H129.616C129.317 82.7366 129.075 82.4943 129.075 82.1954C129.075 81.8964 129.317 81.6542 129.616 81.6542H133.368C133.667 81.6542 133.909 81.8964 133.909 82.1954C133.909 82.4943 133.667 82.7366 133.368 82.7366Z" fill="#222723"/>
<path d="M133.368 74.2146H129.616C129.317 74.2146 129.075 73.9723 129.075 73.6734C129.075 73.3745 129.317 73.1322 129.616 73.1322H133.368C133.667 73.1322 133.909 73.3745 133.909 73.6734C133.909 73.9723 133.667 74.2146 133.368 74.2146Z" fill="#222723"/>
<path d="M133.368 65.6927H129.616C129.317 65.6927 129.075 65.4504 129.075 65.1515C129.075 64.8526 129.317 64.6103 129.616 64.6103H133.368C133.667 64.6103 133.909 64.8526 133.909 65.1515C133.909 65.4504 133.667 65.6927 133.368 65.6927Z" fill="#222723"/>
<path d="M133.368 57.1708H129.616C129.317 57.1708 129.075 56.9285 129.075 56.6296C129.075 56.3307 129.317 56.0884 129.616 56.0884H133.368C133.667 56.0884 133.909 56.3307 133.909 56.6296C133.909 56.9285 133.667 57.1708 133.368 57.1708Z" fill="#222723"/>
<path d="M133.368 48.6488H129.616C129.317 48.6488 129.075 48.4065 129.075 48.1076C129.075 47.8087 129.317 47.5664 129.616 47.5664H133.368C133.667 47.5664 133.909 47.8087 133.909 48.1076C133.909 48.4065 133.667 48.6488 133.368 48.6488Z" fill="#222723"/>
<path d="M133.368 40.1268H129.616C129.317 40.1268 129.075 39.8845 129.075 39.5856C129.075 39.2867 129.317 39.0444 129.616 39.0444H133.368C133.667 39.0444 133.909 39.2867 133.909 39.5856C133.909 39.8845 133.667 40.1268 133.368 40.1268Z" fill="#222723"/>
<path d="M133.368 31.6049H129.616C129.317 31.6049 129.075 31.3626 129.075 31.0637C129.075 30.7648 129.317 30.5225 129.616 30.5225H133.368C133.667 30.5225 133.909 30.7648 133.909 31.0637C133.909 31.3626 133.667 31.6049 133.368 31.6049Z" fill="#222723"/>
<path d="M166.962 61.8755C168.892 61.8755 170.457 60.311 170.457 58.3812C170.457 56.4513 168.892 54.8869 166.962 54.8869C165.031 54.8869 163.466 56.4513 163.466 58.3812C163.466 60.311 165.031 61.8755 166.962 61.8755Z" fill="#B1CDBA"/>
<path d="M155.861 57.5694C157.792 57.5694 159.357 56.0049 159.357 54.0751C159.357 52.1453 157.792 50.5808 155.861 50.5808C153.931 50.5808 152.365 52.1453 152.365 54.0751C152.365 56.0049 153.931 57.5694 155.861 57.5694Z" fill="#B1CDBA"/>
<path d="M209.176 46.6752C211.107 46.6752 212.672 45.1108 212.672 43.1809C212.672 41.2511 211.107 39.6866 209.176 39.6866C207.246 39.6866 205.681 41.2511 205.681 43.1809C205.681 45.1108 207.246 46.6752 209.176 46.6752Z" fill="#B1CDBA"/>
<path d="M209.176 38.6205C211.107 38.6205 212.672 37.0561 212.672 35.1262C212.672 33.1964 211.107 31.632 209.176 31.632C207.246 31.632 205.681 33.1964 205.681 35.1262C205.681 37.0561 207.246 38.6205 209.176 38.6205Z" fill="#B1CDBA"/>
<path d="M185.073 79.9332H184.507C184.32 79.933 184.134 79.9084 183.955 79.8603C182.817 79.5552 182.139 78.3814 182.444 77.244L183.708 72.5531C183.786 72.2645 184.083 72.0933 184.371 72.1712C184.66 72.249 184.831 72.5459 184.753 72.8345L183.49 77.5249C183.34 78.0853 183.674 78.6642 184.235 78.8149C184.324 78.8387 184.416 78.8508 184.507 78.8508H185.073C185.372 78.8508 185.615 79.093 185.615 79.392C185.615 79.6909 185.372 79.9332 185.073 79.9332Z" fill="#222723"/>
<path d="M185.048 75.7155H182.267C181.968 75.7155 181.726 75.4732 181.726 75.1743C181.726 74.8754 181.968 74.6331 182.267 74.6331H185.048C185.347 74.6331 185.589 74.8754 185.589 75.1743C185.589 75.4732 185.347 75.7155 185.048 75.7155Z" fill="#222723"/>
<path d="M128.226 26.9939H127.615C126.633 26.9938 125.757 26.408 125.382 25.5013L124.597 23.6075C124.39 23.1069 123.906 22.7835 123.365 22.7835H122.691C122.392 22.7835 122.15 22.5412 122.15 22.2423C122.15 21.9434 122.392 21.7011 122.691 21.7011H123.365C124.346 21.7013 125.222 22.287 125.597 23.1937L126.382 25.0875C126.589 25.5881 127.073 25.9116 127.615 25.9116H128.226C128.525 25.9116 128.768 26.1538 128.768 26.4528C128.768 26.7517 128.525 26.9939 128.226 26.9939Z" fill="#222723"/>
<path d="M123.447 26.994H122.8C122.501 26.994 122.258 26.7517 122.258 26.4528C122.258 26.1539 122.501 25.9116 122.8 25.9116H123.446C123.958 25.9116 124.415 25.606 124.611 25.1332L125.365 23.3126C125.729 22.4339 126.579 21.8658 127.53 21.8657H128.118C128.417 21.8657 128.66 22.1079 128.66 22.4069C128.66 22.7058 128.417 22.948 128.118 22.948H127.53C127.018 22.948 126.561 23.2536 126.366 23.7265L125.611 25.547C125.248 26.4257 124.398 26.9938 123.447 26.994Z" fill="#222723"/>
<path d="M252.21 90.3778H98.4259C98.1264 90.3778 97.8835 90.134 97.8835 89.8333C97.8835 89.5326 98.1264 89.2889 98.4259 89.2889H252.21C252.509 89.2889 252.752 89.5326 252.752 89.8333C252.752 90.134 252.509 90.3778 252.21 90.3778Z" fill="#222723"/>
<path d="M101.385 89.2889L107.809 71.905C109.949 66.0226 113.269 60.6371 117.565 56.0777L118.333 55.2611H94.6997L93.9751 56.0274C89.658 60.5969 86.3233 65.9989 84.176 71.9015L80.7063 81.3137C80.7063 81.3137 99.4738 78.8864 98.7787 84.0877C98.6334 85.1745 99.1263 86.1681 92.6966 86.3415C98.4312 87.2084 98.4312 89.2889 98.4312 89.2889H101.385Z" fill="#B1CDBA"/>
<path d="M324.444 185.431H21.011C20.6927 185.431 20.4492 185.183 20.4492 184.858C20.4492 184.533 20.6927 184.285 21.011 184.285H324.444C324.763 184.285 325.006 184.533 325.006 184.858C325.006 185.183 324.763 185.431 324.444 185.431Z" fill="#222723"/>
</svg>
