<svg width="16" height="16" viewBox="0 0 16 16" fill="none" xmlns="http://www.w3.org/2000/svg">
<path d="M5.99967 1.33301H2.66634C1.93101 1.33301 1.33301 1.93101 1.33301 2.66634V7.33301C1.33301 8.06834 1.93101 8.66634 2.66634 8.66634H5.99967C6.73501 8.66634 7.33301 8.06834 7.33301 7.33301V2.66634C7.33301 1.93101 6.73501 1.33301 5.99967 1.33301ZM13.333 1.33301H9.99967C9.26434 1.33301 8.66634 1.93101 8.66634 2.66634V4.66634C8.66634 5.40167 9.26434 5.99967 9.99967 5.99967H13.333C14.0683 5.99967 14.6663 5.40167 14.6663 4.66634V2.66634C14.6663 1.93101 14.0683 1.33301 13.333 1.33301ZM5.99967 9.99967H2.66634C1.93101 9.99967 1.33301 10.5977 1.33301 11.333V13.333C1.33301 14.0683 1.93101 14.6663 2.66634 14.6663H5.99967C6.73501 14.6663 7.33301 14.0683 7.33301 13.333V11.333C7.33301 10.5977 6.73501 9.99967 5.99967 9.99967ZM13.333 7.33301H9.99967C9.26434 7.33301 8.66634 7.93101 8.66634 8.66634V13.333C8.66634 14.0683 9.26434 14.6663 9.99967 14.6663H13.333C14.0683 14.6663 14.6663 14.0683 14.6663 13.333V8.66634C14.6663 7.93101 14.0683 7.33301 13.333 7.33301Z" fill="#707FDA"/>
</svg>
