<svg width="16" height="16" viewBox="0 0 16 16" fill="none" xmlns="http://www.w3.org/2000/svg">
<path d="M5.99992 1.33325H2.66659C1.93125 1.33325 1.33325 1.93125 1.33325 2.66659V7.33325C1.33325 8.06859 1.93125 8.66659 2.66659 8.66659H5.99992C6.73525 8.66659 7.33325 8.06859 7.33325 7.33325V2.66659C7.33325 1.93125 6.73525 1.33325 5.99992 1.33325ZM13.3333 1.33325H9.99992C9.26459 1.33325 8.66659 1.93125 8.66659 2.66659V4.66659C8.66659 5.40192 9.26459 5.99992 9.99992 5.99992H13.3333C14.0686 5.99992 14.6666 5.40192 14.6666 4.66659V2.66659C14.6666 1.93125 14.0686 1.33325 13.3333 1.33325ZM5.99992 9.99992H2.66659C1.93125 9.99992 1.33325 10.5979 1.33325 11.3333V13.3333C1.33325 14.0686 1.93125 14.6666 2.66659 14.6666H5.99992C6.73525 14.6666 7.33325 14.0686 7.33325 13.3333V11.3333C7.33325 10.5979 6.73525 9.99992 5.99992 9.99992ZM13.3333 7.33325H9.99992C9.26459 7.33325 8.66659 7.93125 8.66659 8.66659V13.3333C8.66659 14.0686 9.26459 14.6666 9.99992 14.6666H13.3333C14.0686 14.6666 14.6666 14.0686 14.6666 13.3333V8.66659C14.6666 7.93125 14.0686 7.33325 13.3333 7.33325Z" fill="#C7CBE0"/>
</svg>
