<svg width="16" height="16" viewBox="0 0 16 16" fill="none" xmlns="http://www.w3.org/2000/svg">
<path d="M5.99992 1.33301H2.66659C1.93125 1.33301 1.33325 1.93101 1.33325 2.66634V7.33301C1.33325 8.06834 1.93125 8.66634 2.66659 8.66634H5.99992C6.73525 8.66634 7.33325 8.06834 7.33325 7.33301V2.66634C7.33325 1.93101 6.73525 1.33301 5.99992 1.33301ZM13.3333 1.33301H9.99992C9.26459 1.33301 8.66659 1.93101 8.66659 2.66634V4.66634C8.66659 5.40167 9.26459 5.99967 9.99992 5.99967H13.3333C14.0686 5.99967 14.6666 5.40167 14.6666 4.66634V2.66634C14.6666 1.93101 14.0686 1.33301 13.3333 1.33301ZM5.99992 9.99967H2.66659C1.93125 9.99967 1.33325 10.5977 1.33325 11.333V13.333C1.33325 14.0683 1.93125 14.6663 2.66659 14.6663H5.99992C6.73525 14.6663 7.33325 14.0683 7.33325 13.333V11.333C7.33325 10.5977 6.73525 9.99967 5.99992 9.99967ZM13.3333 7.33301H9.99992C9.26459 7.33301 8.66659 7.93101 8.66659 8.66634V13.333C8.66659 14.0683 9.26459 14.6663 9.99992 14.6663H13.3333C14.0686 14.6663 14.6666 14.0683 14.6666 13.333V8.66634C14.6666 7.93101 14.0686 7.33301 13.3333 7.33301Z" fill="#707FDA"/>
</svg>
