<svg width="16" height="16" viewBox="0 0 16 16" fill="none" xmlns="http://www.w3.org/2000/svg">
<path d="M5.99992 1.3335H2.66659C1.93125 1.3335 1.33325 1.9315 1.33325 2.66683V7.3335C1.33325 8.06883 1.93125 8.66683 2.66659 8.66683H5.99992C6.73525 8.66683 7.33325 8.06883 7.33325 7.3335V2.66683C7.33325 1.9315 6.73525 1.3335 5.99992 1.3335ZM13.3333 1.3335H9.99992C9.26459 1.3335 8.66659 1.9315 8.66659 2.66683V4.66683C8.66659 5.40216 9.26459 6.00016 9.99992 6.00016H13.3333C14.0686 6.00016 14.6666 5.40216 14.6666 4.66683V2.66683C14.6666 1.9315 14.0686 1.3335 13.3333 1.3335ZM5.99992 10.0002H2.66659C1.93125 10.0002 1.33325 10.5982 1.33325 11.3335V13.3335C1.33325 14.0688 1.93125 14.6668 2.66659 14.6668H5.99992C6.73525 14.6668 7.33325 14.0688 7.33325 13.3335V11.3335C7.33325 10.5982 6.73525 10.0002 5.99992 10.0002ZM13.3333 7.3335H9.99992C9.26459 7.3335 8.66659 7.9315 8.66659 8.66683V13.3335C8.66659 14.0688 9.26459 14.6668 9.99992 14.6668H13.3333C14.0686 14.6668 14.6666 14.0688 14.6666 13.3335V8.66683C14.6666 7.9315 14.0686 7.3335 13.3333 7.3335Z" fill="#6A9586"/>
</svg>
