<svg width="16" height="16" viewBox="0 0 16 16" fill="none" xmlns="http://www.w3.org/2000/svg">
<path d="M6.00001 1.33301H2.66668C1.93134 1.33301 1.33334 1.93101 1.33334 2.66634V7.33301C1.33334 8.06834 1.93134 8.66634 2.66668 8.66634H6.00001C6.73534 8.66634 7.33334 8.06834 7.33334 7.33301V2.66634C7.33334 1.93101 6.73534 1.33301 6.00001 1.33301ZM13.3333 1.33301H10C9.26468 1.33301 8.66668 1.93101 8.66668 2.66634V4.66634C8.66668 5.40167 9.26468 5.99967 10 5.99967H13.3333C14.0687 5.99967 14.6667 5.40167 14.6667 4.66634V2.66634C14.6667 1.93101 14.0687 1.33301 13.3333 1.33301ZM6.00001 9.99967H2.66668C1.93134 9.99967 1.33334 10.5977 1.33334 11.333V13.333C1.33334 14.0683 1.93134 14.6663 2.66668 14.6663H6.00001C6.73534 14.6663 7.33334 14.0683 7.33334 13.333V11.333C7.33334 10.5977 6.73534 9.99967 6.00001 9.99967ZM13.3333 7.33301H10C9.26468 7.33301 8.66668 7.93101 8.66668 8.66634V13.333C8.66668 14.0683 9.26468 14.6663 10 14.6663H13.3333C14.0687 14.6663 14.6667 14.0683 14.6667 13.333V8.66634C14.6667 7.93101 14.0687 7.33301 13.3333 7.33301Z" fill="#B1CDBA"/>
</svg>
