<svg width="17" height="16" viewBox="0 0 17 16" fill="none" xmlns="http://www.w3.org/2000/svg">
<path d="M6.0518 1.33398H2.71847C1.98313 1.33398 1.38513 1.93198 1.38513 2.66732V7.33398C1.38513 8.06932 1.98313 8.66732 2.71847 8.66732H6.0518C6.78713 8.66732 7.38513 8.06932 7.38513 7.33398V2.66732C7.38513 1.93198 6.78713 1.33398 6.0518 1.33398ZM13.3851 1.33398H10.0518C9.31647 1.33398 8.71847 1.93198 8.71847 2.66732V4.66732C8.71847 5.40265 9.31647 6.00065 10.0518 6.00065H13.3851C14.1205 6.00065 14.7185 5.40265 14.7185 4.66732V2.66732C14.7185 1.93198 14.1205 1.33398 13.3851 1.33398ZM6.0518 10.0007H2.71847C1.98313 10.0007 1.38513 10.5987 1.38513 11.334V13.334C1.38513 14.0693 1.98313 14.6673 2.71847 14.6673H6.0518C6.78713 14.6673 7.38513 14.0693 7.38513 13.334V11.334C7.38513 10.5987 6.78713 10.0007 6.0518 10.0007ZM13.3851 7.33398H10.0518C9.31647 7.33398 8.71847 7.93198 8.71847 8.66732V13.334C8.71847 14.0693 9.31647 14.6673 10.0518 14.6673H13.3851C14.1205 14.6673 14.7185 14.0693 14.7185 13.334V8.66732C14.7185 7.93198 14.1205 7.33398 13.3851 7.33398Z" fill="#C7CBE0"/>
</svg>
