<svg width="16" height="16" viewBox="0 0 16 16" fill="none" xmlns="http://www.w3.org/2000/svg">
<path d="M6.99345 1.3335C6.67412 1.3335 6.40114 1.55923 6.33981 1.87256L6.11715 3.01579C5.56998 3.2227 5.06403 3.51177 4.61975 3.87646L3.5234 3.49886C3.2214 3.39486 2.88913 3.51974 2.72913 3.79574L1.72392 5.53792C1.56459 5.81459 1.62258 6.16583 1.86324 6.37516L2.74215 7.13949C2.69644 7.42039 2.66663 7.70635 2.66663 8.00016C2.66663 8.29397 2.69644 8.57994 2.74215 8.86084L1.86324 9.62516C1.62258 9.8345 1.56459 10.1857 1.72392 10.4624L2.72913 12.2046C2.88846 12.4813 3.2214 12.6061 3.5234 12.5028L4.61975 12.1252C5.06388 12.4896 5.57022 12.7777 6.11715 12.9845L6.33981 14.1278C6.40114 14.4411 6.67412 14.6668 6.99345 14.6668H9.00647C9.32581 14.6668 9.59878 14.4411 9.66012 14.1278L9.88277 12.9845C10.4299 12.7776 10.9359 12.4886 11.3802 12.1239L12.4765 12.5015C12.7785 12.6055 13.1108 12.4813 13.2708 12.2046L14.276 10.4611C14.4353 10.1844 14.3773 9.8345 14.1367 9.62516L13.2578 8.86084C13.3035 8.57994 13.3333 8.29397 13.3333 8.00016C13.3333 7.70635 13.3035 7.42039 13.2578 7.13949L14.1367 6.37516C14.3773 6.16583 14.4353 5.81459 14.276 5.53792L13.2708 3.79574C13.1115 3.51907 12.7785 3.39423 12.4765 3.49756L11.3802 3.87516C10.936 3.51069 10.4297 3.2226 9.88277 3.01579L9.66012 1.87256C9.59878 1.55923 9.32581 1.3335 9.00647 1.3335H6.99345ZM7.99996 5.3335C9.47263 5.3335 10.6666 6.5275 10.6666 8.00016C10.6666 9.47283 9.47263 10.6668 7.99996 10.6668C6.5273 10.6668 5.3333 9.47283 5.3333 8.00016C5.3333 6.5275 6.5273 5.3335 7.99996 5.3335Z" fill="#6A9586"/>
</svg>
