<svg width="16" height="16" viewBox="0 0 16 16" fill="none" xmlns="http://www.w3.org/2000/svg">
<path d="M6.99345 1.33398C6.67412 1.33398 6.40114 1.55971 6.33981 1.87305L6.11715 3.01628C5.56998 3.22319 5.06403 3.51225 4.61975 3.87695L3.5234 3.49935C3.2214 3.39535 2.88913 3.52022 2.72913 3.79622L1.72392 5.53841C1.56459 5.81508 1.62258 6.16632 1.86324 6.37565L2.74215 7.13997C2.69644 7.42088 2.66663 7.70684 2.66663 8.00065C2.66663 8.29446 2.69644 8.58043 2.74215 8.86133L1.86324 9.62565C1.62258 9.83498 1.56459 10.1862 1.72392 10.4629L2.72913 12.2051C2.88846 12.4817 3.2214 12.6066 3.5234 12.5033L4.61975 12.1257C5.06388 12.4901 5.57022 12.7782 6.11715 12.985L6.33981 14.1283C6.40114 14.4416 6.67412 14.6673 6.99345 14.6673H9.00647C9.32581 14.6673 9.59878 14.4416 9.66012 14.1283L9.88277 12.985C10.4299 12.7781 10.9359 12.489 11.3802 12.1243L12.4765 12.502C12.7785 12.606 13.1108 12.4817 13.2708 12.2051L14.276 10.4616C14.4353 10.1849 14.3773 9.83498 14.1367 9.62565L13.2578 8.86133C13.3035 8.58043 13.3333 8.29446 13.3333 8.00065C13.3333 7.70684 13.3035 7.42088 13.2578 7.13997L14.1367 6.37565C14.3773 6.16632 14.4353 5.81508 14.276 5.53841L13.2708 3.79622C13.1115 3.51956 12.7785 3.39471 12.4765 3.49805L11.3802 3.87565C10.936 3.51118 10.4297 3.22309 9.88277 3.01628L9.66012 1.87305C9.59878 1.55971 9.32581 1.33398 9.00647 1.33398H6.99345ZM7.99996 5.33398C9.47263 5.33398 10.6666 6.52798 10.6666 8.00065C10.6666 9.47332 9.47263 10.6673 7.99996 10.6673C6.5273 10.6673 5.3333 9.47332 5.3333 8.00065C5.3333 6.52798 6.5273 5.33398 7.99996 5.33398Z" fill="#CADCD6"/>
</svg>
