<svg width="16" height="16" viewBox="0 0 16 16" fill="none" xmlns="http://www.w3.org/2000/svg">
<path d="M6.99345 1.33301C6.67412 1.33301 6.40114 1.55874 6.33981 1.87207L6.11715 3.0153C5.56998 3.22221 5.06403 3.51128 4.61975 3.87598L3.5234 3.49837C3.2214 3.39437 2.88913 3.51925 2.72913 3.79525L1.72392 5.53744C1.56459 5.8141 1.62258 6.16534 1.86324 6.37467L2.74215 7.139C2.69644 7.4199 2.66663 7.70586 2.66663 7.99967C2.66663 8.29349 2.69644 8.57945 2.74215 8.86035L1.86324 9.62467C1.62258 9.83401 1.56459 10.1852 1.72392 10.4619L2.72913 12.2041C2.88846 12.4808 3.2214 12.6056 3.5234 12.5023L4.61975 12.1247C5.06388 12.4891 5.57022 12.7772 6.11715 12.984L6.33981 14.1273C6.40114 14.4406 6.67412 14.6663 6.99345 14.6663H9.00647C9.32581 14.6663 9.59878 14.4406 9.66012 14.1273L9.88277 12.984C10.4299 12.7771 10.9359 12.4881 11.3802 12.1234L12.4765 12.501C12.7785 12.605 13.1108 12.4808 13.2708 12.2041L14.276 10.4606C14.4353 10.1839 14.3773 9.83401 14.1367 9.62467L13.2578 8.86035C13.3035 8.57945 13.3333 8.29349 13.3333 7.99967C13.3333 7.70586 13.3035 7.4199 13.2578 7.139L14.1367 6.37467C14.3773 6.16534 14.4353 5.8141 14.276 5.53744L13.2708 3.79525C13.1115 3.51858 12.7785 3.39374 12.4765 3.49707L11.3802 3.87467C10.936 3.5102 10.4297 3.22212 9.88277 3.0153L9.66012 1.87207C9.59878 1.55874 9.32581 1.33301 9.00647 1.33301H6.99345ZM7.99996 5.33301C9.47263 5.33301 10.6666 6.52701 10.6666 7.99967C10.6666 9.47234 9.47263 10.6663 7.99996 10.6663C6.5273 10.6663 5.3333 9.47234 5.3333 7.99967C5.3333 6.52701 6.5273 5.33301 7.99996 5.33301Z" fill="#C7CBE0"/>
</svg>
