<svg width="16" height="16" viewBox="0 0 16 16" fill="none" xmlns="http://www.w3.org/2000/svg">
<path d="M6.99348 1.33301C6.67415 1.33301 6.40117 1.55874 6.33984 1.87207L6.11718 3.0153C5.57001 3.22221 5.06406 3.51128 4.61978 3.87598L3.52343 3.49837C3.22143 3.39437 2.88916 3.51925 2.72916 3.79525L1.72395 5.53744C1.56462 5.8141 1.62261 6.16534 1.86327 6.37467L2.74218 7.139C2.69647 7.4199 2.66666 7.70586 2.66666 7.99967C2.66666 8.29349 2.69647 8.57945 2.74218 8.86035L1.86327 9.62467C1.62261 9.83401 1.56462 10.1852 1.72395 10.4619L2.72916 12.2041C2.88849 12.4808 3.22143 12.6056 3.52343 12.5023L4.61978 12.1247C5.06392 12.4891 5.57026 12.7772 6.11718 12.984L6.33984 14.1273C6.40117 14.4406 6.67415 14.6663 6.99348 14.6663H9.0065C9.32584 14.6663 9.59882 14.4406 9.66015 14.1273L9.8828 12.984C10.43 12.7771 10.9359 12.4881 11.3802 12.1234L12.4766 12.501C12.7786 12.605 13.1108 12.4808 13.2708 12.2041L14.276 10.4606C14.4354 10.1839 14.3774 9.83401 14.1367 9.62467L13.2578 8.86035C13.3035 8.57945 13.3333 8.29349 13.3333 7.99967C13.3333 7.70586 13.3035 7.4199 13.2578 7.139L14.1367 6.37467C14.3774 6.16534 14.4354 5.8141 14.276 5.53744L13.2708 3.79525C13.1115 3.51858 12.7786 3.39374 12.4766 3.49707L11.3802 3.87467C10.9361 3.5102 10.4297 3.22212 9.8828 3.0153L9.66015 1.87207C9.59882 1.55874 9.32584 1.33301 9.0065 1.33301H6.99348ZM7.99999 5.33301C9.47266 5.33301 10.6667 6.52701 10.6667 7.99967C10.6667 9.47234 9.47266 10.6663 7.99999 10.6663C6.52733 10.6663 5.33333 9.47234 5.33333 7.99967C5.33333 6.52701 6.52733 5.33301 7.99999 5.33301Z" fill="#707FDA"/>
</svg>
