<svg width="16" height="17" viewBox="0 0 16 17" fill="none" xmlns="http://www.w3.org/2000/svg">
<path d="M15.6961 4.89466C15.6961 4.89466 15.7958 1.69727 14.707 1.69727C13.748 1.69727 13.5321 2.84372 13.5321 4.89466H15.6961Z" fill="#707FDA"/>
<path fill-rule="evenodd" clip-rule="evenodd" d="M13.6728 1.69727C13.6728 1.69727 4.59096 1.69948 3.20404 1.69948C1.81892 1.97512 1.81892 3.19213 1.81892 4.72227V12.8867C1.81892 15.4384 0.302734 15.8174 0.302734 15.8174H11.3981C12.9143 15.8174 12.9143 14.5179 12.9143 12.6229V4.72227V4.05036C12.9143 2.70452 13.125 2.05822 13.6728 1.69727ZM11.0979 5.23077H3.70094V6.23836H11.0979V5.23077ZM3.70094 8.25354H11.0979V9.26113H3.70094V8.25354ZM11.0979 11.2763H3.70094V12.2839H11.0979V11.2763Z" fill="#707FDA"/>
</svg>
