<svg width="16" height="16" viewBox="0 0 16 16" fill="none" xmlns="http://www.w3.org/2000/svg">
<path d="M15.6955 4.13685C15.6955 4.13685 15.7952 0.939453 14.7064 0.939453C13.7473 0.939453 13.5315 2.08591 13.5315 4.13685H15.6955Z" fill="#CADCD6"/>
<path fill-rule="evenodd" clip-rule="evenodd" d="M13.6722 0.939453C13.6722 0.939453 4.59035 0.941671 3.20343 0.941667C1.81831 1.2173 1.81831 2.43432 1.81831 3.96446V12.1289C1.81831 14.6806 0.302124 15.0596 0.302124 15.0596H11.3975C12.9137 15.0596 12.9137 13.7601 12.9137 11.8651V3.96446V3.29254C12.9137 1.94671 13.1244 1.30041 13.6722 0.939453ZM11.0972 4.47296H3.70033V5.48055H11.0972V4.47296ZM3.70033 7.49573H11.0972V8.50332H3.70033V7.49573ZM11.0972 10.5185H3.70033V11.5261H11.0972V10.5185Z" fill="#CADCD6"/>
</svg>
