<svg width="16" height="16" viewBox="0 0 16 16" fill="none" xmlns="http://www.w3.org/2000/svg">
<path d="M15.6956 4.13734C15.6956 4.13734 15.7953 0.939941 14.7065 0.939941C13.7475 0.939941 13.5316 2.0864 13.5316 4.13734H15.6956Z" fill="#6A9586"/>
<path fill-rule="evenodd" clip-rule="evenodd" d="M13.6723 0.939941C13.6723 0.939941 4.59047 0.942159 3.20355 0.942155C1.81843 1.21779 1.81844 2.43481 1.81844 3.96495V12.1294C1.81844 14.6811 0.302246 15.0601 0.302246 15.0601H11.3976C12.9138 15.0601 12.9138 13.7606 12.9138 11.8656V3.96495V3.29303C12.9138 1.94719 13.1246 1.3009 13.6723 0.939941ZM11.0974 4.47345H3.70045V5.48104H11.0974V4.47345ZM3.70045 7.49622H11.0974V8.5038H3.70045V7.49622ZM11.0974 10.519H3.70045V11.5266H11.0974V10.519Z" fill="#6A9586"/>
</svg>
