<svg width="16" height="16" viewBox="0 0 16 16" fill="none" xmlns="http://www.w3.org/2000/svg">
<path d="M8 1.33326C7.89527 1.33622 7.7927 1.36381 7.70063 1.41381C7.60856 1.4638 7.52956 1.53479 7.47005 1.62102L4.44531 5.99993H1.33463C0.893966 5.99993 0.57407 6.41901 0.691403 6.84368L2.39843 13.0208C2.55777 13.5988 3.08296 13.9999 3.68229 13.9999H12.3177C12.917 13.9999 13.4429 13.5988 13.6029 13.0208L15.3099 6.84368C15.4266 6.41901 15.106 5.99993 14.6654 5.99993H11.5586L8.56901 1.62363C8.50605 1.53147 8.42096 1.45659 8.32154 1.40586C8.22213 1.35513 8.11157 1.33017 8 1.33326ZM8.01562 3.17701L9.94401 5.99993H6.0651L8.01562 3.17701ZM10.1953 7.80462C10.366 7.80462 10.5367 7.86993 10.6667 7.99993C10.9267 8.25993 10.9267 8.68264 10.6667 8.94264L7.80468 11.8046C7.54468 12.0646 7.12198 12.0646 6.86198 11.8046L5.33333 10.276C5.07333 10.016 5.07333 9.59326 5.33333 9.33326C5.59333 9.07326 6.01604 9.07326 6.27604 9.33326L7.33333 10.3906L9.72396 7.99993C9.85396 7.86993 10.0246 7.80462 10.1953 7.80462Z" fill="#C7CBE0"/>
</svg>
