<svg width="16" height="16" viewBox="0 0 16 16" fill="none" xmlns="http://www.w3.org/2000/svg">
<path d="M8 1.33333C7.89527 1.33629 7.7927 1.36388 7.70063 1.41388C7.60856 1.46387 7.52956 1.53486 7.47005 1.62109L4.44531 6H1.33463C0.893966 6 0.57407 6.41908 0.691403 6.84375L2.39843 13.0208C2.55777 13.5988 3.08296 14 3.68229 14H12.3177C12.917 14 13.4429 13.5988 13.6029 13.0208L15.3099 6.84375C15.4266 6.41908 15.106 6 14.6654 6H11.5586L8.56901 1.6237C8.50605 1.53154 8.42096 1.45666 8.32154 1.40593C8.22213 1.3552 8.11157 1.33024 8 1.33333V1.33333ZM8.01562 3.17708L9.94401 6H6.0651L8.01562 3.17708ZM10.1953 7.80469C10.366 7.80469 10.5367 7.87 10.6667 8C10.9267 8.26 10.9267 8.68271 10.6667 8.94271L7.80468 11.8047C7.54468 12.0647 7.12198 12.0647 6.86198 11.8047L5.33333 10.276C5.07333 10.016 5.07333 9.59333 5.33333 9.33333C5.59333 9.07333 6.01604 9.07333 6.27604 9.33333L7.33333 10.3906L9.72396 8C9.85396 7.87 10.0246 7.80469 10.1953 7.80469Z" fill="#707FDA"/>
</svg>
