<svg width="16" height="16" viewBox="0 0 16 16" fill="none" xmlns="http://www.w3.org/2000/svg">
<path d="M7.99999 0.666992C5.78412 0.666992 3.99999 2.45112 3.99999 4.66699V5.33366C3.26666 5.33366 2.66666 5.93366 2.66666 6.66699V13.3337C2.66666 14.067 3.26666 14.667 3.99999 14.667H12C12.7333 14.667 13.3333 14.067 13.3333 13.3337V6.66699C13.3333 5.93366 12.7333 5.33366 12 5.33366V4.66699C12 2.45112 10.2159 0.666992 7.99999 0.666992ZM7.99999 2.00033C9.51745 2.00033 10.6667 3.14953 10.6667 4.66699V5.33366H5.33332V4.66699C5.33332 3.14953 6.48253 2.00033 7.99999 2.00033ZM5.33332 9.33366C5.69999 9.33366 5.99999 9.63366 5.99999 10.0003C5.99999 10.367 5.69999 10.667 5.33332 10.667C4.96666 10.667 4.66666 10.367 4.66666 10.0003C4.66666 9.63366 4.96666 9.33366 5.33332 9.33366ZM7.99999 9.33366C8.36666 9.33366 8.66666 9.63366 8.66666 10.0003C8.66666 10.367 8.36666 10.667 7.99999 10.667C7.63332 10.667 7.33332 10.367 7.33332 10.0003C7.33332 9.63366 7.63332 9.33366 7.99999 9.33366ZM10.6667 9.33366C11.0333 9.33366 11.3333 9.63366 11.3333 10.0003C11.3333 10.367 11.0333 10.667 10.6667 10.667C10.3 10.667 9.99999 10.367 9.99999 10.0003C9.99999 9.63366 10.3 9.33366 10.6667 9.33366Z" fill="#C7CBE0"/>
</svg>
