<svg width="16" height="16" viewBox="0 0 16 16" fill="none" xmlns="http://www.w3.org/2000/svg">
<path d="M8.00008 0.666504C5.78421 0.666504 4.00008 2.45063 4.00008 4.6665V5.33317C3.26675 5.33317 2.66675 5.93317 2.66675 6.6665V13.3332C2.66675 14.0665 3.26675 14.6665 4.00008 14.6665H12.0001C12.7334 14.6665 13.3334 14.0665 13.3334 13.3332V6.6665C13.3334 5.93317 12.7334 5.33317 12.0001 5.33317V4.6665C12.0001 2.45063 10.216 0.666504 8.00008 0.666504ZM8.00008 1.99984C9.51754 1.99984 10.6667 3.14904 10.6667 4.6665V5.33317H5.33341V4.6665C5.33341 3.14904 6.48262 1.99984 8.00008 1.99984ZM5.33341 9.33317C5.70008 9.33317 6.00008 9.63317 6.00008 9.99984C6.00008 10.3665 5.70008 10.6665 5.33341 10.6665C4.96675 10.6665 4.66675 10.3665 4.66675 9.99984C4.66675 9.63317 4.96675 9.33317 5.33341 9.33317ZM8.00008 9.33317C8.36675 9.33317 8.66675 9.63317 8.66675 9.99984C8.66675 10.3665 8.36675 10.6665 8.00008 10.6665C7.63341 10.6665 7.33341 10.3665 7.33341 9.99984C7.33341 9.63317 7.63341 9.33317 8.00008 9.33317ZM10.6667 9.33317C11.0334 9.33317 11.3334 9.63317 11.3334 9.99984C11.3334 10.3665 11.0334 10.6665 10.6667 10.6665C10.3001 10.6665 10.0001 10.3665 10.0001 9.99984C10.0001 9.63317 10.3001 9.33317 10.6667 9.33317Z" fill="#6A9586"/>
</svg>
