<svg width="16" height="16" viewBox="0 0 16 16" fill="none" xmlns="http://www.w3.org/2000/svg">
<path d="M7.99996 0.666992C5.78409 0.666992 3.99996 2.45112 3.99996 4.66699V5.33366C3.26663 5.33366 2.66663 5.93366 2.66663 6.66699V13.3337C2.66663 14.067 3.26663 14.667 3.99996 14.667H12C12.7333 14.667 13.3333 14.067 13.3333 13.3337V6.66699C13.3333 5.93366 12.7333 5.33366 12 5.33366V4.66699C12 2.45112 10.2158 0.666992 7.99996 0.666992ZM7.99996 2.00033C9.51742 2.00033 10.6666 3.14953 10.6666 4.66699V5.33366H5.33329V4.66699C5.33329 3.14953 6.4825 2.00033 7.99996 2.00033ZM5.33329 9.33366C5.69996 9.33366 5.99996 9.63366 5.99996 10.0003C5.99996 10.367 5.69996 10.667 5.33329 10.667C4.96663 10.667 4.66663 10.367 4.66663 10.0003C4.66663 9.63366 4.96663 9.33366 5.33329 9.33366ZM7.99996 9.33366C8.36663 9.33366 8.66663 9.63366 8.66663 10.0003C8.66663 10.367 8.36663 10.667 7.99996 10.667C7.63329 10.667 7.33329 10.367 7.33329 10.0003C7.33329 9.63366 7.63329 9.33366 7.99996 9.33366ZM10.6666 9.33366C11.0333 9.33366 11.3333 9.63366 11.3333 10.0003C11.3333 10.367 11.0333 10.667 10.6666 10.667C10.3 10.667 9.99996 10.367 9.99996 10.0003C9.99996 9.63366 10.3 9.33366 10.6666 9.33366Z" fill="#707FDA"/>
</svg>
