<svg width="16" height="16" viewBox="0 0 16 16" fill="none" xmlns="http://www.w3.org/2000/svg">
<path d="M6.66666 2.66699C5.92999 2.66699 5.33332 3.26366 5.33332 4.00033V4.66699H14.6667V4.00033C14.6667 3.26366 14.07 2.66699 13.3333 2.66699H6.66666ZM3.99999 5.33366L1.23957 7.25163C0.880907 7.50029 0.666656 7.90871 0.666656 8.34538V12.667C0.666656 13.4037 1.26332 14.0003 1.99999 14.0003H5.72134C6.46801 14.0003 7.16542 13.6269 7.57942 13.0055L9.8203 10.4834C10.075 10.1314 10.0662 9.65352 9.79817 9.31152L9.31249 8.68783L5.73567 10.9183C4.979 11.3896 3.99999 10.8454 3.99999 9.95475V5.33366ZM5.33332 6.00033V8.66699C5.33332 8.95633 5.42796 9.22176 5.58463 9.44043L8.60676 7.55762L9.62499 6.9222L10.3633 7.86751L10.8503 8.48991C11.1929 8.92858 11.3481 9.46569 11.3281 9.99902H13.3333C14.07 9.99902 14.6667 9.40236 14.6667 8.66569V6.00033H5.33332Z" fill="#C7CBE0"/>
</svg>
