<svg width="16" height="16" viewBox="0 0 16 16" fill="none" xmlns="http://www.w3.org/2000/svg">
<path d="M6.66675 2.66699C5.93008 2.66699 5.33342 3.26366 5.33342 4.00033V4.66699H14.6667V4.00033C14.6667 3.26366 14.0701 2.66699 13.3334 2.66699H6.66675ZM4.00008 5.33366L1.23966 7.25163C0.880998 7.50029 0.666748 7.90871 0.666748 8.34538V12.667C0.666748 13.4037 1.26341 14.0003 2.00008 14.0003H5.72144C6.4681 14.0003 7.16551 13.6269 7.57951 13.0055L9.82039 10.4834C10.0751 10.1314 10.0663 9.65352 9.79826 9.31152L9.31258 8.68783L5.73576 10.9183C4.97909 11.3896 4.00008 10.8454 4.00008 9.95475V5.33366ZM5.33342 6.00033V8.66699C5.33342 8.95633 5.42805 9.22176 5.58472 9.44043L8.60685 7.55762L9.62508 6.9222L10.3634 7.86751L10.8503 8.48991C11.193 8.92858 11.3482 9.46569 11.3282 9.99902H13.3334C14.0701 9.99902 14.6667 9.40236 14.6667 8.66569V6.00033H5.33342Z" fill="#707FDA"/>
</svg>
