<svg width="16" height="16" viewBox="0 0 16 16" fill="none" xmlns="http://www.w3.org/2000/svg">
<path d="M6.66663 2.66602C5.92996 2.66602 5.33329 3.26268 5.33329 3.99935V4.66602H14.6666V3.99935C14.6666 3.26268 14.07 2.66602 13.3333 2.66602H6.66663ZM3.99996 5.33268L1.23954 7.25065C0.880876 7.49932 0.666626 7.90773 0.666626 8.3444V12.666C0.666626 13.4027 1.26329 13.9993 1.99996 13.9993H5.72131C6.46798 13.9993 7.16539 13.6259 7.57939 13.0046L9.82027 10.4824C10.0749 10.1304 10.0661 9.65255 9.79814 9.31055L9.31246 8.68685L5.73564 10.9173C4.97897 11.3887 3.99996 10.8444 3.99996 9.95378V5.33268ZM5.33329 5.99935V8.66602C5.33329 8.95535 5.42793 9.22079 5.58459 9.43945L8.60673 7.55664L9.62496 6.92122L10.3632 7.86654L10.8502 8.48893C11.1929 8.9276 11.3481 9.46471 11.3281 9.99805H13.3333C14.07 9.99805 14.6666 9.40138 14.6666 8.66471V5.99935H5.33329Z" fill="#CADCD6"/>
</svg>
