<svg width="16" height="16" viewBox="0 0 16 16" fill="none" xmlns="http://www.w3.org/2000/svg">
<path d="M6.66675 2.6665C5.93008 2.6665 5.33342 3.26317 5.33342 3.99984V4.6665H14.6667V3.99984C14.6667 3.26317 14.0701 2.6665 13.3334 2.6665H6.66675ZM4.00008 5.33317L1.23966 7.25114C0.880998 7.49981 0.666748 7.90822 0.666748 8.34489V12.6665C0.666748 13.4032 1.26341 13.9998 2.00008 13.9998H5.72144C6.4681 13.9998 7.16551 13.6264 7.57951 13.005L9.82039 10.4829C10.0751 10.1309 10.0663 9.65303 9.79826 9.31103L9.31258 8.68734L5.73576 10.9178C4.97909 11.3891 4.00008 10.8449 4.00008 9.95426V5.33317ZM5.33342 5.99984V8.6665C5.33342 8.95584 5.42805 9.22127 5.58472 9.43994L8.60685 7.55713L9.62508 6.92171L10.3634 7.86702L10.8503 8.48942C11.193 8.92809 11.3482 9.4652 11.3282 9.99853H13.3334C14.0701 9.99853 14.6667 9.40187 14.6667 8.6652V5.99984H5.33342Z" fill="#6A9586"/>
</svg>
