<svg width="17" height="16" viewBox="0 0 17 16" fill="none" xmlns="http://www.w3.org/2000/svg">
<path d="M12.7184 2H3.38509C2.64842 2 2.05176 2.59667 2.05176 3.33333V12.6667C2.05176 13.4033 2.64842 14 3.38509 14H12.7184C13.4551 14 14.0518 13.4033 14.0518 12.6667V3.33333C14.0518 2.59667 13.4551 2 12.7184 2ZM10.7184 11.3333H5.38509C5.01709 11.3333 4.71842 11.0347 4.71842 10.6667C4.71842 10.2987 5.01709 10 5.38509 10H10.7184C11.0864 10 11.3851 10.2987 11.3851 10.6667C11.3851 11.0347 11.0864 11.3333 10.7184 11.3333ZM10.7184 8.66667H5.38509C5.01709 8.66667 4.71842 8.368 4.71842 8C4.71842 7.632 5.01709 7.33333 5.38509 7.33333H10.7184C11.0864 7.33333 11.3851 7.632 11.3851 8C11.3851 8.368 11.0864 8.66667 10.7184 8.66667ZM10.7184 6H5.38509C5.01709 6 4.71842 5.70133 4.71842 5.33333C4.71842 4.96533 5.01709 4.66667 5.38509 4.66667H10.7184C11.0864 4.66667 11.3851 4.96533 11.3851 5.33333C11.3851 5.70133 11.0864 6 10.7184 6Z" fill="#707FDA"/>
</svg>
