<svg width="17" height="16" viewBox="0 0 17 16" fill="none" xmlns="http://www.w3.org/2000/svg">
<g clip-path="url(#clip0)">
<path d="M8.85179 0C8.47498 0 8.16031 0.288063 8.12991 0.664062L8.11741 0.815625C8.11521 0.842007 8.12617 0.864784 8.12678 0.890625C7.49985 1.03641 6.94743 1.36458 6.52209 1.81875C6.49974 1.80512 6.48542 1.78328 6.46115 1.77188L6.32521 1.70781C5.98441 1.54701 5.57651 1.6736 5.38771 2C5.19891 2.3264 5.29217 2.74185 5.60178 2.95625L5.72678 3.04375C5.75073 3.06034 5.77828 3.06323 5.80334 3.07656C5.71417 3.37073 5.65178 3.67673 5.65178 4C5.65178 4.32327 5.71417 4.62927 5.80334 4.92344C5.77828 4.93676 5.75073 4.93966 5.72678 4.95625L5.60178 5.04219C5.29217 5.25739 5.19891 5.6736 5.38771 6C5.57651 6.3264 5.98441 6.45299 6.32521 6.29219L6.46115 6.22813C6.48535 6.21671 6.49981 6.19487 6.52209 6.18125C6.9471 6.63506 7.49889 6.96342 8.12522 7.10938C8.12457 7.13522 8.1137 7.15799 8.11585 7.18438L8.12991 7.33594C8.16111 7.71194 8.47498 8 8.85179 8C9.22859 8 9.54326 7.71194 9.57366 7.33594L9.58616 7.18438C9.58836 7.15799 9.5774 7.13522 9.57679 7.10938C10.2037 6.96359 10.7561 6.63542 11.1815 6.18125C11.2038 6.19493 11.2181 6.21667 11.2424 6.22813L11.3784 6.29375C11.7192 6.45455 12.1271 6.32796 12.3159 6.00156C12.5047 5.67516 12.4114 5.25895 12.1018 5.04375L11.9768 4.95625C11.9528 4.93966 11.9253 4.93677 11.9002 4.92344C11.9894 4.62927 12.0518 4.32327 12.0518 4C12.0518 3.67673 11.9894 3.37073 11.9002 3.07656C11.9253 3.06324 11.9528 3.06034 11.9768 3.04375L12.1018 2.95781C12.4114 2.74261 12.5047 2.3264 12.3159 2C12.1271 1.6736 11.7192 1.54701 11.3784 1.70781L11.2424 1.77188C11.2182 1.78329 11.2038 1.80513 11.1815 1.81875C10.7565 1.36494 10.2047 1.03658 9.57835 0.890625C9.579 0.864784 9.58987 0.842007 9.58773 0.815625L9.57366 0.664062C9.54246 0.288063 9.22859 0 8.85179 0ZM8.85179 2.8C9.51419 2.8 10.0518 3.3376 10.0518 4C10.0518 4.6624 9.51419 5.2 8.85179 5.2C8.18938 5.2 7.65178 4.6624 7.65178 4C7.65178 3.3376 8.18938 2.8 8.85179 2.8ZM14.9206 8C14.631 8 14.3414 8.11045 14.1206 8.33125L10.4518 12H7.25178C7.03098 12 6.85178 11.8208 6.85178 11.6C6.85178 11.3792 7.03098 11.2 7.25178 11.2H9.25179C9.91179 11.2 10.4518 10.66 10.4518 10C10.4518 9.34 9.91179 8.8 9.25179 8.8H5.37677C4.52877 8.8 3.71583 9.1375 3.11583 9.7375L0.0517578 12.8L3.25177 16L4.85177 14.4H10.5893C11.0133 14.4 11.4205 14.2312 11.7205 13.9313L15.7206 9.93125C16.1622 9.48965 16.1622 8.77285 15.7206 8.33125C15.4998 8.11045 15.2102 8 14.9206 8Z" fill="#707FDA"/>
</g>
<defs>
<clipPath id="clip0">
<rect width="16" height="16" fill="white" transform="translate(0.0517578)"/>
</clipPath>
</defs>
</svg>
