<svg width="16" height="18" viewBox="0 0 16 18" fill="none" xmlns="http://www.w3.org/2000/svg">
<path d="M12.6668 5.66667C13.9555 5.66667 15.0002 4.622 15.0002 3.33333C15.0002 2.04467 13.9555 1 12.6668 1C11.3782 1 10.3335 2.04467 10.3335 3.33333C10.3335 4.622 11.3782 5.66667 12.6668 5.66667Z" stroke="#6A9586" stroke-width="2"/>
<path d="M12.6668 16.5553C13.9555 16.5553 15.0002 15.5107 15.0002 14.222C15.0002 12.9333 13.9555 11.8887 12.6668 11.8887C11.3782 11.8887 10.3335 12.9333 10.3335 14.222C10.3335 15.5107 11.3782 16.5553 12.6668 16.5553Z" stroke="#6A9586" stroke-width="2"/>
<path d="M3.33333 11.111C4.622 11.111 5.66667 10.0663 5.66667 8.77767C5.66667 7.489 4.622 6.44434 3.33333 6.44434C2.04467 6.44434 1 7.489 1 8.77767C1 10.0663 2.04467 11.111 3.33333 11.111Z" stroke="#6A9586" stroke-width="2"/>
<path d="M10.6509 13.0462L5.35107 9.9545M10.6509 4.50928L5.35107 7.60094L10.6509 4.50928Z" stroke="#6A9586" stroke-width="2" stroke-linecap="round" stroke-linejoin="round"/>
</svg>
