<svg width="16" height="18" viewBox="0 0 16 18" fill="none" xmlns="http://www.w3.org/2000/svg">
<path d="M12.6667 5.66667C13.9554 5.66667 15 4.622 15 3.33333C15 2.04467 13.9554 1 12.6667 1C11.378 1 10.3334 2.04467 10.3334 3.33333C10.3334 4.622 11.378 5.66667 12.6667 5.66667Z" stroke="#CADCD6" stroke-width="2"/>
<path d="M12.6667 16.5553C13.9554 16.5553 15 15.5107 15 14.222C15 12.9333 13.9554 11.8887 12.6667 11.8887C11.378 11.8887 10.3334 12.9333 10.3334 14.222C10.3334 15.5107 11.378 16.5553 12.6667 16.5553Z" stroke="#CADCD6" stroke-width="2"/>
<path d="M3.33333 11.112C4.622 11.112 5.66667 10.0673 5.66667 8.77865C5.66667 7.48998 4.622 6.44531 3.33333 6.44531C2.04467 6.44531 1 7.48998 1 8.77865C1 10.0673 2.04467 11.112 3.33333 11.112Z" stroke="#CADCD6" stroke-width="2"/>
<path d="M10.6506 13.0467L5.35083 9.95499M10.6506 4.50977L5.35083 7.60143L10.6506 4.50977Z" stroke="#CADCD6" stroke-width="2" stroke-linecap="round" stroke-linejoin="round"/>
</svg>
