<svg width="21" height="21" viewBox="0 0 21 21" fill="none" xmlns="http://www.w3.org/2000/svg">
<path d="M3.23077 5.6543V15.8081H17.7362V5.6543H3.23077ZM6.85714 14.3576C6.85714 13.7805 6.6279 13.2271 6.21986 12.819C5.81181 12.411 5.25838 12.1818 4.68132 12.1818V9.28067C5.25838 9.28067 5.81181 9.05143 6.21986 8.64338C6.6279 8.23534 6.85714 7.68191 6.85714 7.10484H14.1099C14.1099 7.68191 14.3391 8.23534 14.7472 8.64338C15.1552 9.05143 15.7086 9.28067 16.2857 9.28067V12.1818C15.7086 12.1818 15.1552 12.411 14.7472 12.819C14.3391 13.2271 14.1099 13.7805 14.1099 14.3576H6.85714ZM10.4835 8.55539C11.2813 8.55539 11.9341 9.49825 11.9341 10.7312C11.9341 11.9642 11.2813 12.907 10.4835 12.907C9.68571 12.907 9.03296 11.9642 9.03296 10.7312C9.03296 9.49825 9.68571 8.55539 10.4835 8.55539Z" fill="#C7CBE0"/>
</svg>
