<svg width="21" height="21" viewBox="0 0 21 21" fill="none" xmlns="http://www.w3.org/2000/svg">
<path d="M3.23096 5.6543V15.8081H17.7364V5.6543H3.23096ZM6.85733 14.3576C6.85733 13.7805 6.62809 13.2271 6.22004 12.819C5.812 12.411 5.25857 12.1818 4.6815 12.1818V9.28067C5.25857 9.28067 5.812 9.05143 6.22004 8.64338C6.62809 8.23534 6.85733 7.68191 6.85733 7.10484H14.1101C14.1101 7.68191 14.3393 8.23534 14.7473 8.64338C15.1554 9.05143 15.7088 9.28067 16.2859 9.28067V12.1818C15.7088 12.1818 15.1554 12.411 14.7473 12.819C14.3393 13.2271 14.1101 13.7805 14.1101 14.3576H6.85733ZM10.4837 8.55539C11.2815 8.55539 11.9342 9.49825 11.9342 10.7312C11.9342 11.9642 11.2815 12.907 10.4837 12.907C9.68589 12.907 9.03315 11.9642 9.03315 10.7312C9.03315 9.49825 9.68589 8.55539 10.4837 8.55539Z" fill="#707FDA"/>
</svg>
