<svg width="16" height="16" viewBox="0 0 16 16" fill="none" xmlns="http://www.w3.org/2000/svg">
<path d="M6.66666 2.66675C5.92999 2.66675 5.33332 3.26341 5.33332 4.00008V4.66675H14.6667V4.00008C14.6667 3.26341 14.07 2.66675 13.3333 2.66675H6.66666ZM3.99999 5.33341L1.23957 7.25138C0.880907 7.50005 0.666656 7.90847 0.666656 8.34513V12.6667C0.666656 13.4034 1.26332 14.0001 1.99999 14.0001H5.72134C6.46801 14.0001 7.16542 13.6266 7.57942 13.0053L9.8203 10.4832C10.075 10.1312 10.0662 9.65328 9.79817 9.31128L9.31249 8.68758L5.73567 10.918C4.979 11.3894 3.99999 10.8452 3.99999 9.95451V5.33341ZM5.33332 6.00008V8.66675C5.33332 8.95608 5.42796 9.22152 5.58463 9.44019L8.60676 7.55737L9.62499 6.92196L10.3633 7.86727L10.8503 8.48966C11.1929 8.92833 11.3481 9.46545 11.3281 9.99878H13.3333C14.07 9.99878 14.6667 9.40211 14.6667 8.66545V6.00008H5.33332Z" fill="#B1CDBA"/>
</svg>
