<svg width="60" height="60" viewBox="0 0 60 60" fill="none" xmlns="http://www.w3.org/2000/svg">
<rect width="60" height="60" rx="30" fill="#F0F9F6"/>
<path fill-rule="evenodd" clip-rule="evenodd" d="M30 42.5002C23.1 42.5002 17.5 36.9127 17.5 30.0002C17.5 23.1002 23.1 17.5002 30 17.5002C36.9125 17.5002 42.5 23.1002 42.5 30.0002C42.5 36.9127 36.9125 42.5002 30 42.5002ZM33.9875 34.6377C34.1375 34.7252 34.3 34.7752 34.475 34.7752C34.7875 34.7752 35.1 34.6127 35.275 34.3127C35.5375 33.8752 35.4 33.3002 34.95 33.0252L30.5 30.3752V24.6002C30.5 24.0752 30.075 23.6627 29.5625 23.6627C29.05 23.6627 28.625 24.0752 28.625 24.6002V30.9127C28.625 31.2377 28.8 31.5377 29.0875 31.7127L33.9875 34.6377Z" fill="#6A9586"/>
</svg>
