<svg width="1060" height="90" viewBox="0 0 1060 90" fill="none" xmlns="http://www.w3.org/2000/svg">
<g opacity="0.8">
<mask id="mask0" mask-type="alpha" maskUnits="userSpaceOnUse" x="0" y="0" width="1060" height="100">
<rect y="100" width="100" height="1060" transform="rotate(-90 0 100)" fill="#707FDA"/>
</mask>
<g mask="url(#mask0)">
<path opacity="0.1" d="M310.313 144.087L267.79 144.952L100.973 133.503L35.2526 96.7051L292.409 61.5822C333.582 55.9588 383.602 53.7626 440.219 55.0927L674.401 60.5941C806.373 63.6944 915.431 54.8885 991.463 34.9928L1124.04 0.301627L1186.99 123.552L310.313 144.087Z" fill="#9CC6B7"/>
<path opacity="0.2" d="M171.895 115.499L130.136 115.142L-7.88136 103.208L-6.12551 75.594L372.068 51.9308L911.932 76.2729C996.005 80.0637 1073.67 70.7173 1141.21 48.6803L1192.19 32.045L1037.53 120.946L171.895 115.499Z" fill="#9CC6B7"/>
<g opacity="0.15">
<path d="M169.5 125.15L128.451 124.835L-6.97413 113.694L-4.6248 87.7597L396.589 75.9202L687.68 31.1321C737.014 23.5414 789.926 21.5096 845.325 25.0785L1174.51 46.2845L1020.44 129.848L169.5 125.15Z" fill="#9CC6B7" style="mix-blend-mode:overlay"/>
</g>
</g>
</g>
</svg>
