<svg width="100" height="100" viewBox="0 0 100 100" fill="none" xmlns="http://www.w3.org/2000/svg">
<rect width="100" height="100" rx="50" fill="#F6F7FC"/>
<circle cx="50" cy="50" r="30" fill="#707FDA"/>
<path d="M41.0021 48.8704C39.9076 47.6266 38.0119 47.5056 36.7681 48.6001C35.5243 49.6947 35.4033 51.5903 36.4979 52.8342L41.0021 48.8704ZM46.25 59.375L43.9979 61.3569C44.5836 62.0225 45.4339 62.395 46.3204 62.3742C47.2068 62.3534 48.0387 61.9415 48.5926 61.2491L46.25 59.375ZM63.5926 42.4991C64.6276 41.2053 64.4179 39.3174 63.1241 38.2824C61.8303 37.2474 59.9424 37.4571 58.9074 38.7509L63.5926 42.4991ZM36.4979 52.8342L43.9979 61.3569L48.5021 57.3931L41.0021 48.8704L36.4979 52.8342ZM48.5926 61.2491L63.5926 42.4991L58.9074 38.7509L43.9074 57.5009L48.5926 61.2491Z" fill="white"/>
</svg>
