<svg width="16" height="16" viewBox="0 0 16 16" fill="none" xmlns="http://www.w3.org/2000/svg">
<path d="M6.66663 2.66675C5.92996 2.66675 5.33329 3.26341 5.33329 4.00008V4.66675H14.6666V4.00008C14.6666 3.26341 14.07 2.66675 13.3333 2.66675H6.66663ZM3.99996 5.33341L1.23954 7.25138C0.880876 7.50005 0.666626 7.90847 0.666626 8.34513V12.6667C0.666626 13.4034 1.26329 14.0001 1.99996 14.0001H5.72131C6.46798 14.0001 7.16539 13.6266 7.57939 13.0053L9.82027 10.4832C10.0749 10.1312 10.0661 9.65328 9.79814 9.31128L9.31246 8.68758L5.73564 10.918C4.97897 11.3894 3.99996 10.8452 3.99996 9.95451V5.33341ZM5.33329 6.00008V8.66675C5.33329 8.95608 5.42793 9.22152 5.58459 9.44019L8.60673 7.55737L9.62496 6.92196L10.3632 7.86727L10.8502 8.48966C11.1929 8.92833 11.3481 9.46545 11.3281 9.99878H13.3333C14.07 9.99878 14.6666 9.40211 14.6666 8.66545V6.00008H5.33329Z" fill="#B1CDBA"/>
</svg>
