<svg width="16" height="16" viewBox="0 0 16 16" fill="none" xmlns="http://www.w3.org/2000/svg">
<path d="M7.99996 0.666748C5.78409 0.666748 3.99996 2.45088 3.99996 4.66675V5.33342C3.26663 5.33342 2.66663 5.93341 2.66663 6.66675V13.3334C2.66663 14.0667 3.26663 14.6667 3.99996 14.6667H12C12.7333 14.6667 13.3333 14.0667 13.3333 13.3334V6.66675C13.3333 5.93341 12.7333 5.33342 12 5.33342V4.66675C12 2.45088 10.2158 0.666748 7.99996 0.666748ZM7.99996 2.00008C9.51742 2.00008 10.6666 3.14929 10.6666 4.66675V5.33342H5.33329V4.66675C5.33329 3.14929 6.4825 2.00008 7.99996 2.00008ZM5.33329 9.33342C5.69996 9.33342 5.99996 9.63342 5.99996 10.0001C5.99996 10.3667 5.69996 10.6667 5.33329 10.6667C4.96663 10.6667 4.66663 10.3667 4.66663 10.0001C4.66663 9.63342 4.96663 9.33342 5.33329 9.33342ZM7.99996 9.33342C8.36663 9.33342 8.66663 9.63342 8.66663 10.0001C8.66663 10.3667 8.36663 10.6667 7.99996 10.6667C7.63329 10.6667 7.33329 10.3667 7.33329 10.0001C7.33329 9.63342 7.63329 9.33342 7.99996 9.33342ZM10.6666 9.33342C11.0333 9.33342 11.3333 9.63342 11.3333 10.0001C11.3333 10.3667 11.0333 10.6667 10.6666 10.6667C10.3 10.6667 9.99996 10.3667 9.99996 10.0001C9.99996 9.63342 10.3 9.33342 10.6666 9.33342Z" fill="#B1CDBA"/>
</svg>
