<svg width="16" height="16" viewBox="0 0 16 16" fill="none" xmlns="http://www.w3.org/2000/svg">
<path d="M6.99345 1.33325C6.67412 1.33325 6.40114 1.55898 6.33981 1.87231L6.11715 3.01554C5.56998 3.22245 5.06403 3.51152 4.61975 3.87622L3.5234 3.49862C3.2214 3.39462 2.88913 3.51949 2.72913 3.79549L1.72392 5.53768C1.56459 5.81435 1.62258 6.16559 1.86324 6.37492L2.74215 7.13924C2.69644 7.42014 2.66663 7.70611 2.66663 7.99992C2.66663 8.29373 2.69644 8.57969 2.74215 8.8606L1.86324 9.62492C1.62258 9.83425 1.56459 10.1855 1.72392 10.4622L2.72913 12.2043C2.88846 12.481 3.2214 12.6059 3.5234 12.5025L4.61975 12.1249C5.06388 12.4894 5.57022 12.7775 6.11715 12.9843L6.33981 14.1275C6.40114 14.4409 6.67412 14.6666 6.99345 14.6666H9.00647C9.32581 14.6666 9.59878 14.4409 9.66012 14.1275L9.88277 12.9843C10.4299 12.7774 10.9359 12.4883 11.3802 12.1236L12.4765 12.5012C12.7785 12.6052 13.1108 12.481 13.2708 12.2043L14.276 10.4609C14.4353 10.1842 14.3773 9.83425 14.1367 9.62492L13.2578 8.8606C13.3035 8.57969 13.3333 8.29373 13.3333 7.99992C13.3333 7.70611 13.3035 7.42014 13.2578 7.13924L14.1367 6.37492C14.3773 6.16559 14.4353 5.81435 14.276 5.53768L13.2708 3.79549C13.1115 3.51883 12.7785 3.39398 12.4765 3.49731L11.3802 3.87492C10.936 3.51045 10.4297 3.22236 9.88277 3.01554L9.66012 1.87231C9.59878 1.55898 9.32581 1.33325 9.00647 1.33325H6.99345ZM7.99996 5.33325C9.47263 5.33325 10.6666 6.52725 10.6666 7.99992C10.6666 9.47259 9.47263 10.6666 7.99996 10.6666C6.5273 10.6666 5.3333 9.47259 5.3333 7.99992C5.3333 6.52725 6.5273 5.33325 7.99996 5.33325Z" fill="#6A9586"/>
</svg>
