<svg width="16" height="16" viewBox="0 0 16 16" fill="none" xmlns="http://www.w3.org/2000/svg">
<path d="M12.6667 2H3.33333C2.59667 2 2 2.59667 2 3.33333V7.33333H7.724L6.662 6.27133C6.40133 6.01067 6.40133 5.58933 6.662 5.32867C6.92267 5.068 7.344 5.068 7.60467 5.32867L9.80467 7.52867C10.0647 7.78867 10.0647 8.21133 9.80467 8.47133L7.60467 10.6713C7.47467 10.8013 7.304 10.8667 7.13333 10.8667C6.96267 10.8667 6.792 10.8013 6.662 10.6713C6.40133 10.4107 6.40133 9.98933 6.662 9.72867L7.724 8.66667H2V12.6667C2 13.4033 2.59667 14 3.33333 14H12.6667C13.4033 14 14 13.4033 14 12.6667V3.33333C14 2.59667 13.4033 2 12.6667 2Z" fill="#B1CDBA"/>
</svg>
