<svg width="16" height="16" viewBox="0 0 16 16" fill="none" xmlns="http://www.w3.org/2000/svg">
<path d="M7.99999 0.666748C5.78412 0.666748 3.99999 2.45088 3.99999 4.66675V5.33342C3.26666 5.33342 2.66666 5.93341 2.66666 6.66675V13.3334C2.66666 14.0667 3.26666 14.6667 3.99999 14.6667H12C12.7333 14.6667 13.3333 14.0667 13.3333 13.3334V6.66675C13.3333 5.93341 12.7333 5.33342 12 5.33342V4.66675C12 2.45088 10.2159 0.666748 7.99999 0.666748ZM7.99999 2.00008C9.51745 2.00008 10.6667 3.14929 10.6667 4.66675V5.33342H5.33332V4.66675C5.33332 3.14929 6.48253 2.00008 7.99999 2.00008ZM5.33332 9.33342C5.69999 9.33342 5.99999 9.63342 5.99999 10.0001C5.99999 10.3667 5.69999 10.6667 5.33332 10.6667C4.96666 10.6667 4.66666 10.3667 4.66666 10.0001C4.66666 9.63342 4.96666 9.33342 5.33332 9.33342ZM7.99999 9.33342C8.36666 9.33342 8.66666 9.63342 8.66666 10.0001C8.66666 10.3667 8.36666 10.6667 7.99999 10.6667C7.63332 10.6667 7.33332 10.3667 7.33332 10.0001C7.33332 9.63342 7.63332 9.33342 7.99999 9.33342ZM10.6667 9.33342C11.0333 9.33342 11.3333 9.63342 11.3333 10.0001C11.3333 10.3667 11.0333 10.6667 10.6667 10.6667C10.3 10.6667 9.99999 10.3667 9.99999 10.0001C9.99999 9.63342 10.3 9.33342 10.6667 9.33342Z" fill="#B1CDBA"/>
</svg>
