<svg width="60" height="60" viewBox="0 0 60 60" fill="none" xmlns="http://www.w3.org/2000/svg">
<rect width="60" height="60" rx="30" fill="#F6F7FC"/>
<path d="M30 16C29.1151 16 28.3284 16.3907 27.7793 17H25.002C24.295 17 23.8093 17.7151 24.0723 18.3711L25 21H35L35.9277 18.3711C36.1907 17.7151 35.705 17 34.998 17H32.2207C31.6716 16.3907 30.8849 16 30 16ZM25 23C25 23 18 29 18 36C18 40 21 42 23 42H30H37C39 42 42 40 42 36C42 29 35 23 35 23H25ZM29 26.5H31V28.1152C32.35 28.4172 33.2529 29.3371 33.2969 30.5801H31.6113C31.5283 29.9041 30.8992 29.4531 30.0332 29.4531C29.1372 29.4531 28.5449 29.8685 28.5449 30.5215C28.5449 31.0495 28.9521 31.3534 29.9551 31.5664L30.9883 31.7852C32.7093 32.1472 33.4492 32.8908 33.4492 34.2188C33.4492 35.6488 32.532 36.6074 31 36.8984V38.5H29V36.9023C27.529 36.6263 26.6048 35.7233 26.5508 34.4023H28.2812C28.3642 35.0963 29.0652 35.541 30.0742 35.541C31.0052 35.541 31.6641 35.0904 31.6641 34.4434C31.6641 33.8974 31.2375 33.5834 30.1875 33.3574L29.0723 33.1191C27.5123 32.7931 26.7461 31.9808 26.7461 30.6758C26.7461 29.3628 27.615 28.4271 29 28.1191V26.5Z" fill="#707FDA"/>
</svg>
