<svg width="349" height="233" viewBox="0 0 349 233" fill="none" xmlns="http://www.w3.org/2000/svg">
<g clip-path="url(#clip0)">
<path d="M209.283 188.042H301.008L313.635 162.373L263.202 162.299L252.357 187.732" fill="white"/>
<path d="M209.283 188.507H301.008C301.094 188.507 301.18 188.483 301.253 188.437C301.327 188.391 301.386 188.325 301.425 188.247L314.052 162.579C314.087 162.508 314.103 162.429 314.1 162.35C314.096 162.271 314.072 162.195 314.03 162.128C313.988 162.06 313.93 162.005 313.861 161.967C313.792 161.928 313.714 161.908 313.635 161.908L263.202 161.833C263.111 161.833 263.022 161.86 262.946 161.91C262.87 161.96 262.811 162.032 262.775 162.116L251.929 187.549C251.925 187.558 251.921 187.567 251.918 187.576H209.283C209.16 187.576 209.042 187.625 208.955 187.713C208.867 187.8 208.818 187.918 208.818 188.042C208.818 188.165 208.867 188.283 208.955 188.371C209.042 188.458 209.16 188.507 209.283 188.507ZM300.718 187.576H252.928L263.509 162.764L312.888 162.837L300.718 187.576Z" fill="#222723"/>
<path d="M225.97 219.071C226.002 219.07 226.034 219.067 226.065 219.061C226.125 219.048 226.182 219.024 226.232 218.99C226.283 218.956 226.326 218.912 226.359 218.86C226.393 218.809 226.416 218.752 226.427 218.692C226.439 218.632 226.438 218.571 226.426 218.511L220.12 188.102C220.094 187.982 220.022 187.877 219.919 187.809C219.816 187.742 219.691 187.718 219.571 187.743C219.45 187.768 219.345 187.84 219.277 187.943C219.209 188.045 219.185 188.171 219.209 188.291L225.516 218.7C225.537 218.804 225.594 218.898 225.677 218.966C225.76 219.033 225.863 219.07 225.97 219.071Z" fill="#222723"/>
<path d="M307.314 218.76C307.383 218.761 307.452 218.745 307.514 218.715C307.577 218.686 307.632 218.642 307.675 218.588C307.719 218.535 307.75 218.472 307.766 218.404C307.783 218.337 307.784 218.267 307.769 218.199L301.463 188.256C301.438 188.135 301.365 188.029 301.262 187.962C301.211 187.929 301.154 187.906 301.094 187.894C301.034 187.883 300.972 187.884 300.912 187.896C300.853 187.909 300.796 187.933 300.746 187.968C300.695 188.002 300.652 188.047 300.619 188.098C300.585 188.149 300.563 188.206 300.551 188.266C300.54 188.326 300.541 188.388 300.553 188.448L306.859 218.391C306.881 218.495 306.938 218.589 307.021 218.656C307.104 218.724 307.207 218.76 307.314 218.76Z" fill="#222723"/>
<path d="M291.975 218.76C292.044 218.761 292.112 218.745 292.175 218.715C292.237 218.686 292.292 218.642 292.336 218.588C292.38 218.535 292.411 218.472 292.427 218.404C292.443 218.337 292.444 218.267 292.43 218.199L286.124 188.256C286.098 188.135 286.026 188.029 285.923 187.962C285.872 187.929 285.814 187.906 285.754 187.894C285.694 187.883 285.633 187.884 285.573 187.896C285.513 187.909 285.457 187.933 285.406 187.968C285.356 188.002 285.313 188.047 285.279 188.098C285.246 188.149 285.223 188.206 285.212 188.266C285.201 188.326 285.201 188.388 285.214 188.448L291.52 218.391C291.542 218.495 291.599 218.589 291.682 218.656C291.764 218.724 291.868 218.76 291.975 218.76Z" fill="#222723"/>
<path d="M251.965 119.633H242.417L242.795 104.062L242.959 95.6972C242.959 86.4355 249.953 78.1565 258.58 78.1565C267.207 78.1565 274.201 85.6646 274.201 94.9264L274.225 104.059L274.269 118.751H267.68H266.033" fill="#4F8C77"/>
<path d="M274 162.286L238.283 147.644L207.896 159.933L175.284 176.7L176.459 179.494L274 162.286Z" fill="white"/>
<path d="M193.934 114.62C193.934 114.62 188.282 108.476 184.832 104.272C184.234 103.543 183.702 102.873 183.278 102.303C180.401 98.4441 183.928 95.8967 185.377 97.6469C186.825 99.3972 192.832 103.357 196.211 107.622L196.278 107.701C198.723 108.332 200.854 110.001 202.016 112.393L206.709 122.054L201.973 124.383L193.93 128.221L187.624 125.663L186.743 123.751L185.516 122.459L176.753 111.838L174.991 109.485L173.962 102.278L175.431 100.66L180.426 104.778L188.065 108.014" fill="white"/>
<path d="M193.93 128.662C193.874 128.662 193.818 128.651 193.765 128.63L187.459 126.072C187.355 126.03 187.271 125.95 187.224 125.848L186.373 124.002L185.197 122.763C185.19 122.755 185.183 122.748 185.176 122.74L176.414 112.119C176.41 112.114 176.405 112.108 176.401 112.103L174.638 109.749C174.594 109.69 174.565 109.62 174.555 109.547L173.526 102.34C173.508 102.21 173.548 102.078 173.637 101.981L175.106 100.363C175.264 100.189 175.53 100.17 175.712 100.319L180.657 104.397L186.412 106.835C185.733 106.043 185.079 105.268 184.491 104.552C183.858 103.779 183.331 103.112 182.925 102.567C181.146 100.181 181.616 98.0863 182.805 97.1498C183.764 96.395 184.988 96.4853 185.716 97.3653C186.24 97.9977 187.469 98.998 188.892 100.156C191.349 102.157 194.404 104.644 196.527 107.311C199.103 108.018 201.243 109.793 202.412 112.2L207.105 121.86C207.211 122.079 207.121 122.342 206.903 122.449L202.167 124.779L194.119 128.619C194.06 128.648 193.995 128.662 193.93 128.662ZM187.951 125.32L193.915 127.739L201.783 123.985L206.12 121.851L201.62 112.586C200.543 110.369 198.556 108.744 196.168 108.128C196.081 108.106 196.002 108.057 195.944 107.988L195.876 107.909C195.872 107.904 195.869 107.9 195.865 107.896C193.802 105.291 190.771 102.824 188.336 100.841C186.816 99.6044 185.616 98.6275 185.038 97.9283C184.551 97.3401 183.822 97.4721 183.35 97.8435C182.457 98.5465 182.198 100.117 183.631 102.039C184.029 102.573 184.547 103.23 185.172 103.992C186.089 105.108 187.167 106.369 188.254 107.615C188.368 107.669 188.449 107.767 188.485 107.879C191.357 111.165 194.218 114.277 194.258 114.321C194.423 114.5 194.411 114.779 194.232 114.944C194.054 115.11 193.775 115.098 193.61 114.919C193.569 114.875 190.638 111.685 187.723 108.348L180.254 105.184C180.215 105.168 180.179 105.146 180.146 105.119L175.475 101.268L174.428 102.421L175.411 109.31L177.1 111.565L185.846 122.166L187.062 123.448C187.096 123.483 187.123 123.523 187.143 123.567L187.951 125.32Z" fill="#222723"/>
<path d="M224.831 123.785C224.831 123.785 229.246 125.903 233.968 136.847C235.838 141.179 239.734 151.418 239.734 151.418L257.35 160.407C258.418 151.418 257.757 146.148 263.292 143.133C264.629 142.404 274.168 140.427 275.724 140.425C275.724 140.425 275.461 133.487 281.552 130.351C290.628 125.678 297.504 131.936 297.504 131.936C293.382 129.219 290.167 126.823 287.974 125.121C283.103 121.339 280.86 119.106 276.794 118.295C274.341 117.806 271.944 117.868 270.328 118.015C270.328 118.015 269.451 121.089 266.783 124.348C264.413 127.243 263.172 130.367 257.478 130.367C255.853 130.367 252.438 129.045 250.652 126.619C248.125 123.187 247.705 118.015 247.705 118.015C247.236 118.029 246.731 117.891 244.18 118.603C237.863 120.368 231.368 122.197 224.831 123.785Z" fill="#6A9586"/>
<path d="M186.956 118.6C188.202 119.866 187.348 122.429 184.353 122.631C181.876 122.802 179.817 122.853 178.558 122.868C177.706 122.878 176.876 122.595 176.207 122.067L174.711 120.89C173.568 119.991 173.052 118.509 173.388 117.094C173.493 116.656 173.673 116.25 173.914 115.888" fill="white"/>
<path d="M178.516 123.31C177.583 123.31 176.668 122.992 175.934 122.413L174.438 121.237C173.165 120.235 172.585 118.569 172.96 116.992C173.075 116.509 173.273 116.055 173.548 115.643C173.683 115.441 173.957 115.386 174.159 115.521C174.361 115.657 174.416 115.931 174.28 116.133C174.064 116.458 173.908 116.816 173.817 117.196C173.521 118.439 173.979 119.753 174.983 120.543L176.479 121.719C177.068 122.184 177.803 122.435 178.553 122.427C179.842 122.412 181.89 122.359 184.322 122.191C185.623 122.103 186.606 121.506 186.951 120.595C187.183 119.984 187.064 119.339 186.642 118.91C186.471 118.737 186.474 118.457 186.647 118.286C186.82 118.115 187.099 118.117 187.27 118.291C187.937 118.968 188.13 119.971 187.775 120.908C187.304 122.151 186.036 122.96 184.383 123.071C181.929 123.24 179.864 123.294 178.563 123.309C178.547 123.309 178.532 123.31 178.516 123.31Z" fill="#222723"/>
<path d="M178.837 113.862C181.369 113.808 184.074 113.737 185.726 113.576C190.113 113.143 190.075 118.473 185.48 118.788C182.738 118.976 180.459 119.034 179.066 119.05C178.122 119.063 177.202 118.751 176.46 118.167L174.804 116.86C173.543 115.863 172.974 114.223 173.347 112.658C173.716 111.111 174.94 109.915 176.492 109.581L178.516 109.19" fill="white"/>
<path d="M179.009 119.492C177.99 119.492 176.99 119.146 176.188 118.514L174.532 117.206C173.14 116.107 172.507 114.281 172.919 112.555C173.325 110.854 174.692 109.517 176.4 109.149L178.433 108.757C178.672 108.711 178.903 108.868 178.949 109.107C178.995 109.346 178.839 109.577 178.6 109.624L176.576 110.014C175.206 110.308 174.104 111.387 173.776 112.76C173.444 114.153 173.955 115.626 175.078 116.513L176.733 117.821C177.393 118.34 178.216 118.621 179.06 118.609C180.484 118.592 182.747 118.534 185.45 118.348C186.829 118.254 187.878 117.658 188.327 116.716C188.633 116.074 188.595 115.376 188.226 114.849C187.771 114.2 186.898 113.904 185.77 114.015C184.079 114.18 181.309 114.251 178.847 114.304C178.604 114.309 178.402 114.116 178.397 113.872C178.391 113.628 178.584 113.427 178.828 113.421C181.274 113.369 184.024 113.299 185.684 113.137C187.122 112.995 188.311 113.434 188.947 114.342C189.502 115.133 189.567 116.163 189.123 117.096C188.532 118.334 187.215 119.112 185.51 119.228C182.787 119.415 180.506 119.475 179.071 119.491C179.051 119.491 179.03 119.492 179.009 119.492Z" fill="#222723"/>
<path d="M175.742 109.704C172.811 109.206 171.952 105.239 173.585 102.764C173.93 102.242 174.263 101.713 174.596 101.198" fill="white"/>
<path d="M175.742 110.146C175.718 110.146 175.693 110.144 175.668 110.139C174.363 109.917 173.331 109.072 172.762 107.761C172.039 106.092 172.218 104.035 173.218 102.521C173.445 102.177 173.667 101.83 173.888 101.485C174.001 101.309 174.114 101.133 174.226 100.958C174.358 100.753 174.631 100.695 174.836 100.827C175.04 100.959 175.099 101.233 174.967 101.437C174.854 101.611 174.742 101.786 174.63 101.962C174.407 102.309 174.183 102.66 173.953 103.007C173.127 104.26 172.973 106.029 173.571 107.41C174.017 108.438 174.814 109.099 175.816 109.269C176.056 109.31 176.218 109.538 176.177 109.778C176.14 109.993 175.953 110.146 175.742 110.146Z" fill="#222723"/>
<path d="M179.838 106.249C180.573 104.337 182.027 100.678 182.07 99.0425C182.09 98.2965 181.634 97.6267 180.931 97.3792C177.59 96.2032 175.902 99.1721 173.976 102.162" fill="white"/>
<path d="M179.838 106.69C179.786 106.69 179.732 106.681 179.68 106.661C179.453 106.573 179.339 106.318 179.427 106.09L179.585 105.679C180.335 103.735 181.591 100.48 181.63 99.0309C181.644 98.4753 181.305 97.9789 180.784 97.7957C177.938 96.7935 176.405 99.1867 174.631 101.958L174.346 102.401C174.215 102.606 173.942 102.665 173.737 102.533C173.533 102.401 173.474 102.128 173.606 101.923L173.889 101.481C175.7 98.6534 177.572 95.7296 181.077 96.9631C181.959 97.2739 182.536 98.1143 182.511 99.0545C182.468 100.655 181.228 103.87 180.408 105.997L180.25 106.407C180.182 106.582 180.015 106.69 179.838 106.69Z" fill="#222723"/>
<path d="M237.961 146.648C237.777 146.648 237.606 146.532 237.543 146.348C237.465 146.117 237.589 145.866 237.82 145.788L244.071 143.672C244.301 143.594 244.552 143.718 244.63 143.949C244.708 144.18 244.584 144.43 244.354 144.508L238.102 146.624C238.055 146.64 238.008 146.648 237.961 146.648Z" fill="#222723"/>
<path d="M187.942 195.69C188.19 199.107 186.622 201.952 182.045 203.264C176.298 204.91 175.032 208.21 175.342 212.587L199.696 212.678L209.586 201.399L211.936 208.347L220.603 205.28L214.061 186.676" fill="#4F8C77"/>
<path d="M163.978 142.518C164.251 135.15 168.966 128.364 176.344 125.815C181.24 124.124 186.622 124.582 191.163 127.076L193.656 128.348" fill="white"/>
<path d="M163.978 142.959C163.973 142.959 163.967 142.959 163.962 142.959C163.718 142.95 163.528 142.745 163.537 142.501C163.677 138.746 164.922 135.15 167.14 132.1C169.41 128.979 172.543 126.662 176.201 125.398C181.204 123.67 186.735 124.141 191.375 126.689L193.857 127.955C194.073 128.066 194.16 128.332 194.049 128.549C193.939 128.766 193.673 128.852 193.457 128.742L190.963 127.469C186.528 125.034 181.257 124.586 176.488 126.233C169.541 128.632 164.691 135.183 164.418 142.534C164.409 142.772 164.214 142.959 163.978 142.959Z" fill="#222723"/>
<path d="M174.899 178.027L179.643 191.81L182.056 198.817L192.957 195.056L216.776 186.836L215.174 182.178L220.077 186.215C220.676 187.29 237.161 187.796 250.79 187.437C261.955 187.143 274 177.435 274 168.169C274 165.831 274.103 162.117 274 159.639" fill="white"/>
<path d="M182.055 199.258C181.873 199.258 181.702 199.143 181.639 198.961L174.483 178.17C174.403 177.94 174.526 177.689 174.756 177.609C174.986 177.53 175.237 177.652 175.316 177.883L182.329 198.256L192.813 194.639L216.216 186.562L214.757 182.322C214.693 182.135 214.76 181.928 214.922 181.815C215.084 181.703 215.301 181.712 215.454 181.837L220.357 185.874C220.385 185.898 220.41 185.924 220.432 185.953C221.566 186.739 236.001 187.385 250.779 186.996C261.85 186.704 273.559 177.027 273.559 168.169C273.559 167.437 273.57 166.569 273.58 165.651C273.604 163.635 273.63 161.35 273.56 159.657C273.55 159.414 273.739 159.208 273.982 159.198C274.225 159.188 274.431 159.377 274.441 159.62C274.512 161.337 274.485 163.634 274.462 165.661C274.451 166.577 274.441 167.442 274.441 168.169C274.441 172.688 271.679 177.55 266.862 181.509C262.111 185.413 256.258 187.734 250.802 187.878C244.151 188.053 236.573 188.026 230.532 187.805C221.03 187.457 219.987 186.855 219.741 186.51L216.099 183.51L217.193 186.692C217.273 186.923 217.15 187.174 216.92 187.253L193.101 195.473L182.199 199.234C182.152 199.25 182.103 199.258 182.055 199.258ZM220.461 185.999C220.461 185.999 220.462 186 220.462 186C220.462 186 220.461 185.999 220.461 185.999ZM220.417 185.943C220.417 185.943 220.417 185.943 220.417 185.943V185.943Z" fill="#222723"/>
<path d="M215.174 182.619C214.994 182.619 214.825 182.508 214.76 182.33L207.482 162.445C207.398 162.216 207.516 161.962 207.744 161.878C207.973 161.794 208.226 161.912 208.31 162.141L215.588 182.026C215.671 182.255 215.554 182.508 215.325 182.592C215.276 182.611 215.224 182.619 215.174 182.619Z" fill="#222723"/>
<path d="M148.912 156.767C145.151 157.394 141.521 155.913 138.268 153.037C133.93 149.202 132.297 147.732 130.553 145.727C127.523 142.244 123.011 140.972 119.242 143.056L129.998 166.614L142.337 176.302L135.727 179.179L139.785 188.074L159.523 179.195" fill="#4F8C77"/>
<path d="M239.731 151.865L234.911 149.405L221.807 155.656L211.568 160.542L183.018 174.153L161.915 184.222L146.12 151.025L147.762 150.247L176.408 136.582L204.384 123.233L205.447 122.727C215.16 118.088 226.79 122.212 231.423 131.937C231.425 131.942 231.428 131.947 231.43 131.952L235.996 141.549C236.362 142.317 236.71 143.094 237.04 143.88C238.133 146.471 239.032 149.14 239.731 151.865Z" fill="white"/>
<path d="M161.914 184.663C161.865 184.663 161.815 184.655 161.767 184.638C161.657 184.599 161.567 184.518 161.517 184.412L145.722 151.215C145.672 151.109 145.665 150.987 145.705 150.877C145.744 150.766 145.826 150.676 145.931 150.626L147.574 149.848L176.218 136.184L204.195 122.835L205.257 122.328C210.061 120.034 215.47 119.751 220.487 121.53C225.504 123.309 229.529 126.937 231.821 131.748C231.821 131.748 231.827 131.762 231.827 131.762L236.393 141.359C236.761 142.131 237.115 142.921 237.446 143.709C238.543 146.311 239.456 149.019 240.158 151.755C240.201 151.923 240.142 152.101 240.006 152.209C239.871 152.318 239.685 152.337 239.531 152.258L234.905 149.898L221.996 156.055L211.757 160.941L183.207 174.552L162.104 184.621C162.044 184.649 161.979 184.663 161.914 184.663ZM146.708 151.234L162.123 183.634L182.828 173.755L211.378 160.144L221.617 155.258L234.721 149.007C234.845 148.948 234.989 148.95 235.111 149.012L239.051 151.023C238.398 148.653 237.587 146.312 236.634 144.051C236.308 143.276 235.959 142.498 235.597 141.739L231.032 132.141L231.423 131.937L231.025 132.127C228.835 127.53 224.988 124.062 220.193 122.362C215.397 120.661 210.228 120.932 205.636 123.125L204.574 123.631L176.597 136.98L147.952 150.645L146.708 151.234Z" fill="#222723"/>
<path d="M162.569 151.094C160.805 151.095 159.042 150.477 157.618 149.245C156.886 148.616 155.824 148.616 155.092 149.246C153.037 151.018 150.172 151.556 147.615 150.651C147.386 150.57 147.265 150.318 147.347 150.088C147.428 149.858 147.68 149.738 147.909 149.819C150.169 150.619 152.701 150.143 154.517 148.577C155.582 147.66 157.128 147.66 158.193 148.577C160.666 150.715 164.293 150.76 166.817 148.685C167.859 147.833 169.369 147.833 170.409 148.684C171.631 149.688 173.174 150.229 174.753 150.206C178.446 150.154 181.407 147.104 181.355 143.407C181.303 140.384 179.224 137.748 176.298 136.997C176.062 136.937 175.92 136.697 175.98 136.46C176.041 136.224 176.28 136.082 176.517 136.143C179.826 136.992 182.178 139.973 182.236 143.393C182.295 147.578 178.944 151.03 174.766 151.089C172.981 151.115 171.233 150.503 169.851 149.367C169.134 148.781 168.093 148.781 167.376 149.368C165.974 150.52 164.271 151.094 162.569 151.094Z" fill="#222723"/>
<path d="M183.018 174.594C182.992 174.594 182.966 174.592 182.94 174.587C180.947 174.231 179.213 173.118 178.056 171.455C176.899 169.792 176.458 167.777 176.814 165.782C177.171 163.787 178.282 162.05 179.943 160.892C181.604 159.733 183.616 159.292 185.609 159.649C186.952 159.889 188.208 160.49 189.239 161.386C189.973 162.012 191.038 162.008 191.769 161.375C194.568 158.965 198.668 158.918 201.52 161.262C202.245 161.847 203.298 161.84 204.019 161.242C206.196 159.466 209.153 159.043 211.737 160.136C211.961 160.231 212.066 160.49 211.972 160.714C211.877 160.938 211.619 161.044 211.394 160.949C209.111 159.984 206.5 160.357 204.579 161.924C203.539 162.786 202.017 162.796 200.964 161.947C198.44 159.873 194.817 159.915 192.345 162.043C191.282 162.963 189.734 162.968 188.665 162.055C187.751 161.261 186.641 160.73 185.453 160.518C183.693 160.202 181.914 160.592 180.447 161.616C178.979 162.64 177.997 164.175 177.682 165.938C177.367 167.701 177.757 169.481 178.779 170.951C179.801 172.42 181.334 173.403 183.095 173.719C183.335 173.762 183.494 173.991 183.451 174.231C183.413 174.444 183.228 174.594 183.018 174.594Z" fill="#222723"/>
<path d="M206.223 133.308C204.459 133.309 202.697 132.691 201.272 131.459C200.541 130.83 199.479 130.829 198.747 131.459C195.726 134.072 191.173 133.88 188.381 131.022C188.211 130.847 188.214 130.568 188.388 130.398C188.562 130.227 188.841 130.23 189.012 130.405C191.478 132.93 195.501 133.1 198.171 130.791C199.237 129.874 200.783 129.874 201.848 130.791C204.321 132.93 207.948 132.974 210.472 130.897C211.514 130.046 213.024 130.046 214.064 130.897C215.288 131.904 216.829 132.445 218.416 132.422C222.107 132.367 225.066 129.315 225.011 125.619C225.009 125.304 224.983 124.989 224.934 124.681C224.897 124.44 225.061 124.214 225.301 124.177C225.541 124.139 225.767 124.303 225.805 124.544C225.86 124.895 225.89 125.253 225.893 125.609C225.955 129.789 222.606 133.242 218.429 133.304C216.638 133.331 214.889 132.718 213.506 131.579C212.789 130.993 211.748 130.993 211.031 131.58C209.629 132.733 207.925 133.308 206.223 133.308Z" fill="#222723"/>
<path d="M245.283 182.028C243.593 182.028 241.992 181.406 240.579 180.185C239.859 179.563 238.773 179.563 238.053 180.185C235.231 182.624 230.974 182.624 228.151 180.185C224.989 177.451 224.637 172.651 227.367 169.485C228.689 167.951 230.529 167.024 232.547 166.876C234.567 166.728 236.521 167.375 238.053 168.699C238.787 169.326 239.852 169.322 240.584 168.689C242.563 166.985 245.234 166.421 247.732 167.181C250.791 168.087 252.847 171.085 252.847 174.64C252.847 177.581 250.699 181.058 247.102 181.795C246.488 181.951 245.88 182.028 245.283 182.028ZM239.316 178.838C239.973 178.838 240.63 179.064 241.154 179.517C242.841 180.974 244.827 181.465 246.895 180.937C246.902 180.935 246.909 180.934 246.916 180.932C250.077 180.29 251.966 177.229 251.966 174.641C251.966 172.009 250.579 168.943 247.48 168.026C247.479 168.026 247.477 168.026 247.476 168.025C245.269 167.354 242.908 167.852 241.16 169.357C240.097 170.277 238.549 170.282 237.479 169.369C236.124 168.197 234.395 167.625 232.612 167.756C230.828 167.887 229.203 168.706 228.034 170.062C225.621 172.86 225.933 177.102 228.727 179.517C231.222 181.672 234.983 181.672 237.477 179.517C238.001 179.064 238.659 178.838 239.316 178.838Z" fill="#222723"/>
<path d="M192.957 195.497C192.755 195.497 192.578 195.361 192.528 195.165C192.29 194.231 191.843 193.341 191.235 192.593C190.107 191.203 188.506 190.337 186.727 190.153C184.948 189.969 183.204 190.49 181.816 191.62C181.194 192.13 180.38 192.358 179.583 192.247C179.341 192.214 179.173 191.991 179.207 191.749C179.241 191.508 179.463 191.34 179.704 191.373C180.258 191.451 180.826 191.291 181.259 190.936C182.831 189.657 184.804 189.068 186.817 189.276C188.831 189.483 190.643 190.464 191.919 192.036C192.601 192.876 193.105 193.874 193.376 194.922C193.389 194.964 193.397 195.01 193.397 195.057C193.397 195.3 193.2 195.497 192.957 195.497Z" fill="#222723"/>
<path d="M261.364 108.036C259.262 109.901 255.72 109.95 255.429 109.951C255.416 109.951 255.402 109.951 255.389 109.952C253.621 110.081 252.263 109.791 250.526 109.017C244.896 106.508 242.363 99.9046 244.869 94.2675C245.389 93.0976 246.1 92.0394 246.962 91.1288C247.068 91.0161 247.133 90.8714 247.145 90.7167C247.215 89.8536 247.385 88.9885 247.664 88.1376C247.697 88.0367 247.754 87.9454 247.83 87.8708C248.708 87.0012 249.813 86.3952 251.018 86.1219L252.062 85.8851C252.12 85.8719 252.18 85.8666 252.239 85.8694L259.925 86.2184C260.19 86.2305 260.422 86.398 260.517 86.6454L262.862 92.7489C262.869 92.7683 262.876 92.788 262.882 92.8082L265.224 101.162" fill="white"/>
<path d="M251.113 109.46V118.367L247.309 118.427L249.328 124.344C251.741 131.413 261.205 132.635 265.33 126.412L270.665 118.367H265.026L264.88 102.119" fill="white"/>
<path d="M257.863 130.879C257.455 130.879 257.044 130.853 256.63 130.8C253.039 130.336 250.082 127.917 248.911 124.487L246.891 118.57C246.846 118.436 246.867 118.289 246.948 118.173C247.029 118.057 247.16 117.988 247.302 117.986L250.672 117.932V109.46C250.672 109.216 250.87 109.019 251.113 109.019C251.357 109.019 251.554 109.216 251.554 109.46V118.367C251.554 118.608 251.361 118.804 251.12 118.808L247.921 118.859L249.745 124.201C250.807 127.311 253.488 129.504 256.743 129.925C259.999 130.345 263.148 128.906 264.963 126.168L269.844 118.808H265.026C264.784 118.808 264.587 118.613 264.585 118.371L264.439 102.123C264.437 101.88 264.633 101.68 264.876 101.678C264.877 101.678 264.879 101.678 264.88 101.678C265.122 101.678 265.318 101.873 265.321 102.115L265.463 117.925H270.665C270.828 117.925 270.977 118.015 271.054 118.158C271.13 118.301 271.122 118.475 271.032 118.611L265.697 126.656C263.926 129.328 261.001 130.879 257.863 130.879Z" fill="#222723"/>
<path d="M261.327 107.975C259.134 109.921 255.372 109.89 255.372 109.89C253.594 110.023 252.232 109.733 250.489 108.956C244.859 106.448 242.326 99.8439 244.832 94.2068C245.385 92.9624 246.155 91.8441 247.092 90.8955C247.15 89.9014 247.342 88.9023 247.678 87.9236" fill="white"/>
<path d="M254.566 110.363C253.138 110.363 251.879 110.059 250.31 109.36C244.467 106.756 241.829 99.8779 244.43 94.0277C244.978 92.7944 245.729 91.6772 246.663 90.7043C246.735 89.7078 246.937 88.7249 247.261 87.7802C247.341 87.5497 247.591 87.4272 247.822 87.5066C248.052 87.5859 248.174 87.837 248.095 88.0674C247.778 88.9884 247.589 89.9487 247.532 90.9217C247.525 91.0287 247.48 91.1298 247.405 91.206C246.492 92.1304 245.762 93.2004 245.235 94.3864C242.832 99.7922 245.269 106.147 250.669 108.553C252.414 109.331 253.68 109.574 255.34 109.45C255.352 109.449 255.365 109.449 255.376 109.449C255.407 109.449 258.997 109.453 261.035 107.645C261.217 107.484 261.495 107.5 261.657 107.683C261.818 107.865 261.801 108.144 261.619 108.306C259.392 110.282 255.747 110.331 255.392 110.331C255.391 110.331 255.389 110.331 255.388 110.331C255.106 110.352 254.833 110.363 254.566 110.363Z" fill="#222723"/>
<path d="M266.139 90.2184C267.312 86.9939 265.651 83.4282 262.431 82.2543C259.21 81.0804 255.649 82.7428 254.476 85.9673C253.304 89.1919 254.964 92.7575 258.185 93.9315C261.405 95.1054 264.967 93.443 266.139 90.2184Z" fill="#4F8C77"/>
<path d="M257.171 86.4571C257.855 84.5757 256.886 82.4954 255.007 81.8105C253.128 81.1256 251.05 82.0955 250.366 83.9768C249.682 85.8582 250.651 87.9385 252.53 88.6234C254.409 89.3083 256.487 88.3384 257.171 86.4571Z" fill="#4F8C77"/>
<path d="M254.844 94.5866C255.225 94.3421 255.337 93.834 255.093 93.4518C254.849 93.0695 254.341 92.9579 253.959 93.2023C253.578 93.4468 253.466 93.9549 253.71 94.3371C253.954 94.7194 254.462 94.831 254.844 94.5866Z" fill="#222723"/>
<path d="M248.568 92.7687C248.95 92.5242 249.061 92.0162 248.817 91.6339C248.573 91.2517 248.066 91.14 247.684 91.3845C247.302 91.629 247.191 92.137 247.435 92.5193C247.679 92.9015 248.186 93.0132 248.568 92.7687Z" fill="#222723"/>
<path d="M249.592 103.117C249.364 103.117 249.133 103.093 248.902 103.045C248.023 102.86 247.269 102.344 246.778 101.592C246.287 100.839 246.118 99.9408 246.302 99.0613C246.352 98.8227 246.586 98.67 246.824 98.7199L252.539 99.9196C252.654 99.9436 252.754 100.012 252.818 100.11C252.882 100.208 252.904 100.327 252.88 100.442C252.548 102.026 251.148 103.117 249.592 103.117ZM247.112 99.6821C247.097 100.185 247.235 100.679 247.516 101.109C247.878 101.664 248.434 102.045 249.082 102.181C250.273 102.431 251.447 101.776 251.889 100.685L247.112 99.6821Z" fill="#222723"/>
<path d="M263.084 101.951C264.344 102.293 265.738 102.122 266.925 101.362C269.155 99.9338 269.807 96.9656 268.38 94.7323C266.953 92.4991 263.989 91.8466 261.758 93.2751C260.922 93.8107 260.307 94.5629 259.941 95.4117" fill="white"/>
<path d="M264.338 102.559C263.879 102.559 263.419 102.499 262.968 102.377C262.733 102.313 262.595 102.071 262.658 101.835C262.722 101.6 262.964 101.461 263.199 101.525C264.383 101.847 265.654 101.652 266.687 100.991C268.709 99.6958 269.302 96.9951 268.008 94.9702C266.715 92.9455 264.017 92.3519 261.995 93.647C261.261 94.1176 260.69 94.7884 260.346 95.5868C260.249 95.8105 259.99 95.9136 259.767 95.817C259.543 95.7203 259.44 95.4607 259.537 95.237C259.951 94.2765 260.637 93.4696 261.521 92.9036C263.953 91.3463 267.196 92.0603 268.751 94.4949C270.306 96.9295 269.593 100.177 267.162 101.734C266.313 102.278 265.33 102.559 264.338 102.559Z" fill="#222723"/>
<path d="M265.755 99.5173C265.704 99.5173 265.652 99.5084 265.602 99.4896L261.963 98.1377C261.801 98.0774 261.689 97.9273 261.677 97.7544C261.665 97.5814 261.755 97.4174 261.908 97.3353L265.637 95.3271C265.852 95.2118 266.119 95.292 266.234 95.5067C266.35 95.7213 266.269 95.9888 266.055 96.1043L263.184 97.6499L265.908 98.6621C266.137 98.7469 266.253 99.0009 266.168 99.2293C266.102 99.4072 265.934 99.5173 265.755 99.5173Z" fill="#222723"/>
<path d="M306.517 142.628L305.798 141.827L297.498 132.574L297.5 132.575C292.892 127.438 284.997 127.014 279.866 131.628C277.139 134.081 275.742 137.464 275.723 140.866L266.869 142.269C262.611 142.945 259.334 146.265 258.614 150.409C258.469 150.937 257.209 162.595 257.256 164.965C257.404 172.549 259.1 182.638 262.34 182.138C264.916 181.738 263.587 177.239 263.315 168.636C264.893 176.206 266.593 181.645 269.191 180.922C271.79 180.198 270.155 172.563 268.897 166.733C271.389 170.045 274.606 174.652 276.504 173.778C279.24 172.516 276.657 168.469 275.224 165.62C274.605 164.392 274.277 163.263 274.162 162.212L297.371 162.652C300.407 162.71 303.352 161.611 305.612 159.579C310.537 155.148 310.942 147.559 306.517 142.628Z" fill="white"/>
<path d="M262.106 182.598C261.621 182.598 261.157 182.413 260.721 182.046C258.226 179.945 256.947 171.723 256.815 164.973C256.768 162.566 257.991 151.212 258.181 150.323C258.947 145.942 262.409 142.53 266.799 141.833L275.29 140.488C275.411 136.981 276.959 133.649 279.572 131.299C282.141 128.989 285.454 127.819 288.902 128.004C292.351 128.189 295.52 129.708 297.828 132.28C297.829 132.282 297.831 132.284 297.833 132.287L306.844 142.333C309.063 144.806 310.188 147.995 310.01 151.314C309.833 154.634 308.376 157.685 305.906 159.907C303.556 162.021 300.521 163.153 297.362 163.092L274.671 162.663C274.826 163.563 275.138 164.47 275.618 165.42C275.787 165.757 275.971 166.107 276.165 166.478C277.298 168.637 278.581 171.084 278.006 172.778C277.795 173.401 277.351 173.873 276.688 174.179C274.77 175.061 272.245 171.933 269.748 168.607C270.243 170.964 270.739 173.546 270.929 175.703C271.122 177.879 271.163 180.831 269.309 181.347C268.724 181.51 268.155 181.427 267.619 181.1C266.295 180.293 265.189 178.054 264.035 173.688C264.062 174.06 264.09 174.422 264.116 174.776C264.289 177.067 264.425 178.876 264.276 180.14C264.165 181.078 263.851 182.35 262.407 182.574C262.306 182.59 262.206 182.598 262.106 182.598ZM288.195 128.868C285.221 128.868 282.39 129.951 280.16 131.956C277.639 134.224 276.182 137.473 276.164 140.869C276.163 141.085 276.005 141.268 275.792 141.302L266.937 142.705C262.916 143.344 259.745 146.47 259.048 150.484C259.046 150.498 259.043 150.512 259.039 150.525C258.882 151.175 257.653 162.735 257.696 164.956C257.825 171.556 259.128 179.552 261.288 181.371C261.615 181.646 261.937 181.754 262.272 181.702C263.677 181.484 263.583 179.441 263.237 174.842C263.102 173.055 262.95 171.028 262.875 168.65C262.867 168.421 263.036 168.225 263.263 168.198C263.49 168.171 263.7 168.322 263.746 168.546C264.765 173.432 266.177 179.188 268.078 180.347C268.401 180.544 268.727 180.593 269.073 180.497C271.282 179.881 269.52 171.709 268.466 166.826C268.423 166.624 268.526 166.418 268.714 166.332C268.902 166.245 269.125 166.302 269.249 166.468C269.449 166.732 269.652 167.005 269.86 167.283C271.866 169.971 274.897 174.032 276.32 173.377C276.76 173.174 277.039 172.885 277.172 172.494C277.625 171.159 276.383 168.792 275.385 166.889C275.189 166.515 275.003 166.161 274.831 165.818C274.214 164.596 273.852 163.432 273.724 162.26C273.71 162.134 273.751 162.008 273.837 161.915C273.922 161.821 274.042 161.768 274.171 161.771L297.379 162.21C300.317 162.267 303.133 161.215 305.317 159.251C307.612 157.187 308.966 154.352 309.13 151.268C309.295 148.184 308.25 145.22 306.189 142.923C306.189 142.923 306.189 142.923 306.189 142.923L297.171 132.869C297.169 132.866 297.167 132.864 297.165 132.862C295.015 130.47 292.065 129.058 288.855 128.886C288.635 128.874 288.414 128.868 288.195 128.868Z" fill="#222723"/>
<path d="M275.332 141.369C275.119 141.369 274.932 141.214 274.898 140.997C274.86 140.756 275.023 140.53 275.264 140.492L290.707 138.045C290.948 138.007 291.173 138.171 291.212 138.411C291.25 138.652 291.086 138.878 290.845 138.916L275.402 141.364C275.378 141.367 275.355 141.369 275.332 141.369Z" fill="#222723"/>
<path d="M123.688 136.64V31.5852H24.9282V54.3711V136.64H123.688Z" fill="white"/>
<path d="M123.688 137.137H24.9282C24.6531 137.137 24.4302 136.914 24.4302 136.64V31.5852C24.4302 31.3107 24.6531 31.0881 24.9282 31.0881H123.688C123.963 31.0881 124.186 31.3107 124.186 31.5852V136.64C124.186 136.914 123.963 137.137 123.688 137.137ZM25.4263 136.143H123.19V32.0824H25.4263V136.143Z" fill="#222723"/>
<path d="M123.688 43.7877H24.9282C24.6531 43.7877 24.4302 43.5651 24.4302 43.2906C24.4302 43.016 24.6531 42.7935 24.9282 42.7935H123.688C123.963 42.7935 124.186 43.016 124.186 43.2906C124.186 43.5651 123.963 43.7877 123.688 43.7877Z" fill="#222723"/>
<path d="M30.161 39.3917C31.242 39.3917 32.1184 38.517 32.1184 37.438C32.1184 36.3591 31.242 35.4844 30.161 35.4844C29.08 35.4844 28.2036 36.3591 28.2036 37.438C28.2036 38.517 29.08 39.3917 30.161 39.3917Z" fill="#6A9586"/>
<path d="M35.64 39.3917C36.7211 39.3917 37.5974 38.517 37.5974 37.438C37.5974 36.3591 36.7211 35.4844 35.64 35.4844C34.559 35.4844 33.6826 36.3591 33.6826 37.438C33.6826 38.517 34.559 39.3917 35.64 39.3917Z" fill="#6A9586"/>
<path d="M41.1185 39.3917C42.1996 39.3917 43.0759 38.517 43.0759 37.438C43.0759 36.3591 42.1996 35.4844 41.1185 35.4844C40.0375 35.4844 39.1611 36.3591 39.1611 37.438C39.1611 38.517 40.0375 39.3917 41.1185 39.3917Z" fill="#6A9586"/>
<path d="M95.2392 66.1923H35.6548C35.1049 66.1923 34.665 65.7518 34.665 65.2012C34.665 64.6507 35.1049 64.2102 35.6548 64.2102H95.2392C95.789 64.2102 96.2289 64.6507 96.2289 65.2012C96.2289 65.7518 95.789 66.1923 95.2392 66.1923Z" fill="#6A9586"/>
<path d="M92.0499 69.8041H35.6548C35.1049 69.8041 34.665 69.3636 34.665 68.813C34.665 68.2625 35.1049 67.822 35.6548 67.822H92.0499C92.5998 67.822 93.0397 68.2625 93.0397 68.813C93.0397 69.3636 92.5998 69.8041 92.0499 69.8041Z" fill="#6A9586"/>
<path d="M89.2125 73.4159H35.6548C35.1049 73.4159 34.665 72.9754 34.665 72.4249C34.665 71.8743 35.1049 71.4338 35.6548 71.4338H89.2125C89.7624 71.4338 90.2023 71.8743 90.2023 72.4249C90.2023 72.9754 89.7404 73.4159 89.2125 73.4159Z" fill="#6A9586"/>
<path d="M93.5315 69.8898H35.5722C35.0373 69.8898 34.6094 69.4619 34.6094 68.9271C34.6094 68.3922 35.0373 67.9644 35.5722 67.9644H93.5315C94.0663 67.9644 94.4942 68.3922 94.4942 68.9271C94.4942 69.4619 94.0663 69.8898 93.5315 69.8898Z" fill="#6A9586"/>
<path d="M90.4292 73.3983H35.5722C35.0373 73.3983 34.6094 72.9704 34.6094 72.4356C34.6094 71.9008 35.0373 71.4729 35.5722 71.4729H90.4292C90.9641 71.4729 91.392 71.9008 91.392 72.4356C91.392 72.9704 90.9641 73.3983 90.4292 73.3983Z" fill="#6A9586"/>
<path d="M87.6692 76.9069H35.5722C35.0373 76.9069 34.6094 76.479 34.6094 75.9442C34.6094 75.4093 35.0373 74.9814 35.5722 74.9814H87.6692C88.2041 74.9814 88.632 75.4093 88.632 75.9442C88.632 76.479 88.1827 76.9069 87.6692 76.9069Z" fill="#6A9586"/>
<path d="M93.8225 73.0858H35.8632C35.3283 73.0858 34.9004 72.658 34.9004 72.1231C34.9004 71.5883 35.3283 71.1604 35.8632 71.1604H93.8225C94.3574 71.1604 94.7853 71.5883 94.7853 72.1231C94.7853 72.658 94.3574 73.0858 93.8225 73.0858Z" fill="#6A9586"/>
<path d="M90.7202 76.5944H35.8632C35.3283 76.5944 34.9004 76.1665 34.9004 75.6317C34.9004 75.0968 35.3283 74.6689 35.8632 74.6689H90.7202C91.2551 74.6689 91.683 75.0968 91.683 75.6317C91.683 76.1665 91.2551 76.5944 90.7202 76.5944Z" fill="#6A9586"/>
<path d="M87.9602 80.1029H35.8632C35.3283 80.1029 34.9004 79.675 34.9004 79.1402C34.9004 78.6054 35.3283 78.1775 35.8632 78.1775H87.9602C88.4951 78.1775 88.923 78.6054 88.923 79.1402C88.923 79.675 88.4737 80.1029 87.9602 80.1029Z" fill="#6A9586"/>
<path d="M151.898 136.64V31.5852H53.1387V54.3711V136.64H151.898Z" fill="white"/>
<path d="M151.898 137.137H53.1387C52.8636 137.137 52.6406 136.914 52.6406 136.64V31.5852C52.6406 31.3107 52.8636 31.0881 53.1387 31.0881H151.898C152.173 31.0881 152.396 31.3107 152.396 31.5852V136.64C152.396 136.914 152.173 137.137 151.898 137.137ZM53.6368 136.143H151.4V32.0824H53.6368V136.143Z" fill="#222723"/>
<path d="M151.898 43.7877H53.1387C52.8636 43.7877 52.6406 43.5651 52.6406 43.2906C52.6406 43.016 52.8636 42.7935 53.1387 42.7935H151.898C152.173 42.7935 152.396 43.016 152.396 43.2906C152.396 43.5651 152.173 43.7877 151.898 43.7877Z" fill="#222723"/>
<path d="M58.3715 39.3917C59.4525 39.3917 60.3289 38.517 60.3289 37.438C60.3289 36.3591 59.4525 35.4844 58.3715 35.4844C57.2904 35.4844 56.4141 36.3591 56.4141 37.438C56.4141 38.517 57.2904 39.3917 58.3715 39.3917Z" fill="#6A9586"/>
<path d="M63.8505 39.3917C64.9315 39.3917 65.8079 38.517 65.8079 37.438C65.8079 36.3591 64.9315 35.4844 63.8505 35.4844C62.7694 35.4844 61.8931 36.3591 61.8931 37.438C61.8931 38.517 62.7694 39.3917 63.8505 39.3917Z" fill="#6A9586"/>
<path d="M69.329 39.3917C70.41 39.3917 71.2864 38.517 71.2864 37.438C71.2864 36.3591 70.41 35.4844 69.329 35.4844C68.2479 35.4844 67.3716 36.3591 67.3716 37.438C67.3716 38.517 68.2479 39.3917 69.329 39.3917Z" fill="#6A9586"/>
<path d="M137.129 105.461H79.982C79.4546 105.461 79.0327 105.036 79.0327 104.505C79.0327 103.975 79.4546 103.55 79.982 103.55H137.129C137.656 103.55 138.078 103.975 138.078 104.505C138.078 105.036 137.656 105.461 137.129 105.461Z" fill="#6A9586"/>
<path d="M134.07 108.944H79.982C79.4546 108.944 79.0327 108.519 79.0327 107.988C79.0327 107.457 79.4546 107.032 79.982 107.032H134.07C134.597 107.032 135.019 107.457 135.019 107.988C135.019 108.519 134.597 108.944 134.07 108.944Z" fill="#6A9586"/>
<path d="M131.349 112.427H79.982C79.4546 112.427 79.0327 112.002 79.0327 111.471C79.0327 110.94 79.4546 110.515 79.982 110.515H131.349C131.876 110.515 132.298 110.94 132.298 111.471C132.298 112.002 131.855 112.427 131.349 112.427Z" fill="#6A9586"/>
<path d="M137.42 108.565H80.273C79.7456 108.565 79.3237 108.143 79.3237 107.616C79.3237 107.089 79.7456 106.667 80.273 106.667H137.42C137.947 106.667 138.369 107.089 138.369 107.616C138.369 108.143 137.947 108.565 137.42 108.565Z" fill="#6A9586"/>
<path d="M134.361 112.022H80.273C79.7456 112.022 79.3237 111.6 79.3237 111.073C79.3237 110.546 79.7456 110.125 80.273 110.125H134.361C134.888 110.125 135.31 110.546 135.31 111.073C135.31 111.6 134.888 112.022 134.361 112.022Z" fill="#6A9586"/>
<path d="M131.64 115.478H80.273C79.7456 115.478 79.3237 115.057 79.3237 114.53C79.3237 114.003 79.7456 113.581 80.273 113.581H131.64C132.167 113.581 132.589 114.003 132.589 114.53C132.589 115.057 132.146 115.478 131.64 115.478Z" fill="#6A9586"/>
<path d="M137.717 112.051H80.8408C80.3159 112.051 79.896 111.63 79.896 111.103C79.896 110.576 80.3159 110.154 80.8408 110.154H137.717C138.242 110.154 138.662 110.576 138.662 111.103C138.662 111.63 138.242 112.051 137.717 112.051Z" fill="#6A9586"/>
<path d="M134.672 115.508H80.8408C80.3159 115.508 79.896 115.087 79.896 114.56C79.896 114.033 80.3159 113.611 80.8408 113.611H134.672C135.197 113.611 135.617 114.033 135.617 114.56C135.617 115.087 135.197 115.508 134.672 115.508Z" fill="#6A9586"/>
<path d="M131.964 118.965H80.8408C80.3159 118.965 79.896 118.543 79.896 118.016C79.896 117.489 80.3159 117.068 80.8408 117.068H131.964C132.489 117.068 132.909 117.489 132.909 118.016C132.909 118.543 132.468 118.965 131.964 118.965Z" fill="#6A9586"/>
<path d="M7.95936 212.388C7.69722 212.388 7.52246 212.194 7.52246 211.904C7.52246 211.613 7.69722 211.419 7.95936 211.419H342.016C342.278 211.419 342.453 211.613 342.453 211.904C342.453 212.194 342.278 212.388 342.016 212.388H7.95936Z" fill="#222723"/>
<path d="M137.739 129.703L137.178 128.606C136.69 127.646 135.887 126.884 134.907 126.449L134.185 126.127L143.064 121.584L142.904 122.359C142.682 123.412 142.832 124.513 143.329 125.472L143.891 126.569C144.099 126.976 144.226 127.42 144.264 127.874C144.302 128.329 144.251 128.786 144.114 129.22C143.977 129.654 143.755 130.055 143.463 130.401C143.171 130.748 142.813 131.032 142.41 131.238L142.409 131.239C141.596 131.658 140.647 131.733 139.773 131.448C138.899 131.162 138.17 130.54 137.747 129.718L137.739 129.703Z" fill="white"/>
<path d="M142.352 131.714C141.456 132.098 140.445 132.125 139.525 131.788C138.604 131.452 137.841 130.778 137.39 129.902L137.382 129.886L136.821 128.789C136.374 127.913 135.642 127.217 134.747 126.82L134.025 126.497C133.955 126.466 133.895 126.416 133.853 126.352C133.81 126.288 133.786 126.214 133.783 126.137C133.781 126.061 133.8 125.985 133.838 125.92C133.877 125.854 133.933 125.801 134.001 125.766L142.88 121.222C142.948 121.188 143.024 121.173 143.099 121.18C143.175 121.188 143.248 121.216 143.308 121.263C143.369 121.31 143.415 121.373 143.442 121.445C143.468 121.516 143.474 121.594 143.459 121.669L143.298 122.444C143.096 123.406 143.233 124.411 143.686 125.287L144.248 126.386C144.717 127.303 144.807 128.367 144.498 129.344C144.189 130.321 143.505 131.132 142.599 131.597L142.595 131.599C142.515 131.64 142.434 131.679 142.352 131.714ZM138.096 129.52L138.1 129.528C138.284 129.889 138.537 130.21 138.844 130.473C139.151 130.736 139.506 130.936 139.889 131.062C140.272 131.187 140.675 131.236 141.075 131.204C141.475 131.173 141.865 131.063 142.221 130.88L142.226 130.878C142.582 130.695 142.898 130.444 143.156 130.138C143.414 129.832 143.61 129.478 143.731 129.094C143.853 128.711 143.898 128.307 143.864 127.906C143.83 127.504 143.718 127.112 143.534 126.752L142.972 125.655C142.443 124.63 142.276 123.456 142.499 122.329L135.121 126.104C136.162 126.581 137.013 127.399 137.536 128.423L138.096 129.52Z" fill="#222723"/>
<path d="M145.268 136.92C145.175 136.96 145.07 136.963 144.974 136.927C144.878 136.892 144.798 136.822 144.751 136.73L140.225 127.897C140.2 127.849 140.184 127.797 140.179 127.744C140.174 127.69 140.179 127.636 140.195 127.585C140.211 127.534 140.236 127.487 140.271 127.446C140.305 127.405 140.347 127.372 140.394 127.347C140.441 127.323 140.493 127.309 140.546 127.305C140.599 127.301 140.653 127.307 140.703 127.324C140.754 127.341 140.801 127.368 140.841 127.404C140.882 127.439 140.915 127.482 140.939 127.53L145.465 136.364C145.514 136.46 145.523 136.571 145.491 136.673C145.459 136.775 145.388 136.859 145.293 136.908C145.285 136.913 145.276 136.916 145.268 136.92Z" fill="#222723"/>
<path d="M138.763 124.175C138.672 124.214 138.569 124.218 138.475 124.185L135.873 123.288C135.822 123.271 135.775 123.245 135.734 123.21C135.693 123.175 135.66 123.132 135.636 123.084C135.612 123.036 135.597 122.983 135.593 122.93C135.589 122.876 135.596 122.823 135.613 122.772C135.63 122.721 135.657 122.674 135.692 122.634C135.727 122.594 135.77 122.561 135.817 122.538C135.865 122.515 135.917 122.502 135.971 122.499C136.024 122.496 136.077 122.504 136.128 122.523L138.73 123.42C138.807 123.446 138.874 123.496 138.923 123.561C138.972 123.627 139 123.706 139.004 123.788C139.007 123.87 138.986 123.95 138.943 124.019C138.9 124.089 138.837 124.143 138.763 124.175Z" fill="#222723"/>
<path d="M138.764 124.174C138.67 124.214 138.565 124.217 138.469 124.183C138.374 124.148 138.294 124.078 138.247 123.987L137.03 121.64C137.004 121.593 136.989 121.541 136.983 121.488C136.978 121.434 136.983 121.38 136.999 121.329C137.014 121.278 137.04 121.231 137.074 121.19C137.108 121.149 137.149 121.115 137.197 121.09C137.244 121.066 137.295 121.051 137.348 121.047C137.402 121.043 137.455 121.049 137.506 121.066C137.556 121.083 137.603 121.109 137.644 121.144C137.685 121.18 137.718 121.222 137.742 121.27L138.498 122.728L138.984 121.072C139.014 120.97 139.083 120.884 139.177 120.833C139.271 120.782 139.381 120.771 139.483 120.803C139.585 120.834 139.671 120.904 139.722 120.999C139.774 121.094 139.785 121.205 139.755 121.307L138.989 123.919C138.972 123.976 138.943 124.028 138.904 124.072C138.866 124.116 138.817 124.151 138.764 124.174Z" fill="#222723"/>
<path d="M143.99 81.3126C142.973 81.4763 142.285 82.434 142.454 83.4514C142.454 83.4522 142.454 83.453 142.454 83.4539C142.284 82.4347 141.321 81.7424 140.302 81.9075C139.284 82.0725 138.596 83.0325 138.765 84.0516L140.292 93.3947L135.165 85.4207C134.594 84.5591 133.435 84.32 132.575 84.8867C131.736 85.4405 131.49 86.5625 132.02 87.4219C131.475 86.5443 130.323 86.2718 129.447 86.8133C128.572 87.3549 128.304 88.5053 128.85 89.3829C128.858 89.396 128.866 89.4091 128.875 89.422L129.545 90.4727L134.073 97.5596C135.674 100.066 138.596 101.402 141.531 100.97L141.533 100.993C142.573 100.818 143.568 100.44 144.46 99.8809L144.445 99.8632C146.92 98.2388 148.201 95.3062 147.714 92.3781L146.338 84.094L146.134 82.8656C145.969 81.8476 145.011 81.1521 143.994 81.3121C143.992 81.3123 143.991 81.3124 143.99 81.3126Z" fill="white"/>
<path d="M145.476 99.6356C145.263 99.8165 145.04 99.9872 144.807 100.147C144.776 100.187 144.737 100.223 144.693 100.251C143.748 100.844 142.71 101.238 141.607 101.424C141.556 101.432 141.504 101.431 141.453 101.422C138.399 101.815 135.371 100.401 133.706 97.7932L128.48 89.6123C127.807 88.5311 128.138 87.1095 129.216 86.4419C129.867 86.0391 130.645 86.0024 131.306 86.2748C131.354 85.5869 131.712 84.9324 132.334 84.5222C133.392 83.8241 134.825 84.1196 135.528 85.1809L139.523 91.3938L138.334 84.1201C138.126 82.8665 138.976 81.6803 140.231 81.4768C140.988 81.354 141.723 81.6175 142.232 82.1221C142.286 82.0129 142.35 81.9074 142.423 81.8065C142.781 81.3079 143.312 80.9797 143.919 80.882C143.92 80.8818 143.922 80.8814 143.924 80.8812C143.924 80.8812 143.925 80.881 143.926 80.8809L143.926 80.8811C145.187 80.6907 146.363 81.5488 146.565 82.7979L148.145 92.3085C148.604 95.0741 147.568 97.851 145.476 99.6356ZM144.161 99.5306C144.174 99.5189 144.189 99.5081 144.204 99.498C146.532 97.9698 147.741 95.2023 147.284 92.4477L145.704 82.9351C145.577 82.1546 144.842 81.6206 144.063 81.743L143.99 81.3126L144.061 81.7433C143.685 81.8041 143.355 82.0077 143.132 82.3174C142.91 82.6263 142.822 83.0036 142.884 83.3798C142.884 83.3812 142.885 83.3826 142.885 83.384C142.924 83.6215 142.764 83.8454 142.527 83.8843C142.308 83.9201 142.1 83.7866 142.037 83.5797C142.031 83.5615 142.027 83.5428 142.024 83.5233C141.894 82.7433 141.154 82.2115 140.374 82.3378C139.594 82.4643 139.066 83.2016 139.196 83.9816L140.723 93.3261C140.756 93.5302 140.642 93.7293 140.449 93.8024C140.256 93.8758 140.038 93.8035 139.925 93.6293L134.798 85.6553C134.59 85.3409 134.267 85.1225 133.892 85.0452C133.517 84.968 133.135 85.041 132.817 85.251C132.169 85.6773 131.983 86.5314 132.392 87.194C132.518 87.3992 132.455 87.6677 132.251 87.7935C132.046 87.9195 131.777 87.8557 131.65 87.651C131.233 86.9794 130.348 86.7702 129.678 87.1847C129.008 87.5986 128.803 88.4823 129.22 89.154L129.913 90.2394L134.441 97.3262C135.947 99.6843 138.704 100.945 141.466 100.539C141.509 100.533 141.552 100.533 141.595 100.539C142.487 100.373 143.332 100.052 144.109 99.5841C144.124 99.5647 144.141 99.5469 144.161 99.5306Z" fill="#222723"/>
<path d="M143.918 90.8857C143.859 90.9355 143.787 90.9704 143.705 90.9836C143.468 91.0219 143.243 90.8604 143.203 90.6225L141.999 83.3756C141.96 83.1377 142.12 82.9138 142.358 82.8752C142.596 82.8369 142.821 82.9984 142.86 83.2363L144.064 90.4832C144.09 90.6396 144.03 90.7901 143.918 90.8857Z" fill="#222723"/>
<path d="M151.907 123.213C151.87 123.245 151.827 123.27 151.779 123.289C151.554 123.374 151.302 123.261 151.215 123.036L141.461 97.648C141.375 97.4228 141.487 97.1708 141.712 97.0854C141.937 96.9999 142.189 97.1131 142.276 97.3385L152.03 122.726C152.098 122.903 152.043 123.097 151.907 123.213Z" fill="#222723"/>
<path d="M136.188 93.8235C136.173 93.8365 136.157 93.8486 136.139 93.8597C135.936 93.9889 135.666 93.9285 135.536 93.7251L131.575 87.5271C131.445 87.3237 131.504 87.0549 131.707 86.9249C131.91 86.7958 132.18 86.8562 132.31 87.0596L136.271 93.2575C136.39 93.4436 136.351 93.6849 136.188 93.8235Z" fill="#222723"/>
<path d="M143.338 100.908C143.301 100.939 143.259 100.965 143.211 100.983C142.986 101.068 142.733 100.955 142.647 100.73L139.888 93.5464C139.801 93.3212 139.914 93.0692 140.139 92.9837C140.363 92.8982 140.616 93.0115 140.703 93.2368L143.461 100.42C143.53 100.597 143.475 100.791 143.338 100.908Z" fill="#222723"/>
<path d="M267.652 93.6392C267.606 93.6392 267.559 93.6328 267.513 93.6193L262.439 92.1447C262.176 92.0682 262.024 91.7937 262.101 91.5316C262.178 91.2694 262.453 91.1191 262.717 91.1954L267.791 92.67C268.054 92.7464 268.205 93.021 268.129 93.2831C268.065 93.4991 267.867 93.6392 267.652 93.6392Z" fill="#222723"/>
<path d="M262.578 91.67C261.684 88.8682 256.843 88.3457 254.114 89.3165C253.982 89.3626 253.856 89.4137 253.737 89.4665C253.309 89.6644 252.823 89.699 252.372 89.5637L251.236 89.2077C250.789 89.0586 250.412 88.7505 250.177 88.3424C250.109 88.232 250.037 88.1183 249.955 88.0128C248.286 85.6543 244.023 83.3107 241.681 85.0841C239.339 86.8575 238.431 90.1059 241.626 93.0759C244.013 95.2943 247.67 94.0236 248.15 93.7055C249.1 93.0759 249.873 92.3754 250.316 91.5975C250.446 91.3416 250.738 91.2115 251.016 91.286L251.359 91.3948C251.631 91.4925 251.796 91.7691 251.751 92.054C251.665 92.944 251.892 93.9593 252.304 95.0207C252.512 95.5547 254.768 98.6911 258.002 98.2478C262.324 97.6412 263.47 94.4669 262.578 91.67Z" fill="white"/>
<path d="M257.388 98.7842C254.339 98.7842 252.15 95.9907 251.841 95.2C251.36 93.9606 251.169 92.9164 251.257 92.0068C251.258 91.997 251.259 91.9873 251.26 91.9776C251.268 91.9287 251.241 91.881 251.196 91.8622L250.881 91.7622C250.832 91.7523 250.782 91.7762 250.759 91.8205C250.756 91.8278 250.752 91.8349 250.748 91.8418C250.294 92.6377 249.534 93.382 248.425 94.1172C247.664 94.6217 243.798 95.7716 241.287 93.4375C239.351 91.6376 239.013 89.8973 239.071 88.7543C239.148 87.2245 239.99 85.7434 241.38 84.6905C242.198 84.071 243.28 83.8435 244.51 84.0327C246.889 84.3988 249.25 86.1633 250.356 87.7203C250.451 87.8457 250.533 87.9746 250.601 88.0845C250.782 88.4002 251.061 88.6281 251.394 88.7388L252.521 89.092C252.85 89.1908 253.21 89.1651 253.528 89.018C253.68 88.9508 253.815 88.8969 253.95 88.8498C255.752 88.2088 258.708 88.1165 260.867 89.182C261.983 89.733 262.738 90.5416 263.051 91.5202C263.578 93.1748 263.411 94.8673 262.592 96.1637C261.979 97.1345 260.696 98.3689 258.071 98.7373C257.839 98.7692 257.611 98.7842 257.388 98.7842ZM252.244 92.1136C252.175 92.8538 252.351 93.7719 252.767 94.8426C252.903 95.1923 254.943 98.1682 257.934 97.7581C259.712 97.5086 261.033 96.7752 261.752 95.6373C262.415 94.5878 262.543 93.1962 262.104 91.8199C261.872 91.0927 261.308 90.5035 260.426 90.0684C258.767 89.2494 256.125 89.1263 254.281 89.7823C254.169 89.8213 254.058 89.8655 253.939 89.9184C253.407 90.1643 252.797 90.2077 252.229 90.0374L251.087 89.6796C250.515 89.4891 250.042 89.1024 249.746 88.5882C249.698 88.5102 249.632 88.4054 249.561 88.3136C249.557 88.3085 249.553 88.3032 249.55 88.298C248.422 86.7052 246.19 85.2918 244.359 85.0101C243.388 84.8606 242.588 85.0182 241.981 85.4777C240.825 86.3537 240.125 87.566 240.063 88.8041C239.995 90.1429 240.653 91.495 241.965 92.7145C244.136 94.7333 247.574 93.4931 247.875 93.294C248.834 92.6583 249.508 92.0083 249.88 91.362C250.117 90.9076 250.647 90.6752 251.145 90.8086C251.152 90.8106 251.16 90.8127 251.167 90.815L251.51 90.9238C251.515 90.9256 251.521 90.9276 251.527 90.9297C252.017 91.1054 252.316 91.6013 252.244 92.1136Z" fill="#222723"/>
<path d="M260.34 95.0741C260.985 93.0452 259.729 90.8393 257.535 90.1471C255.341 89.4548 253.039 90.5383 252.394 92.5672C251.748 94.596 253.004 96.8019 255.198 97.4942C257.392 98.1864 259.694 97.1029 260.34 95.0741Z" fill="#222723"/>
<path d="M249.29 91.7043C249.962 89.5839 248.648 87.2804 246.355 86.5593C244.062 85.8382 241.658 86.9725 240.985 89.0929C240.313 91.2132 241.627 93.5167 243.92 94.2378C246.214 94.9589 248.618 93.8246 249.29 91.7043Z" fill="#222723"/>
<path d="M151.267 22.3718H153.765C154.906 22.3716 155.831 23.2955 155.831 24.4354C155.831 24.7564 155.756 25.0731 155.613 25.3599L152.515 31.5519L149.417 25.3599C148.906 24.3407 149.319 23.1006 150.339 22.5902C150.627 22.4462 150.945 22.3714 151.267 22.3718Z" fill="#6A9586"/>
<path d="M161.704 30.303V32.7987C161.705 33.9386 160.781 34.864 159.64 34.8652C159.318 34.8656 159 34.7908 158.713 34.6469L152.515 31.5519L158.713 28.4549C159.735 27.9457 160.977 28.3608 161.486 29.3819C161.629 29.6679 161.704 29.9833 161.704 30.303Z" fill="#6A9586"/>
<path d="M312.998 52.3823C312.895 52.3941 310.966 51.9106 310.661 51.8177L313.968 45.3424C313.998 45.2829 314.045 45.233 314.102 45.1981C314.159 45.1632 314.224 45.1448 314.291 45.1448H314.296C314.364 45.1456 314.43 45.1654 314.487 45.202C314.545 45.2385 314.59 45.2902 314.619 45.3513L316.3 48.8812C316.304 48.8884 316.307 48.8956 316.31 48.9028C316.577 49.5737 316.538 50.3214 316.34 51.0538C316.295 51.0767 314.106 52.2553 312.998 52.3823Z" fill="white"/>
<path d="M313.023 52.7815C312.692 52.7815 310.563 52.207 310.543 52.201C310.487 52.1839 310.435 52.1548 310.391 52.1157C310.348 52.0765 310.313 52.0284 310.29 51.9745C310.267 51.9206 310.256 51.8624 310.258 51.8039C310.26 51.7454 310.275 51.688 310.302 51.6358L313.609 45.1605C313.674 45.0335 313.773 44.9272 313.896 44.8536C314.018 44.78 314.159 44.742 314.302 44.744C314.445 44.7459 314.584 44.7878 314.705 44.8647C314.825 44.9416 314.921 45.0506 314.983 45.1793L316.664 48.7094C316.671 48.7228 316.676 48.7368 316.682 48.7506C316.958 49.4434 316.973 50.2519 316.729 51.1574C316.714 51.2118 316.689 51.2625 316.653 51.3062C316.618 51.3499 316.573 51.3857 316.523 51.4113L316.511 51.4178C315.963 51.707 314.096 52.6603 313.044 52.7805C313.037 52.7812 313.03 52.7815 313.023 52.7815ZM311.244 51.56C311.844 51.7149 312.778 51.9419 312.993 51.9788C313.697 51.8817 314.972 51.3137 315.994 50.7824C316.148 50.1169 316.129 49.535 315.936 49.0505L314.29 45.5953L311.244 51.56Z" fill="#222723"/>
<path d="M316.902 54.8107L322.483 52.8067C322.628 52.7559 322.785 52.7466 322.935 52.7796C323.085 52.8127 323.223 52.8869 323.333 52.9938C323.443 53.1007 323.521 53.2362 323.558 53.3849C323.595 53.5335 323.59 53.6896 323.543 53.8354C323.502 53.9543 323.435 54.0627 323.347 54.1528C323.259 54.2429 323.152 54.3124 323.033 54.3564L321.692 54.824L322.832 55.0111C323.047 55.0447 323.24 55.1622 323.368 55.3376C323.497 55.513 323.55 55.7319 323.516 55.9463C323.482 56.1607 323.364 56.3529 323.188 56.4807C323.012 56.6084 322.792 56.6613 322.577 56.6277L318.912 56.0498" fill="white"/>
<path d="M322.708 57.0387C322.643 57.0387 322.579 57.0336 322.515 57.0236L318.849 56.4456C318.744 56.428 318.651 56.37 318.589 56.2843C318.527 56.1986 318.502 56.0921 318.519 55.9879C318.535 55.8836 318.592 55.7901 318.678 55.7276C318.763 55.6651 318.87 55.6386 318.974 55.6539L322.64 56.2317C322.704 56.2418 322.771 56.237 322.833 56.2177C322.896 56.1984 322.953 56.165 323 56.1202C323.057 56.0679 323.097 56.0007 323.116 55.9266C323.135 55.8524 323.132 55.7744 323.108 55.7017C323.085 55.6254 323.041 55.5571 322.981 55.5048C322.921 55.4526 322.847 55.4186 322.768 55.4069L321.626 55.2198C321.538 55.2053 321.457 55.1619 321.396 55.0965C321.336 55.0312 321.299 54.9476 321.291 54.8589C321.283 54.7703 321.305 54.6816 321.354 54.6068C321.402 54.5321 321.475 54.4756 321.559 54.4462L322.893 53.9811C322.955 53.9579 323.011 53.9215 323.057 53.8746C323.103 53.8276 323.139 53.7711 323.161 53.7091C323.186 53.6355 323.189 53.5562 323.171 53.4807C323.152 53.4053 323.111 53.3368 323.055 53.2834C322.999 53.227 322.928 53.1877 322.851 53.1702C322.773 53.1527 322.692 53.1578 322.618 53.1848L317.038 55.1876C316.988 55.2061 316.935 55.2146 316.882 55.2126C316.829 55.2105 316.777 55.198 316.728 55.1757C316.68 55.1534 316.637 55.1218 316.601 55.0827C316.565 55.0436 316.537 54.9979 316.519 54.948C316.501 54.8982 316.493 54.8452 316.496 54.7923C316.498 54.7394 316.511 54.6875 316.534 54.6397C316.557 54.5918 316.589 54.549 316.629 54.5136C316.669 54.4782 316.715 54.451 316.765 54.4336L322.347 52.4296C322.563 52.3531 322.796 52.3386 323.02 52.3875C323.245 52.4365 323.451 52.547 323.615 52.7066C323.779 52.8661 323.895 53.0684 323.95 53.2903C324.005 53.5123 323.996 53.7451 323.925 53.9624C323.868 54.13 323.775 54.2837 323.654 54.4131C323.533 54.5425 323.385 54.6448 323.221 54.7132C323.378 54.7854 323.517 54.8897 323.631 55.0193C323.744 55.1489 323.828 55.3009 323.878 55.4653C323.947 55.6816 323.952 55.9126 323.894 56.1319C323.837 56.3512 323.718 56.5499 323.552 56.7051C323.324 56.919 323.022 57.0383 322.708 57.0387Z" fill="#222723"/>
<path d="M306.214 53.2607L303.048 53.568L306.147 54.8105L306.214 53.2607Z" fill="#222723"/>
<path d="M307.622 56.1733C308.196 56.436 308.677 56.8642 309.004 57.4025C309.365 57.9845 309.845 58.4851 310.412 58.8721C312.437 60.2882 315.214 59.9275 316.917 58.1373L318.916 56.0264L312.92 52.1787C312.21 51.9073 311.555 51.5089 310.989 51.003C310.442 50.5255 309.745 50.2525 309.019 50.2309C308.292 50.2093 307.58 50.4403 307.006 50.8844C306.431 51.3285 306.03 51.958 305.871 52.6646C305.712 53.3713 305.804 54.1112 306.133 54.7572C306.458 55.3808 306.982 55.879 307.622 56.1733Z" fill="white"/>
<path d="M313.192 60.1362C312.115 60.1407 311.064 59.8138 310.181 59.2001C309.569 58.7828 309.052 58.2426 308.662 57.6141C308.378 57.1441 307.959 56.7699 307.459 56.5398L307.455 56.5378C306.734 56.207 306.144 55.6466 305.778 54.9449C305.404 54.216 305.296 53.3797 305.475 52.5804C305.653 51.781 306.105 51.0686 306.754 50.566C307.403 50.0633 308.208 49.8019 309.03 49.8268C309.851 49.8517 310.638 50.1614 311.255 50.7024C311.785 51.1757 312.398 51.5486 313.062 51.803C313.089 51.813 313.114 51.8258 313.138 51.8411L319.133 55.6888C319.183 55.7207 319.225 55.7631 319.256 55.8129C319.288 55.8628 319.308 55.9189 319.315 55.9773C319.322 56.0357 319.316 56.095 319.298 56.1508C319.279 56.2067 319.249 56.2579 319.208 56.3007L317.21 58.4116C316.692 58.9555 316.069 59.3888 315.379 59.6853C314.688 59.9818 313.944 60.1352 313.192 60.1362ZM307.787 55.8076C308.433 56.1024 308.976 56.584 309.345 57.1899C309.677 57.7254 310.117 58.1856 310.639 58.5409C312.468 59.8204 315.04 59.5269 316.625 57.8616L318.291 56.1022L312.737 52.5381C311.997 52.2496 311.315 51.8315 310.722 51.3036C310.246 50.8882 309.639 50.6508 309.007 50.632C308.374 50.6132 307.754 50.8143 307.254 51.2007C306.754 51.5871 306.404 52.1348 306.264 52.7499C306.125 53.365 306.205 54.0092 306.49 54.5722C306.773 55.1158 307.229 55.5504 307.787 55.8076H307.787Z" fill="#222723"/>
<path d="M307.863 54.4631C308.308 54.4631 308.668 54.1042 308.668 53.6615C308.668 53.2188 308.308 52.8599 307.863 52.8599C307.419 52.8599 307.059 53.2188 307.059 53.6615C307.059 54.1042 307.419 54.4631 307.863 54.4631Z" fill="#222723"/>
<path d="M310.205 55.3675C310.087 55.2799 309.981 55.1781 309.889 55.0645C309.881 55.0546 309.874 55.0445 309.868 55.0341C309.588 54.5828 309.493 54.0417 309.603 53.5228C309.675 53.1998 309.624 52.8614 309.459 52.5742C309.438 52.5443 309.419 52.5145 309.4 52.4846C309.389 52.4673 309.379 52.4498 309.366 52.4326C309.359 52.4242 309.353 52.4153 309.347 52.4059C309.173 52.1273 308.894 51.9292 308.573 51.8551C308.252 51.781 307.914 51.8369 307.634 52.0105L306.092 52.9725C306.025 53.0144 305.946 53.0355 305.867 53.0333C305.788 53.031 305.711 53.0054 305.646 52.9597C305.581 52.914 305.531 52.8502 305.503 52.7764C305.474 52.7026 305.468 52.6221 305.486 52.5449C305.67 51.7242 306.149 50.999 306.833 50.5066C307.482 50.0287 308.276 49.7876 309.082 49.8239C309.887 49.8602 310.656 50.1716 311.259 50.7059C311.729 51.1327 312.268 51.4765 312.855 51.7224L320.158 46.0903C320.218 46.0444 320.289 46.016 320.364 46.0084C320.439 46.0008 320.514 46.0143 320.582 46.0473C320.649 46.0803 320.706 46.1315 320.746 46.1951C320.786 46.2588 320.807 46.3322 320.807 46.4072V50.7358C320.807 50.7447 320.807 50.7534 320.806 50.7626C320.624 53.5281 316.353 55.4749 315.901 55.6731C315.111 56.1818 314.191 56.4531 313.251 56.4544C312.139 56.4551 311.063 56.0709 310.205 55.3675Z" fill="#4F8C77"/>
<path d="M312.689 52.5155C312.635 52.4808 312.589 52.4336 312.557 52.3779C312.525 52.3222 312.507 52.2597 312.504 52.1955C312.502 52.1313 312.514 52.0674 312.541 52.0092C312.569 51.951 312.61 51.9001 312.661 51.8609L320.158 46.0893C320.218 46.0435 320.289 46.0152 320.364 46.0077C320.439 46.0001 320.514 46.0136 320.582 46.0466C320.649 46.0797 320.706 46.1309 320.746 46.1945C320.786 46.2581 320.807 46.3316 320.807 46.4065V48.0498C320.804 48.7821 320.61 49.501 320.243 50.1357C319.876 50.7704 319.35 51.2989 318.716 51.6693L317.081 52.6172C316.442 52.9922 315.714 53.1902 314.972 53.1906C314.162 53.1892 313.369 52.9548 312.689 52.5155Z" fill="#6A9586"/>
<path d="M329.438 163.293L323.959 166.561L320.676 161.105C320.166 160.26 319.827 159.322 319.681 158.347C319.534 157.371 319.582 156.376 319.821 155.418C320.061 154.461 320.488 153.56 321.077 152.767C321.667 151.974 322.407 151.304 323.257 150.795L323.277 150.783L328.757 147.516L332.039 152.971C332.55 153.817 332.888 154.754 333.035 155.73C333.181 156.706 333.133 157.701 332.894 158.658C332.654 159.615 332.228 160.516 331.638 161.31C331.049 162.103 330.308 162.773 329.459 163.281L329.438 163.293Z" fill="white"/>
<path d="M323.959 167.023C323.878 167.023 323.799 167.003 323.729 166.963C323.66 166.924 323.601 166.867 323.56 166.798L320.278 161.343C319.183 159.53 318.857 157.359 319.371 155.306C319.884 153.254 321.196 151.488 323.017 150.399L323.038 150.386L328.518 147.119C328.624 147.056 328.75 147.037 328.87 147.067C328.989 147.097 329.092 147.173 329.156 147.278L332.438 152.733C333.532 154.546 333.859 156.718 333.345 158.77C332.831 160.823 331.52 162.588 329.698 163.678L329.678 163.69L324.198 166.958C324.125 167.001 324.043 167.023 323.959 167.023ZM328.597 148.151L323.498 151.19C322.701 151.667 322.005 152.295 321.452 153.04C320.899 153.784 320.498 154.63 320.273 155.528C320.048 156.427 320.003 157.361 320.14 158.277C320.278 159.193 320.596 160.073 321.075 160.867L324.119 165.925L329.22 162.884C330.829 161.921 331.989 160.36 332.443 158.546C332.897 156.731 332.608 154.812 331.64 153.209L328.597 148.151Z" fill="#222723"/>
<path d="M312.529 212.388C312.491 212.388 312.453 212.383 312.416 212.374C312.357 212.359 312.301 212.333 312.252 212.297C312.203 212.26 312.161 212.215 312.13 212.163C312.099 212.111 312.078 212.053 312.069 211.993C312.06 211.932 312.063 211.871 312.078 211.812L325.724 157.649C325.754 157.53 325.831 157.428 325.937 157.365C326.042 157.302 326.169 157.283 326.289 157.313C326.408 157.343 326.511 157.419 326.574 157.524C326.638 157.629 326.657 157.756 326.627 157.875L312.98 212.037C312.955 212.137 312.897 212.226 312.815 212.29C312.734 212.353 312.633 212.388 312.529 212.388Z" fill="#222723"/>
<path d="M328.757 147.979C328.719 147.979 328.681 147.974 328.644 147.965C328.585 147.95 328.529 147.924 328.48 147.888C328.431 147.852 328.389 147.806 328.358 147.754C328.327 147.702 328.306 147.644 328.297 147.584C328.288 147.524 328.291 147.462 328.306 147.403L329.544 142.49C329.574 142.371 329.65 142.268 329.756 142.205C329.862 142.142 329.988 142.124 330.108 142.154C330.228 142.183 330.33 142.259 330.394 142.365C330.457 142.47 330.476 142.596 330.446 142.715L329.208 147.629C329.183 147.729 329.125 147.818 329.043 147.881C328.961 147.944 328.861 147.979 328.757 147.979Z" fill="#222723"/>
<path d="M328.756 147.979C328.647 147.979 328.542 147.94 328.458 147.87C328.374 147.8 328.318 147.703 328.299 147.596L327.418 142.619C327.406 142.559 327.407 142.497 327.419 142.437C327.432 142.377 327.457 142.32 327.492 142.269C327.527 142.219 327.571 142.175 327.623 142.142C327.675 142.109 327.733 142.086 327.794 142.076C327.855 142.065 327.917 142.066 327.977 142.08C328.037 142.094 328.094 142.119 328.144 142.154C328.195 142.19 328.237 142.235 328.27 142.288C328.302 142.34 328.324 142.398 328.334 142.459L329.215 147.436C329.227 147.502 329.224 147.571 329.206 147.636C329.188 147.701 329.157 147.762 329.113 147.814C329.069 147.866 329.015 147.907 328.953 147.936C328.891 147.964 328.824 147.979 328.756 147.979Z" fill="#222723"/>
<path d="M328.757 147.979C328.669 147.979 328.584 147.954 328.51 147.908C328.436 147.862 328.376 147.796 328.338 147.718C328.3 147.639 328.285 147.552 328.295 147.465C328.304 147.379 328.338 147.297 328.392 147.229L331.548 143.26C331.626 143.168 331.737 143.11 331.857 143.099C331.977 143.087 332.097 143.122 332.191 143.197C332.286 143.271 332.347 143.379 332.363 143.498C332.379 143.617 332.348 143.738 332.276 143.834L329.122 147.803C329.078 147.858 329.023 147.902 328.959 147.933C328.896 147.963 328.827 147.979 328.757 147.979Z" fill="#222723"/>
<path d="M323.062 173.819C325.099 173.819 326.75 172.175 326.75 170.147C326.75 168.12 325.099 166.476 323.062 166.476C321.024 166.476 319.373 168.12 319.373 170.147C319.373 172.175 321.024 173.819 323.062 173.819Z" fill="white"/>
<path d="M323.061 174.282C322.24 174.282 321.437 174.04 320.754 173.585C320.071 173.131 319.539 172.485 319.224 171.73C318.91 170.974 318.828 170.143 318.988 169.341C319.148 168.539 319.544 167.802 320.125 167.224C320.706 166.646 321.446 166.252 322.251 166.093C323.057 165.933 323.892 166.015 324.651 166.328C325.41 166.641 326.058 167.171 326.515 167.851C326.971 168.531 327.215 169.33 327.215 170.148C327.213 171.244 326.775 172.295 325.997 173.07C325.218 173.845 324.163 174.281 323.061 174.282ZM323.061 166.939C322.424 166.939 321.801 167.127 321.271 167.48C320.741 167.832 320.327 168.333 320.083 168.92C319.839 169.506 319.776 170.151 319.9 170.774C320.024 171.396 320.331 171.968 320.782 172.417C321.233 172.865 321.807 173.171 322.433 173.295C323.058 173.419 323.706 173.355 324.295 173.112C324.884 172.869 325.387 172.458 325.742 171.93C326.096 171.403 326.285 170.782 326.285 170.148C326.284 169.297 325.944 168.481 325.34 167.88C324.735 167.278 323.916 166.939 323.061 166.939V166.939Z" fill="#222723"/>
<path d="M65.0899 160.528C67.4042 160.215 69.0256 158.089 68.7114 155.78C68.3973 153.471 66.2665 151.853 63.9521 152.166C61.6378 152.479 60.0164 154.605 60.3306 156.914C60.6448 159.223 62.7756 160.842 65.0899 160.528Z" fill="white"/>
<path d="M65.1477 160.957C64.234 161.08 63.3041 160.931 62.4756 160.527C61.647 160.124 60.957 159.484 60.4928 158.689C60.0287 157.894 59.8111 156.98 59.8678 156.061C59.9244 155.143 60.2527 154.262 60.811 153.53C61.3694 152.798 62.1328 152.248 63.0047 151.949C63.8766 151.649 64.8178 151.615 65.7094 151.85C66.6009 152.084 67.4027 152.577 68.0134 153.267C68.6241 153.956 69.0162 154.811 69.1402 155.722C69.305 156.944 68.9772 158.182 68.2287 159.163C67.4803 160.145 66.3722 160.79 65.1477 160.957ZM64.0103 152.594C63.2664 152.695 62.5691 153.014 62.0067 153.51C61.4442 154.006 61.0418 154.657 60.8504 155.381C60.659 156.106 60.6871 156.871 60.9313 157.579C61.1754 158.287 61.6246 158.908 62.222 159.361C62.8194 159.815 63.5383 160.082 64.2876 160.128C65.0369 160.174 65.7831 159.997 66.4318 159.62C67.0804 159.243 67.6024 158.682 67.9318 158.009C68.2612 157.336 68.3831 156.581 68.2821 155.838C68.1457 154.843 67.6193 153.943 66.8184 153.335C66.0176 152.727 65.0077 152.46 64.0103 152.594Z" fill="#222723"/>
<path d="M70.7359 168.844C73.0502 168.531 74.6716 166.405 74.3574 164.096C74.0433 161.786 71.9125 160.168 69.5981 160.481C67.2838 160.795 65.6624 162.92 65.9766 165.23C66.2908 167.539 68.4216 169.157 70.7359 168.844Z" fill="white"/>
<path d="M70.7937 169.272C69.88 169.396 68.9501 169.246 68.1216 168.843C67.293 168.439 66.603 167.799 66.1388 167.004C65.6747 166.209 65.4571 165.295 65.5138 164.377C65.5704 163.459 65.8987 162.578 66.457 161.846C67.0154 161.114 67.7788 160.563 68.6507 160.264C69.5226 159.965 70.4638 159.93 71.3554 160.165C72.2469 160.4 73.0487 160.893 73.6594 161.582C74.2701 162.271 74.6622 163.126 74.7862 164.038C74.9511 165.26 74.6233 166.497 73.8748 167.479C73.1263 168.46 72.0182 169.105 70.7937 169.272ZM69.6563 160.91C68.9124 161.01 68.2151 161.329 67.6527 161.825C67.0902 162.321 66.6878 162.973 66.4964 163.697C66.305 164.421 66.3331 165.186 66.5773 165.894C66.8214 166.603 67.2706 167.223 67.868 167.677C68.4654 168.13 69.1843 168.397 69.9336 168.443C70.6829 168.489 71.4291 168.313 72.0778 167.936C72.7264 167.558 73.2485 166.998 73.5778 166.325C73.9072 165.652 74.0291 164.896 73.9281 164.154C73.7917 163.159 73.2653 162.259 72.4644 161.65C71.6636 161.042 70.6537 160.776 69.6563 160.91Z" fill="#222723"/>
<path d="M62.398 170.206C64.7123 169.893 66.3337 167.767 66.0196 165.458C65.7054 163.149 63.5746 161.531 61.2603 161.844C58.9459 162.157 57.3245 164.283 57.6387 166.592C57.9529 168.901 60.0837 170.52 62.398 170.206Z" fill="white"/>
<path d="M62.4558 170.635C61.5421 170.758 60.6122 170.609 59.7837 170.205C58.9551 169.802 58.2651 169.162 57.801 168.367C57.3368 167.572 57.1192 166.658 57.1759 165.739C57.2325 164.821 57.5608 163.94 58.1191 163.208C58.6775 162.476 59.4409 161.926 60.3128 161.627C61.1847 161.327 62.1259 161.293 63.0175 161.528C63.909 161.762 64.7108 162.255 65.3215 162.945C65.9322 163.634 66.3243 164.489 66.4483 165.4C66.6131 166.622 66.2853 167.86 65.5368 168.841C64.7884 169.823 63.6803 170.468 62.4558 170.635ZM61.3184 162.272C60.5745 162.373 59.8772 162.692 59.3148 163.188C58.7523 163.684 58.3499 164.335 58.1585 165.059C57.9671 165.784 57.9952 166.549 58.2394 167.257C58.4835 167.965 58.9327 168.586 59.5301 169.039C60.1276 169.493 60.8464 169.76 61.5957 169.806C62.345 169.852 63.0912 169.675 63.7399 169.298C64.3885 168.921 64.9106 168.36 65.2399 167.687C65.5693 167.014 65.6912 166.259 65.5902 165.516C65.4538 164.521 64.9274 163.621 64.1265 163.013C63.3257 162.405 62.3158 162.138 61.3184 162.272Z" fill="#222723"/>
<path d="M72.2549 178.096C74.5692 177.783 76.1907 175.657 75.8765 173.348C75.5623 171.039 73.4315 169.421 71.1172 169.734C68.8029 170.047 67.1814 172.173 67.4956 174.482C67.8098 176.791 69.9406 178.409 72.2549 178.096Z" fill="white"/>
<path d="M72.3127 178.525C71.3991 178.648 70.4692 178.499 69.6406 178.095C68.8121 177.692 68.1221 177.052 67.6579 176.257C67.1937 175.462 66.9762 174.548 67.0328 173.629C67.0894 172.711 67.4177 171.83 67.9761 171.098C68.5344 170.366 69.2979 169.816 70.1697 169.516C71.0416 169.217 71.9829 169.183 72.8744 169.418C73.766 169.652 74.5678 170.145 75.1785 170.835C75.7892 171.524 76.1813 172.378 76.3053 173.29C76.4701 174.512 76.1423 175.75 75.3938 176.731C74.6453 177.713 73.5373 178.358 72.3127 178.525ZM71.1754 170.162C70.4314 170.263 69.7342 170.581 69.1717 171.078C68.6092 171.574 68.2068 172.225 68.0154 172.949C67.824 173.674 67.8522 174.438 68.0963 175.147C68.3405 175.855 68.7896 176.475 69.3871 176.929C69.9845 177.383 70.7033 177.65 71.4526 177.696C72.202 177.742 72.9481 177.565 73.5968 177.188C74.2455 176.811 74.7675 176.25 75.0969 175.577C75.4262 174.904 75.5481 174.149 75.4472 173.406C75.3107 172.411 74.7843 171.511 73.9835 170.903C73.1826 170.295 72.1727 170.028 71.1754 170.162Z" fill="#222723"/>
<path d="M63.9004 179.447C66.2147 179.134 67.8362 177.008 67.522 174.698C67.2078 172.389 65.077 170.771 62.7627 171.084C60.4484 171.397 58.827 173.523 59.1411 175.832C59.4553 178.142 61.5861 179.76 63.9004 179.447Z" fill="white"/>
<path d="M63.9582 179.875C63.0446 179.999 62.1147 179.849 61.2861 179.446C60.4576 179.042 59.7676 178.402 59.3034 177.607C58.8392 176.812 58.6217 175.898 58.6783 174.98C58.735 174.061 59.0632 173.181 59.6216 172.448C60.18 171.716 60.9434 171.166 61.8153 170.867C62.6872 170.568 63.6284 170.533 64.5199 170.768C65.4115 171.003 66.2133 171.496 66.824 172.185C67.4347 172.874 67.8268 173.729 67.9508 174.64C68.1156 175.863 67.7878 177.1 67.0393 178.082C66.2908 179.063 65.1827 179.708 63.9582 179.875ZM62.8209 171.513C62.0769 171.613 61.3797 171.932 60.8172 172.428C60.2547 172.924 59.8524 173.575 59.6609 174.3C59.4695 175.024 59.4977 175.789 59.7418 176.497C59.986 177.206 60.4352 177.826 61.0326 178.28C61.63 178.733 62.3488 179 63.0981 179.046C63.8475 179.092 64.5936 178.915 65.2423 178.538C65.891 178.161 66.413 177.601 66.7424 176.928C67.0717 176.254 67.1936 175.499 67.0927 174.757C66.9562 173.762 66.4298 172.861 65.629 172.253C64.8281 171.645 63.8183 171.379 62.8209 171.513Z" fill="#222723"/>
<path d="M74.9329 220.027C74.8213 220.042 74.7081 220.013 74.6175 219.946C74.5268 219.879 74.466 219.779 74.4478 219.668L64.4188 158.375C64.4096 158.319 64.4116 158.261 64.4246 158.206C64.4376 158.151 64.4613 158.099 64.4945 158.053C64.5614 157.96 64.6627 157.897 64.7759 157.878C64.8891 157.86 65.0051 157.887 65.0983 157.954C65.1915 158.021 65.2542 158.122 65.2727 158.235L75.3018 219.529C75.3109 219.585 75.309 219.642 75.296 219.697C75.283 219.753 75.2592 219.805 75.2261 219.851C75.1929 219.897 75.151 219.936 75.1027 219.966C75.0544 219.996 75.0007 220.016 74.9446 220.025L74.9329 220.027Z" fill="#222723"/>
<path d="M327.218 212.097C327.208 212.097 327.198 212.097 327.188 212.096C327.067 212.088 326.954 212.031 326.874 211.938C326.794 211.845 326.754 211.724 326.762 211.601L328.302 188.045C328.311 187.923 328.368 187.81 328.459 187.73C328.55 187.65 328.668 187.61 328.788 187.618C328.908 187.626 329.02 187.682 329.099 187.773C329.179 187.865 329.22 187.985 329.214 188.107L327.674 211.663C327.667 211.781 327.615 211.891 327.53 211.972C327.446 212.052 327.334 212.097 327.218 212.097Z" fill="#222723"/>
<path d="M329.089 183.592C328.998 183.592 328.908 183.564 328.832 183.511C328.756 183.459 328.698 183.384 328.664 183.298C328.63 183.211 328.623 183.116 328.643 183.025C328.663 182.934 328.709 182.851 328.776 182.787L331.082 180.583C331.17 180.498 331.288 180.453 331.409 180.457C331.531 180.46 331.646 180.513 331.729 180.603C331.812 180.693 331.856 180.813 331.852 180.936C331.849 181.06 331.797 181.177 331.708 181.261L329.402 183.466C329.318 183.547 329.206 183.592 329.089 183.592Z" fill="#222723"/>
<path d="M329.089 183.592C329.022 183.592 328.955 183.576 328.894 183.547C328.833 183.518 328.779 183.475 328.736 183.422L326.728 180.939C326.69 180.892 326.661 180.838 326.643 180.779C326.626 180.721 326.62 180.659 326.626 180.598C326.637 180.475 326.697 180.362 326.79 180.284C326.884 180.205 327.004 180.168 327.125 180.18C327.246 180.192 327.357 180.252 327.434 180.347L328.709 181.924L328.835 179.991C328.838 179.929 328.853 179.869 328.88 179.813C328.906 179.757 328.943 179.708 328.988 179.667C329.034 179.626 329.086 179.594 329.144 179.574C329.201 179.554 329.262 179.546 329.322 179.55C329.383 179.554 329.442 179.571 329.496 179.598C329.55 179.626 329.599 179.664 329.638 179.711C329.678 179.758 329.708 179.812 329.727 179.871C329.746 179.929 329.753 179.991 329.748 180.053L329.546 183.156C329.538 183.274 329.487 183.385 329.402 183.465C329.317 183.546 329.205 183.591 329.089 183.591V183.592Z" fill="#222723"/>
<path d="M332.645 188.898L332.737 187.486C332.814 186.252 333.31 185.084 334.139 184.18L334.749 183.513L323.407 182.737L323.925 183.482C324.631 184.487 324.97 185.711 324.886 186.943L324.794 188.355C324.76 188.879 324.827 189.404 324.993 189.901C325.158 190.398 325.418 190.857 325.758 191.252C326.098 191.647 326.511 191.97 326.973 192.202C327.436 192.435 327.938 192.572 328.453 192.607C328.968 192.645 329.485 192.579 329.975 192.413C330.464 192.247 330.917 191.984 331.306 191.639C331.696 191.295 332.015 190.875 332.245 190.405C332.474 189.934 332.611 189.422 332.645 188.898Z" fill="#6A9586"/>
<path d="M48.1579 223.793C48.032 223.809 47.9051 223.774 47.805 223.696C47.705 223.618 47.64 223.503 47.6244 223.377L43.0726 186.69C43.057 186.564 43.092 186.437 43.17 186.337C43.2479 186.237 43.3624 186.172 43.4883 186.156C43.6142 186.141 43.7412 186.176 43.8412 186.254C43.9413 186.332 44.0063 186.446 44.0219 186.572L48.5737 223.26C48.5893 223.386 48.5543 223.513 48.4763 223.613C48.3984 223.713 48.2838 223.778 48.1579 223.793Z" fill="#222723"/>
<path d="M42.0137 174.192C41.9488 174.2 41.883 174.195 41.8203 174.177C41.7575 174.158 41.6992 174.127 41.6489 174.086L36.6179 169.917C36.5695 169.877 36.5294 169.828 36.5 169.772C36.4706 169.717 36.4525 169.656 36.4466 169.593C36.4408 169.531 36.4473 169.467 36.4658 169.407C36.4844 169.347 36.5146 169.292 36.5547 169.243C36.5949 169.195 36.6442 169.155 36.6998 169.126C36.7554 169.096 36.8163 169.078 36.8789 169.072C36.9416 169.066 37.0047 169.073 37.0648 169.092C37.125 169.11 37.1808 169.14 37.2293 169.18L42.2603 173.349C42.3322 173.409 42.3852 173.488 42.4126 173.577C42.4399 173.667 42.4406 173.762 42.4143 173.852C42.3881 173.941 42.3362 174.021 42.265 174.082C42.1938 174.142 42.1065 174.181 42.0137 174.192Z" fill="#222723"/>
<path d="M42.0149 174.191C41.8888 174.206 41.7617 174.171 41.6615 174.093C41.5613 174.015 41.4962 173.901 41.4805 173.775L40.6957 167.523C40.6801 167.397 40.7152 167.27 40.7932 167.17C40.8713 167.07 40.986 167.005 41.112 166.989V166.989C41.2381 166.974 41.3652 167.009 41.4654 167.087C41.5656 167.165 41.6307 167.279 41.6464 167.405L42.281 172.459L45.4111 168.17C45.486 168.067 45.5985 167.999 45.724 167.979C45.8495 167.96 45.9777 167.991 46.0804 168.065C46.1831 168.14 46.2518 168.253 46.2715 168.378C46.2912 168.504 46.2602 168.632 46.1854 168.734L42.3433 173.998C42.3046 174.051 42.2555 174.096 42.199 174.129C42.1425 174.162 42.0799 174.183 42.0149 174.191Z" fill="#222723"/>
<path d="M35.2449 185.842L34.8909 182.992C34.5777 180.496 33.4155 178.183 31.599 176.439L30.2651 175.157L53.6393 172.269L52.6595 173.837C51.3173 175.967 50.7558 178.495 51.0706 180.993L51.4246 183.843C51.6897 185.984 51.093 188.142 49.7656 189.843C48.4382 191.544 46.4887 192.649 44.3457 192.915C43.2832 193.049 42.2046 192.972 41.1718 192.689C40.1389 192.405 39.1721 191.921 38.3267 191.264C37.4813 190.607 36.7739 189.79 36.2451 188.86C35.7162 187.929 35.3764 186.904 35.2449 185.842Z" fill="#4F8C77"/>
<path d="M337.094 211.516C337.036 211.516 336.978 211.502 336.925 211.476C336.872 211.449 336.826 211.411 336.791 211.363C336.756 211.316 336.732 211.261 336.721 211.202C336.71 211.144 336.713 211.084 336.729 211.027L339.666 200.636C339.68 200.587 339.703 200.541 339.734 200.501C339.765 200.461 339.803 200.428 339.847 200.403C339.89 200.378 339.939 200.363 339.988 200.357C340.038 200.351 340.089 200.355 340.137 200.369C340.185 200.383 340.23 200.406 340.269 200.438C340.309 200.469 340.341 200.508 340.365 200.553C340.39 200.597 340.405 200.646 340.41 200.697C340.416 200.747 340.411 200.798 340.397 200.847L337.459 211.237C337.437 211.318 337.389 211.388 337.323 211.439C337.257 211.489 337.177 211.516 337.094 211.516Z" fill="#222723"/>
<path d="M340.032 202.75C341.13 202.75 342.02 201.851 342.02 200.741C342.02 199.632 341.13 198.732 340.032 198.732C338.934 198.732 338.044 199.632 338.044 200.741C338.044 201.851 338.934 202.75 340.032 202.75Z" fill="#6A9586"/>
<path d="M337.094 211.516C337.018 211.516 336.944 211.493 336.881 211.449C336.817 211.406 336.769 211.345 336.741 211.273L333.639 203.288C333.602 203.193 333.604 203.087 333.644 202.994C333.684 202.9 333.759 202.827 333.853 202.79C333.947 202.752 334.051 202.754 334.144 202.795C334.236 202.835 334.309 202.911 334.346 203.006L337.448 210.991C337.471 211.05 337.479 211.113 337.472 211.175C337.465 211.237 337.443 211.296 337.408 211.348C337.374 211.4 337.327 211.442 337.272 211.471C337.217 211.501 337.156 211.516 337.094 211.516Z" fill="#222723"/>
<path d="M333.992 204.734C334.86 204.734 335.562 204.023 335.562 203.147C335.562 202.271 334.86 201.56 333.992 201.56C333.125 201.56 332.422 202.271 332.422 203.147C332.422 204.023 333.125 204.734 333.992 204.734Z" fill="#6A9586"/>
<path d="M296.073 212.097L293.818 205.547C293.57 204.824 293.947 204.034 294.662 203.783C294.677 203.778 294.693 203.773 294.708 203.768C295.429 203.542 296.194 203.949 296.419 204.678L296.897 206.235V203.74C296.896 203.061 297.439 202.51 298.11 202.509C298.112 202.509 298.113 202.509 298.115 202.509C298.786 202.509 299.33 203.059 299.331 203.738C299.331 203.739 299.331 203.74 299.331 203.74V207.743L299.71 207.222C300.119 206.66 300.879 206.495 301.48 206.837C302.137 207.211 302.37 208.053 302 208.718C302 208.719 302 208.72 301.999 208.72L300.119 212.097H296.073Z" fill="#4F8C77"/>
<path d="M94.9272 211.807L92.2838 204.264C91.9927 203.432 92.4355 202.522 93.2728 202.233C93.2908 202.227 93.3091 202.221 93.3274 202.215C94.1723 201.955 95.0697 202.424 95.3331 203.263L95.8931 205.057V202.184C95.8923 201.402 96.5295 200.767 97.3163 200.766C97.318 200.766 97.3199 200.766 97.3216 200.766C98.1083 200.765 98.7466 201.399 98.7474 202.181C98.7474 202.182 98.7474 202.183 98.7474 202.184V206.793L99.1915 206.193C99.6717 205.545 100.562 205.355 101.267 205.75C102.037 206.181 102.31 207.15 101.877 207.916C101.877 207.917 101.876 207.918 101.876 207.918L99.6711 211.807H94.9272Z" fill="#6A9586"/>
<path d="M80.4902 226.591C80.376 226.577 80.272 226.519 80.2 226.429C80.128 226.34 80.0937 226.226 80.1043 226.111L84.4999 178.648C84.5107 178.531 84.5678 178.423 84.6584 178.348C84.749 178.273 84.8658 178.237 84.9831 178.248C85.1004 178.259 85.2086 178.316 85.2839 178.406C85.3592 178.496 85.3954 178.613 85.3846 178.73L80.989 226.193C80.9836 226.251 80.9669 226.307 80.9397 226.359C80.9125 226.41 80.8755 226.456 80.8306 226.493C80.7858 226.53 80.7341 226.558 80.6784 226.575C80.6227 226.592 80.5641 226.599 80.5061 226.593L80.4902 226.591Z" fill="#222723"/>
<path d="M84.2672 185.744C84.1942 185.735 84.1247 185.708 84.0649 185.665C84.0051 185.622 83.9569 185.565 83.9246 185.499L81.6551 180.873C81.6034 180.767 81.5958 180.646 81.634 180.534C81.6723 180.423 81.7533 180.332 81.8592 180.28C81.9652 180.229 82.0873 180.221 82.1988 180.259C82.3103 180.297 82.402 180.378 82.4538 180.484L84.4024 184.457L87.0531 180.902C87.0875 180.854 87.1311 180.814 87.1814 180.783C87.2316 180.753 87.2874 180.732 87.3455 180.723C87.4037 180.714 87.4631 180.717 87.5202 180.731C87.5773 180.745 87.631 180.771 87.6783 180.806C87.7255 180.841 87.7653 180.885 87.7954 180.935C87.8254 180.985 87.8451 181.041 87.8534 181.099C87.8616 181.157 87.8581 181.217 87.8432 181.273C87.8283 181.33 87.8023 181.383 87.7665 181.43L84.6808 185.569C84.6353 185.63 84.5748 185.679 84.5051 185.71C84.4355 185.74 84.3589 185.753 84.283 185.746L84.2672 185.744Z" fill="#222723"/>
<path d="M83.8529 190.185C83.7796 190.176 83.7098 190.148 83.6499 190.105C83.5899 190.062 83.5416 190.005 83.5095 189.938L80.2378 183.194C80.2121 183.141 80.197 183.085 80.1935 183.026C80.19 182.968 80.198 182.91 80.2171 182.855C80.2362 182.8 80.2661 182.749 80.305 182.705C80.3439 182.662 80.391 182.626 80.4437 182.601C80.4964 182.575 80.5536 182.561 80.612 182.557C80.6704 182.554 80.7289 182.562 80.7842 182.582C80.8394 182.601 80.8902 182.631 80.9338 182.67C80.9774 182.709 81.0128 182.756 81.0381 182.808L83.9893 188.892L88.02 183.446C88.0538 183.397 88.0971 183.355 88.1473 183.323C88.1976 183.292 88.2538 183.27 88.3126 183.26C88.3713 183.25 88.4315 183.253 88.4894 183.266C88.5474 183.28 88.6019 183.306 88.6499 183.341C88.6978 183.376 88.7382 183.421 88.7685 183.472C88.7988 183.523 88.8185 183.579 88.8265 183.638C88.8344 183.697 88.8304 183.757 88.8146 183.814C88.7989 183.872 88.7717 183.925 88.7348 183.972L84.2667 190.009C84.2213 190.071 84.1607 190.119 84.0909 190.151C84.021 190.182 83.9443 190.194 83.868 190.187L83.8529 190.185Z" fill="#222723"/>
<path d="M83.389 195.259C83.316 195.25 83.2465 195.222 83.1867 195.18C83.1269 195.137 83.0787 195.08 83.0464 195.014L78.792 186.343C78.7425 186.238 78.7365 186.117 78.7752 186.008C78.814 185.898 78.8944 185.808 78.9991 185.757C79.1039 185.706 79.2245 185.698 79.3351 185.735C79.4457 185.772 79.5374 185.85 79.5903 185.954L83.5242 193.972L88.8676 186.806C88.9021 186.758 88.9457 186.718 88.9959 186.687C89.0461 186.657 89.1019 186.636 89.1601 186.627C89.2182 186.618 89.2776 186.621 89.3347 186.635C89.3919 186.649 89.4456 186.675 89.4928 186.71C89.5401 186.745 89.5799 186.789 89.6099 186.839C89.64 186.889 89.6597 186.945 89.6679 187.003C89.6761 187.061 89.6727 187.121 89.6578 187.177C89.6429 187.234 89.6168 187.287 89.5811 187.334L83.8026 195.084C83.7571 195.145 83.6967 195.193 83.6271 195.224C83.5574 195.255 83.481 195.268 83.4051 195.261L83.389 195.259Z" fill="#222723"/>
<path d="M82.9335 200.147C82.8606 200.138 82.7913 200.11 82.7316 200.068C82.6719 200.025 82.6238 199.968 82.5915 199.903L77.5638 189.664C77.537 189.611 77.5209 189.554 77.5165 189.496C77.5121 189.437 77.5195 189.378 77.5381 189.322C77.5568 189.267 77.5864 189.215 77.6253 189.171C77.6642 189.127 77.7115 189.091 77.7644 189.065C77.8174 189.039 77.875 189.024 77.9339 189.02C77.9928 189.017 78.0518 189.025 78.1074 189.045C78.1631 189.064 78.2142 189.095 78.258 189.134C78.3017 189.174 78.3371 189.222 78.3621 189.275L83.0695 198.86L89.4677 190.294C89.5381 190.2 89.6432 190.137 89.7599 190.12C89.8766 190.103 89.9952 190.133 90.0898 190.203C90.1844 190.273 90.2471 190.378 90.2642 190.494C90.2813 190.611 90.2514 190.729 90.181 190.823L83.347 199.972C83.3014 200.033 83.241 200.082 83.1713 200.113C83.1017 200.143 83.0253 200.156 82.9494 200.149C82.9439 200.148 82.9387 200.148 82.9335 200.147Z" fill="#222723"/>
<path d="M60.1478 198.994C62.4323 198.994 64.2843 197.152 64.2843 194.88C64.2843 192.608 62.4323 190.767 60.1478 190.767C57.8632 190.767 56.0112 192.608 56.0112 194.88C56.0112 197.152 57.8632 198.994 60.1478 198.994Z" fill="white"/>
<path d="M60.1479 199.454C57.6122 199.454 55.5493 197.403 55.5493 194.88C55.5493 192.358 57.6122 190.306 60.1479 190.306C62.6835 190.306 64.7464 192.358 64.7464 194.88C64.7464 197.403 62.6835 199.454 60.1479 199.454ZM60.1479 191.227C58.1218 191.227 56.4733 192.866 56.4733 194.88C56.4733 196.895 58.1218 198.534 60.1479 198.534C62.1739 198.534 63.8224 196.895 63.8224 194.88C63.8224 192.866 62.1739 191.227 60.1479 191.227Z" fill="#222723"/>
<path d="M64.684 229.239C64.4561 229.239 64.2576 229.071 64.2266 228.84L59.6897 194.941C59.6559 194.689 59.8336 194.458 60.0865 194.424C60.3391 194.39 60.5718 194.568 60.6055 194.82L65.1425 228.718C65.1762 228.97 64.9985 229.202 64.7456 229.235C64.725 229.238 64.7045 229.239 64.684 229.239Z" fill="#222723"/>
<path d="M16.2303 219.273C15.9801 219.305 15.7514 219.125 15.7195 218.872L13.3864 200.344C13.3545 200.091 13.5314 199.86 13.7816 199.829C14.0318 199.797 14.2605 199.977 14.2924 200.23L16.6255 218.758C16.6574 219.011 16.4805 219.242 16.2303 219.273Z" fill="#222723"/>
<path d="M14.2439 203.5C15.9966 203.279 17.2364 201.663 17.0129 199.889C16.7895 198.115 15.1875 196.856 13.4348 197.076C11.6821 197.296 10.4424 198.912 10.6658 200.686C10.8892 202.46 12.4912 203.72 14.2439 203.5Z" fill="#6A9586"/>
<path d="M22.4964 192.307C21.1898 192.102 19.9739 191.512 19.0024 190.613C18.031 189.713 17.3476 188.544 17.0388 187.253C16.7299 185.962 16.8094 184.607 17.2673 183.36C17.7251 182.113 18.5407 181.03 19.611 180.247C20.6812 179.464 21.958 179.017 23.2798 178.962C24.6017 178.907 25.9093 179.247 27.0373 179.939C28.1652 180.63 29.0629 181.643 29.6168 182.848C30.1707 184.053 30.3559 185.397 30.1489 186.709C29.8696 188.468 28.907 190.045 27.4724 191.094C26.0378 192.144 24.2482 192.58 22.4964 192.307ZM24.4569 179.873C23.315 179.694 22.1451 179.859 21.0952 180.347C20.0452 180.835 19.1624 181.624 18.5584 182.615C17.9543 183.606 17.6561 184.754 17.7015 185.914C17.747 187.074 18.1339 188.194 18.8135 189.131C19.4931 190.069 20.4348 190.783 21.5195 191.182C22.6042 191.582 23.7832 191.649 24.9074 191.376C26.0315 191.103 27.0505 190.501 27.8352 189.647C28.62 188.793 29.1354 187.725 29.3162 186.578C29.5569 185.04 29.1805 183.471 28.2695 182.214C27.3585 180.957 25.9874 180.115 24.4569 179.873Z" fill="#222723"/>
<path d="M22.4964 192.307C21.1898 192.102 19.9739 191.512 19.0024 190.613C18.031 189.713 17.3476 188.544 17.0388 187.253C16.7299 185.962 16.8094 184.607 17.2673 183.36C17.7251 182.113 18.5407 181.03 19.611 180.247C20.6812 179.464 21.958 179.017 23.2798 178.962C24.6017 178.907 25.9093 179.247 27.0373 179.939C28.1652 180.63 29.0629 181.643 29.6168 182.848C30.1707 184.053 30.3559 185.397 30.1489 186.709C29.8696 188.468 28.907 190.045 27.4724 191.094C26.0378 192.144 24.2482 192.58 22.4964 192.307ZM24.4569 179.873C23.315 179.694 22.1451 179.859 21.0952 180.347C20.0452 180.835 19.1624 181.624 18.5584 182.615C17.9543 183.606 17.6561 184.754 17.7015 185.914C17.747 187.074 18.1339 188.194 18.8135 189.131C19.4931 190.069 20.4348 190.783 21.5195 191.182C22.6042 191.582 23.7832 191.649 24.9074 191.376C26.0315 191.103 27.0505 190.501 27.8352 189.647C28.62 188.793 29.1354 187.725 29.3162 186.578C29.5569 185.04 29.1805 183.471 28.2695 182.214C27.3585 180.957 25.9874 180.115 24.4569 179.873Z" fill="#222723"/>
<path d="M22.5614 191.889C25.9799 192.425 29.1901 190.076 29.7317 186.642C30.2732 183.209 27.9411 179.99 24.5226 179.454C21.1042 178.918 17.894 181.266 17.3524 184.7C16.8108 188.134 19.143 191.352 22.5614 191.889Z" fill="white"/>
<path d="M22.4963 192.308C21.1897 192.103 19.9739 191.513 19.0026 190.613C18.0312 189.714 17.348 188.545 17.0392 187.254C16.7304 185.963 16.81 184.608 17.268 183.361C17.7259 182.114 18.5415 181.03 19.6117 180.247C20.6819 179.464 21.9587 179.017 23.2805 178.962C24.6023 178.907 25.9098 179.247 27.0377 179.938C28.1656 180.63 29.0631 181.642 29.6169 182.848C30.1707 184.053 30.3558 185.396 30.1488 186.709C29.8693 188.468 28.9067 190.045 27.4721 191.095C26.0374 192.144 24.248 192.58 22.4963 192.308ZM24.4575 179.873C23.3156 179.694 22.1458 179.859 21.0958 180.347C20.0459 180.835 19.1631 181.625 18.559 182.616C17.9549 183.607 17.6567 184.755 17.702 185.915C17.7474 187.075 18.1342 188.194 18.8137 189.132C19.4932 190.07 20.4348 190.784 21.5194 191.183C22.6041 191.583 23.783 191.65 24.9071 191.376C26.0313 191.103 27.0502 190.501 27.835 189.647C28.6198 188.793 29.1352 187.725 29.3161 186.578C29.5569 185.04 29.1806 183.471 28.2697 182.214C27.3589 180.957 25.9878 180.115 24.4575 179.873Z" fill="#222723"/>
<path d="M15.547 236.441C15.4367 236.423 15.3379 236.363 15.2722 236.272C15.2066 236.181 15.1795 236.068 15.197 235.957L22.1485 191.821C22.166 191.711 22.2265 191.611 22.3169 191.545C22.4072 191.479 22.5199 191.451 22.6302 191.469C22.7405 191.486 22.8393 191.547 22.9049 191.637C22.9706 191.728 22.9976 191.841 22.9802 191.952L16.0286 236.088C16.0112 236.199 15.9506 236.298 15.8603 236.364C15.77 236.431 15.6572 236.458 15.547 236.441Z" fill="#222723"/>
<path d="M23.3226 187.066C22.0632 186.866 20.8876 186.309 19.9343 185.46C18.9809 184.611 18.2896 183.505 17.9416 182.274C17.9256 182.22 17.9204 182.163 17.9264 182.108C17.9323 182.052 17.9493 181.998 17.9762 181.948C18.0032 181.899 18.0396 181.856 18.0834 181.821C18.1272 181.786 18.1775 181.76 18.2313 181.745C18.2851 181.729 18.3414 181.725 18.3969 181.732C18.4524 181.738 18.5059 181.756 18.5545 181.784C18.6031 181.811 18.6456 181.849 18.6797 181.893C18.7138 181.937 18.7388 181.988 18.7531 182.042C19.0572 183.118 19.6613 184.084 20.4942 184.826C21.3271 185.568 22.3542 186.055 23.4545 186.229C24.5547 186.4 25.6811 186.252 26.7022 185.804C27.7232 185.356 28.5968 184.625 29.221 183.698C29.2836 183.605 29.3803 183.541 29.4898 183.52C29.5993 183.498 29.7128 183.521 29.8053 183.583C29.8979 183.646 29.962 183.742 29.9835 183.852C30.0051 183.962 29.9824 184.076 29.9204 184.17C29.2064 185.231 28.2068 186.066 27.0385 186.579C25.8702 187.092 24.5814 187.261 23.3226 187.066Z" fill="#222723"/>
<path d="M26.0095 186.888C25.949 186.878 25.8914 186.855 25.8406 186.821C24.7819 186.107 23.9483 185.105 23.4373 183.931C22.9262 182.758 22.7589 181.462 22.9549 180.195C23.0052 179.877 23.0781 179.562 23.1732 179.254C23.1888 179.2 23.215 179.15 23.2502 179.106C23.2854 179.062 23.3289 179.026 23.3782 178.999C23.4275 178.972 23.4817 178.956 23.5374 178.95C23.5932 178.945 23.6494 178.95 23.7029 178.967C23.7564 178.983 23.8061 179.011 23.849 179.047C23.8919 179.083 23.9272 179.127 23.9528 179.177C23.9784 179.227 23.9939 179.282 23.9982 179.338C24.0026 179.394 23.9958 179.45 23.9782 179.504C23.8952 179.773 23.8315 180.047 23.7876 180.326C23.6163 181.433 23.7626 182.566 24.2094 183.592C24.6562 184.617 25.385 185.494 26.3105 186.118C26.3901 186.171 26.4491 186.251 26.4777 186.343C26.5063 186.434 26.5028 186.534 26.4677 186.623C26.4326 186.713 26.368 186.788 26.2847 186.836C26.2014 186.884 26.1043 186.902 26.0095 186.888Z" fill="#222723"/>
<path d="M67.22 146.434H69.021C69.8436 146.434 70.5105 147.1 70.5107 147.922C70.5107 148.153 70.4567 148.382 70.3531 148.589L68.1197 153.053L65.8865 148.589C65.5181 147.854 65.8159 146.96 66.5514 146.592C66.759 146.488 66.9879 146.434 67.22 146.434Z" fill="#6A9586"/>
<path d="M74.7442 152.152V153.951C74.7453 154.773 74.0792 155.44 73.2566 155.441C73.0245 155.441 72.7954 155.387 72.5879 155.284L68.1196 153.052L72.5879 150.82C73.3248 150.453 74.2201 150.752 74.5875 151.488C74.6905 151.694 74.7442 151.922 74.7442 152.152Z" fill="#6A9586"/>
<path d="M299.836 128.13H301.927C302.883 128.13 303.657 128.903 303.658 129.858C303.658 130.127 303.595 130.392 303.475 130.632L300.881 135.816L298.287 130.632C297.86 129.778 298.205 128.74 299.06 128.313C299.301 128.192 299.567 128.13 299.836 128.13Z" fill="#6A9586"/>
<path d="M308.574 134.77V136.86C308.575 137.814 307.802 138.589 306.846 138.59C306.577 138.59 306.311 138.527 306.07 138.407L300.881 135.816L306.07 133.223C306.926 132.797 307.965 133.144 308.392 133.999C308.512 134.238 308.574 134.503 308.574 134.77Z" fill="#6A9586"/>
<path fill-rule="evenodd" clip-rule="evenodd" d="M65.231 52.0916H139.806V92.3087H65.231V52.0916ZM66.2256 53.0852V60.9532H138.812V53.0852H66.2256ZM138.812 61.9468H66.2256V64.7302H138.812V61.9468ZM138.812 65.7239H66.2256V91.315H138.812V65.7239ZM120.344 71.7033H131.663V77.3457H120.344V71.7033ZM121.339 72.6969V76.352H130.668V72.6969H121.339Z" fill="#222723"/>
</g>
<defs>
<clipPath id="clip0">
<rect width="349" height="232.435" fill="white"/>
</clipPath>
</defs>
</svg>
