<svg width="349" height="233" viewBox="0 0 349 233" fill="none" xmlns="http://www.w3.org/2000/svg">
<g clip-path="url(#clip0)">
<path d="M209.283 188.042H301.008L313.635 162.373L263.202 162.298L252.357 187.731" fill="white"/>
<path d="M209.283 188.507H301.008C301.094 188.507 301.18 188.482 301.253 188.436C301.327 188.39 301.386 188.325 301.425 188.247L314.052 162.579C314.087 162.508 314.103 162.429 314.1 162.35C314.096 162.271 314.072 162.194 314.03 162.127C313.988 162.06 313.93 162.005 313.861 161.966C313.792 161.928 313.714 161.908 313.635 161.908L263.202 161.833C263.111 161.833 263.022 161.86 262.946 161.91C262.87 161.96 262.811 162.032 262.775 162.116L251.929 187.549C251.925 187.558 251.921 187.567 251.918 187.576H209.283C209.16 187.576 209.042 187.625 208.955 187.712C208.867 187.8 208.818 187.918 208.818 188.041C208.818 188.165 208.867 188.283 208.955 188.37C209.042 188.458 209.16 188.507 209.283 188.507ZM300.718 187.576H252.928L263.509 162.763L312.888 162.837L300.718 187.576Z" fill="#212121"/>
<path d="M225.97 219.07C226.002 219.07 226.034 219.067 226.065 219.061C226.125 219.048 226.182 219.024 226.232 218.99C226.283 218.955 226.326 218.911 226.36 218.86C226.393 218.809 226.416 218.752 226.428 218.692C226.439 218.632 226.438 218.57 226.426 218.51L220.12 188.102C220.094 187.982 220.022 187.876 219.92 187.809C219.817 187.742 219.691 187.718 219.571 187.743C219.451 187.768 219.345 187.84 219.277 187.942C219.21 188.045 219.185 188.17 219.21 188.291L225.516 218.699C225.537 218.804 225.594 218.898 225.677 218.966C225.76 219.033 225.864 219.07 225.97 219.07Z" fill="#212121"/>
<path d="M307.314 218.76C307.383 218.76 307.451 218.745 307.514 218.715C307.576 218.685 307.631 218.642 307.675 218.588C307.719 218.534 307.75 218.472 307.766 218.404C307.782 218.337 307.783 218.267 307.769 218.199L301.463 188.256C301.438 188.135 301.365 188.029 301.262 187.962C301.211 187.928 301.154 187.905 301.094 187.894C301.034 187.883 300.972 187.884 300.912 187.896C300.852 187.909 300.796 187.933 300.745 187.968C300.695 188.002 300.652 188.046 300.619 188.097C300.585 188.149 300.562 188.206 300.551 188.266C300.54 188.326 300.541 188.388 300.553 188.448L306.859 218.39C306.881 218.495 306.938 218.589 307.021 218.656C307.104 218.723 307.207 218.76 307.314 218.76Z" fill="#212121"/>
<path d="M291.975 218.76C292.044 218.76 292.112 218.745 292.175 218.715C292.237 218.685 292.292 218.642 292.336 218.588C292.38 218.534 292.411 218.472 292.427 218.404C292.443 218.337 292.444 218.267 292.43 218.199L286.124 188.256C286.098 188.135 286.026 188.029 285.923 187.962C285.872 187.928 285.814 187.905 285.754 187.894C285.694 187.883 285.633 187.884 285.573 187.896C285.513 187.909 285.457 187.933 285.406 187.968C285.356 188.002 285.313 188.046 285.279 188.097C285.246 188.149 285.223 188.206 285.212 188.266C285.201 188.326 285.201 188.388 285.214 188.448L291.52 218.39C291.542 218.495 291.599 218.589 291.682 218.656C291.764 218.723 291.868 218.76 291.975 218.76Z" fill="#212121"/>
<path d="M251.965 119.633H242.417L242.795 104.062L242.959 95.697C242.959 86.4352 249.953 78.1562 258.58 78.1562C267.207 78.1562 274.201 85.6644 274.201 94.9261L274.225 104.059L274.269 118.75H267.68H266.033" fill="#5B69BD"/>
<path d="M274 162.286L238.283 147.644L207.896 159.932L175.284 176.699L176.46 179.494L274 162.286Z" fill="white"/>
<path d="M193.933 114.619C193.933 114.619 188.282 108.475 184.831 104.271C184.234 103.543 183.702 102.873 183.277 102.303C180.401 98.4436 183.928 95.8962 185.377 97.6464C186.825 99.3967 192.832 103.356 196.21 107.621L196.278 107.701C198.723 108.332 200.853 110.001 202.016 112.393L206.708 122.053L201.973 124.383L193.93 128.221L187.624 125.663L186.742 123.751L185.515 122.458L176.753 111.837L174.99 109.484L173.962 102.277L175.431 100.659L180.426 104.778L188.064 108.013" fill="white"/>
<path d="M193.93 128.662C193.874 128.662 193.817 128.651 193.764 128.63L187.458 126.072C187.355 126.03 187.271 125.95 187.224 125.848L186.373 124.002L185.196 122.762C185.189 122.755 185.183 122.747 185.176 122.739L176.414 112.118C176.409 112.113 176.405 112.108 176.401 112.102L174.638 109.749C174.594 109.689 174.565 109.62 174.554 109.546L173.526 102.339C173.508 102.209 173.548 102.078 173.636 101.98L175.105 100.362C175.263 100.188 175.53 100.169 175.712 100.319L180.657 104.396L186.412 106.834C185.733 106.042 185.079 105.268 184.491 104.551C183.858 103.779 183.33 103.111 182.924 102.567C181.146 100.181 181.616 98.0858 182.805 97.1493C183.764 96.3945 184.988 96.4848 185.716 97.3648C186.239 97.9973 187.468 98.9975 188.891 100.156C191.349 102.156 194.404 104.644 196.526 107.31C199.102 108.017 201.242 109.792 202.412 112.199L207.105 121.86C207.211 122.078 207.12 122.342 206.903 122.449L202.167 124.779L194.119 128.619C194.059 128.647 193.995 128.662 193.93 128.662ZM187.951 125.319L193.915 127.739L201.783 123.984L206.12 121.851L201.62 112.585C200.542 110.369 198.555 108.744 196.168 108.128C196.081 108.105 196.002 108.056 195.943 107.987L195.876 107.908C195.872 107.904 195.869 107.9 195.865 107.895C193.802 105.29 190.771 102.823 188.335 100.841C186.816 99.6039 185.616 98.627 185.037 97.9278C184.551 97.3397 183.822 97.4716 183.35 97.843C182.457 98.546 182.198 100.116 183.631 102.039C184.028 102.573 184.547 103.229 185.172 103.991C186.089 105.108 187.167 106.368 188.254 107.615C188.368 107.669 188.448 107.766 188.484 107.879C191.357 111.164 194.218 114.277 194.258 114.32C194.423 114.5 194.411 114.779 194.232 114.944C194.053 115.109 193.774 115.097 193.61 114.918C193.569 114.874 190.637 111.685 187.723 108.348L180.254 105.184C180.215 105.167 180.178 105.145 180.146 105.118L175.475 101.267L174.428 102.42L175.411 109.31L177.1 111.564L185.846 122.166L187.062 123.447C187.095 123.482 187.123 123.522 187.143 123.566L187.951 125.319Z" fill="#212121"/>
<path d="M224.831 123.785C224.831 123.785 229.246 125.903 233.968 136.847C235.838 141.179 239.734 151.418 239.734 151.418L257.35 160.407C258.418 151.418 257.757 146.148 263.292 143.133C264.629 142.404 274.168 140.427 275.724 140.425C275.724 140.425 275.461 133.487 281.552 130.351C290.628 125.678 297.504 131.936 297.504 131.936C293.382 129.219 290.167 126.823 287.974 125.121C283.103 121.339 280.86 119.106 276.794 118.295C274.341 117.806 271.944 117.868 270.328 118.015C270.328 118.015 269.451 121.089 266.783 124.348C264.413 127.243 263.172 130.367 257.478 130.367C255.853 130.367 252.438 129.045 250.652 126.619C248.125 123.187 247.705 118.015 247.705 118.015C247.236 118.029 246.731 117.891 244.18 118.603C237.863 120.368 231.368 122.197 224.831 123.785Z" fill="#707FDA"/>
<path d="M186.956 118.6C188.202 119.866 187.348 122.428 184.353 122.631C181.876 122.802 179.817 122.853 178.558 122.868C177.706 122.878 176.876 122.595 176.207 122.066L174.711 120.89C173.568 119.991 173.052 118.509 173.388 117.093C173.493 116.656 173.673 116.249 173.914 115.888" fill="white"/>
<path d="M178.516 123.309C177.583 123.309 176.668 122.992 175.934 122.413L174.438 121.237C173.165 120.235 172.585 118.568 172.96 116.991C173.075 116.508 173.273 116.055 173.548 115.643C173.683 115.44 173.957 115.386 174.159 115.521C174.361 115.657 174.416 115.931 174.28 116.133C174.064 116.458 173.908 116.815 173.817 117.196C173.521 118.439 173.979 119.753 174.983 120.543L176.479 121.719C177.068 122.184 177.803 122.435 178.553 122.427C179.842 122.412 181.89 122.358 184.322 122.191C185.623 122.103 186.606 121.506 186.951 120.594C187.183 119.984 187.064 119.338 186.642 118.91C186.471 118.736 186.474 118.457 186.647 118.286C186.82 118.115 187.099 118.117 187.27 118.29C187.937 118.968 188.13 119.971 187.775 120.907C187.304 122.15 186.036 122.959 184.383 123.071C181.929 123.24 179.864 123.294 178.563 123.309C178.547 123.309 178.532 123.309 178.516 123.309Z" fill="#212121"/>
<path d="M178.837 113.862C181.369 113.808 184.074 113.737 185.726 113.575C190.113 113.143 190.075 118.473 185.48 118.788C182.738 118.976 180.459 119.033 179.066 119.049C178.122 119.062 177.202 118.751 176.46 118.167L174.804 116.859C173.543 115.862 172.974 114.223 173.347 112.657C173.716 111.111 174.94 109.914 176.492 109.58L178.516 109.19" fill="white"/>
<path d="M179.009 119.491C177.99 119.491 176.99 119.145 176.188 118.514L174.531 117.206C173.14 116.106 172.507 114.281 172.919 112.555C173.325 110.853 174.691 109.516 176.4 109.149L178.433 108.757C178.672 108.711 178.903 108.867 178.949 109.106C178.995 109.346 178.839 109.577 178.6 109.623L176.576 110.014C175.206 110.308 174.104 111.387 173.776 112.76C173.444 114.152 173.955 115.626 175.077 116.513L176.733 117.821C177.393 118.34 178.215 118.62 179.06 118.608C180.484 118.592 182.747 118.533 185.45 118.347C186.829 118.253 187.877 117.658 188.327 116.715C188.633 116.073 188.595 115.375 188.226 114.848C187.771 114.199 186.898 113.903 185.77 114.014C184.078 114.18 181.309 114.25 178.846 114.303C178.604 114.308 178.402 114.115 178.396 113.871C178.391 113.628 178.584 113.426 178.828 113.421C181.274 113.368 184.023 113.299 185.684 113.136C187.122 112.994 188.311 113.434 188.947 114.341C189.502 115.133 189.567 116.162 189.122 117.095C188.532 118.334 187.215 119.111 185.51 119.228C182.787 119.415 180.506 119.474 179.071 119.491C179.051 119.491 179.03 119.491 179.009 119.491Z" fill="#212121"/>
<path d="M175.742 109.704C172.811 109.205 171.952 105.239 173.585 102.763C173.93 102.242 174.263 101.712 174.596 101.197" fill="white"/>
<path d="M175.742 110.146C175.718 110.146 175.693 110.144 175.668 110.139C174.363 109.917 173.331 109.072 172.762 107.761C172.039 106.092 172.218 104.035 173.218 102.521C173.445 102.177 173.667 101.83 173.888 101.485C174.001 101.309 174.114 101.133 174.226 100.958C174.358 100.753 174.631 100.695 174.836 100.827C175.04 100.959 175.099 101.233 174.967 101.437C174.854 101.611 174.742 101.786 174.63 101.962C174.407 102.309 174.183 102.66 173.953 103.007C173.127 104.26 172.973 106.029 173.571 107.41C174.017 108.438 174.814 109.099 175.816 109.269C176.056 109.31 176.218 109.538 176.177 109.778C176.14 109.993 175.953 110.146 175.742 110.146Z" fill="#212121"/>
<path d="M179.838 106.248C180.573 104.336 182.027 100.677 182.07 99.042C182.09 98.2961 181.634 97.6263 180.931 97.3787C177.59 96.2027 175.902 99.1716 173.976 102.161" fill="white"/>
<path d="M179.838 106.69C179.786 106.69 179.732 106.68 179.68 106.66C179.453 106.573 179.339 106.317 179.427 106.09L179.585 105.679C180.335 103.734 181.591 100.479 181.63 99.0304C181.644 98.4748 181.305 97.9784 180.784 97.7953C177.938 96.7931 176.405 99.1862 174.631 101.957L174.346 102.401C174.215 102.606 173.942 102.665 173.737 102.533C173.533 102.4 173.474 102.127 173.606 101.923L173.889 101.481C175.7 98.6529 177.572 95.7291 181.077 96.9626C181.959 97.2734 182.536 98.1138 182.511 99.054C182.468 100.655 181.228 103.869 180.408 105.997L180.25 106.407C180.182 106.582 180.015 106.69 179.838 106.69Z" fill="#212121"/>
<path d="M237.961 146.647C237.777 146.647 237.606 146.531 237.543 146.347C237.465 146.117 237.589 145.866 237.82 145.788L244.071 143.672C244.301 143.594 244.552 143.718 244.63 143.948C244.708 144.179 244.584 144.43 244.354 144.508L238.102 146.624C238.055 146.64 238.008 146.647 237.961 146.647Z" fill="#212121"/>
<path d="M187.942 195.69C188.19 199.107 186.622 201.952 182.045 203.264C176.298 204.91 175.032 208.21 175.342 212.587L199.696 212.678L209.586 201.399L211.936 208.347L220.603 205.28L214.061 186.676" fill="#5B69BD"/>
<path d="M163.978 142.517C164.251 135.15 168.966 128.364 176.344 125.815C181.241 124.124 186.622 124.582 191.163 127.076L193.657 128.348" fill="white"/>
<path d="M163.978 142.959C163.973 142.959 163.967 142.958 163.962 142.958C163.718 142.949 163.528 142.745 163.537 142.501C163.677 138.746 164.922 135.149 167.14 132.1C169.41 128.979 172.543 126.662 176.201 125.398C181.204 123.67 186.735 124.141 191.375 126.689L193.857 127.955C194.073 128.066 194.16 128.331 194.049 128.548C193.939 128.766 193.673 128.852 193.457 128.741L190.963 127.469C186.528 125.034 181.257 124.585 176.488 126.232C169.541 128.632 164.691 135.183 164.418 142.534C164.409 142.772 164.214 142.959 163.978 142.959Z" fill="#212121"/>
<path d="M174.899 178.026L179.643 191.81L182.055 198.817L192.957 195.056L216.776 186.835L215.174 182.177L220.077 186.215C220.676 187.289 237.161 187.795 250.79 187.436C261.954 187.142 274 177.435 274 168.169C274 165.831 274.103 162.117 274 159.638" fill="white"/>
<path d="M182.055 199.258C181.873 199.258 181.702 199.143 181.639 198.96L174.483 178.17C174.403 177.94 174.526 177.689 174.756 177.609C174.986 177.53 175.237 177.652 175.316 177.883L182.329 198.256L192.813 194.639L216.216 186.562L214.757 182.321C214.693 182.135 214.76 181.928 214.922 181.815C215.084 181.703 215.301 181.711 215.454 181.837L220.357 185.874C220.385 185.897 220.41 185.924 220.432 185.953C221.566 186.738 236.001 187.385 250.779 186.995C261.85 186.704 273.559 177.027 273.559 168.169C273.559 167.436 273.57 166.569 273.58 165.651C273.604 163.635 273.63 161.35 273.56 159.657C273.55 159.413 273.739 159.208 273.982 159.198C274.225 159.188 274.431 159.377 274.441 159.62C274.512 161.336 274.485 163.634 274.462 165.661C274.451 166.577 274.441 167.442 274.441 168.169C274.441 172.688 271.679 177.55 266.862 181.508C262.111 185.412 256.258 187.734 250.802 187.878C244.151 188.053 236.573 188.026 230.532 187.804C221.03 187.456 219.987 186.855 219.741 186.51L216.099 183.51L217.193 186.692C217.273 186.922 217.15 187.173 216.92 187.253L193.101 195.473L182.199 199.234C182.152 199.25 182.103 199.258 182.055 199.258ZM220.461 185.998C220.461 185.999 220.462 185.999 220.462 186C220.462 185.999 220.461 185.999 220.461 185.998ZM220.417 185.942C220.417 185.942 220.417 185.942 220.417 185.942V185.942Z" fill="#212121"/>
<path d="M215.174 182.619C214.994 182.619 214.825 182.508 214.76 182.329L207.482 162.444C207.398 162.215 207.516 161.962 207.744 161.878C207.973 161.794 208.226 161.912 208.31 162.141L215.588 182.026C215.671 182.255 215.554 182.508 215.325 182.592C215.276 182.61 215.224 182.619 215.174 182.619Z" fill="#212121"/>
<path d="M148.912 156.767C145.151 157.393 141.521 155.912 138.268 153.037C133.93 149.202 132.297 147.732 130.553 145.727C127.523 142.244 123.011 140.972 119.242 143.056L129.998 166.614L142.337 176.302L135.727 179.179L139.785 188.074L159.523 179.194" fill="#5B69BD"/>
<path d="M239.731 151.865L234.911 149.405L221.806 155.656L211.567 160.542L183.018 174.153L161.914 184.222L146.12 151.025L147.762 150.247L176.407 136.582L204.384 123.233L205.446 122.727C215.16 118.088 226.79 122.212 231.423 131.937C231.425 131.942 231.427 131.947 231.429 131.952L235.995 141.549C236.361 142.317 236.709 143.094 237.039 143.88C238.132 146.471 239.032 149.14 239.731 151.865Z" fill="white"/>
<path d="M161.914 184.663C161.864 184.663 161.815 184.655 161.767 184.638C161.657 184.599 161.567 184.517 161.516 184.412L145.722 151.215C145.671 151.109 145.665 150.987 145.704 150.877C145.744 150.766 145.825 150.676 145.931 150.626L147.573 149.848L176.218 136.183L204.194 122.834L205.257 122.328C210.061 120.034 215.47 119.75 220.487 121.529C225.504 123.308 229.529 126.937 231.82 131.747C231.82 131.747 231.827 131.762 231.827 131.762L236.393 141.359C236.76 142.13 237.115 142.921 237.446 143.709C238.543 146.311 239.455 149.018 240.157 151.755C240.201 151.923 240.141 152.101 240.006 152.209C239.871 152.317 239.685 152.337 239.531 152.258L234.904 149.897L221.996 156.055L211.757 160.941L183.207 174.552L162.104 184.621C162.044 184.649 161.979 184.663 161.914 184.663ZM146.707 151.234L162.122 183.634L182.828 173.755L211.378 160.144L221.616 155.258L234.721 149.007C234.845 148.948 234.989 148.95 235.111 149.012L239.051 151.022C238.398 148.652 237.587 146.312 236.633 144.051C236.308 143.276 235.959 142.498 235.597 141.738L231.031 132.141L231.423 131.937L231.025 132.127C228.835 127.53 224.988 124.062 220.192 122.361C215.397 120.661 210.228 120.932 205.636 123.125L204.573 123.631L176.597 136.98L147.951 150.645L146.707 151.234Z" fill="#212121"/>
<path d="M162.569 151.094C160.804 151.094 159.042 150.477 157.617 149.245C156.886 148.616 155.823 148.616 155.092 149.246C153.037 151.018 150.172 151.556 147.615 150.651C147.386 150.57 147.265 150.318 147.346 150.088C147.427 149.858 147.679 149.738 147.909 149.819C150.169 150.619 152.701 150.143 154.517 148.577C155.582 147.66 157.128 147.66 158.193 148.576C160.665 150.714 164.292 150.76 166.817 148.685C167.858 147.833 169.369 147.833 170.409 148.684C171.631 149.688 173.174 150.228 174.753 150.206C178.446 150.154 181.407 147.103 181.355 143.406C181.303 140.384 179.224 137.748 176.298 136.997C176.062 136.937 175.92 136.696 175.98 136.46C176.04 136.224 176.28 136.082 176.516 136.142C179.826 136.991 182.178 139.973 182.236 143.393C182.295 147.578 178.944 151.029 174.766 151.089C172.981 151.115 171.232 150.503 169.85 149.367C169.134 148.781 168.093 148.781 167.375 149.368C165.974 150.52 164.27 151.094 162.569 151.094Z" fill="#212121"/>
<path d="M183.018 174.594C182.992 174.594 182.966 174.592 182.94 174.587C180.947 174.231 179.213 173.118 178.056 171.455C176.899 169.792 176.458 167.777 176.814 165.782C177.171 163.787 178.282 162.05 179.943 160.892C181.604 159.733 183.616 159.292 185.609 159.649C186.952 159.889 188.208 160.49 189.239 161.386C189.973 162.012 191.038 162.008 191.769 161.375C194.568 158.965 198.668 158.918 201.52 161.262C202.245 161.847 203.298 161.84 204.019 161.242C206.196 159.466 209.153 159.043 211.737 160.136C211.961 160.231 212.066 160.49 211.972 160.714C211.877 160.938 211.619 161.044 211.394 160.949C209.111 159.984 206.5 160.357 204.579 161.924C203.539 162.786 202.017 162.796 200.964 161.947C198.44 159.873 194.817 159.915 192.345 162.043C191.282 162.963 189.734 162.968 188.665 162.055C187.751 161.261 186.641 160.73 185.453 160.518C183.693 160.202 181.914 160.592 180.447 161.616C178.979 162.64 177.997 164.175 177.682 165.938C177.367 167.701 177.757 169.481 178.779 170.951C179.801 172.42 181.334 173.403 183.095 173.719C183.335 173.762 183.494 173.991 183.451 174.231C183.413 174.444 183.228 174.594 183.018 174.594Z" fill="#212121"/>
<path d="M206.224 133.308C204.459 133.308 202.697 132.69 201.273 131.459C200.542 130.829 199.479 130.829 198.747 131.459C195.726 134.071 191.173 133.879 188.382 131.021C188.212 130.847 188.215 130.568 188.389 130.397C188.563 130.227 188.841 130.23 189.012 130.405C191.478 132.93 195.502 133.1 198.172 130.791C199.237 129.874 200.783 129.874 201.848 130.79C204.321 132.929 207.948 132.974 210.472 130.897C211.514 130.046 213.024 130.046 214.064 130.897C215.288 131.904 216.83 132.445 218.416 132.421C222.107 132.367 225.066 129.315 225.012 125.619C225.009 125.304 224.983 124.989 224.935 124.681C224.897 124.44 225.061 124.214 225.302 124.176C225.542 124.139 225.768 124.303 225.805 124.544C225.86 124.895 225.89 125.253 225.893 125.609C225.955 129.788 222.606 133.242 218.429 133.303C216.638 133.33 214.89 132.718 213.506 131.579C212.79 130.993 211.748 130.993 211.031 131.58C209.629 132.733 207.925 133.308 206.224 133.308Z" fill="#212121"/>
<path d="M245.283 182.028C243.593 182.028 241.992 181.406 240.578 180.185C239.858 179.563 238.773 179.563 238.053 180.185C235.231 182.624 230.974 182.624 228.151 180.185C224.989 177.451 224.637 172.651 227.366 169.485C228.689 167.951 230.529 167.024 232.547 166.876C234.566 166.727 236.521 167.375 238.053 168.699C238.787 169.326 239.852 169.322 240.584 168.689C242.563 166.985 245.234 166.421 247.731 167.18C250.791 168.087 252.847 171.085 252.847 174.64C252.847 177.58 250.698 181.058 247.102 181.794C246.488 181.951 245.88 182.028 245.283 182.028ZM239.316 178.838C239.973 178.838 240.63 179.064 241.154 179.516C242.841 180.974 244.826 181.465 246.895 180.937C246.902 180.935 246.909 180.933 246.916 180.932C250.077 180.29 251.965 177.229 251.965 174.64C251.965 172.009 250.578 168.943 247.479 168.026C247.478 168.026 247.477 168.026 247.476 168.025C245.269 167.354 242.908 167.852 241.159 169.357C240.097 170.277 238.549 170.282 237.479 169.369C236.123 168.197 234.395 167.625 232.612 167.756C230.828 167.887 229.202 168.706 228.034 170.061C225.621 172.86 225.932 177.101 228.727 179.517C231.221 181.672 234.983 181.672 237.477 179.517C238.001 179.064 238.658 178.838 239.316 178.838Z" fill="#212121"/>
<path d="M192.957 195.497C192.755 195.497 192.578 195.36 192.528 195.165C192.29 194.23 191.843 193.341 191.235 192.592C190.107 191.203 188.506 190.337 186.727 190.153C184.948 189.969 183.204 190.49 181.816 191.62C181.194 192.129 180.38 192.358 179.583 192.247C179.341 192.213 179.173 191.991 179.207 191.749C179.241 191.508 179.463 191.339 179.704 191.373C180.258 191.45 180.826 191.291 181.259 190.936C182.831 189.657 184.804 189.067 186.817 189.275C188.831 189.483 190.643 190.464 191.919 192.036C192.601 192.876 193.105 193.873 193.376 194.922C193.389 194.964 193.397 195.009 193.397 195.056C193.397 195.3 193.2 195.497 192.957 195.497Z" fill="#212121"/>
<path d="M261.364 108.035C259.262 109.9 255.72 109.949 255.429 109.95C255.416 109.95 255.402 109.951 255.389 109.952C253.621 110.081 252.263 109.79 250.526 109.017C244.896 106.508 242.363 99.9041 244.869 94.267C245.389 93.0971 246.1 92.0389 246.962 91.1283C247.068 91.0156 247.133 90.8709 247.145 90.7162C247.215 89.8531 247.385 88.988 247.664 88.1372C247.697 88.0363 247.754 87.9449 247.83 87.8703C248.708 87.0007 249.813 86.3947 251.018 86.1214L252.062 85.8846C252.12 85.8714 252.18 85.8661 252.239 85.8689L259.925 86.2179C260.19 86.23 260.422 86.3975 260.517 86.6449L262.862 92.7484C262.869 92.7678 262.876 92.7875 262.882 92.8077L265.224 101.161" fill="white"/>
<path d="M251.113 109.46V118.366L247.308 118.427L249.328 124.344C251.74 131.412 261.205 132.635 265.33 126.412L270.665 118.366H265.026L264.88 102.119" fill="white"/>
<path d="M257.863 130.879C257.455 130.879 257.043 130.853 256.63 130.799C253.039 130.335 250.081 127.916 248.911 124.486L246.891 118.569C246.845 118.436 246.867 118.288 246.948 118.173C247.029 118.057 247.16 117.987 247.301 117.985L250.672 117.932V109.46C250.672 109.216 250.869 109.018 251.113 109.018C251.356 109.018 251.554 109.216 251.554 109.46V118.366C251.554 118.607 251.361 118.804 251.12 118.807L247.921 118.858L249.745 124.201C250.806 127.31 253.488 129.503 256.743 129.924C259.998 130.345 263.148 128.905 264.963 126.167L269.843 118.807H265.026C264.784 118.807 264.587 118.612 264.585 118.37L264.439 102.123C264.437 101.879 264.632 101.68 264.876 101.678C264.877 101.678 264.879 101.678 264.88 101.678C265.121 101.678 265.318 101.873 265.32 102.115L265.462 117.925H270.665C270.827 117.925 270.977 118.014 271.053 118.158C271.13 118.301 271.122 118.475 271.032 118.61L265.697 126.656C263.926 129.328 261.001 130.879 257.863 130.879Z" fill="#212121"/>
<path d="M261.326 107.975C259.134 109.921 255.372 109.89 255.372 109.89C253.594 110.023 252.232 109.733 250.489 108.957C244.859 106.448 242.326 99.8442 244.832 94.2071C245.385 92.9626 246.155 91.8444 247.091 90.8957C247.15 89.9016 247.341 88.9025 247.678 87.9238" fill="white"/>
<path d="M254.565 110.363C253.137 110.363 251.879 110.059 250.31 109.36C244.467 106.756 241.829 99.8779 244.429 94.0277C244.978 92.7944 245.728 91.6772 246.662 90.7043C246.735 89.7078 246.936 88.7249 247.261 87.7802C247.34 87.5497 247.591 87.4272 247.821 87.5066C248.051 87.5859 248.174 87.837 248.095 88.0674C247.778 88.9884 247.589 89.9487 247.531 90.9217C247.525 91.0287 247.48 91.1298 247.405 91.206C246.492 92.1304 245.762 93.2004 245.235 94.3864C242.832 99.7922 245.269 106.147 250.668 108.553C252.413 109.331 253.68 109.574 255.34 109.45C255.352 109.449 255.364 109.449 255.376 109.449C255.407 109.449 258.997 109.453 261.034 107.645C261.216 107.484 261.495 107.5 261.656 107.683C261.818 107.865 261.801 108.144 261.619 108.306C259.392 110.282 255.746 110.331 255.392 110.331C255.39 110.331 255.389 110.331 255.388 110.331C255.106 110.352 254.832 110.363 254.565 110.363Z" fill="#212121"/>
<path d="M266.139 90.2187C267.312 86.9941 265.651 83.4285 262.431 82.2545C259.21 81.0806 255.649 82.743 254.476 85.9676C253.304 89.1921 254.964 92.7578 258.185 93.9317C261.405 95.1056 264.967 93.4432 266.139 90.2187Z" fill="#5B69BD"/>
<path d="M257.17 86.4566C257.854 84.5753 256.886 82.4949 255.007 81.81C253.128 81.1251 251.05 82.095 250.366 83.9763C249.682 85.8577 250.65 87.938 252.529 88.6229C254.409 89.3079 256.486 88.3379 257.17 86.4566Z" fill="#5B69BD"/>
<path d="M254.843 94.5866C255.225 94.3421 255.337 93.834 255.092 93.4518C254.848 93.0695 254.341 92.9579 253.959 93.2023C253.577 93.4468 253.466 93.9549 253.71 94.3371C253.954 94.7194 254.462 94.831 254.843 94.5866Z" fill="#212121"/>
<path d="M248.568 92.7682C248.95 92.5237 249.062 92.0157 248.818 91.6334C248.573 91.2512 248.066 91.1395 247.684 91.384C247.302 91.6285 247.191 92.1365 247.435 92.5188C247.679 92.901 248.187 93.0127 248.568 92.7682Z" fill="#212121"/>
<path d="M249.592 103.117C249.365 103.117 249.133 103.093 248.902 103.045C248.023 102.86 247.269 102.344 246.778 101.592C246.287 100.839 246.118 99.9408 246.302 99.0613C246.352 98.8227 246.586 98.67 246.824 98.7199L252.539 99.9196C252.654 99.9436 252.754 100.012 252.818 100.11C252.882 100.208 252.904 100.327 252.88 100.442C252.549 102.026 251.148 103.117 249.592 103.117ZM247.113 99.6821C247.097 100.185 247.235 100.679 247.516 101.109C247.878 101.664 248.434 102.045 249.083 102.181C250.273 102.431 251.447 101.776 251.889 100.685L247.113 99.6821Z" fill="#212121"/>
<path d="M263.084 101.95C264.344 102.293 265.738 102.122 266.925 101.362C269.155 99.9333 269.807 96.9651 268.38 94.7318C266.953 92.4986 263.989 91.8461 261.758 93.2746C260.922 93.8102 260.307 94.5624 259.941 95.4112" fill="white"/>
<path d="M264.338 102.559C263.879 102.559 263.419 102.499 262.968 102.376C262.733 102.312 262.595 102.07 262.658 101.835C262.722 101.6 262.964 101.461 263.199 101.525C264.383 101.846 265.654 101.652 266.687 100.99C268.709 99.6953 269.302 96.9946 268.008 94.9697C266.715 92.945 264.017 92.3514 261.995 93.6465C261.261 94.1171 260.69 94.788 260.346 95.5863C260.249 95.81 259.99 95.9131 259.767 95.8165C259.543 95.7199 259.44 95.4603 259.537 95.2365C259.951 94.276 260.637 93.4691 261.521 92.9031C263.953 91.3459 267.196 92.0598 268.751 94.4944C270.306 96.929 269.593 100.177 267.162 101.734C266.313 102.277 265.33 102.559 264.338 102.559Z" fill="#212121"/>
<path d="M265.755 99.5173C265.704 99.5173 265.652 99.5084 265.601 99.4896L261.963 98.1377C261.801 98.0774 261.689 97.9273 261.677 97.7544C261.665 97.5814 261.755 97.4174 261.908 97.3353L265.637 95.3271C265.851 95.2118 266.119 95.292 266.234 95.5067C266.349 95.7213 266.269 95.9888 266.055 96.1043L263.184 97.6499L265.908 98.6621C266.136 98.7469 266.253 99.0009 266.168 99.2293C266.102 99.4072 265.934 99.5173 265.755 99.5173Z" fill="#212121"/>
<path d="M306.517 142.628L305.798 141.826L297.498 132.574L297.5 132.575C292.892 127.438 284.997 127.014 279.866 131.628C277.139 134.081 275.742 137.464 275.723 140.866L266.869 142.269C262.611 142.945 259.334 146.264 258.614 150.408C258.469 150.936 257.209 162.595 257.256 164.964C257.404 172.549 259.1 182.638 262.34 182.138C264.916 181.738 263.587 177.239 263.315 168.636C264.893 176.206 266.593 181.645 269.191 180.922C271.79 180.198 270.155 172.563 268.897 166.733C271.389 170.045 274.606 174.652 276.504 173.778C279.24 172.516 276.657 168.468 275.224 165.619C274.605 164.391 274.277 163.263 274.162 162.212L297.371 162.651C300.407 162.709 303.352 161.611 305.612 159.579C310.537 155.148 310.942 147.559 306.517 142.628Z" fill="white"/>
<path d="M262.106 182.597C261.622 182.597 261.157 182.413 260.722 182.046C258.226 179.945 256.947 171.723 256.815 164.973C256.768 162.565 257.991 151.212 258.182 150.323C258.947 145.942 262.409 142.53 266.8 141.833L275.29 140.488C275.411 136.98 276.959 133.649 279.572 131.299C282.141 128.989 285.455 127.819 288.903 128.004C292.351 128.189 295.52 129.708 297.828 132.28C297.83 132.282 297.832 132.284 297.834 132.286L306.844 142.333C309.063 144.805 310.188 147.995 310.011 151.314C309.833 154.633 308.376 157.685 305.906 159.907C303.556 162.021 300.521 163.153 297.362 163.092L274.671 162.662C274.826 163.562 275.138 164.469 275.618 165.42C275.787 165.757 275.971 166.107 276.165 166.478C277.298 168.637 278.582 171.084 278.007 172.777C277.795 173.401 277.351 173.873 276.688 174.178C274.77 175.061 272.245 171.933 269.749 168.606C270.243 170.964 270.739 173.546 270.929 175.703C271.122 177.878 271.163 180.83 269.309 181.346C268.724 181.51 268.155 181.427 267.62 181.1C266.296 180.293 265.19 178.054 264.035 173.687C264.063 174.06 264.09 174.422 264.116 174.775C264.289 177.066 264.425 178.876 264.276 180.14C264.166 181.077 263.851 182.35 262.408 182.574C262.306 182.59 262.206 182.597 262.106 182.597ZM288.195 128.868C285.221 128.868 282.39 129.951 280.161 131.956C277.639 134.224 276.182 137.472 276.164 140.869C276.163 141.085 276.006 141.268 275.792 141.302L266.938 142.705C262.916 143.343 259.746 146.469 259.048 150.484C259.046 150.498 259.043 150.511 259.039 150.525C258.882 151.175 257.653 162.734 257.696 164.956C257.825 171.556 259.128 179.552 261.289 181.371C261.615 181.645 261.937 181.754 262.273 181.702C263.678 181.484 263.584 179.441 263.237 174.842C263.102 173.054 262.95 171.028 262.875 168.65C262.868 168.421 263.036 168.225 263.263 168.198C263.491 168.17 263.7 168.322 263.747 168.546C264.765 173.431 266.177 179.188 268.078 180.346C268.402 180.544 268.727 180.593 269.073 180.496C271.283 179.881 269.52 171.709 268.467 166.826C268.423 166.623 268.526 166.418 268.714 166.332C268.903 166.245 269.125 166.302 269.25 166.467C269.449 166.732 269.653 167.005 269.86 167.283C271.866 169.97 274.897 174.032 276.32 173.377C276.76 173.174 277.039 172.885 277.172 172.494C277.625 171.159 276.383 168.791 275.385 166.889C275.189 166.515 275.003 166.161 274.831 165.818C274.214 164.596 273.852 163.432 273.724 162.26C273.711 162.134 273.752 162.008 273.837 161.914C273.923 161.821 274.042 161.768 274.171 161.771L297.379 162.21C300.317 162.266 303.134 161.215 305.317 159.251C307.612 157.187 308.966 154.351 309.131 151.267C309.295 148.184 308.251 145.22 306.189 142.923C306.189 142.923 306.189 142.923 306.189 142.923L297.171 132.868C297.169 132.866 297.167 132.864 297.165 132.862C295.016 130.47 292.065 129.058 288.856 128.886C288.635 128.874 288.415 128.868 288.195 128.868Z" fill="#212121"/>
<path d="M275.333 141.369C275.12 141.369 274.932 141.214 274.898 140.997C274.86 140.756 275.024 140.53 275.264 140.492L290.708 138.045C290.948 138.007 291.174 138.171 291.212 138.411C291.25 138.652 291.086 138.878 290.845 138.916L275.402 141.364C275.379 141.367 275.355 141.369 275.333 141.369Z" fill="#212121"/>
<path d="M123.688 136.64V31.5854H24.928V54.3713V136.64H123.688Z" fill="white"/>
<path d="M123.688 137.137H24.928C24.6529 137.137 24.4299 136.914 24.4299 136.64V31.5855C24.4299 31.3109 24.6529 31.0884 24.928 31.0884H123.688C123.963 31.0884 124.186 31.3109 124.186 31.5855V136.64C124.186 136.914 123.963 137.137 123.688 137.137ZM25.4261 136.143H123.19V32.0826H25.4261V136.143Z" fill="#212121"/>
<path d="M123.688 43.7877H24.928C24.6529 43.7877 24.4299 43.5651 24.4299 43.2906C24.4299 43.016 24.6529 42.7935 24.928 42.7935H123.688C123.963 42.7935 124.186 43.016 124.186 43.2906C124.186 43.5651 123.963 43.7877 123.688 43.7877Z" fill="#212121"/>
<path d="M30.161 39.3917C31.242 39.3917 32.1184 38.517 32.1184 37.438C32.1184 36.3591 31.242 35.4844 30.161 35.4844C29.08 35.4844 28.2036 36.3591 28.2036 37.438C28.2036 38.517 29.08 39.3917 30.161 39.3917Z" fill="#707FDA"/>
<path d="M35.6398 39.3917C36.7208 39.3917 37.5972 38.517 37.5972 37.438C37.5972 36.3591 36.7208 35.4844 35.6398 35.4844C34.5587 35.4844 33.6824 36.3591 33.6824 37.438C33.6824 38.517 34.5587 39.3917 35.6398 39.3917Z" fill="#707FDA"/>
<path d="M41.1185 39.3917C42.1996 39.3917 43.0759 38.517 43.0759 37.438C43.0759 36.3591 42.1996 35.4844 41.1185 35.4844C40.0375 35.4844 39.1611 36.3591 39.1611 37.438C39.1611 38.517 40.0375 39.3917 41.1185 39.3917Z" fill="#707FDA"/>
<path d="M95.2389 66.1925H35.6546C35.1047 66.1925 34.6648 65.7521 34.6648 65.2015C34.6648 64.6509 35.1047 64.2104 35.6546 64.2104H95.2389C95.7888 64.2104 96.2287 64.6509 96.2287 65.2015C96.2287 65.7521 95.7888 66.1925 95.2389 66.1925Z" fill="#707FDA"/>
<path d="M92.0496 69.8043H35.6546C35.1047 69.8043 34.6648 69.3639 34.6648 68.8133C34.6648 68.2627 35.1047 67.8223 35.6546 67.8223H92.0496C92.5995 67.8223 93.0394 68.2627 93.0394 68.8133C93.0394 69.3639 92.5995 69.8043 92.0496 69.8043Z" fill="#707FDA"/>
<path d="M89.2123 73.4161H35.6546C35.1047 73.4161 34.6648 72.9757 34.6648 72.4251C34.6648 71.8745 35.1047 71.4341 35.6546 71.4341H89.2123C89.7622 71.4341 90.2021 71.8745 90.2021 72.4251C90.2021 72.9757 89.7402 73.4161 89.2123 73.4161Z" fill="#707FDA"/>
<path d="M93.5312 69.8903H35.5719C35.037 69.8903 34.6091 69.4624 34.6091 68.9276C34.6091 68.3927 35.037 67.9648 35.5719 67.9648H93.5312C94.0661 67.9648 94.494 68.3927 94.494 68.9276C94.494 69.4624 94.0661 69.8903 93.5312 69.8903Z" fill="#707FDA"/>
<path d="M90.429 73.399H35.5719C35.037 73.399 34.6091 72.9712 34.6091 72.4363C34.6091 71.9015 35.037 71.4736 35.5719 71.4736H90.429C90.9638 71.4736 91.3917 71.9015 91.3917 72.4363C91.3917 72.9712 90.9638 73.399 90.429 73.399Z" fill="#707FDA"/>
<path d="M87.669 76.9074H35.5719C35.037 76.9074 34.6091 76.4795 34.6091 75.9446C34.6091 75.4098 35.037 74.9819 35.5719 74.9819H87.669C88.2038 74.9819 88.6317 75.4098 88.6317 75.9446C88.6317 76.4795 88.1824 76.9074 87.669 76.9074Z" fill="#707FDA"/>
<path d="M93.822 73.0861H35.8627C35.3278 73.0861 34.8999 72.6582 34.8999 72.1234C34.8999 71.5885 35.3278 71.1606 35.8627 71.1606H93.822C94.3569 71.1606 94.7848 71.5885 94.7848 72.1234C94.7848 72.6582 94.3569 73.0861 93.822 73.0861Z" fill="#707FDA"/>
<path d="M90.7197 76.5949H35.8627C35.3278 76.5949 34.8999 76.167 34.8999 75.6321C34.8999 75.0973 35.3278 74.6694 35.8627 74.6694H90.7197C91.2546 74.6694 91.6825 75.0973 91.6825 75.6321C91.6825 76.167 91.2546 76.5949 90.7197 76.5949Z" fill="#707FDA"/>
<path d="M87.9597 80.1032H35.8627C35.3278 80.1032 34.8999 79.6753 34.8999 79.1404C34.8999 78.6056 35.3278 78.1777 35.8627 78.1777H87.9597C88.4946 78.1777 88.9225 78.6056 88.9225 79.1404C88.9225 79.6753 88.4732 80.1032 87.9597 80.1032Z" fill="#707FDA"/>
<path d="M151.899 136.64V31.5854H53.1389V54.3713V136.64H151.899Z" fill="white"/>
<path d="M151.899 137.137H53.1389C52.8638 137.137 52.6409 136.914 52.6409 136.64V31.5855C52.6409 31.3109 52.8638 31.0884 53.1389 31.0884H151.899C152.174 31.0884 152.397 31.3109 152.397 31.5855V136.64C152.397 136.914 152.174 137.137 151.899 137.137ZM53.637 136.143H151.401V32.0826H53.637V136.143Z" fill="#212121"/>
<path d="M151.899 43.7877H53.1389C52.8638 43.7877 52.6409 43.5651 52.6409 43.2906C52.6409 43.016 52.8638 42.7935 53.1389 42.7935H151.899C152.174 42.7935 152.397 43.016 152.397 43.2906C152.397 43.5651 152.174 43.7877 151.899 43.7877Z" fill="#212121"/>
<path d="M58.3719 39.3917C59.453 39.3917 60.3293 38.517 60.3293 37.438C60.3293 36.3591 59.453 35.4844 58.3719 35.4844C57.2909 35.4844 56.4146 36.3591 56.4146 37.438C56.4146 38.517 57.2909 39.3917 58.3719 39.3917Z" fill="#707FDA"/>
<path d="M63.8507 39.3917C64.9317 39.3917 65.8081 38.517 65.8081 37.438C65.8081 36.3591 64.9317 35.4844 63.8507 35.4844C62.7697 35.4844 61.8933 36.3591 61.8933 37.438C61.8933 38.517 62.7697 39.3917 63.8507 39.3917Z" fill="#707FDA"/>
<path d="M69.3295 39.3917C70.4105 39.3917 71.2869 38.517 71.2869 37.438C71.2869 36.3591 70.4105 35.4844 69.3295 35.4844C68.2484 35.4844 67.3721 36.3591 67.3721 37.438C67.3721 38.517 68.2484 39.3917 69.3295 39.3917Z" fill="#707FDA"/>
<path d="M137.129 105.461H79.982C79.4546 105.461 79.0327 105.036 79.0327 104.505C79.0327 103.975 79.4546 103.55 79.982 103.55H137.129C137.656 103.55 138.078 103.975 138.078 104.505C138.078 105.036 137.656 105.461 137.129 105.461Z" fill="#707FDA"/>
<path d="M134.07 108.944H79.982C79.4546 108.944 79.0327 108.519 79.0327 107.988C79.0327 107.457 79.4546 107.033 79.982 107.033H134.07C134.597 107.033 135.019 107.457 135.019 107.988C135.019 108.519 134.597 108.944 134.07 108.944Z" fill="#707FDA"/>
<path d="M131.349 112.426H79.982C79.4546 112.426 79.0327 112.002 79.0327 111.471C79.0327 110.94 79.4546 110.515 79.982 110.515H131.349C131.876 110.515 132.298 110.94 132.298 111.471C132.298 112.002 131.855 112.426 131.349 112.426Z" fill="#707FDA"/>
<path d="M137.42 108.565H80.2728C79.7454 108.565 79.3235 108.143 79.3235 107.616C79.3235 107.089 79.7454 106.667 80.2728 106.667H137.42C137.947 106.667 138.369 107.089 138.369 107.616C138.369 108.143 137.947 108.565 137.42 108.565Z" fill="#707FDA"/>
<path d="M134.361 112.022H80.2728C79.7454 112.022 79.3235 111.6 79.3235 111.073C79.3235 110.546 79.7454 110.125 80.2728 110.125H134.361C134.888 110.125 135.31 110.546 135.31 111.073C135.31 111.6 134.888 112.022 134.361 112.022Z" fill="#707FDA"/>
<path d="M131.639 115.479H80.2728C79.7454 115.479 79.3235 115.057 79.3235 114.53C79.3235 114.003 79.7454 113.582 80.2728 113.582H131.639C132.167 113.582 132.589 114.003 132.589 114.53C132.589 115.057 132.146 115.479 131.639 115.479Z" fill="#707FDA"/>
<path d="M137.717 112.051H80.8408C80.3159 112.051 79.896 111.629 79.896 111.102C79.896 110.575 80.3159 110.154 80.8408 110.154H137.717C138.242 110.154 138.662 110.575 138.662 111.102C138.662 111.629 138.242 112.051 137.717 112.051Z" fill="#707FDA"/>
<path d="M134.672 115.508H80.8408C80.3159 115.508 79.896 115.086 79.896 114.559C79.896 114.032 80.3159 113.611 80.8408 113.611H134.672C135.197 113.611 135.617 114.032 135.617 114.559C135.617 115.086 135.197 115.508 134.672 115.508Z" fill="#707FDA"/>
<path d="M131.964 118.965H80.8408C80.3159 118.965 79.896 118.543 79.896 118.016C79.896 117.489 80.3159 117.068 80.8408 117.068H131.964C132.489 117.068 132.909 117.489 132.909 118.016C132.909 118.543 132.468 118.965 131.964 118.965Z" fill="#707FDA"/>
<path d="M7.95936 212.388C7.69722 212.388 7.52246 212.194 7.52246 211.904C7.52246 211.613 7.69722 211.419 7.95936 211.419H342.016C342.278 211.419 342.453 211.613 342.453 211.904C342.453 212.194 342.278 212.388 342.016 212.388H7.95936Z" fill="#212121"/>
<path d="M137.739 129.703L137.178 128.606C136.69 127.646 135.887 126.884 134.907 126.45L134.185 126.128L143.064 121.584L142.904 122.359C142.682 123.412 142.832 124.513 143.329 125.472L143.891 126.569C144.099 126.976 144.226 127.42 144.264 127.875C144.302 128.329 144.251 128.787 144.114 129.22C143.977 129.654 143.755 130.055 143.463 130.401C143.171 130.748 142.813 131.032 142.41 131.238L142.409 131.239C141.596 131.658 140.647 131.733 139.773 131.448C138.899 131.163 138.17 130.54 137.747 129.718L137.739 129.703Z" fill="white"/>
<path d="M142.352 131.714C141.456 132.098 140.445 132.125 139.524 131.788C138.603 131.452 137.841 130.778 137.39 129.902L137.382 129.886L136.821 128.789C136.374 127.913 135.641 127.217 134.747 126.82L134.025 126.497C133.955 126.466 133.895 126.416 133.852 126.352C133.81 126.288 133.786 126.214 133.783 126.137C133.781 126.061 133.8 125.985 133.838 125.92C133.877 125.854 133.933 125.801 134.001 125.766L142.88 121.222C142.947 121.188 143.023 121.173 143.099 121.18C143.175 121.188 143.247 121.216 143.308 121.263C143.368 121.31 143.415 121.373 143.441 121.445C143.468 121.516 143.474 121.594 143.458 121.669L143.298 122.444C143.096 123.406 143.233 124.411 143.686 125.287L144.248 126.386C144.717 127.303 144.807 128.367 144.498 129.344C144.188 130.321 143.505 131.132 142.598 131.597L142.594 131.599C142.515 131.64 142.434 131.679 142.352 131.714ZM138.096 129.52L138.1 129.528C138.284 129.889 138.537 130.21 138.844 130.473C139.151 130.736 139.506 130.936 139.889 131.062C140.271 131.187 140.674 131.236 141.075 131.204C141.475 131.173 141.864 131.063 142.221 130.88L142.226 130.878C142.582 130.695 142.898 130.444 143.156 130.138C143.414 129.832 143.609 129.478 143.731 129.094C143.852 128.711 143.897 128.307 143.863 127.906C143.83 127.504 143.717 127.112 143.533 126.752L142.972 125.655C142.443 124.63 142.276 123.456 142.499 122.329L135.121 126.104C136.162 126.581 137.013 127.399 137.536 128.423L138.096 129.52Z" fill="#212121"/>
<path d="M145.269 136.92C145.175 136.96 145.07 136.963 144.974 136.927C144.878 136.892 144.798 136.822 144.751 136.73L140.225 127.897C140.2 127.849 140.184 127.797 140.179 127.744C140.174 127.69 140.179 127.636 140.195 127.585C140.211 127.534 140.237 127.487 140.271 127.446C140.305 127.405 140.347 127.372 140.394 127.347C140.442 127.323 140.493 127.309 140.546 127.305C140.6 127.301 140.653 127.307 140.704 127.324C140.754 127.341 140.801 127.368 140.842 127.404C140.882 127.439 140.915 127.482 140.939 127.53L145.465 136.364C145.514 136.46 145.524 136.571 145.491 136.673C145.459 136.775 145.388 136.859 145.293 136.908C145.285 136.913 145.277 136.916 145.269 136.92Z" fill="#212121"/>
<path d="M138.762 124.175C138.671 124.214 138.569 124.218 138.474 124.185L135.872 123.288C135.821 123.271 135.774 123.244 135.734 123.209C135.693 123.174 135.66 123.132 135.635 123.083C135.611 123.035 135.597 122.983 135.593 122.93C135.589 122.876 135.596 122.822 135.613 122.772C135.629 122.721 135.656 122.674 135.691 122.634C135.727 122.594 135.769 122.561 135.817 122.538C135.865 122.515 135.917 122.502 135.97 122.499C136.024 122.496 136.077 122.504 136.127 122.522L138.729 123.419C138.807 123.446 138.874 123.495 138.923 123.561C138.972 123.627 139 123.706 139.004 123.788C139.007 123.869 138.986 123.95 138.943 124.019C138.9 124.088 138.837 124.142 138.762 124.175Z" fill="#212121"/>
<path d="M138.763 124.174C138.67 124.214 138.565 124.217 138.469 124.183C138.373 124.148 138.293 124.078 138.246 123.987L137.029 121.64C137.004 121.593 136.988 121.541 136.983 121.488C136.977 121.434 136.983 121.38 136.998 121.329C137.014 121.278 137.039 121.231 137.073 121.19C137.107 121.149 137.149 121.115 137.196 121.09C137.243 121.066 137.295 121.051 137.348 121.047C137.401 121.043 137.455 121.049 137.505 121.066C137.556 121.083 137.603 121.109 137.644 121.144C137.684 121.18 137.717 121.222 137.741 121.27L138.497 122.728L138.983 121.072C139.013 120.97 139.083 120.884 139.176 120.833C139.27 120.782 139.38 120.771 139.482 120.803C139.585 120.834 139.671 120.904 139.722 120.999C139.773 121.094 139.785 121.205 139.755 121.307L138.988 123.919C138.972 123.976 138.943 124.028 138.904 124.072C138.865 124.116 138.817 124.151 138.763 124.174Z" fill="#212121"/>
<path d="M143.99 81.3121C142.973 81.4758 142.285 82.4335 142.454 83.4509C142.454 83.4517 142.454 83.4525 142.454 83.4534C142.285 82.4342 141.321 81.742 140.303 81.907C139.284 82.072 138.596 83.032 138.765 84.0511L140.292 93.3942L135.165 85.4202C134.594 84.5586 133.435 84.3195 132.576 84.8862C131.736 85.44 131.49 86.562 132.02 87.4214C131.475 86.5438 130.323 86.2713 129.447 86.8129C128.572 87.3544 128.304 88.5048 128.85 89.3824C128.858 89.3956 128.867 89.4086 128.875 89.4215L129.546 90.4722L134.074 97.5591C135.674 100.065 138.596 101.402 141.531 100.97L141.533 100.993C142.573 100.818 143.568 100.44 144.46 99.8804L144.445 99.8627C146.92 98.2383 148.201 95.3057 147.714 92.3776L146.338 84.0935L146.134 82.8651C145.97 81.8471 145.011 81.1517 143.994 81.3116C143.993 81.3118 143.991 81.3119 143.99 81.3121Z" fill="white"/>
<path d="M145.476 99.6353C145.264 99.8163 145.041 99.9869 144.807 100.146C144.776 100.187 144.738 100.223 144.693 100.25C143.748 100.843 142.71 101.238 141.608 101.423C141.556 101.432 141.504 101.431 141.453 101.422C138.4 101.814 135.372 100.401 133.706 97.7929L128.48 89.612C127.808 88.5308 128.138 87.1093 129.216 86.4417C129.868 86.0388 130.645 86.0022 131.307 86.2746C131.354 85.5866 131.713 84.9321 132.334 84.5219C133.393 83.8238 134.825 84.1193 135.528 85.1806L139.523 91.3936L138.335 84.1198C138.126 82.8662 138.977 81.68 140.231 81.4765C140.989 81.3537 141.723 81.6173 142.232 82.1219C142.287 82.0127 142.35 81.9072 142.423 81.8062C142.781 81.3077 143.312 80.9794 143.919 80.8817C143.921 80.8815 143.922 80.8812 143.924 80.881C143.924 80.8809 143.926 80.8807 143.926 80.8807L143.926 80.8809C145.187 80.6904 146.363 81.5485 146.565 82.7977L148.145 92.3083C148.604 95.0738 147.569 97.8507 145.476 99.6353ZM144.161 99.5304C144.174 99.5187 144.189 99.5078 144.204 99.4978C146.533 97.9696 147.742 95.2021 147.284 92.4474L145.704 82.9348C145.578 82.1544 144.842 81.6203 144.064 81.7428L143.99 81.3123L144.062 81.743C143.685 81.8038 143.355 82.0074 143.133 82.3171C142.911 82.626 142.822 83.0034 142.884 83.3796C142.885 83.3809 142.885 83.3824 142.885 83.3837C142.925 83.6213 142.764 83.8452 142.527 83.8841C142.308 83.9198 142.1 83.7864 142.037 83.5794C142.032 83.5612 142.027 83.5425 142.024 83.5231C141.894 82.7431 141.154 82.2112 140.375 82.3376C139.595 82.464 139.066 83.2013 139.196 83.9814L140.723 93.3259C140.757 93.53 140.642 93.7291 140.449 93.8022C140.256 93.8755 140.038 93.8032 139.926 93.6291L134.798 85.655C134.59 85.3407 134.267 85.1222 133.892 85.045C133.518 84.9677 133.136 85.0408 132.817 85.2508C132.17 85.6771 131.983 86.5311 132.392 87.1937C132.518 87.3989 132.455 87.6674 132.251 87.7933C132.046 87.9193 131.777 87.8555 131.65 87.6507C131.233 86.9792 130.348 86.77 129.678 87.1844C129.008 87.5983 128.803 88.482 129.221 89.1537L129.913 90.2392L134.441 97.3259C135.947 99.6841 138.705 100.945 141.466 100.539C141.509 100.533 141.552 100.533 141.595 100.539C142.487 100.373 143.332 100.052 144.109 99.5839C144.124 99.5644 144.142 99.5467 144.161 99.5304Z" fill="#212121"/>
<path d="M143.918 90.8855C143.859 90.9353 143.787 90.9702 143.705 90.9833C143.468 91.0217 143.243 90.8602 143.203 90.6222L141.999 83.3753C141.96 83.1375 142.12 82.9135 142.358 82.875C142.596 82.8366 142.821 82.9981 142.86 83.2361L144.064 90.483C144.09 90.6394 144.03 90.7899 143.918 90.8855Z" fill="#212121"/>
<path d="M151.907 123.213C151.87 123.244 151.827 123.27 151.779 123.288C151.554 123.374 151.302 123.26 151.215 123.035L141.461 97.6476C141.375 97.4223 141.487 97.1703 141.712 97.0849C141.937 96.9994 142.189 97.1126 142.276 97.338L152.03 122.725C152.098 122.903 152.043 123.097 151.907 123.213Z" fill="#212121"/>
<path d="M136.189 93.8232C136.173 93.8362 136.157 93.8483 136.14 93.8595C135.937 93.9886 135.667 93.9282 135.537 93.7248L131.575 87.5268C131.445 87.3234 131.504 87.0546 131.707 86.9247C131.91 86.7955 132.18 86.8559 132.31 87.0593L136.272 93.2573C136.39 93.4434 136.351 93.6846 136.189 93.8232Z" fill="#212121"/>
<path d="M143.338 100.908C143.301 100.939 143.259 100.965 143.211 100.983C142.986 101.068 142.733 100.955 142.647 100.73L139.888 93.5464C139.801 93.3212 139.914 93.0692 140.139 92.9837C140.363 92.8982 140.616 93.0115 140.703 93.2368L143.461 100.42C143.53 100.597 143.475 100.791 143.338 100.908Z" fill="#212121"/>
<path d="M267.652 93.639C267.606 93.639 267.559 93.6326 267.513 93.6191L262.438 92.1445C262.175 92.068 262.024 91.7934 262.101 91.5314C262.178 91.2692 262.453 91.1188 262.716 91.1952L267.791 92.6697C268.054 92.7462 268.205 93.0208 268.128 93.2828C268.065 93.4989 267.867 93.639 267.652 93.639Z" fill="#212121"/>
<path d="M262.578 91.6698C261.684 88.868 256.843 88.3455 254.114 89.3162C253.982 89.3624 253.856 89.4135 253.737 89.4662C253.309 89.6642 252.823 89.6988 252.372 89.5635L251.236 89.2075C250.789 89.0583 250.412 88.7503 250.177 88.3422C250.109 88.2318 250.037 88.118 249.955 88.0126C248.286 85.6541 244.023 83.3104 241.681 85.0838C239.339 86.8572 238.431 90.1057 241.626 93.0756C244.013 95.294 247.67 94.0233 248.15 93.7052C249.1 93.0756 249.873 92.3752 250.316 91.5973C250.446 91.3413 250.738 91.2113 251.016 91.2858L251.359 91.3945C251.631 91.4923 251.796 91.7688 251.751 92.0538C251.665 92.9438 251.892 93.9591 252.304 95.0205C252.512 95.5545 254.768 98.6909 258.002 98.2475C262.324 97.641 263.47 94.4667 262.578 91.6698Z" fill="white"/>
<path d="M257.388 98.784C254.339 98.784 252.15 95.9904 251.841 95.1998C251.36 93.9604 251.169 92.9161 251.257 92.0065C251.258 91.9968 251.259 91.9871 251.26 91.9774C251.268 91.9284 251.241 91.8808 251.196 91.862L250.881 91.7619C250.832 91.7521 250.782 91.776 250.759 91.8203C250.756 91.8275 250.752 91.8346 250.748 91.8416C250.294 92.6374 249.534 93.3817 248.425 94.117C247.664 94.6215 243.798 95.7714 241.287 93.4373C239.351 91.6373 239.013 89.8971 239.071 88.7541C239.148 87.2243 239.99 85.7431 241.38 84.6903C242.198 84.0707 243.28 83.8433 244.51 84.0325C246.889 84.3986 249.25 86.1631 250.356 87.7201C250.451 87.8455 250.533 87.9744 250.601 88.0843C250.782 88.3999 251.061 88.6278 251.394 88.7386L252.521 89.0918C252.85 89.1905 253.21 89.1648 253.528 89.0178C253.68 88.9506 253.815 88.8967 253.95 88.8495C255.752 88.2086 258.708 88.1163 260.867 89.1818C261.983 89.7328 262.738 90.5413 263.051 91.52C263.578 93.1746 263.411 94.867 262.592 96.1635C261.979 97.1342 260.696 98.3687 258.071 98.737C257.839 98.769 257.611 98.784 257.388 98.784ZM252.244 92.1133C252.175 92.8535 252.351 93.7717 252.767 94.8423C252.903 95.1921 254.943 98.1679 257.934 97.7579C259.712 97.5083 261.033 96.7749 261.752 95.637C262.415 94.5875 262.543 93.196 262.104 91.8196C261.872 91.0925 261.308 90.5033 260.426 90.0682C258.767 89.2492 256.125 89.1261 254.281 89.782C254.169 89.8211 254.058 89.8653 253.939 89.9182C253.407 90.1641 252.797 90.2074 252.229 90.0372L251.087 89.6794C250.515 89.4888 250.042 89.1022 249.746 88.588C249.698 88.51 249.632 88.4052 249.561 88.3134C249.557 88.3083 249.553 88.303 249.55 88.2977C248.422 86.705 246.19 85.2915 244.359 85.0099C243.388 84.8604 242.588 85.0179 241.981 85.4774C240.825 86.3534 240.125 87.5658 240.063 88.8039C239.995 90.1426 240.653 91.4948 241.965 92.7142C244.136 94.733 247.574 93.4928 247.875 93.2937C248.834 92.658 249.508 92.008 249.88 91.3618C250.117 90.9074 250.647 90.675 251.145 90.8083C251.152 90.8103 251.16 90.8125 251.167 90.8148L251.51 90.9235C251.515 90.9254 251.521 90.9273 251.527 90.9295C252.017 91.1052 252.316 91.6011 252.244 92.1133Z" fill="#212121"/>
<path d="M260.34 95.0736C260.985 93.0447 259.729 90.8388 257.535 90.1466C255.341 89.4543 253.039 90.5378 252.394 92.5667C251.748 94.5955 253.004 96.8014 255.198 97.4937C257.392 98.1859 259.694 97.1024 260.34 95.0736Z" fill="#212121"/>
<path d="M249.29 91.7043C249.962 89.5839 248.648 87.2804 246.355 86.5593C244.062 85.8382 241.658 86.9725 240.985 89.0929C240.313 91.2132 241.627 93.5167 243.92 94.2378C246.214 94.9589 248.618 93.8246 249.29 91.7043Z" fill="#212121"/>
<path d="M151.266 22.3721H153.764C154.905 22.3719 155.831 23.2957 155.831 24.4357C155.831 24.7567 155.756 25.0733 155.612 25.3602L152.514 31.5522L149.417 25.3602C148.906 24.3409 149.319 23.1009 150.339 22.5904C150.627 22.4465 150.944 22.3717 151.266 22.3721Z" fill="#707FDA"/>
<path d="M161.703 30.303V32.7987C161.705 33.9386 160.781 34.864 159.64 34.8652C159.318 34.8656 159 34.7908 158.712 34.6469L152.514 31.5519L158.712 28.4549C159.734 27.9457 160.976 28.3608 161.486 29.3819C161.629 29.6679 161.703 29.9833 161.703 30.303Z" fill="#707FDA"/>
<path d="M312.997 52.3821C312.895 52.3939 310.966 51.9104 310.66 51.8175L313.968 45.3421C313.998 45.2827 314.044 45.2327 314.101 45.1979C314.159 45.163 314.224 45.1445 314.291 45.1445H314.296C314.364 45.1454 314.43 45.1652 314.487 45.2017C314.544 45.2382 314.59 45.29 314.619 45.3511L316.3 48.881C316.303 48.8882 316.307 48.8954 316.31 48.9026C316.577 49.5734 316.538 50.3212 316.34 51.0536C316.295 51.0764 314.106 52.255 312.997 52.3821Z" fill="white"/>
<path d="M313.023 52.7812C312.692 52.7812 310.563 52.2067 310.543 52.2007C310.487 52.1837 310.435 52.1546 310.391 52.1154C310.348 52.0763 310.313 52.0281 310.29 51.9742C310.267 51.9204 310.256 51.8621 310.258 51.8036C310.26 51.7451 310.275 51.6878 310.302 51.6356L313.609 45.1602C313.674 45.0333 313.773 44.927 313.896 44.8534C314.018 44.7797 314.159 44.7418 314.302 44.7437C314.445 44.7457 314.584 44.7875 314.705 44.8645C314.825 44.9414 314.921 45.0504 314.983 45.1791L316.664 48.7092C316.671 48.7226 316.676 48.7366 316.682 48.7503C316.958 49.4432 316.973 50.2516 316.729 51.1572C316.714 51.2115 316.689 51.2622 316.653 51.3059C316.618 51.3497 316.573 51.3855 316.523 51.411L316.511 51.4176C315.963 51.7068 314.096 52.66 313.044 52.7803C313.037 52.781 313.03 52.7813 313.023 52.7812ZM311.244 51.5597C311.844 51.7147 312.778 51.9417 312.993 51.9785C313.697 51.8814 314.972 51.3135 315.994 50.7821C316.148 50.1167 316.129 49.5347 315.936 49.0503L314.29 45.5951L311.244 51.5597Z" fill="#212121"/>
<path d="M316.902 54.8102L322.484 52.8062C322.629 52.7554 322.785 52.7461 322.935 52.7792C323.085 52.8122 323.223 52.8864 323.334 52.9933C323.444 53.1003 323.522 53.2357 323.559 53.3844C323.596 53.5331 323.59 53.6891 323.543 53.8349C323.502 53.9538 323.435 54.0622 323.347 54.1523C323.259 54.2424 323.152 54.3119 323.033 54.3559L321.692 54.8235L322.832 55.0106C323.047 55.0443 323.24 55.1617 323.369 55.3371C323.497 55.5125 323.55 55.7314 323.516 55.9458C323.483 56.1602 323.365 56.3524 323.189 56.4802C323.012 56.6079 322.793 56.6608 322.577 56.6272L318.912 56.0493" fill="white"/>
<path d="M322.708 57.0384C322.643 57.0384 322.579 57.0334 322.515 57.0233L318.849 56.4454C318.744 56.4277 318.651 56.3698 318.589 56.2841C318.527 56.1984 318.502 56.0918 318.519 55.9876C318.535 55.8834 318.592 55.7899 318.678 55.7274C318.763 55.6648 318.87 55.6384 318.974 55.6537L322.64 56.2315C322.704 56.2416 322.771 56.2368 322.833 56.2175C322.896 56.1981 322.953 56.1648 323 56.1199C323.057 56.0677 323.097 56.0005 323.116 55.9263C323.135 55.8522 323.132 55.7742 323.108 55.7015C323.085 55.6252 323.041 55.5568 322.981 55.5046C322.921 55.4523 322.847 55.4184 322.768 55.4066L321.626 55.2196C321.538 55.205 321.457 55.1616 321.396 55.0963C321.336 55.0309 321.299 54.9473 321.291 54.8587C321.283 54.77 321.305 54.6813 321.354 54.6066C321.402 54.5318 321.475 54.4753 321.559 54.4459L322.893 53.9808C322.955 53.9576 323.011 53.9213 323.057 53.8743C323.103 53.8273 323.139 53.7709 323.161 53.7088C323.186 53.6352 323.189 53.5559 323.171 53.4805C323.152 53.405 323.111 53.3365 323.055 53.2832C322.999 53.2267 322.928 53.1874 322.851 53.1699C322.773 53.1524 322.692 53.1575 322.618 53.1846L317.038 55.1874C316.988 55.2059 316.935 55.2144 316.882 55.2123C316.829 55.2103 316.777 55.1977 316.728 55.1754C316.68 55.1532 316.637 55.1216 316.601 55.0825C316.565 55.0434 316.537 54.9976 316.519 54.9478C316.501 54.8979 316.493 54.845 316.496 54.7921C316.498 54.7391 316.511 54.6873 316.534 54.6394C316.557 54.5916 316.589 54.5487 316.629 54.5134C316.669 54.478 316.715 54.4508 316.765 54.4334L322.347 52.4293C322.563 52.3529 322.796 52.3383 323.02 52.3873C323.245 52.4362 323.451 52.5468 323.615 52.7063C323.779 52.8659 323.895 53.0681 323.95 53.2901C324.005 53.5121 323.996 53.7449 323.925 53.9621C323.868 54.1298 323.775 54.2834 323.654 54.4129C323.533 54.5423 323.385 54.6446 323.221 54.713C323.378 54.7852 323.517 54.8895 323.631 55.0191C323.744 55.1487 323.828 55.3006 323.878 55.465C323.947 55.6813 323.952 55.9124 323.894 56.1317C323.837 56.351 323.718 56.5496 323.552 56.7048C323.324 56.9188 323.022 57.038 322.708 57.0384Z" fill="#212121"/>
<path d="M306.214 53.2607L303.048 53.568L306.147 54.8105L306.214 53.2607Z" fill="#212121"/>
<path d="M307.622 56.1733C308.196 56.436 308.677 56.8642 309.004 57.4025C309.366 57.9845 309.845 58.4851 310.412 58.8721C312.437 60.2882 315.214 59.9275 316.917 58.1373L318.916 56.0264L312.92 52.1787C312.21 51.9073 311.555 51.5089 310.989 51.003C310.442 50.5255 309.746 50.2525 309.019 50.2309C308.292 50.2093 307.58 50.4403 307.006 50.8844C306.432 51.3285 306.03 51.958 305.871 52.6646C305.712 53.3713 305.805 54.1112 306.133 54.7572C306.458 55.3808 306.982 55.879 307.622 56.1733Z" fill="white"/>
<path d="M313.192 60.1362C312.116 60.1407 311.064 59.8138 310.181 59.2001C309.569 58.7828 309.052 58.2426 308.662 57.6141C308.378 57.1441 307.959 56.7699 307.459 56.5398L307.455 56.5378C306.734 56.207 306.144 55.6466 305.778 54.9449C305.404 54.216 305.297 53.3797 305.475 52.5804C305.653 51.781 306.106 51.0686 306.754 50.566C307.403 50.0633 308.208 49.8019 309.03 49.8268C309.851 49.8517 310.639 50.1614 311.256 50.7024C311.786 51.1757 312.398 51.5486 313.062 51.803C313.089 51.813 313.114 51.8258 313.138 51.8411L319.134 55.6888C319.183 55.7207 319.225 55.7631 319.257 55.8129C319.288 55.8628 319.308 55.9189 319.315 55.9773C319.322 56.0357 319.316 56.095 319.298 56.1508C319.28 56.2067 319.249 56.2579 319.208 56.3007L317.21 58.4116C316.693 58.9555 316.07 59.3888 315.379 59.6853C314.688 59.9818 313.944 60.1352 313.192 60.1362ZM307.787 55.8076C308.433 56.1024 308.976 56.584 309.345 57.1899C309.677 57.7254 310.118 58.1856 310.639 58.5409C312.468 59.8204 315.04 59.5269 316.625 57.8616L318.291 56.1022L312.738 52.5381C311.997 52.2496 311.315 51.8315 310.722 51.3036C310.246 50.8882 309.64 50.6508 309.007 50.632C308.374 50.6132 307.754 50.8143 307.254 51.2007C306.754 51.5871 306.404 52.1348 306.265 52.7499C306.125 53.365 306.205 54.0092 306.49 54.5722C306.773 55.1158 307.229 55.5504 307.787 55.8076H307.787Z" fill="#212121"/>
<path d="M307.864 54.4631C308.308 54.4631 308.668 54.1042 308.668 53.6615C308.668 53.2188 308.308 52.8599 307.864 52.8599C307.419 52.8599 307.059 53.2188 307.059 53.6615C307.059 54.1042 307.419 54.4631 307.864 54.4631Z" fill="#212121"/>
<path d="M310.205 55.367C310.087 55.2794 309.981 55.1776 309.889 55.064C309.881 55.0541 309.874 55.044 309.868 55.0336C309.588 54.5823 309.493 54.0413 309.603 53.5223C309.675 53.1993 309.624 52.861 309.459 52.5737C309.438 52.5438 309.419 52.514 309.4 52.4841C309.389 52.4668 309.379 52.4493 309.366 52.4321C309.359 52.4237 309.353 52.4149 309.347 52.4054C309.173 52.1268 308.894 51.9287 308.573 51.8546C308.252 51.7805 307.914 51.8364 307.634 52.01L306.092 52.972C306.025 53.0139 305.946 53.0351 305.867 53.0328C305.788 53.0305 305.711 53.0049 305.646 52.9592C305.581 52.9135 305.531 52.8498 305.503 52.776C305.474 52.7022 305.468 52.6216 305.486 52.5445C305.67 51.7237 306.149 50.9985 306.833 50.5061C307.482 50.0282 308.276 49.7871 309.082 49.8234C309.887 49.8597 310.656 50.1712 311.259 50.7054C311.729 51.1322 312.268 51.476 312.855 51.7219L320.158 46.0898C320.218 46.0439 320.289 46.0155 320.364 46.0079C320.439 46.0003 320.514 46.0138 320.582 46.0468C320.649 46.0798 320.706 46.131 320.746 46.1946C320.786 46.2583 320.807 46.3317 320.807 46.4067V50.7354C320.807 50.7442 320.807 50.7529 320.806 50.7621C320.624 53.5276 316.353 55.4745 315.901 55.6726C315.111 56.1813 314.191 56.4526 313.251 56.4539C312.139 56.4546 311.063 56.0704 310.205 55.367Z" fill="#5B69BD"/>
<path d="M312.689 52.5153C312.635 52.4806 312.589 52.4334 312.557 52.3777C312.525 52.322 312.507 52.2594 312.504 52.1953C312.502 52.1311 312.514 52.0672 312.541 52.009C312.569 51.9507 312.61 51.8999 312.661 51.8607L320.158 46.0891C320.218 46.0433 320.289 46.015 320.364 46.0074C320.439 45.9999 320.514 46.0134 320.582 46.0464C320.649 46.0794 320.706 46.1307 320.746 46.1943C320.786 46.2579 320.807 46.3313 320.807 46.4063V48.0496C320.804 48.7818 320.61 49.5007 320.243 50.1354C319.876 50.7701 319.35 51.2987 318.716 51.6691L317.081 52.617C316.442 52.992 315.714 53.19 314.972 53.1904C314.162 53.1889 313.369 52.9545 312.689 52.5153Z" fill="#707FDA"/>
<path d="M329.438 163.293L323.959 166.561L320.676 161.106C320.166 160.26 319.827 159.323 319.681 158.347C319.534 157.371 319.582 156.376 319.821 155.419C320.061 154.461 320.488 153.56 321.077 152.767C321.667 151.974 322.407 151.304 323.257 150.796L323.277 150.783L328.757 147.516L332.039 152.971C332.55 153.817 332.888 154.754 333.035 155.73C333.181 156.706 333.133 157.701 332.894 158.658C332.654 159.616 332.228 160.517 331.638 161.31C331.049 162.103 330.308 162.773 329.459 163.281L329.438 163.293Z" fill="white"/>
<path d="M323.959 167.024C323.878 167.024 323.799 167.003 323.729 166.963C323.66 166.924 323.601 166.867 323.56 166.799L320.278 161.343C319.183 159.531 318.857 157.359 319.371 155.306C319.884 153.254 321.196 151.489 323.017 150.399L323.038 150.387L328.518 147.119C328.624 147.056 328.75 147.037 328.87 147.067C328.989 147.097 329.092 147.173 329.156 147.278L332.438 152.733C333.532 154.546 333.859 156.718 333.345 158.77C332.831 160.823 331.52 162.588 329.698 163.678L329.678 163.69L324.198 166.958C324.125 167.001 324.043 167.023 323.959 167.024ZM328.597 148.151L323.498 151.19C322.701 151.667 322.005 152.295 321.452 153.04C320.899 153.784 320.498 154.63 320.273 155.529C320.048 156.427 320.003 157.361 320.14 158.277C320.278 159.193 320.596 160.073 321.075 160.867L324.119 165.925L329.22 162.884C330.829 161.921 331.989 160.36 332.443 158.546C332.897 156.732 332.608 154.812 331.64 153.21L328.597 148.151Z" fill="#212121"/>
<path d="M312.529 212.388C312.491 212.388 312.453 212.383 312.416 212.374C312.357 212.359 312.301 212.333 312.252 212.297C312.203 212.261 312.161 212.215 312.13 212.163C312.099 212.111 312.078 212.053 312.069 211.993C312.06 211.933 312.063 211.871 312.078 211.812L325.724 157.65C325.754 157.531 325.831 157.428 325.937 157.365C326.042 157.302 326.169 157.283 326.289 157.313C326.408 157.343 326.511 157.419 326.574 157.524C326.638 157.63 326.657 157.756 326.627 157.875L312.98 212.038C312.955 212.138 312.897 212.227 312.815 212.29C312.734 212.354 312.633 212.388 312.529 212.388Z" fill="#212121"/>
<path d="M328.757 147.979C328.719 147.979 328.681 147.974 328.644 147.965C328.585 147.95 328.529 147.924 328.48 147.888C328.431 147.852 328.389 147.806 328.358 147.754C328.327 147.702 328.306 147.644 328.297 147.584C328.288 147.524 328.291 147.462 328.306 147.403L329.544 142.49C329.574 142.371 329.65 142.268 329.756 142.205C329.862 142.142 329.988 142.124 330.108 142.154C330.228 142.183 330.33 142.259 330.394 142.365C330.457 142.47 330.476 142.596 330.446 142.715L329.208 147.629C329.183 147.729 329.125 147.818 329.043 147.881C328.961 147.944 328.861 147.979 328.757 147.979Z" fill="#212121"/>
<path d="M328.756 147.979C328.647 147.979 328.541 147.941 328.458 147.871C328.374 147.801 328.318 147.704 328.299 147.597L327.418 142.62C327.406 142.559 327.407 142.497 327.419 142.437C327.432 142.377 327.456 142.32 327.491 142.269C327.526 142.219 327.571 142.176 327.623 142.142C327.675 142.109 327.733 142.087 327.794 142.076C327.854 142.065 327.917 142.067 327.977 142.08C328.037 142.094 328.094 142.119 328.144 142.155C328.194 142.19 328.237 142.236 328.269 142.288C328.302 142.34 328.324 142.398 328.333 142.459L329.215 147.436C329.226 147.503 329.223 147.571 329.206 147.636C329.188 147.702 329.156 147.762 329.113 147.814C329.069 147.866 329.014 147.907 328.953 147.936C328.891 147.965 328.824 147.979 328.756 147.979Z" fill="#212121"/>
<path d="M328.757 147.979C328.669 147.979 328.584 147.955 328.51 147.908C328.436 147.862 328.376 147.796 328.338 147.718C328.3 147.639 328.285 147.552 328.295 147.466C328.304 147.379 328.338 147.297 328.392 147.229L331.548 143.26C331.626 143.168 331.737 143.111 331.857 143.099C331.977 143.087 332.097 143.122 332.191 143.197C332.286 143.271 332.347 143.379 332.363 143.498C332.379 143.617 332.348 143.738 332.276 143.834L329.122 147.804C329.078 147.858 329.023 147.903 328.959 147.933C328.896 147.963 328.827 147.979 328.757 147.979Z" fill="#212121"/>
<path d="M323.062 173.819C325.099 173.819 326.75 172.175 326.75 170.147C326.75 168.12 325.099 166.476 323.062 166.476C321.025 166.476 319.373 168.12 319.373 170.147C319.373 172.175 321.025 173.819 323.062 173.819Z" fill="white"/>
<path d="M323.062 174.282C322.24 174.282 321.437 174.04 320.754 173.585C320.071 173.131 319.539 172.485 319.225 171.73C318.91 170.974 318.828 170.143 318.988 169.341C319.149 168.539 319.544 167.802 320.125 167.224C320.706 166.646 321.446 166.252 322.251 166.093C323.057 165.933 323.892 166.015 324.651 166.328C325.41 166.641 326.059 167.171 326.515 167.851C326.971 168.531 327.215 169.33 327.215 170.148C327.214 171.244 326.776 172.295 325.997 173.07C325.218 173.845 324.163 174.281 323.062 174.282ZM323.062 166.939C322.424 166.939 321.801 167.127 321.271 167.48C320.741 167.832 320.328 168.333 320.084 168.92C319.84 169.506 319.776 170.151 319.9 170.774C320.025 171.396 320.332 171.968 320.782 172.417C321.233 172.865 321.808 173.171 322.433 173.295C323.058 173.419 323.706 173.355 324.295 173.112C324.884 172.869 325.388 172.458 325.742 171.93C326.096 171.403 326.285 170.782 326.285 170.148C326.284 169.297 325.944 168.481 325.34 167.88C324.736 167.278 323.916 166.939 323.062 166.939V166.939Z" fill="#212121"/>
<path d="M65.0901 160.528C67.4044 160.215 69.0259 158.089 68.7117 155.78C68.3975 153.471 66.2667 151.853 63.9524 152.166C61.6381 152.479 60.0167 154.605 60.3308 156.914C60.645 159.223 62.7758 160.842 65.0901 160.528Z" fill="white"/>
<path d="M65.1479 160.957C64.2343 161.08 63.3044 160.931 62.4758 160.527C61.6473 160.124 60.9573 159.484 60.4931 158.689C60.0289 157.894 59.8114 156.98 59.868 156.061C59.9247 155.143 60.2529 154.262 60.8113 153.53C61.3697 152.798 62.1331 152.248 63.005 151.949C63.8769 151.649 64.8181 151.615 65.7096 151.85C66.6012 152.084 67.403 152.577 68.0137 153.267C68.6244 153.956 69.0165 154.811 69.1405 155.722C69.3053 156.944 68.9775 158.182 68.229 159.163C67.4805 160.145 66.3724 160.79 65.1479 160.957ZM64.0106 152.594C63.2666 152.695 62.5694 153.014 62.0069 153.51C61.4444 154.006 61.0421 154.657 60.8506 155.381C60.6592 156.106 60.6874 156.871 60.9315 157.579C61.1757 158.287 61.6248 158.908 62.2223 159.361C62.8197 159.815 63.5385 160.082 64.2878 160.128C65.0372 160.174 65.7833 159.997 66.432 159.62C67.0807 159.243 67.6027 158.682 67.9321 158.009C68.2614 157.336 68.3833 156.581 68.2824 155.838C68.1459 154.843 67.6195 153.943 66.8187 153.335C66.0178 152.727 65.0079 152.46 64.0106 152.594Z" fill="#212121"/>
<path d="M70.7359 168.844C73.0502 168.531 74.6716 166.405 74.3574 164.096C74.0433 161.786 71.9125 160.168 69.5981 160.481C67.2838 160.795 65.6624 162.92 65.9766 165.23C66.2908 167.539 68.4216 169.157 70.7359 168.844Z" fill="white"/>
<path d="M70.7937 169.272C69.88 169.396 68.9501 169.246 68.1216 168.843C67.293 168.439 66.603 167.799 66.1388 167.004C65.6747 166.209 65.4571 165.295 65.5138 164.377C65.5704 163.459 65.8987 162.578 66.457 161.846C67.0154 161.114 67.7788 160.563 68.6507 160.264C69.5226 159.965 70.4638 159.93 71.3554 160.165C72.2469 160.4 73.0487 160.893 73.6594 161.582C74.2701 162.271 74.6622 163.126 74.7862 164.038C74.9511 165.26 74.6233 166.497 73.8748 167.479C73.1263 168.46 72.0182 169.105 70.7937 169.272ZM69.6563 160.91C68.9124 161.01 68.2151 161.329 67.6527 161.825C67.0902 162.321 66.6878 162.973 66.4964 163.697C66.305 164.421 66.3331 165.186 66.5773 165.894C66.8214 166.603 67.2706 167.223 67.868 167.677C68.4654 168.13 69.1843 168.397 69.9336 168.443C70.6829 168.489 71.4291 168.313 72.0778 167.936C72.7264 167.558 73.2485 166.998 73.5778 166.325C73.9072 165.652 74.0291 164.896 73.9281 164.154C73.7917 163.159 73.2653 162.259 72.4644 161.65C71.6636 161.042 70.6537 160.776 69.6563 160.91Z" fill="#212121"/>
<path d="M62.398 170.206C64.7123 169.893 66.3337 167.767 66.0196 165.458C65.7054 163.149 63.5746 161.531 61.2603 161.844C58.9459 162.157 57.3245 164.283 57.6387 166.592C57.9529 168.901 60.0837 170.519 62.398 170.206Z" fill="white"/>
<path d="M62.4558 170.635C61.5421 170.758 60.6122 170.609 59.7837 170.205C58.9551 169.801 58.2651 169.162 57.801 168.367C57.3368 167.572 57.1192 166.657 57.1759 165.739C57.2325 164.821 57.5608 163.94 58.1191 163.208C58.6775 162.476 59.4409 161.925 60.3128 161.626C61.1847 161.327 62.1259 161.293 63.0175 161.527C63.909 161.762 64.7108 162.255 65.3215 162.944C65.9322 163.634 66.3243 164.488 66.4483 165.4C66.6131 166.622 66.2853 167.86 65.5368 168.841C64.7884 169.822 63.6803 170.467 62.4558 170.635ZM61.3184 162.272C60.5745 162.373 59.8772 162.691 59.3148 163.187C58.7523 163.683 58.3499 164.335 58.1585 165.059C57.9671 165.784 57.9952 166.548 58.2394 167.257C58.4835 167.965 58.9327 168.585 59.5301 169.039C60.1276 169.493 60.8464 169.759 61.5957 169.806C62.345 169.852 63.0912 169.675 63.7399 169.298C64.3885 168.921 64.9106 168.36 65.2399 167.687C65.5693 167.014 65.6912 166.258 65.5902 165.516C65.4538 164.521 64.9274 163.621 64.1265 163.013C63.3257 162.405 62.3158 162.138 61.3184 162.272Z" fill="#212121"/>
<path d="M72.2547 178.096C74.569 177.783 76.1904 175.657 75.8762 173.348C75.5621 171.039 73.4313 169.421 71.1169 169.734C68.8026 170.047 67.1812 172.173 67.4954 174.482C67.8096 176.791 69.9404 178.409 72.2547 178.096Z" fill="white"/>
<path d="M72.3125 178.525C71.3988 178.648 70.4689 178.499 69.6404 178.095C68.8118 177.692 68.1218 177.052 67.6576 176.257C67.1935 175.462 66.9759 174.548 67.0326 173.629C67.0892 172.711 67.4175 171.83 67.9758 171.098C68.5342 170.366 69.2976 169.816 70.1695 169.516C71.0414 169.217 71.9826 169.183 72.8742 169.418C73.7657 169.652 74.5675 170.145 75.1782 170.835C75.7889 171.524 76.181 172.378 76.305 173.29C76.4699 174.512 76.1421 175.75 75.3936 176.731C74.6451 177.713 73.537 178.358 72.3125 178.525ZM71.1751 170.162C70.4312 170.263 69.7339 170.581 69.1714 171.078C68.609 171.574 68.2066 172.225 68.0152 172.949C67.8238 173.674 67.8519 174.438 68.0961 175.147C68.3402 175.855 68.7894 176.475 69.3868 176.929C69.9842 177.383 70.7031 177.65 71.4524 177.696C72.2017 177.742 72.9479 177.565 73.5966 177.188C74.2452 176.811 74.7672 176.25 75.0966 175.577C75.426 174.904 75.5479 174.149 75.4469 173.406C75.3105 172.411 74.7841 171.511 73.9832 170.903C73.1824 170.295 72.1725 170.028 71.1751 170.162Z" fill="#212121"/>
<path d="M63.9007 179.446C66.215 179.133 67.8364 177.007 67.5222 174.698C67.2081 172.389 65.0773 170.771 62.7629 171.084C60.4486 171.397 58.8272 173.523 59.1414 175.832C59.4555 178.141 61.5864 179.76 63.9007 179.446Z" fill="white"/>
<path d="M63.9585 179.875C63.0448 179.998 62.1149 179.849 61.2864 179.445C60.4578 179.042 59.7678 178.402 59.3036 177.607C58.8395 176.812 58.6219 175.898 58.6786 174.979C58.7352 174.061 59.0635 173.18 59.6218 172.448C60.1802 171.716 60.9436 171.166 61.8155 170.867C62.6874 170.567 63.6286 170.533 64.5202 170.768C65.4117 171.002 66.2135 171.495 66.8242 172.185C67.4349 172.874 67.827 173.729 67.951 174.64C68.1158 175.862 67.788 177.1 67.0395 178.081C66.291 179.063 65.183 179.708 63.9585 179.875ZM62.8211 171.512C62.0772 171.613 61.3799 171.931 60.8174 172.428C60.255 172.924 59.8526 173.575 59.6612 174.299C59.4698 175.024 59.4979 175.789 59.7421 176.497C59.9862 177.205 60.4354 177.826 61.0328 178.279C61.6302 178.733 62.3491 179 63.0984 179.046C63.8477 179.092 64.5939 178.915 65.2426 178.538C65.8912 178.161 66.4132 177.6 66.7426 176.927C67.072 176.254 67.1939 175.499 67.0929 174.756C66.9565 173.761 66.4301 172.861 65.6292 172.253C64.8284 171.645 63.8185 171.378 62.8211 171.512Z" fill="#212121"/>
<path d="M74.9329 220.027C74.8213 220.042 74.7081 220.013 74.6175 219.946C74.5268 219.879 74.466 219.78 74.4478 219.668L64.4188 158.375C64.4096 158.319 64.4116 158.262 64.4246 158.206C64.4376 158.151 64.4613 158.099 64.4945 158.053C64.5614 157.96 64.6627 157.897 64.7759 157.879C64.8891 157.86 65.0051 157.887 65.0983 157.954C65.1915 158.021 65.2542 158.122 65.2727 158.235L75.3018 219.529C75.3109 219.585 75.309 219.642 75.296 219.698C75.283 219.753 75.2592 219.805 75.2261 219.851C75.1929 219.897 75.151 219.936 75.1027 219.966C75.0544 219.996 75.0007 220.016 74.9446 220.025L74.9329 220.027Z" fill="#212121"/>
<path d="M327.218 212.097C327.208 212.097 327.198 212.097 327.188 212.096C327.067 212.088 326.954 212.031 326.874 211.938C326.794 211.845 326.754 211.724 326.762 211.601L328.302 188.045C328.311 187.923 328.368 187.81 328.459 187.73C328.55 187.65 328.668 187.61 328.788 187.618C328.908 187.626 329.02 187.682 329.099 187.774C329.179 187.865 329.22 187.985 329.214 188.107L327.674 211.663C327.667 211.781 327.615 211.891 327.53 211.972C327.446 212.052 327.334 212.097 327.218 212.097Z" fill="#212121"/>
<path d="M329.09 183.592C328.998 183.592 328.908 183.564 328.833 183.511C328.757 183.459 328.698 183.384 328.664 183.297C328.63 183.211 328.623 183.116 328.643 183.024C328.663 182.933 328.71 182.85 328.776 182.787L331.082 180.582C331.171 180.498 331.288 180.452 331.41 180.456C331.531 180.46 331.646 180.513 331.729 180.603C331.812 180.693 331.856 180.813 331.853 180.936C331.849 181.06 331.797 181.176 331.709 181.261L329.403 183.465C329.318 183.547 329.206 183.592 329.09 183.592Z" fill="#212121"/>
<path d="M329.089 183.592C329.022 183.592 328.955 183.576 328.894 183.547C328.833 183.518 328.779 183.475 328.736 183.422L326.728 180.939C326.69 180.892 326.661 180.838 326.643 180.779C326.626 180.721 326.62 180.659 326.626 180.598C326.637 180.475 326.697 180.362 326.79 180.284C326.884 180.205 327.004 180.168 327.125 180.18C327.246 180.192 327.357 180.252 327.434 180.347L328.709 181.924L328.835 179.991C328.838 179.929 328.853 179.869 328.88 179.813C328.906 179.757 328.943 179.708 328.988 179.667C329.034 179.626 329.086 179.594 329.144 179.574C329.201 179.554 329.262 179.546 329.322 179.55C329.383 179.554 329.442 179.571 329.496 179.598C329.55 179.626 329.599 179.664 329.638 179.711C329.678 179.758 329.708 179.812 329.727 179.871C329.746 179.929 329.753 179.991 329.748 180.053L329.546 183.156C329.538 183.274 329.487 183.385 329.402 183.465C329.317 183.546 329.205 183.591 329.089 183.591V183.592Z" fill="#212121"/>
<path d="M332.645 188.898L332.737 187.486C332.814 186.252 333.31 185.084 334.139 184.18L334.749 183.513L323.407 182.737L323.925 183.482C324.631 184.487 324.97 185.711 324.886 186.943L324.794 188.355C324.76 188.879 324.827 189.404 324.993 189.901C325.158 190.398 325.418 190.857 325.758 191.252C326.098 191.647 326.511 191.97 326.973 192.202C327.436 192.435 327.938 192.572 328.453 192.607C328.968 192.645 329.485 192.579 329.975 192.413C330.464 192.247 330.917 191.984 331.306 191.639C331.696 191.295 332.015 190.875 332.245 190.405C332.474 189.934 332.611 189.422 332.645 188.898Z" fill="#707FDA"/>
<path d="M48.1582 223.793C48.0323 223.809 47.9054 223.774 47.8053 223.696C47.7052 223.618 47.6402 223.503 47.6246 223.377L43.0728 186.69C43.0572 186.564 43.0922 186.437 43.1702 186.337C43.2482 186.237 43.3627 186.172 43.4886 186.156C43.6145 186.141 43.7414 186.176 43.8415 186.254C43.9415 186.332 44.0065 186.446 44.0222 186.572L48.5739 223.26C48.5896 223.386 48.5545 223.513 48.4766 223.613C48.3986 223.713 48.2841 223.778 48.1582 223.793Z" fill="#212121"/>
<path d="M42.0134 174.192C41.9486 174.2 41.8828 174.195 41.82 174.176C41.7573 174.158 41.699 174.127 41.6487 174.085L36.6176 169.917C36.5692 169.877 36.5292 169.827 36.4998 169.772C36.4704 169.716 36.4522 169.655 36.4464 169.593C36.4405 169.53 36.447 169.467 36.4656 169.407C36.4841 169.347 36.5144 169.291 36.5545 169.243C36.5946 169.195 36.6439 169.155 36.6996 169.125C36.7552 169.096 36.816 169.078 36.8787 169.072C36.9413 169.066 37.0045 169.073 37.0646 169.091C37.1247 169.11 37.1806 169.14 37.229 169.18L42.26 173.349C42.332 173.408 42.3849 173.488 42.4123 173.577C42.4397 173.666 42.4403 173.762 42.4141 173.851C42.3879 173.941 42.336 174.021 42.2648 174.081C42.1936 174.142 42.1062 174.18 42.0134 174.192Z" fill="#212121"/>
<path d="M42.0149 174.191C41.8888 174.206 41.7617 174.171 41.6615 174.093C41.5613 174.015 41.4962 173.901 41.4805 173.775L40.6957 167.523C40.6801 167.397 40.7152 167.27 40.7932 167.17C40.8713 167.07 40.986 167.005 41.112 166.989V166.989C41.2381 166.974 41.3652 167.009 41.4654 167.087C41.5656 167.165 41.6307 167.279 41.6464 167.405L42.281 172.459L45.4111 168.17C45.486 168.067 45.5985 167.999 45.724 167.979C45.8495 167.96 45.9777 167.991 46.0804 168.065C46.1831 168.14 46.2518 168.253 46.2715 168.378C46.2912 168.504 46.2602 168.632 46.1854 168.734L42.3433 173.998C42.3046 174.051 42.2555 174.096 42.199 174.129C42.1425 174.162 42.0799 174.183 42.0149 174.191Z" fill="#212121"/>
<path d="M35.2449 185.842L34.8909 182.992C34.5777 180.496 33.4155 178.182 31.599 176.439L30.2651 175.157L53.6393 172.269L52.6595 173.836C51.3173 175.966 50.7558 178.495 51.0706 180.993L51.4246 183.842C51.6897 185.983 51.093 188.142 49.7656 189.843C48.4382 191.544 46.4887 192.649 44.3457 192.915C43.2832 193.049 42.2046 192.972 41.1718 192.688C40.1389 192.405 39.1721 191.921 38.3267 191.264C37.4813 190.607 36.7739 189.79 36.2451 188.859C35.7162 187.929 35.3764 186.903 35.2449 185.842Z" fill="#5B69BD"/>
<path d="M337.095 211.516C337.036 211.516 336.978 211.502 336.925 211.476C336.873 211.449 336.827 211.411 336.791 211.363C336.756 211.316 336.732 211.261 336.721 211.202C336.71 211.144 336.713 211.084 336.729 211.027L339.667 200.636C339.68 200.587 339.703 200.541 339.734 200.501C339.765 200.461 339.803 200.428 339.847 200.403C339.891 200.378 339.939 200.363 339.989 200.357C340.038 200.351 340.089 200.355 340.137 200.369C340.185 200.383 340.23 200.406 340.27 200.438C340.309 200.469 340.342 200.508 340.366 200.553C340.39 200.597 340.405 200.646 340.411 200.697C340.416 200.747 340.411 200.798 340.397 200.847L337.46 211.237C337.437 211.318 337.389 211.388 337.323 211.439C337.257 211.489 337.177 211.516 337.095 211.516Z" fill="#212121"/>
<path d="M340.032 202.751C341.13 202.751 342.02 201.851 342.02 200.742C342.02 199.632 341.13 198.732 340.032 198.732C338.934 198.732 338.044 199.632 338.044 200.742C338.044 201.851 338.934 202.751 340.032 202.751Z" fill="#707FDA"/>
<path d="M337.095 211.516C337.018 211.516 336.944 211.493 336.881 211.45C336.818 211.406 336.769 211.345 336.741 211.273L333.639 203.288C333.602 203.193 333.604 203.087 333.644 202.994C333.684 202.901 333.759 202.827 333.853 202.79C333.947 202.753 334.052 202.754 334.144 202.795C334.236 202.836 334.309 202.912 334.346 203.006L337.448 210.992C337.471 211.05 337.479 211.113 337.472 211.175C337.465 211.237 337.444 211.297 337.409 211.348C337.374 211.4 337.327 211.442 337.272 211.472C337.217 211.501 337.157 211.516 337.095 211.516Z" fill="#212121"/>
<path d="M333.993 204.734C334.86 204.734 335.563 204.024 335.563 203.147C335.563 202.271 334.86 201.561 333.993 201.561C333.126 201.561 332.423 202.271 332.423 203.147C332.423 204.024 333.126 204.734 333.993 204.734Z" fill="#707FDA"/>
<path d="M296.073 212.097L293.818 205.547C293.57 204.824 293.947 204.034 294.662 203.783C294.677 203.778 294.693 203.773 294.708 203.768C295.429 203.542 296.194 203.949 296.419 204.678L296.897 206.235V203.74C296.896 203.061 297.439 202.51 298.11 202.509C298.112 202.509 298.113 202.509 298.115 202.509C298.786 202.509 299.33 203.059 299.331 203.738C299.331 203.739 299.331 203.74 299.331 203.74V207.743L299.71 207.222C300.119 206.66 300.879 206.495 301.48 206.837C302.137 207.211 302.37 208.053 302 208.718C302 208.719 302 208.72 301.999 208.72L300.119 212.097H296.073Z" fill="#5B69BD"/>
<path d="M94.927 211.807L92.2835 204.264C91.9924 203.432 92.4352 202.522 93.2725 202.233C93.2906 202.227 93.3089 202.221 93.3272 202.215C94.172 201.955 95.0694 202.424 95.3328 203.263L95.8929 205.057V202.184C95.8921 201.402 96.5292 200.767 97.3161 200.766C97.3178 200.766 97.3196 200.766 97.3213 200.766C98.108 200.765 98.7464 201.399 98.7471 202.181C98.7471 202.182 98.7471 202.183 98.7471 202.184V206.793L99.1912 206.193C99.6714 205.545 100.562 205.355 101.267 205.75C102.037 206.181 102.31 207.15 101.877 207.916C101.876 207.917 101.876 207.918 101.875 207.918L99.6709 211.807H94.927Z" fill="#707FDA"/>
<path d="M80.4902 226.592C80.376 226.577 80.272 226.519 80.2 226.429C80.128 226.34 80.0937 226.226 80.1043 226.112L84.4999 178.648C84.5107 178.531 84.5678 178.423 84.6584 178.348C84.749 178.273 84.8658 178.237 84.9831 178.248C85.1004 178.259 85.2086 178.316 85.2839 178.406C85.3592 178.497 85.3954 178.613 85.3846 178.73L80.989 226.193C80.9836 226.251 80.9669 226.307 80.9397 226.359C80.9125 226.41 80.8755 226.456 80.8306 226.493C80.7858 226.53 80.7341 226.558 80.6784 226.575C80.6227 226.593 80.5641 226.599 80.5061 226.593L80.4902 226.592Z" fill="#212121"/>
<path d="M84.267 185.744C84.194 185.734 84.1245 185.707 84.0647 185.664C84.0049 185.622 83.9566 185.565 83.9243 185.499L81.6549 180.872C81.6031 180.767 81.5955 180.645 81.6338 180.534C81.6721 180.423 81.7531 180.331 81.859 180.28C81.9649 180.228 82.0871 180.221 82.1986 180.259C82.3101 180.297 82.4018 180.378 82.4536 180.483L84.4022 184.456L87.0528 180.901C87.0873 180.854 87.1309 180.813 87.1811 180.783C87.2313 180.752 87.2871 180.732 87.3453 180.723C87.4035 180.714 87.4628 180.717 87.5199 180.731C87.5771 180.745 87.6308 180.77 87.678 180.805C87.7253 180.84 87.7651 180.884 87.7951 180.934C87.8252 180.985 87.8449 181.041 87.8531 181.099C87.8613 181.157 87.8579 181.216 87.843 181.273C87.8281 181.33 87.802 181.383 87.7663 181.429L84.6805 185.569C84.6351 185.63 84.5746 185.678 84.5049 185.709C84.4352 185.74 84.3587 185.753 84.2827 185.746L84.267 185.744Z" fill="#212121"/>
<path d="M83.8529 190.185C83.7796 190.175 83.7098 190.148 83.6499 190.105C83.5899 190.062 83.5416 190.004 83.5095 189.938L80.2378 183.194C80.2121 183.141 80.197 183.084 80.1935 183.026C80.19 182.968 80.198 182.909 80.2171 182.854C80.2362 182.799 80.2661 182.748 80.305 182.705C80.3439 182.661 80.391 182.626 80.4437 182.6C80.4964 182.575 80.5536 182.56 80.612 182.557C80.6704 182.554 80.7289 182.562 80.7842 182.581C80.8394 182.601 80.8902 182.631 80.9338 182.67C80.9774 182.708 81.0128 182.756 81.0381 182.808L83.9893 188.892L88.02 183.446C88.0538 183.397 88.0971 183.355 88.1473 183.323C88.1976 183.291 88.2538 183.27 88.3126 183.26C88.3713 183.25 88.4315 183.252 88.4894 183.266C88.5474 183.28 88.6019 183.305 88.6499 183.341C88.6978 183.376 88.7382 183.42 88.7685 183.471C88.7988 183.523 88.8185 183.579 88.8265 183.638C88.8344 183.697 88.8304 183.757 88.8146 183.814C88.7989 183.871 88.7717 183.925 88.7348 183.971L84.2667 190.009C84.2213 190.07 84.1607 190.119 84.0909 190.15C84.021 190.181 83.9443 190.194 83.868 190.187L83.8529 190.185Z" fill="#212121"/>
<path d="M83.389 195.259C83.316 195.25 83.2465 195.222 83.1867 195.18C83.1269 195.137 83.0787 195.08 83.0464 195.014L78.792 186.343C78.7425 186.238 78.7365 186.117 78.7752 186.008C78.814 185.898 78.8944 185.808 78.9991 185.757C79.1039 185.706 79.2245 185.698 79.3351 185.735C79.4457 185.772 79.5374 185.85 79.5903 185.954L83.5242 193.972L88.8676 186.806C88.9021 186.758 88.9457 186.718 88.9959 186.687C89.0461 186.657 89.1019 186.636 89.1601 186.627C89.2182 186.618 89.2776 186.621 89.3347 186.635C89.3919 186.649 89.4456 186.675 89.4928 186.71C89.5401 186.745 89.5799 186.789 89.6099 186.839C89.64 186.889 89.6597 186.945 89.6679 187.003C89.6761 187.061 89.6727 187.121 89.6578 187.177C89.6429 187.234 89.6168 187.287 89.5811 187.334L83.8026 195.084C83.7571 195.145 83.6967 195.193 83.6271 195.224C83.5574 195.255 83.481 195.268 83.4051 195.261L83.389 195.259Z" fill="#212121"/>
<path d="M82.9335 200.147C82.8606 200.138 82.7913 200.11 82.7316 200.068C82.6719 200.025 82.6238 199.968 82.5915 199.903L77.5638 189.664C77.537 189.611 77.5209 189.554 77.5165 189.496C77.5121 189.437 77.5195 189.378 77.5381 189.322C77.5568 189.267 77.5864 189.215 77.6253 189.171C77.6642 189.127 77.7115 189.091 77.7644 189.065C77.8174 189.039 77.875 189.024 77.9339 189.02C77.9928 189.017 78.0518 189.025 78.1074 189.045C78.1631 189.064 78.2142 189.095 78.258 189.134C78.3017 189.174 78.3371 189.222 78.3621 189.275L83.0695 198.86L89.4677 190.294C89.5381 190.2 89.6432 190.137 89.7599 190.12C89.8766 190.103 89.9952 190.133 90.0898 190.203C90.1844 190.273 90.2471 190.378 90.2642 190.494C90.2813 190.611 90.2514 190.729 90.181 190.823L83.347 199.972C83.3014 200.033 83.241 200.082 83.1713 200.113C83.1017 200.143 83.0253 200.156 82.9494 200.149C82.9439 200.148 82.9387 200.148 82.9335 200.147Z" fill="#212121"/>
<path d="M60.1475 198.994C62.4321 198.994 64.2841 197.153 64.2841 194.881C64.2841 192.609 62.4321 190.767 60.1475 190.767C57.863 190.767 56.011 192.609 56.011 194.881C56.011 197.153 57.863 198.994 60.1475 198.994Z" fill="white"/>
<path d="M60.1476 199.455C57.6119 199.455 55.5491 197.403 55.5491 194.881C55.5491 192.359 57.6119 190.307 60.1476 190.307C62.6833 190.307 64.7462 192.359 64.7462 194.881C64.7462 197.403 62.6833 199.455 60.1476 199.455ZM60.1476 191.227C58.1215 191.227 56.4731 192.866 56.4731 194.881C56.4731 196.895 58.1215 198.534 60.1476 198.534C62.1737 198.534 63.8221 196.895 63.8221 194.881C63.8221 192.866 62.1737 191.227 60.1476 191.227Z" fill="#212121"/>
<path d="M64.684 229.239C64.4561 229.239 64.2576 229.071 64.2266 228.84L59.6897 194.941C59.6559 194.689 59.8336 194.458 60.0865 194.424C60.3391 194.39 60.5718 194.568 60.6055 194.82L65.1425 228.718C65.1762 228.97 64.9985 229.202 64.7456 229.235C64.725 229.238 64.7045 229.239 64.684 229.239Z" fill="#212121"/>
<path d="M16.2301 219.273C15.9799 219.305 15.7512 219.125 15.7193 218.871L13.3861 200.344C13.3542 200.091 13.5312 199.86 13.7814 199.828C14.0316 199.797 14.2602 199.977 14.2921 200.23L16.6253 218.758C16.6572 219.011 16.4803 219.242 16.2301 219.273Z" fill="#212121"/>
<path d="M14.2439 203.499C15.9966 203.279 17.2364 201.663 17.0129 199.889C16.7895 198.115 15.1875 196.856 13.4348 197.076C11.6821 197.296 10.4424 198.912 10.6658 200.686C10.8892 202.46 12.4912 203.719 14.2439 203.499Z" fill="#707FDA"/>
<path d="M22.4969 192.307C21.1903 192.102 19.9744 191.513 19.0029 190.613C18.0315 189.713 17.3481 188.544 17.0393 187.253C16.7304 185.962 16.8099 184.608 17.2678 183.361C17.7256 182.114 18.5412 181.03 19.6114 180.247C20.6817 179.464 21.9585 179.017 23.2803 178.962C24.6022 178.907 25.9098 179.247 27.0378 179.939C28.1657 180.631 29.0634 181.643 29.6173 182.848C30.1712 184.053 30.3563 185.397 30.1494 186.709C29.8701 188.468 28.9075 190.045 27.4729 191.095C26.0382 192.144 24.2487 192.58 22.4969 192.307ZM24.4574 179.873C23.3155 179.694 22.1456 179.859 21.0957 180.347C20.0457 180.835 19.1629 181.625 18.5589 182.616C17.9548 183.607 17.6566 184.755 17.702 185.915C17.7475 187.074 18.1344 188.194 18.814 189.132C19.4936 190.069 20.4353 190.783 21.52 191.183C22.6047 191.582 23.7837 191.65 24.9078 191.376C26.032 191.103 27.0509 190.501 27.8357 189.647C28.6205 188.793 29.1359 187.725 29.3167 186.578C29.5574 185.041 29.181 183.471 28.27 182.214C27.359 180.957 25.9879 180.115 24.4574 179.873Z" fill="#212121"/>
<path d="M22.4969 192.307C21.1903 192.102 19.9744 191.513 19.0029 190.613C18.0315 189.713 17.3481 188.544 17.0393 187.253C16.7304 185.962 16.8099 184.608 17.2678 183.361C17.7256 182.114 18.5412 181.03 19.6114 180.247C20.6817 179.464 21.9585 179.017 23.2803 178.962C24.6022 178.907 25.9098 179.247 27.0378 179.939C28.1657 180.631 29.0634 181.643 29.6173 182.848C30.1712 184.053 30.3563 185.397 30.1494 186.709C29.8701 188.468 28.9075 190.045 27.4729 191.095C26.0382 192.144 24.2487 192.58 22.4969 192.307ZM24.4574 179.873C23.3155 179.694 22.1456 179.859 21.0957 180.347C20.0457 180.835 19.1629 181.625 18.5589 182.616C17.9548 183.607 17.6566 184.755 17.702 185.915C17.7475 187.074 18.1344 188.194 18.814 189.132C19.4936 190.069 20.4353 190.783 21.52 191.183C22.6047 191.582 23.7837 191.65 24.9078 191.376C26.032 191.103 27.0509 190.501 27.8357 189.647C28.6205 188.793 29.1359 187.725 29.3167 186.578C29.5574 185.041 29.181 183.471 28.27 182.214C27.359 180.957 25.9879 180.115 24.4574 179.873Z" fill="#212121"/>
<path d="M22.5622 191.888C25.9806 192.425 29.1908 190.076 29.7324 186.642C30.274 183.209 27.9418 179.99 24.5234 179.454C21.1049 178.917 17.8947 181.266 17.3531 184.7C16.8116 188.133 19.1437 191.352 22.5622 191.888Z" fill="white"/>
<path d="M22.4968 192.307C21.1902 192.102 19.9744 191.513 19.003 190.613C18.0317 189.713 17.3484 188.544 17.0397 187.253C16.7309 185.962 16.8105 184.608 17.2684 183.36C17.7263 182.113 18.542 181.03 19.6122 180.247C20.6824 179.464 21.9592 179.016 23.281 178.961C24.6028 178.906 25.9103 179.246 27.0382 179.938C28.1661 180.63 29.0636 181.642 29.6174 182.847C30.1712 184.052 30.3563 185.396 30.1493 186.708C29.8698 188.467 28.9072 190.044 27.4726 191.094C26.0379 192.144 24.2485 192.58 22.4968 192.307ZM24.4579 179.873C23.3161 179.693 22.1462 179.858 21.0963 180.347C20.0464 180.835 19.1636 181.624 18.5595 182.615C17.9554 183.607 17.6572 184.755 17.7025 185.914C17.7479 187.074 18.1347 188.194 18.8142 189.132C19.4937 190.069 20.4353 190.783 21.5199 191.183C22.6045 191.582 23.7835 191.649 24.9076 191.376C26.0318 191.103 27.0507 190.501 27.8355 189.647C28.6203 188.793 29.1357 187.724 29.3166 186.578C29.5574 185.04 29.1811 183.47 28.2702 182.213C27.3593 180.956 25.9883 180.114 24.4579 179.873Z" fill="#212121"/>
<path d="M15.5472 236.441C15.4369 236.423 15.3381 236.363 15.2725 236.272C15.2068 236.181 15.1798 236.068 15.1972 235.957L22.1488 191.821C22.1662 191.711 22.2268 191.611 22.3171 191.545C22.4074 191.479 22.5201 191.451 22.6304 191.469C22.7407 191.486 22.8395 191.547 22.9052 191.637C22.9708 191.728 22.9979 191.841 22.9804 191.952L16.0289 236.088C16.0114 236.199 15.9509 236.298 15.8605 236.364C15.7702 236.431 15.6575 236.458 15.5472 236.441Z" fill="#212121"/>
<path d="M23.3226 187.066C22.0632 186.866 20.8876 186.309 19.9343 185.46C18.9809 184.611 18.2896 183.505 17.9416 182.274C17.9256 182.22 17.9204 182.164 17.9264 182.108C17.9323 182.052 17.9493 181.998 17.9762 181.949C18.0032 181.899 18.0396 181.856 18.0834 181.821C18.1272 181.786 18.1775 181.76 18.2313 181.745C18.2851 181.73 18.3414 181.725 18.3969 181.732C18.4524 181.739 18.5059 181.756 18.5545 181.784C18.6031 181.812 18.6456 181.849 18.6797 181.893C18.7138 181.938 18.7388 181.988 18.7531 182.043C19.0572 183.119 19.6613 184.084 20.4942 184.826C21.3271 185.568 22.3542 186.055 23.4545 186.23C24.5547 186.4 25.6811 186.252 26.7022 185.804C27.7232 185.356 28.5968 184.626 29.221 183.698C29.2836 183.605 29.3803 183.541 29.4898 183.52C29.5993 183.498 29.7128 183.521 29.8053 183.584C29.8979 183.646 29.962 183.743 29.9835 183.853C30.0051 183.962 29.9824 184.076 29.9204 184.17C29.2064 185.231 28.2068 186.067 27.0385 186.579C25.8702 187.092 24.5814 187.261 23.3226 187.066Z" fill="#212121"/>
<path d="M26.01 186.888C25.9495 186.878 25.8919 186.856 25.8411 186.821C24.7824 186.107 23.9488 185.105 23.4378 183.932C22.9267 182.758 22.7594 181.462 22.9554 180.195C23.0057 179.877 23.0786 179.562 23.1737 179.255C23.1893 179.201 23.2154 179.15 23.2507 179.106C23.2859 179.062 23.3294 179.026 23.3787 178.999C23.428 178.973 23.4821 178.956 23.5379 178.95C23.5937 178.945 23.6499 178.951 23.7034 178.967C23.7569 178.984 23.8066 179.011 23.8495 179.047C23.8924 179.083 23.9277 179.127 23.9533 179.177C23.9789 179.227 23.9944 179.282 23.9987 179.338C24.0031 179.394 23.9963 179.45 23.9787 179.504C23.8957 179.773 23.832 180.048 23.788 180.326C23.6167 181.433 23.7631 182.566 24.2099 183.592C24.6567 184.618 25.3855 185.494 26.311 186.118C26.3906 186.171 26.4496 186.251 26.4782 186.343C26.5068 186.435 26.5033 186.534 26.4682 186.624C26.4331 186.713 26.3685 186.788 26.2852 186.837C26.2019 186.885 26.1048 186.903 26.01 186.888Z" fill="#212121"/>
<path d="M67.22 146.434H69.021C69.8436 146.434 70.5105 147.1 70.5107 147.922C70.5107 148.153 70.4567 148.381 70.3531 148.588L68.1197 153.052L65.8865 148.588C65.5181 147.854 65.8159 146.959 66.5514 146.591C66.759 146.488 66.9879 146.434 67.22 146.434Z" fill="#707FDA"/>
<path d="M74.7442 152.152V153.951C74.7453 154.773 74.0792 155.44 73.2566 155.441C73.0245 155.441 72.7954 155.387 72.5879 155.283L68.1196 153.052L72.5879 150.819C73.3248 150.452 74.2201 150.752 74.5875 151.488C74.6905 151.694 74.7442 151.921 74.7442 152.152Z" fill="#707FDA"/>
<path d="M299.836 128.13H301.928C302.883 128.13 303.658 128.903 303.658 129.858C303.658 130.126 303.595 130.391 303.475 130.632L300.881 135.816L298.288 130.632C297.86 129.778 298.206 128.74 299.06 128.313C299.301 128.192 299.567 128.13 299.836 128.13Z" fill="#707FDA"/>
<path d="M308.574 134.77V136.859C308.575 137.814 307.802 138.588 306.847 138.589C306.577 138.59 306.311 138.527 306.07 138.407L300.881 135.816L306.07 133.223C306.926 132.796 307.966 133.144 308.392 133.999C308.512 134.238 308.574 134.502 308.574 134.77Z" fill="#707FDA"/>
<path fill-rule="evenodd" clip-rule="evenodd" d="M65.231 52.0918H139.806V92.3089H65.231V52.0918ZM66.2256 53.0855V60.9534H138.812V53.0855H66.2256ZM138.812 61.9471H66.2256V64.7305H138.812V61.9471ZM138.812 65.7241H66.2256V91.3153H138.812V65.7241ZM120.344 71.7035H131.663V77.3459H120.344V71.7035ZM121.339 72.6972V76.3522H130.668V72.6972H121.339Z" fill="#212121"/>
</g>
<defs>
<clipPath id="clip0">
<rect width="349" height="232.435" fill="white"/>
</clipPath>
</defs>
</svg>
