<svg width="60" height="60" viewBox="0 0 60 60" fill="none" xmlns="http://www.w3.org/2000/svg">
<rect width="60" height="60" rx="30" fill="#F6F7FC"/>
<path fill-rule="evenodd" clip-rule="evenodd" d="M30 42.5C23.1 42.5 17.5 36.9125 17.5 30C17.5 23.1 23.1 17.5 30 17.5C36.9125 17.5 42.5 23.1 42.5 30C42.5 36.9125 36.9125 42.5 30 42.5ZM33.9875 34.6375C34.1375 34.725 34.3 34.775 34.475 34.775C34.7875 34.775 35.1 34.6125 35.275 34.3125C35.5375 33.875 35.4 33.3 34.95 33.025L30.5 30.375V24.6C30.5 24.075 30.075 23.6625 29.5625 23.6625C29.05 23.6625 28.625 24.075 28.625 24.6V30.9125C28.625 31.2375 28.8 31.5375 29.0875 31.7125L33.9875 34.6375Z" fill="#707FDA"/>
</svg>
