<svg width="349" height="196" viewBox="0 0 349 196" fill="none" xmlns="http://www.w3.org/2000/svg">
<g clip-path="url(#clip0)">
<path d="M289.236 185.927C315.471 185.927 336.738 164.66 336.738 138.425C336.738 112.19 315.471 90.9227 289.236 90.9227C263.001 90.9227 241.734 112.19 241.734 138.425C241.734 164.66 263.001 185.927 289.236 185.927Z" fill="white"/>
<path d="M289.236 186.472C279.733 186.472 270.444 183.654 262.542 178.375C254.641 173.095 248.483 165.591 244.846 156.812C241.21 148.032 240.258 138.372 242.112 129.051C243.966 119.731 248.542 111.17 255.262 104.45C264.272 95.4398 276.493 90.3777 289.236 90.3777C301.979 90.3777 314.2 95.4398 323.211 104.45C332.221 113.461 337.283 125.682 337.283 138.425C337.283 151.168 332.221 163.389 323.211 172.4C318.759 176.875 313.465 180.423 307.633 182.839C301.801 185.254 295.548 186.489 289.236 186.472ZM289.236 91.4677C263.344 91.4677 242.279 112.533 242.279 138.425C242.279 164.317 263.344 185.382 289.236 185.382C315.128 185.382 336.193 164.317 336.193 138.425C336.193 112.533 315.128 91.4677 289.236 91.4677Z" fill="#212121"/>
<path d="M289.236 109.405V138.425L315.824 153.664" fill="white"/>
<path d="M315.824 154.211C315.729 154.211 315.636 154.185 315.553 154.138L288.965 138.897C288.882 138.85 288.813 138.781 288.765 138.698C288.717 138.615 288.691 138.521 288.691 138.425V109.405C288.691 109.26 288.749 109.122 288.851 109.019C288.953 108.917 289.092 108.86 289.236 108.86C289.381 108.86 289.519 108.917 289.621 109.019C289.724 109.122 289.781 109.26 289.781 109.405V138.109L316.095 153.192C316.199 153.252 316.281 153.344 316.327 153.455C316.373 153.566 316.381 153.689 316.35 153.805C316.319 153.921 316.25 154.024 316.155 154.097C316.06 154.17 315.943 154.209 315.823 154.209L315.824 154.211Z" fill="#212121"/>
<path d="M47.9059 185.928C47.7629 185.928 47.6258 185.871 47.5246 185.77C47.4235 185.669 47.3667 185.532 47.3667 185.388V87.9616C47.3667 87.8185 47.4235 87.6814 47.5246 87.5803C47.6258 87.4791 47.7629 87.4223 47.9059 87.4223L191.65 87.3833C191.793 87.3833 191.93 87.4401 192.031 87.5412C192.132 87.6424 192.189 87.7795 192.189 87.9226C192.189 88.0656 192.132 88.2027 192.031 88.3039C191.93 88.405 191.793 88.4618 191.65 88.4618L48.4451 88.5008V185.388C48.4451 185.532 48.3883 185.669 48.2872 185.77C48.1861 185.871 48.0489 185.928 47.9059 185.928Z" fill="#212121"/>
<path fill-rule="evenodd" clip-rule="evenodd" d="M137.866 46.0449L193.286 129.658C193.509 129.994 193.854 130.23 194.248 130.315C194.642 130.401 195.054 130.328 195.395 130.114L213.742 118.613C213.917 118.504 214.068 118.36 214.186 118.192C214.305 118.023 214.389 117.832 214.432 117.63C214.476 117.428 214.479 117.22 214.441 117.017C214.404 116.814 214.326 116.621 214.212 116.449L158.845 32.4057C158.76 32.2784 158.655 32.1652 158.535 32.0703L127.761 7.70854C127.729 7.68289 127.689 7.66812 127.648 7.66632C127.607 7.66453 127.566 7.6758 127.531 7.69854C127.497 7.72128 127.471 7.75433 127.456 7.79296C127.441 7.8316 127.439 7.87386 127.45 7.91372L137.674 45.6206C137.715 45.7714 137.78 45.9146 137.866 46.0449Z" fill="white"/>
<path d="M194.57 130.943C194.218 130.942 193.872 130.855 193.562 130.687C193.252 130.52 192.989 130.278 192.796 129.983L137.376 46.3696C137.255 46.1869 137.164 45.986 137.107 45.7745L126.883 8.06779C126.839 7.90833 126.847 7.73924 126.906 7.58464C126.964 7.43005 127.07 7.29784 127.208 7.20686C127.345 7.11589 127.508 7.0708 127.673 7.07802C127.838 7.08524 127.997 7.14441 128.126 7.24708L158.9 31.6094C159.068 31.7426 159.215 31.9015 159.334 32.0802L214.703 116.125C214.859 116.363 214.967 116.629 215.019 116.909C215.071 117.189 215.067 117.477 215.007 117.755C214.946 118.034 214.831 118.297 214.667 118.53C214.503 118.763 214.295 118.961 214.054 119.112L195.708 130.613C195.367 130.828 194.973 130.942 194.57 130.943ZM138.356 45.72L193.776 129.332C193.913 129.542 194.127 129.689 194.372 129.742C194.616 129.795 194.872 129.749 195.083 129.615L213.43 118.115C213.538 118.047 213.632 117.958 213.705 117.853C213.779 117.749 213.831 117.63 213.858 117.505C213.885 117.38 213.887 117.251 213.864 117.125C213.84 116.999 213.792 116.88 213.722 116.773L158.354 32.7297C158.304 32.6546 158.242 32.5878 158.171 32.5317L128.329 8.90831L138.242 45.4663C138.266 45.5565 138.304 45.6421 138.356 45.72Z" fill="#212121"/>
<path d="M200.193 127.384C200.095 127.384 199.999 127.359 199.913 127.312C199.826 127.266 199.753 127.198 199.7 127.116L144.392 41.9421C144.349 41.8774 144.32 41.8047 144.305 41.7284C144.29 41.6521 144.291 41.5736 144.307 41.4976C144.322 41.4215 144.353 41.3493 144.397 41.2851C144.441 41.221 144.497 41.1662 144.562 41.1238C144.627 41.0815 144.7 41.0525 144.776 41.0385C144.852 41.0244 144.931 41.0257 145.007 41.0422C145.083 41.0586 145.154 41.09 145.218 41.1344C145.282 41.1788 145.336 41.2354 145.378 41.3009L200.685 126.475C200.742 126.563 200.775 126.666 200.779 126.772C200.783 126.878 200.759 126.982 200.709 127.076C200.658 127.169 200.584 127.246 200.493 127.301C200.402 127.355 200.298 127.383 200.193 127.384H200.193Z" fill="#212121"/>
<path d="M207.835 122.48C207.737 122.48 207.64 122.455 207.554 122.408C207.468 122.362 207.395 122.294 207.341 122.212L152.033 36.8419C151.991 36.7771 151.961 36.7045 151.947 36.6282C151.932 36.5519 151.933 36.4735 151.949 36.3975C151.965 36.3214 151.995 36.2493 152.039 36.1852C152.083 36.1212 152.139 36.0664 152.204 36.0241C152.269 35.9819 152.342 35.9529 152.418 35.9389C152.495 35.925 152.573 35.9262 152.649 35.9427C152.725 35.9592 152.796 35.9905 152.86 36.0349C152.924 36.0793 152.978 36.1358 153.02 36.2013L208.327 121.571C208.385 121.66 208.417 121.763 208.421 121.868C208.426 121.974 208.401 122.079 208.351 122.172C208.3 122.265 208.226 122.342 208.135 122.397C208.044 122.451 207.941 122.48 207.835 122.48Z" fill="#212121"/>
<path fill-rule="evenodd" clip-rule="evenodd" d="M129.662 17.4361L135.907 13.3757L129.19 8.403C129.028 8.28286 128.833 8.21583 128.631 8.21109C128.429 8.20634 128.231 8.26411 128.063 8.37648C127.895 8.48886 127.766 8.65036 127.694 8.83891C127.621 9.02746 127.608 9.23385 127.657 9.42986L129.662 17.4361Z" fill="#212121"/>
<path d="M158.295 31.6822L137.261 45.3577L137.901 46.3445L158.935 32.669L158.295 31.6822Z" fill="#212121"/>
<path d="M115.962 87.922H59.6671L55.3161 59.2612C55.2204 58.6319 55.2615 57.9893 55.4367 57.3774C55.6119 56.7655 55.917 56.1988 56.3312 55.716C56.7454 55.2333 57.2588 54.8459 57.8363 54.5804C58.4138 54.3149 59.0418 54.1776 59.6772 54.1779H97.5078C98.5629 54.1772 99.5832 54.5556 100.384 55.2444C101.184 55.9332 101.711 56.8866 101.87 57.9317L105.948 84.8102H113.546C114.123 84.8102 114.678 85.0245 115.106 85.4118C115.533 85.799 115.802 86.3315 115.86 86.9059L115.962 87.922Z" fill="white"/>
<path d="M115.962 88.4722H59.6671C59.5358 88.4721 59.4089 88.425 59.3093 88.3392C59.2097 88.2534 59.1441 88.1348 59.1244 88.0047L54.7731 59.3439C54.6655 58.6365 54.7118 57.9141 54.9087 57.2261C55.1056 56.5382 55.4485 55.9011 55.914 55.3582C56.3795 54.8154 56.9566 54.3798 57.6058 54.0811C58.2549 53.7824 58.9608 53.6278 59.6752 53.6277H97.5099C98.6975 53.6218 99.8473 54.0456 100.748 54.8211C101.648 55.5967 102.239 56.6719 102.412 57.849L106.419 84.2599H113.546C114.259 84.258 114.947 84.5224 115.476 85.0014C116.005 85.4804 116.336 86.1397 116.406 86.8505L116.508 87.8668C116.516 87.9433 116.508 88.0206 116.484 88.0937C116.46 88.1667 116.421 88.2339 116.369 88.291C116.318 88.348 116.255 88.3936 116.185 88.4247C116.115 88.4559 116.039 88.472 115.962 88.472V88.4722ZM60.139 87.3719H115.355L115.313 86.9609C115.27 86.5217 115.065 86.1143 114.739 85.8183C114.412 85.5223 113.987 85.359 113.546 85.3602H105.947C105.816 85.3601 105.689 85.313 105.589 85.2273C105.49 85.1416 105.424 85.0229 105.404 84.8929L101.326 58.0144C101.192 57.098 100.732 56.261 100.03 55.6572C99.3292 55.0534 98.4341 54.7235 97.5095 54.728H59.6754C59.1192 54.728 58.5696 54.8484 58.0642 55.0809C57.5588 55.3134 57.1095 55.6526 56.7471 56.0752C56.3847 56.4978 56.1177 56.9939 55.9644 57.5295C55.8111 58.0651 55.7751 58.6276 55.859 59.1784L60.139 87.3719Z" fill="#212121"/>
<path d="M98.4919 59.9488L102.382 83.8877H63.0679L59.2636 60.7043C59.2086 60.3694 59.2271 60.0266 59.3176 59.6996C59.4081 59.3726 59.5686 59.0692 59.7878 58.8105C60.0071 58.5518 60.2799 58.344 60.5873 58.2015C60.8947 58.0589 61.2294 57.9851 61.5682 57.9851H96.1869C96.7412 57.9851 97.2775 58.1827 97.6997 58.5424C98.122 58.9022 98.4028 59.4007 98.4919 59.9488Z" fill="white"/>
<path d="M102.382 84.4378H63.0676C62.9375 84.4377 62.8115 84.3913 62.7123 84.3069C62.6131 84.2225 62.5471 84.1055 62.526 83.9768L58.7217 60.7936C58.6538 60.38 58.6765 59.9565 58.7883 59.5526C58.9001 59.1487 59.0983 58.7739 59.3691 58.4544C59.6399 58.1349 59.9768 57.8782 60.3566 57.7021C60.7363 57.5261 61.1497 57.4349 61.5681 57.435H96.1869C96.8721 57.4328 97.5356 57.676 98.0576 58.1208C98.5796 58.5655 98.9259 59.1824 99.0338 59.8604L102.925 83.7993C102.938 83.8779 102.933 83.9585 102.912 84.0353C102.891 84.1121 102.853 84.1833 102.801 84.244C102.75 84.3048 102.686 84.3536 102.613 84.387C102.541 84.4205 102.462 84.4378 102.383 84.4378H102.382ZM63.5333 83.3375H101.737L97.9498 60.0373C97.8831 59.6175 97.6687 59.2353 97.3454 58.9599C97.0222 58.6845 96.6113 58.5338 96.1869 58.5352H61.5681C61.309 58.5353 61.0531 58.5917 60.818 58.7007C60.5829 58.8097 60.3743 58.9686 60.2066 59.1664C60.0389 59.3642 59.9161 59.5962 59.8468 59.8463C59.7776 60.0963 59.7634 60.3585 59.8053 60.6146L63.5333 83.3375Z" fill="#212121"/>
<path d="M227.758 185.735C227.611 185.735 227.47 185.676 227.366 185.573C227.262 185.469 227.203 185.328 227.203 185.181L227.262 117.14C227.262 116.993 227.32 116.852 227.424 116.748C227.528 116.645 227.669 116.586 227.816 116.586C227.963 116.586 228.104 116.645 228.208 116.748C228.312 116.852 228.37 116.993 228.37 117.14L228.312 185.181C228.312 185.328 228.254 185.469 228.15 185.573C228.046 185.676 227.905 185.735 227.758 185.735Z" fill="#212121"/>
<path d="M217.042 178.543H238.474C240.434 178.543 242.313 179.32 243.699 180.704C245.085 182.087 245.864 183.963 245.864 185.919H209.651C209.651 183.963 210.43 182.087 211.816 180.704C213.202 179.32 215.082 178.543 217.042 178.543Z" fill="white"/>
<path d="M245.864 186.472H209.651C209.504 186.472 209.363 186.414 209.26 186.31C209.156 186.206 209.097 186.066 209.097 185.919C209.1 183.817 209.937 181.801 211.427 180.315C212.916 178.829 214.935 177.992 217.042 177.99H238.474C240.58 177.992 242.599 178.829 244.089 180.315C245.578 181.801 246.416 183.817 246.418 185.919C246.418 186.066 246.36 186.206 246.256 186.31C246.152 186.414 246.011 186.472 245.864 186.472ZM210.228 185.366H245.287C245.146 183.659 244.367 182.066 243.105 180.905C241.843 179.744 240.19 179.098 238.474 179.096H217.042C215.325 179.098 213.672 179.744 212.41 180.905C211.148 182.066 210.369 183.659 210.228 185.366Z" fill="#212121"/>
<path d="M249.282 66.431C248.326 66.431 247.41 66.8099 246.734 67.4842C246.059 68.1585 245.679 69.0731 245.679 70.0267V116.955H202.815C202.815 119.694 203.905 122.32 205.846 124.257C207.786 126.194 210.418 127.281 213.162 127.281H242.538C245.282 127.281 247.914 126.194 249.854 124.257C251.795 122.32 252.885 119.694 252.885 116.955V70.0267C252.885 69.0731 252.505 68.1585 251.829 67.4842C251.154 66.8099 250.237 66.431 249.282 66.431Z" fill="white"/>
<path d="M242.538 127.835H213.162C210.272 127.831 207.501 126.684 205.457 124.645C203.414 122.605 202.264 119.84 202.261 116.955C202.261 116.809 202.32 116.668 202.423 116.564C202.527 116.46 202.668 116.402 202.815 116.402H245.125V70.0267C245.125 68.9263 245.563 67.8711 246.342 67.093C247.122 66.3149 248.179 65.8778 249.282 65.8778C250.384 65.8778 251.442 66.3149 252.221 67.093C253.001 67.8711 253.439 68.9263 253.439 70.0267V116.955C253.436 119.84 252.286 122.605 250.243 124.645C248.199 126.684 245.428 127.831 242.538 127.835ZM203.385 117.508C203.53 120 204.622 122.342 206.44 124.055C208.257 125.769 210.662 126.725 213.162 126.728H242.538C245.134 126.725 247.623 125.695 249.459 123.863C251.295 122.03 252.327 119.546 252.33 116.955V70.0267C252.33 69.2198 252.009 68.4459 251.437 67.8753C250.866 67.3047 250.09 66.9842 249.282 66.9842C248.473 66.9842 247.698 67.3047 247.126 67.8753C246.555 68.4459 246.233 69.2198 246.233 70.0267V116.955C246.233 117.102 246.175 117.243 246.071 117.346C245.967 117.45 245.826 117.508 245.679 117.508H203.385Z" fill="#212121"/>
<path d="M40.6453 17.9939H62.214V45.2292H40.6453C38.3849 45.2292 36.2171 44.3347 34.6187 42.7425C33.0203 41.1503 32.1223 38.9907 32.1222 36.7389V26.4846C32.1222 24.2327 33.0202 22.0731 34.6186 20.4808C36.217 18.8884 38.3849 17.9939 40.6453 17.9939Z" fill="#C7CBE0"/>
<path d="M70.8379 17.9667H55.4323C53.2103 17.9667 51.0794 18.846 49.5082 20.4112C47.937 21.9764 47.0543 24.0992 47.0543 26.3127V36.8559C47.0543 37.952 47.271 39.0373 47.6921 40.05C48.1132 41.0626 48.7304 41.9827 49.5084 42.7577C50.2865 43.5328 51.2102 44.1475 52.2267 44.5669C53.2433 44.9863 54.3328 45.2021 55.4331 45.202H58.1828L62.0606 50.1135C62.1887 50.2755 62.352 50.4064 62.5383 50.4964C62.7245 50.5865 62.9288 50.6332 63.1358 50.6332C63.3428 50.6332 63.5472 50.5865 63.7334 50.4964C63.9196 50.4064 64.083 50.2755 64.2111 50.1135L68.0889 45.202H70.8379C71.9381 45.202 73.0276 44.9861 74.044 44.5667C75.0605 44.1473 75.9841 43.5325 76.7621 42.7575C77.5401 41.9825 78.1572 41.0625 78.5782 40.0498C78.9992 39.0372 79.2159 37.9519 79.2159 36.8559V26.3127C79.2159 24.0992 78.3332 21.9764 76.762 20.4112C75.1908 18.846 73.0599 17.9667 70.8379 17.9667V17.9667Z" fill="#C7CBE0"/>
<path d="M67.9021 27.6069H43.6202C43.4742 27.6069 43.3342 27.5491 43.2309 27.4462C43.1277 27.3434 43.0697 27.2039 43.0697 27.0585C43.0697 26.9131 43.1277 26.7736 43.2309 26.6707C43.3342 26.5679 43.4742 26.5101 43.6202 26.5101H67.9021C68.048 26.5101 68.1881 26.5679 68.2913 26.6707C68.3945 26.7736 68.4525 26.9131 68.4525 27.0585C68.4525 27.2039 68.3945 27.3434 68.2913 27.4462C68.1881 27.5491 68.048 27.6069 67.9021 27.6069Z" fill="#212121"/>
<path d="M67.9021 31.6593H43.6202C43.4742 31.6593 43.3342 31.6016 43.2309 31.4987C43.1277 31.3959 43.0697 31.2564 43.0697 31.111C43.0697 30.9655 43.1277 30.8261 43.2309 30.7232C43.3342 30.6204 43.4742 30.5626 43.6202 30.5626H67.9021C68.048 30.5626 68.1881 30.6204 68.2913 30.7232C68.3945 30.8261 68.4525 30.9655 68.4525 31.111C68.4525 31.2564 68.3945 31.3959 68.2913 31.4987C68.1881 31.6016 68.048 31.6593 67.9021 31.6593Z" fill="#212121"/>
<path d="M67.9021 35.7117H43.6202C43.4742 35.7117 43.3342 35.6539 43.2309 35.5511C43.1277 35.4483 43.0697 35.3088 43.0697 35.1634C43.0697 35.0179 43.1277 34.8784 43.2309 34.7756C43.3342 34.6728 43.4742 34.615 43.6202 34.615H67.9021C68.048 34.615 68.1881 34.6728 68.2913 34.7756C68.3945 34.8784 68.4525 35.0179 68.4525 35.1634C68.4525 35.3088 68.3945 35.4483 68.2913 35.5511C68.1881 35.6539 68.048 35.7117 67.9021 35.7117Z" fill="#212121"/>
<path d="M290.541 9.00388L291.558 12.3477C291.642 12.6336 291.796 12.8938 292.006 13.1047C292.216 13.3155 292.475 13.4704 292.759 13.5551L296.068 14.5768C296.121 14.5911 296.171 14.6162 296.214 14.6506C296.257 14.6849 296.293 14.7278 296.319 14.7765C296.345 14.8253 296.36 14.8789 296.365 14.934C296.369 14.9891 296.363 15.0446 296.345 15.097C296.325 15.1627 296.289 15.2225 296.241 15.2711C296.193 15.3197 296.133 15.3556 296.068 15.3756L292.759 16.3788C292.475 16.4635 292.216 16.6184 292.006 16.8292C291.796 17.0401 291.642 17.3003 291.558 17.5862L290.541 20.93C290.507 21.0344 290.434 21.1217 290.338 21.1736C290.241 21.2254 290.129 21.238 290.023 21.2087C289.958 21.1887 289.898 21.1528 289.85 21.1042C289.802 21.0556 289.766 20.9958 289.746 20.93L288.748 17.5862C288.661 17.3018 288.506 17.0432 288.296 16.8327C288.087 16.6223 287.829 16.4664 287.546 16.3788L284.219 15.3756C284.115 15.3414 284.028 15.2683 283.977 15.1714C283.925 15.0745 283.913 14.9614 283.942 14.8555C283.962 14.7897 283.997 14.7299 284.046 14.6813C284.094 14.6327 284.154 14.5969 284.219 14.5768L287.546 13.5551C287.831 13.4704 288.09 13.3155 288.3 13.1047C288.509 12.8938 288.664 12.6336 288.748 12.3477L289.746 9.00388C289.778 8.89812 289.851 8.80944 289.948 8.75722C290.045 8.70501 290.158 8.69351 290.264 8.72523C290.331 8.74227 290.392 8.77716 290.44 8.82621C290.489 8.87526 290.524 8.93664 290.541 9.00388Z" fill="#C7CBE0"/>
<path d="M289.843 36.0185C292.804 36.0185 295.204 33.6066 295.204 30.6313C295.204 27.6561 292.804 25.2441 289.843 25.2441C286.882 25.2441 284.482 27.6561 284.482 30.6313C284.482 33.6066 286.882 36.0185 289.843 36.0185Z" fill="white"/>
<path d="M289.843 36.5759C288.673 36.5759 287.529 36.2272 286.557 35.5741C285.584 34.9209 284.826 33.9925 284.378 32.9062C283.93 31.82 283.813 30.6248 284.042 29.4717C284.27 28.3186 284.833 27.2593 285.66 26.428C286.488 25.5966 287.542 25.0305 288.689 24.8011C289.836 24.5717 291.026 24.6895 292.107 25.1394C293.187 25.5893 294.111 26.3512 294.761 27.3288C295.411 28.3064 295.758 29.4557 295.758 30.6314C295.756 32.2074 295.132 33.7184 294.024 34.8328C292.915 35.9472 291.411 36.5741 289.843 36.5759ZM289.843 25.8015C288.892 25.8015 287.963 26.0848 287.173 26.6155C286.383 27.1462 285.767 27.9005 285.403 28.7831C285.039 29.6656 284.944 30.6367 285.129 31.5737C285.315 32.5106 285.772 33.3712 286.445 34.0466C287.117 34.7221 287.973 35.1821 288.905 35.3685C289.838 35.5548 290.804 35.4592 291.682 35.0936C292.56 34.7281 293.311 34.109 293.839 33.3147C294.367 32.5205 294.649 31.5867 294.649 30.6314C294.648 29.3509 294.141 28.1232 293.24 27.2177C292.339 26.3122 291.117 25.8029 289.843 25.8015Z" fill="#212121"/>
<path d="M289.843 51.4371C292.804 51.4371 295.204 49.0252 295.204 46.0499C295.204 43.0747 292.804 40.6627 289.843 40.6627C286.882 40.6627 284.482 43.0747 284.482 46.0499C284.482 49.0252 286.882 51.4371 289.843 51.4371Z" fill="white"/>
<path d="M289.843 51.9945C288.673 51.9945 287.529 51.6458 286.557 50.9926C285.584 50.3394 284.826 49.411 284.378 48.3248C283.93 47.2386 283.813 46.0434 284.042 44.8903C284.27 43.7371 284.833 42.6779 285.66 41.8466C286.488 41.0152 287.542 40.4491 288.689 40.2197C289.836 39.9903 291.026 40.108 292.107 40.558C293.187 41.0079 294.111 41.7698 294.761 42.7474C295.411 43.725 295.758 44.8743 295.758 46.05C295.756 47.626 295.132 49.1369 294.024 50.2514C292.915 51.3658 291.411 51.9926 289.843 51.9945ZM289.843 41.2201C288.892 41.2201 287.963 41.5033 287.173 42.034C286.383 42.5648 285.767 43.3191 285.403 44.2016C285.039 45.0842 284.944 46.0553 285.129 46.9922C285.315 47.9291 285.772 48.7898 286.445 49.4652C287.117 50.1407 287.973 50.6007 288.905 50.7871C289.838 50.9734 290.804 50.8778 291.682 50.5122C292.56 50.1467 293.311 49.5276 293.839 48.7333C294.367 47.939 294.649 47.0052 294.649 46.05C294.648 44.7694 294.141 43.5418 293.24 42.6363C292.339 41.7308 291.117 41.2215 289.843 41.2201Z" fill="#212121"/>
<path d="M328.834 15.4389H304.804C304.657 15.4389 304.516 15.3802 304.412 15.2757C304.308 15.1712 304.25 15.0294 304.25 14.8816C304.25 14.7338 304.308 14.5921 304.412 14.4876C304.516 14.3831 304.657 14.3243 304.804 14.3243H328.834C328.981 14.3243 329.122 14.3831 329.226 14.4876C329.33 14.5921 329.389 14.7338 329.389 14.8816C329.389 15.0294 329.33 15.1712 329.226 15.2757C329.122 15.3802 328.981 15.4389 328.834 15.4389Z" fill="#212121"/>
<path d="M328.834 31.229H304.804C304.657 31.229 304.516 31.1703 304.412 31.0657C304.308 30.9612 304.25 30.8195 304.25 30.6717C304.25 30.5239 304.308 30.3821 304.412 30.2776C304.516 30.1731 304.657 30.1144 304.804 30.1144H328.834C328.981 30.1144 329.122 30.1731 329.226 30.2776C329.33 30.3821 329.389 30.5239 329.389 30.6717C329.389 30.8195 329.33 30.9612 329.226 31.0657C329.122 31.1703 328.981 31.229 328.834 31.229Z" fill="#212121"/>
<path d="M328.834 47.2048H304.804C304.657 47.2048 304.516 47.1461 304.412 47.0416C304.308 46.9371 304.25 46.7953 304.25 46.6475C304.25 46.4997 304.308 46.358 304.412 46.2534C304.516 46.1489 304.657 46.0902 304.804 46.0902H328.834C328.981 46.0902 329.122 46.1489 329.226 46.2534C329.33 46.358 329.389 46.4997 329.389 46.6475C329.389 46.7953 329.33 46.9371 329.226 47.0416C329.122 47.1461 328.981 47.2048 328.834 47.2048Z" fill="#212121"/>
<path d="M87.5868 185.928H57.5164L50.8676 141.298H94.0629L87.5868 185.928Z" fill="white"/>
<path d="M87.5868 186.472H57.5164C57.3856 186.472 57.2591 186.425 57.1601 186.34C57.061 186.255 56.996 186.137 56.9767 186.008L50.3281 141.378C50.3165 141.301 50.3219 141.222 50.3437 141.147C50.3655 141.071 50.4033 141.002 50.4545 140.943C50.5057 140.883 50.5691 140.836 50.6404 140.803C50.7116 140.771 50.7891 140.754 50.8675 140.754H94.0629C94.1411 140.754 94.2184 140.771 94.2895 140.803C94.3606 140.835 94.4239 140.883 94.4751 140.942C94.5263 141.001 94.5641 141.07 94.5861 141.145C94.6081 141.22 94.6137 141.299 94.6025 141.376L88.1266 186.006C88.1078 186.135 88.0429 186.254 87.9438 186.339C87.8447 186.425 87.7179 186.472 87.5868 186.472ZM57.9871 185.383H87.1148L93.4327 141.843H51.5002L57.9871 185.383Z" fill="#212121"/>
<path d="M60.5577 141.298L65.8739 185.928H72.1194L79.575 185.908L85.1939 141.298H60.5577Z" fill="white"/>
<path d="M65.8746 186.472C65.7411 186.472 65.6122 186.423 65.5124 186.335C65.4126 186.246 65.3487 186.124 65.333 185.992L60.0161 141.362C60.007 141.286 60.0143 141.209 60.0373 141.135C60.0604 141.062 60.0987 140.994 60.1499 140.937C60.2011 140.879 60.2638 140.833 60.3341 140.802C60.4044 140.77 60.4805 140.754 60.5576 140.754H85.1937C85.2711 140.754 85.3476 140.77 85.4181 140.802C85.4886 140.834 85.5516 140.88 85.6028 140.938C85.654 140.996 85.6922 141.064 85.715 141.138C85.7378 141.212 85.7446 141.289 85.735 141.366L80.1168 185.976C80.1003 186.108 80.0364 186.228 79.937 186.316C79.8377 186.404 79.7097 186.452 79.577 186.453L72.1207 186.472H65.8746ZM66.359 185.383H72.1198L79.0943 185.365L84.5761 141.843H61.1718L66.359 185.383Z" fill="#212121"/>
<path d="M72.2188 141.791L72.8758 185.436L72.2188 141.791Z" fill="white"/>
<path d="M72.8754 185.98C72.7322 185.98 72.5947 185.924 72.4926 185.823C72.3906 185.723 72.3321 185.587 72.33 185.444L71.6733 141.799C71.6722 141.727 71.6852 141.656 71.7117 141.59C71.7381 141.523 71.7773 141.463 71.8272 141.411C71.8771 141.36 71.9367 141.319 72.0024 141.291C72.0682 141.262 72.1389 141.247 72.2105 141.246H72.2189C72.3622 141.246 72.4997 141.302 72.6017 141.403C72.7038 141.503 72.7622 141.639 72.7644 141.782L73.4213 185.427C73.4223 185.499 73.4093 185.57 73.3829 185.636C73.3565 185.703 73.3172 185.763 73.2673 185.815C73.2174 185.866 73.1579 185.907 73.0921 185.935C73.0263 185.964 72.9556 185.979 72.884 185.98H72.8754Z" fill="#212121"/>
<path d="M91.7587 138.017H53.3358C50.3398 138.017 47.9111 140.441 47.9111 143.431C47.9111 146.422 50.3398 148.846 53.3358 148.846H91.7587C94.7547 148.846 97.1834 146.422 97.1834 143.431C97.1834 140.441 94.7547 138.017 91.7587 138.017Z" fill="#707FDA"/>
<path d="M91.547 157.798H53.5474V158.887H91.547V157.798Z" fill="#212121"/>
<path d="M89.9108 171.772H55.1838V172.861H89.9108V171.772Z" fill="#212121"/>
<path d="M210.488 37.8522C212.95 37.8522 214.946 35.8569 214.946 33.3955C214.946 30.9342 212.95 28.9388 210.488 28.9388C208.026 28.9388 206.031 30.9342 206.031 33.3955C206.031 35.8569 208.026 37.8522 210.488 37.8522Z" fill="white"/>
<path d="M210.488 38.398C209.499 38.398 208.531 38.1046 207.708 37.555C206.885 37.0053 206.244 36.224 205.865 35.31C205.487 34.3959 205.388 33.3901 205.581 32.4197C205.774 31.4493 206.25 30.558 206.95 29.8584C207.65 29.1588 208.541 28.6823 209.512 28.4893C210.483 28.2963 211.489 28.3954 212.403 28.774C213.317 29.1526 214.099 29.7938 214.649 30.6164C215.198 31.4391 215.492 32.4062 215.492 33.3956C215.49 34.7219 214.963 35.9933 214.025 36.9312C213.087 37.869 211.815 38.3965 210.488 38.398ZM210.488 29.4846C209.714 29.4846 208.958 29.714 208.315 30.1437C207.671 30.5735 207.17 31.1843 206.874 31.8989C206.578 32.6136 206.5 33.3999 206.651 34.1586C206.802 34.9173 207.175 35.6141 207.722 36.1611C208.269 36.7081 208.966 37.0805 209.725 37.2314C210.484 37.3823 211.27 37.3049 211.985 37.0089C212.7 36.7129 213.311 36.2116 213.741 35.5684C214.171 34.9253 214.4 34.1691 214.4 33.3956C214.399 32.3587 213.986 31.3646 213.253 30.6315C212.52 29.8983 211.525 29.4858 210.488 29.4846Z" fill="#212121"/>
<path fill-rule="evenodd" clip-rule="evenodd" d="M118.379 150.31C115.116 153.205 106.43 157.143 101.997 156.044C96.5521 154.71 92.1167 153.226 92.1167 153.226C90.1863 152.308 87.9919 152.108 85.9273 152.662C83.8627 153.215 82.0631 154.486 80.8513 156.247L104.568 175.828L114.974 174.79L110.159 180.49L117.375 186.462L134.937 166.5" fill="white"/>
<path d="M117.375 187.007C117.248 187.007 117.125 186.963 117.027 186.882L109.811 180.91C109.755 180.864 109.71 180.808 109.676 180.744C109.642 180.68 109.622 180.61 109.615 180.538C109.609 180.466 109.617 180.394 109.639 180.325C109.66 180.256 109.695 180.193 109.742 180.138L113.687 175.467L104.622 176.371C104.551 176.378 104.478 176.371 104.409 176.35C104.34 176.329 104.276 176.295 104.221 176.249L80.5039 156.668C80.3985 156.581 80.3295 156.457 80.3107 156.322C80.2919 156.186 80.3246 156.049 80.4023 155.937C81.6808 154.07 83.5834 152.72 85.7681 152.13C87.9529 151.54 90.2765 151.748 92.3213 152.718C92.7227 152.851 97.002 154.258 102.127 155.514C106.255 156.539 114.694 152.849 118.017 149.901C118.071 149.853 118.133 149.816 118.201 149.792C118.269 149.768 118.341 149.758 118.413 149.762C118.485 149.766 118.555 149.784 118.62 149.816C118.685 149.847 118.743 149.891 118.79 149.945C118.838 149.999 118.875 150.061 118.898 150.129C118.922 150.197 118.931 150.269 118.927 150.341C118.922 150.413 118.904 150.483 118.872 150.548C118.84 150.612 118.796 150.67 118.742 150.718C115.263 153.804 106.448 157.709 101.865 156.573C96.4629 155.25 91.9888 153.758 91.9444 153.744C91.9235 153.737 91.903 153.728 91.8831 153.719C90.1484 152.888 88.1815 152.677 86.31 153.12C84.4385 153.563 82.7753 154.634 81.5974 156.154L104.742 175.262L114.921 174.247C115.029 174.236 115.138 174.258 115.234 174.309C115.329 174.361 115.407 174.44 115.458 174.536C115.509 174.632 115.529 174.741 115.518 174.849C115.506 174.957 115.462 175.059 115.392 175.142L110.934 180.421L117.317 185.703L134.527 166.139C134.623 166.03 134.758 165.964 134.902 165.955C135.047 165.946 135.189 165.994 135.298 166.09C135.406 166.185 135.473 166.32 135.482 166.465C135.491 166.609 135.443 166.751 135.347 166.86L117.785 186.822C117.734 186.88 117.671 186.927 117.6 186.959C117.529 186.991 117.452 187.007 117.375 187.007Z" fill="#212121"/>
<path fill-rule="evenodd" clip-rule="evenodd" d="M188.436 169.734C187.323 173.285 185.332 176.364 182.337 177.417C176.944 179.302 175.369 182.679 175.683 187.015H202.21L207.85 178.102V187.015H216.038V169.734H188.436Z" fill="white"/>
<path d="M216.038 187.561H207.85C207.705 187.561 207.566 187.504 207.464 187.401C207.362 187.299 207.304 187.16 207.304 187.015V179.986L202.671 187.307C202.622 187.385 202.554 187.449 202.473 187.494C202.392 187.539 202.302 187.562 202.209 187.562H175.682C175.544 187.562 175.412 187.51 175.311 187.416C175.21 187.322 175.148 187.193 175.138 187.056C174.768 181.932 176.998 178.706 182.157 176.902C184.664 176.021 186.709 173.417 187.915 169.571C187.95 169.461 188.019 169.364 188.113 169.295C188.207 169.226 188.32 169.189 188.436 169.189H216.038C216.183 169.189 216.322 169.247 216.424 169.349C216.526 169.452 216.584 169.59 216.584 169.735V187.016C216.584 187.161 216.526 187.3 216.424 187.402C216.321 187.504 216.182 187.561 216.038 187.561ZM208.396 186.47H215.492V170.28H188.833C187.505 174.254 185.272 176.963 182.519 177.931C178.008 179.508 176.042 182.153 176.2 186.47H201.91L207.39 177.811C207.453 177.711 207.547 177.634 207.657 177.592C207.768 177.551 207.889 177.546 208.003 177.578C208.116 177.611 208.216 177.68 208.287 177.774C208.358 177.869 208.397 177.984 208.397 178.102L208.396 186.47Z" fill="#212121"/>
<path fill-rule="evenodd" clip-rule="evenodd" d="M130.422 84.0685C125.651 80.2848 123.112 77.231 122.805 74.9069C122.287 71.0051 122.525 68.1253 116.949 65.4254C114.434 64.2141 110.49 62.7878 111.732 60.4296C112.596 58.8106 117.283 60.2975 120.771 61.2698C116.807 57.8829 111.601 53.4442 113.03 51.5631C114.458 49.682 118.537 52.5474 123.649 56.9692C118.891 51.1376 115.575 48.7064 117.16 47.0493C118.797 45.3408 123.375 48.9449 127.29 53.2545C127.948 52.9883 128.567 53.3157 129.149 54.2368C130.8 56.8491 133.529 61.8212 137.337 69.1531" fill="white"/>
<path d="M130.422 84.614C130.299 84.6142 130.179 84.5726 130.083 84.496C125.151 80.585 122.593 77.4713 122.263 74.9786C122.212 74.5924 122.168 74.2161 122.126 73.849C121.745 70.5814 121.47 68.2206 116.711 65.9166C116.419 65.7758 116.105 65.6316 115.783 65.4831C113.818 64.578 111.593 63.552 111.066 61.9991C110.966 61.6994 110.931 61.382 110.962 61.0677C110.994 60.7535 111.091 60.4494 111.249 60.1755C112.121 58.5416 115.232 59.175 118.55 60.0807C114.67 56.7062 111.094 53.2088 112.595 51.2332C112.763 51.0081 112.976 50.8214 113.222 50.6854C113.467 50.5494 113.739 50.4672 114.018 50.4444C115.222 50.3189 116.861 51.0211 119.297 52.7681C118.154 51.4802 117.253 50.436 116.737 49.5665C116.478 49.1287 115.69 47.7971 116.765 46.6726C116.964 46.4696 117.203 46.311 117.468 46.2073C117.732 46.1036 118.015 46.0571 118.299 46.0708C121.111 46.1085 125.488 50.4912 127.467 52.6395C128.076 52.536 128.856 52.7512 129.61 53.9447C131.262 56.5583 134.024 61.5903 137.821 68.901C137.888 69.0294 137.901 69.1791 137.857 69.3171C137.813 69.4551 137.717 69.5701 137.588 69.6368C137.46 69.7035 137.31 69.7164 137.172 69.6728C137.034 69.6291 136.919 69.5324 136.852 69.4039C133.069 62.1204 130.322 57.1155 128.687 54.5277C128.059 53.5328 127.649 53.6978 127.495 53.7607C127.391 53.8026 127.277 53.8118 127.168 53.7869C127.059 53.762 126.961 53.7043 126.886 53.6216C123.341 49.7201 119.965 47.1847 118.284 47.1621C118.15 47.15 118.016 47.1674 117.889 47.2133C117.763 47.2592 117.649 47.3323 117.554 47.4275C116.783 48.233 117.915 49.5749 120.549 52.5329C121.587 53.6993 122.764 55.0214 124.072 56.6245C124.158 56.7303 124.202 56.8646 124.194 57.0008C124.186 57.1371 124.127 57.2654 124.029 57.3605C123.931 57.4557 123.801 57.5106 123.665 57.5146C123.528 57.5186 123.395 57.4713 123.292 57.3821C120.277 54.7741 116.047 51.3308 114.132 51.5302C114.001 51.5385 113.873 51.5754 113.758 51.6383C113.642 51.7011 113.542 51.7884 113.464 51.894C113.216 52.2215 113.12 53.1193 115.265 55.4676C116.851 57.2039 119.102 59.1264 121.088 60.8227L121.127 60.856C121.221 60.9367 121.285 61.0473 121.308 61.1694C121.331 61.2914 121.312 61.4177 121.254 61.5274C121.195 61.637 121.101 61.7235 120.987 61.7724C120.873 61.8213 120.745 61.8298 120.625 61.7964C120.345 61.7182 120.057 61.6367 119.763 61.5538C117.16 60.8176 112.802 59.5857 112.214 60.6874C112.127 60.8301 112.072 60.9899 112.052 61.1559C112.032 61.3219 112.049 61.4902 112.1 61.6493C112.476 62.758 114.564 63.7199 116.241 64.4927C116.569 64.6438 116.888 64.7908 117.187 64.9347C122.486 67.4996 122.822 70.3842 123.211 73.7233C123.253 74.0851 123.297 74.4558 123.347 74.8362C123.634 77.0042 126.129 79.9659 130.763 83.6417C130.852 83.7122 130.916 83.8085 130.948 83.9173C130.979 84.0261 130.976 84.142 130.939 84.249C130.902 84.356 130.832 84.4487 130.74 84.5143C130.647 84.5798 130.537 84.615 130.423 84.6149L130.422 84.614Z" fill="#212121"/>
<path d="M138.761 72.0593C138.673 72.0595 138.586 72.0382 138.507 71.9972C138.429 71.9563 138.362 71.8968 138.312 71.8241C138.273 71.7683 138.029 71.4212 137.785 71.0741C137.539 70.7242 137.294 70.374 137.255 70.318C137.233 70.2873 137.215 70.2545 137.2 70.2201C136.228 67.9244 135.047 65.751 133.904 63.6493C133.399 62.7216 132.878 61.762 132.38 60.8028C132.007 60.0974 131.59 59.4168 131.129 58.7655C131.089 58.7062 131.06 58.6396 131.046 58.5695C131.031 58.4993 131.03 58.4269 131.044 58.3565C131.057 58.2861 131.084 58.219 131.123 58.159C131.163 58.0991 131.213 58.0475 131.273 58.0071C131.332 57.9667 131.399 57.9384 131.469 57.9238C131.539 57.9092 131.611 57.9086 131.682 57.9219C131.752 57.9352 131.819 57.9623 131.879 58.0016C131.939 58.0409 131.991 58.0916 132.031 58.1508C132.518 58.8398 132.959 59.5596 133.352 60.3059C133.842 61.2496 134.361 62.2044 134.862 63.1278C136.009 65.2366 137.194 67.4166 138.182 69.7417L138.677 70.4466C138.923 70.7964 139.168 71.1465 139.208 71.2027C139.264 71.2846 139.298 71.3803 139.304 71.4797C139.31 71.579 139.289 71.6781 139.243 71.7663C139.196 71.8544 139.127 71.9283 139.042 71.9799C138.957 72.0315 138.859 72.0588 138.76 72.059L138.761 72.0593Z" fill="#212121"/>
<path fill-rule="evenodd" clip-rule="evenodd" d="M131.572 71.7602C129.609 69.2806 129.626 65.7651 128.564 62.3193C127.088 57.5728 126.581 54.3882 127.39 53.5332C128.554 52.3063 130.196 55.4671 131.976 58.954C132.686 60.344 134.505 63.679 137.435 68.9588" fill="white"/>
<path d="M131.572 72.3059C131.489 72.3061 131.408 72.2875 131.334 72.2517C131.26 72.2158 131.194 72.1636 131.143 72.0989C129.753 70.3428 129.312 68.1619 128.844 65.8531C128.62 64.7461 128.39 63.6015 128.043 62.4793C125.853 55.443 126.396 53.7895 126.994 53.1583C127.131 52.9982 127.307 52.8751 127.505 52.8005C127.702 52.7258 127.916 52.7019 128.125 52.731C129.42 52.9182 130.628 55.1129 132.462 58.7053C133.167 60.0847 135 63.4451 137.912 68.6936C137.981 68.8201 137.998 68.9689 137.958 69.1075C137.918 69.2461 137.824 69.3632 137.698 69.4331C137.572 69.5031 137.423 69.5203 137.284 69.4809C137.145 69.4415 137.028 69.3488 136.957 69.223C134.039 63.9637 132.2 60.5921 131.49 59.2016C130.418 57.1027 128.799 53.9312 127.969 53.8112C127.941 53.8068 127.89 53.7999 127.787 53.909C127.563 54.1455 126.996 55.437 129.086 62.1565C129.421 63.3019 129.697 64.4634 129.915 65.6365C130.356 67.8137 130.772 69.8704 132 71.4211C132.064 71.5015 132.103 71.5982 132.115 71.7C132.126 71.8019 132.108 71.9049 132.063 71.9972C132.019 72.0894 131.949 72.1673 131.862 72.2218C131.776 72.2763 131.675 72.3052 131.573 72.3053L131.572 72.3059Z" fill="#212121"/>
<path fill-rule="evenodd" clip-rule="evenodd" d="M266.536 51.5073C271.308 47.7236 273.847 44.6698 274.154 42.3458C274.672 38.4439 276.975 35.9925 280.01 32.8643C280.995 31.8494 280.116 27.7849 276.628 28.757C279.979 25.5313 275.172 22.3903 273.31 24.408C278.068 18.5765 281.384 16.1453 279.799 14.4881C278.162 12.7797 273.584 16.3838 269.669 20.6933C269.012 20.4272 268.392 20.7547 267.81 21.6756C266.159 24.2879 263.43 29.26 259.622 36.5919" fill="white"/>
<path d="M266.537 52.0528C266.424 52.0529 266.313 52.0177 266.221 51.9521C266.128 51.8865 266.059 51.7938 266.021 51.6868C265.984 51.5799 265.981 51.4639 266.012 51.3551C266.044 51.2463 266.109 51.15 266.197 51.0796C270.832 47.4051 273.327 44.4419 273.613 42.2743C274.166 38.1037 276.693 35.4995 279.618 32.4843C279.914 32.179 279.97 31.0801 279.44 30.1884C279.056 29.543 278.283 28.8623 276.774 29.2827C276.657 29.3154 276.532 29.3081 276.42 29.2619C276.307 29.2157 276.213 29.1334 276.153 29.0279C276.093 28.9224 276.069 28.7998 276.087 28.6795C276.104 28.5592 276.161 28.4482 276.249 28.3639C277.061 27.5817 277.383 26.7677 277.179 26.0099C276.975 25.252 276.251 24.5995 275.378 24.3845C275.059 24.3061 274.257 24.1868 273.71 24.778C273.614 24.8821 273.481 24.9447 273.34 24.9524C273.198 24.9602 273.059 24.9126 272.952 24.8197C272.845 24.7267 272.778 24.5958 272.766 24.4545C272.754 24.3133 272.797 24.1728 272.886 24.0629C274.194 22.46 275.371 21.1379 276.41 19.9717C279.043 17.0133 280.175 15.6714 279.404 14.8654C279.31 14.7703 279.195 14.6973 279.069 14.6515C278.943 14.6058 278.808 14.5883 278.674 14.6005C276.994 14.6231 273.617 17.1585 270.073 21.06C269.998 21.1427 269.899 21.2004 269.79 21.2253C269.681 21.2502 269.567 21.2411 269.464 21.1992C269.31 21.1366 268.9 20.9703 268.271 21.9661C266.636 24.5539 263.889 29.5589 260.106 36.8424C260.04 36.9708 259.925 37.0675 259.787 37.1112C259.649 37.1549 259.499 37.1419 259.37 37.0752C259.242 37.0085 259.145 36.8935 259.102 36.7555C259.058 36.6175 259.071 36.4679 259.138 36.3394C262.934 29.0288 265.697 23.9967 267.348 21.3831C268.102 20.1898 268.882 19.9749 269.492 20.0779C271.471 17.9294 275.848 13.5475 278.66 13.5093C278.943 13.4949 279.227 13.5411 279.491 13.6448C279.755 13.7484 279.995 13.9072 280.193 14.1105C281.269 15.2356 280.48 16.5673 280.221 17.005C279.642 17.9829 278.576 19.1806 277.225 20.6977C276.544 21.4617 275.803 22.2952 275.005 23.2289C275.219 23.2412 275.431 23.2735 275.639 23.3251C276.907 23.6371 277.925 24.5803 278.233 25.7272C278.333 26.1221 278.352 26.5331 278.29 26.9355C278.227 27.338 278.084 27.7238 277.87 28.07C278.386 28.0965 278.886 28.2537 279.325 28.5268C279.764 28.7999 280.126 29.1799 280.377 29.6313C281.104 30.8535 281.115 32.5083 280.4 33.2446C277.61 36.1209 275.2 38.6052 274.694 42.418C274.365 44.9101 271.807 48.0234 266.875 51.9351C266.779 52.0114 266.659 52.0529 266.537 52.0528Z" fill="#212121"/>
<path d="M258.198 39.4982C258.098 39.4981 258 39.4707 257.915 39.4191C257.83 39.3674 257.761 39.2935 257.715 39.2052C257.669 39.117 257.647 39.0178 257.654 38.9184C257.66 38.819 257.693 38.7232 257.75 38.6414C257.787 38.5869 258.015 38.264 258.25 37.9291C258.466 37.6211 258.689 37.3035 258.775 37.1809C259.763 34.856 260.949 32.676 262.095 30.5672C262.597 29.6438 263.116 28.6888 263.61 27.7389C264.002 26.9948 264.442 26.277 264.927 25.59C265.009 25.4704 265.134 25.3881 265.277 25.3611C265.419 25.3342 265.566 25.3648 265.686 25.4463C265.805 25.5278 265.888 25.6535 265.915 25.7957C265.942 25.938 265.911 26.0851 265.829 26.2047C265.37 26.854 264.953 27.5324 264.582 28.2355C264.081 29.2009 263.559 30.1604 263.054 31.0883C261.912 33.1901 260.73 35.3631 259.758 37.659C259.744 37.6934 259.725 37.7262 259.704 37.7568C259.663 37.8154 259.398 38.1934 259.143 38.5572C258.909 38.8896 258.683 39.211 258.646 39.2645C258.596 39.3367 258.529 39.3957 258.451 39.4364C258.373 39.4771 258.286 39.4983 258.198 39.4982Z" fill="#212121"/>
<path fill-rule="evenodd" clip-rule="evenodd" d="M266.62 35.4875C267.894 33.4865 267.88 31.4275 268.395 29.7574C269.871 25.0109 270.378 21.8263 269.569 20.9723C268.404 19.7453 266.951 22.6751 264.802 26.0292C263.906 27.4267 262.147 31.0041 259.525 36.7617" fill="white"/>
<path d="M259.524 37.3068C259.433 37.3067 259.343 37.2838 259.263 37.24C259.182 37.1962 259.114 37.133 259.065 37.0562C259.016 36.9794 258.986 36.8914 258.98 36.8003C258.973 36.7092 258.99 36.6179 259.027 36.5347C261.685 30.6987 263.423 27.1657 264.34 25.7339C264.68 25.2034 265.001 24.6863 265.312 24.1864C266.778 21.8231 267.747 20.262 268.863 20.1481C269.069 20.1299 269.277 20.1612 269.468 20.2392C269.66 20.3173 269.83 20.4399 269.964 20.5969C270.563 21.2286 271.105 22.882 268.915 29.9195C268.762 30.4577 268.637 31.0035 268.541 31.5547C268.29 32.8542 268.005 34.3273 267.08 35.7806C267.002 35.9027 266.879 35.989 266.738 36.0204C266.597 36.0518 266.449 36.0259 266.327 35.9482C266.204 35.8705 266.118 35.7475 266.087 35.6062C266.055 35.4649 266.081 35.317 266.159 35.1948C266.973 33.9164 267.225 32.6105 267.469 31.3475C267.572 30.7571 267.706 30.1727 267.872 29.5967C269.962 22.8765 269.395 21.5837 269.171 21.3476C269.056 21.2255 268.997 21.2315 268.974 21.2339C268.391 21.2934 267.248 23.1361 266.239 24.762C265.926 25.2653 265.603 25.7859 265.259 26.3231C264.382 27.6914 262.619 31.2791 260.02 36.9871C259.976 37.0823 259.907 37.163 259.819 37.2196C259.731 37.2763 259.629 37.3065 259.524 37.3068Z" fill="#212121"/>
<path fill-rule="evenodd" clip-rule="evenodd" d="M276.628 28.757C273.959 33.6079 271.897 35.6088 270.441 34.76C268.986 33.9111 269.592 31.3037 272.261 26.938" fill="white"/>
<path d="M271.129 35.4961C270.79 35.4961 270.458 35.4046 270.166 35.2312C269.926 35.0935 269.718 34.9077 269.553 34.6854C269.389 34.4632 269.272 34.2093 269.21 33.9397C268.843 32.4845 269.688 30.1015 271.795 26.6542C271.832 26.5917 271.881 26.5371 271.939 26.4936C271.997 26.4502 272.063 26.4187 272.133 26.401C272.203 26.3834 272.277 26.38 272.348 26.3909C272.42 26.4018 272.489 26.4269 272.551 26.4647C272.612 26.5025 272.666 26.5522 272.709 26.611C272.751 26.6698 272.781 26.7364 272.798 26.807C272.814 26.8776 272.816 26.9508 272.804 27.0223C272.792 27.0937 272.765 27.162 272.727 27.2232C270.336 31.1342 270.07 32.8888 270.268 33.6728C270.295 33.8014 270.349 33.9228 270.426 34.0291C270.503 34.1353 270.602 34.224 270.716 34.2891C270.821 34.3503 270.937 34.3886 271.057 34.4014C271.177 34.4141 271.299 34.4012 271.414 34.3634C272.225 34.1391 273.705 32.9389 276.149 28.4949C276.183 28.4307 276.229 28.3739 276.285 28.3278C276.341 28.2818 276.406 28.2473 276.475 28.2264C276.545 28.2056 276.618 28.1987 276.69 28.2064C276.762 28.214 276.832 28.2359 276.895 28.2708C276.959 28.3058 277.015 28.353 277.06 28.4098C277.105 28.4666 277.138 28.5318 277.158 28.6016C277.178 28.6714 277.183 28.7444 277.174 28.8163C277.165 28.8883 277.142 28.9577 277.106 29.0206C274.966 32.9101 273.2 35.0019 271.705 35.4155C271.517 35.4682 271.324 35.4953 271.129 35.4961Z" fill="#212121"/>
<path fill-rule="evenodd" clip-rule="evenodd" d="M280.135 32.6167C277.276 37.132 275.329 38.8579 274.029 38.2376C272.729 37.6173 273.595 34.5176 276.628 28.9391" fill="white"/>
<path d="M274.575 38.9096C274.305 38.9094 274.038 38.848 273.794 38.7299C273.607 38.6389 273.441 38.5099 273.306 38.351C273.171 38.1922 273.071 38.0071 273.012 37.8074C272.719 36.905 272.725 34.9764 276.149 28.6783C276.183 28.6147 276.229 28.5584 276.285 28.5128C276.34 28.4671 276.405 28.4329 276.474 28.4122C276.543 28.3915 276.615 28.3846 276.687 28.3921C276.759 28.3995 276.828 28.421 276.891 28.4554C276.955 28.4899 277.011 28.5365 277.056 28.5926C277.101 28.6487 277.135 28.7132 277.155 28.7824C277.175 28.8516 277.181 28.9241 277.173 28.9957C277.165 29.0673 277.143 29.1366 277.108 29.1996C273.98 34.9548 273.849 36.8519 274.05 37.4705C274.063 37.5293 274.09 37.5845 274.127 37.632C274.164 37.6795 274.211 37.7181 274.265 37.745C274.832 38.0155 276.289 37.6723 279.674 32.3242C279.712 32.2637 279.762 32.2113 279.821 32.17C279.88 32.1287 279.946 32.0994 280.016 32.0836C280.086 32.0679 280.158 32.0661 280.229 32.0784C280.299 32.0906 280.367 32.1166 280.427 32.155C280.488 32.1933 280.54 32.2432 280.582 32.3018C280.623 32.3603 280.652 32.4265 280.668 32.4964C280.684 32.5663 280.685 32.6387 280.673 32.7093C280.661 32.7799 280.635 32.8474 280.597 32.908C278.007 36.9979 276.104 38.9096 274.575 38.9096Z" fill="#212121"/>
<path fill-rule="evenodd" clip-rule="evenodd" d="M232.959 87.5127L189.109 92.4241L169.458 104.248L127.791 87.8765L138.408 66.4087L166.698 79.5479L180.35 60.5051C182.809 57.0755 186.384 54.6071 190.463 53.5226L201.814 50.5048L215.32 47.5503C219.216 46.6979 223.285 47.149 226.899 48.8342L241.698 55.7331L255.082 34.5687L276.731 47.0899L259.631 76.4719C257.52 80.0999 254.095 82.7785 250.065 83.9545C246.035 85.1305 241.707 84.714 237.975 82.7909L234.088 80.7883L230.356 78.8649L224.745 75.9738L230.048 78.7812L232.959 87.5127Z" fill="white"/>
<path d="M169.458 104.794C169.39 104.794 169.322 104.781 169.258 104.756L127.591 88.3844C127.521 88.3568 127.457 88.3148 127.404 88.2613C127.35 88.2077 127.309 88.1436 127.282 88.0732C127.254 88.0027 127.242 87.9274 127.245 87.8519C127.249 87.7764 127.268 87.7025 127.301 87.6348L137.919 66.1669C137.982 66.0393 138.092 65.9414 138.227 65.8942C138.361 65.8469 138.509 65.8541 138.638 65.9141L166.517 78.8629L179.906 60.1869C182.441 56.6572 186.122 54.1156 190.322 52.9953L201.674 49.9773L201.698 49.9716L215.203 47.0171C219.217 46.1468 223.405 46.6112 227.13 48.3396L241.493 55.0355L254.62 34.277C254.696 34.1578 254.814 34.0724 254.951 34.0387C255.088 34.0051 255.233 34.0257 255.355 34.0963L277.004 46.6175C277.066 46.6534 277.12 46.7012 277.164 46.7581C277.208 46.8151 277.239 46.88 277.258 46.9493C277.276 47.0185 277.281 47.0907 277.271 47.1618C277.262 47.2328 277.239 47.3013 277.203 47.3633L260.103 76.7462C257.923 80.4968 254.384 83.2663 250.219 84.4818C246.054 85.6973 241.581 85.2658 237.725 83.2767L230.96 79.7908L233.477 87.3408C233.503 87.4179 233.511 87.4999 233.501 87.5805C233.491 87.6612 233.463 87.7386 233.419 87.8072C233.375 87.8757 233.317 87.9335 233.248 87.9765C233.179 88.0194 233.101 88.0464 233.02 88.0555L189.288 92.9532L169.74 104.716C169.655 104.767 169.557 104.794 169.458 104.794ZM128.544 87.5855L169.407 103.642L188.828 91.9567C188.895 91.9161 188.97 91.8905 189.048 91.8819L232.228 87.0456L229.6 79.1612L224.49 76.4563C224.361 76.3893 224.265 76.274 224.221 76.1359C224.178 75.9978 224.191 75.8481 224.258 75.7198C224.325 75.5915 224.441 75.4951 224.579 75.4517C224.717 75.4084 224.867 75.4217 224.995 75.4887L238.225 82.3058C241.832 84.1668 246.017 84.5706 249.913 83.4337C253.81 82.2967 257.12 79.706 259.16 76.1974L275.984 47.2882L255.263 35.3036L242.159 56.0246C242.088 56.1366 241.979 56.219 241.852 56.2563C241.725 56.2937 241.588 56.2835 241.468 56.2276L226.669 49.3286C223.161 47.7013 219.217 47.264 215.438 48.0831L201.944 51.0351L190.603 54.0502C186.648 55.1052 183.181 57.4987 180.794 60.8229L167.141 79.8659C167.067 79.9691 166.959 80.0433 166.836 80.0756C166.714 80.1079 166.583 80.0964 166.468 80.0429L138.662 67.1276L128.544 87.5855Z" fill="#212121"/>
<path fill-rule="evenodd" clip-rule="evenodd" d="M182.372 126.441L173.24 128.587L135.024 166.545L112.83 144.685L156.169 102.291C158.485 100.121 161.399 98.6964 164.534 98.2026L186.562 93.6975" fill="white"/>
<path d="M135.024 167.091C134.881 167.091 134.743 167.034 134.642 166.934L112.446 145.074C112.395 145.023 112.354 144.962 112.326 144.895C112.298 144.828 112.284 144.757 112.284 144.684C112.284 144.611 112.298 144.54 112.327 144.473C112.355 144.406 112.396 144.346 112.448 144.295L155.787 101.901C158.179 99.6514 161.193 98.1755 164.437 97.6652L186.453 93.1629C186.524 93.1472 186.597 93.1459 186.668 93.1588C186.739 93.1717 186.807 93.1987 186.868 93.2381C186.929 93.2775 186.981 93.3286 187.022 93.3885C187.063 93.4483 187.091 93.5157 187.106 93.5866C187.12 93.6575 187.12 93.7306 187.106 93.8016C187.092 93.8727 187.064 93.9402 187.024 94.0003C186.983 94.0603 186.931 94.1118 186.871 94.1516C186.81 94.1914 186.743 94.2187 186.671 94.2321L164.644 98.7372L164.619 98.7416C161.591 99.2149 158.776 100.591 156.542 102.689L113.609 144.686L135.022 165.777L172.855 128.201C172.927 128.13 173.017 128.08 173.115 128.057L182.247 125.91C182.387 125.88 182.533 125.906 182.654 125.982C182.776 126.058 182.862 126.179 182.895 126.319C182.927 126.458 182.904 126.605 182.83 126.727C182.755 126.85 182.636 126.938 182.497 126.973L173.515 129.085L135.409 166.932C135.306 167.034 135.168 167.091 135.024 167.091Z" fill="#212121"/>
<path fill-rule="evenodd" clip-rule="evenodd" d="M229.866 78.7812L236.989 98.2006C237.782 100.363 238.07 102.678 237.83 104.968C237.591 107.259 236.83 109.464 235.607 111.416C234.384 113.367 232.73 115.013 230.773 116.228C228.815 117.442 226.606 118.192 224.314 118.422L214.126 119.44L218.226 169.733L186.501 169.655L180.681 106.09C180.357 102.557 181.442 99.0399 183.698 96.3022C185.955 93.5646 189.201 91.8281 192.731 91.4701L228.089 87.8847" fill="white"/>
<path d="M218.227 170.28H218.225L186.5 170.202C186.364 170.201 186.233 170.15 186.133 170.059C186.033 169.967 185.97 169.841 185.958 169.706L180.138 106.139C179.813 102.466 180.945 98.8125 183.291 95.9666C185.637 93.1208 189.007 91.3108 192.676 90.9273L228.034 87.3419C228.176 87.3305 228.317 87.3752 228.427 87.4666C228.537 87.558 228.606 87.6887 228.621 87.8307C228.635 87.9728 228.593 88.1148 228.504 88.2264C228.415 88.3379 228.286 88.4101 228.144 88.4275L192.786 92.0131C189.403 92.3668 186.295 94.0357 184.132 96.6599C181.969 99.284 180.925 102.653 181.224 106.04L187 169.111L217.634 169.187L213.582 119.486C213.57 119.343 213.615 119.202 213.707 119.092C213.798 118.982 213.929 118.912 214.072 118.898L224.26 117.879C226.469 117.658 228.599 116.935 230.485 115.765C232.372 114.594 233.966 113.008 235.145 111.127C236.324 109.246 237.057 107.12 237.288 104.912C237.518 102.704 237.241 100.473 236.476 98.3887L229.354 78.9692C229.305 78.8335 229.311 78.6839 229.372 78.5532C229.433 78.4225 229.544 78.3212 229.679 78.2715C229.815 78.2219 229.964 78.2278 230.095 78.2881C230.226 78.3484 230.328 78.4582 230.379 78.5933L237.501 98.0129C238.323 100.253 238.621 102.652 238.373 105.025C238.125 107.399 237.337 109.684 236.069 111.706C234.802 113.728 233.089 115.433 231.061 116.691C229.033 117.949 226.743 118.727 224.368 118.965L214.714 119.931L218.771 169.69C218.777 169.765 218.767 169.84 218.743 169.912C218.718 169.983 218.679 170.049 218.628 170.104C218.577 170.159 218.515 170.204 218.446 170.234C218.377 170.264 218.302 170.28 218.227 170.28L218.227 170.28Z" fill="#212121"/>
<path d="M237.421 63.341C237.324 63.3409 237.229 63.3151 237.146 63.2662C237.062 63.2173 236.993 63.1472 236.946 63.0629C236.898 62.9786 236.874 62.8832 236.876 62.7865C236.877 62.6898 236.904 62.5953 236.954 62.5126L241.23 55.4502C241.305 55.3264 241.426 55.2374 241.567 55.2029C241.708 55.1684 241.856 55.1911 241.98 55.266C242.104 55.341 242.193 55.4621 242.227 55.6027C242.262 55.7432 242.239 55.8918 242.164 56.0156L237.888 63.0779C237.84 63.1583 237.771 63.2248 237.689 63.2708C237.607 63.3169 237.515 63.3411 237.421 63.341Z" fill="#212121"/>
<path fill-rule="evenodd" clip-rule="evenodd" d="M211.552 31.9586C212.519 32.9572 213.246 34.164 213.674 35.4864C214.103 36.8088 214.224 38.2119 214.027 39.5881C213.83 40.9643 213.32 42.2771 212.537 43.426C211.754 44.5748 210.718 45.5293 209.509 46.2163L209.869 51.702C209.972 53.3281 209.43 54.9293 208.361 56.1595C207.293 57.3897 205.783 58.15 204.158 58.2759C202.533 58.4019 200.924 57.8835 199.678 56.8327C198.433 55.782 197.651 54.2833 197.502 52.6608L196.524 41.6737L194.435 29.4847V26.5742L200.804 23.4818L207.9 24.2094" fill="white"/>
<path d="M203.668 58.8449C201.982 58.8529 200.356 58.2259 199.112 57.0888C197.869 55.9516 197.1 54.3878 196.958 52.709L195.982 41.7442L193.898 29.5769C193.893 29.5464 193.89 29.5156 193.89 29.4847V26.5742C193.89 26.4717 193.919 26.3713 193.973 26.2845C194.028 26.1976 194.105 26.1278 194.197 26.083L200.566 22.9906C200.657 22.9458 200.759 22.9278 200.86 22.9386L207.956 23.6662C208.028 23.6725 208.098 23.6931 208.162 23.7267C208.227 23.7603 208.283 23.8064 208.329 23.8622C208.376 23.9179 208.41 23.9823 208.431 24.0516C208.452 24.1208 208.459 24.1936 208.452 24.2656C208.444 24.3376 208.423 24.4074 208.388 24.4709C208.354 24.5345 208.307 24.5905 208.25 24.6358C208.194 24.681 208.129 24.7146 208.059 24.7345C207.99 24.7544 207.917 24.7603 207.845 24.7519L200.903 24.0404L194.981 26.9158V29.4383L197.062 41.5816C197.065 41.5962 197.067 41.6107 197.068 41.6255L198.045 52.6126C198.164 54.0194 198.809 55.3296 199.852 56.2823C200.894 57.2351 202.257 57.7604 203.669 57.7536C203.793 57.7536 203.916 57.7498 204.042 57.7418C205.537 57.6415 206.931 56.954 207.921 55.8294C208.911 54.7047 209.416 53.2342 209.325 51.7389L208.966 46.2528C208.959 46.1507 208.981 46.0488 209.03 45.9587C209.078 45.8687 209.151 45.7941 209.24 45.7435C210.377 45.0978 211.35 44.2007 212.086 43.1209C212.822 42.041 213.302 40.8071 213.487 39.5136C213.673 38.2201 213.56 36.9013 213.157 35.6582C212.754 34.4151 212.072 33.2806 211.163 32.3417C211.064 32.2378 211.01 32.0991 211.012 31.9557C211.015 31.8122 211.074 31.6756 211.176 31.5752C211.279 31.4749 211.417 31.419 211.56 31.4197C211.704 31.4203 211.841 31.4774 211.943 31.5786C212.949 32.6159 213.709 33.8657 214.167 35.2357C214.625 36.6057 214.77 38.0611 214.591 39.4946C214.412 40.928 213.914 42.3031 213.132 43.5183C212.351 44.7335 211.307 45.758 210.077 46.5162L210.414 51.6678C210.524 53.4519 209.922 55.2069 208.742 56.5493C207.561 57.8918 205.897 58.7126 204.113 58.8325C203.964 58.8403 203.814 58.8449 203.668 58.8449Z" fill="#212121"/>
<path fill-rule="evenodd" clip-rule="evenodd" d="M194.974 31.2853C195.008 30.1964 195.257 29.1249 195.706 28.1324C196.155 27.1398 196.796 26.2457 197.592 25.5012C198.387 24.7568 199.322 24.1767 200.343 23.7943C201.363 23.4118 202.449 23.2345 203.538 23.2725C204.627 23.3105 205.698 23.5631 206.689 24.0158C207.68 24.4684 208.572 25.1123 209.314 25.9104C210.056 26.7085 210.632 27.6451 211.011 28.6666C211.39 29.688 211.564 30.7742 211.522 31.8629" fill="white"/>
<path d="M211.522 32.4086H211.503C211.358 32.4036 211.221 32.3414 211.123 32.2356C211.024 32.1299 210.971 31.9893 210.976 31.8447C211.014 30.8287 210.851 29.8153 210.496 28.8625C210.141 27.9096 209.602 27.036 208.91 26.2917C208.217 25.5474 207.384 24.947 206.459 24.5249C205.534 24.1028 204.535 23.8672 203.518 23.8317C202.502 23.7963 201.489 23.9615 200.536 24.3181C199.584 24.6746 198.711 25.2155 197.968 25.9096C197.225 26.6038 196.627 27.4377 196.206 28.3635C195.786 29.2893 195.553 30.2889 195.52 31.305C195.517 31.3767 195.5 31.4471 195.471 31.5124C195.441 31.5776 195.399 31.6364 195.346 31.6853C195.294 31.7342 195.232 31.7723 195.165 31.7974C195.098 31.8226 195.026 31.8342 194.955 31.8317C194.883 31.8292 194.812 31.8126 194.747 31.7829C194.682 31.7532 194.623 31.7109 194.574 31.6584C194.525 31.606 194.487 31.5444 194.462 31.4773C194.437 31.4101 194.425 31.3386 194.428 31.267C194.519 28.9356 195.531 26.7354 197.241 25.1478C198.952 23.5603 201.221 22.7147 203.554 22.7962C205.886 22.8776 208.091 23.8794 209.687 25.5823C211.282 27.2852 212.138 29.5506 212.066 31.8827C212.061 32.0237 212.002 32.1573 211.9 32.2553C211.799 32.3534 211.663 32.4083 211.522 32.4086Z" fill="#212121"/>
<path d="M206.843 33.979C206.714 33.9791 206.589 33.9334 206.49 33.8501C206.391 33.7667 206.326 33.6511 206.304 33.5237C206.283 33.3964 206.307 33.2656 206.373 33.1545C206.439 33.0435 206.542 32.9595 206.664 32.9174L208.364 32.3295L205.8 29.0733C205.711 28.9596 205.67 28.815 205.687 28.6712C205.704 28.5275 205.778 28.3965 205.891 28.307C206.005 28.2174 206.15 28.1768 206.294 28.1939C206.437 28.211 206.569 28.2845 206.658 28.3983L209.697 32.2576C209.75 32.326 209.787 32.4062 209.804 32.4917C209.82 32.5771 209.816 32.6653 209.792 32.7488C209.767 32.8323 209.723 32.9088 209.663 32.9718C209.603 33.0347 209.529 33.0825 209.446 33.1109L207.022 33.9495C206.964 33.9692 206.904 33.9792 206.843 33.979Z" fill="#212121"/>
<path d="M203.703 32.3207C204.217 32.1234 204.474 31.5475 204.277 31.0343C204.08 30.5212 203.503 30.2652 202.989 30.4625C202.475 30.6598 202.218 31.2357 202.415 31.7488C202.612 32.2619 203.189 32.518 203.703 32.3207Z" fill="#212121"/>
<path d="M210.578 30.2982C211.092 30.1009 211.349 29.525 211.152 29.0119C210.955 28.4987 210.378 28.2427 209.864 28.44C209.35 28.6373 209.093 29.2132 209.29 29.7263C209.487 30.2395 210.063 30.4955 210.578 30.2982Z" fill="#212121"/>
<path d="M197.22 34.2648C197.345 34.3271 197.712 34.3732 198.321 34.4032L196.918 27.689L204.475 25.3412C205.917 25.7445 207.453 25.6421 208.829 25.051C209.872 24.6092 210.785 23.9089 211.483 23.0163C212.181 22.1237 212.639 21.0682 212.816 19.9493C212.992 18.8304 212.881 17.685 212.492 16.6211C212.103 15.5572 211.45 14.6098 210.593 13.8684C209.737 13.1269 208.705 12.6157 207.596 12.3831C206.488 12.1505 205.338 12.2041 204.255 12.5388C203.173 12.8735 202.194 13.4783 201.41 14.2962C200.626 15.1141 200.063 16.1181 199.775 17.2136C198.703 16.8718 197.556 16.8416 196.467 17.1268C195.379 17.4119 194.394 18.0005 193.627 18.824C192.86 19.6475 192.343 20.672 192.137 21.7779C191.93 22.8838 192.043 24.0256 192.461 25.0701C191.726 25.3052 189.37 27.8351 191.075 33.7782C191.176 34.1305 191.299 34.4763 191.442 34.8136C192.75 34.108 194.93 33.1297 197.22 34.2648Z" fill="#707FDA"/>
<path fill-rule="evenodd" clip-rule="evenodd" d="M197.706 33.9435C197.069 33.2623 196.254 32.773 195.353 32.5308C194.452 32.2887 193.501 32.3033 192.608 32.5731C191.715 32.8429 190.915 33.357 190.299 34.0575C189.683 34.7579 189.276 35.6167 189.122 36.5367C188.969 37.4566 189.076 38.4012 189.432 39.2634C189.787 40.1257 190.377 40.8713 191.134 41.416C191.892 41.9606 192.786 42.2826 193.717 42.3455C194.648 42.4085 195.578 42.2098 196.401 41.772C196.728 41.6009 197.032 41.3904 197.308 41.1453" fill="white"/>
<path d="M194.047 42.9103C193.501 42.9099 192.958 42.829 192.436 42.6702C191.74 42.4611 191.093 42.1157 190.532 41.6541C189.971 41.1925 189.508 40.6239 189.169 39.9815C188.547 38.7961 188.375 37.4262 188.683 36.1238C188.992 34.8215 189.761 33.6745 190.848 32.8939C191.936 32.1133 193.269 31.7518 194.602 31.8758C195.935 31.9999 197.178 32.6011 198.103 33.5689C198.202 33.6742 198.255 33.8146 198.251 33.9593C198.247 34.104 198.185 34.2411 198.08 34.3404C197.975 34.4397 197.834 34.4931 197.689 34.4889C197.545 34.4846 197.408 34.4231 197.308 34.3178C196.565 33.5416 195.567 33.0597 194.496 32.9607C193.426 32.8616 192.356 33.1522 191.483 33.7789C190.61 34.4055 189.993 35.3262 189.744 36.3717C189.496 37.4171 189.634 38.517 190.132 39.4692C190.406 39.9843 190.779 40.4401 191.23 40.8106C191.681 41.1811 192.201 41.4588 192.76 41.628C193.318 41.7972 193.905 41.8544 194.486 41.7964C195.067 41.7385 195.63 41.5664 196.145 41.2901C196.432 41.1397 196.699 40.9548 196.942 40.7397C196.995 40.6907 197.057 40.6528 197.125 40.6281C197.193 40.6034 197.265 40.5924 197.337 40.5957C197.409 40.5991 197.48 40.6167 197.545 40.6476C197.611 40.6785 197.669 40.7221 197.717 40.7757C197.766 40.8294 197.803 40.8921 197.827 40.9603C197.851 41.0284 197.861 41.1006 197.857 41.1727C197.852 41.2448 197.834 41.3154 197.802 41.3802C197.771 41.4451 197.726 41.5031 197.672 41.5508C197.364 41.8256 197.023 42.0617 196.657 42.2538C195.854 42.6834 194.957 42.9089 194.047 42.9103Z" fill="#212121"/>
<path d="M192.595 39.0915C192.45 39.0953 192.31 39.0414 192.205 38.9418C192.1 38.8422 192.038 38.7049 192.035 38.5601C192.031 38.4154 192.085 38.2751 192.184 38.17C192.284 38.065 192.421 38.0039 192.566 38L194.526 37.8951L191.969 35.8919C191.859 35.8013 191.789 35.6714 191.774 35.5298C191.759 35.3883 191.799 35.2463 191.887 35.1343C191.975 35.0222 192.103 34.9489 192.244 34.93C192.385 34.9111 192.528 34.9481 192.643 35.0332L196.342 37.9336C196.43 38.0022 196.494 38.0957 196.527 38.2018C196.56 38.3079 196.56 38.4215 196.526 38.5274C196.493 38.6334 196.428 38.7266 196.34 38.7946C196.252 38.8626 196.146 38.9022 196.035 38.9081L192.624 39.09C192.615 39.0915 192.605 39.0915 192.595 39.0915Z" fill="#212121"/>
<path d="M208.114 37.566C207.624 37.5655 207.139 37.4793 206.679 37.3113C206.612 37.2868 206.55 37.2492 206.497 37.2008C206.444 37.1524 206.402 37.094 206.371 37.0291C206.341 36.9641 206.324 36.8938 206.321 36.8222C206.318 36.7506 206.329 36.6791 206.353 36.6118C206.378 36.5444 206.415 36.4826 206.464 36.4297C206.512 36.3769 206.571 36.3341 206.636 36.3039C206.701 36.2736 206.771 36.2564 206.842 36.2533C206.914 36.2502 206.986 36.2612 207.053 36.2857C207.736 36.5373 208.486 36.5371 209.168 36.2854C209.851 36.0336 210.421 35.5467 210.777 34.9121C210.811 34.8488 210.858 34.7929 210.915 34.7478C210.971 34.7027 211.036 34.6693 211.106 34.6494C211.175 34.6296 211.248 34.6237 211.319 34.6322C211.391 34.6406 211.461 34.6632 211.524 34.6987C211.586 34.7341 211.642 34.7817 211.686 34.8387C211.731 34.8957 211.763 34.9609 211.782 35.0306C211.801 35.1003 211.806 35.173 211.797 35.2447C211.788 35.3163 211.764 35.3854 211.728 35.4478C211.368 36.0902 210.844 36.625 210.208 36.9973C209.573 37.3696 208.85 37.5659 208.114 37.566Z" fill="#212121"/>
<path d="M204.263 63.5454C201.379 63.5451 198.602 62.4503 196.494 60.4822C194.385 58.5141 193.103 55.8193 192.905 52.9423C192.895 52.7979 192.943 52.6555 193.038 52.5463C193.133 52.4371 193.267 52.3702 193.412 52.3602C193.556 52.3502 193.699 52.398 193.808 52.4931C193.917 52.5881 193.984 52.7226 193.994 52.867C194.097 54.3574 194.523 55.8076 195.243 57.1169C195.963 58.4262 196.958 59.5634 198.162 60.4497C199.365 61.3359 200.746 61.95 202.21 62.2493C203.674 62.5487 205.186 62.5261 206.64 62.1832C208.095 61.8403 209.457 61.1853 210.633 60.2635C211.809 59.3418 212.77 58.1753 213.451 56.8451C214.131 55.5149 214.514 54.0527 214.572 52.5599C214.631 51.067 214.364 49.5793 213.79 48.1998C213.735 48.0661 213.735 47.9159 213.79 47.7821C213.845 47.6483 213.952 47.542 214.085 47.4865C214.219 47.431 214.369 47.4309 214.503 47.4862C214.637 47.5416 214.743 47.6478 214.799 47.7815C215.519 49.5134 215.801 51.3965 215.618 53.2633C215.436 55.1302 214.795 56.923 213.752 58.4827C212.71 60.0424 211.298 61.3205 209.643 62.2037C207.988 63.0868 206.14 63.5476 204.264 63.5451L204.263 63.5454Z" fill="#212121"/>
<path d="M189.109 92.4241C188.964 92.4241 188.825 92.3667 188.723 92.2643C188.62 92.162 188.563 92.0232 188.563 91.8784V73.6878C188.563 73.5431 188.62 73.4043 188.723 73.3019C188.825 73.1996 188.964 73.1421 189.109 73.1421C189.254 73.1421 189.392 73.1996 189.495 73.3019C189.597 73.4043 189.655 73.5431 189.655 73.6878V91.8784C189.655 92.0232 189.597 92.162 189.495 92.2643C189.392 92.3667 189.254 92.4241 189.109 92.4241Z" fill="#212121"/>
<path d="M343.534 186.595C343.506 186.599 343.477 186.601 343.449 186.601L29.2213 186.619C29.0757 186.619 28.9361 186.561 28.8333 186.459C28.7305 186.357 28.6728 186.218 28.6731 186.073C28.6733 185.928 28.7314 185.789 28.8345 185.687C28.9376 185.584 29.0774 185.527 29.223 185.527L343.451 185.509C343.589 185.509 343.723 185.56 343.824 185.654C343.926 185.747 343.988 185.875 343.999 186.013C344.009 186.15 343.967 186.286 343.881 186.394C343.795 186.502 343.671 186.574 343.534 186.595Z" fill="#212121"/>
</g>
<defs>
<clipPath id="clip0">
<rect width="348.444" height="196" fill="white"/>
</clipPath>
</defs>
</svg>
