<svg width="60" height="60" viewBox="0 0 60 60" fill="none" xmlns="http://www.w3.org/2000/svg">
<rect width="60" height="60" rx="30" fill="#F0F9F6"/>
<path d="M31.5001 15C30.7936 15 30.2035 15.5401 30.1465 16.2451L30.1231 16.5293C30.119 16.5788 30.1395 16.6215 30.1407 16.6699C28.9652 16.9433 27.9294 17.5586 27.1319 18.4102C27.09 18.3846 27.0631 18.3436 27.0176 18.3223L26.7627 18.2021C26.1237 17.9006 25.3589 18.138 25.0049 18.75C24.6509 19.362 24.8258 20.141 25.4063 20.543L25.6407 20.707C25.6856 20.7381 25.7372 20.7436 25.7842 20.7686C25.617 21.3201 25.5 21.8939 25.5 22.5C25.5 23.1061 25.617 23.6799 25.7842 24.2314C25.7372 24.2564 25.6856 24.2619 25.6407 24.293L25.4063 24.4541C24.8258 24.8576 24.6509 25.638 25.0049 26.25C25.3589 26.862 26.1237 27.0994 26.7627 26.7979L27.0176 26.6777C27.063 26.6563 27.0901 26.6154 27.1319 26.5898C27.9288 27.4407 28.9634 28.0564 30.1377 28.3301C30.1365 28.3785 30.1161 28.4212 30.1202 28.4707L30.1465 28.7549C30.205 29.4599 30.7936 30 31.5001 30C32.2066 30 32.7966 29.4599 32.8536 28.7549L32.877 28.4707C32.8811 28.4212 32.8606 28.3785 32.8594 28.3301C34.0349 28.0567 35.0707 27.4414 35.8682 26.5898C35.9101 26.6155 35.937 26.6563 35.9825 26.6777L36.2374 26.8008C36.8764 27.1023 37.6412 26.8649 37.9952 26.2529C38.3492 25.6409 38.1743 24.8605 37.5938 24.457L37.3594 24.293C37.3145 24.2619 37.2629 24.2564 37.2159 24.2314C37.3831 23.6799 37.5001 23.1061 37.5001 22.5C37.5001 21.8939 37.3831 21.3201 37.2159 20.7686C37.2629 20.7436 37.3145 20.7381 37.3594 20.707L37.5938 20.5459C38.1743 20.1424 38.3492 19.362 37.9952 18.75C37.6412 18.138 36.8764 17.9006 36.2374 18.2021L35.9825 18.3223C35.9371 18.3437 35.91 18.3846 35.8682 18.4102C35.0713 17.5593 34.0367 16.9436 32.8624 16.6699C32.8636 16.6215 32.884 16.5788 32.8799 16.5293L32.8536 16.2451C32.7951 15.5401 32.2066 15 31.5001 15ZM31.5001 20.25C32.7421 20.25 33.7501 21.258 33.7501 22.5C33.7501 23.742 32.7421 24.75 31.5001 24.75C30.258 24.75 29.25 23.742 29.25 22.5C29.25 21.258 30.258 20.25 31.5001 20.25ZM42.879 30C42.336 30 41.793 30.2071 41.379 30.6211L34.5001 37.5H28.5C28.086 37.5 27.75 37.164 27.75 36.75C27.75 36.336 28.086 36 28.5 36H32.2501C33.4876 36 34.5001 34.9875 34.5001 33.75C34.5001 32.5125 33.4876 31.5 32.2501 31.5H24.9844C23.3944 31.5 21.8701 32.1328 20.7451 33.2578L15 39L21 45L24 42H34.7579C35.5529 42 36.3165 41.6836 36.879 41.1211L44.379 33.6211C45.207 32.7931 45.207 31.4491 44.379 30.6211C43.965 30.2071 43.422 30 42.879 30Z" fill="#6A9586"/>
</svg>
