<svg width="1440" height="1442" viewBox="0 0 1440 1442" fill="none" xmlns="http://www.w3.org/2000/svg">
<path opacity="0.1" d="M57.949 1452.81C58.2605 1424.39 61.0645 1401.1 63.2454 1384.79C70.0995 1334.25 86.9234 1272.99 133.033 1137.2C152.038 1081.07 161.073 1033.55 163.566 989.999C176.651 766.863 130.541 637.361 113.405 469.194C102.19 361.819 109.044 203.202 204.068 1.49548C135.837 1.49548 67.9187 1.49548 -0.311523 1.49548C2.99811e-05 572.61 0.000244141 1144.19 0.000244141 1715.3C42.9946 1715.3 85.6943 1715.3 129 1715.3C67.6242 1604.9 57.0143 1513.36 57.949 1452.81Z" fill="#B8B8FF"/>
<path opacity="0.1" d="M976 0.348877C1130.84 0.348877 1285.68 0.348877 1440.53 0.348877C1440.53 224.183 1440.53 447.784 1440.53 671.618C1412.8 644.832 1373.23 600.112 1349.55 539.321C1298.15 407.955 1380.4 352.52 1322.76 246.776C1285.06 177.599 1211.85 131.714 1127.1 78.6092C1068.53 41.8082 1014.63 16.6531 976 0.348877Z" fill="#B8B8FF"/>
<path opacity="0.1" d="M1330.55 767.58C1300.64 637.146 1388.5 613.156 1397.53 438.933C1405.01 296.154 1349.55 237.459 1397.53 94.4476C1411.24 53.4541 1428.38 20.8456 1440.53 0.348877C1440.53 317.35 1440.53 634.118 1440.53 951.119C1399.71 910.592 1349.24 848.635 1330.55 767.58Z" fill="#B8B8FF"/>
<path opacity="0.1" d="M0 1.49524C0 572.61 0 1144.19 0 1715.3C13.0852 1715.3 25.9148 1715.3 39 1715.3C64.8589 1655.91 97.5162 1563.68 108.109 1449.78C119.325 1329.83 96.27 1294.66 69.788 1071.05C54.5218 943.648 39.5673 816.009 50.1601 655.063C58.2605 532.315 75.3959 481.306 86.3003 389.536C90.3505 355.53 92.5314 324.319 94.7122 285.189C98.1393 216.245 98.7624 119.352 84.7425 1.02942C56.0796 1.49524 28.0398 1.49524 0 1.49524Z" fill="#B8B8FF"/>
</svg>
