<svg width="1440" height="932" viewBox="0 0 1440 932" fill="none" xmlns="http://www.w3.org/2000/svg">
<g clip-path="url(#clip0_184_62571)">
<path opacity="0.1" d="M58.2605 352.058C58.572 390.061 61.376 421.21 63.5569 443.015C70.4111 510.61 87.2349 592.534 133.345 774.137C152.35 849.208 161.385 912.754 163.877 971.004C176.962 1269.42 130.852 1442.61 113.717 1667.51C102.501 1811.11 109.355 2023.24 204.379 2293C136.149 2293 68.2302 2293 0 2293C0.311553 1529.21 0.311768 764.792 0.311768 1C43.3061 1 86.0058 1 129.312 1C67.9357 148.65 57.3258 271.069 58.2605 352.058Z" fill="#B8B8FF"/>
<path opacity="0.1" d="M1039.52 53.5776C1148.25 127.091 1130.81 197.49 1219.91 238.296C1284.4 267.888 1333.01 249.198 1400.3 302.776C1418.99 317.728 1432.08 332.68 1440.49 342.959C1440.49 228.639 1440.49 114.32 1440.49 0C1268.2 0 1095.6 0 923.312 0C952.599 8.41044 995.281 23.6738 1039.52 53.5776Z" fill="#B8B8FF"/>
<path opacity="0.1" d="M1068.18 115.877C1091.86 150.453 1121.77 144.535 1284.4 200.605C1308.08 208.703 1353.26 224.59 1408.4 253.871C1422.11 261.035 1433.33 267.577 1440.49 271.937C1440.49 181.292 1440.49 90.9574 1440.49 0.311523C1312.44 0.311523 1184.08 0.311523 1056.03 0.311523C1042.33 62.2996 1054.79 96.5643 1068.18 115.877Z" fill="#B8B8FF"/>
<path opacity="0.1" d="M0.3125 2293C0.3125 1529.21 0.3125 764.792 0.3125 1C13.3977 1 26.2273 1 39.3125 1C65.1714 80.4319 97.8287 203.785 108.422 356.107C119.637 516.529 96.5825 563.565 70.1005 862.603C54.8343 1032.99 39.8798 1203.69 50.4726 1418.94C58.573 1583.1 75.7084 1651.32 86.6128 1774.05C90.663 1819.52 92.8439 1861.26 95.0247 1913.6C98.4518 2005.8 99.0749 2135.38 85.055 2293.62C56.3921 2293 28.3523 2293 0.3125 2293Z" fill="#B8B8FF"/>
</g>
<defs>
<clipPath id="clip0_184_62571">
<rect width="1440" height="932" fill="white"/>
</clipPath>
</defs>
</svg>
