<svg width="349" height="196" viewBox="0 0 349 196" fill="none" xmlns="http://www.w3.org/2000/svg">
<g clip-path="url(#clip0)">
<path d="M289.236 185.927C315.471 185.927 336.738 164.66 336.738 138.425C336.738 112.19 315.471 90.9229 289.236 90.9229C263.001 90.9229 241.734 112.19 241.734 138.425C241.734 164.66 263.001 185.927 289.236 185.927Z" fill="white"/>
<path d="M289.236 186.472C279.733 186.472 270.444 183.655 262.542 178.375C254.641 173.096 248.483 165.592 244.846 156.812C241.21 148.033 240.258 138.372 242.112 129.052C243.966 119.731 248.542 111.17 255.262 104.451C264.272 95.44 276.493 90.3779 289.236 90.3779C301.979 90.3779 314.2 95.44 323.211 104.451C332.221 113.461 337.283 125.682 337.283 138.425C337.283 151.168 332.221 163.389 323.211 172.4C318.759 176.875 313.465 180.424 307.633 182.839C301.801 185.255 295.548 186.49 289.236 186.472ZM289.236 91.4679C263.344 91.4679 242.279 112.533 242.279 138.425C242.279 164.317 263.344 185.382 289.236 185.382C315.128 185.382 336.193 164.317 336.193 138.425C336.193 112.533 315.128 91.4679 289.236 91.4679Z" fill="#212121"/>
<path d="M289.236 109.405V138.425L315.824 153.665" fill="white"/>
<path d="M315.824 154.211C315.729 154.211 315.636 154.186 315.553 154.138L288.965 138.898C288.882 138.85 288.813 138.781 288.765 138.698C288.717 138.615 288.691 138.521 288.691 138.425V109.405C288.691 109.261 288.749 109.122 288.851 109.02C288.953 108.918 289.092 108.86 289.236 108.86C289.381 108.86 289.519 108.918 289.621 109.02C289.724 109.122 289.781 109.261 289.781 109.405V138.11L316.095 153.192C316.199 153.252 316.281 153.345 316.327 153.456C316.373 153.567 316.381 153.69 316.35 153.806C316.319 153.922 316.25 154.024 316.155 154.097C316.06 154.17 315.943 154.21 315.823 154.21L315.824 154.211Z" fill="#212121"/>
<path d="M47.9059 185.928C47.7629 185.928 47.6258 185.871 47.5246 185.77C47.4235 185.669 47.3667 185.532 47.3667 185.389V87.9621C47.3667 87.819 47.4235 87.6819 47.5246 87.5807C47.6258 87.4796 47.7629 87.4228 47.9059 87.4228L191.65 87.3838C191.793 87.3838 191.93 87.4406 192.031 87.5417C192.132 87.6429 192.189 87.78 192.189 87.9231C192.189 88.0661 192.132 88.2032 192.031 88.3044C191.93 88.4055 191.793 88.4623 191.65 88.4623L48.4451 88.5013V185.389C48.4451 185.532 48.3883 185.669 48.2872 185.77C48.1861 185.871 48.0489 185.928 47.9059 185.928Z" fill="#212121"/>
<path fill-rule="evenodd" clip-rule="evenodd" d="M137.866 46.0448L193.286 129.658C193.509 129.994 193.854 130.23 194.248 130.315C194.642 130.4 195.054 130.328 195.395 130.114L213.742 118.613C213.917 118.504 214.068 118.36 214.186 118.191C214.305 118.023 214.389 117.832 214.432 117.63C214.476 117.428 214.479 117.22 214.441 117.017C214.404 116.814 214.326 116.621 214.212 116.449L158.845 32.4056C158.76 32.2783 158.655 32.1651 158.535 32.0702L127.761 7.70842C127.729 7.68277 127.689 7.668 127.648 7.6662C127.607 7.66441 127.566 7.67568 127.531 7.69842C127.497 7.72116 127.471 7.7542 127.456 7.79284C127.441 7.83148 127.439 7.87374 127.45 7.9136L137.674 45.6205C137.715 45.7713 137.78 45.9145 137.866 46.0448Z" fill="white"/>
<path d="M194.57 130.943C194.218 130.942 193.872 130.854 193.562 130.687C193.252 130.52 192.989 130.278 192.796 129.983L137.376 46.3695C137.255 46.1868 137.164 45.9859 137.107 45.7744L126.883 8.06767C126.839 7.9082 126.847 7.73912 126.906 7.58452C126.964 7.42993 127.07 7.29772 127.208 7.20674C127.345 7.11577 127.508 7.07068 127.673 7.0779C127.838 7.08512 127.997 7.14429 128.126 7.24696L158.9 31.6093C159.068 31.7425 159.215 31.9014 159.334 32.0801L214.703 116.125C214.859 116.362 214.967 116.629 215.019 116.909C215.071 117.189 215.067 117.477 215.007 117.755C214.946 118.034 214.831 118.297 214.667 118.53C214.503 118.763 214.295 118.961 214.054 119.112L195.708 130.613C195.367 130.828 194.973 130.942 194.57 130.943ZM138.356 45.7198L193.776 129.332C193.913 129.542 194.127 129.689 194.372 129.742C194.616 129.795 194.872 129.749 195.083 129.615L213.43 118.114C213.538 118.047 213.632 117.958 213.705 117.853C213.779 117.748 213.831 117.63 213.858 117.505C213.885 117.38 213.887 117.251 213.864 117.125C213.84 116.999 213.792 116.88 213.722 116.773L158.354 32.7295C158.304 32.6544 158.242 32.5877 158.171 32.5316L128.329 8.90819L138.242 45.4662C138.266 45.5563 138.304 45.642 138.356 45.7198Z" fill="#212121"/>
<path d="M200.193 127.383C200.095 127.383 199.999 127.359 199.913 127.312C199.826 127.265 199.753 127.198 199.7 127.115L144.392 41.9417C144.349 41.8769 144.32 41.8042 144.305 41.7279C144.29 41.6516 144.291 41.5731 144.307 41.4971C144.322 41.421 144.353 41.3488 144.397 41.2846C144.441 41.2205 144.497 41.1657 144.562 41.1233C144.627 41.081 144.7 41.052 144.776 41.038C144.852 41.024 144.931 41.0252 145.007 41.0417C145.083 41.0581 145.154 41.0895 145.218 41.1339C145.282 41.1783 145.336 41.2349 145.378 41.3004L200.685 126.474C200.742 126.563 200.775 126.666 200.779 126.771C200.783 126.877 200.759 126.982 200.709 127.075C200.658 127.168 200.584 127.246 200.493 127.3C200.402 127.354 200.298 127.383 200.193 127.383H200.193Z" fill="#212121"/>
<path d="M207.835 122.48C207.737 122.48 207.64 122.456 207.554 122.409C207.468 122.362 207.395 122.294 207.341 122.212L152.033 36.8423C151.991 36.7775 151.961 36.7048 151.947 36.6285C151.932 36.5523 151.933 36.4739 151.949 36.3978C151.965 36.3218 151.995 36.2497 152.039 36.1856C152.083 36.1215 152.139 36.0668 152.204 36.0245C152.269 35.9822 152.342 35.9533 152.418 35.9393C152.495 35.9253 152.573 35.9266 152.649 35.9431C152.725 35.9595 152.796 35.9909 152.86 36.0352C152.924 36.0796 152.978 36.1362 153.02 36.2017L208.327 121.571C208.385 121.66 208.417 121.763 208.421 121.869C208.426 121.974 208.401 122.079 208.351 122.172C208.3 122.265 208.226 122.343 208.135 122.397C208.044 122.451 207.941 122.48 207.835 122.48Z" fill="#212121"/>
<path fill-rule="evenodd" clip-rule="evenodd" d="M129.662 17.4362L135.907 13.3758L129.19 8.40312C129.028 8.28298 128.833 8.21595 128.631 8.21121C128.429 8.20646 128.231 8.26423 128.063 8.3766C127.895 8.48898 127.766 8.65049 127.694 8.83904C127.621 9.02758 127.608 9.23397 127.657 9.42999L129.662 17.4362Z" fill="#212121"/>
<path d="M158.295 31.6819L137.261 45.3574L137.901 46.3443L158.935 32.6688L158.295 31.6819Z" fill="#212121"/>
<path d="M115.962 87.9219H59.6671L55.3161 59.2611C55.2204 58.6318 55.2615 57.9892 55.4367 57.3773C55.6119 56.7654 55.917 56.1987 56.3312 55.7159C56.7454 55.2331 57.2588 54.8457 57.8363 54.5803C58.4138 54.3148 59.0418 54.1775 59.6772 54.1777H97.5078C98.5629 54.1771 99.5832 54.5555 100.384 55.2443C101.184 55.9331 101.711 56.8865 101.87 57.9316L105.948 84.8101H113.546C114.123 84.81 114.678 85.0244 115.106 85.4117C115.533 85.7989 115.802 86.3313 115.86 86.9058L115.962 87.9219Z" fill="white"/>
<path d="M115.962 88.4724H59.6671C59.5358 88.4724 59.4089 88.4252 59.3093 88.3394C59.2097 88.2537 59.1441 88.135 59.1244 88.005L54.7731 59.3442C54.6655 58.6367 54.7118 57.9143 54.9087 57.2264C55.1056 56.5385 55.4485 55.9013 55.914 55.3585C56.3795 54.8157 56.9566 54.38 57.6058 54.0813C58.2549 53.7827 58.9608 53.628 59.6752 53.628H97.5099C98.6975 53.6221 99.8473 54.0458 100.748 54.8214C101.648 55.5969 102.239 56.6721 102.412 57.8493L106.419 84.2601H113.546C114.259 84.2582 114.947 84.5226 115.476 85.0016C116.005 85.4807 116.336 86.14 116.406 86.8508L116.508 87.8671C116.516 87.9436 116.508 88.0209 116.484 88.0939C116.46 88.167 116.421 88.2342 116.369 88.2912C116.318 88.3482 116.255 88.3938 116.185 88.425C116.115 88.4562 116.039 88.4723 115.962 88.4722V88.4724ZM60.139 87.3721H115.355L115.313 86.9612C115.27 86.522 115.065 86.1146 114.739 85.8186C114.412 85.5226 113.987 85.3592 113.546 85.3604H105.947C105.816 85.3604 105.689 85.3132 105.589 85.2275C105.49 85.1418 105.424 85.0232 105.404 84.8932L101.326 58.0147C101.192 57.0982 100.732 56.2612 100.03 55.6574C99.3292 55.0536 98.4341 54.7237 97.5095 54.7283H59.6754C59.1192 54.7283 58.5696 54.8486 58.0642 55.0811C57.5588 55.3137 57.1095 55.6528 56.7471 56.0755C56.3847 56.4981 56.1177 56.9942 55.9644 57.5298C55.8111 58.0653 55.7751 58.6278 55.859 59.1786L60.139 87.3721Z" fill="#212121"/>
<path d="M98.4919 59.949L102.382 83.8879H63.0679L59.2636 60.7045C59.2086 60.3697 59.2271 60.0268 59.3176 59.6998C59.4081 59.3728 59.5686 59.0694 59.7878 58.8107C60.0071 58.552 60.2799 58.3442 60.5873 58.2017C60.8947 58.0592 61.2294 57.9854 61.5682 57.9854H96.1869C96.7412 57.9854 97.2775 58.1829 97.6997 58.5427C98.122 58.9024 98.4028 59.4009 98.4919 59.949Z" fill="white"/>
<path d="M102.382 84.4384H63.0676C62.9375 84.4383 62.8115 84.392 62.7123 84.3075C62.6131 84.2231 62.5471 84.1061 62.526 83.9774L58.7217 60.7942C58.6538 60.3806 58.6765 59.9571 58.7883 59.5532C58.9001 59.1493 59.0983 58.7745 59.3691 58.455C59.6399 58.1355 59.9768 57.8788 60.3566 57.7027C60.7363 57.5267 61.1497 57.4355 61.5681 57.4356H96.1869C96.8721 57.4334 97.5356 57.6766 98.0576 58.1214C98.5796 58.5661 98.9259 59.183 99.0338 59.861L102.925 83.7999C102.938 83.8786 102.933 83.9591 102.912 84.0359C102.891 84.1127 102.853 84.1839 102.801 84.2447C102.75 84.3054 102.686 84.3542 102.613 84.3876C102.541 84.4211 102.462 84.4384 102.383 84.4384H102.382ZM63.5333 83.3381H101.737L97.9498 60.0379C97.8831 59.6181 97.6687 59.2359 97.3454 58.9605C97.0222 58.6851 96.6113 58.5345 96.1869 58.5359H61.5681C61.309 58.5359 61.0531 58.5923 60.818 58.7013C60.5829 58.8103 60.3743 58.9692 60.2066 59.167C60.0389 59.3648 59.9161 59.5968 59.8468 59.8469C59.7776 60.0969 59.7634 60.3591 59.8053 60.6152L63.5333 83.3381Z" fill="#212121"/>
<path d="M227.758 185.735C227.611 185.735 227.47 185.677 227.366 185.573C227.262 185.469 227.203 185.329 227.203 185.182L227.262 117.14C227.262 116.993 227.32 116.853 227.424 116.749C227.528 116.645 227.669 116.587 227.816 116.587C227.963 116.587 228.104 116.645 228.208 116.749C228.312 116.853 228.37 116.993 228.37 117.14L228.312 185.182C228.312 185.329 228.254 185.469 228.15 185.573C228.046 185.677 227.905 185.735 227.758 185.735Z" fill="#212121"/>
<path d="M217.042 178.544H238.474C240.434 178.544 242.313 179.321 243.699 180.704C245.085 182.087 245.864 183.964 245.864 185.92H209.651C209.651 183.964 210.43 182.087 211.816 180.704C213.202 179.321 215.082 178.544 217.042 178.544Z" fill="white"/>
<path d="M245.864 186.472H209.651C209.504 186.472 209.363 186.414 209.26 186.31C209.156 186.207 209.097 186.066 209.097 185.919C209.1 183.817 209.937 181.802 211.427 180.315C212.916 178.829 214.935 177.993 217.042 177.99H238.474C240.58 177.993 242.599 178.829 244.089 180.315C245.578 181.802 246.416 183.817 246.418 185.919C246.418 186.066 246.36 186.207 246.256 186.31C246.152 186.414 246.011 186.472 245.864 186.472ZM210.228 185.366H245.287C245.146 183.659 244.367 182.067 243.105 180.906C241.843 179.744 240.19 179.099 238.474 179.097H217.042C215.325 179.099 213.672 179.744 212.41 180.906C211.148 182.067 210.369 183.659 210.228 185.366Z" fill="#212121"/>
<path d="M249.282 66.4307C248.326 66.4307 247.41 66.8095 246.734 67.4838C246.059 68.1581 245.679 69.0727 245.679 70.0264V116.955H202.815C202.815 119.694 203.905 122.32 205.846 124.257C207.786 126.193 210.418 127.281 213.162 127.281H242.538C245.282 127.281 247.914 126.193 249.854 124.257C251.795 122.32 252.885 119.694 252.885 116.955V70.0264C252.885 69.0727 252.505 68.1581 251.829 67.4838C251.154 66.8095 250.237 66.4307 249.282 66.4307Z" fill="white"/>
<path d="M242.538 127.835H213.162C210.272 127.831 207.501 126.684 205.457 124.645C203.414 122.605 202.264 119.84 202.261 116.955C202.261 116.809 202.32 116.668 202.423 116.564C202.527 116.46 202.668 116.402 202.815 116.402H245.125V70.0268C245.125 68.9265 245.563 67.8712 246.342 67.0931C247.122 66.315 248.179 65.8779 249.282 65.8779C250.384 65.8779 251.442 66.315 252.221 67.0931C253.001 67.8712 253.439 68.9265 253.439 70.0268V116.955C253.436 119.84 252.286 122.605 250.243 124.645C248.199 126.684 245.428 127.831 242.538 127.835ZM203.385 117.509C203.53 120 204.622 122.342 206.44 124.056C208.257 125.769 210.662 126.725 213.162 126.728H242.538C245.134 126.725 247.623 125.695 249.459 123.863C251.295 122.031 252.327 119.546 252.33 116.955V70.0268C252.33 69.2199 252.009 68.446 251.437 67.8754C250.866 67.3049 250.09 66.9843 249.282 66.9843C248.473 66.9843 247.698 67.3049 247.126 67.8754C246.555 68.446 246.233 69.2199 246.233 70.0268V116.955C246.233 117.102 246.175 117.243 246.071 117.347C245.967 117.45 245.826 117.509 245.679 117.509H203.385Z" fill="#212121"/>
<path d="M40.6453 17.9941H62.214V45.2295H40.6453C38.3849 45.2295 36.2171 44.335 34.6187 42.7427C33.0203 41.1505 32.1223 38.991 32.1222 36.7392V26.4848C32.1222 24.2329 33.0202 22.0733 34.6186 20.481C36.217 18.8887 38.3849 17.9941 40.6453 17.9941Z" fill="#C7CBE0"/>
<path d="M70.8379 17.9668H55.4323C53.2103 17.9668 51.0794 18.8461 49.5082 20.4113C47.937 21.9765 47.0543 24.0994 47.0543 26.3129V36.856C47.0543 37.9521 47.271 39.0375 47.6921 40.0501C48.1132 41.0627 48.7304 41.9828 49.5084 42.7579C50.2865 43.5329 51.2102 44.1476 52.2267 44.567C53.2433 44.9864 54.3328 45.2022 55.4331 45.2021H58.1828L62.0606 50.1136C62.1887 50.2756 62.352 50.4065 62.5383 50.4966C62.7245 50.5866 62.9288 50.6334 63.1358 50.6334C63.3428 50.6334 63.5472 50.5866 63.7334 50.4966C63.9196 50.4065 64.083 50.2756 64.2111 50.1136L68.0889 45.2021H70.8379C71.9381 45.2021 73.0276 44.9863 74.044 44.5669C75.0605 44.1474 75.9841 43.5327 76.7621 42.7577C77.5401 41.9826 78.1572 41.0626 78.5782 40.05C78.9992 39.0374 79.2159 37.9521 79.2159 36.856V26.3129C79.2159 24.0994 78.3332 21.9765 76.762 20.4113C75.1908 18.8461 73.0599 17.9668 70.8379 17.9668V17.9668Z" fill="#C7CBE0"/>
<path d="M67.9021 27.6075H43.6202C43.4742 27.6075 43.3342 27.5497 43.2309 27.4469C43.1277 27.344 43.0697 27.2045 43.0697 27.0591C43.0697 26.9137 43.1277 26.7742 43.2309 26.6714C43.3342 26.5685 43.4742 26.5107 43.6202 26.5107H67.9021C68.048 26.5107 68.1881 26.5685 68.2913 26.6714C68.3945 26.7742 68.4525 26.9137 68.4525 27.0591C68.4525 27.2045 68.3945 27.344 68.2913 27.4469C68.1881 27.5497 68.048 27.6075 67.9021 27.6075Z" fill="#212121"/>
<path d="M67.9021 31.6592H43.6202C43.4742 31.6592 43.3342 31.6014 43.2309 31.4986C43.1277 31.3958 43.0697 31.2563 43.0697 31.1109C43.0697 30.9654 43.1277 30.8259 43.2309 30.7231C43.3342 30.6203 43.4742 30.5625 43.6202 30.5625H67.9021C68.048 30.5625 68.1881 30.6203 68.2913 30.7231C68.3945 30.8259 68.4525 30.9654 68.4525 31.1109C68.4525 31.2563 68.3945 31.3958 68.2913 31.4986C68.1881 31.6014 68.048 31.6592 67.9021 31.6592Z" fill="#212121"/>
<path d="M67.9021 35.712H43.6202C43.4742 35.712 43.3342 35.6542 43.2309 35.5514C43.1277 35.4485 43.0697 35.309 43.0697 35.1636C43.0697 35.0182 43.1277 34.8787 43.2309 34.7758C43.3342 34.673 43.4742 34.6152 43.6202 34.6152H67.9021C68.048 34.6152 68.1881 34.673 68.2913 34.7758C68.3945 34.8787 68.4525 35.0182 68.4525 35.1636C68.4525 35.309 68.3945 35.4485 68.2913 35.5514C68.1881 35.6542 68.048 35.712 67.9021 35.712Z" fill="#212121"/>
<path d="M290.541 9.00424L291.558 12.348C291.642 12.6339 291.796 12.8942 292.006 13.105C292.216 13.3159 292.475 13.4707 292.759 13.5555L296.068 14.5772C296.121 14.5915 296.171 14.6166 296.214 14.6509C296.257 14.6853 296.293 14.7282 296.319 14.7769C296.345 14.8257 296.36 14.8793 296.365 14.9344C296.369 14.9895 296.363 15.045 296.345 15.0973C296.325 15.1631 296.289 15.2229 296.241 15.2715C296.193 15.3201 296.133 15.356 296.068 15.376L292.759 16.3791C292.475 16.4639 292.216 16.6187 292.006 16.8296C291.796 17.0405 291.642 17.3007 291.558 17.5866L290.541 20.9304C290.507 21.0348 290.434 21.122 290.338 21.1739C290.241 21.2258 290.129 21.2384 290.023 21.209C289.958 21.189 289.898 21.1531 289.85 21.1045C289.802 21.0559 289.766 20.9961 289.746 20.9304L288.748 17.5866C288.661 17.3022 288.506 17.0435 288.296 16.8331C288.087 16.6226 287.829 16.4668 287.546 16.3791L284.219 15.376C284.115 15.3418 284.028 15.2686 283.977 15.1718C283.925 15.0749 283.913 14.9618 283.942 14.8559C283.962 14.7901 283.997 14.7303 284.046 14.6817C284.094 14.6331 284.154 14.5972 284.219 14.5772L287.546 13.5555C287.831 13.4707 288.09 13.3159 288.3 13.105C288.509 12.8942 288.664 12.6339 288.748 12.348L289.746 9.00424C289.778 8.89848 289.851 8.80981 289.948 8.75759C290.045 8.70538 290.158 8.69387 290.264 8.72559C290.331 8.74264 290.392 8.77753 290.44 8.82658C290.489 8.87562 290.524 8.93701 290.541 9.00424Z" fill="#C7CBE0"/>
<path d="M289.843 36.0195C292.804 36.0195 295.204 33.6076 295.204 30.6323C295.204 27.657 292.804 25.2451 289.843 25.2451C286.882 25.2451 284.482 27.657 284.482 30.6323C284.482 33.6076 286.882 36.0195 289.843 36.0195Z" fill="white"/>
<path d="M289.843 36.5765C288.673 36.5765 287.529 36.2279 286.557 35.5747C285.584 34.9215 284.826 33.9931 284.378 32.9069C283.93 31.8206 283.813 30.6254 284.042 29.4723C284.27 28.3192 284.833 27.26 285.66 26.4286C286.488 25.5973 287.542 25.0311 288.689 24.8017C289.836 24.5724 291.026 24.6901 292.107 25.14C293.187 25.5899 294.111 26.3518 294.761 27.3294C295.411 28.307 295.758 29.4563 295.758 30.632C295.756 32.208 295.132 33.719 294.024 34.8334C292.915 35.9478 291.411 36.5747 289.843 36.5765ZM289.843 25.8021C288.892 25.8021 287.963 26.0854 287.173 26.6161C286.383 27.1468 285.767 27.9011 285.403 28.7837C285.039 29.6662 284.944 30.6374 285.129 31.5743C285.315 32.5112 285.772 33.3718 286.445 34.0473C287.117 34.7227 287.973 35.1827 288.905 35.3691C289.838 35.5555 290.804 35.4598 291.682 35.0942C292.56 34.7287 293.311 34.1096 293.839 33.3153C294.367 32.5211 294.649 31.5873 294.649 30.632C294.648 29.3515 294.141 28.1238 293.24 27.2183C292.339 26.3128 291.117 25.8035 289.843 25.8021Z" fill="#212121"/>
<path d="M289.843 51.4375C292.804 51.4375 295.204 49.0256 295.204 46.0503C295.204 43.075 292.804 40.6631 289.843 40.6631C286.882 40.6631 284.482 43.075 284.482 46.0503C284.482 49.0256 286.882 51.4375 289.843 51.4375Z" fill="white"/>
<path d="M289.843 51.9945C288.673 51.9945 287.529 51.6458 286.557 50.9926C285.584 50.3394 284.826 49.411 284.378 48.3248C283.93 47.2386 283.813 46.0434 284.042 44.8903C284.27 43.7371 284.833 42.6779 285.66 41.8466C286.488 41.0152 287.542 40.4491 288.689 40.2197C289.836 39.9903 291.026 40.108 292.107 40.558C293.187 41.0079 294.111 41.7698 294.761 42.7474C295.411 43.725 295.758 44.8743 295.758 46.05C295.756 47.626 295.132 49.1369 294.024 50.2514C292.915 51.3658 291.411 51.9926 289.843 51.9945ZM289.843 41.2201C288.892 41.2201 287.963 41.5033 287.173 42.034C286.383 42.5648 285.767 43.3191 285.403 44.2016C285.039 45.0842 284.944 46.0553 285.129 46.9922C285.315 47.9291 285.772 48.7898 286.445 49.4652C287.117 50.1407 287.973 50.6007 288.905 50.7871C289.838 50.9734 290.804 50.8778 291.682 50.5122C292.56 50.1467 293.311 49.5276 293.839 48.7333C294.367 47.939 294.649 47.0052 294.649 46.05C294.648 44.7694 294.141 43.5418 293.24 42.6363C292.339 41.7308 291.117 41.2215 289.843 41.2201Z" fill="#212121"/>
<path d="M328.834 15.4398H304.804C304.657 15.4398 304.516 15.3811 304.412 15.2766C304.308 15.172 304.25 15.0303 304.25 14.8825C304.25 14.7347 304.308 14.5929 304.412 14.4884C304.516 14.3839 304.657 14.3252 304.804 14.3252H328.834C328.981 14.3252 329.122 14.3839 329.226 14.4884C329.33 14.5929 329.389 14.7347 329.389 14.8825C329.389 15.0303 329.33 15.172 329.226 15.2766C329.122 15.3811 328.981 15.4398 328.834 15.4398Z" fill="#212121"/>
<path d="M328.834 31.2298H304.804C304.657 31.2298 304.516 31.1711 304.412 31.0666C304.308 30.9621 304.25 30.8203 304.25 30.6725C304.25 30.5247 304.308 30.383 304.412 30.2785C304.516 30.1739 304.657 30.1152 304.804 30.1152H328.834C328.981 30.1152 329.122 30.1739 329.226 30.2785C329.33 30.383 329.389 30.5247 329.389 30.6725C329.389 30.8203 329.33 30.9621 329.226 31.0666C329.122 31.1711 328.981 31.2298 328.834 31.2298Z" fill="#212121"/>
<path d="M328.834 47.2054H304.804C304.657 47.2054 304.516 47.1467 304.412 47.0422C304.308 46.9377 304.25 46.7959 304.25 46.6481C304.25 46.5003 304.308 46.3586 304.412 46.254C304.516 46.1495 304.657 46.0908 304.804 46.0908H328.834C328.981 46.0908 329.122 46.1495 329.226 46.254C329.33 46.3586 329.389 46.5003 329.389 46.6481C329.389 46.7959 329.33 46.9377 329.226 47.0422C329.122 47.1467 328.981 47.2054 328.834 47.2054Z" fill="#212121"/>
<path d="M87.5868 185.928H57.5164L50.8676 141.299H94.0629L87.5868 185.928Z" fill="white"/>
<path d="M87.5868 186.472H57.5164C57.3856 186.472 57.2591 186.426 57.1601 186.34C57.061 186.255 56.996 186.137 56.9767 186.008L50.3281 141.378C50.3165 141.301 50.3219 141.222 50.3437 141.147C50.3655 141.072 50.4033 141.002 50.4545 140.943C50.5057 140.884 50.5691 140.836 50.6404 140.803C50.7116 140.771 50.7891 140.754 50.8675 140.754H94.0629C94.1411 140.754 94.2184 140.771 94.2895 140.803C94.3606 140.836 94.4239 140.883 94.4751 140.942C94.5263 141.001 94.5641 141.07 94.5861 141.145C94.6081 141.22 94.6137 141.299 94.6025 141.376L88.1266 186.006C88.1078 186.135 88.0429 186.254 87.9438 186.34C87.8447 186.425 87.7179 186.472 87.5868 186.472ZM57.9871 185.383H87.1148L93.4327 141.843H51.5002L57.9871 185.383Z" fill="#212121"/>
<path d="M60.5577 141.299L65.8739 185.928H72.1194L79.575 185.909L85.1939 141.299H60.5577Z" fill="white"/>
<path d="M65.8746 186.472C65.7411 186.472 65.6122 186.423 65.5124 186.335C65.4126 186.246 65.3487 186.125 65.333 185.992L60.0161 141.363C60.007 141.286 60.0143 141.209 60.0373 141.135C60.0604 141.062 60.0987 140.994 60.1499 140.937C60.2011 140.879 60.2638 140.833 60.3341 140.802C60.4044 140.77 60.4805 140.754 60.5576 140.754H85.1937C85.2711 140.754 85.3476 140.77 85.4181 140.802C85.4886 140.834 85.5516 140.88 85.6028 140.938C85.654 140.996 85.6922 141.064 85.715 141.138C85.7378 141.212 85.7446 141.29 85.735 141.366L80.1168 185.976C80.1003 186.108 80.0364 186.229 79.937 186.316C79.8377 186.404 79.7097 186.453 79.577 186.453L72.1207 186.472H65.8746ZM66.359 185.383H72.1198L79.0943 185.365L84.5761 141.843H61.1718L66.359 185.383Z" fill="#212121"/>
<path d="M72.2188 141.791L72.8758 185.436L72.2188 141.791Z" fill="white"/>
<path d="M72.8754 185.98C72.7322 185.98 72.5947 185.924 72.4926 185.823C72.3906 185.723 72.3321 185.587 72.33 185.444L71.6733 141.799C71.6722 141.727 71.6852 141.656 71.7117 141.59C71.7381 141.523 71.7773 141.463 71.8272 141.411C71.8771 141.36 71.9367 141.319 72.0024 141.291C72.0682 141.262 72.1389 141.247 72.2105 141.246H72.2189C72.3622 141.246 72.4997 141.302 72.6017 141.403C72.7038 141.503 72.7622 141.639 72.7644 141.782L73.4213 185.427C73.4223 185.499 73.4093 185.57 73.3829 185.636C73.3565 185.703 73.3172 185.764 73.2673 185.815C73.2174 185.866 73.1579 185.907 73.0921 185.936C73.0263 185.964 72.9556 185.979 72.884 185.98H72.8754Z" fill="#212121"/>
<path d="M91.7587 138.017H53.3358C50.3398 138.017 47.9111 140.441 47.9111 143.431C47.9111 146.422 50.3398 148.846 53.3358 148.846H91.7587C94.7547 148.846 97.1834 146.422 97.1834 143.431C97.1834 140.441 94.7547 138.017 91.7587 138.017Z" fill="#707FDA"/>
<path d="M91.547 157.798H53.5474V158.887H91.547V157.798Z" fill="#212121"/>
<path d="M89.9108 171.772H55.1838V172.861H89.9108V171.772Z" fill="#212121"/>
<path d="M210.488 37.8528C212.95 37.8528 214.946 35.8575 214.946 33.3961C214.946 30.9348 212.95 28.9395 210.488 28.9395C208.026 28.9395 206.031 30.9348 206.031 33.3961C206.031 35.8575 208.026 37.8528 210.488 37.8528Z" fill="white"/>
<path d="M210.488 38.3984C209.499 38.3984 208.531 38.105 207.708 37.5553C206.885 37.0057 206.244 36.2244 205.865 35.3103C205.487 34.3962 205.388 33.3904 205.581 32.4201C205.774 31.4497 206.25 30.5583 206.95 29.8587C207.65 29.1591 208.541 28.6827 209.512 28.4897C210.483 28.2967 211.489 28.3957 212.403 28.7743C213.317 29.153 214.099 29.7941 214.649 30.6168C215.198 31.4394 215.492 32.4066 215.492 33.396C215.49 34.7222 214.963 35.9937 214.025 36.9315C213.087 37.8693 211.815 38.3969 210.488 38.3984ZM210.488 29.485C209.714 29.485 208.958 29.7144 208.315 30.1441C207.671 30.5739 207.17 31.1847 206.874 31.8993C206.578 32.6139 206.5 33.4003 206.651 34.159C206.802 34.9176 207.175 35.6145 207.722 36.1615C208.269 36.7084 208.966 37.0809 209.725 37.2318C210.484 37.3827 211.27 37.3053 211.985 37.0093C212.7 36.7132 213.311 36.212 213.741 35.5688C214.171 34.9256 214.4 34.1695 214.4 33.396C214.399 32.3591 213.986 31.365 213.253 30.6318C212.52 29.8986 211.525 29.4862 210.488 29.485Z" fill="#212121"/>
<path fill-rule="evenodd" clip-rule="evenodd" d="M118.379 150.311C115.116 153.206 106.43 157.144 101.997 156.045C96.5521 154.711 92.1167 153.226 92.1167 153.226C90.1863 152.309 87.9919 152.109 85.9273 152.662C83.8627 153.216 82.0631 154.487 80.8513 156.247L104.568 175.828L114.974 174.79L110.159 180.49L117.375 186.462L134.937 166.5" fill="white"/>
<path d="M117.375 187.008C117.248 187.008 117.125 186.963 117.027 186.882L109.811 180.911C109.755 180.865 109.71 180.808 109.676 180.744C109.642 180.68 109.622 180.611 109.615 180.539C109.609 180.467 109.617 180.394 109.639 180.326C109.66 180.257 109.695 180.193 109.742 180.138L113.687 175.467L104.622 176.371C104.551 176.378 104.478 176.371 104.409 176.35C104.34 176.329 104.276 176.295 104.221 176.249L80.5039 156.668C80.3985 156.581 80.3295 156.458 80.3107 156.322C80.2919 156.187 80.3246 156.049 80.4023 155.937C81.6808 154.07 83.5834 152.72 85.7681 152.13C87.9529 151.54 90.2765 151.749 92.3213 152.718C92.7227 152.851 97.002 154.258 102.127 155.514C106.255 156.539 114.694 152.85 118.017 149.902C118.071 149.853 118.133 149.816 118.201 149.793C118.269 149.769 118.341 149.759 118.413 149.763C118.485 149.767 118.555 149.785 118.62 149.816C118.685 149.848 118.743 149.891 118.79 149.945C118.838 149.999 118.875 150.062 118.898 150.13C118.922 150.198 118.931 150.27 118.927 150.342C118.922 150.414 118.904 150.484 118.872 150.548C118.84 150.613 118.796 150.671 118.742 150.718C115.263 153.805 106.448 157.709 101.865 156.574C96.4629 155.251 91.9888 153.759 91.9444 153.744C91.9235 153.737 91.903 153.729 91.8831 153.719C90.1484 152.889 88.1815 152.678 86.31 153.121C84.4385 153.564 82.7753 154.635 81.5974 156.155L104.742 175.263L114.921 174.247C115.029 174.237 115.138 174.258 115.234 174.31C115.329 174.361 115.407 174.44 115.458 174.536C115.509 174.632 115.529 174.741 115.518 174.849C115.506 174.957 115.462 175.06 115.392 175.143L110.934 180.421L117.317 185.704L134.527 166.14C134.623 166.031 134.758 165.965 134.902 165.955C135.047 165.946 135.189 165.995 135.298 166.09C135.406 166.186 135.473 166.321 135.482 166.465C135.491 166.61 135.443 166.752 135.347 166.861L117.785 186.822C117.734 186.881 117.671 186.927 117.6 186.959C117.529 186.991 117.452 187.008 117.375 187.008Z" fill="#212121"/>
<path fill-rule="evenodd" clip-rule="evenodd" d="M188.436 169.734C187.323 173.285 185.332 176.364 182.337 177.417C176.944 179.302 175.369 182.68 175.683 187.015H202.21L207.85 178.102V187.015H216.038V169.734H188.436Z" fill="white"/>
<path d="M216.038 187.561H207.85C207.705 187.561 207.566 187.504 207.464 187.401C207.362 187.299 207.304 187.16 207.304 187.015V179.986L202.671 187.307C202.622 187.385 202.554 187.449 202.473 187.494C202.392 187.539 202.302 187.562 202.209 187.562H175.682C175.544 187.562 175.412 187.51 175.311 187.416C175.21 187.322 175.148 187.193 175.138 187.056C174.768 181.932 176.998 178.706 182.157 176.902C184.664 176.021 186.709 173.417 187.915 169.571C187.95 169.461 188.019 169.364 188.113 169.295C188.207 169.226 188.32 169.189 188.436 169.189H216.038C216.183 169.189 216.322 169.247 216.424 169.349C216.526 169.452 216.584 169.59 216.584 169.735V187.016C216.584 187.161 216.526 187.3 216.424 187.402C216.321 187.504 216.182 187.561 216.038 187.561ZM208.396 186.47H215.492V170.28H188.833C187.505 174.254 185.272 176.963 182.519 177.931C178.008 179.508 176.042 182.153 176.2 186.47H201.91L207.39 177.811C207.453 177.711 207.547 177.634 207.657 177.592C207.768 177.551 207.889 177.546 208.003 177.578C208.116 177.611 208.216 177.68 208.287 177.774C208.358 177.869 208.397 177.984 208.397 178.102L208.396 186.47Z" fill="#212121"/>
<path fill-rule="evenodd" clip-rule="evenodd" d="M130.422 84.068C125.651 80.2843 123.112 77.2305 122.805 74.9065C122.287 71.0046 122.525 68.1248 116.949 65.425C114.434 64.2136 110.49 62.7873 111.732 60.4291C112.596 58.8101 117.283 60.297 120.771 61.2693C116.807 57.8824 111.601 53.4437 113.03 51.5626C114.458 49.6815 118.537 52.5469 123.649 56.9687C118.891 51.1371 115.575 48.706 117.16 47.0488C118.797 45.3403 123.375 48.9444 127.29 53.254C127.948 52.9878 128.567 53.3152 129.149 54.2363C130.8 56.8486 133.529 61.8207 137.337 69.1526" fill="white"/>
<path d="M130.422 84.6139C130.299 84.6141 130.179 84.5724 130.083 84.4958C125.151 80.5849 122.593 77.4712 122.263 74.9785C122.212 74.5923 122.168 74.216 122.126 73.8489C121.745 70.5813 121.47 68.2205 116.711 65.9165C116.419 65.7757 116.105 65.6314 115.783 65.483C113.818 64.5778 111.593 63.5519 111.066 61.999C110.966 61.6992 110.931 61.3819 110.962 61.0676C110.994 60.7534 111.091 60.4493 111.249 60.1754C112.121 58.5415 115.232 59.1749 118.55 60.0806C114.67 56.706 111.094 53.2087 112.595 51.233C112.763 51.008 112.976 50.8213 113.222 50.6853C113.467 50.5493 113.739 50.4671 114.018 50.4443C115.222 50.3188 116.861 51.0209 119.297 52.768C118.154 51.4801 117.253 50.4359 116.737 49.5664C116.478 49.1286 115.69 47.797 116.765 46.6725C116.964 46.4695 117.203 46.3109 117.468 46.2072C117.732 46.1035 118.015 46.0569 118.299 46.0707C121.111 46.1084 125.488 50.491 127.467 52.6394C128.076 52.5359 128.856 52.751 129.61 53.9445C131.262 56.5582 134.024 61.5902 137.821 68.9008C137.888 69.0293 137.901 69.179 137.857 69.317C137.813 69.455 137.717 69.57 137.588 69.6367C137.46 69.7034 137.31 69.7163 137.172 69.6726C137.034 69.629 136.919 69.5323 136.852 69.4038C133.069 62.1203 130.322 57.1153 128.687 54.5275C128.059 53.5327 127.649 53.6977 127.495 53.7606C127.391 53.8025 127.277 53.8116 127.168 53.7868C127.059 53.7619 126.961 53.7042 126.886 53.6215C123.341 49.7199 119.965 47.1845 118.284 47.162C118.15 47.1498 118.016 47.1673 117.889 47.2132C117.763 47.2591 117.649 47.3322 117.554 47.4274C116.783 48.2329 117.915 49.5748 120.549 52.5328C121.587 53.6991 122.764 55.0212 124.072 56.6244C124.158 56.7302 124.202 56.8645 124.194 57.0007C124.186 57.137 124.127 57.2653 124.029 57.3604C123.931 57.4555 123.801 57.5105 123.665 57.5145C123.528 57.5185 123.395 57.4712 123.292 57.382C120.277 54.774 116.047 51.3307 114.132 51.5301C114.001 51.5384 113.873 51.5753 113.758 51.6381C113.642 51.701 113.542 51.7883 113.464 51.8939C113.216 52.2213 113.12 53.1192 115.265 55.4674C116.851 57.2037 119.102 59.1263 121.088 60.8226L121.127 60.8559C121.221 60.9366 121.285 61.0472 121.308 61.1692C121.331 61.2913 121.312 61.4176 121.254 61.5273C121.195 61.6369 121.101 61.7234 120.987 61.7723C120.873 61.8212 120.745 61.8297 120.625 61.7963C120.345 61.7181 120.057 61.6366 119.763 61.5537C117.16 60.8175 112.802 59.5856 112.214 60.6872C112.127 60.83 112.072 60.9898 112.052 61.1558C112.032 61.3218 112.049 61.49 112.1 61.6492C112.476 62.7579 114.564 63.7198 116.241 64.4925C116.569 64.6437 116.888 64.7907 117.187 64.9346C122.486 67.4994 122.822 70.3841 123.211 73.7232C123.253 74.085 123.297 74.4557 123.347 74.8361C123.634 77.004 126.129 79.9658 130.763 83.6416C130.852 83.712 130.916 83.8083 130.948 83.9172C130.979 84.026 130.976 84.1419 130.939 84.2489C130.902 84.3559 130.832 84.4486 130.74 84.5141C130.647 84.5797 130.537 84.6149 130.423 84.6148L130.422 84.6139Z" fill="#212121"/>
<path d="M138.761 72.0591C138.673 72.0593 138.586 72.038 138.507 71.997C138.429 71.956 138.362 71.8966 138.312 71.8239C138.273 71.768 138.029 71.421 137.785 71.0739C137.539 70.7239 137.294 70.3737 137.255 70.3177C137.233 70.287 137.215 70.2543 137.2 70.2198C136.228 67.9242 135.047 65.7508 133.904 63.649C133.399 62.7213 132.878 61.7618 132.38 60.8026C132.007 60.0971 131.59 59.4166 131.129 58.7652C131.089 58.706 131.06 58.6394 131.046 58.5692C131.031 58.4991 131.03 58.4267 131.044 58.3563C131.057 58.2859 131.084 58.2188 131.123 58.1588C131.163 58.0989 131.213 58.0472 131.273 58.0069C131.332 57.9665 131.399 57.9382 131.469 57.9236C131.539 57.909 131.611 57.9083 131.682 57.9217C131.752 57.935 131.819 57.9621 131.879 58.0014C131.939 58.0406 131.991 58.0913 132.031 58.1506C132.518 58.8395 132.959 59.5594 133.352 60.3056C133.842 61.2493 134.361 62.2042 134.862 63.1275C136.009 65.2363 137.194 67.4163 138.182 69.7414L138.677 70.4463C138.923 70.7961 139.168 71.1463 139.208 71.2025C139.264 71.2843 139.298 71.3801 139.304 71.4794C139.31 71.5787 139.289 71.6779 139.243 71.766C139.196 71.8542 139.127 71.9281 139.042 71.9797C138.957 72.0313 138.859 72.0586 138.76 72.0587L138.761 72.0591Z" fill="#212121"/>
<path fill-rule="evenodd" clip-rule="evenodd" d="M131.572 71.7603C129.609 69.2808 129.626 65.7652 128.564 62.3194C127.088 57.5729 126.581 54.3883 127.39 53.5333C128.554 52.3064 130.196 55.4672 131.976 58.9541C132.686 60.3441 134.505 63.6791 137.435 68.959" fill="white"/>
<path d="M131.572 72.3057C131.489 72.3058 131.408 72.2873 131.334 72.2514C131.26 72.2156 131.194 72.1633 131.143 72.0986C129.753 70.3425 129.312 68.1616 128.844 65.8529C128.62 64.7458 128.39 63.6013 128.043 62.4791C125.853 55.4428 126.396 53.7893 126.994 53.158C127.131 52.9979 127.307 52.8749 127.505 52.8002C127.702 52.7256 127.916 52.7017 128.125 52.7307C129.42 52.9179 130.628 55.1126 132.462 58.7051C133.167 60.0845 135 63.4448 137.912 68.6934C137.981 68.8199 137.998 68.9687 137.958 69.1073C137.918 69.2458 137.824 69.3629 137.698 69.4329C137.572 69.5029 137.423 69.52 137.284 69.4806C137.145 69.4413 137.028 69.3485 136.957 69.2227C134.039 63.9634 132.2 60.5918 131.49 59.2013C130.418 57.1025 128.799 53.931 127.969 53.8109C127.941 53.8065 127.89 53.7996 127.787 53.9088C127.563 54.1453 126.996 55.4368 129.086 62.1562C129.421 63.3016 129.697 64.4631 129.915 65.6363C130.356 67.8135 130.772 69.8701 132 71.4209C132.064 71.5012 132.103 71.5979 132.115 71.6998C132.126 71.8017 132.108 71.9046 132.063 71.9969C132.019 72.0892 131.949 72.167 131.862 72.2215C131.776 72.276 131.675 72.305 131.573 72.3051L131.572 72.3057Z" fill="#212121"/>
<path fill-rule="evenodd" clip-rule="evenodd" d="M266.536 51.5074C271.308 47.7238 273.847 44.6699 274.154 42.3459C274.672 38.444 276.975 35.9926 280.01 32.8644C280.995 31.8495 280.116 27.785 276.628 28.7571C279.979 25.5314 275.172 22.3904 273.31 24.4081C278.068 18.5766 281.384 16.1454 279.799 14.4882C278.162 12.7798 273.584 16.3839 269.669 20.6934C269.012 20.4274 268.392 20.7548 267.81 21.6757C266.159 24.288 263.43 29.2601 259.622 36.592" fill="white"/>
<path d="M266.537 52.0529C266.424 52.053 266.313 52.0178 266.221 51.9522C266.128 51.8866 266.059 51.7939 266.021 51.6869C265.984 51.58 265.981 51.4641 266.012 51.3553C266.044 51.2464 266.109 51.1502 266.197 51.0797C270.832 47.4052 273.327 44.442 273.613 42.2744C274.166 38.1038 276.693 35.4997 279.618 32.4844C279.914 32.1791 279.97 31.0803 279.44 30.1886C279.056 29.5431 278.283 28.8625 276.774 29.2828C276.657 29.3155 276.532 29.3082 276.42 29.262C276.307 29.2159 276.213 29.1335 276.153 29.028C276.093 28.9225 276.069 28.7999 276.087 28.6796C276.104 28.5594 276.161 28.4483 276.249 28.364C277.061 27.5818 277.383 26.7678 277.179 26.01C276.975 25.2522 276.251 24.5997 275.378 24.3847C275.059 24.3063 274.257 24.1869 273.71 24.7781C273.614 24.8822 273.481 24.9448 273.34 24.9526C273.198 24.9603 273.059 24.9127 272.952 24.8198C272.845 24.7269 272.778 24.5959 272.766 24.4547C272.754 24.3134 272.797 24.173 272.886 24.063C274.194 22.4601 275.371 21.138 276.41 19.9718C279.043 17.0135 280.175 15.6715 279.404 14.8655C279.31 14.7704 279.195 14.6974 279.069 14.6517C278.943 14.6059 278.808 14.5885 278.674 14.6007C276.994 14.6232 273.617 17.1586 270.073 21.0601C269.998 21.1428 269.899 21.2005 269.79 21.2254C269.681 21.2503 269.567 21.2412 269.464 21.1993C269.31 21.1367 268.9 20.9705 268.271 21.9662C266.636 24.554 263.889 29.559 260.106 36.8425C260.04 36.9709 259.925 37.0676 259.787 37.1113C259.649 37.155 259.499 37.142 259.37 37.0753C259.242 37.0086 259.145 36.8936 259.102 36.7557C259.058 36.6177 259.071 36.468 259.138 36.3395C262.934 29.0289 265.697 23.9968 267.348 21.3832C268.102 20.1899 268.882 19.9751 269.492 20.078C271.471 17.9295 275.848 13.5476 278.66 13.5094C278.943 13.495 279.227 13.5412 279.491 13.6449C279.755 13.7485 279.995 13.9073 280.193 14.1106C281.269 15.2357 280.48 16.5674 280.221 17.0051C279.642 17.983 278.576 19.1807 277.225 20.6978C276.544 21.4618 275.803 22.2953 275.005 23.229C275.219 23.2414 275.431 23.2736 275.639 23.3252C276.907 23.6372 277.925 24.5804 278.233 25.7273C278.333 26.1222 278.352 26.5332 278.29 26.9357C278.227 27.3382 278.084 27.7239 277.87 28.0701C278.386 28.0966 278.886 28.2538 279.325 28.5269C279.764 28.8 280.126 29.1801 280.377 29.6314C281.104 30.8536 281.115 32.5084 280.4 33.2448C277.61 36.1211 275.2 38.6053 274.694 42.4181C274.365 44.9102 271.807 48.0235 266.875 51.9352C266.779 52.0115 266.659 52.053 266.537 52.0529Z" fill="#212121"/>
<path d="M258.198 39.4982C258.098 39.4981 258 39.4707 257.915 39.4191C257.83 39.3674 257.761 39.2935 257.715 39.2052C257.669 39.117 257.647 39.0178 257.654 38.9184C257.66 38.819 257.693 38.7232 257.75 38.6414C257.787 38.5869 258.015 38.264 258.25 37.9291C258.466 37.6211 258.689 37.3035 258.775 37.1809C259.763 34.856 260.949 32.676 262.095 30.5672C262.597 29.6438 263.116 28.6888 263.61 27.7389C264.002 26.9948 264.442 26.277 264.927 25.59C265.009 25.4704 265.134 25.3881 265.277 25.3611C265.419 25.3342 265.566 25.3648 265.686 25.4463C265.805 25.5278 265.888 25.6535 265.915 25.7957C265.942 25.938 265.911 26.0851 265.829 26.2047C265.37 26.854 264.953 27.5324 264.582 28.2355C264.081 29.2009 263.559 30.1604 263.054 31.0883C261.912 33.1901 260.73 35.3631 259.758 37.659C259.744 37.6934 259.725 37.7262 259.704 37.7568C259.663 37.8154 259.398 38.1934 259.143 38.5572C258.909 38.8896 258.683 39.211 258.646 39.2645C258.596 39.3367 258.529 39.3957 258.451 39.4364C258.373 39.4771 258.286 39.4983 258.198 39.4982Z" fill="#212121"/>
<path fill-rule="evenodd" clip-rule="evenodd" d="M266.62 35.4877C267.894 33.4867 267.88 31.4277 268.395 29.7577C269.871 25.0112 270.378 21.8266 269.569 20.9725C268.404 19.7455 266.951 22.6753 264.802 26.0295C263.906 27.4269 262.147 31.0044 259.525 36.762" fill="white"/>
<path d="M259.524 37.3072C259.433 37.3072 259.343 37.2843 259.263 37.2405C259.182 37.1967 259.114 37.1335 259.065 37.0567C259.016 36.9799 258.986 36.8919 258.98 36.8008C258.973 36.7096 258.99 36.6184 259.027 36.5352C261.685 30.6991 263.423 27.1662 264.34 25.7344C264.68 25.2039 265.001 24.6868 265.312 24.1869C266.778 21.8236 267.747 20.2625 268.863 20.1486C269.069 20.1304 269.277 20.1616 269.468 20.2397C269.66 20.3178 269.83 20.4404 269.964 20.5973C270.563 21.2291 271.105 22.8825 268.915 29.92C268.762 30.4581 268.637 31.004 268.541 31.5552C268.29 32.8547 268.005 34.3278 267.08 35.7811C267.002 35.9032 266.879 35.9895 266.738 36.0209C266.597 36.0523 266.449 36.0264 266.327 35.9487C266.204 35.871 266.118 35.748 266.087 35.6067C266.055 35.4654 266.081 35.3174 266.159 35.1953C266.973 33.9169 267.225 32.611 267.469 31.348C267.572 30.7576 267.706 30.1732 267.872 29.5972C269.962 22.877 269.395 21.5842 269.171 21.3481C269.056 21.226 268.997 21.232 268.974 21.2344C268.391 21.2939 267.248 23.1366 266.239 24.7625C265.926 25.2658 265.603 25.7864 265.259 26.3236C264.382 27.6919 262.619 31.2796 260.02 36.9876C259.976 37.0828 259.907 37.1635 259.819 37.2201C259.731 37.2768 259.629 37.307 259.524 37.3072Z" fill="#212121"/>
<path fill-rule="evenodd" clip-rule="evenodd" d="M276.628 28.7575C273.959 33.6084 271.897 35.6093 270.441 34.7604C268.986 33.9115 269.592 31.3042 272.261 26.9385" fill="white"/>
<path d="M271.129 35.4962C270.79 35.4962 270.458 35.4047 270.166 35.2314C269.926 35.0936 269.718 34.9078 269.553 34.6855C269.389 34.4633 269.272 34.2094 269.21 33.9398C268.843 32.4846 269.688 30.1016 271.795 26.6543C271.832 26.5918 271.881 26.5372 271.939 26.4937C271.997 26.4503 272.063 26.4188 272.133 26.4012C272.203 26.3835 272.277 26.3801 272.348 26.391C272.42 26.4019 272.489 26.427 272.551 26.4648C272.612 26.5026 272.666 26.5524 272.709 26.6111C272.751 26.6699 272.781 26.7365 272.798 26.8072C272.814 26.8778 272.816 26.9509 272.804 27.0224C272.792 27.0938 272.765 27.1621 272.727 27.2233C270.336 31.1343 270.07 32.889 270.268 33.673C270.295 33.8015 270.349 33.923 270.426 34.0292C270.503 34.1355 270.602 34.2241 270.716 34.2893C270.821 34.3504 270.937 34.3887 271.057 34.4015C271.177 34.4143 271.299 34.4013 271.414 34.3635C272.225 34.1392 273.705 32.939 276.149 28.495C276.183 28.4308 276.229 28.3741 276.285 28.328C276.341 28.2819 276.406 28.2474 276.475 28.2265C276.545 28.2057 276.618 28.1989 276.69 28.2065C276.762 28.2141 276.832 28.236 276.895 28.271C276.959 28.3059 277.015 28.3531 277.06 28.4099C277.105 28.4667 277.138 28.5319 277.158 28.6017C277.178 28.6715 277.183 28.7445 277.174 28.8164C277.165 28.8884 277.142 28.9578 277.106 29.0207C274.966 32.9102 273.2 35.002 271.705 35.4156C271.517 35.4683 271.324 35.4954 271.129 35.4962Z" fill="#212121"/>
<path fill-rule="evenodd" clip-rule="evenodd" d="M280.135 32.617C277.276 37.1323 275.329 38.8582 274.029 38.2379C272.729 37.6177 273.595 34.518 276.628 28.9395" fill="white"/>
<path d="M274.575 38.9101C274.305 38.9099 274.038 38.8485 273.794 38.7304C273.607 38.6394 273.441 38.5103 273.306 38.3515C273.171 38.1927 273.071 38.0076 273.012 37.8079C272.719 36.9055 272.725 34.9769 276.149 28.6788C276.183 28.6152 276.229 28.5589 276.285 28.5133C276.34 28.4676 276.405 28.4334 276.474 28.4127C276.543 28.392 276.615 28.3851 276.687 28.3926C276.759 28.4 276.828 28.4215 276.891 28.4559C276.955 28.4904 277.011 28.537 277.056 28.5931C277.101 28.6492 277.135 28.7137 277.155 28.7829C277.175 28.8521 277.181 28.9246 277.173 28.9962C277.165 29.0678 277.143 29.1371 277.108 29.2001C273.98 34.9553 273.849 36.8524 274.05 37.471C274.063 37.5298 274.09 37.585 274.127 37.6325C274.164 37.6799 274.211 37.7186 274.265 37.7455C274.832 38.016 276.289 37.6728 279.674 32.3247C279.712 32.2642 279.762 32.2117 279.821 32.1705C279.88 32.1292 279.946 32.0998 280.016 32.0841C280.086 32.0684 280.158 32.0666 280.229 32.0789C280.299 32.0911 280.367 32.1171 280.427 32.1555C280.488 32.1938 280.54 32.2437 280.582 32.3022C280.623 32.3608 280.652 32.427 280.668 32.4969C280.684 32.5668 280.685 32.6392 280.673 32.7098C280.661 32.7804 280.635 32.8479 280.597 32.9085C278.007 36.9984 276.104 38.9101 274.575 38.9101Z" fill="#212121"/>
<path fill-rule="evenodd" clip-rule="evenodd" d="M232.959 87.5133L189.109 92.4248L169.458 104.249L127.791 87.8771L138.408 66.4093L166.698 79.5485L180.35 60.5057C182.809 57.0761 186.384 54.6077 190.463 53.5232L201.814 50.5054L215.32 47.5509C219.216 46.6985 223.285 47.1496 226.899 48.8348L241.698 55.7338L255.082 34.5693L276.731 47.0905L259.631 76.4725C257.52 80.1005 254.095 82.7792 250.065 83.9551C246.035 85.1311 241.707 84.7146 237.975 82.7916L234.088 80.789L230.356 78.8655L224.745 75.9744L230.048 78.7818L232.959 87.5133Z" fill="white"/>
<path d="M169.458 104.794C169.39 104.794 169.322 104.782 169.258 104.756L127.591 88.3849C127.521 88.3572 127.457 88.3153 127.404 88.2617C127.35 88.2082 127.309 88.1441 127.282 88.0737C127.254 88.0032 127.242 87.9278 127.245 87.8524C127.249 87.7769 127.268 87.703 127.301 87.6352L137.919 66.1674C137.982 66.0398 138.092 65.9419 138.227 65.8946C138.361 65.8474 138.509 65.8546 138.638 65.9146L166.517 78.8634L179.906 60.1874C182.441 56.6577 186.122 54.1161 190.322 52.9958L201.674 49.9778L201.698 49.9721L215.203 47.0176C219.217 46.1473 223.405 46.6117 227.13 48.3401L241.493 55.036L254.62 34.2775C254.696 34.1583 254.814 34.0729 254.951 34.0392C255.088 34.0056 255.233 34.0262 255.355 34.0968L277.004 46.618C277.066 46.6539 277.12 46.7017 277.164 46.7586C277.208 46.8156 277.239 46.8805 277.258 46.9498C277.276 47.019 277.281 47.0912 277.271 47.1623C277.262 47.2333 277.239 47.3018 277.203 47.3638L260.103 76.7467C257.923 80.4973 254.384 83.2668 250.219 84.4823C246.054 85.6978 241.581 85.2663 237.725 83.2771L230.96 79.7913L233.477 87.3413C233.503 87.4184 233.511 87.5003 233.501 87.581C233.491 87.6617 233.463 87.7391 233.419 87.8076C233.375 87.8761 233.317 87.934 233.248 87.977C233.179 88.0199 233.101 88.0469 233.02 88.056L189.288 92.9536L169.74 104.716C169.655 104.767 169.557 104.794 169.458 104.794ZM128.544 87.586L169.407 103.642L188.828 91.9572C188.895 91.9165 188.97 91.891 189.048 91.8824L232.228 87.0461L229.6 79.1617L224.49 76.4567C224.361 76.3897 224.265 76.2745 224.221 76.1364C224.178 75.9983 224.191 75.8486 224.258 75.7203C224.325 75.592 224.441 75.4956 224.579 75.4522C224.717 75.4089 224.867 75.4222 224.995 75.4892L238.225 82.3063C241.832 84.1673 246.017 84.5711 249.913 83.4341C253.81 82.2972 257.12 79.7065 259.16 76.1979L275.984 47.2887L255.263 35.3041L242.159 56.0251C242.088 56.1371 241.979 56.2195 241.852 56.2568C241.725 56.2942 241.588 56.284 241.468 56.2281L226.669 49.3291C223.161 47.7018 219.217 47.2644 215.438 48.0836L201.944 51.0356L190.603 54.0506C186.648 55.1057 183.181 57.4992 180.794 60.8234L167.141 79.8664C167.067 79.9696 166.959 80.0438 166.836 80.0761C166.714 80.1084 166.583 80.0968 166.468 80.0434L138.662 67.1281L128.544 87.586Z" fill="#212121"/>
<path fill-rule="evenodd" clip-rule="evenodd" d="M182.372 126.442L173.24 128.588L135.024 166.546L112.83 144.686L156.169 102.291C158.485 100.121 161.399 98.6971 164.534 98.2033L186.562 93.6982" fill="white"/>
<path d="M135.024 167.091C134.881 167.091 134.743 167.035 134.642 166.934L112.446 145.074C112.395 145.023 112.354 144.963 112.326 144.896C112.298 144.829 112.284 144.757 112.284 144.684C112.284 144.612 112.298 144.54 112.327 144.473C112.355 144.406 112.396 144.346 112.448 144.295L155.787 101.901C158.179 99.6518 161.193 98.1758 164.437 97.6656L186.453 93.1632C186.524 93.1476 186.597 93.1462 186.668 93.1591C186.739 93.1721 186.807 93.199 186.868 93.2385C186.929 93.2779 186.981 93.329 187.022 93.3888C187.063 93.4487 187.091 93.516 187.106 93.587C187.12 93.6579 187.12 93.731 187.106 93.802C187.092 93.873 187.064 93.9405 187.024 94.0006C186.983 94.0607 186.931 94.1121 186.871 94.1519C186.81 94.1917 186.743 94.2191 186.671 94.2325L164.644 98.7376L164.619 98.7419C161.591 99.2152 158.776 100.591 156.542 102.689L113.609 144.687L135.022 165.778L172.855 128.201C172.927 128.13 173.017 128.08 173.115 128.057L182.247 125.911C182.387 125.88 182.533 125.906 182.654 125.982C182.776 126.059 182.862 126.18 182.895 126.319C182.927 126.459 182.904 126.605 182.83 126.728C182.755 126.85 182.636 126.938 182.497 126.973L173.515 129.085L135.409 166.932C135.306 167.034 135.168 167.091 135.024 167.091Z" fill="#212121"/>
<path fill-rule="evenodd" clip-rule="evenodd" d="M229.866 78.7812L236.989 98.2006C237.782 100.363 238.07 102.678 237.83 104.968C237.591 107.259 236.83 109.464 235.607 111.416C234.384 113.367 232.73 115.013 230.773 116.228C228.815 117.442 226.606 118.192 224.314 118.422L214.126 119.44L218.226 169.733L186.501 169.655L180.681 106.09C180.357 102.557 181.442 99.0399 183.698 96.3022C185.955 93.5646 189.201 91.8281 192.731 91.4701L228.089 87.8847" fill="white"/>
<path d="M218.227 170.28H218.225L186.5 170.202C186.364 170.201 186.233 170.15 186.133 170.059C186.033 169.967 185.97 169.841 185.958 169.706L180.138 106.139C179.813 102.466 180.945 98.8126 183.291 95.9667C185.637 93.1209 189.007 91.3109 192.676 90.9274L228.034 87.342C228.176 87.3306 228.317 87.3754 228.427 87.4667C228.537 87.5581 228.606 87.6888 228.621 87.8309C228.635 87.9729 228.593 88.1149 228.504 88.2265C228.415 88.3381 228.286 88.4103 228.144 88.4277L192.786 92.0132C189.403 92.3669 186.295 94.0359 184.132 96.66C181.969 99.2841 180.925 102.653 181.224 106.04L187 169.112L217.634 169.187L213.582 119.486C213.57 119.343 213.615 119.202 213.707 119.092C213.798 118.982 213.929 118.912 214.072 118.898L224.26 117.88C226.469 117.659 228.599 116.935 230.485 115.765C232.372 114.594 233.966 113.008 235.145 111.127C236.324 109.246 237.057 107.12 237.288 104.912C237.518 102.704 237.241 100.473 236.476 98.3888L229.354 78.9693C229.305 78.8336 229.311 78.684 229.372 78.5533C229.433 78.4226 229.544 78.3213 229.679 78.2717C229.815 78.222 229.964 78.228 230.095 78.2883C230.226 78.3486 230.328 78.4583 230.379 78.5935L237.501 98.013C238.323 100.253 238.621 102.652 238.373 105.025C238.125 107.399 237.337 109.684 236.069 111.706C234.802 113.728 233.089 115.433 231.061 116.691C229.033 117.95 226.743 118.727 224.368 118.965L214.714 119.931L218.771 169.69C218.777 169.765 218.767 169.841 218.743 169.912C218.718 169.983 218.679 170.049 218.628 170.104C218.577 170.16 218.515 170.204 218.446 170.234C218.377 170.264 218.302 170.28 218.227 170.28L218.227 170.28Z" fill="#212121"/>
<path d="M237.421 63.3413C237.324 63.3412 237.229 63.3154 237.146 63.2666C237.062 63.2177 236.993 63.1475 236.946 63.0633C236.898 62.979 236.874 62.8836 236.876 62.7869C236.877 62.6902 236.904 62.5956 236.954 62.5129L241.23 55.4506C241.305 55.3268 241.426 55.2378 241.567 55.2033C241.708 55.1687 241.856 55.1914 241.98 55.2664C242.104 55.3414 242.193 55.4625 242.227 55.603C242.262 55.7436 242.239 55.8921 242.164 56.016L237.888 63.0783C237.84 63.1587 237.771 63.2251 237.689 63.2712C237.607 63.3173 237.515 63.3414 237.421 63.3413Z" fill="#212121"/>
<path fill-rule="evenodd" clip-rule="evenodd" d="M211.552 31.9583C212.519 32.9569 213.246 34.1636 213.674 35.486C214.103 36.8085 214.224 38.2115 214.027 39.5877C213.83 40.9639 213.32 42.2767 212.537 43.4256C211.754 44.5745 210.718 45.529 209.509 46.2159L209.869 51.7016C209.972 53.3277 209.43 54.929 208.361 56.1592C207.293 57.3893 205.783 58.1496 204.158 58.2756C202.533 58.4015 200.924 57.8831 199.678 56.8324C198.433 55.7816 197.651 54.283 197.502 52.6605L196.524 41.6733L194.435 29.4843V26.5739L200.804 23.4814L207.9 24.2091" fill="white"/>
<path d="M203.668 58.8449C201.982 58.8529 200.356 58.2259 199.112 57.0888C197.869 55.9516 197.1 54.3878 196.958 52.709L195.982 41.7442L193.898 29.5769C193.893 29.5464 193.89 29.5156 193.89 29.4847V26.5742C193.89 26.4717 193.919 26.3713 193.973 26.2845C194.028 26.1976 194.105 26.1278 194.197 26.083L200.566 22.9906C200.657 22.9458 200.759 22.9278 200.86 22.9386L207.956 23.6662C208.028 23.6725 208.098 23.6931 208.162 23.7267C208.227 23.7603 208.283 23.8064 208.329 23.8622C208.376 23.9179 208.41 23.9823 208.431 24.0516C208.452 24.1208 208.459 24.1936 208.452 24.2656C208.444 24.3376 208.423 24.4074 208.388 24.4709C208.354 24.5345 208.307 24.5905 208.25 24.6358C208.194 24.681 208.129 24.7146 208.059 24.7345C207.99 24.7544 207.917 24.7603 207.845 24.7519L200.903 24.0404L194.981 26.9158V29.4383L197.062 41.5816C197.065 41.5962 197.067 41.6107 197.068 41.6255L198.045 52.6126C198.164 54.0194 198.809 55.3296 199.852 56.2823C200.894 57.2351 202.257 57.7604 203.669 57.7536C203.793 57.7536 203.916 57.7498 204.042 57.7418C205.537 57.6415 206.931 56.954 207.921 55.8294C208.911 54.7047 209.416 53.2342 209.325 51.7389L208.966 46.2528C208.959 46.1507 208.981 46.0488 209.03 45.9587C209.078 45.8687 209.151 45.7941 209.24 45.7435C210.377 45.0978 211.35 44.2007 212.086 43.1209C212.822 42.041 213.302 40.8071 213.487 39.5136C213.673 38.2201 213.56 36.9013 213.157 35.6582C212.754 34.4151 212.072 33.2806 211.163 32.3417C211.064 32.2378 211.01 32.0991 211.012 31.9557C211.015 31.8122 211.074 31.6756 211.176 31.5752C211.279 31.4749 211.417 31.419 211.56 31.4197C211.704 31.4203 211.841 31.4774 211.943 31.5786C212.949 32.6159 213.709 33.8657 214.167 35.2357C214.625 36.6057 214.77 38.0611 214.591 39.4946C214.412 40.928 213.914 42.3031 213.132 43.5183C212.351 44.7335 211.307 45.758 210.077 46.5162L210.414 51.6678C210.524 53.4519 209.922 55.2069 208.742 56.5493C207.561 57.8918 205.897 58.7126 204.113 58.8325C203.964 58.8403 203.814 58.8449 203.668 58.8449Z" fill="#212121"/>
<path fill-rule="evenodd" clip-rule="evenodd" d="M194.974 31.2854C195.008 30.1965 195.257 29.1251 195.706 28.1325C196.155 27.1399 196.796 26.2458 197.592 25.5014C198.387 24.7569 199.322 24.1768 200.343 23.7944C201.363 23.4119 202.449 23.2346 203.538 23.2726C204.627 23.3106 205.698 23.5632 206.689 24.0159C207.68 24.4685 208.572 25.1124 209.314 25.9105C210.056 26.7086 210.632 27.6452 211.011 28.6667C211.39 29.6882 211.564 30.7744 211.522 31.863" fill="white"/>
<path d="M211.522 32.4089H211.503C211.358 32.4038 211.221 32.3416 211.123 32.2359C211.024 32.1301 210.971 31.9895 210.976 31.845C211.014 30.829 210.851 29.8156 210.496 28.8627C210.141 27.9098 209.602 27.0362 208.91 26.2919C208.217 25.5476 207.384 24.9472 206.459 24.5251C205.534 24.103 204.535 23.8675 203.518 23.832C202.502 23.7965 201.489 23.9618 200.536 24.3183C199.584 24.6749 198.711 25.2157 197.968 25.9099C197.225 26.6041 196.627 27.4379 196.206 28.3637C195.786 29.2895 195.553 30.2891 195.52 31.3052C195.517 31.3769 195.5 31.4474 195.471 31.5126C195.441 31.5779 195.399 31.6366 195.346 31.6855C195.294 31.7345 195.232 31.7726 195.165 31.7977C195.098 31.8228 195.026 31.8344 194.955 31.8319C194.883 31.8294 194.812 31.8129 194.747 31.7831C194.682 31.7534 194.623 31.7111 194.574 31.6587C194.525 31.6062 194.487 31.5447 194.462 31.4775C194.437 31.4103 194.425 31.3389 194.428 31.2672C194.519 28.9358 195.531 26.7356 197.241 25.1481C198.952 23.5605 201.221 22.715 203.554 22.7964C205.886 22.8778 208.091 23.8796 209.687 25.5825C211.282 27.2855 212.138 29.5509 212.066 31.883C212.061 32.024 212.002 32.1575 211.9 32.2556C211.799 32.3536 211.663 32.4086 211.522 32.4089Z" fill="#212121"/>
<path d="M206.843 33.9793C206.714 33.9795 206.589 33.9338 206.49 33.8504C206.391 33.7671 206.326 33.6514 206.304 33.5241C206.283 33.3967 206.307 33.2659 206.373 33.1549C206.439 33.0439 206.542 32.9598 206.664 32.9177L208.364 32.3298L205.8 29.0737C205.711 28.96 205.67 28.8153 205.687 28.6716C205.704 28.5279 205.778 28.3968 205.891 28.3073C206.005 28.2178 206.15 28.1771 206.294 28.1943C206.437 28.2114 206.569 28.2849 206.658 28.3986L209.697 32.258C209.75 32.3263 209.787 32.4066 209.804 32.4921C209.82 32.5775 209.816 32.6657 209.792 32.7492C209.767 32.8327 209.723 32.9091 209.663 32.9721C209.603 33.0351 209.529 33.0828 209.446 33.1113L207.022 33.9499C206.964 33.9696 206.904 33.9795 206.843 33.9793Z" fill="#212121"/>
<path d="M203.703 32.3213C204.217 32.124 204.474 31.5481 204.277 31.0349C204.08 30.5218 203.503 30.2658 202.989 30.4631C202.475 30.6604 202.218 31.2363 202.415 31.7494C202.612 32.2625 203.189 32.5186 203.703 32.3213Z" fill="#212121"/>
<path d="M210.578 30.2988C211.092 30.1015 211.349 29.5256 211.152 29.0125C210.955 28.4994 210.378 28.2433 209.864 28.4406C209.35 28.6379 209.093 29.2138 209.29 29.727C209.487 30.2401 210.063 30.4961 210.578 30.2988Z" fill="#212121"/>
<path d="M197.22 34.265C197.345 34.3273 197.712 34.3735 198.321 34.4034L196.918 27.6893L204.475 25.3414C205.917 25.7447 207.453 25.6423 208.829 25.0513C209.872 24.6094 210.785 23.9092 211.483 23.0166C212.181 22.124 212.639 21.0685 212.816 19.9496C212.992 18.8307 212.881 17.6853 212.492 16.6214C212.103 15.5574 211.45 14.6101 210.593 13.8686C209.737 13.1271 208.705 12.616 207.596 12.3834C206.488 12.1507 205.338 12.2043 204.255 12.539C203.173 12.8737 202.194 13.4786 201.41 14.2965C200.626 15.1144 200.063 16.1184 199.775 17.2139C198.703 16.872 197.556 16.8419 196.467 17.127C195.379 17.4122 194.394 18.0008 193.627 18.8243C192.86 19.6478 192.343 20.6722 192.137 21.7781C191.93 22.884 192.043 24.0258 192.461 25.0704C191.726 25.3054 189.37 27.8354 191.075 33.7784C191.176 34.1308 191.299 34.4766 191.442 34.8138C192.75 34.1082 194.93 33.1299 197.22 34.265Z" fill="#707FDA"/>
<path fill-rule="evenodd" clip-rule="evenodd" d="M197.706 33.9445C197.069 33.2633 196.254 32.774 195.353 32.5318C194.452 32.2896 193.501 32.3043 192.608 32.5741C191.715 32.8438 190.915 33.358 190.299 34.0585C189.683 34.7589 189.276 35.6176 189.122 36.5376C188.969 37.4576 189.076 38.4021 189.432 39.2644C189.787 40.1267 190.377 40.8723 191.134 41.4169C191.892 41.9616 192.786 42.2836 193.717 42.3465C194.648 42.4094 195.578 42.2108 196.401 41.773C196.728 41.6019 197.032 41.3914 197.308 41.1463" fill="white"/>
<path d="M194.047 42.9109C193.501 42.9106 192.958 42.8296 192.436 42.6708C191.74 42.4617 191.093 42.1163 190.532 41.6547C189.971 41.1931 189.508 40.6245 189.169 39.9821C188.547 38.7967 188.375 37.4268 188.683 36.1244C188.992 34.8221 189.761 33.6751 190.848 32.8945C191.936 32.114 193.269 31.7524 194.602 31.8764C195.935 32.0005 197.178 32.6017 198.103 33.5695C198.202 33.6748 198.255 33.8153 198.251 33.9599C198.247 34.1046 198.185 34.2417 198.08 34.341C197.975 34.4403 197.834 34.4937 197.689 34.4895C197.545 34.4853 197.408 34.4237 197.308 34.3184C196.565 33.5422 195.567 33.0603 194.496 32.9613C193.426 32.8622 192.356 33.1528 191.483 33.7795C190.61 34.4061 189.993 35.3268 189.744 36.3723C189.496 37.4177 189.634 38.5177 190.132 39.4698C190.406 39.9849 190.779 40.4407 191.23 40.8112C191.681 41.1817 192.201 41.4595 192.76 41.6286C193.318 41.7978 193.905 41.855 194.486 41.797C195.067 41.7391 195.63 41.567 196.145 41.2907C196.432 41.1403 196.699 40.9554 196.942 40.7403C196.995 40.6913 197.057 40.6534 197.125 40.6287C197.193 40.604 197.265 40.593 197.337 40.5963C197.409 40.5997 197.48 40.6173 197.545 40.6482C197.611 40.6791 197.669 40.7227 197.717 40.7764C197.766 40.83 197.803 40.8927 197.827 40.9609C197.851 41.029 197.861 41.1012 197.857 41.1733C197.852 41.2454 197.834 41.316 197.802 41.3809C197.771 41.4458 197.726 41.5037 197.672 41.5514C197.364 41.8262 197.023 42.0623 196.657 42.2544C195.854 42.6841 194.957 42.9095 194.047 42.9109Z" fill="#212121"/>
<path d="M192.595 39.0921C192.45 39.0959 192.31 39.0421 192.205 38.9424C192.1 38.8428 192.038 38.7055 192.035 38.5607C192.031 38.416 192.085 38.2757 192.184 38.1706C192.284 38.0656 192.421 38.0045 192.566 38.0007L194.526 37.8957L191.969 35.8925C191.859 35.802 191.789 35.672 191.774 35.5305C191.759 35.3889 191.799 35.2469 191.887 35.1349C191.975 35.0228 192.103 34.9495 192.244 34.9306C192.385 34.9117 192.528 34.9487 192.643 35.0338L196.342 37.9343C196.43 38.0028 196.494 38.0963 196.527 38.2024C196.56 38.3085 196.56 38.4221 196.526 38.5281C196.493 38.634 196.428 38.7272 196.34 38.7952C196.252 38.8632 196.146 38.9028 196.035 38.9087L192.624 39.0906C192.615 39.0921 192.605 39.0921 192.595 39.0921Z" fill="#212121"/>
<path d="M208.114 37.5664C207.624 37.566 207.139 37.4798 206.679 37.3118C206.612 37.2873 206.55 37.2497 206.497 37.2013C206.444 37.1529 206.402 37.0945 206.371 37.0295C206.341 36.9646 206.324 36.8943 206.321 36.8227C206.318 36.7511 206.329 36.6796 206.353 36.6123C206.378 36.5449 206.415 36.4831 206.464 36.4302C206.512 36.3774 206.571 36.3346 206.636 36.3043C206.701 36.2741 206.771 36.2569 206.842 36.2538C206.914 36.2507 206.986 36.2617 207.053 36.2862C207.736 36.5377 208.486 36.5376 209.168 36.2858C209.851 36.0341 210.421 35.5472 210.777 34.9126C210.811 34.8493 210.858 34.7934 210.915 34.7483C210.971 34.7032 211.036 34.6698 211.106 34.6499C211.175 34.6301 211.248 34.6242 211.319 34.6327C211.391 34.6411 211.461 34.6637 211.524 34.6992C211.586 34.7346 211.642 34.7822 211.686 34.8392C211.731 34.8962 211.763 34.9614 211.782 35.0311C211.801 35.1008 211.806 35.1735 211.797 35.2452C211.788 35.3168 211.764 35.3858 211.728 35.4483C211.368 36.0907 210.844 36.6255 210.208 36.9978C209.573 37.3701 208.85 37.5664 208.114 37.5664Z" fill="#212121"/>
<path d="M204.263 63.5459C201.379 63.5456 198.602 62.4508 196.494 60.4827C194.385 58.5145 193.103 55.8198 192.905 52.9428C192.895 52.7984 192.943 52.656 193.038 52.5468C193.133 52.4376 193.267 52.3707 193.412 52.3607C193.556 52.3507 193.699 52.3985 193.808 52.4935C193.917 52.5886 193.984 52.7231 193.994 52.8675C194.097 54.3579 194.523 55.808 195.243 57.1174C195.963 58.4267 196.958 59.5639 198.162 60.4502C199.365 61.3364 200.746 61.9505 202.21 62.2498C203.674 62.5492 205.186 62.5266 206.64 62.1837C208.095 61.8408 209.457 61.1858 210.633 60.264C211.809 59.3423 212.77 58.1758 213.451 56.8456C214.131 55.5154 214.514 54.0532 214.572 52.5603C214.631 51.0675 214.364 49.5798 213.79 48.2003C213.735 48.0666 213.735 47.9164 213.79 47.7826C213.845 47.6488 213.952 47.5425 214.085 47.487C214.219 47.4315 214.369 47.4314 214.503 47.4867C214.637 47.542 214.743 47.6482 214.799 47.7819C215.519 49.5139 215.801 51.397 215.618 53.2638C215.436 55.1307 214.795 56.9235 213.752 58.4832C212.71 60.0428 211.298 61.321 209.643 62.2041C207.988 63.0873 206.14 63.5481 204.264 63.5456L204.263 63.5459Z" fill="#212121"/>
<path d="M189.109 92.4246C188.964 92.4246 188.825 92.3671 188.723 92.2648C188.62 92.1625 188.563 92.0237 188.563 91.8789V73.6883C188.563 73.5436 188.62 73.4048 188.723 73.3024C188.825 73.2001 188.964 73.1426 189.109 73.1426C189.254 73.1426 189.392 73.2001 189.495 73.3024C189.597 73.4048 189.655 73.5436 189.655 73.6883V91.8789C189.655 92.0237 189.597 92.1625 189.495 92.2648C189.392 92.3671 189.254 92.4246 189.109 92.4246Z" fill="#212121"/>
<path d="M343.534 186.594C343.506 186.599 343.477 186.601 343.449 186.601L29.2213 186.619C29.0757 186.619 28.9361 186.561 28.8333 186.459C28.7305 186.356 28.6728 186.217 28.6731 186.073C28.6733 185.928 28.7314 185.789 28.8345 185.687C28.9376 185.584 29.0774 185.527 29.223 185.527L343.451 185.509C343.589 185.508 343.723 185.56 343.824 185.654C343.926 185.747 343.988 185.875 343.999 186.013C344.009 186.15 343.967 186.286 343.881 186.394C343.795 186.502 343.671 186.573 343.534 186.594Z" fill="#212121"/>
</g>
<defs>
<clipPath id="clip0">
<rect width="348.444" height="196" fill="white"/>
</clipPath>
</defs>
</svg>
