<svg width="60" height="30" viewBox="0 0 60 30" fill="none" xmlns="http://www.w3.org/2000/svg">
<path d="M57.6562 10.7812C57.6562 14.3672 55.582 18.0469 51.4922 21.7266C49.635 23.3961 47.6129 24.8725 45.457 26.1328C45.317 26.2097 45.1598 26.2501 45 26.2501C44.8402 26.2501 44.683 26.2097 44.543 26.1328C44.0391 25.8516 32.3438 19.207 32.3438 10.7812C32.3438 9.30551 32.8081 7.86719 33.671 6.67001C34.5338 5.47283 35.7515 4.57749 37.1515 4.11082C38.5515 3.64415 40.0629 3.62981 41.4715 4.06983C42.8801 4.50984 44.1146 5.38191 45 6.5625C45.8854 5.38191 47.1199 4.50984 48.5285 4.06983C49.9371 3.62981 51.4485 3.64415 52.8485 4.11082C54.2485 4.57749 55.4662 5.47283 56.329 6.67001C57.1919 7.86719 57.6562 9.30551 57.6562 10.7812Z" fill="#FF6055"/>
<path d="M15 26.25C14.84 26.2516 14.6824 26.2112 14.543 26.1328C14.0391 25.8516 2.34375 19.207 2.34375 10.7812C2.34375 9.30551 2.80808 7.86719 3.67095 6.67001C4.53383 5.47283 5.75152 4.57749 7.15152 4.11082C8.55153 3.64415 10.0629 3.62981 11.4715 4.06983C12.8801 4.50984 14.1146 5.38191 15 6.5625C15.8854 5.38191 17.1199 4.50984 18.5285 4.06983C19.9371 3.62981 21.4485 3.64415 22.8485 4.11082C24.2485 4.57749 25.4662 5.47283 26.329 6.67001C27.1919 7.86719 27.6562 9.30551 27.6562 10.7812C27.6562 14.3672 25.582 18.0469 21.4922 21.7266C19.635 23.3961 17.6129 24.8725 15.457 26.1328C15.3176 26.2112 15.16 26.2516 15 26.25ZM9.375 5.625C8.00748 5.625 6.69597 6.16825 5.72898 7.13523C4.762 8.10222 4.21875 9.41373 4.21875 10.7812C4.21875 17.25 12.8906 22.9336 15 24.2227C17.1094 22.9336 25.7812 17.25 25.7812 10.7812C25.7823 9.58925 25.3704 8.43369 24.6155 7.51118C23.8606 6.58866 22.8095 5.95619 21.6408 5.72135C20.4722 5.48652 19.2583 5.66384 18.2056 6.22314C17.153 6.78244 16.3266 7.68917 15.8672 8.78906C15.7966 8.96101 15.6764 9.10808 15.522 9.21158C15.3676 9.31508 15.1859 9.37034 15 9.37034C14.8141 9.37034 14.6324 9.31508 14.478 9.21158C14.3236 9.10808 14.2034 8.96101 14.1328 8.78906C13.7426 7.84953 13.082 7.04714 12.2349 6.48379C11.3878 5.92043 10.3923 5.62152 9.375 5.625Z" fill="#BBBEBF"/>
</svg>
