<svg width="70" height="15" viewBox="0 0 70 15" fill="none" xmlns="http://www.w3.org/2000/svg">
<path d="M5.21175 3.56189C6.56874 3.56189 7.67968 3.90112 8.54458 4.57959C9.08141 4.2256 9.6257 3.96749 10.1774 3.80525C10.7441 3.64301 11.3779 3.56189 12.0787 3.56189C12.6752 3.56189 13.2419 3.64301 13.7787 3.80525C14.3304 3.95274 14.8076 4.17398 15.2102 4.46897C16.1348 5.16218 16.5971 6.22413 16.5971 7.65481V13.6061C16.5971 14.1076 16.4703 14.4468 16.2168 14.6238C15.9633 14.7861 15.6725 14.8598 15.3445 14.8451L14.8971 14.8229C14.1366 14.8229 13.5923 14.6902 13.2642 14.4247C12.9511 14.1592 12.7945 13.702 12.7945 13.053V7.76543C12.7945 6.92472 12.3248 6.50436 11.3853 6.50436C11.2213 6.50436 11.02 6.55598 10.7814 6.65923C10.5428 6.74773 10.3415 6.8436 10.1774 6.94684C10.1924 6.96159 10.1998 7.01321 10.1998 7.10171V13.6061C10.1998 14.1076 10.0731 14.4468 9.81956 14.6238C9.56605 14.7861 9.27527 14.8598 8.94721 14.8451L8.49985 14.8229C7.73933 14.8229 7.19504 14.6902 6.86698 14.4247C6.55383 14.1592 6.39725 13.702 6.39725 13.053V7.76543C6.39725 7.36719 6.2705 7.05746 6.017 6.83622C5.7784 6.61498 5.43543 6.50436 4.98807 6.50436C4.57053 6.50436 4.17536 6.62236 3.80256 6.85835V13.6061C3.80256 14.1076 3.67581 14.4468 3.42231 14.6238C3.1688 14.7861 2.87802 14.8598 2.54995 14.8451L2.10259 14.8229C1.34208 14.8229 0.797792 14.6902 0.469728 14.4247C0.156576 14.1592 0 13.702 0 13.053V6.37162C0 6.01764 0.0745601 5.72265 0.22368 5.48666C0.3728 5.23593 0.618848 4.99256 0.961825 4.75658C1.46883 4.40259 2.10259 4.11498 2.86311 3.89374C3.63853 3.67251 4.42141 3.56189 5.21175 3.56189Z" fill="white"/>
<path d="M24.1678 7.8318C24.1678 7.38932 24.041 7.05746 23.7875 6.83622C23.534 6.61498 23.1761 6.50436 22.7138 6.50436C22.0577 6.50436 21.5134 6.65186 21.081 6.94684V13.6061C21.081 14.1076 20.9542 14.4468 20.7007 14.6238C20.4472 14.7861 20.1564 14.8598 19.8284 14.8451L19.381 14.8229C18.6205 14.8229 18.0762 14.6902 17.7481 14.4247C17.435 14.1592 17.2784 13.702 17.2784 13.053V6.41587C17.2784 6.04714 17.353 5.7374 17.5021 5.48666C17.6512 5.23593 17.8973 4.99256 18.2402 4.75658C18.792 4.38784 19.4556 4.10023 20.231 3.89374C21.0064 3.67251 21.834 3.56189 22.7138 3.56189C24.3989 3.56189 25.6962 3.93062 26.6059 4.66808C27.5155 5.39079 27.9703 6.40112 27.9703 7.69905V13.6061C27.9703 14.1076 27.8436 14.4468 27.5901 14.6238C27.3366 14.7861 27.0458 14.8598 26.7177 14.8451L26.2704 14.8229C25.5098 14.8229 24.9656 14.6902 24.6375 14.4247C24.3243 14.1592 24.1678 13.702 24.1678 13.053V7.8318Z" fill="white"/>
<path d="M35.1791 5.37604C35.2984 4.87457 35.5146 4.54271 35.8278 4.38047C36.1559 4.20348 36.6107 4.11498 37.1922 4.11498C37.8335 4.11498 38.3554 4.21085 38.758 4.40259C39.1755 4.57959 39.429 4.84507 39.5185 5.19905C39.7124 5.93652 39.8689 6.49699 39.9882 6.88047L40.3909 8.38489C40.7488 9.68283 41.0023 10.6563 41.1514 11.3052H41.2632C41.4123 10.376 41.6286 8.70938 41.9119 6.30525L42.1803 3.96012L42.3592 1.52649C42.404 0.995515 42.5755 0.641533 42.8737 0.464541C43.1869 0.28755 43.6342 0.199054 44.2158 0.199054C44.857 0.199054 45.3566 0.331797 45.7145 0.597284C46.0723 0.848022 46.2513 1.2315 46.2513 1.74773C46.2513 2.54419 46.1245 3.90112 45.871 5.81852C45.6175 7.73593 45.3342 9.3731 45.021 10.73C44.7079 11.9985 44.4693 12.9055 44.3053 13.4513C44.1263 13.9675 43.8281 14.3067 43.4105 14.469C42.8439 14.705 42.1654 14.8229 41.3751 14.8229C40.6444 14.8229 40.0404 14.7345 39.5632 14.5575C39.101 14.3657 38.8176 14.1002 38.7133 13.761C38.4299 12.876 37.9826 11.2831 37.3712 8.98224C36.9387 10.8701 36.5883 12.3377 36.3199 13.3849C36.2453 13.6946 36.1409 13.938 36.0067 14.115C35.8725 14.2772 35.6936 14.41 35.4699 14.5132C34.9182 14.7197 34.3068 14.8229 33.6357 14.8229C32.905 14.8229 32.2787 14.7345 31.7568 14.5575C31.2498 14.3657 30.9143 14.1002 30.7502 13.761C30.5266 13.3038 30.2209 12.3082 29.8332 10.7743C29.4454 9.2256 29.1248 7.72118 28.8713 6.261C28.6626 5.03681 28.4985 3.83475 28.3792 2.65481L28.2898 1.83622C28.2749 1.79197 28.2674 1.71085 28.2674 1.59286C28.2674 1.12088 28.4538 0.774276 28.8266 0.553037C29.2143 0.317049 29.699 0.199054 30.2805 0.199054C31.5182 0.199054 32.2116 0.730028 32.3607 1.79198L33.3449 8.96012L33.5463 10.4645L33.6805 11.3052H33.7923L33.9936 10.4424L34.5528 8.14153L35.1791 5.37604Z" fill="white"/>
<path d="M57.6123 13.6061C57.6123 14.1076 57.4856 14.4468 57.2321 14.6238C56.9785 14.7861 56.6878 14.8598 56.3597 14.8451L55.9123 14.8229C55.1518 14.8229 54.6075 14.6902 54.2795 14.4247C53.9663 14.1592 53.8097 13.702 53.8097 13.053V8.14153C53.8097 7.05009 53.2804 6.50436 52.2216 6.50436C51.655 6.50436 51.1554 6.62973 50.723 6.88047V13.6061C50.723 14.1076 50.5962 14.4468 50.3427 14.6238C50.0892 14.7861 49.7984 14.8598 49.4704 14.8451L49.023 14.8229C48.2625 14.8229 47.7182 14.6902 47.3901 14.4247C47.077 14.1592 46.9204 13.702 46.9204 13.053V1.23888C46.9204 0.737402 47.0322 0.405544 47.2559 0.243303C47.4796 0.0810602 47.7704 -6.10352e-05 48.1283 -6.10352e-05L48.6204 0.0220639C49.3809 0.0220639 49.9177 0.154807 50.2309 0.420294C50.5589 0.685781 50.723 1.14301 50.723 1.79198V3.96012C51.0063 3.85687 51.3493 3.76838 51.7519 3.69463C52.1545 3.60613 52.5422 3.56189 52.915 3.56189C54.4361 3.56189 55.5992 3.93799 56.4044 4.6902C57.2097 5.42767 57.6123 6.50436 57.6123 7.92029V13.6061Z" fill="white"/>
<path d="M70 9.26985C70 11.0693 69.4706 12.4778 68.4119 13.4955C67.368 14.4985 65.9439 14.9999 64.1396 14.9999C62.3651 14.9999 60.9559 14.4837 59.912 13.4513C58.8234 12.4483 58.2792 11.0545 58.2792 9.26985C58.2792 8.41439 58.4208 7.63268 58.7042 6.92472C58.9875 6.202 59.3901 5.58991 59.912 5.08844C60.9857 4.07074 62.3949 3.56189 64.1396 3.56189C64.9896 3.56189 65.7799 3.69463 66.5106 3.96012C67.2413 4.2256 67.8676 4.60908 68.3895 5.11056C68.9114 5.61203 69.3066 6.22413 69.575 6.94684C69.8583 7.65481 70 8.42914 70 9.26985ZM62.1712 9.26985C62.1712 10.1548 62.3427 10.8406 62.6857 11.3274C63.0435 11.8141 63.5356 12.0575 64.1619 12.0575C64.7882 12.0575 65.2654 11.8141 65.5935 11.3274C65.9365 10.8406 66.108 10.1548 66.108 9.26985C66.108 8.38489 65.9365 7.70643 65.5935 7.23445C65.2505 6.74773 64.7659 6.50436 64.1396 6.50436C63.5133 6.50436 63.0286 6.74773 62.6857 7.23445C62.3427 7.70643 62.1712 8.38489 62.1712 9.26985Z" fill="white"/>
</svg>
