<svg width="70" height="15" viewBox="0 0 70 15" fill="none" xmlns="http://www.w3.org/2000/svg">
<path d="M5.21175 3.56195C6.56874 3.56195 7.67968 3.90118 8.54458 4.57965C9.08141 4.22566 9.6257 3.96755 10.1774 3.80531C10.7441 3.64307 11.3779 3.56195 12.0787 3.56195C12.6752 3.56195 13.2419 3.64307 13.7787 3.80531C14.3304 3.9528 14.8076 4.17404 15.2102 4.46903C16.1348 5.16224 16.5971 6.22419 16.5971 7.65487V13.6062C16.5971 14.1077 16.4703 14.4469 16.2168 14.6239C15.9633 14.7861 15.6725 14.8599 15.3445 14.8451L14.8971 14.823C14.1366 14.823 13.5923 14.6903 13.2642 14.4248C12.9511 14.1593 12.7945 13.7021 12.7945 13.0531V7.76549C12.7945 6.92478 12.3248 6.50442 11.3853 6.50442C11.2213 6.50442 11.02 6.55605 10.7814 6.65929C10.5428 6.74779 10.3415 6.84366 10.1774 6.9469C10.1924 6.96165 10.1998 7.01327 10.1998 7.10177V13.6062C10.1998 14.1077 10.0731 14.4469 9.81956 14.6239C9.56605 14.7861 9.27527 14.8599 8.94721 14.8451L8.49985 14.823C7.73933 14.823 7.19504 14.6903 6.86698 14.4248C6.55383 14.1593 6.39725 13.7021 6.39725 13.0531V7.76549C6.39725 7.36726 6.2705 7.05752 6.017 6.83628C5.7784 6.61504 5.43543 6.50442 4.98807 6.50442C4.57053 6.50442 4.17536 6.62242 3.80256 6.85841V13.6062C3.80256 14.1077 3.67581 14.4469 3.42231 14.6239C3.1688 14.7861 2.87802 14.8599 2.54995 14.8451L2.10259 14.823C1.34208 14.823 0.797792 14.6903 0.469728 14.4248C0.156576 14.1593 0 13.7021 0 13.0531V6.37168C0 6.0177 0.0745601 5.72271 0.22368 5.48673C0.3728 5.23599 0.618848 4.99263 0.961825 4.75664C1.46883 4.40266 2.10259 4.11504 2.86311 3.89381C3.63853 3.67257 4.42141 3.56195 5.21175 3.56195Z" fill="#707FDA"/>
<path d="M24.1678 7.83186C24.1678 7.38938 24.041 7.05752 23.7875 6.83628C23.534 6.61504 23.1761 6.50442 22.7138 6.50442C22.0577 6.50442 21.5134 6.65192 21.081 6.9469V13.6062C21.081 14.1077 20.9542 14.4469 20.7007 14.6239C20.4472 14.7861 20.1564 14.8599 19.8284 14.8451L19.381 14.823C18.6205 14.823 18.0762 14.6903 17.7481 14.4248C17.435 14.1593 17.2784 13.7021 17.2784 13.0531V6.41593C17.2784 6.0472 17.353 5.73746 17.5021 5.48673C17.6512 5.23599 17.8973 4.99263 18.2402 4.75664C18.792 4.38791 19.4556 4.1003 20.231 3.89381C21.0064 3.67257 21.834 3.56195 22.7138 3.56195C24.3989 3.56195 25.6962 3.93068 26.6059 4.66814C27.5155 5.39085 27.9703 6.40118 27.9703 7.69912V13.6062C27.9703 14.1077 27.8436 14.4469 27.5901 14.6239C27.3366 14.7861 27.0458 14.8599 26.7177 14.8451L26.2704 14.823C25.5098 14.823 24.9656 14.6903 24.6375 14.4248C24.3243 14.1593 24.1678 13.7021 24.1678 13.0531V7.83186Z" fill="#707FDA"/>
<path d="M35.1791 5.37611C35.2984 4.87463 35.5146 4.54277 35.8278 4.38053C36.1559 4.20354 36.6107 4.11505 37.1922 4.11505C37.8335 4.11505 38.3554 4.21092 38.758 4.40266C39.1755 4.57965 39.429 4.84513 39.5185 5.19912C39.7124 5.93658 39.8689 6.49705 39.9882 6.88053L40.3909 8.38496C40.7488 9.68289 41.0023 10.6563 41.1514 11.3053H41.2632C41.4123 10.3761 41.6286 8.70944 41.9119 6.30531L42.1803 3.96018L42.3592 1.52655C42.404 0.995576 42.5755 0.641594 42.8737 0.464602C43.1869 0.287611 43.6342 0.199116 44.2158 0.199116C44.857 0.199116 45.3566 0.331858 45.7145 0.597345C46.0723 0.848083 46.2513 1.23156 46.2513 1.74779C46.2513 2.54425 46.1245 3.90118 45.871 5.81858C45.6175 7.73599 45.3342 9.37316 45.021 10.7301C44.7079 11.9985 44.4693 12.9056 44.3053 13.4513C44.1263 13.9676 43.8281 14.3068 43.4105 14.469C42.8439 14.705 42.1654 14.823 41.3751 14.823C40.6444 14.823 40.0404 14.7345 39.5632 14.5575C39.101 14.3658 38.8176 14.1003 38.7133 13.7611C38.4299 12.8761 37.9826 11.2832 37.3712 8.9823C36.9387 10.8702 36.5883 12.3378 36.3199 13.385C36.2453 13.6947 36.1409 13.9381 36.0067 14.115C35.8725 14.2773 35.6936 14.41 35.4699 14.5133C34.9182 14.7198 34.3068 14.823 33.6357 14.823C32.905 14.823 32.2787 14.7345 31.7568 14.5575C31.2498 14.3658 30.9143 14.1003 30.7502 13.7611C30.5266 13.3038 30.2209 12.3083 29.8332 10.7743C29.4454 9.22566 29.1248 7.72124 28.8713 6.26106C28.6626 5.03687 28.4985 3.83481 28.3792 2.65487L28.2898 1.83628C28.2749 1.79204 28.2674 1.71091 28.2674 1.59292C28.2674 1.12094 28.4538 0.774337 28.8266 0.553098C29.2143 0.31711 29.699 0.199116 30.2805 0.199116C31.5182 0.199116 32.2116 0.730089 32.3607 1.79204L33.3449 8.96018L33.5463 10.4646L33.6805 11.3053H33.7923L33.9936 10.4425L34.5528 8.14159L35.1791 5.37611Z" fill="#707FDA"/>
<path d="M57.6123 13.6062C57.6123 14.1077 57.4856 14.4469 57.2321 14.6239C56.9785 14.7861 56.6878 14.8599 56.3597 14.8451L55.9123 14.823C55.1518 14.823 54.6075 14.6903 54.2795 14.4248C53.9663 14.1593 53.8097 13.7021 53.8097 13.0531V8.14159C53.8097 7.05015 53.2804 6.50442 52.2216 6.50442C51.655 6.50442 51.1554 6.62979 50.723 6.88053V13.6062C50.723 14.1077 50.5962 14.4469 50.3427 14.6239C50.0892 14.7861 49.7984 14.8599 49.4704 14.8451L49.023 14.823C48.2625 14.823 47.7182 14.6903 47.3901 14.4248C47.077 14.1593 46.9204 13.7021 46.9204 13.0531V1.23894C46.9204 0.737463 47.0322 0.405605 47.2559 0.243364C47.4796 0.0811212 47.7704 0 48.1283 0L48.6204 0.0221249C49.3809 0.0221249 49.9177 0.154868 50.2309 0.420355C50.5589 0.685842 50.723 1.14307 50.723 1.79204V3.96018C51.0063 3.85693 51.3493 3.76844 51.7519 3.69469C52.1545 3.60619 52.5422 3.56195 52.915 3.56195C54.4361 3.56195 55.5992 3.93805 56.4044 4.69027C57.2097 5.42773 57.6123 6.50442 57.6123 7.92035V13.6062Z" fill="#707FDA"/>
<path d="M70 9.26991C70 11.0693 69.4706 12.4779 68.4119 13.4956C67.368 14.4985 65.9439 15 64.1396 15C62.3651 15 60.9559 14.4838 59.912 13.4513C58.8234 12.4484 58.2792 11.0546 58.2792 9.26991C58.2792 8.41445 58.4208 7.63274 58.7042 6.92478C58.9875 6.20207 59.3901 5.58997 59.912 5.0885C60.9857 4.0708 62.3949 3.56195 64.1396 3.56195C64.9896 3.56195 65.7799 3.69469 66.5106 3.96018C67.2413 4.22566 67.8676 4.60914 68.3895 5.11062C68.9114 5.61209 69.3066 6.22419 69.575 6.9469C69.8583 7.65487 70 8.4292 70 9.26991ZM62.1712 9.26991C62.1712 10.1549 62.3427 10.8407 62.6857 11.3274C63.0435 11.8142 63.5356 12.0575 64.1619 12.0575C64.7882 12.0575 65.2654 11.8142 65.5935 11.3274C65.9365 10.8407 66.108 10.1549 66.108 9.26991C66.108 8.38496 65.9365 7.70649 65.5935 7.23451C65.2505 6.74779 64.7659 6.50442 64.1396 6.50442C63.5133 6.50442 63.0286 6.74779 62.6857 7.23451C62.3427 7.70649 62.1712 8.38496 62.1712 9.26991Z" fill="#707FDA"/>
</svg>
