<svg width="186" height="18" viewBox="0 0 186 18" fill="none" xmlns="http://www.w3.org/2000/svg">
<g clip-path="url(#clip0_15297_5799)">
<path d="M27.9789 11.3568C27.9789 11.6681 27.9409 11.9941 27.865 12.335H19.778C19.8236 12.9575 19.9678 13.3873 20.2108 13.6245C20.4538 13.8468 20.7727 13.958 21.1676 13.958C21.7143 13.958 22.1092 13.7134 22.3522 13.2243H27.7055C27.5232 14.1136 27.136 14.9139 26.5437 15.6253C25.9666 16.3219 25.2301 16.8778 24.334 17.2927C23.4532 17.6929 22.4812 17.893 21.4181 17.893C20.1425 17.893 19.0034 17.6336 18.0011 17.1149C17.014 16.5961 16.2394 15.855 15.6775 14.8917C15.1308 13.9135 14.8574 12.7723 14.8574 11.4679C14.8574 10.1637 15.1308 9.02988 15.6775 8.0665C16.2394 7.0883 17.014 6.33981 18.0011 5.82108C19.0034 5.30234 20.1425 5.04297 21.4181 5.04297C22.6938 5.04297 23.8253 5.30234 24.8124 5.82108C25.8147 6.32503 26.5893 7.05124 27.136 7.99978C27.6979 8.94838 27.9789 10.0674 27.9789 11.3568ZM22.8533 10.3119C22.8533 9.83764 22.7166 9.48931 22.4432 9.26704C22.1699 9.02988 21.8282 8.91132 21.4181 8.91132C20.4917 8.91132 19.9602 9.37821 19.8236 10.3119H22.8533Z" fill="#707FDA"/>
<path d="M35.4553 5.04297C37.1258 5.04297 38.5306 5.50243 39.6696 6.42137C40.8238 7.34023 41.5527 8.61488 41.8565 10.2452H36.5031C36.3057 9.59309 35.9185 9.26704 35.3413 9.26704C34.9313 9.26704 34.6047 9.45232 34.3618 9.82281C34.134 10.1934 34.0201 10.7417 34.0201 11.4679C34.0201 12.1942 34.134 12.7426 34.3618 13.1131C34.6047 13.4836 34.9313 13.6689 35.3413 13.6689C35.9185 13.6689 36.3057 13.3429 36.5031 12.6907H41.8565C41.5527 14.3211 40.8238 15.5957 39.6696 16.5146C38.5306 17.4335 37.1258 17.893 35.4553 17.893C34.1795 17.893 33.0405 17.6336 32.0382 17.1149C31.051 16.5961 30.2765 15.855 29.7146 14.8917C29.1679 13.9135 28.8945 12.7723 28.8945 11.4679C28.8945 10.1637 29.1679 9.02988 29.7146 8.0665C30.2765 7.0883 31.051 6.33981 32.0382 5.82108C33.0405 5.30234 34.1795 5.04297 35.4553 5.04297Z" fill="#707FDA"/>
<path d="M52.4591 5.10903C53.9322 5.10903 55.0789 5.59073 55.8989 6.55412C56.7342 7.5175 57.1519 8.82175 57.1519 10.4669V17.7367H52.1174V11.0894C52.1174 10.4966 51.9504 10.0297 51.6162 9.68879C51.2973 9.33307 50.8645 9.15525 50.3178 9.15525C49.7559 9.15525 49.3154 9.33307 48.9966 9.68879C48.6776 10.0297 48.5182 10.4966 48.5182 11.0894V17.7367H43.4609V1.28516H48.5182V7.10989C48.913 6.51707 49.437 6.03536 50.09 5.66483C50.7582 5.2943 51.5479 5.10903 52.4591 5.10903Z" fill="#707FDA"/>
<path d="M66.7484 4.30879C66.4751 4.27914 66.2852 4.26432 66.1789 4.26432C65.7992 4.26432 65.5107 4.33842 65.3133 4.48664C65.1158 4.62003 64.9791 4.85717 64.9032 5.19806H66.7484V9.31095H64.8576V17.7368H59.8004V9.31095H58.4336V5.19806H59.8004C59.8308 3.56772 60.3548 2.30792 61.3723 1.41864C62.405 0.514548 63.8477 0.0625 65.7005 0.0625C65.9131 0.0625 66.2624 0.0773208 66.7484 0.106962V4.30879Z" fill="#707FDA"/>
<path d="M73.1668 1.28516V17.7367H68.1094V1.28516H73.1668Z" fill="#707FDA"/>
<path d="M89.0505 5.19531V17.7341H83.9931V15.8222C83.5981 16.415 83.0664 16.8967 82.3986 17.2672C81.7455 17.6377 80.9632 17.823 80.0518 17.823C78.5788 17.823 77.4245 17.3413 76.5894 16.3779C75.7696 15.4145 75.3594 14.1103 75.3594 12.4652V5.19531H80.394V11.8427C80.394 12.4355 80.553 12.9098 80.8722 13.2655C81.2061 13.6064 81.6469 13.7768 82.1932 13.7768C82.7554 13.7768 83.1955 13.6064 83.5148 13.2655C83.8334 12.9098 83.9931 12.4355 83.9931 11.8427V5.19531H89.0505Z" fill="#707FDA"/>
<path d="M103.772 11.3568C103.772 11.6681 103.734 11.9941 103.658 12.335H95.5711C95.6169 12.9575 95.7607 13.3873 96.0042 13.6245C96.2472 13.8468 96.5658 13.958 96.9608 13.958C97.5077 13.958 97.9021 13.7134 98.145 13.2243H103.499C103.316 14.1136 102.929 14.9139 102.337 15.6253C101.76 16.3219 101.023 16.8778 100.127 17.2927C99.2466 17.6929 98.2741 17.893 97.2114 17.893C95.9355 17.893 94.7965 17.6336 93.7941 17.1149C92.8071 16.5961 92.0324 15.855 91.4708 14.8917C90.9239 13.9135 90.6504 12.7723 90.6504 11.4679C90.6504 10.1637 90.9239 9.02988 91.4708 8.0665C92.0324 7.0883 92.8071 6.33981 93.7941 5.82108C94.7965 5.30234 95.9355 5.04297 97.2114 5.04297C98.4872 5.04297 99.6186 5.30234 100.606 5.82108C101.608 6.32503 102.383 7.05124 102.929 7.99978C103.491 8.94838 103.772 10.0674 103.772 11.3568ZM98.6462 10.3119C98.6462 9.83764 98.5101 9.48931 98.2366 9.26704C97.9631 9.02988 97.6216 8.91132 97.2114 8.91132C96.2847 8.91132 95.7536 9.37821 95.6169 10.3119H98.6462Z" fill="#707FDA"/>
<path d="M114.369 5.10938C115.843 5.10938 116.989 5.59107 117.809 6.55446C118.644 7.51784 119.062 8.82209 119.062 10.4672V17.7371H114.028V11.0897C114.028 10.4969 113.86 10.03 113.527 9.68913C113.208 9.33342 112.775 9.15559 112.228 9.15559C111.666 9.15559 111.225 9.33342 110.907 9.68913C110.588 10.03 110.429 10.4969 110.429 11.0897V17.7371H105.371V5.19831H110.429V7.11023C110.824 6.51741 111.348 6.0357 112 5.66517C112.669 5.29464 113.458 5.10938 114.369 5.10938Z" fill="#707FDA"/>
<path d="M127.133 5.04297C128.804 5.04297 130.208 5.50243 131.347 6.42137C132.502 7.34023 133.231 8.61488 133.535 10.2452H128.181C127.984 9.59309 127.596 9.26704 127.019 9.26704C126.609 9.26704 126.283 9.45232 126.04 9.82281C125.812 10.1934 125.698 10.7417 125.698 11.4679C125.698 12.1942 125.812 12.7426 126.04 13.1131C126.283 13.4836 126.609 13.6689 127.019 13.6689C127.596 13.6689 127.984 13.3429 128.181 12.6907H133.535C133.231 14.3211 132.502 15.5957 131.347 16.5146C130.208 17.4335 128.804 17.893 127.133 17.893C125.857 17.893 124.718 17.6336 123.716 17.1149C122.729 16.5961 121.954 15.855 121.393 14.8917C120.846 13.9135 120.572 12.7723 120.572 11.4679C120.572 10.1637 120.846 9.02988 121.393 8.0665C121.954 7.0883 122.729 6.33981 123.716 5.82108C124.718 5.30234 125.857 5.04297 127.133 5.04297Z" fill="#707FDA"/>
<path d="M147.576 11.3568C147.576 11.6681 147.538 11.9941 147.463 12.335H139.376C139.421 12.9575 139.565 13.3873 139.808 13.6245C140.051 13.8468 140.371 13.958 140.765 13.958C141.312 13.958 141.707 13.7134 141.95 13.2243H147.303C147.121 14.1136 146.734 14.9139 146.142 15.6253C145.564 16.3219 144.828 16.8778 143.931 17.2927C143.051 17.6929 142.079 17.893 141.016 17.893C139.74 17.893 138.601 17.6336 137.599 17.1149C136.612 16.5961 135.837 15.855 135.275 14.8917C134.729 13.9135 134.455 12.7723 134.455 11.4679C134.455 10.1637 134.729 9.02988 135.275 8.0665C135.837 7.0883 136.612 6.33981 137.599 5.82108C138.601 5.30234 139.74 5.04297 141.016 5.04297C142.291 5.04297 143.423 5.30234 144.41 5.82108C145.412 6.32503 146.187 7.05124 146.734 7.99978C147.295 8.94838 147.576 10.0674 147.576 11.3568ZM142.451 10.3119C142.451 9.83764 142.314 9.48931 142.041 9.26704C141.768 9.02988 141.426 8.91132 141.016 8.91132C140.089 8.91132 139.558 9.37821 139.421 10.3119H142.451Z" fill="#707FDA"/>
<path d="M154.233 7.51039C154.749 6.78418 155.379 6.20615 156.123 5.77633C156.868 5.33169 157.642 5.10938 158.447 5.10938V10.3783H157.012C156.055 10.3783 155.349 10.5413 154.893 10.8675C154.453 11.1935 154.233 11.7715 154.233 12.6015V17.7371H149.176V5.19831H154.233V7.51039Z" fill="#707FDA"/>
<path d="M4.39238 4.01994H1.92969V8.01101L13.6275 6.87261V4.01994H9.75237V-0.0195312L4.39238 0.476222V4.01994Z" fill="#707FDA"/>
<path d="M5.93157 16.1184C4.25751 14.1815 4.39238 12.3936 4.39238 8.72157L9.75237 8.20745C9.73426 9.40705 9.72702 8.66006 9.77048 11.1425C9.81394 13.6249 12.2875 13.4193 13.7724 13.1439L13.9534 17.6607C9.89723 18.2299 7.344 17.7525 5.93157 16.1184Z" fill="#707FDA"/>
</g>
<path d="M164 4.63672H165.352V11.9576L165.223 13.2535H164V4.63672ZM169.313 10.1624V10.2802C169.313 10.729 169.262 11.1423 169.161 11.52C169.064 11.894 168.914 12.2194 168.712 12.4961C168.514 12.7729 168.267 12.9879 167.972 13.1413C167.68 13.2909 167.342 13.3657 166.956 13.3657C166.579 13.3657 166.25 13.2946 165.969 13.1525C165.689 13.0104 165.453 12.8084 165.262 12.5466C165.075 12.2848 164.924 11.9726 164.808 11.6098C164.692 11.247 164.61 10.8468 164.561 10.4093V10.0334C164.61 9.59211 164.692 9.19193 164.808 8.8329C164.924 8.47013 165.075 8.15785 165.262 7.89605C165.453 7.63052 165.687 7.42669 165.963 7.28458C166.244 7.14246 166.571 7.0714 166.945 7.0714C167.334 7.0714 167.676 7.1462 167.972 7.2958C168.271 7.44539 168.52 7.65857 168.718 7.93532C168.916 8.20834 169.064 8.53371 169.161 8.91144C169.262 9.28917 169.313 9.70617 169.313 10.1624ZM167.961 10.2802V10.1624C167.961 9.88943 167.938 9.63324 167.893 9.39389C167.848 9.1508 167.774 8.93762 167.669 8.75436C167.568 8.57111 167.43 8.42712 167.254 8.3224C167.082 8.21395 166.867 8.15972 166.609 8.15972C166.369 8.15972 166.164 8.20086 165.992 8.28314C165.819 8.36541 165.675 8.47761 165.56 8.61973C165.444 8.76184 165.352 8.9264 165.285 9.1134C165.221 9.30039 165.178 9.50235 165.156 9.71926V10.7346C165.189 11.0151 165.26 11.2732 165.369 11.5088C165.481 11.7407 165.638 11.9277 165.84 12.0698C166.042 12.2082 166.302 12.2774 166.62 12.2774C166.87 12.2774 167.082 12.2269 167.254 12.1259C167.426 12.0249 167.562 11.8847 167.663 11.7052C167.768 11.5219 167.843 11.3087 167.888 11.0656C167.936 10.8225 167.961 10.5607 167.961 10.2802Z" fill="#212121"/>
<path d="M173.133 13.3657C172.684 13.3657 172.278 13.2928 171.916 13.1469C171.556 12.9973 171.25 12.7897 170.996 12.5242C170.745 12.2587 170.552 11.9464 170.418 11.5873C170.283 11.2283 170.216 10.8412 170.216 10.4261V10.2017C170.216 9.72674 170.285 9.29665 170.423 8.91144C170.562 8.52623 170.754 8.19712 171.001 7.9241C171.248 7.64735 171.54 7.43604 171.876 7.29019C172.213 7.14433 172.577 7.0714 172.97 7.0714C173.404 7.0714 173.784 7.14433 174.109 7.29019C174.434 7.43604 174.704 7.64174 174.917 7.90727C175.134 8.16907 175.295 8.48135 175.399 8.84412C175.508 9.20689 175.562 9.60707 175.562 10.0446V10.6225H170.872V9.65194H174.227V9.54536C174.219 9.30226 174.171 9.07413 174.081 8.86095C173.995 8.64778 173.862 8.47574 173.683 8.34484C173.503 8.21395 173.264 8.1485 172.965 8.1485C172.74 8.1485 172.54 8.19712 172.364 8.29436C172.192 8.38785 172.048 8.52436 171.932 8.70388C171.816 8.88339 171.727 9.10031 171.663 9.35462C171.603 9.6052 171.573 9.88756 171.573 10.2017V10.4261C171.573 10.6916 171.609 10.9385 171.68 11.1666C171.755 11.391 171.863 11.5873 172.005 11.7556C172.147 11.9239 172.319 12.0567 172.521 12.1539C172.723 12.2474 172.953 12.2942 173.211 12.2942C173.537 12.2942 173.827 12.2287 174.081 12.0978C174.335 11.967 174.556 11.7818 174.743 11.5425L175.455 12.2325C175.324 12.4232 175.154 12.6065 174.945 12.7823C174.735 12.9543 174.479 13.0945 174.176 13.203C173.877 13.3115 173.529 13.3657 173.133 13.3657Z" fill="#212121"/>
<path d="M179.399 7.1836V8.17094H175.977V7.1836H179.399ZM176.964 5.69698H178.316V11.5761C178.316 11.7631 178.343 11.9071 178.395 12.0081C178.451 12.1053 178.528 12.1708 178.625 12.2044C178.722 12.2381 178.836 12.2549 178.967 12.2549C179.061 12.2549 179.15 12.2493 179.236 12.2381C179.322 12.2269 179.392 12.2157 179.444 12.2044L179.45 13.2367C179.337 13.2703 179.206 13.3002 179.057 13.3264C178.911 13.3526 178.743 13.3657 178.552 13.3657C178.242 13.3657 177.967 13.3115 177.727 13.203C177.488 13.0908 177.301 12.9094 177.166 12.6588C177.032 12.4083 176.964 12.0754 176.964 11.6603V5.69698Z" fill="#212121"/>
<path d="M183.865 12.0361V9.14145C183.865 8.92453 183.825 8.73753 183.747 8.58046C183.668 8.42338 183.549 8.30183 183.388 8.21582C183.231 8.1298 183.032 8.08679 182.793 8.08679C182.572 8.08679 182.382 8.12419 182.221 8.19899C182.06 8.27379 181.935 8.37476 181.845 8.50192C181.755 8.62908 181.71 8.77306 181.71 8.93388H180.364C180.364 8.69453 180.422 8.46265 180.538 8.23826C180.654 8.01386 180.822 7.81378 181.043 7.638C181.263 7.46222 181.527 7.32385 181.834 7.22287C182.14 7.12189 182.485 7.0714 182.866 7.0714C183.322 7.0714 183.726 7.14807 184.078 7.30141C184.433 7.45474 184.712 7.68662 184.914 7.99703C185.119 8.3037 185.222 8.68892 185.222 9.15267V11.851C185.222 12.1278 185.241 12.3765 185.278 12.5971C185.319 12.814 185.377 13.0029 185.452 13.1637V13.2535H184.067C184.003 13.1076 183.952 12.9225 183.915 12.6981C183.881 12.47 183.865 12.2493 183.865 12.0361ZM184.061 9.56219L184.072 10.3981H183.102C182.851 10.3981 182.63 10.4224 182.44 10.471C182.249 10.5159 182.09 10.5832 181.963 10.6729C181.836 10.7627 181.74 10.8712 181.677 10.9983C181.613 11.1255 181.581 11.2695 181.581 11.4303C181.581 11.5911 181.619 11.7388 181.694 11.8735C181.768 12.0044 181.877 12.1072 182.019 12.182C182.165 12.2568 182.341 12.2942 182.546 12.2942C182.823 12.2942 183.064 12.2381 183.27 12.1259C183.479 12.01 183.644 11.8697 183.764 11.7052C183.883 11.5369 183.947 11.3779 183.954 11.2283L184.392 11.8286C184.347 11.9819 184.27 12.1465 184.162 12.3222C184.053 12.498 183.911 12.6663 183.736 12.8271C183.563 12.9842 183.356 13.1132 183.113 13.2142C182.873 13.3152 182.597 13.3657 182.283 13.3657C181.886 13.3657 181.533 13.2871 181.222 13.1301C180.912 12.9692 180.669 12.7542 180.493 12.4849C180.317 12.2119 180.229 11.9034 180.229 11.5593C180.229 11.2377 180.289 10.9534 180.409 10.7066C180.532 10.456 180.712 10.2466 180.947 10.0783C181.187 9.91 181.478 9.78284 181.823 9.69682C182.167 9.60707 182.559 9.56219 183.001 9.56219H184.061Z" fill="#212121"/>
<defs>
<clipPath id="clip0_15297_5799">
<rect width="159" height="18" fill="white"/>
</clipPath>
</defs>
</svg>
