<svg width="259" height="282" viewBox="0 0 259 282" fill="none" xmlns="http://www.w3.org/2000/svg">
<path d="M130.452 247.9C130.395 247.9 130.338 247.893 130.281 247.878C129.926 247.784 129.715 247.422 129.81 247.069L150.467 169.746C150.561 169.393 150.925 169.183 151.28 169.277C151.634 169.371 151.845 169.733 151.751 170.086L131.093 247.409C131.014 247.705 130.745 247.9 130.452 247.9Z" fill="#222723"/>
<path d="M194.956 247.9C194.634 247.9 194.351 247.665 194.301 247.338L182.469 170.016C182.413 169.654 182.663 169.317 183.025 169.262C183.388 169.208 183.727 169.455 183.782 169.816L195.614 247.139C195.669 247.5 195.42 247.837 195.057 247.892C195.024 247.898 194.99 247.9 194.956 247.9Z" fill="#222723"/>
<path d="M147.817 169.916C147.817 169.916 158.506 119.77 158.75 118.427C159.514 114.224 161.114 110.207 165.396 109.36C165.93 109.254 166.472 109.201 167.017 109.201H171.458H186.857H191.298C191.842 109.201 192.385 109.254 192.919 109.36C197.426 110.251 200.354 114.611 199.874 119.071L189.619 170.316" fill="white"/>
<path d="M189.62 170.977C189.577 170.977 189.533 170.973 189.489 170.964C189.13 170.893 188.896 170.545 188.968 170.187L199.217 118.972C199.657 114.743 196.839 110.809 192.79 110.009C192.3 109.912 191.798 109.863 191.298 109.863H167.017C166.518 109.863 166.016 109.912 165.526 110.009C162.291 110.648 160.346 113.361 159.404 118.545C159.161 119.882 148.904 168.005 148.467 170.053C148.391 170.411 148.038 170.639 147.68 170.563C147.321 170.487 147.092 170.136 147.168 169.779C147.275 169.278 157.857 119.627 158.097 118.309C158.759 114.667 160.222 109.709 165.267 108.711C165.842 108.598 166.431 108.54 167.017 108.54H191.298C191.884 108.54 192.473 108.598 193.048 108.711C197.775 109.646 201.064 114.227 200.535 119.141C200.533 119.161 200.53 119.181 200.526 119.2L190.27 170.445C190.208 170.76 189.93 170.977 189.62 170.977Z" fill="#222723"/>
<path d="M123.098 169.255L190.313 169.248V170.13C190.313 171.844 188.918 173.234 187.196 173.234H119.855L123.098 169.255Z" fill="#222723"/>
<path d="M79.1679 217.08C78.7874 212.602 81.7927 208.821 86.0547 207.399C88.4848 206.587 93.2292 204.814 95.5131 203.653C98.2115 202.282 103.046 199.132 104.295 195.122L128.655 191.864L128.673 217.08" fill="#6A9586"/>
<path d="M144.997 217.026L145.035 195.615L171.722 198.953C173.078 202.958 175.341 206.495 177.887 207.391C180.433 208.286 182.461 209.886 183.643 211.954C184.783 213.737 184.783 215.329 184.783 216.921L144.997 217.026L144.997 217.026Z" fill="#6A9586"/>
<path d="M158.602 128.949C158.731 128.949 158.856 128.908 158.959 128.832C159.062 128.755 159.138 128.648 159.175 128.525C159.212 128.402 159.208 128.27 159.165 128.15C159.121 128.029 159.04 127.926 158.933 127.855L158.117 127.314C156.721 126.39 155.548 125.169 154.681 123.737C153.814 122.306 153.276 120.7 153.105 119.036C153.099 118.955 153.078 118.877 153.042 118.806C153.005 118.734 152.955 118.67 152.894 118.619C152.832 118.567 152.761 118.528 152.684 118.505C152.608 118.481 152.527 118.473 152.447 118.481C152.367 118.49 152.29 118.514 152.22 118.553C152.15 118.592 152.088 118.644 152.038 118.707C151.989 118.771 151.953 118.843 151.932 118.921C151.911 118.998 151.906 119.079 151.917 119.158C152.107 120.998 152.702 122.773 153.66 124.355C154.618 125.938 155.915 127.288 157.458 128.308L158.274 128.849C158.371 128.914 158.485 128.949 158.602 128.949Z" fill="#222723"/>
<path d="M97.2903 131.545C97.738 128.939 99.0416 126.556 100.995 124.773L100.997 124.771L128.433 99.6839C131.397 96.9243 135.299 95.3926 139.35 95.3983H144.951L161.693 95.3352L166.095 95.3983C168.401 95.3981 170.679 95.8947 172.776 96.8541C174.873 97.8136 176.738 99.2134 178.245 100.958L178.202 100.911L199.884 127.768C200.259 128.238 201.569 130.697 201.569 130.697C205.297 138.685 199.09 147.743 190.292 147.153C189.456 147.135 187.171 146.874 186.375 146.078" fill="white"/>
<path d="M191.097 147.777C193.143 147.772 195.156 147.251 196.948 146.264C198.741 145.277 200.255 143.854 201.353 142.127C202.45 140.4 203.095 138.424 203.227 136.382C203.36 134.34 202.976 132.298 202.111 130.444C202.106 130.434 202.102 130.424 202.097 130.416C201.873 129.998 200.741 127.884 200.351 127.396L178.744 100.631C178.729 100.609 178.714 100.588 178.697 100.568C177.134 98.7585 175.2 97.3064 173.025 96.3111C170.851 95.3158 168.487 94.8006 166.095 94.8006L161.702 94.7375L144.949 94.8006H139.35C135.148 94.7947 131.101 96.3833 128.025 99.2456C128.017 99.2531 128.009 99.2609 128.001 99.2689L100.593 124.331L100.585 124.339C98.5327 126.207 97.1654 128.708 96.7009 131.443C96.674 131.599 96.7102 131.76 96.8016 131.889C96.8929 132.018 97.0319 132.106 97.188 132.133C97.3441 132.16 97.5045 132.124 97.6339 132.032C97.7633 131.941 97.8511 131.802 97.878 131.646C98.2986 129.168 99.5377 126.903 101.397 125.213L101.406 125.205L128.836 100.124C128.846 100.115 128.856 100.104 128.865 100.095C131.717 97.4544 135.463 95.9897 139.35 95.9951H144.951L161.696 95.9321L166.087 95.9949C168.293 95.9939 170.474 96.4653 172.483 97.3773C174.493 98.2894 176.283 99.6209 177.735 101.282L177.737 101.286L199.42 128.143C199.664 128.45 200.537 130.029 201.035 130.963C201.84 132.694 202.18 134.605 202.021 136.507C201.862 138.409 201.211 140.237 200.131 141.811C199.051 143.385 197.579 144.65 195.861 145.482C194.142 146.314 192.237 146.685 190.332 146.557C190.323 146.557 190.314 146.557 190.305 146.555C189.215 146.532 187.339 146.199 186.796 145.656C186.741 145.599 186.676 145.554 186.603 145.523C186.53 145.491 186.451 145.475 186.372 145.474C186.293 145.473 186.214 145.489 186.141 145.519C186.067 145.549 186.001 145.593 185.945 145.649C185.889 145.705 185.844 145.772 185.814 145.845C185.784 145.918 185.769 145.997 185.77 146.076C185.771 146.156 185.787 146.234 185.818 146.307C185.85 146.38 185.895 146.445 185.952 146.501C187.055 147.603 189.997 147.739 190.261 147.749C190.541 147.767 190.819 147.777 191.097 147.777Z" fill="#222723"/>
<path d="M129.317 132.845C129.437 132.845 129.555 132.809 129.655 132.74C138.542 126.644 139.27 123.991 137.503 121.228C137.461 121.161 137.407 121.104 137.342 121.058C137.278 121.013 137.205 120.981 137.128 120.964C137.052 120.947 136.972 120.945 136.895 120.959C136.817 120.972 136.743 121.001 136.677 121.044C136.61 121.086 136.553 121.141 136.508 121.206C136.463 121.27 136.432 121.343 136.415 121.42C136.398 121.497 136.397 121.576 136.411 121.654C136.425 121.731 136.454 121.805 136.497 121.871C137.433 123.335 138.598 125.158 128.979 131.756C128.874 131.828 128.795 131.932 128.753 132.052C128.711 132.173 128.709 132.303 128.746 132.425C128.784 132.547 128.86 132.653 128.963 132.729C129.066 132.805 129.19 132.845 129.318 132.845H129.317Z" fill="#222723"/>
<path d="M138.994 62.2052C138.074 61.5957 137.001 61.2573 135.898 61.2287C134.794 61.2001 133.705 61.4825 132.755 62.0435C131.804 62.6046 131.031 63.4216 130.523 64.4014C130.015 65.3811 129.793 66.4839 129.883 67.5838C129.972 68.6836 130.369 69.7361 131.029 70.621C131.688 71.5059 132.583 72.1874 133.612 72.5877C134.64 72.988 135.761 73.0909 136.845 72.8846C137.929 72.6783 138.934 72.1711 139.743 71.4211C138.811 74.2685 138.813 77.3394 139.75 80.1854C140.686 83.0314 142.509 85.5034 144.951 87.2404V95.5403C144.948 97.3444 145.576 99.0928 146.725 100.483L156.428 102.374C157.659 101.707 158.687 100.72 159.403 99.5167C160.119 98.3139 160.496 96.94 160.496 95.5403V87.7325C163.098 86.1182 165.101 83.6979 166.201 80.8403C167.3 77.9826 167.436 74.844 166.586 71.9023C167.442 72.5084 168.444 72.8749 169.488 72.9637C170.533 73.0526 171.582 72.8606 172.528 72.4076C173.473 71.9547 174.28 71.2573 174.865 70.3876C175.451 69.5179 175.793 68.5076 175.856 67.4613C175.919 66.4151 175.702 65.3709 175.226 64.437C174.75 63.5031 174.033 62.7134 173.149 62.1498C172.265 61.5861 171.246 61.269 170.199 61.2312C169.151 61.1934 168.112 61.4364 167.19 61.9349L166.071 52.3507L139.4 51.7537L138.994 62.2052Z" fill="white"/>
<path d="M156.429 102.97C156.528 102.97 156.626 102.945 156.714 102.898C158.039 102.179 159.145 101.117 159.915 99.8216C160.686 98.5265 161.093 97.0474 161.092 95.5405V88.0602C163.521 86.4759 165.424 84.2068 166.562 81.5403C167.699 78.8737 168.02 75.9297 167.482 73.0809C168.458 73.4904 169.52 73.6546 170.574 73.5591C171.628 73.4635 172.643 73.1112 173.53 72.5328C174.416 71.9545 175.148 71.1678 175.66 70.2416C176.172 69.3153 176.449 68.2778 176.467 67.2196C176.486 66.1614 176.244 65.1149 175.764 64.1716C175.284 63.2282 174.581 62.4168 173.715 61.8083C172.849 61.1998 171.847 60.8127 170.796 60.6808C169.746 60.549 168.679 60.6765 167.69 61.0522L166.666 52.2816C166.649 52.1385 166.582 52.0064 166.475 51.9094C166.369 51.8125 166.231 51.7573 166.087 51.754L139.415 51.157C139.258 51.1532 139.107 51.2113 138.992 51.3186C138.878 51.426 138.811 51.574 138.805 51.7305L138.436 61.2135C137.436 60.7578 136.336 60.5641 135.24 60.6505C134.145 60.7369 133.089 61.1006 132.172 61.7075C131.256 62.3143 130.509 63.1443 130.002 64.1194C129.495 65.0944 129.244 66.1825 129.273 67.2811C129.303 68.3797 129.611 69.4527 130.17 70.3992C130.728 71.3458 131.519 72.1346 132.466 72.6916C133.414 73.2486 134.488 73.5554 135.587 73.5831C136.685 73.6107 137.773 73.3584 138.748 72.8499C138.188 75.5786 138.418 78.4104 139.411 81.013C140.404 83.6156 142.119 85.8813 144.354 87.5442V95.5405C144.355 97.4825 145.03 99.364 146.265 100.863C146.353 100.97 146.475 101.043 146.611 101.069L156.314 102.96C156.351 102.967 156.39 102.971 156.429 102.97ZM166.587 71.3055C166.494 71.3055 166.403 71.327 166.32 71.3683C166.237 71.4097 166.165 71.4697 166.109 71.5437C166.054 71.6177 166.016 71.7036 165.999 71.7946C165.983 71.8856 165.987 71.9793 166.013 72.0682C166.826 74.885 166.696 77.8902 165.643 80.6264C164.59 83.3626 162.672 85.6799 160.18 87.2256C160.094 87.2792 160.023 87.3539 159.973 87.4426C159.924 87.5313 159.898 87.6312 159.898 87.7327V95.5405C159.899 96.7969 159.569 98.0314 158.942 99.1204C158.316 100.209 157.414 101.115 156.327 101.746L147.055 99.9399C146.079 98.6809 145.549 97.1334 145.548 95.5405V87.2405C145.548 87.1454 145.525 87.0517 145.482 86.9671C145.438 86.8825 145.375 86.8096 145.297 86.7544C142.959 85.0913 141.214 82.7244 140.317 79.9992C139.42 77.2741 139.418 74.3336 140.311 71.6071C140.352 71.4814 140.351 71.3455 140.306 71.2209C140.262 71.0962 140.177 70.9898 140.066 70.9183C139.954 70.8469 139.822 70.8145 139.691 70.8262C139.559 70.8379 139.435 70.8931 139.338 70.9831C138.61 71.6567 137.708 72.1121 136.734 72.2973C135.76 72.4825 134.754 72.39 133.83 72.0304C132.906 71.6708 132.102 71.0586 131.509 70.2637C130.917 69.4689 130.56 68.5234 130.48 67.5355C130.4 66.5475 130.599 65.5569 131.055 64.6768C131.511 63.7967 132.206 63.0627 133.059 62.5586C133.913 62.0545 134.891 61.8007 135.882 61.8261C136.874 61.8516 137.838 62.1554 138.664 62.7026C138.753 62.7612 138.855 62.7952 138.961 62.8012C139.066 62.8071 139.172 62.7848 139.266 62.7366C139.361 62.6883 139.44 62.6158 139.497 62.5265C139.555 62.4372 139.587 62.3343 139.591 62.2284L139.975 52.3638L165.539 52.9361L166.598 62.0044C166.609 62.1013 166.644 62.1939 166.699 62.2742C166.755 62.3545 166.829 62.42 166.916 62.4649C167.002 62.5099 167.099 62.5329 167.196 62.532C167.294 62.5312 167.39 62.5064 167.476 62.4599C168.304 62.011 169.238 61.7919 170.181 61.8253C171.123 61.8588 172.039 62.1435 172.834 62.6501C173.629 63.1567 174.274 63.8666 174.702 64.7063C175.13 65.546 175.326 66.4849 175.269 67.4257C175.212 68.3665 174.905 69.275 174.378 70.0569C173.852 70.8389 173.126 71.4659 172.276 71.8729C171.425 72.28 170.482 72.4522 169.542 72.3719C168.603 72.2915 167.702 71.9615 166.934 71.4159C166.832 71.3439 166.711 71.3053 166.587 71.3055Z" fill="#222723"/>
<path d="M154.129 73.5436C154.268 73.5437 154.403 73.4951 154.51 73.4063C154.617 73.3175 154.69 73.1941 154.716 73.0574C154.742 72.9206 154.719 72.7791 154.651 72.6574C154.584 72.5356 154.476 72.4413 154.346 72.3906L151.216 71.1656L153.532 64.1324C153.556 64.0579 153.566 63.9794 153.56 63.9012C153.554 63.823 153.533 63.7467 153.497 63.6767C153.462 63.6067 153.413 63.5444 153.354 63.4932C153.294 63.4421 153.225 63.4031 153.151 63.3786C153.076 63.3541 152.998 63.3445 152.92 63.3504C152.841 63.3562 152.765 63.3774 152.695 63.4127C152.625 63.4481 152.563 63.4968 152.512 63.5563C152.46 63.6157 152.422 63.6846 152.397 63.7591L149.905 71.3289C149.857 71.4739 149.867 71.6317 149.932 71.7699C149.997 71.908 150.112 72.016 150.255 72.0716L153.911 73.5024C153.98 73.5296 154.054 73.5436 154.129 73.5436Z" fill="#222723"/>
<path d="M159.462 68.7553C156.891 68.7553 154.807 66.6716 154.807 64.1012C154.807 61.5307 156.891 59.447 159.462 59.447C162.033 59.447 164.117 61.5307 164.117 64.1012C164.117 66.6716 162.033 68.7553 159.462 68.7553Z" fill="white"/>
<path d="M159.462 69.3524C160.501 69.3524 161.516 69.0444 162.38 68.4674C163.244 67.8904 163.917 67.0703 164.315 66.1107C164.712 65.1512 164.816 64.0954 164.613 63.0768C164.411 62.0582 163.911 61.1225 163.176 60.3881C162.441 59.6537 161.506 59.1536 160.487 58.951C159.468 58.7484 158.412 58.8524 157.452 59.2498C156.492 59.6473 155.672 60.3203 155.095 61.1839C154.518 62.0474 154.21 63.0627 154.21 64.1012C154.211 65.4934 154.765 66.8281 155.75 67.8125C156.735 68.797 158.07 69.3507 159.462 69.3524ZM159.462 60.0441C160.265 60.0441 161.049 60.282 161.717 60.7278C162.384 61.1736 162.904 61.8073 163.211 62.5486C163.518 63.29 163.599 64.1057 163.442 64.8927C163.286 65.6797 162.899 66.4027 162.332 66.9701C161.764 67.5375 161.041 67.9239 160.254 68.0804C159.467 68.237 158.651 68.1566 157.909 67.8495C157.168 67.5425 156.534 67.0225 156.088 66.3553C155.642 65.6881 155.404 64.9037 155.404 64.1012C155.405 63.0256 155.833 61.9943 156.594 61.2337C157.355 60.4731 158.386 60.0453 159.462 60.0441Z" fill="#222723"/>
<path d="M146.275 68.7553C143.704 68.7553 141.62 66.6716 141.62 64.1012C141.62 61.5307 143.704 59.447 146.275 59.447C148.846 59.447 150.931 61.5307 150.931 64.1012C150.931 66.6716 148.846 68.7553 146.275 68.7553Z" fill="white"/>
<path d="M146.276 69.3524C147.314 69.3524 148.33 69.0444 149.194 68.4674C150.057 67.8904 150.73 67.0703 151.128 66.1107C151.526 65.1512 151.63 64.0954 151.427 63.0768C151.224 62.0582 150.724 61.1225 149.989 60.3881C149.255 59.6537 148.319 59.1536 147.3 58.951C146.281 58.7484 145.225 58.8524 144.266 59.2498C143.306 59.6473 142.486 60.3203 141.908 61.1839C141.331 62.0474 141.023 63.0627 141.023 64.1012C141.025 65.4934 141.579 66.8281 142.563 67.8125C143.548 68.797 144.883 69.3507 146.276 69.3524ZM146.276 60.0441C147.078 60.0441 147.863 60.282 148.53 60.7278C149.197 61.1736 149.718 61.8073 150.025 62.5486C150.332 63.29 150.412 64.1057 150.256 64.8927C150.099 65.6797 149.713 66.4027 149.145 66.9701C148.577 67.5375 147.854 67.9239 147.067 68.0804C146.28 68.237 145.464 68.1566 144.723 67.8495C143.981 67.5425 143.347 67.0225 142.901 66.3553C142.456 65.6881 142.217 64.9037 142.217 64.1012C142.219 63.0256 142.647 61.9943 143.407 61.2337C144.168 60.4731 145.2 60.0453 146.276 60.0441Z" fill="#222723"/>
<path d="M151.165 64.2951H154.571C154.729 64.2951 154.881 64.2322 154.993 64.1202C155.105 64.0082 155.168 63.8564 155.168 63.6981C155.168 63.5397 155.105 63.3879 154.993 63.2759C154.881 63.164 154.729 63.1011 154.571 63.1011H151.165C151.007 63.1011 150.855 63.164 150.743 63.2759C150.631 63.3879 150.568 63.5397 150.568 63.6981C150.568 63.8564 150.631 64.0082 150.743 64.1202C150.855 64.2322 151.007 64.2951 151.165 64.2951Z" fill="#222723"/>
<path d="M136.112 103.356C135.813 103.487 135.539 103.617 135.289 103.745C131.438 105.735 129.191 107.027 128.343 107.526L126.746 108.676C125.564 109.523 124.6 110.638 123.931 111.929C123.262 113.22 122.909 114.651 122.899 116.105C122.89 117.559 123.225 118.994 123.876 120.294C124.528 121.594 125.478 122.721 126.649 123.583C128.968 125.354 132.53 125.303 134.483 123.571C136.492 121.792 138.03 119.05 140.691 117.728L155.264 103.356C156.124 102.924 156.52 102.4 156.401 101.622C156.074 99.4598 150.97 99.5949 145.688 100.589" fill="white"/>
<path d="M130.668 125.497C132.237 125.497 133.767 125.004 134.88 124.018C135.626 123.324 136.327 122.582 136.978 121.798C138.146 120.452 139.353 119.06 140.957 118.262C141.013 118.234 141.065 118.197 141.11 118.153L155.618 103.847C156.099 103.599 157.207 102.95 156.992 101.532C156.948 101.256 156.848 100.992 156.696 100.757C156.545 100.522 156.346 100.321 156.112 100.167C154.031 98.6902 148.618 99.4301 145.578 100.003C145.501 100.017 145.427 100.047 145.361 100.09C145.296 100.132 145.239 100.188 145.195 100.253C145.151 100.317 145.12 100.39 145.103 100.467C145.087 100.544 145.086 100.623 145.101 100.7C145.116 100.777 145.145 100.851 145.188 100.916C145.231 100.982 145.286 101.039 145.351 101.083C145.416 101.127 145.489 101.158 145.566 101.174C145.642 101.19 145.722 101.191 145.799 101.177C150.585 100.276 154.182 100.263 155.421 101.142C155.524 101.203 155.612 101.285 155.679 101.384C155.746 101.482 155.792 101.594 155.811 101.712C155.862 102.042 155.84 102.4 154.997 102.824C154.941 102.852 154.89 102.888 154.845 102.932L140.338 117.238C138.566 118.145 137.3 119.604 136.076 121.016C135.459 121.762 134.795 122.466 134.088 123.126C132.318 124.695 129.078 124.688 127.012 123.11C125.915 122.304 125.025 121.251 124.414 120.035C123.803 118.819 123.489 117.476 123.497 116.115C123.505 114.755 123.835 113.415 124.46 112.207C125.086 110.999 125.988 109.955 127.095 109.163L128.67 108.029C129.482 107.551 131.735 106.256 135.564 104.277C135.797 104.158 136.063 104.031 136.353 103.904C136.425 103.872 136.49 103.827 136.544 103.77C136.598 103.714 136.641 103.647 136.669 103.574C136.698 103.501 136.711 103.423 136.71 103.344C136.708 103.266 136.691 103.189 136.659 103.117C136.627 103.045 136.582 102.98 136.525 102.926C136.469 102.872 136.402 102.829 136.329 102.801C136.256 102.772 136.178 102.759 136.099 102.761C136.021 102.762 135.943 102.779 135.872 102.811C135.56 102.948 135.272 103.085 135.016 103.216C131.122 105.228 128.84 106.542 128.039 107.014C128.023 107.023 128.008 107.033 127.993 107.044L126.397 108.194C125.139 109.096 124.112 110.283 123.4 111.657C122.688 113.032 122.312 114.556 122.302 116.104C122.292 117.652 122.648 119.18 123.342 120.564C124.036 121.948 125.048 123.148 126.294 124.066C127.558 125.005 129.093 125.508 130.668 125.497Z" fill="#222723"/>
<path d="M164.63 108.677C165.812 109.523 166.777 110.638 167.446 111.929C168.115 113.22 168.469 114.651 168.478 116.105C168.488 117.559 168.153 118.994 167.502 120.294C166.85 121.594 165.901 122.721 164.73 123.583C162.409 125.355 158.848 125.303 156.894 123.572C153.882 120.905 151.929 116.073 145.664 117.104C142.837 117.568 138.676 118.696 138.331 116.01C138.09 114.149 142.909 112.627 146.412 111.379C141.078 110.891 134.095 110.245 134.175 107.823C134.255 105.401 139.372 105.403 146.277 106.086C138.837 104.008 134.623 103.941 134.975 101.622C135.554 97.8015 151.046 101.155 156.087 103.746C159.939 105.735 162.186 107.027 163.036 107.526L164.63 108.677Z" fill="white"/>
<path d="M160.707 125.496C162.286 125.505 163.825 125 165.092 124.058C166.337 123.139 167.347 121.939 168.039 120.555C168.731 119.171 169.086 117.644 169.075 116.097C169.064 114.55 168.688 113.027 167.976 111.653C167.264 110.28 166.237 109.094 164.98 108.192L163.385 107.042C163.37 107.031 163.355 107.021 163.339 107.012C162.331 106.419 160.084 105.139 156.362 103.215C152.022 100.985 139.432 98.0013 135.644 99.939C134.732 100.405 134.456 101.063 134.385 101.533C134.073 103.586 136.199 104.245 139.816 105.099C136.919 105.103 135.214 105.486 134.313 106.276C134.089 106.464 133.907 106.697 133.781 106.96C133.654 107.224 133.585 107.511 133.578 107.803C133.499 110.226 137.744 111.089 143.684 111.714C140.407 112.906 137.496 114.21 137.739 116.086C137.769 116.41 137.867 116.724 138.026 117.007C138.186 117.29 138.404 117.536 138.665 117.73C140.031 118.729 142.518 118.277 144.713 117.878C145.075 117.812 145.427 117.748 145.761 117.693C150.205 116.962 152.242 119.311 154.399 121.798C155.05 122.583 155.751 123.324 156.498 124.018C157.61 125.003 159.139 125.496 160.707 125.496ZM162.709 108.027L164.282 109.161L164.283 109.162C165.389 109.954 166.291 110.996 166.917 112.204C167.542 113.411 167.873 114.749 167.882 116.109C167.891 117.469 167.578 118.811 166.969 120.027C166.36 121.243 165.471 122.297 164.376 123.103C162.302 124.686 159.061 124.693 157.29 123.125C156.583 122.466 155.918 121.761 155.302 121.016C153.131 118.513 150.671 115.675 145.567 116.515C145.229 116.571 144.869 116.636 144.5 116.703C142.639 117.041 140.323 117.463 139.371 116.766C139.241 116.668 139.134 116.542 139.057 116.399C138.98 116.255 138.934 116.096 138.924 115.934C138.896 115.718 139.029 115.118 140.855 114.186C142.225 113.486 144.087 112.831 145.731 112.253C146.032 112.147 146.327 112.043 146.614 111.941C146.742 111.896 146.851 111.808 146.922 111.692C146.993 111.576 147.023 111.439 147.006 111.304C146.989 111.169 146.926 111.044 146.828 110.95C146.73 110.855 146.603 110.797 146.468 110.784C143.932 110.553 140.775 110.264 138.392 109.743C135.212 109.046 134.76 108.254 134.773 107.842C134.776 107.714 134.806 107.587 134.863 107.472C134.92 107.356 135.001 107.255 135.101 107.174C136.566 105.89 142.147 106.277 146.219 106.68C146.368 106.694 146.517 106.652 146.636 106.563C146.755 106.473 146.837 106.342 146.864 106.195C146.892 106.049 146.863 105.897 146.785 105.77C146.706 105.643 146.582 105.551 146.438 105.51C144.376 104.935 142.597 104.521 141.027 104.156C137.121 103.247 135.401 102.8 135.566 101.712C135.594 101.53 135.689 101.258 136.189 101.002C139.314 99.4043 151.302 101.957 155.815 104.276C159.481 106.171 161.701 107.435 162.709 108.027Z" fill="#222723"/>
<path d="M147.081 132.591L96.1819 131.521C85.2615 131.551 76.1056 145.083 79.7091 156.435L97.364 196.048L131.856 191.439L125.932 170.003L152.537 170.157" fill="white"/>
<path d="M97.3642 196.645C97.3908 196.645 97.4174 196.643 97.4438 196.64L131.935 192.031C132.02 192.02 132.101 191.99 132.173 191.945C132.246 191.9 132.307 191.84 132.354 191.769C132.401 191.697 132.433 191.617 132.446 191.533C132.459 191.449 132.454 191.363 132.432 191.28L126.719 170.605L152.535 170.754H152.538C152.697 170.754 152.849 170.692 152.961 170.58C153.073 170.469 153.137 170.317 153.137 170.159C153.138 170 153.075 169.848 152.963 169.736C152.852 169.624 152.7 169.56 152.542 169.56L125.937 169.406C125.845 169.407 125.754 169.428 125.671 169.468C125.589 169.509 125.516 169.568 125.459 169.64C125.403 169.713 125.365 169.799 125.347 169.889C125.33 169.98 125.333 170.073 125.358 170.162L131.098 190.938L97.7272 195.397L80.2683 156.224C78.5518 150.776 79.7622 144.463 83.5091 139.329C86.8438 134.76 91.4636 132.131 96.1838 132.118L147.068 133.188C147.227 133.191 147.38 133.131 147.494 133.022C147.608 132.912 147.675 132.762 147.678 132.603C147.681 132.445 147.622 132.292 147.512 132.177C147.402 132.063 147.252 131.997 147.093 131.994L96.1948 130.924C91.0759 130.938 86.1056 133.745 82.5444 138.625C78.5667 144.075 77.2943 150.801 79.1408 156.617C79.1475 156.638 79.1554 156.659 79.1645 156.679L96.8194 196.291C96.8663 196.396 96.9428 196.486 97.0394 196.549C97.1361 196.611 97.2489 196.645 97.3642 196.645Z" fill="#222723"/>
<path d="M147.839 154.886L140.884 194.896L178.409 199.833L187.639 147.955C188.221 144.676 187.926 141.303 186.786 138.175C185.645 135.047 183.698 132.276 181.143 130.142C178.587 128.007 175.513 126.586 172.231 126.02C168.95 125.455 165.577 125.766 162.454 126.923L140.018 135.195" fill="white"/>
<path d="M178.409 200.43C178.55 200.43 178.685 200.38 178.792 200.29C178.9 200.2 178.972 200.075 178.997 199.937L188.226 148.059C188.827 144.677 188.523 141.197 187.347 137.971C186.17 134.744 184.162 131.885 181.526 129.684C178.889 127.482 175.718 126.015 172.333 125.432C168.948 124.849 165.469 125.17 162.247 126.362L139.812 134.634C139.738 134.661 139.669 134.702 139.611 134.755C139.553 134.808 139.505 134.872 139.472 134.943C139.438 135.015 139.419 135.092 139.416 135.171C139.413 135.25 139.425 135.329 139.452 135.403C139.48 135.477 139.521 135.545 139.575 135.603C139.629 135.661 139.694 135.707 139.766 135.74C139.837 135.773 139.915 135.791 139.994 135.793C140.073 135.796 140.152 135.782 140.225 135.754L162.661 127.483C165.685 126.363 168.952 126.061 172.13 126.609C175.308 127.156 178.285 128.533 180.76 130.599C183.235 132.666 185.121 135.35 186.225 138.379C187.33 141.408 187.615 144.675 187.051 147.85L177.922 199.166L141.579 194.385L148.426 154.988C148.441 154.91 148.439 154.831 148.423 154.753C148.406 154.676 148.374 154.603 148.329 154.539C148.284 154.474 148.226 154.419 148.16 154.376C148.093 154.334 148.019 154.305 147.941 154.292C147.864 154.278 147.784 154.28 147.707 154.298C147.63 154.315 147.557 154.348 147.493 154.393C147.429 154.439 147.374 154.497 147.332 154.564C147.291 154.631 147.263 154.705 147.25 154.783L140.295 194.793C140.282 194.873 140.284 194.954 140.302 195.032C140.321 195.111 140.355 195.184 140.403 195.249C140.45 195.314 140.51 195.369 140.58 195.41C140.649 195.451 140.726 195.477 140.806 195.488L178.332 200.425C178.358 200.428 178.383 200.43 178.409 200.43Z" fill="#222723"/>
<path d="M185.947 120.278C186.081 120.278 186.21 120.234 186.315 120.152C186.42 120.07 186.495 119.955 186.527 119.825C186.559 119.696 186.547 119.56 186.493 119.438C186.439 119.316 186.345 119.216 186.228 119.154L163.316 106.999C163.247 106.962 163.171 106.939 163.093 106.932C163.015 106.925 162.936 106.933 162.861 106.955C162.786 106.978 162.716 107.016 162.656 107.066C162.596 107.116 162.545 107.177 162.509 107.246C162.472 107.316 162.449 107.391 162.442 107.469C162.434 107.548 162.442 107.626 162.465 107.701C162.488 107.776 162.526 107.846 162.576 107.906C162.626 107.967 162.687 108.017 162.756 108.054L185.668 120.208C185.754 120.254 185.85 120.278 185.947 120.278Z" fill="#222723"/>
<path d="M117.121 116.536C117.25 116.536 117.376 116.494 117.479 116.416L126.653 109.501C126.779 109.406 126.863 109.264 126.885 109.107C126.907 108.95 126.866 108.791 126.77 108.665C126.675 108.538 126.533 108.455 126.376 108.433C126.22 108.411 126.06 108.452 125.934 108.547L116.76 115.463C116.66 115.538 116.585 115.643 116.548 115.763C116.511 115.882 116.512 116.011 116.552 116.13C116.592 116.249 116.668 116.352 116.77 116.425C116.872 116.498 116.995 116.538 117.12 116.537L117.121 116.536Z" fill="#222723"/>
<path d="M139.293 48.0657C138.86 45.7571 139.274 43.3697 140.461 41.3425C141.648 39.3153 143.527 37.7847 145.752 37.0321C147.978 36.2794 150.401 36.3555 152.574 37.2461C154.748 38.1368 156.528 39.7823 157.585 41.8799C158.915 41.5741 160.297 41.5721 161.629 41.8738C162.96 42.1756 164.206 42.7735 165.274 43.6231C166.342 44.4726 167.205 45.552 167.799 46.7809C168.392 48.0098 168.701 49.3566 168.703 50.7213C168.703 50.9696 168.692 51.2188 168.672 51.4616C169.667 52.9498 170.196 54.7004 170.191 56.4902C170.191 59.3432 168.889 61.3766 166.615 63.1128L166.495 63.2024C166.407 63.2689 166.301 63.3094 166.191 63.3194C166.08 63.3293 165.969 63.3083 165.87 63.2588C165.771 63.2092 165.687 63.133 165.629 63.0386C165.571 62.9443 165.54 62.8357 165.54 62.7248C165.536 60.0383 165.525 56.5473 165.51 56.2401C165.504 56.168 165.492 56.0944 165.48 56.0248C165.297 55.0226 164.724 54.1339 163.887 53.5535C163.05 52.973 162.016 52.7482 161.013 52.9284L156.635 53.7244C155.984 53.8433 155.327 53.9288 154.667 53.9807C154.192 54.0205 153.7 54.0426 153.214 54.0443C153.096 54.0465 152.978 54.0465 152.862 54.0443C152.41 54.04 151.964 54.0207 151.539 53.987C150.881 53.9392 150.226 53.8576 149.577 53.7425L144.743 52.8848C143.993 52.7523 143.221 52.8467 142.526 53.1558C141.845 53.4565 141.266 53.9485 140.86 54.572C140.453 55.1955 140.237 55.9237 140.237 56.6679L140.302 62.7097C140.304 62.8207 140.274 62.9299 140.217 63.025C140.159 63.12 140.076 63.1972 139.977 63.2478C139.879 63.2984 139.768 63.3205 139.657 63.3115C139.546 63.3024 139.44 63.2627 139.351 63.1968L139.09 63.0046C136.838 61.2707 135.545 58.2503 135.545 55.4115C135.544 53.9778 135.883 52.5643 136.534 51.2873C137.186 50.0102 138.131 48.906 139.293 48.0657Z" fill="#6A9586"/>
<path d="M170.906 69.5299C171.041 69.53 171.172 69.4845 171.277 69.4006C171.383 69.3167 171.457 69.1995 171.488 69.068C171.518 68.9366 171.504 68.7987 171.446 68.6768C171.388 68.5549 171.29 68.4562 171.169 68.3968L168.836 67.2526L172.858 66.1581C173.011 66.116 173.14 66.0153 173.218 65.878C173.296 65.7408 173.317 65.5782 173.275 65.4258C173.234 65.2734 173.134 65.1437 172.997 65.065C172.86 64.9864 172.697 64.9652 172.545 65.0061L166.996 66.5165C166.878 66.5483 166.774 66.6151 166.696 66.7079C166.617 66.8006 166.569 66.915 166.558 67.0358C166.546 67.1565 166.572 67.2779 166.631 67.3838C166.69 67.4897 166.78 67.575 166.889 67.6285L170.643 69.4692C170.725 69.5092 170.815 69.53 170.906 69.5299Z" fill="#222723"/>
<path d="M135.111 69.5299C135.202 69.5299 135.292 69.509 135.374 69.4688L139.128 67.6281C139.237 67.5747 139.327 67.4894 139.386 67.3835C139.445 67.2777 139.471 67.1563 139.459 67.0355C139.448 66.9148 139.4 66.8004 139.322 66.7076C139.243 66.6148 139.139 66.548 139.022 66.5161L133.473 65.0057C133.397 64.9842 133.317 64.978 133.239 64.9874C133.16 64.9968 133.085 65.0216 133.016 65.0604C132.947 65.0993 132.887 65.1513 132.838 65.2136C132.79 65.2759 132.754 65.3472 132.734 65.4233C132.713 65.4995 132.708 65.579 132.718 65.6572C132.728 65.7354 132.753 65.8109 132.793 65.8792C132.833 65.9475 132.885 66.0073 132.948 66.0551C133.011 66.1029 133.082 66.1378 133.159 66.1577L137.181 67.2522L134.848 68.3964C134.727 68.4558 134.629 68.5545 134.571 68.6764C134.513 68.7984 134.498 68.9363 134.529 69.0678C134.56 69.1992 134.634 69.3164 134.74 69.4003C134.845 69.4842 134.976 69.5297 135.111 69.5295V69.5299Z" fill="#222723"/>
<path d="M126.227 171.635C126.322 171.635 126.416 171.613 126.5 171.57C126.584 171.527 126.657 171.464 126.712 171.387C126.768 171.31 126.804 171.221 126.818 171.128C126.832 171.034 126.824 170.938 126.794 170.849L123.155 159.983C123.131 159.908 123.092 159.838 123.041 159.778C122.99 159.718 122.927 159.669 122.856 159.633C122.786 159.597 122.709 159.576 122.63 159.57C122.551 159.564 122.472 159.574 122.397 159.599C122.322 159.624 122.253 159.664 122.193 159.716C122.134 159.768 122.085 159.832 122.05 159.903C122.016 159.974 121.995 160.051 121.99 160.13C121.986 160.209 121.997 160.288 122.023 160.362L125.661 171.228C125.701 171.346 125.777 171.45 125.879 171.523C125.98 171.596 126.102 171.635 126.227 171.635Z" fill="#222723"/>
<path d="M159.462 65.5895C158.64 65.5895 157.974 64.9231 157.974 64.101C157.974 63.279 158.64 62.6125 159.462 62.6125C160.285 62.6125 160.951 63.279 160.951 64.101C160.951 64.9231 160.285 65.5895 159.462 65.5895Z" fill="#222723"/>
<path d="M146.276 65.5895C145.454 65.5895 144.787 64.9231 144.787 64.101C144.787 63.279 145.454 62.6125 146.276 62.6125C147.098 62.6125 147.765 63.279 147.765 64.101C147.765 64.9231 147.098 65.5895 146.276 65.5895Z" fill="#222723"/>
<path d="M147.509 76.22C149.286 84.8146 158.16 82.0983 157.931 76.22H147.509Z" fill="white"/>
<path d="M152.841 82.2888C153.046 82.2889 153.252 82.2765 153.455 82.2516C154.903 82.0546 156.225 81.3249 157.163 80.2052C158.101 79.0854 158.587 77.6561 158.527 76.1968C158.521 76.0425 158.456 75.8966 158.344 75.7896C158.233 75.6826 158.085 75.6229 157.93 75.623H147.508C147.42 75.623 147.332 75.6428 147.252 75.6808C147.172 75.7189 147.101 75.7743 147.045 75.843C146.989 75.9117 146.949 75.9921 146.928 76.0782C146.907 76.1643 146.905 76.254 146.923 76.3408C147.839 80.7651 150.555 82.2888 152.841 82.2888ZM157.323 76.8164C157.238 77.8757 156.794 78.8743 156.065 79.647C155.335 80.4198 154.363 80.9205 153.311 81.0664C151.458 81.2927 149.224 80.2704 148.266 76.817L157.323 76.8164Z" fill="#222723"/>
<path d="M143.467 76.6707C143.515 76.7743 143.591 76.8623 143.687 76.924C143.783 76.9857 143.895 77.0186 144.009 77.0189H161.401C161.515 77.019 161.627 76.9864 161.723 76.9251C161.819 76.8638 161.895 76.7763 161.943 76.673C161.991 76.5696 162.008 76.4547 161.993 76.3418C161.978 76.2289 161.931 76.1228 161.857 76.0359C161.702 75.8528 161.528 75.6637 161.341 75.4767C159.465 73.609 156.927 72.557 154.279 72.5494H151.131C149.692 72.5487 148.27 72.8597 146.962 73.4608C145.655 74.062 144.494 74.9391 143.558 76.0319C143.483 76.1184 143.435 76.2247 143.419 76.338C143.403 76.4513 143.42 76.5668 143.467 76.6707Z" fill="#6A9586"/>
<path d="M257.037 213.143C257.015 213.149 256.992 213.152 256.969 213.153L1.76338 222.878C1.64512 222.883 1.53276 222.824 1.45105 222.714C1.36933 222.605 1.32494 222.454 1.32764 222.295C1.33035 222.136 1.37992 221.981 1.46546 221.866C1.551 221.75 1.6655 221.682 1.78377 221.678L256.989 211.952C257.102 211.947 257.209 212 257.29 212.1C257.371 212.199 257.419 212.338 257.425 212.489C257.431 212.64 257.395 212.791 257.323 212.912C257.251 213.033 257.149 213.116 257.037 213.143Z" fill="#222723"/>
<path d="M22.4668 78.7053C25.561 78.7053 28.0693 76.1872 28.0693 73.0811C28.0693 69.9749 25.561 67.4569 22.4668 67.4569C19.3726 67.4569 16.8643 69.9749 16.8643 73.0811C16.8643 76.1872 19.3726 78.7053 22.4668 78.7053Z" fill="white"/>
<path d="M22.4667 79.2969C21.242 79.2969 20.0448 78.9324 19.0264 78.2493C18.0081 77.5663 17.2145 76.5954 16.7458 75.4596C16.2771 74.3237 16.1545 73.0739 16.3934 71.868C16.6323 70.6622 17.2221 69.5546 18.0881 68.6852C18.9541 67.8159 20.0574 67.2239 21.2586 66.984C22.4598 66.7442 23.7049 66.8673 24.8364 67.3377C25.9678 67.8082 26.9349 68.605 27.6154 69.6272C28.2958 70.6495 28.6589 71.8513 28.6589 73.0808C28.6571 74.7288 28.0041 76.3089 26.8433 77.4742C25.6824 78.6396 24.1084 79.2951 22.4667 79.2969ZM22.4667 68.0486C21.4752 68.0486 20.5061 68.3437 19.6817 68.8967C18.8574 69.4496 18.2149 70.2355 17.8355 71.155C17.4561 72.0745 17.3568 73.0863 17.5502 74.0625C17.7436 75.0386 18.2211 75.9353 18.9221 76.639C19.6232 77.3428 20.5163 77.822 21.4887 78.0162C22.4611 78.2104 23.469 78.1107 24.385 77.7299C25.301 77.349 26.0838 76.704 26.6347 75.8765C27.1855 75.0489 27.4795 74.076 27.4795 73.0808C27.478 71.7466 26.9493 70.4675 26.0096 69.5242C25.0698 68.5808 23.7957 68.0501 22.4667 68.0486Z" fill="#222723"/>
<path d="M29.7402 89.934C32.8344 89.934 35.3427 87.416 35.3427 84.3098C35.3427 81.2037 32.8344 78.6857 29.7402 78.6857C26.646 78.6857 24.1377 81.2037 24.1377 84.3098C24.1377 87.416 26.646 89.934 29.7402 89.934Z" fill="white"/>
<path d="M29.7401 90.5259C28.5154 90.5259 27.3182 90.1613 26.2999 89.4783C25.2816 88.7952 24.4879 87.8244 24.0192 86.6885C23.5505 85.5527 23.4279 84.3028 23.6668 83.097C23.9058 81.8912 24.4955 80.7835 25.3615 79.9142C26.2275 79.0448 27.3309 78.4528 28.5321 78.213C29.7332 77.9731 30.9783 78.0962 32.1098 78.5667C33.2413 79.0372 34.2084 79.8339 34.8888 80.8562C35.5692 81.8784 35.9324 83.0803 35.9324 84.3097C35.9305 85.9578 35.2775 87.5378 34.1166 88.7031C32.9558 89.8685 31.3818 90.524 29.7401 90.5259ZM29.7401 79.2775C28.7487 79.2775 27.7795 79.5727 26.9552 80.1256C26.1308 80.6786 25.4883 81.4645 25.1089 82.384C24.7295 83.3035 24.6302 84.3153 24.8237 85.2914C25.0171 86.2676 25.4945 87.1642 26.1955 87.868C26.8966 88.5717 27.7898 89.051 28.7622 89.2452C29.7346 89.4393 30.7425 89.3397 31.6584 88.9588C32.5744 88.5779 33.3573 87.9329 33.9081 87.1054C34.4589 86.2779 34.7529 85.305 34.7529 84.3097C34.7514 82.9756 34.2228 81.6965 33.283 80.7531C32.3433 79.8097 31.0691 79.2791 29.7401 79.2775Z" fill="#222723"/>
<path d="M18.6528 91.5325C21.747 91.5325 24.2553 89.0144 24.2553 85.9083C24.2553 82.8021 21.747 80.2841 18.6528 80.2841C15.5586 80.2841 13.0503 82.8021 13.0503 85.9083C13.0503 89.0144 15.5586 91.5325 18.6528 91.5325Z" fill="white"/>
<path d="M18.6527 92.1241C17.428 92.1241 16.2308 91.7595 15.2125 91.0765C14.1942 90.3934 13.4005 89.4226 12.9318 88.2867C12.4631 87.1509 12.3405 85.901 12.5794 84.6952C12.8184 83.4894 13.4081 82.3817 14.2741 81.5124C15.1401 80.643 16.2435 80.051 17.4447 79.8112C18.6458 79.5713 19.8909 79.6944 21.0224 80.1649C22.1539 80.6354 23.121 81.4321 23.8014 82.4544C24.4818 83.4766 24.845 84.6785 24.845 85.9079C24.8432 87.556 24.1902 89.136 23.0293 90.3014C21.8684 91.4668 20.2944 92.1223 18.6527 92.1241ZM18.6527 80.8758C17.6613 80.8758 16.6921 81.1709 15.8678 81.7238C15.0434 82.2768 14.4009 83.0627 14.0215 83.9822C13.6421 84.9017 13.5428 85.9135 13.7363 86.8896C13.9297 87.8658 14.4071 88.7624 15.1081 89.4662C15.8092 90.1699 16.7024 90.6492 17.6748 90.8434C18.6472 91.0375 19.6551 90.9379 20.571 90.557C21.487 90.1761 22.2699 89.5312 22.8207 88.7036C23.3715 87.8761 23.6655 86.9032 23.6655 85.9079C23.664 84.5738 23.1354 83.2947 22.1956 82.3513C21.2559 81.4079 19.9817 80.8773 18.6527 80.8758Z" fill="#222723"/>
<path d="M31.5093 102.307C34.6035 102.307 37.1118 99.789 37.1118 96.6829C37.1118 93.5767 34.6035 91.0587 31.5093 91.0587C28.4151 91.0587 25.9067 93.5767 25.9067 96.6829C25.9067 99.789 28.4151 102.307 31.5093 102.307Z" fill="white"/>
<path d="M31.5092 102.899C30.2844 102.899 29.0872 102.534 28.0689 101.851C27.0506 101.168 26.2569 100.197 25.7883 99.0616C25.3196 97.9257 25.197 96.6759 25.4359 95.47C25.6748 94.2642 26.2646 93.1566 27.1306 92.2872C27.9966 91.4179 29.0999 90.8259 30.3011 90.586C31.5023 90.3461 32.7473 90.4692 33.8788 90.9397C35.0103 91.4102 35.9774 92.207 36.6578 93.2292C37.3383 94.2515 37.7014 95.4533 37.7014 96.6828C37.6995 98.3308 37.0465 99.9108 35.8857 101.076C34.7248 102.242 33.1509 102.897 31.5092 102.899ZM31.5092 91.6506C30.5177 91.6506 29.5486 91.9457 28.7242 92.4987C27.8999 93.0516 27.2574 93.8375 26.8779 94.757C26.4985 95.6765 26.3993 96.6883 26.5927 97.6645C26.7861 98.6406 27.2635 99.5373 27.9646 100.241C28.6656 100.945 29.5588 101.424 30.5312 101.618C31.5036 101.812 32.5115 101.713 33.4275 101.332C34.3434 100.951 35.1263 100.306 35.6771 99.4785C36.2279 98.6509 36.5219 97.678 36.5219 96.6828C36.5204 95.3486 35.9918 94.0695 35.0521 93.1261C34.1123 92.1828 32.8382 91.6521 31.5092 91.6506Z" fill="#222723"/>
<path d="M20.4224 103.906C23.5165 103.906 26.0249 101.388 26.0249 98.2814C26.0249 95.1753 23.5165 92.6572 20.4224 92.6572C17.3282 92.6572 14.8198 95.1753 14.8198 98.2814C14.8198 101.388 17.3282 103.906 20.4224 103.906Z" fill="white"/>
<path d="M20.4222 104.497C19.1975 104.497 18.0003 104.133 16.982 103.45C15.9637 102.767 15.17 101.796 14.7013 100.66C14.2327 99.5242 14.11 98.2744 14.349 97.0685C14.5879 95.8627 15.1777 94.7551 16.0437 93.8857C16.9097 93.0164 18.013 92.4244 19.2142 92.1845C20.4154 91.9447 21.6604 92.0678 22.7919 92.5382C23.9234 93.0087 24.8905 93.8055 25.5709 94.8277C26.2513 95.85 26.6145 97.0518 26.6145 98.2813C26.6126 99.9293 25.9596 101.509 24.7988 102.675C23.6379 103.84 22.064 104.496 20.4222 104.497ZM20.4222 93.2491C19.4308 93.2491 18.4616 93.5442 17.6373 94.0972C16.8129 94.6501 16.1704 95.436 15.791 96.3555C15.4116 97.275 15.3124 98.2868 15.5058 99.263C15.6992 100.239 16.1766 101.136 16.8777 101.84C17.5787 102.543 18.4719 103.023 19.4443 103.217C20.4167 103.411 21.4246 103.311 22.3406 102.93C23.2565 102.55 24.0394 101.905 24.5902 101.077C25.141 100.249 25.435 99.2765 25.435 98.2813C25.4335 96.9471 24.9049 95.668 23.9652 94.7247C23.0254 93.7813 21.7513 93.2506 20.4222 93.2491Z" fill="#222723"/>
<path d="M6.03255 103.491C8.48618 103.491 10.4752 101.494 10.4752 99.0313C10.4752 96.5682 8.48618 94.5715 6.03255 94.5715C3.57891 94.5715 1.58984 96.5682 1.58984 99.0313C1.58984 101.494 3.57891 103.491 6.03255 103.491Z" fill="white"/>
<path d="M6.03244 104.083C5.03712 104.083 4.06415 103.787 3.23657 103.232C2.40899 102.677 1.76397 101.888 1.38307 100.965C1.00218 100.041 0.902521 99.0257 1.0967 98.0457C1.29088 97.0657 1.77017 96.1656 2.47397 95.459C3.17777 94.7525 4.07446 94.2714 5.05066 94.0764C6.02686 93.8815 7.03871 93.9816 7.95827 94.3639C8.87783 94.7463 9.66379 95.3938 10.2168 96.2246C10.7697 97.0554 11.0649 98.0321 11.0649 99.0313C11.0634 100.371 10.5327 101.655 9.58925 102.602C8.64581 103.549 7.36666 104.082 6.03244 104.083ZM6.03244 95.1634C5.2704 95.1634 4.52547 95.3903 3.89185 95.8153C3.25823 96.2403 2.76439 96.8443 2.47277 97.5511C2.18115 98.2579 2.10485 99.0356 2.25351 99.7858C2.40218 100.536 2.76914 101.225 3.30799 101.766C3.84683 102.307 4.53337 102.676 5.28077 102.825C6.02817 102.974 6.80287 102.897 7.50691 102.605C8.21094 102.312 8.81269 101.816 9.23606 101.18C9.65943 100.544 9.8854 99.7963 9.8854 99.0313C9.88431 98.0058 9.47802 97.0226 8.75569 96.2975C8.03336 95.5724 7.05398 95.1645 6.03244 95.1634Z" fill="#222723"/>
<path d="M21.9013 135.993C21.7865 135.993 21.6743 135.959 21.5783 135.896C21.4823 135.833 21.4068 135.743 21.3609 135.638L5.49237 99.2682C5.42963 99.1243 5.42641 98.9612 5.48342 98.8149C5.54043 98.6686 5.65301 98.551 5.79638 98.488C5.93976 98.4251 6.10219 98.4218 6.24794 98.4791C6.39368 98.5363 6.51082 98.6493 6.57356 98.7932L22.4421 135.163C22.4812 135.253 22.4974 135.351 22.4892 135.449C22.481 135.547 22.4487 135.642 22.3951 135.724C22.3415 135.806 22.2684 135.874 22.1823 135.92C22.0963 135.967 21.9999 135.992 21.9021 135.992L21.9013 135.993Z" fill="#222723"/>
<path d="M31.3892 135.993C31.2474 135.993 31.1105 135.941 31.0034 135.848C30.8963 135.755 30.8263 135.626 30.8061 135.485L21.8826 73.1653C21.8611 73.0102 21.9016 72.8529 21.9954 72.7278C22.0892 72.6027 22.2285 72.5199 22.3829 72.4977C22.5372 72.4754 22.6941 72.5154 22.8192 72.609C22.9442 72.7026 23.0272 72.8421 23.0501 72.997L31.9736 135.317C31.9847 135.394 31.9806 135.472 31.9615 135.548C31.9424 135.623 31.9087 135.694 31.8622 135.756C31.8158 135.819 31.7576 135.871 31.6909 135.911C31.6243 135.951 31.5504 135.977 31.4737 135.988C31.4457 135.991 31.4174 135.993 31.3892 135.993Z" fill="#222723"/>
<path d="M32.1206 135.993C32.0342 135.993 31.9489 135.974 31.8707 135.937C31.7925 135.9 31.7233 135.847 31.6679 135.78C31.6125 135.714 31.5723 135.636 31.5501 135.552C31.5279 135.468 31.5243 135.381 31.5395 135.295L43.4312 69.3644C43.4639 69.2146 43.5531 69.0834 43.6802 68.9984C43.8072 68.9133 43.9622 68.8811 44.1124 68.9084C44.2627 68.9357 44.3965 69.0205 44.4858 69.1449C44.5751 69.2693 44.6128 69.4236 44.591 69.5753L32.7003 135.506C32.6758 135.643 32.6043 135.766 32.4983 135.855C32.3924 135.944 32.2587 135.993 32.1206 135.993Z" fill="#222723"/>
<path d="M55.8847 55.3008C55.345 55.0844 54.7419 55.0917 54.2075 55.3211C53.6732 55.5504 53.2513 55.9831 53.0343 56.5243C53.2507 55.9826 53.2438 55.3768 53.0152 54.8402C52.7867 54.3036 52.3551 53.8801 51.8155 53.6629C51.2759 53.4457 50.6724 53.4526 50.1379 53.682C49.6033 53.9115 49.1814 54.3447 48.9651 54.8864L44.7976 65.2467L44.5027 54.0773C44.498 53.7872 44.4361 53.5009 44.3207 53.2349C44.2054 52.9689 44.0387 52.7284 43.8304 52.5273C43.6221 52.3261 43.3763 52.1683 43.107 52.063C42.8377 51.9576 42.5504 51.9066 42.2614 51.9132C41.9725 51.9197 41.6877 51.9834 41.4234 52.1008C41.1591 52.2183 40.9205 52.387 40.7214 52.5973C40.5223 52.8076 40.3666 53.0553 40.2632 53.3262C40.1598 53.5972 40.1108 53.8859 40.119 54.176C40.1142 53.8859 40.0524 53.5996 39.937 53.3336C39.8216 53.0676 39.655 52.8271 39.4467 52.6259C39.2384 52.4248 38.9925 52.267 38.7233 52.1616C38.454 52.0562 38.1666 52.0053 37.8777 52.0118C37.5887 52.0183 37.3039 52.0821 37.0396 52.1995C36.7753 52.3169 36.5368 52.4856 36.3377 52.6959C36.1386 52.9062 35.9828 53.154 35.8794 53.4249C35.7761 53.6958 35.7271 53.9846 35.7353 54.2746L35.7746 55.7349L36.0105 65.6414C36.0466 67.3555 36.5789 69.0219 37.5423 70.4376C38.5057 71.8532 39.8586 72.9568 41.4361 73.6139L41.4164 73.6336C41.995 73.8616 42.594 74.0334 43.2053 74.1467C43.8146 74.2597 44.4335 74.3125 45.0531 74.3046V74.2848C46.7593 74.219 48.4098 73.6584 49.8053 72.6708C51.2008 71.6832 52.2813 70.3109 52.9163 68.7199L56.5924 59.5239L57.1428 58.1622C57.3419 57.6145 57.3221 57.0107 57.0876 56.4773C56.853 55.9439 56.422 55.5223 55.8847 55.3008Z" fill="#6A9586"/>
<path d="M40.2959 63.2535C40.142 63.2535 39.9942 63.1932 39.884 63.0854C39.7738 62.9775 39.71 62.8307 39.7062 62.6763L39.4899 54.0131C39.486 53.8561 39.5444 53.7039 39.6522 53.5901C39.7601 53.4763 39.9085 53.4102 40.0649 53.4063C40.2213 53.4023 40.3729 53.4609 40.4862 53.5692C40.5996 53.6774 40.6655 53.8265 40.6694 53.9835L40.8856 62.6467C40.8876 62.7244 40.8743 62.8018 40.8465 62.8743C40.8186 62.9469 40.7768 63.0133 40.7235 63.0696C40.6701 63.126 40.6062 63.1712 40.5354 63.2028C40.4646 63.2343 40.3883 63.2515 40.3108 63.2535H40.2959Z" fill="#222723"/>
<path d="M49.8695 65.0102C49.773 65.0102 49.678 64.9864 49.5928 64.941C49.5076 64.8955 49.4348 64.8298 49.3808 64.7495C49.3268 64.6693 49.2933 64.577 49.2831 64.4806C49.2729 64.3843 49.2864 64.287 49.3224 64.1971L52.5463 56.1457C52.6047 56 52.7183 55.8835 52.8622 55.8219C52.9334 55.7914 53.0099 55.7753 53.0874 55.7744C53.1649 55.7736 53.2417 55.7881 53.3136 55.8171C53.3854 55.8461 53.4509 55.8891 53.5063 55.9435C53.5616 55.9979 53.6057 56.0627 53.6361 56.1342C53.6665 56.2057 53.6826 56.2825 53.6834 56.3603C53.6842 56.438 53.6698 56.5152 53.6409 56.5873L50.417 64.6388C50.3731 64.7485 50.2975 64.8425 50.1999 64.9087C50.1023 64.9749 49.9873 65.0102 49.8695 65.0102Z" fill="#222723"/>
<path d="M25.8477 216.823L17.729 208.673C16.6632 207.605 15.8178 206.336 15.2409 204.939C14.6641 203.542 14.3672 202.045 14.3672 200.533C14.3672 199.021 14.6641 197.523 15.2409 196.127C15.8178 194.73 16.6632 193.461 17.729 192.393C18.7947 191.324 19.6402 190.055 20.217 188.658C20.7938 187.262 21.0907 185.764 21.0907 184.252C21.0907 182.74 20.7938 181.243 20.217 179.846C19.6402 178.449 18.7947 177.181 17.729 176.112C16.6632 175.043 15.8178 173.775 15.2409 172.378C14.6641 170.981 14.3672 169.484 14.3672 167.972C14.3672 166.46 14.6641 164.962 15.2409 163.566C15.8178 162.169 16.6632 160.9 17.729 159.832C18.7947 158.763 19.6402 157.494 20.217 156.097C20.7938 154.701 21.0907 153.203 21.0907 151.691C21.0907 150.179 20.7938 148.682 20.217 147.285C19.6402 145.888 18.7947 144.62 17.729 143.551C16.6607 142.482 15.8137 141.212 15.2368 139.813C14.6599 138.414 14.3644 136.915 14.3675 135.401H49.4766C49.4778 136.915 49.1815 138.414 48.6047 139.812C48.0279 141.211 47.1818 142.481 46.1151 143.551C45.0494 144.62 44.2039 145.888 43.6271 147.285C43.0502 148.682 42.7533 150.179 42.7533 151.691C42.7533 153.203 43.0502 154.701 43.6271 156.097C44.2039 157.494 45.0494 158.763 46.1151 159.832C47.1808 160.9 48.0263 162.169 48.6031 163.566C49.18 164.962 49.4769 166.46 49.4769 167.972C49.4769 169.484 49.18 170.981 48.6031 172.378C48.0263 173.775 47.1808 175.043 46.1151 176.112C45.0494 177.181 44.2039 178.449 43.6271 179.846C43.0502 181.243 42.7533 182.74 42.7533 184.252C42.7533 185.764 43.0502 187.262 43.6271 188.658C44.2039 190.055 45.0494 191.324 46.1151 192.393C47.1808 193.461 48.0263 194.73 48.6031 196.127C49.18 197.523 49.4769 199.021 49.4769 200.533C49.4769 202.045 49.18 203.542 48.6031 204.939C48.0263 206.336 47.1808 207.605 46.1151 208.673L37.9963 216.823H25.8477Z" fill="white"/>
<path d="M37.9961 217.415H25.8475C25.6911 217.415 25.5411 217.353 25.4305 217.242L17.3118 209.091C16.1913 207.968 15.3024 206.634 14.696 205.165C14.0895 203.697 13.7773 202.122 13.7773 200.533C13.7773 198.943 14.0895 197.369 14.696 195.9C15.3024 194.431 16.1913 193.097 17.3118 191.974C19.3488 189.924 20.4928 187.147 20.4928 184.252C20.4928 181.357 19.3488 178.58 17.3118 176.53C16.1913 175.407 15.3024 174.073 14.696 172.604C14.0895 171.136 13.7773 169.561 13.7773 167.972C13.7773 166.382 14.0895 164.808 14.696 163.339C15.3024 161.87 16.1913 160.536 17.3118 159.413C18.3228 158.399 19.1248 157.196 19.672 155.871C20.2192 154.546 20.5009 153.125 20.5009 151.691C20.5009 150.257 20.2192 148.837 19.672 147.512C19.1248 146.187 18.3228 144.983 17.3118 143.969C16.1875 142.847 15.2963 141.511 14.6896 140.04C14.083 138.57 13.7729 136.993 13.7775 135.401C13.7775 135.244 13.8396 135.093 13.9502 134.982C14.0608 134.871 14.2108 134.809 14.3672 134.809H49.4764C49.6328 134.809 49.7828 134.871 49.8934 134.982C50.004 135.093 50.0661 135.244 50.0661 135.401C50.0706 136.993 49.7606 138.57 49.154 140.04C48.5474 141.511 47.6562 142.847 46.532 143.969C44.495 146.019 43.351 148.796 43.351 151.691C43.351 154.586 44.495 157.363 46.532 159.413C47.6525 160.536 48.5414 161.87 49.1478 163.339C49.7543 164.808 50.0665 166.382 50.0665 167.972C50.0665 169.561 49.7543 171.136 49.1478 172.604C48.5414 174.073 47.6525 175.407 46.532 176.53C44.495 178.58 43.351 181.357 43.351 184.252C43.351 187.147 44.495 189.924 46.532 191.974C47.6525 193.097 48.5414 194.431 49.1478 195.9C49.7543 197.369 50.0665 198.943 50.0665 200.533C50.0665 202.122 49.7543 203.697 49.1478 205.165C48.5414 206.634 47.6525 207.968 46.532 209.091L38.4133 217.242C38.3585 217.297 38.2935 217.34 38.2219 217.37C38.1503 217.4 38.0736 217.415 37.9961 217.415ZM26.0918 216.231H37.7518L45.6979 208.254C46.7089 207.241 47.5109 206.037 48.0582 204.712C48.6054 203.387 48.887 201.967 48.887 200.533C48.887 199.098 48.6054 197.678 48.0582 196.353C47.5109 195.028 46.7089 193.824 45.6979 192.811C43.44 190.539 42.172 187.461 42.172 184.252C42.172 181.043 43.44 177.965 45.6979 175.693C46.7089 174.68 47.5109 173.476 48.0582 172.151C48.6054 170.826 48.887 169.406 48.887 167.972C48.887 166.537 48.6054 165.117 48.0582 163.792C47.5109 162.467 46.7089 161.263 45.6979 160.25C43.44 157.978 42.172 154.9 42.172 151.691C42.172 148.482 43.44 145.404 45.6979 143.132C47.6023 141.231 48.7334 138.686 48.8711 135.993H14.9725C15.1101 138.686 16.2412 141.231 18.1457 143.132C20.4036 145.404 21.6716 148.482 21.6716 151.691C21.6716 154.9 20.4036 157.978 18.1457 160.25C17.1347 161.263 16.3327 162.467 15.7854 163.792C15.2382 165.117 14.9566 166.537 14.9566 167.972C14.9566 169.406 15.2382 170.826 15.7854 172.151C16.3327 173.476 17.1347 174.68 18.1457 175.693C20.4036 177.965 21.6716 181.043 21.6716 184.252C21.6716 187.461 20.4036 190.539 18.1457 192.811C17.1347 193.824 16.3327 195.028 15.7854 196.353C15.2382 197.678 14.9566 199.098 14.9566 200.533C14.9566 201.967 15.2382 203.387 15.7854 204.712C16.3327 206.037 17.1347 207.241 18.1457 208.254L26.0918 216.231Z" fill="#222723"/>
<path d="M235.056 183.143C234.954 183.143 234.854 183.118 234.764 183.07C234.675 183.022 234.598 182.953 234.542 182.869C234.485 182.784 234.451 182.687 234.441 182.586C234.43 182.485 234.445 182.383 234.484 182.289L241.385 165.528C241.448 165.376 241.568 165.255 241.72 165.192C241.871 165.129 242.041 165.129 242.193 165.191C242.345 165.254 242.465 165.374 242.528 165.525C242.591 165.677 242.592 165.847 242.529 165.999L235.628 182.76C235.581 182.873 235.502 182.97 235.4 183.039C235.298 183.107 235.178 183.143 235.056 183.143Z" fill="#222723"/>
<path d="M231.876 192.194C231.712 192.194 231.554 192.129 231.438 192.013C231.322 191.897 231.257 191.74 231.257 191.576V147.215C231.257 147.051 231.322 146.894 231.438 146.778C231.554 146.662 231.712 146.596 231.876 146.596C232.04 146.596 232.197 146.662 232.313 146.778C232.429 146.894 232.494 147.051 232.494 147.215V191.576C232.494 191.74 232.429 191.897 232.313 192.013C232.197 192.129 232.04 192.194 231.876 192.194Z" fill="#222723"/>
<path d="M240.579 125.96C240.294 125.96 240.011 126.016 239.747 126.125C239.483 126.234 239.243 126.394 239.041 126.596C238.839 126.797 238.679 127.037 238.569 127.301C238.46 127.564 238.403 127.847 238.403 128.133V128.135C238.403 127.849 238.347 127.566 238.237 127.302C238.128 127.039 237.968 126.799 237.766 126.597C237.564 126.395 237.324 126.235 237.06 126.125C236.797 126.016 236.514 125.96 236.228 125.96H236.226C235.649 125.96 235.096 126.189 234.689 126.597C234.281 127.005 234.052 127.558 234.052 128.135C234.052 127.558 233.823 127.005 233.415 126.597C233.007 126.189 232.454 125.96 231.877 125.96H231.875C231.59 125.96 231.307 126.016 231.043 126.125C230.779 126.234 230.539 126.394 230.337 126.596C230.135 126.797 229.975 127.037 229.865 127.301C229.756 127.564 229.699 127.847 229.699 128.133V128.135C229.699 127.559 229.47 127.006 229.063 126.598C228.657 126.191 228.104 125.961 227.528 125.96C226.952 125.956 226.397 126.182 225.987 126.587C225.577 126.992 225.344 127.544 225.34 128.121V128.135C225.34 127.849 225.284 127.566 225.175 127.302C225.065 127.039 224.905 126.799 224.703 126.597C224.501 126.395 224.262 126.235 223.998 126.126C223.734 126.016 223.451 125.96 223.166 125.96C222.589 125.96 222.036 126.188 221.628 126.596C221.219 127.003 220.99 127.556 220.989 128.133V137.241C220.989 138.67 221.27 140.084 221.817 141.404C222.363 142.724 223.164 143.924 224.174 144.934C225.184 145.945 226.383 146.746 227.703 147.293C229.023 147.84 230.437 148.122 231.866 148.122H231.869C233.298 148.122 234.713 147.84 236.033 147.294C237.353 146.747 238.552 145.945 239.563 144.935C240.573 143.925 241.375 142.725 241.921 141.405C242.468 140.085 242.749 138.67 242.749 137.241V128.135C242.749 127.559 242.521 127.006 242.114 126.598C241.707 126.191 241.155 125.961 240.579 125.96Z" fill="#6A9586"/>
<path d="M238.402 137.135C238.238 137.135 238.081 137.07 237.965 136.954C237.849 136.838 237.784 136.681 237.784 136.517V127.961C237.784 127.797 237.849 127.64 237.965 127.524C238.081 127.408 238.238 127.343 238.402 127.343C238.566 127.343 238.724 127.408 238.84 127.524C238.956 127.64 239.021 127.797 239.021 127.961V136.517C239.021 136.681 238.956 136.838 238.84 136.954C238.724 137.07 238.566 137.135 238.402 137.135Z" fill="#222723"/>
<path d="M234.05 137.135C233.886 137.135 233.729 137.07 233.613 136.954C233.497 136.838 233.432 136.681 233.432 136.517V127.961C233.432 127.797 233.497 127.64 233.613 127.524C233.729 127.408 233.886 127.343 234.05 127.343C234.214 127.343 234.371 127.408 234.487 127.524C234.603 127.64 234.668 127.797 234.668 127.961V136.517C234.668 136.681 234.603 136.838 234.487 136.954C234.371 137.07 234.214 137.135 234.05 137.135Z" fill="#222723"/>
<path d="M229.699 137.135C229.535 137.135 229.378 137.07 229.262 136.954C229.146 136.838 229.081 136.681 229.081 136.517V127.961C229.081 127.797 229.146 127.64 229.262 127.524C229.378 127.408 229.535 127.343 229.699 127.343C229.863 127.343 230.02 127.408 230.136 127.524C230.252 127.64 230.317 127.797 230.317 127.961V136.517C230.317 136.681 230.252 136.838 230.136 136.954C230.02 137.07 229.863 137.135 229.699 137.135Z" fill="#222723"/>
<path d="M225.346 137.135C225.182 137.135 225.025 137.07 224.909 136.954C224.793 136.838 224.728 136.681 224.728 136.517V127.961C224.728 127.797 224.793 127.64 224.909 127.524C225.025 127.408 225.182 127.343 225.346 127.343C225.51 127.343 225.668 127.408 225.784 127.524C225.9 127.64 225.965 127.797 225.965 127.961V136.517C225.965 136.681 225.9 136.838 225.784 136.954C225.668 137.07 225.51 137.135 225.346 137.135Z" fill="#222723"/>
<path d="M225.845 217.132C222.608 217.135 219.971 214.412 219.968 211.175C219.967 210.18 220.219 209.202 220.7 208.332L231.801 190.461L242.904 208.332C243.655 209.694 243.835 211.298 243.404 212.792C242.973 214.287 241.966 215.548 240.605 216.3C239.747 216.809 238.775 217.095 237.778 217.132H225.845Z" fill="white"/>
<path d="M225.839 217.75C224.706 217.738 223.595 217.432 222.615 216.862C221.635 216.293 220.819 215.479 220.247 214.5C219.675 213.522 219.366 212.412 219.351 211.278C219.335 210.145 219.614 209.027 220.159 208.033C220.164 208.023 220.17 208.014 220.175 208.006L231.276 190.135C231.331 190.045 231.409 189.971 231.501 189.92C231.593 189.869 231.696 189.842 231.801 189.842C231.907 189.842 232.01 189.869 232.102 189.92C232.194 189.971 232.272 190.045 232.327 190.135L243.43 208.006C243.436 208.015 243.441 208.024 243.446 208.033C244.275 209.539 244.473 211.312 243.997 212.963C243.52 214.614 242.408 216.009 240.904 216.842C239.814 217.443 238.763 217.748 237.78 217.75H225.839ZM221.234 208.645C220.809 209.42 220.586 210.29 220.587 211.174C220.588 212.583 221.145 213.934 222.136 214.935C222.616 215.433 223.191 215.829 223.827 216.1C224.463 216.371 225.148 216.512 225.839 216.513H237.778C238.55 216.513 239.4 216.259 240.306 215.759C241.52 215.086 242.419 213.961 242.806 212.627C243.193 211.294 243.036 209.862 242.37 208.644L231.801 191.633L221.234 208.645Z" fill="#222723"/>
<path d="M238.821 181.2L231.805 190.461L224.789 181.2H238.821Z" fill="white"/>
<path d="M231.805 191.079C231.71 191.079 231.616 191.057 231.53 191.015C231.445 190.972 231.37 190.911 231.312 190.835L224.297 181.572C224.227 181.481 224.185 181.371 224.174 181.257C224.163 181.142 224.185 181.027 224.236 180.924C224.287 180.821 224.366 180.734 224.464 180.673C224.562 180.613 224.675 180.581 224.79 180.581H238.822C238.937 180.581 239.049 180.613 239.147 180.673C239.245 180.734 239.324 180.821 239.375 180.924C239.426 181.027 239.448 181.142 239.437 181.257C239.426 181.371 239.384 181.481 239.314 181.572L232.298 190.834C232.241 190.91 232.166 190.972 232.081 191.014C231.995 191.057 231.901 191.079 231.805 191.079ZM226.034 181.818L231.805 189.437L237.576 181.818H226.034Z" fill="#222723"/>
<path d="M251.214 162.482C253.306 158.789 252.01 154.099 248.317 152.006C244.625 149.913 239.935 151.21 237.843 154.903C235.75 158.595 237.047 163.285 240.739 165.378C244.431 167.471 249.121 166.174 251.214 162.482Z" fill="#7E847F"/>
<path d="M247.091 161.09C245.9 161.091 244.723 160.827 243.647 160.317C242.249 159.652 241.069 158.605 240.242 157.297C239.415 155.989 238.975 154.473 238.975 152.925C238.975 152.762 239.041 152.605 239.156 152.489C239.272 152.374 239.429 152.309 239.593 152.309H239.595C239.676 152.309 239.757 152.326 239.832 152.357C239.907 152.388 239.975 152.434 240.032 152.492C240.089 152.549 240.134 152.618 240.165 152.693C240.196 152.768 240.212 152.849 240.211 152.93C240.212 154.243 240.585 155.529 241.287 156.638C241.989 157.748 242.991 158.636 244.177 159.199C245.361 159.756 246.679 159.964 247.976 159.797C249.274 159.63 250.496 159.096 251.5 158.257C251.562 158.202 251.635 158.16 251.713 158.134C251.791 158.107 251.874 158.097 251.957 158.103C252.039 158.109 252.12 158.132 252.193 158.169C252.267 158.207 252.332 158.259 252.386 158.323C252.439 158.386 252.479 158.46 252.503 158.539C252.527 158.618 252.535 158.701 252.526 158.784C252.518 158.866 252.493 158.946 252.453 159.018C252.413 159.091 252.359 159.154 252.294 159.206C250.833 160.424 248.992 161.091 247.091 161.09Z" fill="#222723"/>
<path d="M247.026 161.095C246.936 161.095 246.847 161.075 246.766 161.038C246.684 161 246.612 160.945 246.554 160.876C245.55 159.69 244.91 158.239 244.71 156.697C244.51 155.156 244.758 153.59 245.425 152.186C245.593 151.832 245.785 151.49 246.001 151.163C246.044 151.093 246.101 151.032 246.169 150.984C246.236 150.936 246.312 150.902 246.393 150.885C246.474 150.867 246.558 150.865 246.639 150.88C246.72 150.895 246.798 150.927 246.867 150.972C246.936 151.018 246.995 151.076 247.041 151.145C247.087 151.214 247.118 151.291 247.134 151.373C247.149 151.454 247.148 151.537 247.131 151.618C247.114 151.699 247.08 151.776 247.033 151.843C246.849 152.122 246.685 152.414 246.542 152.715C245.977 153.904 245.767 155.231 245.936 156.536C246.105 157.841 246.647 159.07 247.497 160.075C247.573 160.165 247.622 160.275 247.638 160.392C247.654 160.509 247.636 160.628 247.587 160.735C247.537 160.842 247.458 160.933 247.359 160.996C247.259 161.06 247.144 161.094 247.026 161.094V161.095Z" fill="#222723"/>
<path d="M95.97 46.9802C108.78 46.9802 119.165 36.5954 119.165 23.7851C119.165 10.9748 108.78 0.590027 95.97 0.590027C83.1597 0.590027 72.7749 10.9748 72.7749 23.7851C72.7749 36.5954 83.1597 46.9802 95.97 46.9802Z" fill="white"/>
<path d="M95.9701 47.57C82.8549 47.57 72.1851 36.9002 72.1851 23.785C72.1851 10.6698 82.8549 0 95.9701 0C109.085 0 119.755 10.6698 119.755 23.785C119.755 36.9002 109.085 47.57 95.9701 47.57ZM95.9701 1.17981C83.5055 1.17981 73.3649 11.3205 73.3649 23.785C73.3649 36.2495 83.5055 46.3902 95.9701 46.3902C108.435 46.3902 118.575 36.2495 118.575 23.785C118.575 11.3205 108.435 1.17981 95.9701 1.17981Z" fill="#222723"/>
<path d="M95.9701 24.3748C95.8824 24.3748 95.7941 24.3553 95.7123 24.3154C95.5092 24.2167 95.3804 24.0106 95.3804 23.7849V8.28021C95.3804 7.95439 95.6445 7.69031 95.9703 7.69031C96.2961 7.69031 96.5602 7.95439 96.5602 8.28021V22.5715L105.202 15.784C105.458 15.5829 105.829 15.6273 106.03 15.8835C106.231 16.1397 106.187 16.5106 105.93 16.7117L96.3346 24.2488C96.2287 24.3321 96.1001 24.3748 95.9701 24.3748Z" fill="#222723"/>
</svg>
