<svg width="32" height="32" viewBox="0 0 32 32" fill="none" xmlns="http://www.w3.org/2000/svg">
<rect width="32" height="32" rx="16" fill="#F6F7FC"/>
<path d="M10.6666 10.1333C10.0773 10.1333 9.59992 10.6107 9.59992 11.2V12.8V13.8667H19.7333H22.3999V12.2667C22.3999 11.6773 21.9226 11.2 21.3333 11.2H14.5062L14.177 10.651C13.9845 10.33 13.6374 10.1333 13.2624 10.1333H10.6666ZM9.3343 14.9333C8.79616 14.9333 8.4108 15.4546 8.56867 15.9687L10.152 21.1135C10.2901 21.561 10.7035 21.8667 11.1718 21.8667H15.9999H20.828C21.2963 21.8667 21.7097 21.561 21.8478 21.1135L23.4312 15.9687C23.589 15.4546 23.2037 14.9333 22.6655 14.9333H15.9999H9.3343Z" fill="#707FDA"/>
</svg>
