<svg width="32" height="32" viewBox="0 0 32 32" fill="none" xmlns="http://www.w3.org/2000/svg">
<rect width="32" height="32" rx="16" fill="#F0F9F6"/>
<path d="M16.0001 8.53333C15.5281 8.53333 15.1086 8.74168 14.8157 9.06666H13.3345C12.9574 9.06666 12.6984 9.44804 12.8386 9.79791L13.3334 11.2H18.6668L19.1616 9.79791C19.3018 9.44804 19.0428 9.06666 18.6657 9.06666H17.1845C16.8916 8.74168 16.4721 8.53333 16.0001 8.53333ZM13.3334 12.2667C13.3334 12.2667 9.6001 15.4667 9.6001 19.2C9.6001 21.3333 11.2001 22.4 12.2668 22.4H16.0001H19.7334C20.8001 22.4 22.4001 21.3333 22.4001 19.2C22.4001 15.4667 18.6668 12.2667 18.6668 12.2667H13.3334ZM15.4668 14.1333H16.5334V14.9948C17.2534 15.1558 17.735 15.6464 17.7584 16.3094H16.8595C16.8152 15.9488 16.4797 15.7083 16.0178 15.7083C15.5399 15.7083 15.2241 15.9298 15.2241 16.2781C15.2241 16.5597 15.4412 16.7218 15.9761 16.8354L16.5272 16.9521C17.445 17.1451 17.8397 17.5417 17.8397 18.25C17.8397 19.0127 17.3505 19.524 16.5334 19.6792V20.5333H15.4668V19.6812C14.6822 19.534 14.1893 19.0524 14.1605 18.3479H15.0834C15.1277 18.718 15.5015 18.9552 16.0397 18.9552C16.5362 18.9552 16.8876 18.7148 16.8876 18.3698C16.8876 18.0786 16.6601 17.9111 16.1001 17.7906L15.5053 17.6635C14.6733 17.4897 14.2647 17.0564 14.2647 16.3604C14.2647 15.6601 14.7281 15.1611 15.4668 14.9969V14.1333Z" fill="#6A9586"/>
</svg>
