<svg width="32" height="32" viewBox="0 0 32 32" fill="none" xmlns="http://www.w3.org/2000/svg">
<rect width="32" height="32" rx="16" fill="#F0F9F6"/>
<path d="M16.0002 9.33331C13.4228 9.33331 11.3335 11.4226 11.3335 14C11.3335 16.644 14.2695 20.5466 15.4842 22.0473C15.7508 22.3766 16.2495 22.3766 16.5162 22.0473C17.7308 20.5466 20.6668 16.644 20.6668 14C20.6668 11.4226 18.5775 9.33331 16.0002 9.33331ZM16.0002 15.6666C15.0795 15.6666 14.3335 14.9206 14.3335 14C14.3335 13.0793 15.0795 12.3333 16.0002 12.3333C16.9208 12.3333 17.6668 13.0793 17.6668 14C17.6668 14.9206 16.9208 15.6666 16.0002 15.6666Z" fill="#6A9586"/>
</svg>
