<svg width="32" height="32" viewBox="0 0 32 32" fill="none" xmlns="http://www.w3.org/2000/svg">
<rect width="32" height="32" rx="16" fill="#F0F9F6"/>
<path d="M10.6668 10.1334C10.0775 10.1334 9.60016 10.6107 9.60016 11.2V12.8V13.8667H19.7335H22.4002V12.2667C22.4002 11.6774 21.9228 11.2 21.3335 11.2H14.5064L14.1772 10.6511C13.9847 10.33 13.6376 10.1334 13.2627 10.1334H10.6668ZM9.33454 14.9334C8.79641 14.9334 8.41105 15.4546 8.56891 15.9688L10.1522 21.1136C10.2904 21.561 10.7038 21.8667 11.172 21.8667H16.0002H20.8283C21.2966 21.8667 21.7099 21.561 21.8481 21.1136L23.4314 15.9688C23.5893 15.4546 23.2039 14.9334 22.6658 14.9334H16.0002H9.33454Z" fill="#6A9586"/>
</svg>
