<svg width="32" height="32" viewBox="0 0 32 32" fill="none" xmlns="http://www.w3.org/2000/svg">
<rect width="32" height="32" rx="16" fill="#F0F9F6"/>
<g clip-path="url(#clip0)">
<path d="M10.1336 10.1334C9.54423 10.1334 9.06689 10.6107 9.06689 11.2V13.3334V21.8667H15.7461C15.6255 21.5264 15.5392 21.1707 15.4981 20.8H10.1336V13.3334H21.8669V15.7459C22.2461 15.8803 22.605 16.0558 22.9336 16.2761V11.7334V11.2C22.9336 10.6107 22.4562 10.1334 21.8669 10.1334H10.1336ZM12.2669 14.9334C12.1254 14.9334 11.9898 14.9896 11.8898 15.0896C11.7898 15.1896 11.7336 15.3252 11.7336 15.4667C11.7336 15.6081 11.7898 15.7438 11.8898 15.8438C11.9898 15.9438 12.1254 16 12.2669 16C12.4083 16 12.544 15.9438 12.644 15.8438C12.744 15.7438 12.8002 15.6081 12.8002 15.4667C12.8002 15.3252 12.744 15.1896 12.644 15.0896C12.544 14.9896 12.4083 14.9334 12.2669 14.9334ZM14.4002 14.9334C14.1058 14.9334 13.8669 15.1723 13.8669 15.4667C13.8669 15.7611 14.1058 16 14.4002 16H18.0742C18.5798 15.7398 19.1369 15.5657 19.7273 15.499C19.7278 15.4878 19.7336 15.4779 19.7336 15.4667C19.7336 15.1723 19.4946 14.9334 19.2002 14.9334H14.4002ZM20.2669 16.5334C18.2082 16.5334 16.5336 18.208 16.5336 20.2667C16.5336 22.3254 18.2082 24 20.2669 24C22.3256 24 24.0002 22.3254 24.0002 20.2667C24.0002 18.208 22.3256 16.5334 20.2669 16.5334ZM12.2669 17.0667C12.1254 17.0667 11.9898 17.1229 11.8898 17.2229C11.7898 17.3229 11.7336 17.4586 11.7336 17.6C11.7336 17.7415 11.7898 17.8771 11.8898 17.9772C11.9898 18.0772 12.1254 18.1334 12.2669 18.1334C12.4083 18.1334 12.544 18.0772 12.644 17.9772C12.744 17.8771 12.8002 17.7415 12.8002 17.6C12.8002 17.4586 12.744 17.3229 12.644 17.2229C12.544 17.1229 12.4083 17.0667 12.2669 17.0667ZM14.4002 17.0667C14.1058 17.0667 13.8669 17.3056 13.8669 17.6C13.8669 17.8944 14.1058 18.1334 14.4002 18.1334H15.9721C16.1657 17.7446 16.4096 17.3867 16.6971 17.0667H14.4002ZM20.2669 17.6C21.7373 17.6 22.9336 18.7963 22.9336 20.2667C22.9336 21.7371 21.7373 22.9334 20.2669 22.9334C18.7965 22.9334 17.6002 21.7371 17.6002 20.2667C17.6002 18.7963 18.7965 17.6 20.2669 17.6ZM20.2669 18.1334C19.9725 18.1334 19.7336 18.3723 19.7336 18.6667V20.4875L20.6856 21.4396C20.7896 21.5436 20.9262 21.5959 21.0627 21.5959C21.1993 21.5959 21.3358 21.5436 21.4398 21.4396C21.6483 21.2311 21.6483 20.894 21.4398 20.6854L20.8002 20.0459V18.6667C20.8002 18.3723 20.5613 18.1334 20.2669 18.1334Z" fill="#6A9586"/>
</g>
<defs>
<clipPath id="clip0">
<rect width="16" height="16" fill="white" transform="translate(8 8)"/>
</clipPath>
</defs>
</svg>
