<svg width="32" height="32" viewBox="0 0 32 32" fill="none" xmlns="http://www.w3.org/2000/svg">
<rect width="32" height="32" rx="16" fill="#F6F7FC"/>
<path d="M15.9999 9.33333C13.4226 9.33333 11.3333 11.4227 11.3333 14C11.3333 16.644 14.2693 20.5467 15.4839 22.0473C15.7506 22.3767 16.2493 22.3767 16.5159 22.0473C17.7306 20.5467 20.6666 16.644 20.6666 14C20.6666 11.4227 18.5773 9.33333 15.9999 9.33333ZM15.9999 15.6667C15.0793 15.6667 14.3333 14.9207 14.3333 14C14.3333 13.0793 15.0793 12.3333 15.9999 12.3333C16.9206 12.3333 17.6666 13.0793 17.6666 14C17.6666 14.9207 16.9206 15.6667 15.9999 15.6667Z" fill="#707FDA"/>
</svg>
