<svg width="32" height="32" viewBox="0 0 32 32" fill="none" xmlns="http://www.w3.org/2000/svg">
<rect width="32" height="32" rx="16" fill="#F0F9F6"/>
<path d="M9.92426 15.444C9.94752 15.3974 10.0197 15.3327 10.0846 15.3001C10.1939 15.2453 10.3956 15.2409 12.8179 15.2409L19.1923 15.2408C21.6326 15.2408 21.9105 15.2372 22.0094 15.3684C22.0248 15.3889 22.0359 15.4128 22.0502 15.4404C22.0982 15.5332 22.1028 15.9375 22.0948 19.3562L22.0859 23.1686L21.8648 23.3662H12.9099C10.7158 23.3662 10.3704 23.3594 10.262 23.3141C10.0941 23.244 10.0186 23.1718 9.94464 23.0107C9.88549 22.8819 9.88245 22.6945 9.88221 19.2019C9.88201 16.3319 9.89121 15.5101 9.92426 15.444Z" fill="#6A9586"/>
<path d="M12.4771 9.88108C12.6812 9.46542 13.0629 9.15565 13.5162 9.03777C13.7798 8.9692 14.161 8.99583 14.4467 9.10275C14.5927 9.15742 14.8932 9.36049 15.3098 9.68622C15.6613 9.96103 15.9719 10.1953 16 10.2067C16.0281 10.2182 16.3342 10.0005 16.6803 9.72287C17.4875 9.07533 17.6361 9.0028 18.1557 9.0028C18.515 9.0028 18.5712 9.0141 18.8197 9.13643C19.1482 9.29819 19.4382 9.59439 19.5878 9.9212C19.6721 10.1055 19.6961 10.2239 19.6983 10.4662C19.6997 10.6364 19.6875 10.8359 19.6712 10.9094L19.6413 11.0431L23 11.0644V14L9 14.0208L9.02148 11.0644L12.3617 11.0431V10.5796C12.3617 10.1554 12.3715 10.0961 12.4771 9.88108Z" fill="#6A9586"/>
</svg>
