<svg width="32" height="32" viewBox="0 0 32 32" fill="none" xmlns="http://www.w3.org/2000/svg">
<rect width="32" height="32" rx="16" fill="#F0F9F6"/>
<path d="M16.0001 9.59998C12.4718 9.59998 9.6001 12.4717 9.6001 16C9.6001 19.5283 12.4718 22.4 16.0001 22.4C19.5284 22.4 22.4001 19.5283 22.4001 16C22.4001 12.4717 19.5284 9.59998 16.0001 9.59998ZM16.0001 10.6666C16.2098 10.6666 16.427 10.7535 16.6751 10.9844C16.9232 11.2152 17.18 11.5875 17.4001 12.0719C17.5002 12.2921 17.5909 12.538 17.6741 12.8H14.3261C14.4093 12.538 14.5 12.2921 14.6001 12.0719C14.8202 11.5875 15.077 11.2152 15.3251 10.9844C15.5732 10.7535 15.7904 10.6666 16.0001 10.6666ZM13.9136 11.0896C13.8133 11.2607 13.7168 11.4387 13.6293 11.6312C13.4678 11.9865 13.3299 12.3802 13.2126 12.8H11.7366C12.2963 12.0546 13.0435 11.4586 13.9136 11.0896ZM18.0866 11.0896C18.9567 11.4586 19.7039 12.0546 20.2636 12.8H18.7876C18.6703 12.3802 18.5324 11.9865 18.3709 11.6312C18.2834 11.4387 18.1869 11.2607 18.0866 11.0896ZM11.1116 13.8666H12.9761C12.8903 14.3744 12.8342 14.9094 12.8126 15.4666H10.6928C10.7486 14.9022 10.8945 14.3649 11.1116 13.8666ZM14.0605 13.8666H17.9397C18.0332 14.3654 18.0964 14.9025 18.1209 15.4666H13.8793C13.9038 14.9025 13.967 14.3654 14.0605 13.8666ZM19.0241 13.8666H20.8886C21.1057 14.3649 21.2516 14.9022 21.3074 15.4666H19.1876C19.166 14.9094 19.1099 14.3744 19.0241 13.8666ZM10.6928 16.5333H12.8126C12.8342 17.0905 12.8903 17.6256 12.9761 18.1333H11.1116C10.8945 17.635 10.7486 17.0978 10.6928 16.5333ZM13.8793 16.5333H18.1209C18.0964 17.0975 18.0332 17.6346 17.9397 18.1333H14.0605C13.967 17.6346 13.9038 17.0975 13.8793 16.5333ZM19.1876 16.5333H21.3074C21.2516 17.0978 21.1057 17.635 20.8886 18.1333H19.0241C19.1099 17.6256 19.166 17.0905 19.1876 16.5333ZM11.7366 19.2H13.2126C13.3299 19.6197 13.4678 20.0134 13.6293 20.3687C13.7168 20.5612 13.8133 20.7392 13.9136 20.9104C13.0435 20.5414 12.2963 19.9454 11.7366 19.2ZM14.3261 19.2H17.6741C17.5909 19.462 17.5002 19.7079 17.4001 19.9281C17.18 20.4124 16.9232 20.7847 16.6751 21.0156C16.427 21.2465 16.2098 21.3333 16.0001 21.3333C15.7904 21.3333 15.5732 21.2465 15.3251 21.0156C15.077 20.7847 14.8202 20.4124 14.6001 19.9281C14.5 19.7079 14.4093 19.462 14.3261 19.2ZM18.7876 19.2H20.2636C19.7039 19.9454 18.9567 20.5414 18.0866 20.9104C18.1869 20.7392 18.2834 20.5612 18.3709 20.3687C18.5324 20.0134 18.6703 19.6197 18.7876 19.2Z" fill="#6A9586"/>
</svg>
