<svg width="32" height="32" viewBox="0 0 32 32" fill="none" xmlns="http://www.w3.org/2000/svg">
<rect width="32" height="32" rx="16" fill="#F0F9F6"/>
<path d="M15.9996 9.59998C12.4713 9.59998 9.59961 12.4717 9.59961 16C9.59961 19.5283 12.4713 22.4 15.9996 22.4C19.5279 22.4 22.3996 19.5283 22.3996 16C22.3996 12.4717 19.5279 9.59998 15.9996 9.59998ZM15.9996 10.6666C16.2093 10.6666 16.4265 10.7535 16.6746 10.9844C16.9227 11.2152 17.1795 11.5875 17.3996 12.0719C17.4997 12.2921 17.5904 12.538 17.6736 12.8H14.3257C14.4088 12.538 14.4995 12.2921 14.5996 12.0719C14.8198 11.5875 15.0765 11.2152 15.3246 10.9844C15.5727 10.7535 15.7899 10.6666 15.9996 10.6666ZM13.9132 11.0896C13.8128 11.2607 13.7163 11.4387 13.6288 11.6312C13.4673 11.9865 13.3294 12.3802 13.2121 12.8H11.7361C12.2958 12.0546 13.043 11.4586 13.9132 11.0896ZM18.0861 11.0896C18.9562 11.4586 19.7034 12.0546 20.2632 12.8H18.7871C18.6698 12.3802 18.5319 11.9865 18.3704 11.6312C18.2829 11.4387 18.1864 11.2607 18.0861 11.0896ZM11.1111 13.8666H12.9757C12.8898 14.3744 12.8338 14.9094 12.8121 15.4666H10.6923C10.7481 14.9022 10.894 14.3649 11.1111 13.8666ZM14.06 13.8666H17.9392C18.0327 14.3654 18.0959 14.9025 18.1204 15.4666H13.8788C13.9033 14.9025 13.9665 14.3654 14.06 13.8666ZM19.0236 13.8666H20.8882C21.1052 14.3649 21.2511 14.9022 21.3069 15.4666H19.1871C19.1655 14.9094 19.1094 14.3744 19.0236 13.8666ZM10.6923 16.5333H12.8121C12.8338 17.0905 12.8898 17.6256 12.9757 18.1333H11.1111C10.894 17.635 10.7481 17.0978 10.6923 16.5333ZM13.8788 16.5333H18.1204C18.0959 17.0975 18.0327 17.6346 17.9392 18.1333H14.06C13.9665 17.6346 13.9033 17.0975 13.8788 16.5333ZM19.1871 16.5333H21.3069C21.2511 17.0978 21.1052 17.635 20.8882 18.1333H19.0236C19.1094 17.6256 19.1655 17.0905 19.1871 16.5333ZM11.7361 19.2H13.2121C13.3294 19.6197 13.4673 20.0134 13.6288 20.3687C13.7163 20.5612 13.8128 20.7392 13.9132 20.9104C13.043 20.5414 12.2958 19.9454 11.7361 19.2ZM14.3257 19.2H17.6736C17.5904 19.462 17.4997 19.7079 17.3996 19.9281C17.1795 20.4124 16.9227 20.7847 16.6746 21.0156C16.4265 21.2465 16.2093 21.3333 15.9996 21.3333C15.7899 21.3333 15.5727 21.2465 15.3246 21.0156C15.0765 20.7847 14.8198 20.4124 14.5996 19.9281C14.4995 19.7079 14.4088 19.462 14.3257 19.2ZM18.7871 19.2H20.2632C19.7034 19.9454 18.9562 20.5414 18.0861 20.9104C18.1864 20.7392 18.2829 20.5612 18.3704 20.3687C18.5319 20.0134 18.6698 19.6197 18.7871 19.2Z" fill="#6A9586"/>
</svg>
