<svg width="32" height="32" viewBox="0 0 32 32" fill="none" xmlns="http://www.w3.org/2000/svg">
<rect width="32" height="32" rx="16" fill="#F0F9F6"/>
<path d="M15.9997 9.33331C13.4223 9.33331 11.333 11.4226 11.333 14C11.333 16.644 14.269 20.5466 15.4837 22.0473C15.7503 22.3766 16.249 22.3766 16.5157 22.0473C17.7303 20.5466 20.6663 16.644 20.6663 14C20.6663 11.4226 18.577 9.33331 15.9997 9.33331ZM15.9997 15.6666C15.079 15.6666 14.333 14.9206 14.333 14C14.333 13.0793 15.079 12.3333 15.9997 12.3333C16.9203 12.3333 17.6663 13.0793 17.6663 14C17.6663 14.9206 16.9203 15.6666 15.9997 15.6666Z" fill="#6A9586"/>
</svg>
