<svg width="32" height="32" viewBox="0 0 32 32" fill="none" xmlns="http://www.w3.org/2000/svg">
<rect width="32" height="32" rx="16" fill="#F0F9F6"/>
<path d="M15.9996 8.53333C15.5277 8.53333 15.1081 8.74168 14.8152 9.06666H13.334C12.9569 9.06666 12.6979 9.44804 12.8382 9.79791L13.3329 11.2H18.6663L19.1611 9.79791C19.3013 9.44804 19.0423 9.06666 18.6652 9.06666H17.184C16.8911 8.74168 16.4716 8.53333 15.9996 8.53333ZM13.3329 12.2667C13.3329 12.2667 9.59961 15.4667 9.59961 19.2C9.59961 21.3333 11.1996 22.4 12.2663 22.4H15.9996H19.7329C20.7996 22.4 22.3996 21.3333 22.3996 19.2C22.3996 15.4667 18.6663 12.2667 18.6663 12.2667H13.3329ZM15.4663 14.1333H16.5329V14.9948C17.2529 15.1558 17.7345 15.6464 17.7579 16.3094H16.859C16.8147 15.9488 16.4792 15.7083 16.0173 15.7083C15.5395 15.7083 15.2236 15.9298 15.2236 16.2781C15.2236 16.5597 15.4407 16.7218 15.9757 16.8354L16.5267 16.9521C17.4446 17.1451 17.8392 17.5417 17.8392 18.25C17.8392 19.0127 17.35 19.524 16.5329 19.6792V20.5333H15.4663V19.6812C14.6817 19.534 14.1888 19.0524 14.16 18.3479H15.0829C15.1272 18.718 15.5011 18.9552 16.0392 18.9552C16.5357 18.9552 16.8871 18.7148 16.8871 18.3698C16.8871 18.0786 16.6596 17.9111 16.0996 17.7906L15.5048 17.6635C14.6728 17.4897 14.2642 17.0564 14.2642 16.3604C14.2642 15.6601 14.7276 15.1611 15.4663 14.9969V14.1333Z" fill="#6A9586"/>
</svg>
