<svg width="16" height="16" viewBox="0 0 16 16" fill="none" xmlns="http://www.w3.org/2000/svg">
<path d="M14.3675 4.64C14.24 3.93625 13.6325 3.42375 12.9275 3.26375C11.8725 3.04 9.91996 2.88 7.80746 2.88C5.69621 2.88 3.71246 3.04 2.65621 3.26375C1.95246 3.42375 1.34371 3.90375 1.21621 4.64C1.08746 5.44 0.959961 6.56 0.959961 8C0.959961 9.44 1.08746 10.56 1.24746 11.36C1.37621 12.0638 1.98371 12.5763 2.68746 12.7363C3.80746 12.96 5.72746 13.12 7.83996 13.12C9.95246 13.12 11.8725 12.96 12.9925 12.7363C13.6962 12.5763 14.3037 12.0963 14.4325 11.36C14.56 10.56 14.72 9.40751 14.7525 8C14.6875 6.56 14.5275 5.44 14.3675 4.64ZM6.07996 10.24V5.76L9.98371 8L6.07996 10.24Z" fill="#99A29C"/>
</svg>
