<svg width="32" height="32" viewBox="0 0 32 32" fill="none" xmlns="http://www.w3.org/2000/svg">
<rect width="32" height="32" rx="16" fill="#F0F9F6"/>
<path d="M15.9997 11.3333C11.1512 11.3333 9.33301 16 9.33301 16C9.33301 16 11.1512 20.6666 15.9997 20.6666C20.8482 20.6666 22.6663 16 22.6663 16C22.6663 16 20.8482 11.3333 15.9997 11.3333ZM15.9997 13.0833C17.673 13.0833 19.03 14.3894 19.03 16C19.03 17.6106 17.673 18.9166 15.9997 18.9166C14.3263 18.9166 12.9694 17.6106 12.9694 16C12.9694 14.3894 14.3263 13.0833 15.9997 13.0833ZM15.9997 14.25C15.5175 14.25 15.055 14.4344 14.714 14.7625C14.3731 15.0907 14.1815 15.5359 14.1815 16C14.1815 16.4641 14.3731 16.9092 14.714 17.2374C15.055 17.5656 15.5175 17.75 15.9997 17.75C16.4819 17.75 16.9443 17.5656 17.2853 17.2374C17.6263 16.9092 17.8179 16.4641 17.8179 16C17.8179 15.5359 17.6263 15.0907 17.2853 14.7625C16.9443 14.4344 16.4819 14.25 15.9997 14.25Z" fill="#6A9586"/>
</svg>
