<svg width="32" height="32" viewBox="0 0 32 32" fill="none" xmlns="http://www.w3.org/2000/svg">
<rect width="32" height="32" rx="16" fill="#F0F9F6"/>
<circle cx="16" cy="16" r="8" fill="#6A9586"/>
<path d="M13.7507 15.5666C13.3859 15.152 12.754 15.1117 12.3394 15.4766C11.9248 15.8414 11.8844 16.4733 12.2493 16.8879L13.7507 15.5666ZM15 18.5L14.2493 19.1606C14.4445 19.3825 14.728 19.5067 15.0235 19.4997C15.3189 19.4928 15.5962 19.3555 15.7809 19.1247L15 18.5ZM19.7809 14.1247C20.1259 13.6934 20.056 13.0641 19.6247 12.7191C19.1934 12.3741 18.5641 12.444 18.2191 12.8753L19.7809 14.1247ZM12.2493 16.8879L14.2493 19.1606L15.7507 17.8394L13.7507 15.5666L12.2493 16.8879ZM15.7809 19.1247L19.7809 14.1247L18.2191 12.8753L14.2191 17.8753L15.7809 19.1247Z" fill="white"/>
</svg>
