<svg width="32" height="32" viewBox="0 0 32 32" fill="none" xmlns="http://www.w3.org/2000/svg">
<rect width="32" height="32" rx="16" fill="#F0F9F6"/>
<path d="M10.333 14C10.8663 14 11.333 14.4667 11.333 15V21C11.333 21.5333 10.8663 22 10.333 22C9.79967 22 9.33301 21.5333 9.33301 21V15C9.33301 14.4667 9.79967 14 10.333 14ZM19.333 22H13.9997C13.2663 22 12.6663 21.4 12.6663 20.6667V14.5333C12.6663 14.2 12.7997 13.8667 12.9997 13.6667L14.7997 11.6667L15.1997 9.99999C15.2663 9.59999 15.733 9.39999 16.0663 9.53332C16.6663 9.66666 17.333 10.2 17.333 11.2667C17.333 12.4 16.6663 14 16.6663 14H21.333C22.0663 14 22.6663 14.6 22.6663 15.3333V15.9333C22.6663 16.2 22.5997 16.4667 22.4663 16.7333L20.4663 21.2667C20.2663 21.7333 19.8663 22 19.333 22Z" fill="#6A9586"/>
</svg>
