<svg width="32" height="32" viewBox="0 0 32 32" fill="none" xmlns="http://www.w3.org/2000/svg">
<rect width="32" height="32" rx="16" fill="#F0F9F6"/>
<g clip-path="url(#clip0)">
<path d="M10.1331 10.1334C9.54374 10.1334 9.06641 10.6107 9.06641 11.2V13.3334V21.8667H15.7456C15.625 21.5264 15.5387 21.1707 15.4977 20.8H10.1331V13.3334H21.8664V15.7459C22.2456 15.8803 22.6045 16.0558 22.9331 16.2761V11.7334V11.2C22.9331 10.6107 22.4557 10.1334 21.8664 10.1334H10.1331ZM12.2664 14.9334C12.125 14.9334 11.9893 14.9896 11.8893 15.0896C11.7893 15.1896 11.7331 15.3252 11.7331 15.4667C11.7331 15.6081 11.7893 15.7438 11.8893 15.8438C11.9893 15.9438 12.125 16 12.2664 16C12.4079 16 12.5435 15.9438 12.6435 15.8438C12.7435 15.7438 12.7997 15.6081 12.7997 15.4667C12.7997 15.3252 12.7435 15.1896 12.6435 15.0896C12.5435 14.9896 12.4079 14.9334 12.2664 14.9334ZM14.3997 14.9334C14.1053 14.9334 13.8664 15.1723 13.8664 15.4667C13.8664 15.7611 14.1053 16 14.3997 16H18.0737C18.5793 15.7398 19.1364 15.5657 19.7268 15.499C19.7274 15.4878 19.7331 15.4779 19.7331 15.4667C19.7331 15.1723 19.4941 14.9334 19.1997 14.9334H14.3997ZM20.2664 16.5334C18.2077 16.5334 16.5331 18.208 16.5331 20.2667C16.5331 22.3254 18.2077 24 20.2664 24C22.3251 24 23.9997 22.3254 23.9997 20.2667C23.9997 18.208 22.3251 16.5334 20.2664 16.5334ZM12.2664 17.0667C12.125 17.0667 11.9893 17.1229 11.8893 17.2229C11.7893 17.3229 11.7331 17.4586 11.7331 17.6C11.7331 17.7415 11.7893 17.8771 11.8893 17.9772C11.9893 18.0772 12.125 18.1334 12.2664 18.1334C12.4079 18.1334 12.5435 18.0772 12.6435 17.9772C12.7435 17.8771 12.7997 17.7415 12.7997 17.6C12.7997 17.4586 12.7435 17.3229 12.6435 17.2229C12.5435 17.1229 12.4079 17.0667 12.2664 17.0667ZM14.3997 17.0667C14.1053 17.0667 13.8664 17.3056 13.8664 17.6C13.8664 17.8944 14.1053 18.1334 14.3997 18.1334H15.9716C16.1652 17.7446 16.4091 17.3867 16.6966 17.0667H14.3997ZM20.2664 17.6C21.7368 17.6 22.9331 18.7963 22.9331 20.2667C22.9331 21.7371 21.7368 22.9334 20.2664 22.9334C18.796 22.9334 17.5997 21.7371 17.5997 20.2667C17.5997 18.7963 18.796 17.6 20.2664 17.6ZM20.2664 18.1334C19.972 18.1334 19.7331 18.3723 19.7331 18.6667V20.4875L20.6852 21.4396C20.7892 21.5436 20.9257 21.5959 21.0622 21.5959C21.1988 21.5959 21.3353 21.5436 21.4393 21.4396C21.6479 21.2311 21.6479 20.894 21.4393 20.6854L20.7997 20.0459V18.6667C20.7997 18.3723 20.5608 18.1334 20.2664 18.1334Z" fill="#6A9586"/>
</g>
<defs>
<clipPath id="clip0">
<rect width="16" height="16" fill="white" transform="translate(8 8)"/>
</clipPath>
</defs>
</svg>
