<svg width="16" height="16" viewBox="0 0 16 16" fill="none" xmlns="http://www.w3.org/2000/svg">
<path d="M13.667 10C13.1337 10 12.667 9.53334 12.667 9.00001V3.00001C12.667 2.46668 13.1337 2.00001 13.667 2.00001C14.2003 2.00001 14.667 2.46668 14.667 3.00001V9.00001C14.667 9.53334 14.2003 10 13.667 10ZM4.66699 2.00001H10.0003C10.7337 2.00001 11.3337 2.60001 11.3337 3.33334V9.46668C11.3337 9.80001 11.2003 10.1333 11.0003 10.3333L9.20033 12.3333L8.80033 14C8.73366 14.4 8.26699 14.6 7.93366 14.4667C7.33366 14.3333 6.66699 13.8 6.66699 12.7333C6.66699 11.6 7.33366 10 7.33366 10H2.66699C1.93366 10 1.33366 9.40001 1.33366 8.66668V8.06668C1.33366 7.80001 1.40032 7.53334 1.53366 7.26668L3.53366 2.73334C3.73366 2.26668 4.13366 2.00001 4.66699 2.00001Z" fill="#B1CDBA"/>
</svg>
