<svg width="16" height="16" viewBox="0 0 16 16" fill="none" xmlns="http://www.w3.org/2000/svg">
<path d="M7.99967 3.33334C3.15119 3.33334 1.33301 8.00001 1.33301 8.00001C1.33301 8.00001 3.15119 12.6667 7.99967 12.6667C12.8482 12.6667 14.6663 8.00001 14.6663 8.00001C14.6663 8.00001 12.8482 3.33334 7.99967 3.33334ZM7.99967 5.08334C9.67301 5.08334 11.03 6.38943 11.03 8.00001C11.03 9.61059 9.67301 10.9167 7.99967 10.9167C6.32634 10.9167 4.96937 9.61059 4.96937 8.00001C4.96937 6.38943 6.32634 5.08334 7.99967 5.08334ZM7.99967 6.25001C7.51746 6.25001 7.055 6.43438 6.71403 6.76257C6.37305 7.09076 6.18149 7.53588 6.18149 8.00001C6.18149 8.46414 6.37305 8.90926 6.71403 9.23745C7.055 9.56564 7.51746 9.75001 7.99967 9.75001C8.48189 9.75001 8.94435 9.56564 9.28532 9.23745C9.6263 8.90926 9.81786 8.46414 9.81786 8.00001C9.81786 7.53588 9.6263 7.09076 9.28532 6.76257C8.94435 6.43438 8.48189 6.25001 7.99967 6.25001Z" fill="#B1CDBA"/>
</svg>
