<svg width="16" height="16" viewBox="0 0 16 16" fill="none" xmlns="http://www.w3.org/2000/svg">
<path d="M2.33301 5.99999C2.86634 5.99999 3.33301 6.46666 3.33301 6.99999V13C3.33301 13.5333 2.86634 14 2.33301 14C1.79967 14 1.33301 13.5333 1.33301 13V6.99999C1.33301 6.46666 1.79967 5.99999 2.33301 5.99999ZM11.333 14H5.99967C5.26634 14 4.66634 13.4 4.66634 12.6667V6.53332C4.66634 6.19999 4.79967 5.86666 4.99967 5.66666L6.79967 3.66666L7.19967 1.99999C7.26634 1.59999 7.73301 1.39999 8.06634 1.53332C8.66634 1.66666 9.33301 2.19999 9.33301 3.26666C9.33301 4.39999 8.66634 5.99999 8.66634 5.99999H13.333C14.0663 5.99999 14.6663 6.59999 14.6663 7.33332V7.93332C14.6663 8.19999 14.5997 8.46666 14.4663 8.73332L12.4663 13.2667C12.2663 13.7333 11.8663 14 11.333 14Z" fill="#B1CDBA"/>
</svg>
