<svg width="16" height="16" viewBox="0 0 16 16" fill="none" xmlns="http://www.w3.org/2000/svg">
<path fill-rule="evenodd" clip-rule="evenodd" d="M0 3V13C0 14.1046 0.8946 15 1.99917 15H14.0011C15.1057 15 16 14.1046 16 13V3C16 1.89543 15.1046 1 14 1H2C0.895431 1 0 1.89543 0 3ZM13.224 6.07289L13.288 6.00889C13.4792 5.77689 13.4792 5.44089 13.2792 5.20889C13.168 5.08969 13.0152 5.01689 12.856 5.00089C12.688 4.99209 12.528 5.04889 12.4072 5.16089L8.79999 8.04089C8.33599 8.42569 7.67119 8.42569 7.19999 8.04089L3.59999 5.16089C3.35119 4.97689 3.00719 5.00089 2.79999 5.21689C2.58399 5.43289 2.55999 5.77689 2.74319 6.01689L2.84799 6.12089L6.48799 8.96089C6.93599 9.31289 7.47919 9.50489 8.04799 9.50489C8.61519 9.50489 9.16799 9.31289 9.61519 8.96089L13.224 6.07289Z" fill="#C7CBE0"/>
</svg>
