<svg width="662" height="607" viewBox="0 0 662 607" fill="none" xmlns="http://www.w3.org/2000/svg">
<g clip-path="url(#clip0)">
<path opacity="0.59" d="M592.394 227.367C591.477 226.104 590.101 224.266 588.61 221.855C586.087 217.836 580.583 209.338 578.519 199.118C576.684 190.276 577.028 178.448 580.01 177.759C584.023 176.726 591.821 196.132 592.394 197.396C597.096 209.108 598.701 219.788 599.275 227.367C596.866 227.367 594.573 227.367 592.394 227.367Z" fill="#6A9586"/>
<path opacity="0.59" d="M596.637 227.367C594.802 222.429 592.853 214.965 593.656 206.123C594.458 197.855 597.554 188.324 599.848 188.554C601.109 188.668 601.797 192.687 603.288 200.611C605.696 213.472 605.467 218.41 604.549 222.773C604.091 224.725 603.632 226.333 603.173 227.367C601.109 227.367 598.931 227.367 596.637 227.367Z" fill="#6A9586"/>
<path opacity="0.59" d="M619.113 227.367C621.75 221.97 623.47 217.376 624.502 213.931C626.796 206.697 630.351 194.066 626.337 180.86C625.42 177.989 624.158 173.74 622.094 173.625C617.737 173.396 613.494 192.343 612.462 196.821C610.054 207.73 609.71 212.553 610.168 216.343C610.742 221.051 612.118 224.84 613.15 227.367C615.099 227.367 617.049 227.367 619.113 227.367Z" fill="#6A9586"/>
<path opacity="0.59" d="M662 269.395V324.055H640.671L652.023 362.064C653.056 365.624 651.106 369.299 647.551 370.447C643.996 371.48 640.327 369.528 639.295 365.968L627.025 325.088C626.91 324.744 626.796 324.399 626.796 324.055H614.067C614.067 324.285 614.067 324.629 613.952 324.859L605.925 366.772C605.237 370.332 601.683 372.743 598.128 372.054C594.458 371.366 592.165 367.806 592.853 364.246L600.536 324.055H487.28V315.328H653.285V278.122H487.28V269.395H662Z" fill="#E9EBF3"/>
<path opacity="0.59" d="M612.691 227.367C613.494 221.166 613.609 215.998 613.494 212.209C613.379 205.549 612.347 194.525 607.302 182.582C604.779 176.496 603.747 176.496 603.517 176.496C600.995 176.841 601.453 193.376 601.797 203.137C602.141 213.587 602.829 221.97 603.403 227.367C606.614 227.367 609.71 227.367 612.691 227.367Z" fill="#6A9586"/>
<path opacity="0.59" d="M595.261 227.367C592.05 220.821 588.151 210.601 587.807 197.855C587.463 186.027 589.986 171.214 593.77 170.984C597.899 170.755 602.027 187.979 602.485 189.931C606.27 205.549 604.894 218.869 603.288 227.367C600.651 227.367 597.899 227.367 595.261 227.367Z" fill="#6A9586"/>
<path d="M407.887 139.865C408.461 136.535 408.69 134.812 407.773 134.009C402.842 129.76 375.779 153.645 358.005 169.262C345.735 180.056 336.218 189.243 330.255 194.984C328.879 196.821 327.388 199.692 326.929 203.482C325.668 214.62 336.103 222.544 336.791 223.003C346.194 215.08 356.17 207.041 366.835 198.888C379.105 189.587 391.031 181.204 402.498 173.511C404.218 162.716 405.938 152.152 407.887 139.865Z" fill="#FEFFFF" stroke="black" stroke-miterlimit="10"/>
<path d="M438.963 64.8799C437.358 67.1765 436.67 72.2291 435.179 82.1046C434.721 85.4347 434.033 88.9945 434.606 93.3581C435.179 97.6069 435.294 101.052 437.931 103.693C440.225 105.99 443.092 106.679 444.697 106.908C444.697 108.401 444.582 110.353 443.78 112.42C441.372 118.736 435.294 121.262 433.918 121.722C435.523 126.085 437.931 128.152 439.422 129.071C446.876 133.779 460.063 129.875 471.071 118.277C470.039 117.932 467.975 117.128 466.37 115.176C464.306 112.535 464.535 109.32 464.765 105.875C464.879 104.956 465.109 102.2 466.255 99.0997C467.402 95.9992 467.975 93.8174 469.695 93.2433C470.498 93.0136 470.842 93.2433 472.218 92.784C472.906 92.5543 474.168 92.2098 475.085 91.2911C476.805 89.6835 477.608 86.583 476.346 85.2051C476.346 85.0902 475.658 84.4012 474.741 84.4012C473.365 84.5161 472.792 86.3534 472.333 86.2386C471.53 86.0089 472.792 79.9228 472.677 74.8702C472.677 72.9181 472.448 63.3871 467.173 58.7938C460.292 52.8225 444.697 56.2675 438.963 64.8799Z" fill="#FEFFFF" stroke="black" stroke-miterlimit="10"/>
<path d="M441.486 85.205C441.257 86.4682 441.028 87.5017 440.913 88.1906C440.569 89.9131 440.339 90.8318 440.683 91.0614C441.372 91.9801 444.009 90.8318 444.468 90.7169" stroke="black" stroke-miterlimit="10" stroke-linecap="round" stroke-linejoin="round"/>
<path d="M443.321 96.2289C444.238 96.5734 445.5 96.803 447.105 96.803C449.513 96.803 451.348 95.9992 452.38 95.425C451.921 96.2289 450.889 97.9513 448.825 99.2145C446.99 100.363 445.27 100.592 444.353 100.707" stroke="black" stroke-miterlimit="10" stroke-linecap="round" stroke-linejoin="round"/>
<path d="M447.908 80.1525C447.564 81.4156 447.908 82.6788 448.71 82.9084C449.513 83.1381 450.431 82.3343 450.889 81.0711C451.233 79.808 450.889 78.5448 450.087 78.3152C449.284 78.0855 448.366 78.8893 447.908 80.1525Z" fill="#030C1F"/>
<path d="M437.702 78.7745C437.702 80.0376 438.275 81.186 439.193 81.186C439.995 81.186 440.683 80.1525 440.798 78.8893C440.798 77.6262 440.225 76.4778 439.307 76.4778C438.39 76.4778 437.702 77.5113 437.702 78.7745Z" fill="#030C1F"/>
<path d="M452.495 77.052C452.151 76.8223 451.348 76.2482 450.431 75.7888C449.169 75.0998 448.596 75.0998 448.367 74.5257C448.252 74.1812 448.367 73.7219 448.596 73.3774C449.169 72.6884 450.545 72.918 451.233 73.0329C451.692 73.1477 452.495 73.2625 453.297 73.9515C454.1 74.6405 454.444 75.3295 454.559 75.674C454.903 76.4778 455.132 77.6261 454.673 77.8558C454.788 77.9706 454.788 77.9706 452.495 77.052Z" fill="#030C1F"/>
<path d="M434.147 469.087C434.262 470.81 434.377 472.647 434.491 474.369C433.918 475.403 432.771 477.24 430.707 478.733C429.904 479.307 426.694 481.489 422.565 480.915C416.602 479.996 414.08 474.025 413.85 473.68C414.768 471.843 415.685 470.006 416.717 468.169C417.978 467.48 421.189 465.872 425.432 466.102C429.79 466.331 432.886 468.169 434.147 469.087Z" fill="#FEFFFF" stroke="black" stroke-miterlimit="10"/>
<path d="M514.876 470.006C515.105 470.81 515.335 471.614 515.564 472.417C515.679 472.992 515.908 473.566 516.137 474.14C515.793 474.944 514.188 478.733 510.06 480.456C508.913 480.915 507.078 481.374 504.9 481.03C499.395 480.226 496.873 474.599 496.643 474.025C496.643 472.762 496.643 471.384 496.643 470.121C498.134 469.202 502.377 466.905 507.996 467.594C511.092 468.054 513.5 469.202 514.876 470.006Z" fill="#FEFFFF" stroke="black" stroke-miterlimit="10"/>
<path d="M440.569 72.5736C441.142 72.5736 442.289 72.4588 442.862 73.1477C443.092 73.4922 443.436 74.0664 443.206 74.4109C442.977 74.7554 442.518 74.6406 440.913 74.8702C440.11 74.9851 439.651 74.9851 439.193 75.0999C438.161 75.3296 437.473 75.5592 437.129 75.2147C437.129 75.2147 437.129 75.2147 437.014 75.0999C436.67 74.5257 437.587 73.3774 438.619 72.9181C438.619 72.9181 438.734 72.9181 438.849 72.8032C439.193 72.6884 439.422 72.6884 439.881 72.5736C440.11 72.5736 440.339 72.5736 440.569 72.5736Z" fill="#030C1F"/>
<path d="M467.746 63.2722C467.058 62.5832 464.077 66.2578 458.228 68.6693C457.196 69.1286 451.692 71.1956 444.353 70.6214C441.486 70.3918 439.078 69.7028 437.473 69.1286C437.014 71.3104 436.441 73.4922 435.982 75.674C435.523 75.2147 434.262 73.7219 433.803 71.5401C433.459 69.4731 433.918 67.8655 434.147 67.1765C433.689 66.832 433.001 66.2578 432.427 65.454C430.248 62.8129 429.216 59.0234 429.904 56.3823C431.28 50.8704 438.046 48.6886 441.601 47.5403C450.087 44.7843 457.311 47.1958 460.98 48.4589C467.287 50.5259 469.581 53.2818 470.269 54.3153C470.383 54.4302 470.383 54.545 470.383 54.545C470.842 55.234 471.186 55.8081 471.416 56.3823C472.906 56.4971 475.314 56.8416 477.837 58.1048C477.837 58.1048 482.309 60.2866 485.291 64.6502C490.91 72.8032 487.355 84.0567 485.291 90.8318C483.227 97.6069 480.933 105.071 474.741 107.138C471.186 108.286 466.255 107.712 465.223 105.53C464.994 105.071 464.994 104.726 466.141 100.822C467.746 95.3102 468.205 94.3916 469.237 93.8174C470.383 93.1284 470.727 93.7026 472.792 92.8988C473.824 92.4394 475.888 91.6356 476.69 89.7983C477.722 87.7313 477.149 84.516 475.544 83.8271C474.397 83.3677 473.021 84.2864 472.906 84.2864C471.416 85.3199 471.989 86.6978 470.154 88.9945C469.581 89.7983 468.893 90.4873 467.861 90.8318C466.943 91.0615 465.797 90.9466 464.994 90.2576C463.733 89.2241 463.618 86.8127 465.109 84.8605C463.962 84.2864 462.356 83.2529 461.554 81.4156C458.916 74.8702 469.122 64.5353 467.746 63.2722Z" fill="#B7BFEC"/>
<path d="M434.262 67.2913C433.115 69.9324 434.147 72.4587 434.377 73.2626C434.835 74.4109 435.523 75.3295 435.982 75.7888C436.67 71.7697 437.473 67.7506 438.161 63.6167C437.817 63.8464 435.409 64.765 434.262 67.2913Z" fill="#B7BFEC"/>
<path d="M493.203 256.074C489.19 311.997 488.229 332.029 488 338C488 338 488.5 349.656 488.5 350C488.5 350 488.541 355.062 489 360C491.064 380.096 504.67 425.451 504.67 425.451C508.11 435.901 512.697 451.059 516.711 470.121C506.62 470.235 496.414 470.235 486.323 470.35C477.493 447.614 469.122 423.958 461.095 399.27C458.687 392.035 456.508 384.801 454.329 377.681C453.183 384.227 451.577 393.643 449.743 405.126C445.958 427.633 445.27 432.456 444.697 436.59C443.665 444.284 442.404 455.652 441.486 469.546C432.312 469.202 423.139 468.743 413.85 468.398C413.162 452.207 412.589 431.422 412.36 407.308C412.016 367.232 412.933 337.26 413.277 329.452C413.965 308.093 415.226 282.601 417.52 253.893C421.075 251.481 424.629 249.644 427.84 248.381C455.476 236.783 484.373 251.137 493.203 256.074Z" fill="#6A9586"/>
<path d="M442.289 116.324C433.23 116.669 426.005 118.621 421.304 120.229C418.666 121.147 415.226 122.181 411.098 124.592C409.034 125.741 407.429 126.889 398.14 134.468C390.572 140.784 389.769 141.473 389.311 143.195C388.508 146.41 390.343 148.248 394.815 156.86C401.351 169.147 401.58 172.592 404.906 173.166C408.919 173.855 413.162 169.491 414.997 166.161C418.093 160.535 416.258 154.908 415.914 153.989C415.57 161.798 415.112 169.606 414.768 177.415C413.506 202.907 412.474 228.285 411.557 253.548C439.651 254.467 467.631 255.386 495.726 256.189C498.019 225.07 501.689 201.644 505.129 184.879C505.129 184.879 511.551 152.496 502.492 133.664C499.969 128.611 496.185 125.626 496.185 125.626C494.579 124.477 492.515 123.214 486.093 121.377C482.424 120.344 477.493 119.195 471.301 118.277C463.274 122.41 455.361 126.544 447.334 130.793C446.188 129.415 444.353 126.889 443.321 123.444C442.289 120.573 442.289 118.047 442.289 116.324Z" fill="#5B69BD"/>
<path d="M388.852 198.659L405.25 203.252C406.741 203.711 408.461 202.793 408.805 201.185L417.634 169.721C418.093 168.228 417.176 166.506 415.57 166.161L399.172 161.568C397.682 161.109 395.961 162.027 395.617 163.635L386.788 195.099C386.329 196.592 387.246 198.199 388.852 198.659Z" fill="#B7BFEC"/>
<path d="M447.22 131.253C448.367 134.927 449.399 138.602 450.545 142.276C453.871 139.635 457.311 136.879 460.866 133.894C466.37 129.186 471.301 124.592 475.888 119.999" stroke="white" stroke-miterlimit="10" stroke-linecap="round" stroke-linejoin="round"/>
<path d="M465.682 169.606C461.439 179.137 457.311 189.243 453.297 199.807C451.348 205.089 449.399 210.257 447.678 215.309C441.945 212.783 437.702 210.142 434.95 208.19C429.446 204.285 420.845 196.821 419.01 195.329C418.208 194.64 417.749 194.295 417.176 193.836C416.832 193.491 416.373 193.147 415.914 192.802C415.341 192.343 415.341 192.343 415.226 192.228C414.08 190.965 414.653 189.128 414.538 187.52C414.424 185.798 413.736 185.912 410.41 180.515C408.461 177.3 407.887 175.922 407.085 176.037C406.397 176.152 405.938 177.415 405.823 178.219C405.709 179.482 406.167 180.401 406.626 181.204C408.805 185.338 409.837 187.52 409.378 187.979C409.034 188.324 407.887 187.865 407.085 187.52C405.479 186.831 404.447 185.798 403.415 184.764C401.007 182.467 401.466 183.156 399.516 181.204C398.255 179.941 397.108 178.678 395.044 176.841C393.897 175.807 392.98 175.118 392.407 175.463C391.833 175.692 391.719 176.726 391.719 176.841C391.719 177.989 392.407 178.678 394.471 181.089C395.617 182.353 395.159 182.008 397.223 184.305C398.37 185.683 399.058 186.487 399.058 186.487C399.058 186.487 396.879 184.534 394.7 181.549C394.012 180.515 392.98 179.712 392.177 178.793C391.604 178.104 391.145 177.53 390.572 177.53C389.999 177.53 389.311 177.874 389.081 178.448C388.737 179.137 389.081 179.826 390.572 181.893C391.833 183.616 392.751 184.879 393.439 185.568C395.159 187.635 396.764 189.817 396.764 189.817C396.764 189.817 396.191 189.128 395.044 187.865C394.127 186.831 393.209 185.683 392.636 185.109C392.177 184.534 391.604 183.96 391.145 183.386C389.655 181.549 389.425 180.975 388.622 180.86C388.049 180.86 387.361 181.204 387.132 181.778C386.902 182.353 387.361 182.927 388.049 183.96C389.999 186.831 391.031 188.209 391.26 188.554C391.948 189.357 392.521 189.932 393.553 191.195C394.012 191.769 394.7 192.573 394.585 192.573C394.471 192.687 393.209 191.539 392.177 190.276C391.031 189.128 390.572 188.439 389.884 187.52C389.081 186.372 388.852 185.798 388.164 185.683C387.59 185.568 386.788 185.798 386.558 186.257C386.444 186.487 386.214 187.176 388.622 190.621C389.54 191.884 390.343 193.032 391.833 194.525C392.865 195.558 394.127 196.821 395.961 198.085C396.305 198.314 396.535 198.429 396.764 198.659C399.287 200.152 401.466 200.841 401.924 201.07C403.3 201.53 405.25 202.678 409.837 206.927C415.341 212.094 419.469 217.032 421.877 220.017C427.726 226.907 430.707 230.352 432.771 232.534C440.569 240.343 447.908 247.692 454.903 246.199C458.228 245.51 461.324 241.032 467.402 232.19C473.365 223.577 476.92 217.261 476.92 217.261C481.163 209.797 486.782 199.348 492.974 186.142" fill="#FEFFFF"/>
<path d="M465.682 169.606C461.439 179.137 457.311 189.243 453.297 199.807C451.348 205.089 449.399 210.257 447.678 215.309C441.945 212.783 437.702 210.142 434.95 208.19C429.446 204.285 420.845 196.821 419.01 195.329C418.208 194.64 417.749 194.295 417.176 193.836C416.832 193.491 416.373 193.147 415.914 192.802C415.341 192.343 415.341 192.343 415.226 192.228C414.08 190.965 414.653 189.128 414.538 187.52C414.424 185.798 413.736 185.912 410.41 180.515C408.461 177.3 407.887 175.922 407.085 176.037C406.397 176.152 405.938 177.415 405.823 178.219C405.709 179.482 406.167 180.401 406.626 181.204C408.805 185.338 409.837 187.52 409.378 187.979C409.034 188.324 407.887 187.865 407.085 187.52C405.479 186.831 404.447 185.798 403.415 184.764C401.007 182.467 401.466 183.156 399.516 181.204C398.255 179.941 397.108 178.678 395.044 176.841C393.897 175.807 392.98 175.118 392.407 175.463C391.833 175.692 391.719 176.726 391.719 176.841C391.719 177.989 392.407 178.678 394.471 181.089C395.617 182.353 395.159 182.008 397.223 184.305C398.37 185.683 399.058 186.487 399.058 186.487C399.058 186.487 396.879 184.534 394.7 181.549C394.012 180.515 392.98 179.712 392.177 178.793C391.604 178.104 391.145 177.53 390.572 177.53C389.999 177.53 389.311 177.874 389.081 178.448C388.737 179.137 389.081 179.826 390.572 181.893C391.833 183.616 392.751 184.879 393.439 185.568C395.159 187.635 396.764 189.817 396.764 189.817C396.764 189.817 396.191 189.128 395.044 187.865C394.127 186.831 393.209 185.683 392.636 185.109C392.177 184.534 391.604 183.96 391.145 183.386C389.655 181.549 389.425 180.975 388.622 180.86C388.049 180.86 387.361 181.204 387.132 181.778C386.902 182.353 387.361 182.927 388.049 183.96C389.999 186.831 391.031 188.209 391.26 188.554C391.948 189.357 392.521 189.932 393.553 191.195C394.012 191.769 394.7 192.573 394.585 192.573C394.471 192.687 393.209 191.539 392.177 190.276C391.031 189.128 390.572 188.439 389.884 187.52C389.081 186.372 388.852 185.798 388.164 185.683C387.59 185.568 386.788 185.798 386.558 186.257C386.444 186.487 386.214 187.176 388.622 190.621C389.54 191.884 390.343 193.032 391.833 194.525C392.865 195.558 394.127 196.821 395.961 198.085C396.305 198.314 396.535 198.429 396.764 198.659C399.287 200.152 401.466 200.841 401.924 201.07C403.3 201.53 405.25 202.678 409.837 206.927C415.341 212.094 419.469 217.032 421.877 220.017C427.726 226.907 430.707 230.352 432.771 232.534C440.569 240.343 447.908 247.692 454.903 246.199C458.228 245.51 461.324 241.032 467.402 232.19C473.365 223.577 476.92 217.261 476.92 217.261C481.163 209.797 486.782 199.348 492.974 186.142" stroke="black" stroke-miterlimit="10"/>
<path d="M487.699 126.43C485.176 129.186 481.621 133.434 478.066 138.831C474.626 144.228 472.562 148.592 469.351 155.597C467.287 160.075 464.65 166.161 461.898 173.396C472.448 180.86 482.997 188.209 493.547 195.673C496.414 191.08 499.625 185.223 502.262 177.874C505.244 169.951 506.62 162.716 507.308 157.09" fill="#5B69BD"/>
<path d="M487.699 126.43C485.176 129.186 481.621 133.434 478.066 138.831C474.626 144.228 472.562 148.592 469.351 155.597C467.287 160.075 464.65 166.161 461.898 173.396C472.448 180.86 482.997 188.209 493.547 195.673C496.414 191.08 499.625 185.223 502.262 177.874C505.244 169.951 506.62 162.716 507.308 157.09" stroke="white" stroke-miterlimit="10"/>
<path d="M433.803 117.128C434.377 120.344 435.294 124.018 436.67 127.922C438.849 134.008 441.601 138.831 444.124 142.506C445.156 138.602 446.188 134.697 447.22 130.793" stroke="white" stroke-miterlimit="10" stroke-linecap="round" stroke-linejoin="round"/>
<path d="M417.405 146.755C416.717 149.511 416.144 152.726 415.685 156.171C415.226 159.731 415.112 163.061 415.112 165.932" stroke="white" stroke-miterlimit="10" stroke-linecap="round" stroke-linejoin="round"/>
<path d="M423.712 253.778C428.299 278.237 433.918 303.959 440.913 330.715C445.156 346.906 449.513 362.409 454.1 377.452" stroke="white" stroke-miterlimit="10" stroke-linecap="round" stroke-linejoin="round"/>
<path d="M514.532 460.59C511.207 460.59 507.881 460.59 504.556 460.705C497.331 460.819 490.222 461.049 483.341 461.508" stroke="white" stroke-miterlimit="10" stroke-linecap="round" stroke-linejoin="round"/>
<path d="M442.06 459.671C436.899 459.212 432.771 459.097 429.904 459.212C427.496 459.327 425.891 459.441 421.992 459.556C418.437 459.671 415.456 459.671 413.506 459.671" stroke="white" stroke-miterlimit="10" stroke-linecap="round" stroke-linejoin="round"/>
<path d="M434.377 473.336C433.23 473.221 432.083 477.011 428.07 478.274C427.496 478.503 426.12 478.848 424.515 478.503C422.221 478.044 421.992 476.666 419.469 475.173C419.24 475.058 415.8 473.106 411.901 473.795C410.295 474.025 409.378 474.714 407.887 475.518C407.887 475.518 402.842 478.274 397.452 480.456C391.833 482.752 389.196 482.522 387.017 485.164C386.558 485.738 385.526 487.001 385.297 488.953C385.182 490.446 385.641 491.594 385.87 492.283C402.612 492.283 419.355 492.283 436.097 492.283C436.555 477.585 435.638 473.566 434.377 473.336Z" fill="#5B69BD"/>
<path d="M516.138 474.14C517.514 474.484 518.775 478.159 518.202 492.168C501.116 492.168 484.144 492.168 467.058 492.168C466.714 491.25 466.141 489.298 467.058 487.69C467.746 486.542 468.778 485.967 469.351 485.738C473.938 483.441 479.901 481.259 483.571 479.767C488.616 477.585 491.254 476.436 493.318 474.829C493.891 474.369 494.465 473.91 495.382 473.68C498.822 472.762 502.836 476.092 503.868 476.896C505.358 478.159 505.473 478.503 506.276 478.733C507.537 478.963 508.684 478.274 512.239 476.207C515.679 474.14 515.908 474.025 516.138 474.14Z" fill="#5B69BD"/>
<path d="M493.203 256.075C480.819 255.73 468.319 255.271 455.935 254.926C443.092 254.467 430.248 254.122 417.405 253.663" stroke="white" stroke-miterlimit="10" stroke-linecap="round" stroke-linejoin="round"/>
<path opacity="0.59" d="M619.113 227.367C619.571 223.348 620.03 217.491 619.342 210.601C618.31 200.381 614.87 186.601 611.888 186.716C608.678 186.831 606.155 203.711 606.957 217.95C607.187 221.74 607.646 224.955 607.99 227.367C611.659 227.367 615.329 227.367 619.113 227.367Z" fill="#6A9586"/>
<path opacity="0.5" d="M613.265 269.395H594.573C587.005 269.395 580.812 263.194 580.812 255.615V230.582C580.812 228.859 582.303 227.367 584.023 227.367H623.814C625.534 227.367 627.025 228.859 627.025 230.582V255.615C627.025 263.194 620.833 269.395 613.265 269.395Z" fill="#E9F3EB"/>
<path d="M0.460999 607C26.1475 530.637 44.8366 471.958 54.5837 442.791C57.1065 435.212 62.6108 418.561 59.9733 397.547C59.5146 394.102 58.9413 391.002 58.2532 388.131C55.7305 377.566 52.1756 370.332 51.3729 368.61C44.722 354.485 41.9699 314.179 51.6023 274.103C55.6158 257.567 58.4826 254.467 62.0374 235.29C65.1335 218.869 66.8536 210.372 67.083 197.97C67.1976 188.439 68.459 180.86 70.9818 165.702C71.8992 159.846 72.8166 155.138 76.3714 153.53C81.5316 151.118 88.9853 157.319 91.8521 159.731C94.9482 162.257 100.682 167.999 104.007 178.334C105.383 185.912 106.874 193.491 108.25 201.07C108.479 203.482 108.365 206.582 107.791 210.142C107.333 212.783 106.645 215.08 105.957 217.032C105.842 220.362 105.727 223.807 105.613 227.137C106.53 231.386 107.791 237.701 108.25 245.625C109.282 259.979 107.447 269.854 109.626 270.428C111.232 270.888 112.952 265.491 117.08 260.783C125.68 251.022 139.326 250.218 144.142 249.644C185.883 244.936 312.825 173.625 332.319 162.602C332.548 162.487 338.052 159.386 346.194 156.975C353.418 154.793 364.771 151.348 368.326 155.597C372.798 160.764 363.165 175.578 360.643 179.367C355.597 187.061 346.194 198.774 328.42 208.419C327.159 215.08 325.897 221.74 324.521 228.4C332.892 226.907 339.543 225.185 343.901 224.036C354.336 221.166 359.84 218.754 369.014 218.754C374.862 218.754 378.302 219.788 380.94 220.936C382.316 221.625 390.916 225.529 391.031 231.501C391.145 233.568 390.228 236.553 381.398 242.984C371.995 249.759 363.624 253.089 360.299 254.467C353.304 257.338 343.442 261.816 331.631 269.05C335.53 271.003 341.722 273.529 349.29 273.414C353.648 273.414 355.368 272.61 369.128 269.395C382.66 266.295 385.526 266.065 388.967 267.213C390.113 267.558 397.911 270.084 399.516 276.515C400.778 281.223 398.026 285.586 396.42 287.998C392.636 293.969 386.1 297.184 382.316 299.022C381.513 299.366 380.825 299.711 380.825 299.711C378.302 300.859 376.123 301.548 374.518 302.122C368.211 304.304 361.904 306.486 355.482 308.667C361.789 306.486 368.096 304.304 374.518 302.122C376.009 301.663 378.187 300.974 380.825 299.711C381.972 299.251 381.857 299.136 382.316 299.022C384.838 297.988 389.54 297.299 391.833 299.596C393.553 301.318 393.209 304.304 392.865 306.715C392.063 312.801 388.852 316.935 388.164 317.854C379.219 329.107 365.918 333.816 365.918 333.816C336.906 344.15 265.236 406.963 236.338 447.843C232.784 452.781 223.381 466.791 206.294 477.355C197.923 482.523 191.272 481.719 182.557 488.264C178.888 491.02 172.81 496.532 165.242 511.575C162.605 516.742 153.66 535.345 147.697 575.536C145.862 587.593 144.867 598.388 144.294 607" fill="white"/>
<path d="M0.460999 607C26.1475 530.637 44.8366 471.958 54.5837 442.791C57.1065 435.212 62.6108 418.561 59.9733 397.547C59.5146 394.102 58.9413 391.002 58.2532 388.131C55.7305 377.566 52.1756 370.332 51.3729 368.61C44.722 354.485 41.9699 314.179 51.6023 274.103C55.6158 257.567 58.4826 254.467 62.0374 235.29C65.1335 218.869 66.8536 210.372 67.083 197.97C67.1976 188.439 68.459 180.86 70.9818 165.702C71.8992 159.846 72.8165 155.138 76.3714 153.53C81.5316 151.118 88.9853 157.319 91.8521 159.731C94.9482 162.257 100.682 167.999 104.007 178.334C105.383 185.912 106.874 193.491 108.25 201.07C108.479 203.482 108.365 206.582 107.791 210.142C107.333 212.783 106.645 215.08 105.957 217.032C105.842 220.362 105.727 223.807 105.613 227.137C106.53 231.386 107.791 237.701 108.25 245.625C109.282 259.979 107.447 269.854 109.626 270.428C111.232 270.888 112.952 265.491 117.08 260.783C125.68 251.022 139.326 250.218 144.142 249.644C185.883 244.936 312.825 173.625 332.319 162.602C332.548 162.487 338.052 159.386 346.194 156.975C353.418 154.793 364.771 151.348 368.326 155.597C372.798 160.764 363.165 175.578 360.643 179.367C355.597 187.061 346.194 198.774 328.42 208.419C327.159 215.08 325.897 221.74 324.521 228.4C332.892 226.907 339.543 225.185 343.901 224.036C354.336 221.166 359.84 218.754 369.014 218.754C374.862 218.754 378.302 219.788 380.94 220.936C382.316 221.625 390.916 225.529 391.031 231.501C391.145 233.568 390.228 236.553 381.398 242.984C371.995 249.759 363.624 253.089 360.299 254.467C353.304 257.338 343.442 261.816 331.631 269.051C335.53 271.003 341.722 273.529 349.29 273.414C353.648 273.414 355.368 272.61 369.128 269.395C382.66 266.295 385.526 266.065 388.967 267.213C390.113 267.558 397.911 270.084 399.516 276.515C400.778 281.223 398.026 285.586 396.42 287.998C392.636 293.969 386.1 297.184 382.316 299.022M382.316 299.022C381.513 299.366 380.825 299.711 380.825 299.711M382.316 299.022C381.857 299.136 381.972 299.251 380.825 299.711M382.316 299.022C384.838 297.988 389.54 297.299 391.833 299.596C393.553 301.318 393.209 304.304 392.865 306.715C392.063 312.801 388.852 316.935 388.164 317.854C379.219 329.107 365.918 333.816 365.918 333.816C336.906 344.15 265.236 406.963 236.338 447.843C232.784 452.781 223.381 466.791 206.294 477.355C197.923 482.523 191.272 481.719 182.557 488.264C178.888 491.02 172.81 496.532 165.242 511.575C162.605 516.742 153.66 535.345 147.697 575.536C145.862 587.593 144.867 598.388 144.294 607M380.825 299.711C378.302 300.859 376.123 301.548 374.518 302.122M380.825 299.711C378.187 300.974 376.009 301.663 374.518 302.122M374.518 302.122C368.211 304.304 361.904 306.486 355.482 308.667C361.789 306.486 368.096 304.304 374.518 302.122Z" stroke="black" stroke-miterlimit="10"/>
<path d="M376.238 434.638L172.81 472.647C165.357 474.025 158.132 469.087 156.756 461.623L84.8571 75.9037C83.481 68.4397 88.4119 61.2053 95.8655 59.8273L299.179 21.818C306.632 20.44 313.857 25.3778 315.233 32.8418L387.132 418.561C388.623 426.025 383.692 433.26 376.238 434.638Z" fill="#707FDA" stroke="black" stroke-miterlimit="10"/>
<path d="M367.752 424.533L176.939 460.245C169.485 461.623 162.261 456.685 160.884 449.221L93.2281 86.1237C91.8521 78.6597 96.783 71.4253 104.237 70.0473L295.05 34.3347C302.504 32.9567 309.728 37.8945 311.105 45.3585L378.761 408.456C380.137 415.92 375.206 423.155 367.752 424.533Z" fill="white"/>
<path d="M160.382 91.1568C161.918 90.8683 163.249 91.0205 164.374 91.6133C164.906 91.0939 165.466 90.6827 166.056 90.3797C166.663 90.0735 167.363 89.8459 168.157 89.6969C168.832 89.5701 169.491 89.5425 170.134 89.6141C170.79 89.6657 171.378 89.8175 171.897 90.0696C173.092 90.6667 173.843 91.7841 174.15 93.4219L175.426 100.235C175.533 100.809 175.462 101.224 175.213 101.481C174.961 101.72 174.647 101.867 174.273 101.92L173.762 101.989C172.901 102.151 172.256 102.115 171.828 101.881C171.416 101.643 171.141 101.153 171.002 100.41L169.868 94.3569C169.688 93.3945 169.066 93.0131 168.002 93.2129C167.817 93.2477 167.6 93.3496 167.352 93.5185C167.101 93.6706 166.893 93.8231 166.73 93.9762C166.75 93.9899 166.769 94.0474 166.788 94.1487L168.183 101.595C168.29 102.169 168.219 102.584 167.97 102.841C167.718 103.08 167.405 103.227 167.03 103.28L166.519 103.349C165.658 103.511 165.013 103.475 164.585 103.241C164.173 103.003 163.898 102.513 163.759 101.77L162.625 95.7169C162.54 95.261 162.33 94.9334 161.996 94.734C161.678 94.5315 161.266 94.4777 160.76 94.5728C160.287 94.6616 159.865 94.8807 159.493 95.2301L160.94 102.955C161.047 103.529 160.976 103.944 160.727 104.201C160.475 104.44 160.162 104.587 159.787 104.64L159.276 104.709C158.415 104.871 157.77 104.835 157.342 104.601C156.93 104.363 156.655 103.873 156.516 103.13L155.084 95.4813C155.008 95.0761 155.029 94.7225 155.147 94.4207C155.262 94.1019 155.489 93.771 155.826 93.4279C156.325 92.9149 156.98 92.4509 157.794 92.036C158.625 91.6179 159.487 91.3248 160.382 91.1568ZM182.759 92.0151C182.664 91.5085 182.45 91.1556 182.115 90.9562C181.781 90.7568 181.352 90.7063 180.829 90.8045C180.086 90.944 179.501 91.2286 179.075 91.6582L180.502 99.2817C180.61 99.8558 180.539 100.271 180.29 100.528C180.038 100.767 179.724 100.913 179.35 100.966L178.838 101.036C177.977 101.198 177.333 101.162 176.904 100.927C176.493 100.69 176.217 100.2 176.078 99.4569L174.656 91.8587C174.577 91.4366 174.595 91.0662 174.71 90.7474C174.825 90.4287 175.051 90.0978 175.389 89.7547C175.935 89.2153 176.624 88.745 177.458 88.3437C178.288 87.9256 179.202 87.623 180.198 87.436C182.106 87.0778 183.654 87.2241 184.841 87.875C186.026 88.509 186.758 89.5689 187.036 91.0547L188.302 97.8171C188.41 98.3912 188.339 98.8065 188.09 99.063C187.838 99.3026 187.524 99.4489 187.15 99.5017L186.638 99.5715C185.777 99.7332 185.133 99.6969 184.704 99.4628C184.293 99.2254 184.018 98.7353 183.878 97.9923L182.759 92.0151ZM194.7 86.8629C194.727 86.2634 194.901 85.8375 195.221 85.5852C195.554 85.3129 196.05 85.1149 196.709 84.9912C197.435 84.8549 198.046 84.8537 198.543 84.9876C199.054 85.1015 199.398 85.3515 199.575 85.7377C199.952 86.5408 200.25 87.1491 200.467 87.5628L201.245 89.1994C201.929 90.6092 202.425 91.6697 202.733 92.3809L202.859 92.3572C202.829 91.2617 202.716 89.3078 202.522 86.4953L202.323 83.7535L202.004 80.9295C201.941 80.3121 202.059 79.8704 202.359 79.6044C202.675 79.3352 203.163 79.1388 203.821 79.0152C204.547 78.8789 205.141 78.9246 205.603 79.1525C206.062 79.3634 206.347 79.7644 206.458 80.3554C206.629 81.2672 206.776 82.8475 206.9 85.0964C207.024 87.3454 207.054 89.2798 206.99 90.8998C206.908 92.4185 206.832 93.5076 206.763 94.1672C206.671 94.7962 206.406 95.248 205.968 95.5225C205.378 95.9131 204.635 96.1924 203.74 96.3604C202.913 96.5158 202.21 96.5428 201.632 96.4417C201.067 96.3204 200.689 96.0767 200.499 95.7106C199.988 94.7577 199.14 93.0293 197.955 90.5252C197.87 92.7784 197.788 94.5329 197.708 95.7888C197.69 96.1593 197.624 96.4601 197.51 96.6912C197.393 96.9055 197.219 97.0955 196.988 97.2612C196.407 97.6149 195.737 97.8631 194.977 98.0057C194.15 98.1611 193.422 98.1929 192.793 98.1012C192.178 97.9895 191.741 97.7569 191.483 97.4034C191.132 96.9276 190.572 95.8528 189.804 94.1792C189.033 92.4887 188.348 90.8346 187.748 89.2169C187.249 87.8599 186.806 86.5186 186.418 85.1932L186.141 84.2751C186.115 84.2276 186.089 84.1363 186.063 84.0013C185.962 83.4609 186.099 83.0245 186.474 82.692C186.862 82.3394 187.385 82.1013 188.044 81.9777C189.445 81.7145 190.344 82.175 190.741 83.359L193.391 91.3558L193.942 93.0353L194.274 93.9692L194.401 93.9454L194.444 92.9148L194.583 90.1619L194.7 86.8629ZM221.863 91.5156C221.97 92.0896 221.899 92.5049 221.65 92.7615C221.398 93.0011 221.085 93.1473 220.71 93.2002L220.199 93.27C219.338 93.4316 218.693 93.3954 218.265 93.1612C217.853 92.9238 217.578 92.4337 217.439 91.6908L216.386 86.0681C216.152 84.8186 215.436 84.3064 214.237 84.5315C213.595 84.652 213.057 84.9017 212.621 85.2807L214.063 92.9802C214.17 93.5542 214.099 93.9695 213.85 94.2261C213.598 94.4657 213.285 94.6119 212.91 94.6648L212.399 94.7346C211.538 94.8962 210.893 94.86 210.465 94.6258C210.053 94.3884 209.778 93.8983 209.639 93.1554L207.106 79.6306C206.999 79.0565 207.054 78.6528 207.273 78.4195C207.491 78.1863 207.803 78.0316 208.208 77.9555L208.77 77.8762C209.631 77.7145 210.268 77.7524 210.679 77.9897C211.107 78.2239 211.391 78.7125 211.53 79.4554L211.995 81.9375C212.294 81.759 212.663 81.5848 213.103 81.4148C213.54 81.2279 213.969 81.0948 214.391 81.0156C216.113 80.6922 217.511 80.8755 218.584 81.5654C219.654 82.2385 220.34 83.3855 220.644 85.0064L221.863 91.5156ZM234.958 83.9179C235.344 85.9779 235.047 87.7029 234.066 89.0931C233.099 90.4631 231.594 91.34 229.552 91.7236C227.542 92.1008 225.836 91.8094 224.433 90.8494C222.986 89.9326 222.071 88.4527 221.688 86.4096C221.505 85.4303 221.498 84.5053 221.667 83.6346C221.832 82.747 222.157 81.9607 222.641 81.2757C223.638 79.8824 225.124 79.0003 227.1 78.6293C228.062 78.4486 228.985 78.4326 229.87 78.5812C230.754 78.7298 231.545 79.0356 232.243 79.4988C232.942 79.9619 233.52 80.5786 233.979 81.3489C234.452 82.0992 234.778 82.9555 234.958 83.9179ZM226.095 85.5822C226.284 86.5953 226.626 87.344 227.118 87.8283C227.628 88.3094 228.237 88.4834 228.946 88.3503C229.655 88.2171 230.143 87.8371 230.41 87.2101C230.694 86.58 230.742 85.7584 230.552 84.7453C230.362 83.7322 230.023 82.992 229.533 82.5246C229.04 82.0403 228.44 81.8647 227.73 81.9979C227.021 82.131 226.525 82.5127 226.241 83.1428C225.954 83.756 225.905 84.5692 226.095 85.5822Z" fill="#5B69BD"/>
<path d="M277.047 101.856L134.969 128.382C132.56 128.841 130.955 131.253 131.414 133.664L132.561 139.635C133.019 142.047 135.427 143.654 137.835 143.195L279.799 116.784C282.207 116.324 283.813 113.913 283.354 111.502L282.207 105.53C281.863 103.004 279.455 101.396 277.047 101.856Z" fill="#B7BFEC"/>
<path d="M251.246 143.654L141.62 164.209C139.212 164.669 137.606 167.08 138.065 169.491L158.591 279.271C159.05 281.682 161.458 283.29 163.866 282.83L273.492 262.275C275.9 261.816 277.506 259.405 277.047 256.993L256.521 147.214C256.062 144.803 253.769 143.195 251.246 143.654Z" fill="#5B69BD"/>
<path d="M281.06 282.716L166.503 304.189C165.357 304.419 164.669 305.452 164.898 306.6L167.994 322.907C168.223 324.055 169.255 324.744 170.402 324.514L284.959 303.041C286.106 302.811 286.794 301.778 286.565 300.629L283.469 284.323C283.239 283.175 282.092 282.486 281.06 282.716Z" fill="#B1CDBA"/>
<path d="M231.064 417.643L226.591 418.447C224.757 418.791 223.495 420.628 223.839 422.351L224.642 426.829C224.986 428.666 226.821 429.93 228.541 429.585L233.013 428.781C234.848 428.437 236.109 426.6 235.765 424.877L234.962 420.399C234.618 418.561 232.898 417.298 231.064 417.643Z" fill="#B7BFEC"/>
<path d="M270.855 410.179L266.382 410.982C264.548 411.327 263.286 413.164 263.63 414.887L264.433 419.365C264.777 421.202 266.612 422.466 268.332 422.121L272.804 421.317C274.639 420.973 275.9 419.135 275.556 417.413L274.753 412.935C274.409 411.097 272.689 409.834 270.855 410.179Z" fill="#B7BFEC"/>
<path d="M307.55 403.289L303.077 404.093C301.243 404.437 299.981 406.274 300.325 407.997L301.128 412.475C301.472 414.313 303.307 415.576 305.027 415.231L309.499 414.427C311.334 414.083 312.595 412.246 312.251 410.523L311.448 406.045C311.219 404.207 309.384 402.944 307.55 403.289Z" fill="#B7BFEC"/>
<path d="M333.236 302.467L171.893 332.667C170.746 332.897 170.058 333.93 170.288 335.079L173.384 351.385C173.613 352.533 174.645 353.222 175.792 352.992L337.135 322.792C338.282 322.562 338.97 321.529 338.74 320.38L335.644 304.074C335.3 303.041 334.268 302.237 333.236 302.467Z" fill="#5B69BD"/>
<path d="M305.027 340.476L177.741 364.246C176.594 364.476 175.906 365.509 176.136 366.657L177.397 373.318C177.627 374.466 178.659 375.155 179.805 374.925L307.091 351.155C308.238 350.925 308.926 349.892 308.696 348.744L307.435 342.083C307.206 341.05 306.174 340.246 305.027 340.476Z" fill="#B1CDBA"/>
<path d="M400.892 243.443L291.266 263.883C288.858 264.342 287.253 266.754 287.711 269.165L308.238 378.944C308.696 381.356 311.104 382.964 313.513 382.504L423.139 361.949C425.547 361.49 427.152 359.079 426.694 356.667L406.167 246.888C405.709 244.591 403.301 242.984 400.892 243.443Z" fill="#B7BFEC"/>
<path d="M368.67 321.069C366.835 319.347 364.656 319.347 362.821 321.069C361.445 322.447 360.069 323.825 358.808 325.203C358.464 325.548 358.12 325.662 357.661 325.433C356.744 324.973 355.826 324.514 355.024 324.055C351.125 321.529 347.799 318.313 344.818 314.753C343.327 312.916 342.066 311.079 341.148 308.897C340.919 308.438 341.034 308.208 341.378 307.864C342.754 306.6 344.015 305.222 345.391 303.844C347.226 302.007 347.226 299.711 345.391 297.873C344.359 296.84 343.213 295.691 342.18 294.658C341.034 293.51 340.002 292.476 338.855 291.328C337.02 289.605 334.841 289.605 333.007 291.328C331.631 292.706 330.369 294.084 328.879 295.347C327.617 296.61 326.929 298.103 326.814 299.825C326.585 302.696 327.273 305.337 328.305 307.978C330.369 313.375 333.351 318.198 337.135 322.677C342.18 328.648 348.143 333.356 355.138 336.801C358.349 338.294 361.56 339.557 365.115 339.672C367.523 339.787 369.702 339.213 371.422 337.26C372.568 335.997 373.945 334.734 375.091 333.471C376.926 331.634 376.926 329.337 375.091 327.5C373.027 325.433 370.848 323.251 368.67 321.069Z" fill="#5B69BD"/>
<path d="M367.752 311.653L369.243 311.423C370.046 311.309 370.619 310.505 370.39 309.701C369.587 306.371 367.867 303.385 365.459 300.974C362.821 298.333 359.611 296.61 356.17 295.806C355.368 295.691 354.68 296.151 354.565 296.955L354.336 298.447C354.221 299.136 354.794 299.825 355.482 300.055C358.12 300.629 360.528 302.007 362.477 303.959C364.312 305.797 365.574 308.093 366.262 310.62C366.376 311.309 367.064 311.883 367.752 311.653Z" fill="#5B69BD"/>
<path d="M373.027 293.51C368.44 288.916 362.821 285.931 356.629 284.782C355.826 284.668 355.138 285.242 355.024 285.931L354.794 287.424C354.68 288.227 355.253 288.802 355.941 289.031C361.331 290.065 366.147 292.591 370.046 296.495C373.715 300.17 376.238 304.763 377.385 309.816C377.499 310.505 378.187 311.079 378.99 310.964L380.481 310.734C381.283 310.62 381.857 309.816 381.628 309.012C380.251 303.155 377.385 297.873 373.027 293.51Z" fill="#5B69BD"/>
<path d="M635.281 103.004H539.989C537.925 103.004 536.205 101.282 536.205 99.2145V3.78944C536.205 1.72247 537.925 0 539.989 0H635.281C637.346 0 639.066 1.72247 639.066 3.78944V99.2145C639.066 101.282 637.346 103.004 635.281 103.004Z" fill="#B1CDBA"/>
<path d="M622.668 75.7889H552.03C550.998 75.7889 550.195 74.9851 550.195 73.9516V28.1338C550.195 27.1003 550.998 26.2964 552.03 26.2964H622.668C623.7 26.2964 624.502 27.1003 624.502 28.1338V73.9516C624.502 74.9851 623.585 75.7889 622.668 75.7889Z" fill="#6A9586"/>
<path d="M621.062 26.2964H553.635C552.03 26.2964 550.768 27.3299 550.424 28.8227C550.424 29.0524 550.31 29.3969 550.31 29.6266L584.138 54.0857C586.087 55.4637 588.725 55.4637 590.674 54.0857L624.502 29.6266C624.502 27.7893 622.897 26.2964 621.062 26.2964Z" fill="white"/>
<path d="M223.839 463.116C218.794 468.398 213.977 472.073 210.423 474.484C208.473 475.747 205.606 477.7 201.478 479.652C196.433 482.063 193.107 482.752 190.584 483.556C183.475 485.967 179.117 491.02 173.842 497.106C165.357 506.867 154.463 532.819 148.729 568.646C147.124 561.412 141.161 531.785 154.922 506.293C162.375 492.513 175.333 480.685 176.48 479.652C181.64 475.058 186.456 471.614 190.011 469.202C201.364 467.25 212.601 465.183 223.839 463.116Z" fill="#B7BFEC"/>
<path d="M202.854 217.147C202.396 215.883 202.625 214.735 202.854 213.702C203.428 213.472 204.574 213.013 205.492 211.979C206.524 210.831 206.868 209.568 207.097 208.764C207.556 206.697 207.327 204.86 206.982 203.826C207.671 204.056 209.047 204.515 210.881 204.285C212.945 204.056 214.436 203.022 215.01 202.563C215.01 203.711 215.239 204.63 215.468 205.319C215.812 206.123 216.156 206.697 216.271 206.927C216.5 207.271 217.303 208.419 218.679 208.994C220.743 209.912 222.922 208.994 223.266 208.764C222.807 209.912 222.463 211.29 223.151 212.094C223.151 212.209 223.266 212.209 223.266 212.209C225.101 214.276 224.986 218.639 223.266 220.821C219.367 225.529 204.918 223.348 202.854 217.147Z" fill="white" stroke="#010101" stroke-width="0.5" stroke-miterlimit="10" stroke-linejoin="round"/>
<path d="M204.918 203.941C205.377 204.286 206.065 204.745 207.212 205.089C207.671 205.204 208.244 205.319 209.505 205.204C210.308 205.204 212.028 205.089 213.289 204.515C215.124 203.711 215.812 202.104 217.074 199.577C217.876 197.855 219.826 193.606 219.023 188.209C219.023 187.979 218.908 187.865 218.908 187.635C217.876 183.042 212.372 180.975 210.652 180.401C208.244 179.482 205.606 178.563 202.625 179.712C200.217 180.63 198.955 182.467 198.497 183.042C195.401 187.405 197.235 193.147 197.809 194.754C197.694 194.869 199.299 199.692 204.918 203.941Z" fill="white" stroke="#010101" stroke-width="0.5" stroke-miterlimit="10" stroke-linejoin="round"/>
<path d="M200.332 186.372C202.396 185.683 204.001 185.453 205.148 185.338C206.868 185.223 207.671 185.453 209.276 185.109C210.881 184.764 212.143 184.305 212.945 183.845C213.519 184.534 214.436 185.798 215.124 187.405C216.156 189.587 216.386 191.424 216.73 194.18C217.074 196.821 217.188 198.199 216.844 199.692C216.386 201.415 215.583 202.678 214.895 203.482C214.895 206.008 216.271 208.305 218.335 209.108C220.514 210.027 222.578 209.108 222.922 208.879C224.413 208.19 226.591 207.156 229.343 206.467C233.816 205.204 234.962 205.893 235.65 204.974C237.944 201.874 222.004 183.271 216.5 179.941C214.78 178.908 212.945 178.219 212.945 178.219C212.257 177.989 210.423 177.415 208.359 177.3C207.212 177.185 201.134 177.07 197.35 181.434C195.974 183.042 195.401 184.649 194.827 186.487C192.534 193.606 194.483 199.922 194.827 201.07C196.777 207.041 201.478 213.817 204.23 213.013C205.262 212.668 206.524 211.175 206.982 205.204C206.065 204.86 204.116 204.171 202.51 202.219C201.02 200.496 200.561 198.659 200.332 197.74C200.332 197.396 200.332 196.707 200.332 196.018C200.332 194.18 200.446 191.769 200.217 188.898C200.446 188.094 200.446 187.29 200.332 186.372Z" fill="#B7BFEC"/>
<path d="M188.406 206.582C186.686 203.941 187.03 203.597 185.195 200.726C183.245 197.625 182.443 197.51 182.213 196.018C181.64 193.147 183.589 190.391 184.163 189.702C185.31 188.094 186.686 187.29 187.488 186.716C188.52 187.865 189.552 189.128 190.699 190.506C191.502 191.539 192.075 192.458 192.763 193.377C192.419 193.721 191.616 194.64 190.24 195.099C187.832 195.788 185.998 194.295 185.768 194.18C186.112 196.247 186.686 197.855 187.259 199.003C188.176 200.841 188.979 201.759 190.699 204.286C191.846 206.008 192.649 207.501 193.337 208.534C193.337 207.845 193.566 205.893 194.942 204.171C196.203 202.678 197.579 201.989 198.267 201.759C199.988 204.63 201.593 207.616 203.313 210.486C202.51 210.831 201.478 211.29 200.102 211.635C198.038 212.209 195.63 212.783 193.337 211.979C191.616 211.29 190.584 209.683 189.438 208.19C189.208 207.616 188.979 207.271 188.406 206.582Z" fill="#B1CDBA"/>
<path d="M180.608 207.73C180.837 206.352 183.131 206.008 183.131 204.515C183.131 203.941 182.901 203.367 182.901 203.367C182.557 202.793 182.328 202.678 181.984 202.333C181.525 201.644 181.411 200.381 181.755 200.152C182.443 199.692 184.163 202.219 185.539 201.759C186.342 201.53 186.227 200.611 187.144 200.266C187.947 200.037 188.864 200.496 189.208 200.726C190.47 201.53 190.928 202.793 191.043 203.252C191.158 203.597 191.272 204.171 191.272 204.975C191.272 205.664 191.272 207.386 190.126 208.19C189.552 208.534 188.062 209.108 187.832 209.338C187.603 209.568 187.603 209.568 187.03 210.372C186.456 211.175 185.883 211.864 185.424 212.094C184.277 212.668 180.149 209.683 180.608 207.73Z" fill="white" stroke="#010101" stroke-width="0.5" stroke-miterlimit="10" stroke-linejoin="round"/>
<path d="M203.428 275.711C202.854 274.103 202.166 271.807 201.478 268.936C200.676 265.491 200.446 263.194 199.987 259.29C199.529 255.73 199.07 252.055 198.497 248.266C197.579 242.869 196.547 237.702 195.401 232.879C192.992 233.223 190.011 233.797 186.342 234.371C173.498 236.324 170.173 236.438 167.306 234.371C166.733 233.912 164.21 232.075 163.637 228.974C163.293 226.793 163.981 224.726 168.911 218.18C173.957 211.405 178.659 205.204 180.837 206.238C181.181 206.352 181.067 206.467 181.984 207.73C184.163 210.486 185.195 210.946 185.424 212.209C185.539 213.242 184.965 214.046 184.163 215.08C182.099 217.721 180.379 220.017 178.659 222.314C177.741 222.773 177.397 223.118 177.397 223.118C177.397 223.118 178.544 222.429 178.659 222.314C181.984 220.362 190.47 218.525 195.63 216.917C197.35 216.343 199.873 215.424 202.854 213.817C204.001 214.506 205.836 215.539 208.014 216.458C210.996 217.606 213.519 218.525 216.042 217.95C221.087 216.687 222.922 209.683 223.151 208.994C224.642 208.305 226.821 207.386 229.573 206.582C234.045 205.204 236.224 204.515 238.861 205.319C242.072 206.352 243.907 208.994 244.595 210.027C245.971 211.979 246.315 214.276 247.232 218.754C247.232 218.754 248.379 224.611 247.92 229.204C247.691 231.615 247.232 233.453 246.774 234.831C246.2 236.783 245.856 237.472 245.627 237.816C244.48 239.654 242.531 239.768 241.957 240.917C241.613 241.606 241.957 242.41 242.187 242.984C243.792 246.888 244.365 251.137 245.971 255.041C247.118 257.682 248.494 261.701 249.64 266.754C234.274 269.625 218.908 272.725 203.428 275.711Z" fill="#707FDA" stroke="white" stroke-width="0.5" stroke-miterlimit="10" stroke-linejoin="round"/>
<path d="M231.522 245.051C230.72 245.166 230.605 246.084 229.114 246.773C228.541 247.003 227.967 247.118 227.623 247.232C226.706 247.462 226.362 247.347 226.247 247.347C225.789 247.347 225.559 247.118 225.215 247.003C224.413 246.658 224.413 246.429 223.725 246.084C223.381 245.969 222.578 245.625 222.348 245.855C222.004 246.199 222.348 247.462 223.151 248.266C223.839 248.955 224.413 248.84 224.642 249.299C224.871 250.103 223.495 250.448 223.266 251.941C223.266 252.17 223.151 253.089 223.839 253.663C223.954 253.778 224.069 253.893 224.183 253.893C224.183 254.237 224.298 254.352 224.298 254.582C224.527 255.271 225.215 255.5 225.33 255.5C225.559 255.615 225.789 255.615 225.903 255.615C226.018 255.73 226.477 256.189 227.05 256.304C227.738 256.419 228.311 256.304 228.426 256.189C228.655 256.304 228.999 256.304 229.229 256.419C229.229 256.419 229.573 256.419 230.031 256.419C230.834 256.189 231.408 255.386 231.522 255.041C231.866 254.352 232.325 252.859 232.669 252.515C232.898 252.285 232.898 252.285 233.701 251.596C234.618 250.792 235.192 250.333 235.421 249.874C236.109 248.381 233.242 244.591 231.522 245.051Z" fill="white" stroke="#010101" stroke-width="0.5" stroke-miterlimit="10" stroke-linejoin="round"/>
<path d="M203.633 194.871C204.075 194.84 204.398 194.302 204.354 193.67C204.31 193.037 203.916 192.549 203.473 192.58C203.031 192.611 202.708 193.149 202.752 193.782C202.797 194.415 203.191 194.902 203.633 194.871Z" fill="black" stroke="#010101" stroke-width="0.5" stroke-miterlimit="10" stroke-linecap="round" stroke-linejoin="round"/>
<path d="M211.455 190.85C211.913 190.85 212.257 191.31 212.257 191.884C212.257 192.458 212.028 193.032 211.569 193.032C211.111 193.032 210.767 192.573 210.767 191.999C210.767 191.424 211.111 190.85 211.455 190.85Z" fill="black" stroke="#010101" stroke-width="0.5" stroke-miterlimit="10" stroke-linecap="round" stroke-linejoin="round"/>
<path d="M201.134 192.228C201.02 192.113 201.593 190.965 202.625 190.506C204.001 189.932 205.492 190.621 205.492 190.735C205.492 190.85 205.262 190.85 203.772 191.195C203.084 191.31 202.969 191.424 202.625 191.539C202.281 191.654 202.166 191.769 201.822 191.999C201.593 192.113 201.249 192.343 201.134 192.228Z" fill="black"/>
<path d="M208.817 190.276C208.703 190.046 209.62 189.013 210.881 188.783C212.372 188.439 213.748 189.128 213.748 189.357C213.748 189.472 213.06 189.357 211.799 189.587C211.455 189.702 211.34 189.702 209.735 190.046C208.932 190.276 208.817 190.391 208.817 190.276Z" fill="black"/>
<path d="M206.868 193.376C206.982 193.836 207.097 194.525 207.212 195.443C207.326 196.821 207.212 197.396 207.556 197.74C207.785 197.97 208.359 198.085 209.849 197.396" stroke="#010101" stroke-width="0.5" stroke-miterlimit="10" stroke-linecap="round" stroke-linejoin="round"/>
<path d="M235.536 217.491C235.994 220.821 236.338 225.529 235.88 230.467C235.65 232.764 235.306 234.601 234.389 236.553C233.472 238.735 232.898 239.768 231.866 240.687C231.178 241.261 230.261 241.721 229.688 242.869C229.458 243.213 229.229 243.788 229.343 244.477C229.573 245.969 231.064 245.855 232.784 248.036C233.93 249.529 234.389 249.989 235.306 251.022C235.421 251.137 235.765 251.481 236.224 251.596C236.912 251.711 237.485 251.366 238.059 250.792C239.435 249.529 240.008 248.151 240.352 247.462C241.384 245.28 240.925 246.773 242.875 243.099C244.021 240.917 245.512 238.046 246.315 235.635C247.232 233.223 248.379 228.859 247.691 222.429" fill="#707FDA"/>
<path d="M235.536 217.491C235.994 220.821 236.338 225.529 235.88 230.467C235.65 232.764 235.306 234.601 234.389 236.553C233.472 238.735 232.898 239.768 231.866 240.687C231.178 241.261 230.261 241.721 229.688 242.869C229.458 243.213 229.229 243.788 229.343 244.477C229.573 245.969 231.064 245.855 232.784 248.036C233.93 249.529 234.389 249.989 235.306 251.022C235.421 251.137 235.765 251.481 236.224 251.596C236.912 251.711 237.485 251.366 238.059 250.792C239.435 249.529 240.008 248.151 240.352 247.462C241.384 245.28 240.925 246.773 242.875 243.099C244.021 240.917 245.512 238.046 246.315 235.635C247.232 233.223 248.379 228.859 247.691 222.429" stroke="white" stroke-width="0.5" stroke-miterlimit="10" stroke-linejoin="round"/>
<path d="M206.868 200.496C206.982 200.152 207.9 200.611 209.62 200.266C211.569 199.922 212.487 199.118 212.716 199.348C212.945 199.577 212.372 200.611 211.569 201.185C211.34 201.3 210.652 201.874 209.735 201.874C208.129 201.874 206.753 200.841 206.868 200.496Z" stroke="#010101" stroke-width="0.5" stroke-miterlimit="10" stroke-linecap="round" stroke-linejoin="round"/>
<path d="M211.455 190.621C212.372 190.391 213.06 190.621 213.289 190.621C212.257 190.85 211.225 191.08 210.193 191.31C210.423 191.31 210.881 190.85 211.455 190.621Z" fill="black" stroke="#010101" stroke-width="0.5" stroke-miterlimit="10" stroke-linecap="round" stroke-linejoin="round"/>
<path d="M203.084 192.458C204.001 192.228 204.689 192.458 204.918 192.458C203.886 192.688 202.854 192.917 201.822 193.147C202.052 193.032 202.51 192.688 203.084 192.458Z" fill="black" stroke="#010101" stroke-width="0.5" stroke-miterlimit="10" stroke-linecap="round" stroke-linejoin="round"/>
<path d="M109.741 270.543C111.92 277.548 114.213 288.113 113.64 300.974C112.837 319.117 106.645 332.782 102.631 340.131" fill="white"/>
<path d="M109.741 270.543C111.92 277.548 114.213 288.113 113.64 300.974C112.837 319.117 106.645 332.782 102.631 340.131" stroke="black" stroke-miterlimit="10"/>
</g>
<defs>
<clipPath id="clip0">
<rect width="662" height="607" fill="white"/>
</clipPath>
</defs>
</svg>
