<svg width="24" height="24" viewBox="0 0 24 24" fill="none" xmlns="http://www.w3.org/2000/svg">
<path d="M19.0127 2.40002H4.98739C3.55852 2.40002 2.40015 3.55835 2.40015 4.98726V19.0127C2.40015 20.4416 3.55847 21.5999 4.98739 21.5999H11.9046L11.9164 14.7389H10.1339C9.90227 14.7389 9.71426 14.5516 9.71336 14.32L9.70481 12.1084C9.70392 11.8755 9.8925 11.6862 10.1254 11.6862H11.9047V9.54923C11.9047 7.06931 13.4192 5.71898 15.6315 5.71898H17.4468C17.6791 5.71898 17.8674 5.90727 17.8674 6.13958V8.0044C17.8674 8.23661 17.6792 8.42486 17.447 8.425L16.333 8.42552C15.1299 8.42552 14.897 8.99721 14.897 9.8362V11.6862H17.5406C17.7924 11.6862 17.9879 11.9062 17.9582 12.1563L17.6961 14.3679C17.671 14.5796 17.4915 14.739 17.2784 14.739H14.9087L14.897 21.6H19.0128C20.4417 21.6 21.6 20.4417 21.6 19.0128V4.98726C21.6 3.55835 20.4416 2.40002 19.0127 2.40002Z" fill="#9397B2"/>
</svg>
