<svg width="16" height="16" viewBox="0 0 16 16" fill="none" xmlns="http://www.w3.org/2000/svg">
<path d="M15.6955 4.13733C15.6955 4.13733 15.7952 0.939934 14.7064 0.939934C13.7473 0.939934 13.5315 2.08639 13.5315 4.13733H15.6955Z" fill="#C7CBE0"/>
<path fill-rule="evenodd" clip-rule="evenodd" d="M13.6722 0.939934C13.6722 0.939934 4.59035 0.942151 3.20343 0.942148C1.81831 1.21778 1.81831 2.4348 1.81831 3.96494V12.1294C1.81831 14.6811 0.302124 15.0601 0.302124 15.0601H11.3975C12.9137 15.0601 12.9137 13.7606 12.9137 11.8656V3.96494V3.29302C12.9137 1.94719 13.1244 1.30089 13.6722 0.939934ZM11.0972 4.47344H3.70033V5.48103H11.0972V4.47344ZM3.70033 7.49621H11.0972V8.5038H3.70033V7.49621ZM11.0972 10.519H3.70033V11.5266H11.0972V10.519Z" fill="#C7CBE0"/>
</svg>
