<svg width="23" height="18" viewBox="0 0 23 18" fill="none" xmlns="http://www.w3.org/2000/svg">
<path d="M3.5 0.199951C2.616 0.199951 1.9 0.915951 1.9 1.79995V4.19995V5.79995H17.1H21.1V3.39995C21.1 2.51595 20.384 1.79995 19.5 1.79995H9.25938L8.76563 0.976514C8.47683 0.494914 7.95615 0.199951 7.39375 0.199951H3.5ZM1.50156 7.39995C0.694365 7.39995 0.116327 8.18188 0.353127 8.95308L2.72813 16.6703C2.93533 17.3415 3.55541 17.8 4.25781 17.8H11.5H18.7422C19.4446 17.8 20.0647 17.3415 20.2719 16.6703L22.6469 8.95308C22.8837 8.18188 22.3056 7.39995 21.4984 7.39995H11.5H1.50156Z" fill="#E1E3F1"/>
</svg>
