<svg width="24" height="24" viewBox="0 0 24 24" fill="none" xmlns="http://www.w3.org/2000/svg">
<path d="M17.3397 21.5899L6.67871 21.6C4.33328 21.6022 2.4127 19.6853 2.41003 17.3399L2.3999 6.67883C2.39777 4.33341 4.31463 2.41282 6.66005 2.41015L17.3211 2.40003C19.6665 2.39789 21.5871 4.31475 21.5898 6.66018L21.5999 17.3212C21.6026 19.6672 19.6852 21.5878 17.3397 21.5899Z" fill="#9397B2"/>
<path d="M17.3397 21.5899L6.67871 21.6C4.33328 21.6022 2.4127 19.6853 2.41003 17.3399L2.3999 6.67883C2.39777 4.33341 4.31463 2.41282 6.66005 2.41015L17.3211 2.40003C19.6665 2.39789 21.5871 4.31475 21.5898 6.66018L21.5999 17.3212C21.6026 19.6672 19.6852 21.5878 17.3397 21.5899Z" fill="#9397B2"/>
<path d="M11.9999 15.6572C9.98379 15.6572 8.34277 14.0167 8.34277 12C8.34277 9.98339 9.98379 8.3429 11.9999 8.3429C14.016 8.3429 15.6571 9.98339 15.6571 12C15.6571 14.0167 14.016 15.6572 11.9999 15.6572ZM11.9999 9.38779C10.5595 9.38779 9.38767 10.5596 9.38767 12C9.38767 13.4404 10.5595 14.6123 11.9999 14.6123C13.4403 14.6123 14.6122 13.4404 14.6122 12C14.6122 10.5596 13.4403 9.38779 11.9999 9.38779Z" fill="white"/>
<path d="M15.8857 8.78903C16.2644 8.78903 16.5714 8.4812 16.5714 8.10148C16.5714 7.72176 16.2644 7.41394 15.8857 7.41394C15.507 7.41394 15.2 7.72176 15.2 8.10148C15.2 8.4812 15.507 8.78903 15.8857 8.78903Z" fill="white"/>
<path d="M15.1648 18.8571H8.83513C6.79961 18.8571 5.14282 17.2008 5.14282 15.1648V8.83513C5.14282 6.79909 6.79961 5.14282 8.83513 5.14282H15.1648C17.2003 5.14282 18.8571 6.79909 18.8571 8.83513V15.1648C18.8571 17.2008 17.2003 18.8571 15.1648 18.8571ZM8.83513 6.19777C7.38089 6.19777 6.19777 7.38089 6.19777 8.83513V15.1648C6.19777 16.619 7.38089 17.8022 8.83513 17.8022H15.1648C16.619 17.8022 17.8022 16.619 17.8022 15.1648V8.83513C17.8022 7.38089 16.619 6.19777 15.1648 6.19777H8.83513Z" fill="white"/>
</svg>
