<svg width="30" height="30" viewBox="0 0 30 30" fill="none" xmlns="http://www.w3.org/2000/svg">
<path d="M21.6748 26.9873L8.34851 27C5.41673 27.0027 3.01599 24.6066 3.01266 21.6748L3 8.34851C2.99734 5.41673 5.39341 3.01599 8.32519 3.01266L21.6515 3C24.5833 2.99734 26.984 5.39341 26.9873 8.32519L27 21.6515C27.0033 24.5839 24.6066 26.9847 21.6748 26.9873Z" fill="#9397B2"/>
<path d="M21.6748 26.9873L8.34851 27C5.41673 27.0027 3.01599 24.6066 3.01266 21.6748L3 8.34851C2.99734 5.41673 5.39341 3.01599 8.32519 3.01266L21.6515 3C24.5833 2.99734 26.984 5.39341 26.9873 8.32519L27 21.6515C27.0033 24.5839 24.6066 26.9847 21.6748 26.9873Z" fill="#9397B2"/>
<path d="M14.9999 19.5713C12.4797 19.5713 10.4285 17.5207 10.4285 14.9999C10.4285 12.4791 12.4797 10.4285 14.9999 10.4285C17.5201 10.4285 19.5713 12.4791 19.5713 14.9999C19.5713 17.5207 17.5201 19.5713 14.9999 19.5713ZM14.9999 11.7346C13.1994 11.7346 11.7346 13.1994 11.7346 14.9999C11.7346 16.8004 13.1994 18.2652 14.9999 18.2652C16.8004 18.2652 18.2652 16.8004 18.2652 14.9999C18.2652 13.1994 16.8004 11.7346 14.9999 11.7346Z" fill="#383B50"/>
<path d="M19.8571 10.9862C20.3305 10.9862 20.7143 10.6014 20.7143 10.1268C20.7143 9.65211 20.3305 9.26733 19.8571 9.26733C19.3838 9.26733 19 9.65211 19 10.1268C19 10.6014 19.3838 10.9862 19.8571 10.9862Z" fill="#383B50"/>
<path d="M18.9559 23.5713H11.0439C8.49946 23.5713 6.42847 21.501 6.42847 18.9559V11.0439C6.42847 8.4988 8.49946 6.42847 11.0439 6.42847H18.9559C21.5003 6.42847 23.5713 8.4988 23.5713 11.0439V18.9559C23.5713 21.501 21.5003 23.5713 18.9559 23.5713ZM11.0439 7.74715C9.22605 7.74715 7.74715 9.22605 7.74715 11.0439V18.9559C7.74715 20.7737 9.22605 22.2526 11.0439 22.2526H18.9559C20.7737 22.2526 22.2526 20.7737 22.2526 18.9559V11.0439C22.2526 9.22605 20.7737 7.74715 18.9559 7.74715H11.0439Z" fill="#383B50"/>
</svg>
