<svg width="24" height="24" viewBox="0 0 24 24" fill="none" xmlns="http://www.w3.org/2000/svg">
<path d="M19.8631 2.40002H4.1367C3.1775 2.40002 2.3999 3.17762 2.3999 4.13682V19.8632C2.3999 20.8224 3.1775 21.6 4.1367 21.6H19.8631C20.8223 21.6 21.5999 20.8224 21.5999 19.8632V4.13682C21.5999 3.17762 20.8223 2.40002 19.8631 2.40002ZM8.3412 18.9786C8.3412 19.2577 8.11492 19.484 7.83576 19.484H5.68426C5.4051 19.484 5.17883 19.2577 5.17883 18.9786V9.95955C5.17883 9.68039 5.4051 9.45411 5.68426 9.45411H7.83576C8.11492 9.45411 8.3412 9.68039 8.3412 9.95955V18.9786ZM6.76001 8.60394C5.63118 8.60394 4.71607 7.68882 4.71607 6.55999C4.71607 5.43116 5.63118 4.51605 6.76001 4.51605C7.88884 4.51605 8.80396 5.43116 8.80396 6.55999C8.80396 7.68882 7.88889 8.60394 6.76001 8.60394ZM19.5849 19.0193C19.5849 19.2759 19.3768 19.484 19.1202 19.484H16.8115C16.5548 19.484 16.3467 19.2759 16.3467 19.0193V14.7888C16.3467 14.1578 16.5319 12.0234 14.6975 12.0234C13.2746 12.0234 12.986 13.4843 12.9281 14.1399V19.0193C12.9281 19.2759 12.7201 19.484 12.4634 19.484H10.2304C9.9738 19.484 9.76572 19.2759 9.76572 19.0193V9.91883C9.76572 9.6622 9.9738 9.45411 10.2304 9.45411H12.4634C12.72 9.45411 12.9281 9.6622 12.9281 9.91883V10.7057C13.4557 9.91391 14.2398 9.30278 15.9092 9.30278C19.6061 9.30278 19.5849 12.7566 19.5849 14.6542V19.0193Z" fill="#9397B2"/>
</svg>
