<svg width="16" height="16" viewBox="0 0 16 16" fill="none" xmlns="http://www.w3.org/2000/svg">
<path d="M7.99992 1.33333C5.42259 1.33333 3.33325 3.42267 3.33325 6C3.33325 8.644 6.26925 12.5467 7.48392 14.0473C7.75059 14.3767 8.24925 14.3767 8.51592 14.0473C9.73059 12.5467 12.6666 8.644 12.6666 6C12.6666 3.42267 10.5773 1.33333 7.99992 1.33333ZM7.99992 7.66667C7.07925 7.66667 6.33325 6.92067 6.33325 6C6.33325 5.07933 7.07925 4.33333 7.99992 4.33333C8.92059 4.33333 9.66659 5.07933 9.66659 6C9.66659 6.92067 8.92059 7.66667 7.99992 7.66667Z" fill="#99A29C"/>
</svg>
