<svg width="24" height="24" viewBox="0 0 24 24" fill="none" xmlns="http://www.w3.org/2000/svg">
<path d="M21.5999 5.8468C20.8859 6.16 20.1251 6.3676 19.3319 6.4684C20.1479 5.9812 20.7707 5.2156 21.0635 4.2928C20.3027 4.7464 19.4627 5.0668 18.5675 5.2456C17.8451 4.4764 16.8155 4 15.6923 4C13.5131 4 11.7587 5.7688 11.7587 7.9372C11.7587 8.2492 11.7851 8.5492 11.8499 8.8348C8.5775 8.6752 5.6819 7.1068 3.7367 4.7176C3.3971 5.3068 3.1979 5.9812 3.1979 6.7072C3.1979 8.0704 3.8999 9.2788 4.9463 9.9784C4.3139 9.9664 3.6935 9.7828 3.1679 9.4936C3.1679 9.5056 3.1679 9.5212 3.1679 9.5368C3.1679 11.4496 4.5323 13.0384 6.3215 13.4044C6.0011 13.492 5.6519 13.534 5.2895 13.534C5.0375 13.534 4.7831 13.5196 4.5443 13.4668C5.0543 15.0256 6.5015 16.1716 8.2223 16.2088C6.8831 17.2564 5.1827 17.8876 3.3419 17.8876C3.0191 17.8876 2.7095 17.8732 2.3999 17.8336C4.1435 18.958 6.2099 19.6 8.4383 19.6C15.6815 19.6 19.6415 13.6 19.6415 8.3992C19.6415 8.2252 19.6355 8.0572 19.6271 7.8904C20.4083 7.336 21.0647 6.6436 21.5999 5.8468Z" fill="#9397B2"/>
</svg>
