<svg width="25" height="24" viewBox="0 0 25 24" fill="none" xmlns="http://www.w3.org/2000/svg">
<path d="M3.61719 8.99999C4.41719 8.99999 5.11719 9.69999 5.11719 10.5V19.5C5.11719 20.3 4.41719 21 3.61719 21C2.81719 21 2.11719 20.3 2.11719 19.5V10.5C2.11719 9.69999 2.81719 8.99999 3.61719 8.99999ZM17.1172 21H9.11719C8.01719 21 7.11719 20.1 7.11719 19V9.79999C7.11719 9.29999 7.31719 8.79999 7.61719 8.49999L10.3172 5.49999L10.9172 2.99999C11.0172 2.39999 11.7172 2.09999 12.2172 2.29999C13.1172 2.49999 14.1172 3.29999 14.1172 4.89999C14.1172 6.59999 13.1172 8.99999 13.1172 8.99999H20.1172C21.2172 8.99999 22.1172 9.89999 22.1172 11V11.9C22.1172 12.3 22.0172 12.7 21.8172 13.1L18.8172 19.9C18.5172 20.6 17.9172 21 17.1172 21Z" fill="#AFB6E1"/>
</svg>
