<svg width="16" height="16" viewBox="0 0 16 16" fill="none" xmlns="http://www.w3.org/2000/svg">
<path d="M7.99998 1.3335C5.42265 1.3335 3.33331 3.42283 3.33331 6.00016C3.33331 8.64416 6.26931 12.5468 7.48398 14.0475C7.75065 14.3768 8.24931 14.3768 8.51598 14.0475C9.73065 12.5468 12.6666 8.64416 12.6666 6.00016C12.6666 3.42283 10.5773 1.3335 7.99998 1.3335ZM7.99998 7.66683C7.07931 7.66683 6.33331 6.92083 6.33331 6.00016C6.33331 5.0795 7.07931 4.3335 7.99998 4.3335C8.92065 4.3335 9.66665 5.0795 9.66665 6.00016C9.66665 6.92083 8.92065 7.66683 7.99998 7.66683Z" fill="#99A29C"/>
</svg>
