<svg width="16" height="16" viewBox="0 0 16 16" fill="none" xmlns="http://www.w3.org/2000/svg">
<circle cx="8" cy="8" r="8" fill="#6A9586"/>
<path d="M5.75071 7.56664C5.38586 7.15204 4.75398 7.1117 4.33937 7.47656C3.92476 7.84141 3.88443 8.47329 4.24929 8.8879L5.75071 7.56664ZM7 10.5L6.24929 11.1606C6.44455 11.3825 6.72797 11.5067 7.02345 11.4997C7.31894 11.4928 7.59623 11.3555 7.78087 11.1247L7 10.5ZM11.7809 6.1247C12.1259 5.69343 12.056 5.06414 11.6247 4.71913C11.1934 4.37412 10.5641 4.44404 10.2191 4.8753L11.7809 6.1247ZM4.24929 8.8879L6.24929 11.1606L7.75071 9.83937L5.75071 7.56664L4.24929 8.8879ZM7.78087 11.1247L11.7809 6.1247L10.2191 4.8753L6.21913 9.87531L7.78087 11.1247Z" fill="white"/>
</svg>
