<svg width="100" height="100" viewBox="0 0 100 100" fill="none" xmlns="http://www.w3.org/2000/svg">
<rect width="100" height="100" rx="50" fill="#F6F7FC"/>
<path d="M33.2031 26C31.3751 26 30 28 30 28C19.53 28 25.3065 44.7118 22.2305 47.1758C22.2305 47.1758 24.116 49.5078 30 49.5078V51.5039C28.374 55.7399 20 54.174 20 62H36.0469C37.4549 61.148 42 58.7852 42 58.7852C40.914 57.6252 39.3473 55.6196 38.7773 54.1016C37.5293 53.4756 36.474 52.7399 36 51.5039V49.4844C36.38 49.4844 37.5005 49.3966 37.8945 49.3086C37.0025 47.9346 36.25 44.8029 36.25 43.0469C36.25 38.5809 38.1733 34.9075 41.3633 32.6055C40.4013 28.9235 38.2651 26 33.2031 26ZM66 26C61.554 26 58.8241 29.0584 58.1641 33.0664C61.3961 34.7984 63.5 38.5324 63.5 43.2344C63.5 44.7044 63.1572 46.1188 62.7852 47.2148C62.9232 47.7568 63 48.3612 63 49.0312C63 53.9713 58 58.8984 58 58.8984C59.086 59.3724 62.5605 61.138 63.9805 62H80C80 51.5 71.474 54.5 70 50V47C70.664 46.666 72.2453 44.3663 72.4453 42.5703C72.9653 42.5303 74 41.2591 74 40.1211C74 38.9831 73.6382 38.5043 73.3242 38.3203C73.3242 38.3203 74 36.818 74 35C74 31.358 73.016 28 70 28C70 28 69.134 26 66 26ZM50 34C44.616 34 40.25 37.2429 40.25 43.0469C40.25 45.5009 41.625 47.4141 41.625 47.4141C41.625 47.4141 41 47.7213 41 49.0312C41 51.5772 42.6367 52.1875 42.6367 52.1875C42.8647 54.2035 46 57.1562 46 57.1562V60.5273C44.316 65.5793 34 62.25 34 74H66C66 62.21 55.684 65.5793 54 60.5273V57.1562C54 57.1562 57.1353 54.2035 57.3633 52.1875C57.3633 52.1875 59 51.0573 59 49.0312C59 47.6273 58.375 47.4141 58.375 47.4141C58.375 47.4141 59.5 45.2744 59.5 43.2344C59.5 39.1444 57.448 36 54 36C54 36 52.536 34 50 34Z" fill="#6A9586"/>
</svg>
