<svg width="581" height="900" viewBox="0 0 581 900" fill="none" xmlns="http://www.w3.org/2000/svg">
<g opacity="0.8">
<mask id="mask0" mask-type="alpha" maskUnits="userSpaceOnUse" x="0" y="0" width="581" height="900">
<rect width="580.936" height="900" fill="#707FDA"/>
</mask>
<g mask="url(#mask0)">
<path opacity="0.1" d="M-256.119 263.473L-261.146 227.369L-194.634 85.732L19.1404 29.9314L179.895 201.951C238.354 264.507 264.61 350.575 251.022 435.11C221.265 620.241 310.378 804.235 474.081 895.668L579.183 954.371L-136.822 1007.83L-256.119 263.473Z" fill="#B7C1FF"/>
<path opacity="0.2" d="M-90.0409 145.949L-87.9673 110.493L-18.6376 -6.69168L141.784 -5.20086L231.486 204.333C262.323 276.365 266.571 357.008 243.472 431.881L198.29 578.337C144.763 751.839 229.069 938.012 394.776 1012.24L-121.683 880.919L-90.0409 145.949Z" fill="#B7C1FF"/>
<g opacity="0.15">
<path d="M-146.105 143.915L-144.274 109.062L-79.5519 -5.92148L71.108 -3.92677L120.462 240.511C133.105 303.13 164.738 360.332 211.056 404.328C364.261 549.856 409.605 775.903 324.379 969.259L312.053 997.223L-173.397 866.411L-146.105 143.915Z" fill="#B7C1FF" style="mix-blend-mode:overlay"/>
</g>
</g>
</g>
</svg>
