<svg width="25" height="24" viewBox="0 0 25 24" fill="none" xmlns="http://www.w3.org/2000/svg">
<path d="M3.69922 3.99922C3.69922 3.55739 4.05739 3.19922 4.49922 3.19922H10.8992C11.341 3.19922 11.6992 3.55739 11.6992 3.99922V12.7992C11.6992 13.241 11.341 13.5992 10.8992 13.5992H4.49922C4.05739 13.5992 3.69922 13.241 3.69922 12.7992V3.99922Z" fill="#212121"/>
<path d="M21.2992 19.9992C21.2992 20.441 20.941 20.7992 20.4992 20.7992H14.0992C13.6574 20.7992 13.2992 20.441 13.2992 19.9992L13.2992 11.1992C13.2992 10.7574 13.6574 10.3992 14.0992 10.3992L20.4992 10.3992C20.941 10.3992 21.2992 10.7574 21.2992 11.1992L21.2992 19.9992Z" fill="#212121"/>
<path d="M3.69922 15.9992C3.69922 15.5574 4.05739 15.1992 4.49922 15.1992H10.8992C11.341 15.1992 11.6992 15.5574 11.6992 15.9992V19.9992C11.6992 20.441 11.341 20.7992 10.8992 20.7992H4.49922C4.05739 20.7992 3.69922 20.441 3.69922 19.9992V15.9992Z" fill="#212121"/>
<path d="M21.2992 7.99922C21.2992 8.44105 20.941 8.79922 20.4992 8.79922L14.0992 8.79922C13.6574 8.79922 13.2992 8.44105 13.2992 7.99922L13.2992 3.99922C13.2992 3.55739 13.6574 3.19922 14.0992 3.19922L20.4992 3.19922C20.941 3.19922 21.2992 3.55739 21.2992 3.99922V7.99922Z" fill="#212121"/>
</svg>
