<svg width="25" height="24" viewBox="0 0 25 24" fill="none" xmlns="http://www.w3.org/2000/svg">
<path d="M7.5 2C6.96957 2 6.46086 2.21071 6.08579 2.58579C5.71071 2.96086 5.5 3.46957 5.5 4C5.5 4.53043 5.71071 5.03914 6.08579 5.41421C6.46086 5.78929 6.96957 6 7.5 6C8.03043 6 8.53914 5.78929 8.91421 5.41421C9.28929 5.03914 9.5 4.53043 9.5 4C9.5 3.46957 9.28929 2.96086 8.91421 2.58579C8.53914 2.21071 8.03043 2 7.5 2ZM12.5 2C11.9696 2 11.4609 2.21071 11.0858 2.58579C10.7107 2.96086 10.5 3.46957 10.5 4C10.5 4.53043 10.7107 5.03914 11.0858 5.41421C11.4609 5.78929 11.9696 6 12.5 6C13.0304 6 13.5391 5.78929 13.9142 5.41421C14.2893 5.03914 14.5 4.53043 14.5 4C14.5 3.46957 14.2893 2.96086 13.9142 2.58579C13.5391 2.21071 13.0304 2 12.5 2ZM17.5 2C16.9696 2 16.4609 2.21071 16.0858 2.58579C15.7107 2.96086 15.5 3.46957 15.5 4C15.5 4.53043 15.7107 5.03914 16.0858 5.41421C16.4609 5.78929 16.9696 6 17.5 6C18.0304 6 18.5391 5.78929 18.9142 5.41421C19.2893 5.03914 19.5 4.53043 19.5 4C19.5 3.46957 19.2893 2.96086 18.9142 2.58579C18.5391 2.21071 18.0304 2 17.5 2ZM5.5 7C4.395 7 3.5 7.895 3.5 9V16H4.5V22H6.5V14H5.5V9H6.60156C6.75356 8.257 7.08339 7.584 7.52539 7H5.5ZM11.5 7C9.843 7 8.5 8.343 8.5 10V18H9.5V22H11.5V18H13.5V22H15.5V18H16.5V10C16.5 8.343 15.157 7 13.5 7H11.5ZM17.4746 7C17.9166 7.584 18.2474 8.257 18.3984 9H19.5V14H18.5V22H20.5V16H21.5V9C21.5 7.895 20.605 7 19.5 7H17.4746Z" fill="white"/>
</svg>
