<svg width="25" height="24" viewBox="0 0 25 24" fill="none" xmlns="http://www.w3.org/2000/svg">
<path fill-rule="evenodd" clip-rule="evenodd" d="M20.5 2.48516V20.9997C20.5 21.552 20.0523 21.9997 19.5 21.9997H5.5C4.94772 21.9997 4.5 21.552 4.5 20.9997V2.48516C4.5 2.26214 4.73469 2.11709 4.93416 2.21683L8.36584 3.93266C8.45029 3.97489 8.54971 3.97489 8.63416 3.93266L12.3658 2.06683C12.4503 2.0246 12.5497 2.0246 12.6342 2.06683L16.3658 3.93266C16.4503 3.97489 16.5497 3.97489 16.6342 3.93266L20.0658 2.21683C20.2653 2.11709 20.5 2.26214 20.5 2.48516ZM7.5 7.99975C7.5 7.44746 7.94772 6.99975 8.5 6.99975H16.5C17.0523 6.99975 17.5 7.44746 17.5 7.99975C17.5 8.55203 17.0523 8.99975 16.5 8.99975H8.5C7.94772 8.99975 7.5 8.55203 7.5 7.99975ZM7.5 12.9997C7.5 12.4475 7.94772 11.9997 8.5 11.9997H16.5C17.0523 11.9997 17.5 12.4475 17.5 12.9997C17.5 13.552 17.0523 13.9997 16.5 13.9997H8.5C7.94772 13.9997 7.5 13.552 7.5 12.9997ZM7.5 17.9997C7.5 17.4475 7.94772 16.9997 8.5 16.9997H13.5C14.0523 16.9997 14.5 17.4475 14.5 17.9997C14.5 18.552 14.0523 18.9997 13.5 18.9997H8.5C7.94772 18.9997 7.5 18.552 7.5 17.9997Z" fill="#212121"/>
</svg>
