<svg width="25" height="24" viewBox="0 0 25 24" fill="none" xmlns="http://www.w3.org/2000/svg">
<path d="M1.5 18.8824V12.7227C1.5 11.9301 1.85354 11.1792 2.46344 10.6764L6.20695 7.59029C6.37891 7.44853 6.63753 7.57144 6.63753 7.79493V14.6415C6.63753 16.1183 8.273 17.0016 9.49904 16.187L14.3368 12.9728C14.6092 12.7918 14.9708 12.8285 15.2017 13.0605C16.0738 13.9367 16.0738 15.3574 15.2017 16.2337L11.4609 19.9921C10.8186 20.6375 9.94743 21 9.03905 21H3.6077C2.44365 21 1.5 20.0519 1.5 18.8824Z" fill="#212121"/>
<path d="M8.74523 12.7903V8.29415H23.4992V12.7941C23.4992 13.8175 22.6735 14.6471 21.6549 14.6471H20.2743C19.9789 14.6471 19.697 14.5225 19.4974 14.3037L16.3661 10.8717C15.845 10.3005 14.9896 10.1905 14.3421 10.6114L9.965 13.457C9.43911 13.7989 8.74523 13.4197 8.74523 12.7903Z" fill="#212121"/>
<path d="M23.4797 6.16697C22.9846 6.0745 13.5505 6.13378 8.74523 6.17651V5.11764C8.74523 3.9481 9.68889 3 10.8529 3H21.3055C22.5026 3 23.45 4.00097 23.4417 5.20368C23.4382 5.70421 23.4472 6.09176 23.4797 6.16697C23.4958 6.16999 23.5025 6.17316 23.4992 6.17651C23.4919 6.18379 23.4854 6.18025 23.4797 6.16697Z" fill="#212121"/>
</svg>
