<svg width="25" height="24" viewBox="0 0 25 24" fill="none" xmlns="http://www.w3.org/2000/svg">
<path d="M14.6205 22H10.8705C10.6205 22 10.4038 21.9167 10.2205 21.75C10.0371 21.5833 9.92879 21.375 9.89545 21.125L9.59545 18.8C9.37879 18.7167 9.17479 18.6167 8.98345 18.5C8.79145 18.3833 8.60379 18.2583 8.42045 18.125L6.24545 19.025C6.01212 19.1083 5.77879 19.1167 5.54545 19.05C5.31212 18.9833 5.12879 18.8417 4.99545 18.625L3.14545 15.4C3.01212 15.1833 2.97045 14.95 3.02045 14.7C3.07045 14.45 3.19545 14.25 3.39545 14.1L5.27045 12.675C5.25379 12.5583 5.24545 12.4457 5.24545 12.337V11.662C5.24545 11.554 5.25379 11.4417 5.27045 11.325L3.39545 9.9C3.19545 9.75 3.07045 9.55 3.02045 9.3C2.97045 9.05 3.01212 8.81667 3.14545 8.6L4.99545 5.375C5.11212 5.14167 5.29112 4.99567 5.53245 4.937C5.77445 4.879 6.01212 4.89167 6.24545 4.975L8.42045 5.875C8.60379 5.74167 8.79545 5.61667 8.99545 5.5C9.19545 5.38333 9.39545 5.28333 9.59545 5.2L9.89545 2.875C9.92879 2.625 10.0371 2.41667 10.2205 2.25C10.4038 2.08333 10.6205 2 10.8705 2H14.6205C14.8705 2 15.0871 2.08333 15.2705 2.25C15.4538 2.41667 15.5621 2.625 15.5955 2.875L15.8955 5.2C16.1121 5.28333 16.3165 5.38333 16.5085 5.5C16.6998 5.61667 16.8871 5.74167 17.0705 5.875L19.2455 4.975C19.4788 4.89167 19.7121 4.88333 19.9455 4.95C20.1788 5.01667 20.3621 5.15833 20.4955 5.375L22.3455 8.6C22.4788 8.81667 22.5205 9.05 22.4705 9.3C22.4205 9.55 22.2955 9.75 22.0955 9.9L20.2205 11.325C20.2371 11.4417 20.2455 11.554 20.2455 11.662V12.337C20.2455 12.4457 20.2288 12.5583 20.1955 12.675L22.0705 14.1C22.2705 14.25 22.3955 14.45 22.4455 14.7C22.4955 14.95 22.4538 15.1833 22.3205 15.4L20.4705 18.6C20.3371 18.8167 20.1498 18.9627 19.9085 19.038C19.6665 19.1127 19.4288 19.1083 19.1955 19.025L17.0705 18.125C16.8871 18.2583 16.6955 18.3833 16.4955 18.5C16.2955 18.6167 16.0955 18.7167 15.8955 18.8L15.5955 21.125C15.5621 21.375 15.4538 21.5833 15.2705 21.75C15.0871 21.9167 14.8705 22 14.6205 22ZM12.7955 15.5C13.7621 15.5 14.5871 15.1583 15.2705 14.475C15.9538 13.7917 16.2955 12.9667 16.2955 12C16.2955 11.0333 15.9538 10.2083 15.2705 9.525C14.5871 8.84167 13.7621 8.5 12.7955 8.5C11.8121 8.5 10.9828 8.84167 10.3075 9.525C9.63279 10.2083 9.29545 11.0333 9.29545 12C9.29545 12.9667 9.63279 13.7917 10.3075 14.475C10.9828 15.1583 11.8121 15.5 12.7955 15.5Z" fill="white"/>
</svg>
